ISO-10303-21;
HEADER;
/* Generated by software containing ST-Developer
 * from STEP Tools, Inc. (www.steptools.com) 
 */
/* OPTION: using custom schema-name function */

FILE_DESCRIPTION(
/* description */ (''),
/* implementation_level */ '2;1');

FILE_NAME(
/* name */ 'S_AC_M_08_feeder_drum_lid.stp',
/* time_stamp */ '2025-12-15T16:52:42+01:00',
/* author */ (''),
/* organization */ (''),
/* preprocessor_version */ 'ST-DEVELOPER v18.1',
/* originating_system */ 'SIEMENS PLM Software NX 1988',
/* authorisation */ '');

FILE_SCHEMA (('AUTOMOTIVE_DESIGN { 1 0 10303 214 3 1 1 1 }'));
ENDSEC;

DATA;
#10=SHAPE_REPRESENTATION_RELATIONSHIP('None',
'relationship between S_AC_M_08_feeder_drum_lid-None and S_AC_M_08_fee
der_drum_lid-None',#22,#11);
#11=ADVANCED_BREP_SHAPE_REPRESENTATION('S_AC_M_08_feeder_drum_lid-None',
(#32),#805);
#12=SHAPE_DEFINITION_REPRESENTATION(#13,#22);
#13=PRODUCT_DEFINITION_SHAPE('','',#14);
#14=PRODUCT_DEFINITION(' ','',#16,#15);
#15=PRODUCT_DEFINITION_CONTEXT('part definition',#21,'design');
#16=PRODUCT_DEFINITION_FORMATION_WITH_SPECIFIED_SOURCE(' ',' ',#18,
 .NOT_KNOWN.);
#17=PRODUCT_RELATED_PRODUCT_CATEGORY('part','',(#18));
#18=PRODUCT('S_AC_M_08_feeder_drum_lid','S_AC_M_08_feeder_drum_lid',' ',
(#19));
#19=PRODUCT_CONTEXT(' ',#21,'mechanical');
#20=APPLICATION_PROTOCOL_DEFINITION('international standard',
'automotive_design',2010,#21);
#21=APPLICATION_CONTEXT(
'core data for automotive mechanical design processes');
#22=SHAPE_REPRESENTATION('S_AC_M_08_feeder_drum_lid-None',(#498),#805);
#23=PRESENTATION_LAYER_ASSIGNMENT('1','Layer 1',(#32));
#24=STYLED_ITEM('',(#25),#32);
#25=PRESENTATION_STYLE_ASSIGNMENT((#26));
#26=SURFACE_STYLE_USAGE(.BOTH.,#27);
#27=SURFACE_SIDE_STYLE('',(#28));
#28=SURFACE_STYLE_FILL_AREA(#29);
#29=FILL_AREA_STYLE('',(#30));
#30=FILL_AREA_STYLE_COLOUR('',#31);
#31=COLOUR_RGB('medium steel',0.596078431372549,0.666666666666667,0.686274509803922);
#32=MANIFOLD_SOLID_BREP('',#33);
#33=CLOSED_SHELL('',(#79,#80,#81,#82,#83,#84,#85,#86,#87,#88,#89,#90,#91,
#92,#93,#94,#95,#96,#97,#98,#99,#100,#101,#102,#103,#104));
#34=FACE_BOUND('',#142,.T.);
#35=FACE_BOUND('',#143,.T.);
#36=FACE_BOUND('',#144,.T.);
#37=FACE_BOUND('',#145,.T.);
#38=FACE_BOUND('',#146,.T.);
#39=FACE_BOUND('',#147,.T.);
#40=FACE_BOUND('',#152,.T.);
#41=FACE_BOUND('',#153,.T.);
#42=FACE_BOUND('',#154,.T.);
#43=FACE_BOUND('',#155,.T.);
#44=FACE_BOUND('',#156,.T.);
#45=FACE_BOUND('',#157,.T.);
#46=FACE_BOUND('',#162,.T.);
#47=FACE_BOUND('',#163,.T.);
#48=FACE_BOUND('',#164,.T.);
#49=FACE_BOUND('',#165,.T.);
#50=FACE_BOUND('',#166,.T.);
#51=FACE_BOUND('',#167,.T.);
#52=FACE_BOUND('',#172,.T.);
#53=FACE_BOUND('',#173,.T.);
#54=FACE_BOUND('',#174,.T.);
#55=FACE_BOUND('',#175,.T.);
#56=FACE_BOUND('',#176,.T.);
#57=FACE_BOUND('',#177,.T.);
#58=CYLINDRICAL_SURFACE('',#508,60.);
#59=CYLINDRICAL_SURFACE('',#520,2.);
#60=CYLINDRICAL_SURFACE('',#529,2.);
#61=CYLINDRICAL_SURFACE('',#538,2.);
#62=CYLINDRICAL_SURFACE('',#540,10.);
#63=CIRCLE('',#500,60.);
#64=CIRCLE('',#501,60.);
#65=CIRCLE('',#502,60.);
#66=CIRCLE('',#503,60.);
#67=CIRCLE('',#504,60.);
#68=CIRCLE('',#505,60.);
#69=CIRCLE('',#506,60.);
#70=CIRCLE('',#507,60.);
#71=CIRCLE('',#509,10.);
#72=CIRCLE('',#511,10.);
#73=CIRCLE('',#513,2.);
#74=CIRCLE('',#519,2.);
#75=CIRCLE('',#522,2.);
#76=CIRCLE('',#528,2.);
#77=CIRCLE('',#531,2.);
#78=CIRCLE('',#537,2.);
#79=ADVANCED_FACE('',(#126),#105,.T.);
#80=ADVANCED_FACE('',(#127),#58,.T.);
#81=ADVANCED_FACE('',(#34,#35),#106,.F.);
#82=ADVANCED_FACE('',(#36,#37),#107,.T.);
#83=ADVANCED_FACE('',(#38,#39),#108,.F.);
#84=ADVANCED_FACE('',(#128),#109,.F.);
#85=ADVANCED_FACE('',(#129),#110,.F.);
#86=ADVANCED_FACE('',(#130),#111,.F.);
#87=ADVANCED_FACE('',(#131),#112,.F.);
#88=ADVANCED_FACE('',(#40,#41),#59,.F.);
#89=ADVANCED_FACE('',(#42,#43),#113,.T.);
#90=ADVANCED_FACE('',(#44,#45),#114,.F.);
#91=ADVANCED_FACE('',(#132),#115,.F.);
#92=ADVANCED_FACE('',(#133),#116,.F.);
#93=ADVANCED_FACE('',(#134),#117,.F.);
#94=ADVANCED_FACE('',(#135),#118,.F.);
#95=ADVANCED_FACE('',(#46,#47),#60,.F.);
#96=ADVANCED_FACE('',(#48,#49),#119,.T.);
#97=ADVANCED_FACE('',(#50,#51),#120,.F.);
#98=ADVANCED_FACE('',(#136),#121,.F.);
#99=ADVANCED_FACE('',(#137),#122,.F.);
#100=ADVANCED_FACE('',(#138),#123,.F.);
#101=ADVANCED_FACE('',(#139),#124,.F.);
#102=ADVANCED_FACE('',(#52,#53),#61,.F.);
#103=ADVANCED_FACE('',(#54,#55),#125,.T.);
#104=ADVANCED_FACE('',(#56,#57),#62,.F.);
#105=PLANE('',#499);
#106=PLANE('',#510);
#107=PLANE('',#512);
#108=PLANE('',#514);
#109=PLANE('',#515);
#110=PLANE('',#516);
#111=PLANE('',#517);
#112=PLANE('',#518);
#113=PLANE('',#521);
#114=PLANE('',#523);
#115=PLANE('',#524);
#116=PLANE('',#525);
#117=PLANE('',#526);
#118=PLANE('',#527);
#119=PLANE('',#530);
#120=PLANE('',#532);
#121=PLANE('',#533);
#122=PLANE('',#534);
#123=PLANE('',#535);
#124=PLANE('',#536);
#125=PLANE('',#539);
#126=FACE_OUTER_BOUND('',#140,.T.);
#127=FACE_OUTER_BOUND('',#141,.T.);
#128=FACE_OUTER_BOUND('',#148,.T.);
#129=FACE_OUTER_BOUND('',#149,.T.);
#130=FACE_OUTER_BOUND('',#150,.T.);
#131=FACE_OUTER_BOUND('',#151,.T.);
#132=FACE_OUTER_BOUND('',#158,.T.);
#133=FACE_OUTER_BOUND('',#159,.T.);
#134=FACE_OUTER_BOUND('',#160,.T.);
#135=FACE_OUTER_BOUND('',#161,.T.);
#136=FACE_OUTER_BOUND('',#168,.T.);
#137=FACE_OUTER_BOUND('',#169,.T.);
#138=FACE_OUTER_BOUND('',#170,.T.);
#139=FACE_OUTER_BOUND('',#171,.T.);
#140=EDGE_LOOP('',(#178,#179,#180,#181));
#141=EDGE_LOOP('',(#182,#183,#184,#185,#186,#187,#188,#189,#190,#191));
#142=EDGE_LOOP('',(#192));
#143=EDGE_LOOP('',(#193,#194));
#144=EDGE_LOOP('',(#195));
#145=EDGE_LOOP('',(#196,#197,#198,#199,#200,#201,#202,#203,#204,#205,#206,
#207,#208,#209));
#146=EDGE_LOOP('',(#210));
#147=EDGE_LOOP('',(#211,#212,#213,#214));
#148=EDGE_LOOP('',(#215,#216,#217,#218));
#149=EDGE_LOOP('',(#219,#220,#221,#222,#223));
#150=EDGE_LOOP('',(#224,#225,#226,#227));
#151=EDGE_LOOP('',(#228,#229,#230,#231,#232));
#152=EDGE_LOOP('',(#233));
#153=EDGE_LOOP('',(#234));
#154=EDGE_LOOP('',(#235,#236,#237,#238));
#155=EDGE_LOOP('',(#239));
#156=EDGE_LOOP('',(#240));
#157=EDGE_LOOP('',(#241,#242,#243,#244));
#158=EDGE_LOOP('',(#245,#246,#247,#248));
#159=EDGE_LOOP('',(#249,#250,#251,#252,#253));
#160=EDGE_LOOP('',(#254,#255,#256,#257));
#161=EDGE_LOOP('',(#258,#259,#260,#261,#262));
#162=EDGE_LOOP('',(#263));
#163=EDGE_LOOP('',(#264));
#164=EDGE_LOOP('',(#265,#266,#267,#268));
#165=EDGE_LOOP('',(#269));
#166=EDGE_LOOP('',(#270));
#167=EDGE_LOOP('',(#271,#272,#273,#274));
#168=EDGE_LOOP('',(#275,#276,#277,#278));
#169=EDGE_LOOP('',(#279,#280,#281,#282,#283));
#170=EDGE_LOOP('',(#284,#285,#286,#287));
#171=EDGE_LOOP('',(#288,#289,#290,#291,#292));
#172=EDGE_LOOP('',(#293));
#173=EDGE_LOOP('',(#294));
#174=EDGE_LOOP('',(#295,#296,#297,#298));
#175=EDGE_LOOP('',(#299));
#176=EDGE_LOOP('',(#300));
#177=EDGE_LOOP('',(#301));
#178=ORIENTED_EDGE('',*,*,#344,.F.);
#179=ORIENTED_EDGE('',*,*,#345,.T.);
#180=ORIENTED_EDGE('',*,*,#346,.T.);
#181=ORIENTED_EDGE('',*,*,#347,.T.);
#182=ORIENTED_EDGE('',*,*,#348,.F.);
#183=ORIENTED_EDGE('',*,*,#347,.F.);
#184=ORIENTED_EDGE('',*,*,#349,.T.);
#185=ORIENTED_EDGE('',*,*,#345,.F.);
#186=ORIENTED_EDGE('',*,*,#350,.F.);
#187=ORIENTED_EDGE('',*,*,#351,.F.);
#188=ORIENTED_EDGE('',*,*,#352,.F.);
#189=ORIENTED_EDGE('',*,*,#353,.F.);
#190=ORIENTED_EDGE('',*,*,#354,.F.);
#191=ORIENTED_EDGE('',*,*,#355,.F.);
#192=ORIENTED_EDGE('',*,*,#356,.T.);
#193=ORIENTED_EDGE('',*,*,#346,.F.);
#194=ORIENTED_EDGE('',*,*,#349,.F.);
#195=ORIENTED_EDGE('',*,*,#357,.T.);
#196=ORIENTED_EDGE('',*,*,#358,.F.);
#197=ORIENTED_EDGE('',*,*,#352,.T.);
#198=ORIENTED_EDGE('',*,*,#359,.F.);
#199=ORIENTED_EDGE('',*,*,#360,.F.);
#200=ORIENTED_EDGE('',*,*,#361,.F.);
#201=ORIENTED_EDGE('',*,*,#350,.T.);
#202=ORIENTED_EDGE('',*,*,#344,.T.);
#203=ORIENTED_EDGE('',*,*,#348,.T.);
#204=ORIENTED_EDGE('',*,*,#362,.F.);
#205=ORIENTED_EDGE('',*,*,#363,.F.);
#206=ORIENTED_EDGE('',*,*,#364,.F.);
#207=ORIENTED_EDGE('',*,*,#354,.T.);
#208=ORIENTED_EDGE('',*,*,#365,.F.);
#209=ORIENTED_EDGE('',*,*,#366,.F.);
#210=ORIENTED_EDGE('',*,*,#367,.T.);
#211=ORIENTED_EDGE('',*,*,#368,.F.);
#212=ORIENTED_EDGE('',*,*,#355,.T.);
#213=ORIENTED_EDGE('',*,*,#369,.F.);
#214=ORIENTED_EDGE('',*,*,#370,.F.);
#215=ORIENTED_EDGE('',*,*,#363,.T.);
#216=ORIENTED_EDGE('',*,*,#371,.F.);
#217=ORIENTED_EDGE('',*,*,#372,.F.);
#218=ORIENTED_EDGE('',*,*,#373,.T.);
#219=ORIENTED_EDGE('',*,*,#362,.T.);
#220=ORIENTED_EDGE('',*,*,#368,.T.);
#221=ORIENTED_EDGE('',*,*,#374,.F.);
#222=ORIENTED_EDGE('',*,*,#375,.F.);
#223=ORIENTED_EDGE('',*,*,#371,.T.);
#224=ORIENTED_EDGE('',*,*,#370,.T.);
#225=ORIENTED_EDGE('',*,*,#376,.F.);
#226=ORIENTED_EDGE('',*,*,#377,.F.);
#227=ORIENTED_EDGE('',*,*,#374,.T.);
#228=ORIENTED_EDGE('',*,*,#369,.T.);
#229=ORIENTED_EDGE('',*,*,#364,.T.);
#230=ORIENTED_EDGE('',*,*,#373,.F.);
#231=ORIENTED_EDGE('',*,*,#378,.F.);
#232=ORIENTED_EDGE('',*,*,#376,.T.);
#233=ORIENTED_EDGE('',*,*,#379,.T.);
#234=ORIENTED_EDGE('',*,*,#367,.F.);
#235=ORIENTED_EDGE('',*,*,#372,.T.);
#236=ORIENTED_EDGE('',*,*,#375,.T.);
#237=ORIENTED_EDGE('',*,*,#377,.T.);
#238=ORIENTED_EDGE('',*,*,#378,.T.);
#239=ORIENTED_EDGE('',*,*,#379,.F.);
#240=ORIENTED_EDGE('',*,*,#380,.T.);
#241=ORIENTED_EDGE('',*,*,#381,.F.);
#242=ORIENTED_EDGE('',*,*,#351,.T.);
#243=ORIENTED_EDGE('',*,*,#382,.F.);
#244=ORIENTED_EDGE('',*,*,#383,.F.);
#245=ORIENTED_EDGE('',*,*,#360,.T.);
#246=ORIENTED_EDGE('',*,*,#384,.F.);
#247=ORIENTED_EDGE('',*,*,#385,.F.);
#248=ORIENTED_EDGE('',*,*,#386,.T.);
#249=ORIENTED_EDGE('',*,*,#359,.T.);
#250=ORIENTED_EDGE('',*,*,#381,.T.);
#251=ORIENTED_EDGE('',*,*,#387,.F.);
#252=ORIENTED_EDGE('',*,*,#388,.F.);
#253=ORIENTED_EDGE('',*,*,#384,.T.);
#254=ORIENTED_EDGE('',*,*,#383,.T.);
#255=ORIENTED_EDGE('',*,*,#389,.F.);
#256=ORIENTED_EDGE('',*,*,#390,.F.);
#257=ORIENTED_EDGE('',*,*,#387,.T.);
#258=ORIENTED_EDGE('',*,*,#382,.T.);
#259=ORIENTED_EDGE('',*,*,#361,.T.);
#260=ORIENTED_EDGE('',*,*,#386,.F.);
#261=ORIENTED_EDGE('',*,*,#391,.F.);
#262=ORIENTED_EDGE('',*,*,#389,.T.);
#263=ORIENTED_EDGE('',*,*,#392,.T.);
#264=ORIENTED_EDGE('',*,*,#380,.F.);
#265=ORIENTED_EDGE('',*,*,#385,.T.);
#266=ORIENTED_EDGE('',*,*,#388,.T.);
#267=ORIENTED_EDGE('',*,*,#390,.T.);
#268=ORIENTED_EDGE('',*,*,#391,.T.);
#269=ORIENTED_EDGE('',*,*,#392,.F.);
#270=ORIENTED_EDGE('',*,*,#393,.T.);
#271=ORIENTED_EDGE('',*,*,#394,.F.);
#272=ORIENTED_EDGE('',*,*,#353,.T.);
#273=ORIENTED_EDGE('',*,*,#395,.F.);
#274=ORIENTED_EDGE('',*,*,#396,.F.);
#275=ORIENTED_EDGE('',*,*,#366,.T.);
#276=ORIENTED_EDGE('',*,*,#397,.F.);
#277=ORIENTED_EDGE('',*,*,#398,.F.);
#278=ORIENTED_EDGE('',*,*,#399,.T.);
#279=ORIENTED_EDGE('',*,*,#365,.T.);
#280=ORIENTED_EDGE('',*,*,#394,.T.);
#281=ORIENTED_EDGE('',*,*,#400,.F.);
#282=ORIENTED_EDGE('',*,*,#401,.F.);
#283=ORIENTED_EDGE('',*,*,#397,.T.);
#284=ORIENTED_EDGE('',*,*,#396,.T.);
#285=ORIENTED_EDGE('',*,*,#402,.F.);
#286=ORIENTED_EDGE('',*,*,#403,.F.);
#287=ORIENTED_EDGE('',*,*,#400,.T.);
#288=ORIENTED_EDGE('',*,*,#395,.T.);
#289=ORIENTED_EDGE('',*,*,#358,.T.);
#290=ORIENTED_EDGE('',*,*,#399,.F.);
#291=ORIENTED_EDGE('',*,*,#404,.F.);
#292=ORIENTED_EDGE('',*,*,#402,.T.);
#293=ORIENTED_EDGE('',*,*,#405,.T.);
#294=ORIENTED_EDGE('',*,*,#393,.F.);
#295=ORIENTED_EDGE('',*,*,#398,.T.);
#296=ORIENTED_EDGE('',*,*,#401,.T.);
#297=ORIENTED_EDGE('',*,*,#403,.T.);
#298=ORIENTED_EDGE('',*,*,#404,.T.);
#299=ORIENTED_EDGE('',*,*,#405,.F.);
#300=ORIENTED_EDGE('',*,*,#357,.F.);
#301=ORIENTED_EDGE('',*,*,#356,.F.);
#302=VERTEX_POINT('',#675);
#303=VERTEX_POINT('',#676);
#304=VERTEX_POINT('',#678);
#305=VERTEX_POINT('',#680);
#306=VERTEX_POINT('',#684);
#307=VERTEX_POINT('',#687);
#308=VERTEX_POINT('',#689);
#309=VERTEX_POINT('',#691);
#310=VERTEX_POINT('',#693);
#311=VERTEX_POINT('',#695);
#312=VERTEX_POINT('',#699);
#313=VERTEX_POINT('',#702);
#314=VERTEX_POINT('',#704);
#315=VERTEX_POINT('',#706);
#316=VERTEX_POINT('',#708);
#317=VERTEX_POINT('',#711);
#318=VERTEX_POINT('',#713);
#319=VERTEX_POINT('',#716);
#320=VERTEX_POINT('',#720);
#321=VERTEX_POINT('',#722);
#322=VERTEX_POINT('',#724);
#323=VERTEX_POINT('',#728);
#324=VERTEX_POINT('',#730);
#325=VERTEX_POINT('',#734);
#326=VERTEX_POINT('',#738);
#327=VERTEX_POINT('',#744);
#328=VERTEX_POINT('',#748);
#329=VERTEX_POINT('',#750);
#330=VERTEX_POINT('',#752);
#331=VERTEX_POINT('',#756);
#332=VERTEX_POINT('',#758);
#333=VERTEX_POINT('',#762);
#334=VERTEX_POINT('',#766);
#335=VERTEX_POINT('',#772);
#336=VERTEX_POINT('',#776);
#337=VERTEX_POINT('',#778);
#338=VERTEX_POINT('',#780);
#339=VERTEX_POINT('',#784);
#340=VERTEX_POINT('',#786);
#341=VERTEX_POINT('',#790);
#342=VERTEX_POINT('',#794);
#343=VERTEX_POINT('',#800);
#344=EDGE_CURVE('',#302,#303,#406,.T.);
#345=EDGE_CURVE('',#302,#304,#407,.T.);
#346=EDGE_CURVE('',#304,#305,#408,.T.);
#347=EDGE_CURVE('',#305,#303,#409,.T.);
#348=EDGE_CURVE('',#303,#306,#63,.T.);
#349=EDGE_CURVE('',#305,#304,#64,.T.);
#350=EDGE_CURVE('',#307,#302,#65,.T.);
#351=EDGE_CURVE('',#308,#307,#66,.T.);
#352=EDGE_CURVE('',#309,#308,#67,.T.);
#353=EDGE_CURVE('',#310,#309,#68,.T.);
#354=EDGE_CURVE('',#311,#310,#69,.T.);
#355=EDGE_CURVE('',#306,#311,#70,.T.);
#356=EDGE_CURVE('',#312,#312,#71,.T.);
#357=EDGE_CURVE('',#313,#313,#72,.T.);
#358=EDGE_CURVE('',#309,#314,#410,.T.);
#359=EDGE_CURVE('',#315,#308,#411,.T.);
#360=EDGE_CURVE('',#316,#315,#412,.T.);
#361=EDGE_CURVE('',#307,#316,#413,.T.);
#362=EDGE_CURVE('',#317,#306,#414,.T.);
#363=EDGE_CURVE('',#318,#317,#415,.T.);
#364=EDGE_CURVE('',#311,#318,#416,.T.);
#365=EDGE_CURVE('',#319,#310,#417,.T.);
#366=EDGE_CURVE('',#314,#319,#418,.T.);
#367=EDGE_CURVE('',#320,#320,#73,.T.);
#368=EDGE_CURVE('',#306,#321,#419,.T.);
#369=EDGE_CURVE('',#322,#311,#420,.T.);
#370=EDGE_CURVE('',#321,#322,#421,.T.);
#371=EDGE_CURVE('',#323,#317,#422,.T.);
#372=EDGE_CURVE('',#324,#323,#423,.T.);
#373=EDGE_CURVE('',#324,#318,#424,.T.);
#374=EDGE_CURVE('',#325,#321,#425,.T.);
#375=EDGE_CURVE('',#323,#325,#426,.T.);
#376=EDGE_CURVE('',#326,#322,#427,.T.);
#377=EDGE_CURVE('',#325,#326,#428,.T.);
#378=EDGE_CURVE('',#326,#324,#429,.T.);
#379=EDGE_CURVE('',#327,#327,#74,.T.);
#380=EDGE_CURVE('',#328,#328,#75,.T.);
#381=EDGE_CURVE('',#308,#329,#430,.T.);
#382=EDGE_CURVE('',#330,#307,#431,.T.);
#383=EDGE_CURVE('',#329,#330,#432,.T.);
#384=EDGE_CURVE('',#331,#315,#433,.T.);
#385=EDGE_CURVE('',#332,#331,#434,.T.);
#386=EDGE_CURVE('',#332,#316,#435,.T.);
#387=EDGE_CURVE('',#333,#329,#436,.T.);
#388=EDGE_CURVE('',#331,#333,#437,.T.);
#389=EDGE_CURVE('',#334,#330,#438,.T.);
#390=EDGE_CURVE('',#333,#334,#439,.T.);
#391=EDGE_CURVE('',#334,#332,#440,.T.);
#392=EDGE_CURVE('',#335,#335,#76,.T.);
#393=EDGE_CURVE('',#336,#336,#77,.T.);
#394=EDGE_CURVE('',#310,#337,#441,.T.);
#395=EDGE_CURVE('',#338,#309,#442,.T.);
#396=EDGE_CURVE('',#337,#338,#443,.T.);
#397=EDGE_CURVE('',#339,#319,#444,.T.);
#398=EDGE_CURVE('',#340,#339,#445,.T.);
#399=EDGE_CURVE('',#340,#314,#446,.T.);
#400=EDGE_CURVE('',#341,#337,#447,.T.);
#401=EDGE_CURVE('',#339,#341,#448,.T.);
#402=EDGE_CURVE('',#342,#338,#449,.T.);
#403=EDGE_CURVE('',#341,#342,#450,.T.);
#404=EDGE_CURVE('',#342,#340,#451,.T.);
#405=EDGE_CURVE('',#343,#343,#78,.T.);
#406=LINE('',#674,#452);
#407=LINE('',#677,#453);
#408=LINE('',#679,#454);
#409=LINE('',#681,#455);
#410=LINE('',#703,#456);
#411=LINE('',#705,#457);
#412=LINE('',#707,#458);
#413=LINE('',#709,#459);
#414=LINE('',#710,#460);
#415=LINE('',#712,#461);
#416=LINE('',#714,#462);
#417=LINE('',#715,#463);
#418=LINE('',#717,#464);
#419=LINE('',#721,#465);
#420=LINE('',#723,#466);
#421=LINE('',#725,#467);
#422=LINE('',#727,#468);
#423=LINE('',#729,#469);
#424=LINE('',#731,#470);
#425=LINE('',#733,#471);
#426=LINE('',#735,#472);
#427=LINE('',#737,#473);
#428=LINE('',#739,#474);
#429=LINE('',#741,#475);
#430=LINE('',#749,#476);
#431=LINE('',#751,#477);
#432=LINE('',#753,#478);
#433=LINE('',#755,#479);
#434=LINE('',#757,#480);
#435=LINE('',#759,#481);
#436=LINE('',#761,#482);
#437=LINE('',#763,#483);
#438=LINE('',#765,#484);
#439=LINE('',#767,#485);
#440=LINE('',#769,#486);
#441=LINE('',#777,#487);
#442=LINE('',#779,#488);
#443=LINE('',#781,#489);
#444=LINE('',#783,#490);
#445=LINE('',#785,#491);
#446=LINE('',#787,#492);
#447=LINE('',#789,#493);
#448=LINE('',#791,#494);
#449=LINE('',#793,#495);
#450=LINE('',#795,#496);
#451=LINE('',#797,#497);
#452=VECTOR('',#543,1.);
#453=VECTOR('',#544,1.);
#454=VECTOR('',#545,1.);
#455=VECTOR('',#546,1.);
#456=VECTOR('',#573,1.);
#457=VECTOR('',#574,1.);
#458=VECTOR('',#575,1.);
#459=VECTOR('',#576,1.);
#460=VECTOR('',#577,1.);
#461=VECTOR('',#578,1.);
#462=VECTOR('',#579,1.);
#463=VECTOR('',#580,1.);
#464=VECTOR('',#581,1.);
#465=VECTOR('',#586,1.);
#466=VECTOR('',#587,1.);
#467=VECTOR('',#588,1.);
#468=VECTOR('',#591,1.);
#469=VECTOR('',#592,1.);
#470=VECTOR('',#593,1.);
#471=VECTOR('',#596,1.);
#472=VECTOR('',#597,1.);
#473=VECTOR('',#600,1.);
#474=VECTOR('',#601,1.);
#475=VECTOR('',#604,1.);
#476=VECTOR('',#615,1.);
#477=VECTOR('',#616,1.);
#478=VECTOR('',#617,1.);
#479=VECTOR('',#620,1.);
#480=VECTOR('',#621,1.);
#481=VECTOR('',#622,1.);
#482=VECTOR('',#625,1.);
#483=VECTOR('',#626,1.);
#484=VECTOR('',#629,1.);
#485=VECTOR('',#630,1.);
#486=VECTOR('',#633,1.);
#487=VECTOR('',#644,1.);
#488=VECTOR('',#645,1.);
#489=VECTOR('',#646,1.);
#490=VECTOR('',#649,1.);
#491=VECTOR('',#650,1.);
#492=VECTOR('',#651,1.);
#493=VECTOR('',#654,1.);
#494=VECTOR('',#655,1.);
#495=VECTOR('',#658,1.);
#496=VECTOR('',#659,1.);
#497=VECTOR('',#662,1.);
#498=AXIS2_PLACEMENT_3D('',#673,#541,#542);
#499=AXIS2_PLACEMENT_3D('',#682,#547,#548);
#500=AXIS2_PLACEMENT_3D('',#683,#549,#550);
#501=AXIS2_PLACEMENT_3D('',#685,#551,#552);
#502=AXIS2_PLACEMENT_3D('',#686,#553,#554);
#503=AXIS2_PLACEMENT_3D('',#688,#555,#556);
#504=AXIS2_PLACEMENT_3D('',#690,#557,#558);
#505=AXIS2_PLACEMENT_3D('',#692,#559,#560);
#506=AXIS2_PLACEMENT_3D('',#694,#561,#562);
#507=AXIS2_PLACEMENT_3D('',#696,#563,#564);
#508=AXIS2_PLACEMENT_3D('',#697,#565,#566);
#509=AXIS2_PLACEMENT_3D('',#698,#567,#568);
#510=AXIS2_PLACEMENT_3D('',#700,#569,#570);
#511=AXIS2_PLACEMENT_3D('',#701,#571,#572);
#512=AXIS2_PLACEMENT_3D('',#718,#582,#583);
#513=AXIS2_PLACEMENT_3D('',#719,#584,#585);
#514=AXIS2_PLACEMENT_3D('',#726,#589,#590);
#515=AXIS2_PLACEMENT_3D('',#732,#594,#595);
#516=AXIS2_PLACEMENT_3D('',#736,#598,#599);
#517=AXIS2_PLACEMENT_3D('',#740,#602,#603);
#518=AXIS2_PLACEMENT_3D('',#742,#605,#606);
#519=AXIS2_PLACEMENT_3D('',#743,#607,#608);
#520=AXIS2_PLACEMENT_3D('',#745,#609,#610);
#521=AXIS2_PLACEMENT_3D('',#746,#611,#612);
#522=AXIS2_PLACEMENT_3D('',#747,#613,#614);
#523=AXIS2_PLACEMENT_3D('',#754,#618,#619);
#524=AXIS2_PLACEMENT_3D('',#760,#623,#624);
#525=AXIS2_PLACEMENT_3D('',#764,#627,#628);
#526=AXIS2_PLACEMENT_3D('',#768,#631,#632);
#527=AXIS2_PLACEMENT_3D('',#770,#634,#635);
#528=AXIS2_PLACEMENT_3D('',#771,#636,#637);
#529=AXIS2_PLACEMENT_3D('',#773,#638,#639);
#530=AXIS2_PLACEMENT_3D('',#774,#640,#641);
#531=AXIS2_PLACEMENT_3D('',#775,#642,#643);
#532=AXIS2_PLACEMENT_3D('',#782,#647,#648);
#533=AXIS2_PLACEMENT_3D('',#788,#652,#653);
#534=AXIS2_PLACEMENT_3D('',#792,#656,#657);
#535=AXIS2_PLACEMENT_3D('',#796,#660,#661);
#536=AXIS2_PLACEMENT_3D('',#798,#663,#664);
#537=AXIS2_PLACEMENT_3D('',#799,#665,#666);
#538=AXIS2_PLACEMENT_3D('',#801,#667,#668);
#539=AXIS2_PLACEMENT_3D('',#802,#669,#670);
#540=AXIS2_PLACEMENT_3D('',#803,#671,#672);
#541=DIRECTION('',(0.,0.,1.));
#542=DIRECTION('',(1.,0.,0.));
#543=DIRECTION('',(0.,-1.,0.));
#544=DIRECTION('',(-1.,0.,0.));
#545=DIRECTION('',(0.,-1.,0.));
#546=DIRECTION('',(1.,0.,0.));
#547=DIRECTION('',(0.,0.,1.));
#548=DIRECTION('',(1.,0.,0.));
#549=DIRECTION('',(1.,0.,0.));
#550=DIRECTION('',(0.,1.,-6.12323399573677E-17));
#551=DIRECTION('',(1.,0.,0.));
#552=DIRECTION('',(0.,1.,-6.12323399573677E-17));
#553=DIRECTION('',(1.,0.,0.));
#554=DIRECTION('',(0.,1.,-6.12323399573677E-17));
#555=DIRECTION('',(1.,0.,0.));
#556=DIRECTION('',(0.,1.,-6.12323399573677E-17));
#557=DIRECTION('',(1.,0.,0.));
#558=DIRECTION('',(0.,1.,-6.12323399573677E-17));
#559=DIRECTION('',(1.,0.,0.));
#560=DIRECTION('',(0.,1.,-6.12323399573677E-17));
#561=DIRECTION('',(1.,0.,0.));
#562=DIRECTION('',(0.,1.,-6.12323399573677E-17));
#563=DIRECTION('',(1.,0.,0.));
#564=DIRECTION('',(0.,1.,-6.12323399573677E-17));
#565=DIRECTION('',(1.,0.,0.));
#566=DIRECTION('',(0.,0.,-1.));
#567=DIRECTION('',(1.,0.,0.));
#568=DIRECTION('',(0.,0.,-1.));
#569=DIRECTION('',(1.,0.,0.));
#570=DIRECTION('',(0.,0.,-1.));
#571=DIRECTION('',(-1.,0.,0.));
#572=DIRECTION('',(0.,0.,1.));
#573=DIRECTION('',(0.,0.258819045102518,0.965925826289069));
#574=DIRECTION('',(0.,0.965925826289068,0.258819045102523));
#575=DIRECTION('',(0.,0.258819045102523,-0.965925826289068));
#576=DIRECTION('',(0.,-0.965925826289068,-0.258819045102522));
#577=DIRECTION('',(0.,-0.707106781186548,0.707106781186547));
#578=DIRECTION('',(0.,0.707106781186547,0.707106781186548));
#579=DIRECTION('',(0.,0.707106781186547,-0.707106781186547));
#580=DIRECTION('',(0.,-0.258819045102517,-0.965925826289069));
#581=DIRECTION('',(0.,-0.965925826289069,0.258819045102517));
#582=DIRECTION('',(1.,0.,0.));
#583=DIRECTION('',(0.,0.,-1.));
#584=DIRECTION('',(1.,0.,0.));
#585=DIRECTION('',(0.,1.,0.));
#586=DIRECTION('',(0.,-0.707106781186548,0.707106781186547));
#587=DIRECTION('',(0.,0.707106781186547,-0.707106781186547));
#588=DIRECTION('',(0.,-0.707106781186547,-0.707106781186547));
#589=DIRECTION('',(1.,0.,0.));
#590=DIRECTION('',(0.,0.,-1.));
#591=DIRECTION('',(-1.,0.,0.));
#592=DIRECTION('',(0.,0.707106781186547,0.707106781186548));
#593=DIRECTION('',(-1.,0.,0.));
#594=DIRECTION('',(0.,-0.707106781186548,0.707106781186547));
#595=DIRECTION('',(0.,-0.707106781186547,-0.707106781186548));
#596=DIRECTION('',(-1.,0.,0.));
#597=DIRECTION('',(0.,-0.707106781186548,0.707106781186547));
#598=DIRECTION('',(0.,-0.707106781186547,-0.707106781186548));
#599=DIRECTION('',(0.,0.707106781186548,-0.707106781186547));
#600=DIRECTION('',(-1.,0.,0.));
#601=DIRECTION('',(0.,-0.707106781186547,-0.707106781186547));
#602=DIRECTION('',(0.,0.707106781186548,-0.707106781186548));
#603=DIRECTION('',(0.,0.707106781186548,0.707106781186548));
#604=DIRECTION('',(0.,0.707106781186547,-0.707106781186547));
#605=DIRECTION('',(0.,0.707106781186548,0.707106781186548));
#606=DIRECTION('',(0.,-0.707106781186548,0.707106781186548));
#607=DIRECTION('',(1.,0.,0.));
#608=DIRECTION('',(0.,1.,0.));
#609=DIRECTION('',(-1.,0.,0.));
#610=DIRECTION('',(0.,0.,1.));
#611=DIRECTION('',(1.,0.,0.));
#612=DIRECTION('',(0.,0.,-1.));
#613=DIRECTION('',(1.,0.,0.));
#614=DIRECTION('',(0.,-0.5,-0.866025403784439));
#615=DIRECTION('',(0.,0.965925826289068,0.258819045102523));
#616=DIRECTION('',(0.,-0.965925826289068,-0.258819045102522));
#617=DIRECTION('',(0.,-0.258819045102522,0.965925826289068));
#618=DIRECTION('',(1.,0.,0.));
#619=DIRECTION('',(0.,-0.866025403784439,0.499999999999999));
#620=DIRECTION('',(-1.,0.,0.));
#621=DIRECTION('',(0.,0.258819045102523,-0.965925826289068));
#622=DIRECTION('',(-1.,0.,0.));
#623=DIRECTION('',(0.,0.965925826289068,0.258819045102523));
#624=DIRECTION('',(0.,-0.258819045102523,0.965925826289068));
#625=DIRECTION('',(-1.,0.,0.));
#626=DIRECTION('',(0.,0.965925826289068,0.258819045102523));
#627=DIRECTION('',(0.,-0.258819045102523,0.965925826289068));
#628=DIRECTION('',(0.,-0.965925826289068,-0.258819045102523));
#629=DIRECTION('',(-1.,0.,0.));
#630=DIRECTION('',(0.,-0.258819045102522,0.965925826289068));
#631=DIRECTION('',(0.,-0.965925826289068,-0.258819045102522));
#632=DIRECTION('',(0.,0.258819045102522,-0.965925826289068));
#633=DIRECTION('',(0.,-0.965925826289068,-0.258819045102522));
#634=DIRECTION('',(0.,0.258819045102522,-0.965925826289068));
#635=DIRECTION('',(0.,0.965925826289068,0.258819045102522));
#636=DIRECTION('',(1.,0.,0.));
#637=DIRECTION('',(0.,-0.5,-0.866025403784439));
#638=DIRECTION('',(-1.,0.,0.));
#639=DIRECTION('',(0.,0.866025403784443,-0.499999999999999));
#640=DIRECTION('',(1.,0.,0.));
#641=DIRECTION('',(0.,-0.866025403784439,0.499999999999999));
#642=DIRECTION('',(1.,0.,0.));
#643=DIRECTION('',(0.,-0.500000000000002,0.866025403784436));
#644=DIRECTION('',(0.,-0.258819045102517,-0.965925826289069));
#645=DIRECTION('',(0.,0.258819045102518,0.965925826289069));
#646=DIRECTION('',(0.,0.965925826289069,-0.258819045102518));
#647=DIRECTION('',(1.,0.,0.));
#648=DIRECTION('',(0.,0.866025403784437,0.500000000000003));
#649=DIRECTION('',(-1.,0.,0.));
#650=DIRECTION('',(0.,-0.965925826289069,0.258819045102517));
#651=DIRECTION('',(-1.,0.,0.));
#652=DIRECTION('',(0.,-0.258819045102517,-0.965925826289069));
#653=DIRECTION('',(0.,0.965925826289069,-0.258819045102517));
#654=DIRECTION('',(-1.,0.,0.));
#655=DIRECTION('',(0.,-0.258819045102517,-0.965925826289069));
#656=DIRECTION('',(0.,0.965925826289069,-0.258819045102517));
#657=DIRECTION('',(0.,0.258819045102517,0.965925826289069));
#658=DIRECTION('',(-1.,0.,0.));
#659=DIRECTION('',(0.,0.965925826289069,-0.258819045102518));
#660=DIRECTION('',(0.,0.258819045102518,0.965925826289069));
#661=DIRECTION('',(0.,-0.965925826289069,0.258819045102518));
#662=DIRECTION('',(0.,0.258819045102518,0.965925826289069));
#663=DIRECTION('',(0.,-0.965925826289069,0.258819045102518));
#664=DIRECTION('',(0.,-0.258819045102518,-0.965925826289069));
#665=DIRECTION('',(1.,0.,0.));
#666=DIRECTION('',(0.,-0.500000000000002,0.866025403784436));
#667=DIRECTION('',(-1.,0.,0.));
#668=DIRECTION('',(0.,-0.866025403784438,-0.5));
#669=DIRECTION('',(1.,0.,0.));
#670=DIRECTION('',(0.,0.866025403784437,0.500000000000003));
#671=DIRECTION('',(-1.,0.,0.));
#672=DIRECTION('',(0.,0.,1.));
#673=CARTESIAN_POINT('',(0.,0.,0.));
#674=CARTESIAN_POINT('',(0.,16.5831239517769,57.662812973354));
#675=CARTESIAN_POINT('',(0.,16.5831239517769,57.662812973354));
#676=CARTESIAN_POINT('',(0.,-16.5831239517769,57.662812973354));
#677=CARTESIAN_POINT('',(-5.,16.5831239517769,57.662812973354));
#678=CARTESIAN_POINT('',(-5.,16.5831239517769,57.662812973354));
#679=CARTESIAN_POINT('',(-5.,16.5831239517769,57.662812973354));
#680=CARTESIAN_POINT('',(-5.,-16.5831239517769,57.662812973354));
#681=CARTESIAN_POINT('',(-5.,-16.5831239517769,57.662812973354));
#682=CARTESIAN_POINT('',(-5.,16.5831239517769,57.662812973354));
#683=CARTESIAN_POINT('',(0.,0.,0.));
#684=CARTESIAN_POINT('',(0.,-38.7433024072867,45.8143702191522));
#685=CARTESIAN_POINT('',(-5.,0.,0.));
#686=CARTESIAN_POINT('',(0.,0.,0.));
#687=CARTESIAN_POINT('',(0.,56.4598692207891,20.3047572645278));
#688=CARTESIAN_POINT('',(0.,0.,0.));
#689=CARTESIAN_POINT('',(0.,59.0480596718143,10.6454990016371));
#690=CARTESIAN_POINT('',(0.,0.,0.));
#691=CARTESIAN_POINT('',(0.,-10.6454990016368,-59.0480596718144));
#692=CARTESIAN_POINT('',(0.,0.,0.));
#693=CARTESIAN_POINT('',(0.,-20.3047572645275,-56.4598692207892));
#694=CARTESIAN_POINT('',(0.,0.,0.));
#695=CARTESIAN_POINT('',(0.,-45.8143702191521,38.7433024072867));
#696=CARTESIAN_POINT('',(0.,0.,0.));
#697=CARTESIAN_POINT('',(-5.,0.,0.));
#698=CARTESIAN_POINT('',(-5.,0.,0.));
#699=CARTESIAN_POINT('',(-5.,0.,-10.));
#700=CARTESIAN_POINT('',(-5.,0.,0.));
#701=CARTESIAN_POINT('',(0.,0.,0.));
#702=CARTESIAN_POINT('',(0.,0.,10.));
#703=CARTESIAN_POINT('',(0.,-14.5319525107693,-73.5525016291514));
#704=CARTESIAN_POINT('',(0.,-9.40541834919313,-54.4200156714114));
#705=CARTESIAN_POINT('',(0.,54.4200156714113,9.40541834919336));
#706=CARTESIAN_POINT('',(0.,54.4200156714113,9.40541834919336));
#707=CARTESIAN_POINT('',(0.,51.8318252203861,19.0646766120841));
#708=CARTESIAN_POINT('',(0.,51.8318252203861,19.0646766120841));
#709=CARTESIAN_POINT('',(0.,70.9643111781261,24.1912107736603));
#710=CARTESIAN_POINT('',(0.,-35.3553390593274,42.4264068711929));
#711=CARTESIAN_POINT('',(0.,-35.3553390593274,42.4264068711929));
#712=CARTESIAN_POINT('',(0.,-42.4264068711928,35.3553390593274));
#713=CARTESIAN_POINT('',(0.,-42.4264068711928,35.3553390593274));
#714=CARTESIAN_POINT('',(0.,-56.4323586673566,49.3612908554911));
#715=CARTESIAN_POINT('',(0.,-19.0646766120838,-51.8318252203862));
#716=CARTESIAN_POINT('',(0.,-19.0646766120838,-51.8318252203862));
#717=CARTESIAN_POINT('',(0.,-9.40541834919313,-54.4200156714114));
#718=CARTESIAN_POINT('',(0.,0.,0.));
#719=CARTESIAN_POINT('',(0.,-49.3612908554911,49.3612908554911));
#720=CARTESIAN_POINT('',(0.,-47.3612908554911,49.3612908554911));
#721=CARTESIAN_POINT('',(0.,-35.3553390593274,42.4264068711929));
#722=CARTESIAN_POINT('',(0.,-49.3612908554911,56.4323586673566));
#723=CARTESIAN_POINT('',(0.,-56.4323586673566,49.3612908554911));
#724=CARTESIAN_POINT('',(0.,-56.4323586673566,49.3612908554911));
#725=CARTESIAN_POINT('',(0.,-49.3612908554911,56.4323586673566));
#726=CARTESIAN_POINT('',(0.,-49.3612908554911,49.3612908554911));
#727=CARTESIAN_POINT('',(5.,-35.3553390593274,42.4264068711929));
#728=CARTESIAN_POINT('',(5.,-35.3553390593274,42.4264068711929));
#729=CARTESIAN_POINT('',(5.,-42.4264068711928,35.3553390593274));
#730=CARTESIAN_POINT('',(5.,-42.4264068711928,35.3553390593274));
#731=CARTESIAN_POINT('',(5.,-42.4264068711928,35.3553390593274));
#732=CARTESIAN_POINT('',(5.,-42.4264068711928,35.3553390593274));
#733=CARTESIAN_POINT('',(5.,-49.3612908554911,56.4323586673566));
#734=CARTESIAN_POINT('',(5.,-49.3612908554911,56.4323586673566));
#735=CARTESIAN_POINT('',(5.,-35.3553390593274,42.4264068711929));
#736=CARTESIAN_POINT('',(5.,-35.3553390593274,42.4264068711929));
#737=CARTESIAN_POINT('',(5.,-56.4323586673566,49.3612908554911));
#738=CARTESIAN_POINT('',(5.,-56.4323586673566,49.3612908554911));
#739=CARTESIAN_POINT('',(5.,-49.3612908554911,56.4323586673566));
#740=CARTESIAN_POINT('',(5.,-49.3612908554911,56.4323586673566));
#741=CARTESIAN_POINT('',(5.,-56.4323586673566,49.3612908554911));
#742=CARTESIAN_POINT('',(5.,-56.4323586673566,49.3612908554911));
#743=CARTESIAN_POINT('',(5.,-49.3612908554911,49.3612908554911));
#744=CARTESIAN_POINT('',(5.,-47.3612908554911,49.3612908554911));
#745=CARTESIAN_POINT('',(5.,-49.3612908554911,49.3612908554911));
#746=CARTESIAN_POINT('',(5.,-49.3612908554911,49.3612908554911));
#747=CARTESIAN_POINT('',(0.,67.4287772721934,18.0674864167024));
#748=CARTESIAN_POINT('',(0.,66.4287772721934,16.3354356091335));
#749=CARTESIAN_POINT('',(0.,54.4200156714113,9.40541834919336));
#750=CARTESIAN_POINT('',(0.,73.5525016291513,14.5319525107696));
#751=CARTESIAN_POINT('',(0.,70.9643111781261,24.1912107736603));
#752=CARTESIAN_POINT('',(0.,70.9643111781261,24.1912107736603));
#753=CARTESIAN_POINT('',(0.,73.5525016291513,14.5319525107696));
#754=CARTESIAN_POINT('',(0.,67.4287772721934,18.0674864167024));
#755=CARTESIAN_POINT('',(5.,54.4200156714113,9.40541834919336));
#756=CARTESIAN_POINT('',(5.,54.4200156714113,9.40541834919336));
#757=CARTESIAN_POINT('',(5.,51.8318252203861,19.0646766120841));
#758=CARTESIAN_POINT('',(5.,51.8318252203861,19.0646766120841));
#759=CARTESIAN_POINT('',(5.,51.8318252203861,19.0646766120841));
#760=CARTESIAN_POINT('',(5.,51.8318252203861,19.0646766120841));
#761=CARTESIAN_POINT('',(5.,73.5525016291513,14.5319525107696));
#762=CARTESIAN_POINT('',(5.,73.5525016291513,14.5319525107696));
#763=CARTESIAN_POINT('',(5.,54.4200156714113,9.40541834919336));
#764=CARTESIAN_POINT('',(5.,54.4200156714113,9.40541834919336));
#765=CARTESIAN_POINT('',(5.,70.9643111781261,24.1912107736603));
#766=CARTESIAN_POINT('',(5.,70.9643111781261,24.1912107736603));
#767=CARTESIAN_POINT('',(5.,73.5525016291513,14.5319525107696));
#768=CARTESIAN_POINT('',(5.,73.5525016291513,14.5319525107696));
#769=CARTESIAN_POINT('',(5.,70.9643111781261,24.1912107736603));
#770=CARTESIAN_POINT('',(5.,70.9643111781261,24.1912107736603));
#771=CARTESIAN_POINT('',(5.,67.4287772721934,18.0674864167024));
#772=CARTESIAN_POINT('',(5.,66.4287772721934,16.3354356091335));
#773=CARTESIAN_POINT('',(5.,67.4287772721934,18.0674864167024));
#774=CARTESIAN_POINT('',(5.,67.4287772721934,18.0674864167024));
#775=CARTESIAN_POINT('',(0.,-18.067486416702,-67.4287772721935));
#776=CARTESIAN_POINT('',(0.,-19.067486416702,-65.6967264646246));
#777=CARTESIAN_POINT('',(0.,-19.0646766120838,-51.8318252203862));
#778=CARTESIAN_POINT('',(0.,-24.19121077366,-70.9643111781262));
#779=CARTESIAN_POINT('',(0.,-14.5319525107693,-73.5525016291514));
#780=CARTESIAN_POINT('',(0.,-14.5319525107693,-73.5525016291514));
#781=CARTESIAN_POINT('',(0.,-24.19121077366,-70.9643111781262));
#782=CARTESIAN_POINT('',(0.,-18.067486416702,-67.4287772721935));
#783=CARTESIAN_POINT('',(5.,-19.0646766120838,-51.8318252203862));
#784=CARTESIAN_POINT('',(5.,-19.0646766120838,-51.8318252203862));
#785=CARTESIAN_POINT('',(5.,-9.40541834919313,-54.4200156714114));
#786=CARTESIAN_POINT('',(5.,-9.40541834919313,-54.4200156714114));
#787=CARTESIAN_POINT('',(5.,-9.40541834919313,-54.4200156714114));
#788=CARTESIAN_POINT('',(5.,-9.40541834919313,-54.4200156714114));
#789=CARTESIAN_POINT('',(5.,-24.19121077366,-70.9643111781262));
#790=CARTESIAN_POINT('',(5.,-24.19121077366,-70.9643111781262));
#791=CARTESIAN_POINT('',(5.,-19.0646766120838,-51.8318252203862));
#792=CARTESIAN_POINT('',(5.,-19.0646766120838,-51.8318252203862));
#793=CARTESIAN_POINT('',(5.,-14.5319525107693,-73.5525016291514));
#794=CARTESIAN_POINT('',(5.,-14.5319525107693,-73.5525016291514));
#795=CARTESIAN_POINT('',(5.,-24.19121077366,-70.9643111781262));
#796=CARTESIAN_POINT('',(5.,-24.19121077366,-70.9643111781262));
#797=CARTESIAN_POINT('',(5.,-14.5319525107693,-73.5525016291514));
#798=CARTESIAN_POINT('',(5.,-14.5319525107693,-73.5525016291514));
#799=CARTESIAN_POINT('',(5.,-18.067486416702,-67.4287772721935));
#800=CARTESIAN_POINT('',(5.,-19.067486416702,-65.6967264646246));
#801=CARTESIAN_POINT('',(5.,-18.067486416702,-67.4287772721935));
#802=CARTESIAN_POINT('',(5.,-18.067486416702,-67.4287772721935));
#803=CARTESIAN_POINT('',(0.,0.,0.));
#804=MECHANICAL_DESIGN_GEOMETRIC_PRESENTATION_REPRESENTATION('',(#24),#805);
#805=(
GEOMETRIC_REPRESENTATION_CONTEXT(3)
GLOBAL_UNCERTAINTY_ASSIGNED_CONTEXT((#806))
GLOBAL_UNIT_ASSIGNED_CONTEXT((#812,#808,#807))
REPRESENTATION_CONTEXT('S_AC_M_08_feeder_drum_lid',
'TOP_LEVEL_ASSEMBLY_PART')
);
#806=UNCERTAINTY_MEASURE_WITH_UNIT(LENGTH_MEASURE(2.E-5),#812,
'DISTANCE_ACCURACY_VALUE','Maximum Tolerance applied to model');
#807=(
NAMED_UNIT(*)
SI_UNIT($,.STERADIAN.)
SOLID_ANGLE_UNIT()
);
#808=(
CONVERSION_BASED_UNIT('DEGREE',#810)
NAMED_UNIT(#809)
PLANE_ANGLE_UNIT()
);
#809=DIMENSIONAL_EXPONENTS(0.,0.,0.,0.,0.,0.,0.);
#810=PLANE_ANGLE_MEASURE_WITH_UNIT(PLANE_ANGLE_MEASURE(0.0174532925),#811);
#811=(
NAMED_UNIT(*)
PLANE_ANGLE_UNIT()
SI_UNIT($,.RADIAN.)
);
#812=(
LENGTH_UNIT()
NAMED_UNIT(*)
SI_UNIT(.MILLI.,.METRE.)
);
ENDSEC;
END-ISO-10303-21;
