ISO-10303-21;
HEADER;
/* Generated by software containing ST-Developer
 * from STEP Tools, Inc. (www.steptools.com) 
 */
/* OPTION: using custom schema-name function */

FILE_DESCRIPTION(
/* description */ (''),
/* implementation_level */ '2;1');

FILE_NAME(
/* name */ 'S_AC_M_06_crank.stp',
/* time_stamp */ '2025-12-15T16:51:49+01:00',
/* author */ (''),
/* organization */ (''),
/* preprocessor_version */ 'ST-DEVELOPER v18.1',
/* originating_system */ 'SIEMENS PLM Software NX 1988',
/* authorisation */ '');

FILE_SCHEMA (('AUTOMOTIVE_DESIGN { 1 0 10303 214 3 1 1 1 }'));
ENDSEC;

DATA;
#10=SHAPE_REPRESENTATION_RELATIONSHIP('None',
'relationship between S_AC_M_06_crank-None and S_AC_M_06_crank-None',#22,
#11);
#11=ADVANCED_BREP_SHAPE_REPRESENTATION('S_AC_M_06_crank-None',(#32),#692);
#12=SHAPE_DEFINITION_REPRESENTATION(#13,#22);
#13=PRODUCT_DEFINITION_SHAPE('','',#14);
#14=PRODUCT_DEFINITION(' ','',#16,#15);
#15=PRODUCT_DEFINITION_CONTEXT('part definition',#21,'design');
#16=PRODUCT_DEFINITION_FORMATION_WITH_SPECIFIED_SOURCE(' ',' ',#18,
 .NOT_KNOWN.);
#17=PRODUCT_RELATED_PRODUCT_CATEGORY('part','',(#18));
#18=PRODUCT('S_AC_M_06_crank','S_AC_M_06_crank',' ',(#19));
#19=PRODUCT_CONTEXT(' ',#21,'mechanical');
#20=APPLICATION_PROTOCOL_DEFINITION('international standard',
'automotive_design',2010,#21);
#21=APPLICATION_CONTEXT(
'core data for automotive mechanical design processes');
#22=SHAPE_REPRESENTATION('S_AC_M_06_crank-None',(#286),#692);
#23=PRESENTATION_LAYER_ASSIGNMENT('1','Layer 1',(#32));
#24=STYLED_ITEM('',(#25),#32);
#25=PRESENTATION_STYLE_ASSIGNMENT((#26));
#26=SURFACE_STYLE_USAGE(.BOTH.,#27);
#27=SURFACE_SIDE_STYLE('',(#28));
#28=SURFACE_STYLE_FILL_AREA(#29);
#29=FILL_AREA_STYLE('',(#30));
#30=FILL_AREA_STYLE_COLOUR('',#31);
#31=COLOUR_RGB('medium steel',0.596078431372549,0.666666666666667,0.686274509803922);
#32=MANIFOLD_SOLID_BREP('',#33);
#33=CLOSED_SHELL('',(#52,#53,#54,#55,#56,#57,#58,#59,#60,#61,#62,#63,#64,
#65,#66,#67));
#34=PLANE('',#295);
#35=PLANE('',#297);
#36=PLANE('',#298);
#37=PLANE('',#302);
#38=PLANE('',#303);
#39=PLANE('',#304);
#40=PLANE('',#305);
#41=PLANE('',#308);
#42=PLANE('',#311);
#43=FACE_OUTER_BOUND('',#135,.T.);
#44=FACE_OUTER_BOUND('',#136,.T.);
#45=FACE_OUTER_BOUND('',#141,.T.);
#46=FACE_OUTER_BOUND('',#142,.T.);
#47=FACE_OUTER_BOUND('',#143,.T.);
#48=FACE_OUTER_BOUND('',#144,.T.);
#49=FACE_OUTER_BOUND('',#147,.T.);
#50=FACE_OUTER_BOUND('',#152,.T.);
#51=FACE_OUTER_BOUND('',#153,.T.);
#52=ADVANCED_FACE('',(#109,#110,#111,#112),#68,.T.);
#53=ADVANCED_FACE('',(#113,#114,#115,#116),#69,.F.);
#54=ADVANCED_FACE('',(#43),#34,.F.);
#55=ADVANCED_FACE('',(#44),#35,.F.);
#56=ADVANCED_FACE('',(#117,#118),#36,.T.);
#57=ADVANCED_FACE('',(#119,#120),#37,.F.);
#58=ADVANCED_FACE('',(#45),#38,.T.);
#59=ADVANCED_FACE('',(#46),#39,.T.);
#60=ADVANCED_FACE('',(#47),#40,.T.);
#61=ADVANCED_FACE('',(#48),#41,.F.);
#62=ADVANCED_FACE('',(#121,#122),#70,.T.);
#63=ADVANCED_FACE('',(#49),#42,.F.);
#64=ADVANCED_FACE('',(#123,#124),#71,.F.);
#65=ADVANCED_FACE('',(#125,#126),#72,.F.);
#66=ADVANCED_FACE('',(#50),#73,.F.);
#67=ADVANCED_FACE('',(#51),#74,.F.);
#68=CYLINDRICAL_SURFACE('',#290,12.5);
#69=CYLINDRICAL_SURFACE('',#293,10.5);
#70=CYLINDRICAL_SURFACE('',#310,10.);
#71=CYLINDRICAL_SURFACE('',#312,2.);
#72=CYLINDRICAL_SURFACE('',#313,2.);
#73=CYLINDRICAL_SURFACE('',#314,5.);
#74=CYLINDRICAL_SURFACE('',#315,5.);
#75=B_SPLINE_CURVE_WITH_KNOTS('',3,(#402,#403,#404,#405,#406,#407,#408,
#409,#410,#411,#412,#413,#414,#415,#416,#417,#418,#419,#420,#421,#422,#423,
#424,#425,#426,#427,#428,#429,#430,#431,#432,#433,#434,#435,#436,#437,#438,
#439,#440,#441,#442,#443,#444,#445,#446,#447,#448,#449,#450,#451,#452,#453,
#454,#455,#456,#457,#458,#459),.UNSPECIFIED.,.T.,.F.,(1,3,3,3,3,3,3,3,3,
3,3,3,3,3,3,3,3,3,3,3,3,1),(-0.0376360349461035,0.,0.0532354274476332,0.10644166966991,
0.160084865870934,0.214034925005892,0.267518054783616,0.320498111759882,
0.373703713086354,0.427519090080821,0.481393748569029,0.534662460145959,
0.587611471661748,0.641018760746558,0.694950698124612,0.748660515299342,
0.801756077751763,0.854794115995831,0.90840988797638,0.962363965053897,
1.,1.05323542744763),.UNSPECIFIED.);
#76=B_SPLINE_CURVE_WITH_KNOTS('',3,(#461,#462,#463,#464,#465,#466,#467,
#468,#469,#470,#471,#472,#473,#474,#475,#476,#477,#478,#479,#480,#481,#482,
#483,#484,#485,#486,#487,#488,#489,#490,#491,#492,#493,#494,#495,#496,#497,
#498,#499,#500,#501,#502,#503,#504,#505,#506,#507,#508,#509,#510,#511,#512,
#513,#514,#515,#516,#517,#518),.UNSPECIFIED.,.T.,.F.,(1,3,3,3,3,3,3,3,3,
3,3,3,3,3,3,3,3,3,3,3,3,1),(-0.0376430317698674,0.,0.0532402622027825,0.10645228910115,
0.160088959474712,0.214041155532337,0.267527795529966,0.320492439232409,
0.373692958609013,0.427515237799999,0.481383569481296,0.534655333385785,
0.58762032132231,0.641025849699002,0.694954192902732,0.748671260645925,
0.801756694459618,0.854782411268259,0.908404481395008,0.962356968230133,
1.,1.05324026220278),.UNSPECIFIED.);
#77=B_SPLINE_CURVE_WITH_KNOTS('',3,(#521,#522,#523,#524,#525,#526,#527,
#528,#529,#530,#531,#532,#533,#534,#535,#536,#537,#538,#539,#540,#541,#542,
#543,#544,#545,#546,#547,#548,#549,#550,#551,#552,#553,#554,#555,#556,#557,
#558,#559,#560,#561,#562,#563,#564,#565,#566,#567,#568,#569,#570,#571,#572,
#573,#574,#575,#576,#577,#578),.UNSPECIFIED.,.T.,.F.,(1,3,3,3,3,3,3,3,3,
3,3,3,3,3,3,3,3,3,3,3,3,1),(-0.039438666080394,0.,0.0530388491450583,0.106036394777844,
0.159651822778665,0.213706770862578,0.267103777845614,0.319790009455833,
0.372781589090378,0.426632027386539,0.480589650354197,0.533690900080351,
0.586319904187128,0.6395837528799,0.693605267127154,0.747336655342515,0.800198422469855,
0.852950393076246,0.906498977281877,0.960561333919606,1.,1.05303884914506),
 .UNSPECIFIED.);
#78=B_SPLINE_CURVE_WITH_KNOTS('',3,(#584,#585,#586,#587,#588,#589,#590,
#591,#592,#593,#594,#595,#596,#597,#598,#599,#600,#601,#602,#603,#604,#605,
#606,#607,#608,#609,#610,#611,#612,#613,#614,#615,#616,#617,#618,#619,#620,
#621,#622,#623,#624,#625,#626,#627,#628,#629,#630,#631,#632,#633,#634,#635,
#636,#637,#638,#639,#640,#641),.UNSPECIFIED.,.T.,.F.,(1,3,3,3,3,3,3,3,3,
3,3,3,3,3,3,3,3,3,3,3,3,1),(-0.0394519974333029,0.,0.0530485239093513,0.106057638590027,
0.159660013113034,0.213719038448356,0.267123352079176,0.319778896387348,
0.372759876780662,0.426624393296523,0.480569537053389,0.533676200828807,
0.586337268740754,0.639598335008975,0.693611862148155,0.747358043883024,
0.80020053369579,0.852927020894766,0.906487709912429,0.960548002566697,
1.,1.05304852390935),.UNSPECIFIED.);
#79=LINE('',#397,#94);
#80=LINE('',#401,#95);
#81=LINE('',#644,#96);
#82=LINE('',#649,#97);
#83=LINE('',#651,#98);
#84=LINE('',#655,#99);
#85=LINE('',#658,#100);
#86=LINE('',#661,#101);
#87=LINE('',#666,#102);
#88=LINE('',#668,#103);
#89=LINE('',#670,#104);
#90=LINE('',#672,#105);
#91=LINE('',#674,#106);
#92=LINE('',#676,#107);
#93=LINE('',#678,#108);
#94=VECTOR('',#322,1.);
#95=VECTOR('',#325,1.);
#96=VECTOR('',#334,1.);
#97=VECTOR('',#337,1.);
#98=VECTOR('',#340,1.);
#99=VECTOR('',#343,1.);
#100=VECTOR('',#348,1.);
#101=VECTOR('',#351,1.);
#102=VECTOR('',#358,1.);
#103=VECTOR('',#359,1.);
#104=VECTOR('',#360,1.);
#105=VECTOR('',#363,1.);
#106=VECTOR('',#364,1.);
#107=VECTOR('',#367,1.);
#108=VECTOR('',#368,1.);
#109=FACE_BOUND('',#127,.T.);
#110=FACE_BOUND('',#128,.T.);
#111=FACE_BOUND('',#129,.T.);
#112=FACE_BOUND('',#130,.T.);
#113=FACE_BOUND('',#131,.T.);
#114=FACE_BOUND('',#132,.T.);
#115=FACE_BOUND('',#133,.T.);
#116=FACE_BOUND('',#134,.T.);
#117=FACE_BOUND('',#137,.T.);
#118=FACE_BOUND('',#138,.T.);
#119=FACE_BOUND('',#139,.T.);
#120=FACE_BOUND('',#140,.T.);
#121=FACE_BOUND('',#145,.T.);
#122=FACE_BOUND('',#146,.T.);
#123=FACE_BOUND('',#148,.T.);
#124=FACE_BOUND('',#149,.T.);
#125=FACE_BOUND('',#150,.T.);
#126=FACE_BOUND('',#151,.T.);
#127=EDGE_LOOP('',(#154));
#128=EDGE_LOOP('',(#155,#156,#157,#158));
#129=EDGE_LOOP('',(#159));
#130=EDGE_LOOP('',(#160));
#131=EDGE_LOOP('',(#161));
#132=EDGE_LOOP('',(#162));
#133=EDGE_LOOP('',(#163));
#134=EDGE_LOOP('',(#164));
#135=EDGE_LOOP('',(#165,#166,#167));
#136=EDGE_LOOP('',(#168,#169,#170));
#137=EDGE_LOOP('',(#171));
#138=EDGE_LOOP('',(#172));
#139=EDGE_LOOP('',(#173));
#140=EDGE_LOOP('',(#174,#175,#176,#177,#178,#179));
#141=EDGE_LOOP('',(#180,#181,#182,#183,#184));
#142=EDGE_LOOP('',(#185,#186,#187,#188,#189));
#143=EDGE_LOOP('',(#190,#191,#192,#193,#194));
#144=EDGE_LOOP('',(#195,#196,#197,#198,#199,#200));
#145=EDGE_LOOP('',(#201));
#146=EDGE_LOOP('',(#202,#203,#204));
#147=EDGE_LOOP('',(#205));
#148=EDGE_LOOP('',(#206));
#149=EDGE_LOOP('',(#207));
#150=EDGE_LOOP('',(#208));
#151=EDGE_LOOP('',(#209));
#152=EDGE_LOOP('',(#210,#211,#212,#213));
#153=EDGE_LOOP('',(#214,#215,#216,#217));
#154=ORIENTED_EDGE('',*,*,#241,.F.);
#155=ORIENTED_EDGE('',*,*,#242,.F.);
#156=ORIENTED_EDGE('',*,*,#243,.T.);
#157=ORIENTED_EDGE('',*,*,#244,.T.);
#158=ORIENTED_EDGE('',*,*,#245,.T.);
#159=ORIENTED_EDGE('',*,*,#246,.F.);
#160=ORIENTED_EDGE('',*,*,#247,.F.);
#161=ORIENTED_EDGE('',*,*,#248,.T.);
#162=ORIENTED_EDGE('',*,*,#249,.F.);
#163=ORIENTED_EDGE('',*,*,#250,.T.);
#164=ORIENTED_EDGE('',*,*,#251,.T.);
#165=ORIENTED_EDGE('',*,*,#252,.F.);
#166=ORIENTED_EDGE('',*,*,#253,.T.);
#167=ORIENTED_EDGE('',*,*,#254,.F.);
#168=ORIENTED_EDGE('',*,*,#255,.F.);
#169=ORIENTED_EDGE('',*,*,#256,.T.);
#170=ORIENTED_EDGE('',*,*,#257,.F.);
#171=ORIENTED_EDGE('',*,*,#241,.T.);
#172=ORIENTED_EDGE('',*,*,#250,.F.);
#173=ORIENTED_EDGE('',*,*,#249,.T.);
#174=ORIENTED_EDGE('',*,*,#258,.F.);
#175=ORIENTED_EDGE('',*,*,#259,.T.);
#176=ORIENTED_EDGE('',*,*,#260,.F.);
#177=ORIENTED_EDGE('',*,*,#261,.T.);
#178=ORIENTED_EDGE('',*,*,#244,.F.);
#179=ORIENTED_EDGE('',*,*,#262,.T.);
#180=ORIENTED_EDGE('',*,*,#257,.T.);
#181=ORIENTED_EDGE('',*,*,#258,.T.);
#182=ORIENTED_EDGE('',*,*,#263,.F.);
#183=ORIENTED_EDGE('',*,*,#264,.F.);
#184=ORIENTED_EDGE('',*,*,#265,.T.);
#185=ORIENTED_EDGE('',*,*,#254,.T.);
#186=ORIENTED_EDGE('',*,*,#255,.T.);
#187=ORIENTED_EDGE('',*,*,#265,.F.);
#188=ORIENTED_EDGE('',*,*,#266,.F.);
#189=ORIENTED_EDGE('',*,*,#267,.T.);
#190=ORIENTED_EDGE('',*,*,#260,.T.);
#191=ORIENTED_EDGE('',*,*,#252,.T.);
#192=ORIENTED_EDGE('',*,*,#267,.F.);
#193=ORIENTED_EDGE('',*,*,#268,.F.);
#194=ORIENTED_EDGE('',*,*,#269,.T.);
#195=ORIENTED_EDGE('',*,*,#264,.T.);
#196=ORIENTED_EDGE('',*,*,#270,.T.);
#197=ORIENTED_EDGE('',*,*,#242,.T.);
#198=ORIENTED_EDGE('',*,*,#271,.T.);
#199=ORIENTED_EDGE('',*,*,#268,.T.);
#200=ORIENTED_EDGE('',*,*,#266,.T.);
#201=ORIENTED_EDGE('',*,*,#272,.T.);
#202=ORIENTED_EDGE('',*,*,#253,.F.);
#203=ORIENTED_EDGE('',*,*,#259,.F.);
#204=ORIENTED_EDGE('',*,*,#256,.F.);
#205=ORIENTED_EDGE('',*,*,#272,.F.);
#206=ORIENTED_EDGE('',*,*,#248,.F.);
#207=ORIENTED_EDGE('',*,*,#246,.T.);
#208=ORIENTED_EDGE('',*,*,#251,.F.);
#209=ORIENTED_EDGE('',*,*,#247,.T.);
#210=ORIENTED_EDGE('',*,*,#270,.F.);
#211=ORIENTED_EDGE('',*,*,#263,.T.);
#212=ORIENTED_EDGE('',*,*,#262,.F.);
#213=ORIENTED_EDGE('',*,*,#243,.F.);
#214=ORIENTED_EDGE('',*,*,#261,.F.);
#215=ORIENTED_EDGE('',*,*,#269,.F.);
#216=ORIENTED_EDGE('',*,*,#271,.F.);
#217=ORIENTED_EDGE('',*,*,#245,.F.);
#218=VERTEX_POINT('',#393);
#219=VERTEX_POINT('',#395);
#220=VERTEX_POINT('',#396);
#221=VERTEX_POINT('',#398);
#222=VERTEX_POINT('',#400);
#223=VERTEX_POINT('',#460);
#224=VERTEX_POINT('',#519);
#225=VERTEX_POINT('',#579);
#226=VERTEX_POINT('',#581);
#227=VERTEX_POINT('',#583);
#228=VERTEX_POINT('',#642);
#229=VERTEX_POINT('',#645);
#230=VERTEX_POINT('',#646);
#231=VERTEX_POINT('',#648);
#232=VERTEX_POINT('',#652);
#233=VERTEX_POINT('',#654);
#234=VERTEX_POINT('',#659);
#235=VERTEX_POINT('',#662);
#236=VERTEX_POINT('',#667);
#237=VERTEX_POINT('',#669);
#238=VERTEX_POINT('',#673);
#239=VERTEX_POINT('',#677);
#240=VERTEX_POINT('',#684);
#241=EDGE_CURVE('',#218,#218,#273,.T.);
#242=EDGE_CURVE('',#219,#220,#274,.T.);
#243=EDGE_CURVE('',#219,#221,#79,.T.);
#244=EDGE_CURVE('',#221,#222,#275,.T.);
#245=EDGE_CURVE('',#222,#220,#80,.T.);
#246=EDGE_CURVE('',#223,#223,#75,.T.);
#247=EDGE_CURVE('',#224,#224,#76,.T.);
#248=EDGE_CURVE('',#225,#225,#77,.T.);
#249=EDGE_CURVE('',#226,#226,#276,.T.);
#250=EDGE_CURVE('',#227,#227,#277,.T.);
#251=EDGE_CURVE('',#228,#228,#78,.T.);
#252=EDGE_CURVE('',#229,#230,#81,.T.);
#253=EDGE_CURVE('',#229,#231,#278,.T.);
#254=EDGE_CURVE('',#230,#231,#82,.T.);
#255=EDGE_CURVE('',#231,#232,#83,.T.);
#256=EDGE_CURVE('',#231,#233,#279,.T.);
#257=EDGE_CURVE('',#232,#233,#84,.T.);
#258=EDGE_CURVE('',#233,#234,#85,.T.);
#259=EDGE_CURVE('',#233,#229,#280,.T.);
#260=EDGE_CURVE('',#235,#229,#86,.T.);
#261=EDGE_CURVE('',#235,#222,#281,.T.);
#262=EDGE_CURVE('',#221,#234,#282,.T.);
#263=EDGE_CURVE('',#236,#234,#87,.T.);
#264=EDGE_CURVE('',#237,#236,#88,.T.);
#265=EDGE_CURVE('',#237,#232,#89,.T.);
#266=EDGE_CURVE('',#238,#237,#90,.T.);
#267=EDGE_CURVE('',#238,#230,#91,.T.);
#268=EDGE_CURVE('',#239,#238,#92,.T.);
#269=EDGE_CURVE('',#239,#235,#93,.T.);
#270=EDGE_CURVE('',#236,#219,#283,.T.);
#271=EDGE_CURVE('',#220,#239,#284,.T.);
#272=EDGE_CURVE('',#240,#240,#285,.T.);
#273=CIRCLE('',#287,12.5);
#274=CIRCLE('',#288,12.5);
#275=CIRCLE('',#289,12.5);
#276=CIRCLE('',#291,10.5);
#277=CIRCLE('',#292,10.5);
#278=CIRCLE('',#294,10.);
#279=CIRCLE('',#296,10.);
#280=CIRCLE('',#299,10.);
#281=CIRCLE('',#300,5.);
#282=CIRCLE('',#301,5.);
#283=CIRCLE('',#306,5.);
#284=CIRCLE('',#307,5.);
#285=CIRCLE('',#309,10.);
#286=AXIS2_PLACEMENT_3D('',#391,#316,#317);
#287=AXIS2_PLACEMENT_3D('',#392,#318,#319);
#288=AXIS2_PLACEMENT_3D('',#394,#320,#321);
#289=AXIS2_PLACEMENT_3D('',#399,#323,#324);
#290=AXIS2_PLACEMENT_3D('',#520,#326,#327);
#291=AXIS2_PLACEMENT_3D('',#580,#328,#329);
#292=AXIS2_PLACEMENT_3D('',#582,#330,#331);
#293=AXIS2_PLACEMENT_3D('',#643,#332,#333);
#294=AXIS2_PLACEMENT_3D('',#647,#335,#336);
#295=AXIS2_PLACEMENT_3D('',#650,#338,#339);
#296=AXIS2_PLACEMENT_3D('',#653,#341,#342);
#297=AXIS2_PLACEMENT_3D('',#656,#344,#345);
#298=AXIS2_PLACEMENT_3D('',#657,#346,#347);
#299=AXIS2_PLACEMENT_3D('',#660,#349,#350);
#300=AXIS2_PLACEMENT_3D('',#663,#352,#353);
#301=AXIS2_PLACEMENT_3D('',#664,#354,#355);
#302=AXIS2_PLACEMENT_3D('',#665,#356,#357);
#303=AXIS2_PLACEMENT_3D('',#671,#361,#362);
#304=AXIS2_PLACEMENT_3D('',#675,#365,#366);
#305=AXIS2_PLACEMENT_3D('',#679,#369,#370);
#306=AXIS2_PLACEMENT_3D('',#680,#371,#372);
#307=AXIS2_PLACEMENT_3D('',#681,#373,#374);
#308=AXIS2_PLACEMENT_3D('',#682,#375,#376);
#309=AXIS2_PLACEMENT_3D('',#683,#377,#378);
#310=AXIS2_PLACEMENT_3D('',#685,#379,#380);
#311=AXIS2_PLACEMENT_3D('',#686,#381,#382);
#312=AXIS2_PLACEMENT_3D('',#687,#383,#384);
#313=AXIS2_PLACEMENT_3D('',#688,#385,#386);
#314=AXIS2_PLACEMENT_3D('',#689,#387,#388);
#315=AXIS2_PLACEMENT_3D('',#690,#389,#390);
#316=DIRECTION('',(0.,0.,1.));
#317=DIRECTION('',(1.,0.,0.));
#318=DIRECTION('',(0.,-1.,0.));
#319=DIRECTION('',(1.,0.,-6.12323399573677E-17));
#320=DIRECTION('',(0.,1.,0.));
#321=DIRECTION('',(0.,0.,1.));
#322=DIRECTION('',(0.,1.,0.));
#323=DIRECTION('',(0.,-1.,0.));
#324=DIRECTION('',(1.,0.,-6.12323399573677E-17));
#325=DIRECTION('',(0.,-1.,0.));
#326=DIRECTION('',(0.,1.,0.));
#327=DIRECTION('',(0.,0.,1.));
#328=DIRECTION('',(0.,-1.,0.));
#329=DIRECTION('',(1.,0.,-6.12323399573677E-17));
#330=DIRECTION('',(0.,-1.,0.));
#331=DIRECTION('',(1.,0.,-6.12323399573677E-17));
#332=DIRECTION('',(0.,1.,0.));
#333=DIRECTION('',(0.,0.,1.));
#334=DIRECTION('',(-1.,0.,-2.94902990916057E-16));
#335=DIRECTION('',(0.,-1.,0.));
#336=DIRECTION('',(0.999999999999999,0.,-6.12323399573677E-17));
#337=DIRECTION('',(0.,0.,-1.));
#338=DIRECTION('',(0.,-1.,0.));
#339=DIRECTION('',(0.,0.,-1.));
#340=DIRECTION('',(0.,0.,-1.));
#341=DIRECTION('',(0.,-1.,0.));
#342=DIRECTION('',(0.999999999999999,0.,-6.12323399573677E-17));
#343=DIRECTION('',(1.,0.,-2.94902990916057E-16));
#344=DIRECTION('',(0.,-1.,0.));
#345=DIRECTION('',(0.,0.,-1.));
#346=DIRECTION('',(0.,-1.,0.));
#347=DIRECTION('',(0.,0.,-1.));
#348=DIRECTION('',(1.,0.,-2.94902990916057E-16));
#349=DIRECTION('',(0.,-1.,0.));
#350=DIRECTION('',(0.999999999999999,0.,-6.12323399573677E-17));
#351=DIRECTION('',(-1.,0.,-2.94902990916057E-16));
#352=DIRECTION('',(0.,-1.,0.));
#353=DIRECTION('',(0.,0.,-1.));
#354=DIRECTION('',(0.,-1.,0.));
#355=DIRECTION('',(0.,0.,-1.));
#356=DIRECTION('',(0.,-1.,0.));
#357=DIRECTION('',(0.,0.,-1.));
#358=DIRECTION('',(0.,1.,0.));
#359=DIRECTION('',(1.,0.,-2.94902990916057E-16));
#360=DIRECTION('',(0.,1.,0.));
#361=DIRECTION('',(-2.94902990916057E-16,0.,-1.));
#362=DIRECTION('',(-1.,0.,2.94902990916057E-16));
#363=DIRECTION('',(0.,0.,-1.));
#364=DIRECTION('',(0.,1.,0.));
#365=DIRECTION('',(-1.,0.,0.));
#366=DIRECTION('',(0.,0.,1.));
#367=DIRECTION('',(-1.,0.,-2.94902990916057E-16));
#368=DIRECTION('',(0.,1.,0.));
#369=DIRECTION('',(-2.94902990916057E-16,0.,1.));
#370=DIRECTION('',(1.,0.,2.94902990916057E-16));
#371=DIRECTION('',(0.,1.,0.));
#372=DIRECTION('',(0.,0.,1.));
#373=DIRECTION('',(0.,1.,0.));
#374=DIRECTION('',(0.,0.,1.));
#375=DIRECTION('',(0.,1.,0.));
#376=DIRECTION('',(0.,0.,1.));
#377=DIRECTION('',(0.,-1.,0.));
#378=DIRECTION('',(0.999999999999999,0.,-6.12323399573677E-17));
#379=DIRECTION('',(0.,-1.,0.));
#380=DIRECTION('',(0.,0.,-1.));
#381=DIRECTION('',(0.,-1.,0.));
#382=DIRECTION('',(0.,0.,-1.));
#383=DIRECTION('',(0.,0.,-1.));
#384=DIRECTION('',(-1.,0.,0.));
#385=DIRECTION('',(0.,0.,-1.));
#386=DIRECTION('',(-1.,0.,0.));
#387=DIRECTION('',(0.,-1.,0.));
#388=DIRECTION('',(0.,0.,-1.));
#389=DIRECTION('',(0.,1.,0.));
#390=DIRECTION('',(0.,0.,1.));
#391=CARTESIAN_POINT('',(0.,0.,0.));
#392=CARTESIAN_POINT('',(0.,-25.,0.));
#393=CARTESIAN_POINT('',(12.5,-25.,-7.65404249467096E-16));
#394=CARTESIAN_POINT('',(0.,-20.,0.));
#395=CARTESIAN_POINT('',(-6.61877280390294,-20.,-10.6038599844733));
#396=CARTESIAN_POINT('',(-6.61877280390294,-20.,10.6038599844733));
#397=CARTESIAN_POINT('',(-6.61877280390294,-25.,-10.6038599844733));
#398=CARTESIAN_POINT('',(-6.61877280390294,0.,-10.6038599844733));
#399=CARTESIAN_POINT('',(0.,0.,0.));
#400=CARTESIAN_POINT('',(-6.61877280390294,0.,10.6038599844733));
#401=CARTESIAN_POINT('',(-6.61877280390294,-25.,10.6038599844733));
#402=CARTESIAN_POINT('',(-2.,-12.5,-12.3389626792531));
#403=CARTESIAN_POINT('',(-2.,-12.2777529181862,-12.3389626792531));
#404=CARTESIAN_POINT('',(-1.96187824226912,-12.0524475402138,-12.3453018594499));
#405=CARTESIAN_POINT('',(-1.88894049620397,-11.8428061155179,-12.3564519099052));
#406=CARTESIAN_POINT('',(-1.81602551051612,-11.6332301098701,-12.3675984809638));
#407=CARTESIAN_POINT('',(-1.70637920950618,-11.4335428129524,-12.3837570168677));
#408=CARTESIAN_POINT('',(-1.56902618053069,-11.2597754861279,-12.4011353046731));
#409=CARTESIAN_POINT('',(-1.43056305267641,-11.084603756968,-12.4186540452806));
#410=CARTESIAN_POINT('',(-1.26013698043552,-10.9309380171159,-12.4377608715669));
#411=CARTESIAN_POINT('',(-1.07151740406596,-10.8112577305036,-12.4539893388739));
#412=CARTESIAN_POINT('',(-0.88188272652944,-10.690933355929,-12.4703051435422));
#413=CARTESIAN_POINT('',(-0.66852814248815,-10.6016550886266,-12.4840386274992));
#414=CARTESIAN_POINT('',(-0.44923806404229,-10.5511066828029,-12.4919247981172));
#415=CARTESIAN_POINT('',(-0.231830335219868,-10.500992176102,-12.499743275156));
#416=CARTESIAN_POINT('',(-0.00253341086169247,-10.4875842539933,-12.501969168264));
#417=CARTESIAN_POINT('',(0.219332184541977,-10.5120630309731,-12.4980755875784));
#418=CARTESIAN_POINT('',(0.439190303474798,-10.5363203199446,-12.4942172366526));
#419=CARTESIAN_POINT('',(0.657776264360856,-10.5983998257417,-12.4842826838476));
#420=CARTESIAN_POINT('',(0.85726482410619,-10.6930420532425,-12.4705692340546));
#421=CARTESIAN_POINT('',(1.05762193010608,-10.7880963402233,-12.4567960777528));
#422=CARTESIAN_POINT('',(1.24420272997811,-10.9185418991461,-12.4389396514623));
#423=CARTESIAN_POINT('',(1.40213390744116,-11.0738090921606,-12.4211118868483));
#424=CARTESIAN_POINT('',(1.561826028359,-11.2308075250207,-12.4030853414367));
#425=CARTESIAN_POINT('',(1.69663038139125,-11.4175422291404,-12.3847248370089));
#426=CARTESIAN_POINT('',(1.79541488673651,-11.6188159190697,-12.3703874387379));
#427=CARTESIAN_POINT('',(1.8942829818777,-11.8202599234285,-12.3560379084003));
#428=CARTESIAN_POINT('',(1.95977470301597,-12.0419327935053,-12.3454444150155));
#429=CARTESIAN_POINT('',(1.98616877272012,-12.2651945352607,-12.3411966035013));
#430=CARTESIAN_POINT('',(2.01227166044643,-12.4859932314808,-12.3369956542623));
#431=CARTESIAN_POINT('',(2.00085011415813,-12.714458335668,-12.3389203420158));
#432=CARTESIAN_POINT('',(1.95290358115521,-12.9314714390445,-12.3465042665003));
#433=CARTESIAN_POINT('',(1.90522844120294,-13.1472561773137,-12.3540452634931));
#434=CARTESIAN_POINT('',(1.82020085808539,-13.3576185995743,-12.3673123976875));
#435=CARTESIAN_POINT('',(1.70489650862674,-13.5456232088436,-12.3831873075906));
#436=CARTESIAN_POINT('',(1.58860119712374,-13.7352435891815,-12.3991986514899));
#437=CARTESIAN_POINT('',(1.43835288692567,-13.9073275244289,-12.4181747325153));
#438=CARTESIAN_POINT('',(1.26626090076244,-14.0480902206268,-12.435697943067));
#439=CARTESIAN_POINT('',(1.09254155204471,-14.1901840185568,-12.4533868592818));
#440=CARTESIAN_POINT('',(0.891701625711793,-14.3042775233434,-12.4699519624414));
#441=CARTESIAN_POINT('',(0.680275638314631,-14.3807511945804,-12.4814752756201));
#442=CARTESIAN_POINT('',(0.46974250825681,-14.4569019155525,-12.4929499255532));
#443=CARTESIAN_POINT('',(0.242813935162116,-14.4978228349382,-12.4996516680505));
#444=CARTESIAN_POINT('',(0.0186481084438204,-14.4999130601232,-12.4999860899143));
#445=CARTESIAN_POINT('',(-0.203024905346073,-14.5019800411749,-12.5003167928743));
#446=CARTESIAN_POINT('',(-0.428098494820467,-14.4661535989722,-12.4944342216073));
#447=CARTESIAN_POINT('',(-0.637955180538949,-14.3955245151734,-12.4837099128273));
#448=CARTESIAN_POINT('',(-0.847634904130167,-14.3249549895101,-12.4729946473451));
#449=CARTESIAN_POINT('',(-1.04785698638457,-14.2177779805565,-12.4572401668673));
#450=CARTESIAN_POINT('',(-1.22261920190548,-14.0827830827792,-12.4400644004415));
#451=CARTESIAN_POINT('',(-1.3992514327631,-13.9463436935341,-12.4227048474544));
#452=CARTESIAN_POINT('',(-1.55473871520849,-13.7777449065623,-12.4035430580083));
#453=CARTESIAN_POINT('',(-1.67648179408317,-13.5906001990224,-12.3870661899462));
#454=CARTESIAN_POINT('',(-1.79895070023005,-13.4023397423669,-12.3704910874685));
#455=CARTESIAN_POINT('',(-1.89063964434372,-13.1900198650752,-12.3563086707633));
#456=CARTESIAN_POINT('',(-1.94367307127967,-12.9713119900684,-12.3479607624896));
#457=CARTESIAN_POINT('',(-1.9809400944023,-12.8176241764406,-12.342094619028));
#458=CARTESIAN_POINT('',(-2.,-12.6582503924458,-12.3389626792531));
#459=CARTESIAN_POINT('',(-2.,-12.5,-12.3389626792531));
#460=CARTESIAN_POINT('',(-2.,-12.5,-12.3389626792531));
#461=CARTESIAN_POINT('',(-2.03201278785829E-17,-14.5,12.5));
#462=CARTESIAN_POINT('',(0.222267608555157,-14.5,12.5));
#463=CARTESIAN_POINT('',(0.44759424757947,-14.4618716595339,12.4937480396757));
#464=CARTESIAN_POINT('',(0.657257831692157,-14.3889182466902,12.4827085259041));
#465=CARTESIAN_POINT('',(0.866858216208671,-14.3159868244381,12.4716723398101));
#466=CARTESIAN_POINT('',(1.0665699136894,-14.2063122319072,12.4556383845385));
#467=CARTESIAN_POINT('',(1.24034750077885,-14.0689289586567,12.438309293361));
#468=CARTESIAN_POINT('',(1.41549096740017,-13.9304658626046,12.4208439967538));
#469=CARTESIAN_POINT('',(1.56912468227833,-13.7600531093799,12.4017108288917));
#470=CARTESIAN_POINT('',(1.6887806872406,-13.5714568541958,12.3853954232557));
#471=CARTESIAN_POINT('',(1.80909955075501,-13.3818158320509,12.3689896351424));
#472=CARTESIAN_POINT('',(1.89837047713729,-13.1684574680205,12.3551126078809));
#473=CARTESIAN_POINT('',(1.9489113598103,-12.9491597840439,12.3471350730282));
#474=CARTESIAN_POINT('',(1.99901931309301,-12.7317405874936,12.3392258731375));
#475=CARTESIAN_POINT('',(2.01241720792775,-12.5024256767473,12.3369685283259));
#476=CARTESIAN_POINT('',(1.98792392547084,-12.2805496262464,12.3409140045031));
#477=CARTESIAN_POINT('',(1.96366056286619,-12.0607563390027,12.3448224442683));
#478=CARTESIAN_POINT('',(1.90159806299024,-11.8422410315859,12.3548802394575));
#479=CARTESIAN_POINT('',(1.80699413908466,-11.6428114668793,12.3687013134489));
#480=CARTESIAN_POINT('',(1.71195988123752,-11.4424747377856,12.3825852566852));
#481=CARTESIAN_POINT('',(1.58154390336125,-11.2559099507084,12.4005296795182));
#482=CARTESIAN_POINT('',(1.4263036353651,-11.0979807634186,12.4183597121256));
#483=CARTESIAN_POINT('',(1.26929907523282,-10.9382567246589,12.436392381502));
#484=CARTESIAN_POINT('',(1.08254202504965,-10.8034188101152,12.4546709112409));
#485=CARTESIAN_POINT('',(0.881240421597219,-10.7046127661858,12.4688979191965));
#486=CARTESIAN_POINT('',(0.679815800798026,-10.6057463409322,12.4831336214136));
#487=CARTESIAN_POINT('',(0.458167417952549,-10.5402515184668,12.4935957384627));
#488=CARTESIAN_POINT('',(0.234931556972913,-10.5138461379998,12.4977920915471));
#489=CARTESIAN_POINT('',(0.0141199706769292,-10.4877275120672,12.5019428734922));
#490=CARTESIAN_POINT('',(-0.21435723165677,-10.4991371914665,12.5000483923266));
#491=CARTESIAN_POINT('',(-0.431388718661382,-10.5470781445711,12.49255393318));
#492=CARTESIAN_POINT('',(-0.647241513064611,-10.5947587315533,12.4851001762545));
#493=CARTESIAN_POINT('',(-0.85767592779888,-10.679817545554,12.4719688485835));
#494=CARTESIAN_POINT('',(-1.04573362118539,-10.795171212842,12.4561808430001));
#495=CARTESIAN_POINT('',(-1.23534578584049,-10.9114783851864,12.4402623349064));
#496=CARTESIAN_POINT('',(-1.40741624478933,-11.0617356145995,12.4213243073817));
#497=CARTESIAN_POINT('',(-1.54816223383898,-11.2338271454044,12.4037572411635));
#498=CARTESIAN_POINT('',(-1.69023509715258,-11.4075410586645,12.3860245624953));
#499=CARTESIAN_POINT('',(-1.80430731219026,-11.6083636538123,12.3693353458271));
#500=CARTESIAN_POINT('',(-1.88076877289818,-11.8197729622464,12.3576983626762));
#501=CARTESIAN_POINT('',(-1.95692172733431,-12.0303292775913,12.3461083323596));
#502=CARTESIAN_POINT('',(-1.99783864436597,-12.2572898825733,12.3393129943512));
#503=CARTESIAN_POINT('',(-1.99991429047825,-12.4814843109532,12.3389765714479));
#504=CARTESIAN_POINT('',(-2.00196620463312,-12.7031154061167,12.3386439950452));
#505=CARTESIAN_POINT('',(-1.96613854472231,-12.9281431133419,12.344610277786));
#506=CARTESIAN_POINT('',(-1.89552461759575,-13.1379548762165,12.3554435947921));
#507=CARTESIAN_POINT('',(-1.82497260662179,-13.3475826706072,12.3662674128603));
#508=CARTESIAN_POINT('',(-1.71783435970179,-13.547753258306,12.382146528379));
#509=CARTESIAN_POINT('',(-1.58288710403188,-13.7224845258283,12.3993737106311));
#510=CARTESIAN_POINT('',(-1.44644991315232,-13.8991449786935,12.416791095976));
#511=CARTESIAN_POINT('',(-1.27784053208041,-14.0546646635921,12.4359327498788));
#512=CARTESIAN_POINT('',(-1.09067472694804,-14.1764333091408,12.4523262340816));
#513=CARTESIAN_POINT('',(-0.90242008270496,-14.2989103451118,12.4688150875574));
#514=CARTESIAN_POINT('',(-0.690102304655623,-14.3906091625107,12.482854545893));
#515=CARTESIAN_POINT('',(-0.471400033600369,-14.4436517199132,12.49110811771));
#516=CARTESIAN_POINT('',(-0.317683070417761,-14.4809331839054,12.4969092188555));
#517=CARTESIAN_POINT('',(-0.158279705275126,-14.5,12.5));
#518=CARTESIAN_POINT('',(-2.03201278785829E-17,-14.5,12.5));
#519=CARTESIAN_POINT('',(-2.03201278785829E-17,-14.5,12.5));
#520=CARTESIAN_POINT('',(0.,-25.,0.));
#521=CARTESIAN_POINT('',(-2.,-12.5,-10.3077640640442));
#522=CARTESIAN_POINT('',(-2.,-12.2784239571859,-10.3077640640442));
#523=CARTESIAN_POINT('',(-1.96209763352799,-12.0538015018651,-10.3153089324461));
#524=CARTESIAN_POINT('',(-1.88964229705325,-11.8448267487242,-10.3285648562222));
#525=CARTESIAN_POINT('',(-1.81721909672667,-11.6359446822501,-10.3418149005923));
#526=CARTESIAN_POINT('',(-1.70837990982604,-11.4369551380029,-10.3610060815081));
#527=CARTESIAN_POINT('',(-1.57206105219695,-11.2636246329834,-10.3816484263418));
#528=CARTESIAN_POINT('',(-1.43417779556645,-11.0883049822677,-10.4025276632989));
#529=CARTESIAN_POINT('',(-1.26439583450592,-10.9343971903956,-10.4253087840525));
#530=CARTESIAN_POINT('',(-1.07628858319897,-10.8142945436181,-10.4446925701849));
#531=CARTESIAN_POINT('',(-0.886730049722542,-10.6932652827492,-10.4642259058056));
#532=CARTESIAN_POINT('',(-0.673192417224893,-10.603243862169,-10.4807040891907));
#533=CARTESIAN_POINT('',(-0.453519838155696,-10.552098627651,-10.4902011304073));
#534=CARTESIAN_POINT('',(-0.236499323041168,-10.5015708595163,-10.4995835157084));
#535=CARTESIAN_POINT('',(-0.00742136444956495,-10.487622441926,-10.5023384652164));
#536=CARTESIAN_POINT('',(0.214271754559974,-10.5115112232658,-10.4978134682989));
#537=CARTESIAN_POINT('',(0.433125265183444,-10.5350940195388,-10.4933464308673));
#538=CARTESIAN_POINT('',(0.650765637427938,-10.5961311295407,-10.4817115947152));
#539=CARTESIAN_POINT('',(0.849545663059818,-10.6894000534695,-10.465575577405));
#540=CARTESIAN_POINT('',(1.04950596240212,-10.7832227697553,-10.449343751087));
#541=CARTESIAN_POINT('',(1.23584141688541,-10.9121404629501,-10.4282374977655));
#542=CARTESIAN_POINT('',(1.39393296944779,-11.0657925963493,-10.4070625479377));
#543=CARTESIAN_POINT('',(1.5545189535651,-11.2218691143777,-10.385553491308));
#544=CARTESIAN_POINT('',(1.69039179296982,-11.4078064781804,-10.3635355527895));
#545=CARTESIAN_POINT('',(1.790363255014,-11.608596940158,-10.3462360022907));
#546=CARTESIAN_POINT('',(1.89049614436358,-11.8097116252946,-10.3289085176218));
#547=CARTESIAN_POINT('',(1.95734258611675,-12.0314322534889,-10.3159875776002));
#548=CARTESIAN_POINT('',(1.98493750037362,-12.2550038375596,-10.3106752019259));
#549=CARTESIAN_POINT('',(2.01210265599825,-12.4750935547441,-10.3054455603121));
#550=CARTESIAN_POINT('',(2.00197020796688,-12.7030820090974,-10.3074903537136));
#551=CARTESIAN_POINT('',(1.95544770749039,-12.9197907374759,-10.3163086549051));
#552=CARTESIAN_POINT('',(1.90931616491961,-13.1346783257667,-10.3250528503515));
#553=CARTESIAN_POINT('',(1.82623566831517,-13.3443309514822,-10.3405997489488));
#554=CARTESIAN_POINT('',(1.71314234283679,-13.5320578051542,-10.3593022599584));
#555=CARTESIAN_POINT('',(1.59869318512429,-13.7220352436272,-10.3782289881549));
#556=CARTESIAN_POINT('',(1.45042902316061,-13.8947639520428,-10.4007539594087));
#557=CARTESIAN_POINT('',(1.28016496160526,-14.0366124010557,-10.4216686605878));
#558=CARTESIAN_POINT('',(1.10756739421955,-14.1804049137763,-10.4428700022752));
#559=CARTESIAN_POINT('',(0.907505993300367,-14.2964274713869,-10.4628485332137));
#560=CARTESIAN_POINT('',(0.696390762193167,-14.3748439685297,-10.4768812108534));
#561=CARTESIAN_POINT('',(0.486443719334441,-14.4528265546279,-10.49083623986));
#562=CARTESIAN_POINT('',(0.259641313590269,-14.4957303443406,-10.4991868497694));
#563=CARTESIAN_POINT('',(0.0352810012254696,-14.499688788525,-10.4999407260685));
#564=CARTESIAN_POINT('',(-0.185546552803907,-14.503584903385,-10.5006827318958));
#565=CARTESIAN_POINT('',(-0.41008631640188,-14.4698873262265,-10.4940907429911));
#566=CARTESIAN_POINT('',(-0.619747078243583,-14.4015555629559,-10.4816942122449));
#567=CARTESIAN_POINT('',(-0.829045241926699,-14.3333419761687,-10.4693191206998));
#568=CARTESIAN_POINT('',(-1.02921879193027,-14.2288467268793,-10.4509252099896));
#569=CARTESIAN_POINT('',(-1.20448840004124,-14.0966238424144,-10.4306858688279));
#570=CARTESIAN_POINT('',(-1.38236116422937,-13.9624371445483,-10.410145926983));
#571=CARTESIAN_POINT('',(-1.53947557977685,-13.796027522337,-10.3872868615492));
#572=CARTESIAN_POINT('',(-1.66324603218881,-13.6106811587527,-10.3674303776977));
#573=CARTESIAN_POINT('',(-1.78814192853804,-13.4236494418621,-10.3473933389647));
#574=CARTESIAN_POINT('',(-1.88251814333933,-13.2120375900207,-10.3300208897688));
#575=CARTESIAN_POINT('',(-1.93816795643086,-12.9934622302311,-10.3195690303745));
#576=CARTESIAN_POINT('',(-1.9790371420419,-12.8329406318108,-10.3118931918076));
#577=CARTESIAN_POINT('',(-2.,-12.6658203618065,-10.3077640640442));
#578=CARTESIAN_POINT('',(-2.,-12.5,-10.3077640640442));
#579=CARTESIAN_POINT('',(-2.,-12.5,-10.3077640640442));
#580=CARTESIAN_POINT('',(0.,0.,0.));
#581=CARTESIAN_POINT('',(10.5,0.,-6.4293956955236E-16));
#582=CARTESIAN_POINT('',(0.,-25.,0.));
#583=CARTESIAN_POINT('',(10.5,-25.,-6.4293956955236E-16));
#584=CARTESIAN_POINT('',(-1.68269396502156E-16,-14.5,10.5));
#585=CARTESIAN_POINT('',(0.221617149551269,-14.5,10.5));
#586=CARTESIAN_POINT('',(0.446282167037333,-14.4620844925194,10.4926017783508));
#587=CARTESIAN_POINT('',(0.655301350587696,-14.3895978778348,10.4795314847525));
#588=CARTESIAN_POINT('',(0.864232276854041,-14.3171418702536,10.4664667100189));
#589=CARTESIAN_POINT('',(1.06327077797118,-14.2082462532737,10.4474843206529));
#590=CARTESIAN_POINT('',(1.23662213609454,-14.0718669449164,10.4269250353362));
#591=CARTESIAN_POINT('',(1.41188539579374,-13.933983501735,10.4061390005413));
#592=CARTESIAN_POINT('',(1.56572920132889,-13.7642277627547,10.3833176943729));
#593=CARTESIAN_POINT('',(1.6857830594042,-13.5761670300775,10.3637896291186));
#594=CARTESIAN_POINT('',(1.80680078143972,-13.3865964336985,10.3441047809119));
#595=CARTESIAN_POINT('',(1.89680709320538,-13.1730523467397,10.3273825499147));
#596=CARTESIAN_POINT('',(1.94793730048662,-12.9533654964517,10.3177294146228));
#597=CARTESIAN_POINT('',(1.99845249418466,-12.7363211231682,10.3081923909143));
#598=CARTESIAN_POINT('',(2.01238112574019,-12.5072058723234,10.3053828436275));
#599=CARTESIAN_POINT('',(1.98846315739129,-12.2854906256187,10.3099958424675));
#600=CARTESIAN_POINT('',(1.9648678379876,-12.0667662763616,10.314546612811));
#601=CARTESIAN_POINT('',(1.90386388919712,-11.8492666465388,10.3263862744722));
#602=CARTESIAN_POINT('',(1.81067046386249,-11.6506046437047,10.3427014107193));
#603=CARTESIAN_POINT('',(1.71688803469821,-11.4506870514334,10.3591196623708));
#604=CARTESIAN_POINT('',(1.58803042127327,-11.2643857976937,10.3803757153409));
#605=CARTESIAN_POINT('',(1.43443374275689,-11.1062999470329,10.4015575678665));
#606=CARTESIAN_POINT('',(1.27834512112276,-10.9456493212001,10.4230830734719));
#607=CARTESIAN_POINT('',(1.09236291354426,-10.8097083177632,10.444968922663));
#608=CARTESIAN_POINT('',(0.891515689433884,-10.7096928264979,10.462083911702));
#609=CARTESIAN_POINT('',(0.690438954326444,-10.6095630460995,10.4792184582838));
#610=CARTESIAN_POINT('',(0.468766052285054,-10.5427104106468,10.491913414713));
#611=CARTESIAN_POINT('',(0.245245487317682,-10.5150932891064,10.4971355450404));
#612=CARTESIAN_POINT('',(0.0251326760619087,-10.4878972131574,10.5022780597226));
#613=CARTESIAN_POINT('',(-0.202876692841651,-10.4980055890463,10.5002806436645));
#614=CARTESIAN_POINT('',(-0.419619398645502,-10.5445155177603,10.4916118666428));
#615=CARTESIAN_POINT('',(-0.634643697933564,-10.5906567006645,10.4830118184988));
#616=CARTESIAN_POINT('',(-0.844441149509062,-10.6737981416268,10.4676905465273));
#617=CARTESIAN_POINT('',(-1.03227590795219,-10.7869890689603,10.4491342440348));
#618=CARTESIAN_POINT('',(-1.22224012769971,-10.9014632289701,10.4303675708504));
#619=CARTESIAN_POINT('',(-1.39494516745244,-11.0497480696484,10.4079143071405));
#620=CARTESIAN_POINT('',(-1.53676195259957,-11.2200145699883,10.3869323046337));
#621=CARTESIAN_POINT('',(-1.6805102464882,-11.3926000569942,10.36566453256));
#622=CARTESIAN_POINT('',(-1.79648782073872,-11.5926242406187,10.3454810917886));
#623=CARTESIAN_POINT('',(-1.87487869356762,-11.8037027327311,10.331255000454));
#624=CARTESIAN_POINT('',(-1.95286678141105,-12.0136966694059,10.317102005078));
#625=CARTESIAN_POINT('',(-1.99576356534287,-12.240563856441,10.3085859270942));
#626=CARTESIAN_POINT('',(-1.99969342602604,-12.4649828340919,10.3078235434018));
#627=CARTESIAN_POINT('',(-2.00355899962489,-12.6857306277235,10.307073631252));
#628=CARTESIAN_POINT('',(-1.96985698791962,-12.9101832938295,10.3138008125496));
#629=CARTESIAN_POINT('',(-1.90155217274373,-13.1197574802563,10.3263788103252));
#630=CARTESIAN_POINT('',(-1.83337240428446,-13.328947995871,10.3389337813593));
#631=CARTESIAN_POINT('',(-1.72895443402472,-13.5290141075354,10.3575376989867));
#632=CARTESIAN_POINT('',(-1.59682832245782,-13.7042173012362,10.3778677631099));
#633=CARTESIAN_POINT('',(-1.46264809778057,-13.8821443106376,10.3985138908087));
#634=CARTESIAN_POINT('',(-1.2962207637378,-14.0393217134126,10.4213515717898));
#635=CARTESIAN_POINT('',(-1.11083510905852,-14.1631432170691,10.4410749140346));
#636=CARTESIAN_POINT('',(-0.923812251641778,-14.288058229849,10.4609724397133));
#637=CARTESIAN_POINT('',(-0.712199772199542,-14.3824566094694,10.47810334605));
#638=CARTESIAN_POINT('',(-0.493630728326437,-14.4381250486106,10.4883901864896));
#639=CARTESIAN_POINT('',(-0.333053123530637,-14.4790233591015,10.4959476894619));
#640=CARTESIAN_POINT('',(-0.165876323850456,-14.5,10.5));
#641=CARTESIAN_POINT('',(-1.68269396502156E-16,-14.5,10.5));
#642=CARTESIAN_POINT('',(-1.68269396502156E-16,-14.5,10.5));
#643=CARTESIAN_POINT('',(0.,-25.,0.));
#644=CARTESIAN_POINT('',(-110.5,0.,9.99999999999999));
#645=CARTESIAN_POINT('',(-100.5,0.,9.99999999999999));
#646=CARTESIAN_POINT('',(-110.5,0.,9.99999999999999));
#647=CARTESIAN_POINT('',(-100.5,0.,0.));
#648=CARTESIAN_POINT('',(-110.5,0.,0.));
#649=CARTESIAN_POINT('',(-110.5,0.,-9.99999999999999));
#650=CARTESIAN_POINT('',(0.,0.,0.));
#651=CARTESIAN_POINT('',(-110.5,0.,-9.99999999999999));
#652=CARTESIAN_POINT('',(-110.5,0.,-9.99999999999999));
#653=CARTESIAN_POINT('',(-100.5,0.,0.));
#654=CARTESIAN_POINT('',(-100.5,0.,-10.));
#655=CARTESIAN_POINT('',(-10.5,0.,-10.));
#656=CARTESIAN_POINT('',(0.,0.,0.));
#657=CARTESIAN_POINT('',(0.,-25.,0.));
#658=CARTESIAN_POINT('',(-10.5,0.,-10.));
#659=CARTESIAN_POINT('',(-10.5,0.,-10.));
#660=CARTESIAN_POINT('',(-100.5,0.,0.));
#661=CARTESIAN_POINT('',(-110.5,0.,9.99999999999999));
#662=CARTESIAN_POINT('',(-10.5,0.,10.));
#663=CARTESIAN_POINT('',(-9.26628192546412,0.,14.8454039782627));
#664=CARTESIAN_POINT('',(-9.26628192546412,0.,-14.8454039782627));
#665=CARTESIAN_POINT('',(0.,0.,0.));
#666=CARTESIAN_POINT('',(-10.5,-20.,-10.));
#667=CARTESIAN_POINT('',(-10.5,-20.,-10.));
#668=CARTESIAN_POINT('',(-10.5,-20.,-10.));
#669=CARTESIAN_POINT('',(-110.5,-20.,-9.99999999999999));
#670=CARTESIAN_POINT('',(-110.5,-20.,-9.99999999999999));
#671=CARTESIAN_POINT('',(-10.5,-20.,-10.));
#672=CARTESIAN_POINT('',(-110.5,-20.,-9.99999999999999));
#673=CARTESIAN_POINT('',(-110.5,-20.,9.99999999999999));
#674=CARTESIAN_POINT('',(-110.5,-20.,9.99999999999999));
#675=CARTESIAN_POINT('',(-110.5,-20.,-9.99999999999999));
#676=CARTESIAN_POINT('',(-110.5,-20.,9.99999999999999));
#677=CARTESIAN_POINT('',(-10.5,-20.,10.));
#678=CARTESIAN_POINT('',(-10.5,-20.,10.));
#679=CARTESIAN_POINT('',(-110.5,-20.,9.99999999999999));
#680=CARTESIAN_POINT('',(-9.26628192546412,-20.,-14.8454039782627));
#681=CARTESIAN_POINT('',(-9.26628192546412,-20.,14.8454039782627));
#682=CARTESIAN_POINT('',(0.,-20.,0.));
#683=CARTESIAN_POINT('',(-100.5,50.,0.));
#684=CARTESIAN_POINT('',(-90.5,50.,-6.12323399573677E-16));
#685=CARTESIAN_POINT('',(-100.5,50.,0.));
#686=CARTESIAN_POINT('',(-100.5,50.,0.));
#687=CARTESIAN_POINT('',(0.,-12.5,13.75));
#688=CARTESIAN_POINT('',(0.,-12.5,13.75));
#689=CARTESIAN_POINT('',(-9.26628192546412,-20.,-14.8454039782627));
#690=CARTESIAN_POINT('',(-9.26628192546412,-20.,14.8454039782627));
#691=MECHANICAL_DESIGN_GEOMETRIC_PRESENTATION_REPRESENTATION('',(#24),#692);
#692=(
GEOMETRIC_REPRESENTATION_CONTEXT(3)
GLOBAL_UNCERTAINTY_ASSIGNED_CONTEXT((#693))
GLOBAL_UNIT_ASSIGNED_CONTEXT((#699,#695,#694))
REPRESENTATION_CONTEXT('S_AC_M_06_crank','TOP_LEVEL_ASSEMBLY_PART')
);
#693=UNCERTAINTY_MEASURE_WITH_UNIT(LENGTH_MEASURE(0.0508),#699,
'DISTANCE_ACCURACY_VALUE','Maximum Tolerance applied to model');
#694=(
NAMED_UNIT(*)
SI_UNIT($,.STERADIAN.)
SOLID_ANGLE_UNIT()
);
#695=(
CONVERSION_BASED_UNIT('DEGREE',#697)
NAMED_UNIT(#696)
PLANE_ANGLE_UNIT()
);
#696=DIMENSIONAL_EXPONENTS(0.,0.,0.,0.,0.,0.,0.);
#697=PLANE_ANGLE_MEASURE_WITH_UNIT(PLANE_ANGLE_MEASURE(0.0174532925),#698);
#698=(
NAMED_UNIT(*)
PLANE_ANGLE_UNIT()
SI_UNIT($,.RADIAN.)
);
#699=(
LENGTH_UNIT()
NAMED_UNIT(*)
SI_UNIT(.MILLI.,.METRE.)
);
ENDSEC;
END-ISO-10303-21;
