ISO-10303-21;
HEADER;
/* Generated by software containing ST-Developer
 * from STEP Tools, Inc. (www.steptools.com) 
 */
/* OPTION: using custom schema-name function */

FILE_DESCRIPTION(
/* description */ (''),
/* implementation_level */ '2;1');

FILE_NAME(
/* name */ 'S_AC_M_02_tube.stp',
/* time_stamp */ '2025-12-15T16:49:32+01:00',
/* author */ (''),
/* organization */ (''),
/* preprocessor_version */ 'ST-DEVELOPER v18.1',
/* originating_system */ 'SIEMENS PLM Software NX 1988',
/* authorisation */ '');

FILE_SCHEMA (('AUTOMOTIVE_DESIGN { 1 0 10303 214 3 1 1 1 }'));
ENDSEC;

DATA;
#10=SHAPE_REPRESENTATION_RELATIONSHIP('None',
'relationship between S_AC_M_02_tube-None and S_AC_M_02_tube-None',#22,
#11);
#11=ADVANCED_BREP_SHAPE_REPRESENTATION('S_AC_M_02_tube-None',(#32),#259);
#12=SHAPE_DEFINITION_REPRESENTATION(#13,#22);
#13=PRODUCT_DEFINITION_SHAPE('','',#14);
#14=PRODUCT_DEFINITION(' ','',#16,#15);
#15=PRODUCT_DEFINITION_CONTEXT('part definition',#21,'design');
#16=PRODUCT_DEFINITION_FORMATION_WITH_SPECIFIED_SOURCE(' ',' ',#18,
 .NOT_KNOWN.);
#17=PRODUCT_RELATED_PRODUCT_CATEGORY('part','',(#18));
#18=PRODUCT('S_AC_M_02_tube','S_AC_M_02_tube',' ',(#19));
#19=PRODUCT_CONTEXT(' ',#21,'mechanical');
#20=APPLICATION_PROTOCOL_DEFINITION('international standard',
'automotive_design',2010,#21);
#21=APPLICATION_CONTEXT(
'core data for automotive mechanical design processes');
#22=SHAPE_REPRESENTATION('S_AC_M_02_tube-None',(#162),#259);
#23=PRESENTATION_LAYER_ASSIGNMENT('1','Layer 1',(#32));
#24=STYLED_ITEM('',(#25),#32);
#25=PRESENTATION_STYLE_ASSIGNMENT((#26));
#26=SURFACE_STYLE_USAGE(.BOTH.,#27);
#27=SURFACE_SIDE_STYLE('',(#28));
#28=SURFACE_STYLE_FILL_AREA(#29);
#29=FILL_AREA_STYLE('',(#30));
#30=FILL_AREA_STYLE_COLOUR('',#31);
#31=COLOUR_RGB('medium khaki',0.698039215686274,0.694117647058824,0.403921568627451);
#32=MANIFOLD_SOLID_BREP('',#33);
#33=CLOSED_SHELL('',(#44,#45,#46,#47,#48,#49,#50,#51));
#34=FACE_OUTER_BOUND('',#74,.T.);
#35=FACE_OUTER_BOUND('',#75,.T.);
#36=FACE_OUTER_BOUND('',#76,.T.);
#37=FACE_OUTER_BOUND('',#77,.T.);
#38=PLANE('',#173);
#39=PLANE('',#174);
#40=PLANE('',#175);
#41=PLANE('',#176);
#42=PLANE('',#177);
#43=PLANE('',#178);
#44=ADVANCED_FACE('',(#54,#55,#56),#52,.F.);
#45=ADVANCED_FACE('',(#57,#58,#59),#53,.T.);
#46=ADVANCED_FACE('',(#60,#61),#38,.T.);
#47=ADVANCED_FACE('',(#62,#63),#39,.F.);
#48=ADVANCED_FACE('',(#34),#40,.T.);
#49=ADVANCED_FACE('',(#35),#41,.T.);
#50=ADVANCED_FACE('',(#36),#42,.F.);
#51=ADVANCED_FACE('',(#37),#43,.T.);
#52=CYLINDRICAL_SURFACE('',#167,75.);
#53=CYLINDRICAL_SURFACE('',#172,77.);
#54=FACE_BOUND('',#64,.T.);
#55=FACE_BOUND('',#65,.T.);
#56=FACE_BOUND('',#66,.T.);
#57=FACE_BOUND('',#67,.T.);
#58=FACE_BOUND('',#68,.T.);
#59=FACE_BOUND('',#69,.T.);
#60=FACE_BOUND('',#70,.T.);
#61=FACE_BOUND('',#71,.T.);
#62=FACE_BOUND('',#72,.T.);
#63=FACE_BOUND('',#73,.T.);
#64=EDGE_LOOP('',(#86,#87,#88,#89));
#65=EDGE_LOOP('',(#90));
#66=EDGE_LOOP('',(#91));
#67=EDGE_LOOP('',(#92,#93,#94,#95));
#68=EDGE_LOOP('',(#96));
#69=EDGE_LOOP('',(#97));
#70=EDGE_LOOP('',(#98));
#71=EDGE_LOOP('',(#99));
#72=EDGE_LOOP('',(#100));
#73=EDGE_LOOP('',(#101));
#74=EDGE_LOOP('',(#102,#103,#104,#105));
#75=EDGE_LOOP('',(#106,#107,#108,#109));
#76=EDGE_LOOP('',(#110,#111,#112,#113));
#77=EDGE_LOOP('',(#114,#115,#116,#117));
#78=CIRCLE('',#163,75.);
#79=CIRCLE('',#164,75.);
#80=CIRCLE('',#165,75.);
#81=CIRCLE('',#166,75.);
#82=CIRCLE('',#168,77.);
#83=CIRCLE('',#169,77.);
#84=CIRCLE('',#170,77.);
#85=CIRCLE('',#171,77.);
#86=ORIENTED_EDGE('',*,*,#130,.F.);
#87=ORIENTED_EDGE('',*,*,#131,.T.);
#88=ORIENTED_EDGE('',*,*,#132,.T.);
#89=ORIENTED_EDGE('',*,*,#133,.T.);
#90=ORIENTED_EDGE('',*,*,#134,.T.);
#91=ORIENTED_EDGE('',*,*,#135,.F.);
#92=ORIENTED_EDGE('',*,*,#136,.F.);
#93=ORIENTED_EDGE('',*,*,#137,.T.);
#94=ORIENTED_EDGE('',*,*,#138,.F.);
#95=ORIENTED_EDGE('',*,*,#139,.F.);
#96=ORIENTED_EDGE('',*,*,#140,.F.);
#97=ORIENTED_EDGE('',*,*,#141,.T.);
#98=ORIENTED_EDGE('',*,*,#134,.F.);
#99=ORIENTED_EDGE('',*,*,#140,.T.);
#100=ORIENTED_EDGE('',*,*,#135,.T.);
#101=ORIENTED_EDGE('',*,*,#141,.F.);
#102=ORIENTED_EDGE('',*,*,#142,.T.);
#103=ORIENTED_EDGE('',*,*,#138,.T.);
#104=ORIENTED_EDGE('',*,*,#143,.F.);
#105=ORIENTED_EDGE('',*,*,#133,.F.);
#106=ORIENTED_EDGE('',*,*,#144,.F.);
#107=ORIENTED_EDGE('',*,*,#136,.T.);
#108=ORIENTED_EDGE('',*,*,#145,.T.);
#109=ORIENTED_EDGE('',*,*,#131,.F.);
#110=ORIENTED_EDGE('',*,*,#130,.T.);
#111=ORIENTED_EDGE('',*,*,#143,.T.);
#112=ORIENTED_EDGE('',*,*,#137,.F.);
#113=ORIENTED_EDGE('',*,*,#144,.T.);
#114=ORIENTED_EDGE('',*,*,#145,.F.);
#115=ORIENTED_EDGE('',*,*,#139,.T.);
#116=ORIENTED_EDGE('',*,*,#142,.F.);
#117=ORIENTED_EDGE('',*,*,#132,.F.);
#118=VERTEX_POINT('',#223);
#119=VERTEX_POINT('',#224);
#120=VERTEX_POINT('',#226);
#121=VERTEX_POINT('',#228);
#122=VERTEX_POINT('',#231);
#123=VERTEX_POINT('',#233);
#124=VERTEX_POINT('',#236);
#125=VERTEX_POINT('',#237);
#126=VERTEX_POINT('',#239);
#127=VERTEX_POINT('',#241);
#128=VERTEX_POINT('',#244);
#129=VERTEX_POINT('',#246);
#130=EDGE_CURVE('',#118,#119,#146,.T.);
#131=EDGE_CURVE('',#118,#120,#78,.T.);
#132=EDGE_CURVE('',#120,#121,#147,.T.);
#133=EDGE_CURVE('',#121,#119,#79,.T.);
#134=EDGE_CURVE('',#122,#122,#80,.T.);
#135=EDGE_CURVE('',#123,#123,#81,.T.);
#136=EDGE_CURVE('',#124,#125,#82,.T.);
#137=EDGE_CURVE('',#124,#126,#148,.T.);
#138=EDGE_CURVE('',#127,#126,#83,.T.);
#139=EDGE_CURVE('',#125,#127,#149,.T.);
#140=EDGE_CURVE('',#128,#128,#84,.T.);
#141=EDGE_CURVE('',#129,#129,#85,.T.);
#142=EDGE_CURVE('',#121,#127,#150,.T.);
#143=EDGE_CURVE('',#119,#126,#151,.T.);
#144=EDGE_CURVE('',#124,#118,#152,.T.);
#145=EDGE_CURVE('',#125,#120,#153,.T.);
#146=LINE('',#222,#154);
#147=LINE('',#227,#155);
#148=LINE('',#238,#156);
#149=LINE('',#242,#157);
#150=LINE('',#250,#158);
#151=LINE('',#251,#159);
#152=LINE('',#253,#160);
#153=LINE('',#254,#161);
#154=VECTOR('',#181,1.);
#155=VECTOR('',#184,1.);
#156=VECTOR('',#195,1.);
#157=VECTOR('',#198,1.);
#158=VECTOR('',#209,1.);
#159=VECTOR('',#210,1.);
#160=VECTOR('',#213,1.);
#161=VECTOR('',#214,1.);
#162=AXIS2_PLACEMENT_3D('',#221,#179,#180);
#163=AXIS2_PLACEMENT_3D('',#225,#182,#183);
#164=AXIS2_PLACEMENT_3D('',#229,#185,#186);
#165=AXIS2_PLACEMENT_3D('',#230,#187,#188);
#166=AXIS2_PLACEMENT_3D('',#232,#189,#190);
#167=AXIS2_PLACEMENT_3D('',#234,#191,#192);
#168=AXIS2_PLACEMENT_3D('',#235,#193,#194);
#169=AXIS2_PLACEMENT_3D('',#240,#196,#197);
#170=AXIS2_PLACEMENT_3D('',#243,#199,#200);
#171=AXIS2_PLACEMENT_3D('',#245,#201,#202);
#172=AXIS2_PLACEMENT_3D('',#247,#203,#204);
#173=AXIS2_PLACEMENT_3D('',#248,#205,#206);
#174=AXIS2_PLACEMENT_3D('',#249,#207,#208);
#175=AXIS2_PLACEMENT_3D('',#252,#211,#212);
#176=AXIS2_PLACEMENT_3D('',#255,#215,#216);
#177=AXIS2_PLACEMENT_3D('',#256,#217,#218);
#178=AXIS2_PLACEMENT_3D('',#257,#219,#220);
#179=DIRECTION('',(0.,0.,1.));
#180=DIRECTION('',(1.,0.,0.));
#181=DIRECTION('',(-0.258819045102521,0.,-0.965925826289068));
#182=DIRECTION('',(-0.258819045102522,0.,-0.965925826289068));
#183=DIRECTION('',(-0.965925826289068,0.,0.258819045102522));
#184=DIRECTION('',(-0.258819045102521,0.,-0.965925826289068));
#185=DIRECTION('',(0.258819045102522,0.,0.965925826289068));
#186=DIRECTION('',(0.965925826289068,0.,-0.258819045102522));
#187=DIRECTION('',(0.258819045102521,0.,0.965925826289068));
#188=DIRECTION('',(0.965925826289068,0.,-0.258819045102521));
#189=DIRECTION('',(0.258819045102521,0.,0.965925826289068));
#190=DIRECTION('',(0.965925826289068,0.,-0.258819045102521));
#191=DIRECTION('',(-0.258819045102521,0.,-0.965925826289068));
#192=DIRECTION('',(-0.965925826289068,0.,0.258819045102521));
#193=DIRECTION('',(-0.258819045102522,0.,-0.965925826289068));
#194=DIRECTION('',(-0.965925826289068,0.,0.258819045102522));
#195=DIRECTION('',(-0.258819045102521,0.,-0.965925826289068));
#196=DIRECTION('',(0.258819045102522,0.,0.965925826289068));
#197=DIRECTION('',(0.965925826289068,0.,-0.258819045102522));
#198=DIRECTION('',(-0.258819045102521,0.,-0.965925826289068));
#199=DIRECTION('',(0.258819045102521,0.,0.965925826289068));
#200=DIRECTION('',(0.965925826289068,0.,-0.25881904510252));
#201=DIRECTION('',(0.258819045102521,0.,0.965925826289068));
#202=DIRECTION('',(0.965925826289068,0.,-0.258819045102521));
#203=DIRECTION('',(-0.258819045102521,0.,-0.965925826289068));
#204=DIRECTION('',(-0.965925826289068,0.,0.25881904510252));
#205=DIRECTION('',(0.258819045102521,0.,0.965925826289068));
#206=DIRECTION('',(0.965925826289068,0.,-0.258819045102521));
#207=DIRECTION('',(0.258819045102521,0.,0.965925826289068));
#208=DIRECTION('',(0.965925826289068,0.,-0.258819045102521));
#209=DIRECTION('',(-0.965925826289068,0.,0.258819045102522));
#210=DIRECTION('',(-0.965925826289068,0.,0.258819045102522));
#211=DIRECTION('',(0.258819045102522,0.,0.965925826289068));
#212=DIRECTION('',(0.965925826289068,0.,-0.258819045102522));
#213=DIRECTION('',(0.965925826289068,0.,-0.258819045102522));
#214=DIRECTION('',(0.965925826289068,0.,-0.258819045102522));
#215=DIRECTION('',(-0.258819045102522,0.,-0.965925826289068));
#216=DIRECTION('',(-0.965925826289068,0.,0.258819045102522));
#217=DIRECTION('',(0.,-1.,0.));
#218=DIRECTION('',(0.,0.,-1.));
#219=DIRECTION('',(0.,-1.,0.));
#220=DIRECTION('',(0.,0.,-1.));
#221=CARTESIAN_POINT('',(0.,0.,0.));
#222=CARTESIAN_POINT('',(150.647621643882,-60.,736.091226746415));
#223=CARTESIAN_POINT('',(66.5314319855633,-60.,422.165333202468));
#224=CARTESIAN_POINT('',(53.5904797304372,-60.,373.869041888014));
#225=CARTESIAN_POINT('',(109.998094168571,0.,410.518476172854));
#226=CARTESIAN_POINT('',(66.5314319855633,60.,422.165333202468));
#227=CARTESIAN_POINT('',(150.647621643882,60.,736.091226746415));
#228=CARTESIAN_POINT('',(53.5904797304372,60.,373.869041888014));
#229=CARTESIAN_POINT('',(97.0571419134453,0.,362.222184858401));
#230=CARTESIAN_POINT('',(194.114283826891,0.,724.444369716801));
#231=CARTESIAN_POINT('',(266.558720798571,0.,705.032941334112));
#232=CARTESIAN_POINT('',(0.,0.,0.));
#233=CARTESIAN_POINT('',(72.4444369716801,0.,-19.4114283826891));
#234=CARTESIAN_POINT('',(194.114283826891,0.,724.444369716801));
#235=CARTESIAN_POINT('',(109.998094168571,0.,410.518476172854));
#236=CARTESIAN_POINT('',(63.38279000023,-60.,423.009009279692));
#237=CARTESIAN_POINT('',(63.38279000023,60.,423.009009279692));
#238=CARTESIAN_POINT('',(147.498979658549,-60.,736.934902823639));
#239=CARTESIAN_POINT('',(50.441837745104,-60.,374.712717965239));
#240=CARTESIAN_POINT('',(97.0571419134453,0.,362.222184858401));
#241=CARTESIAN_POINT('',(50.441837745104,60.,374.712717965239));
#242=CARTESIAN_POINT('',(147.498979658549,60.,736.934902823639));
#243=CARTESIAN_POINT('',(194.114283826891,0.,724.444369716801));
#244=CARTESIAN_POINT('',(268.490572451149,0.,704.515303243907));
#245=CARTESIAN_POINT('',(0.,0.,0.));
#246=CARTESIAN_POINT('',(74.3762886242583,0.,-19.9290664728941));
#247=CARTESIAN_POINT('',(194.114283826891,0.,724.444369716801));
#248=CARTESIAN_POINT('',(194.114283826891,0.,724.444369716801));
#249=CARTESIAN_POINT('',(0.,0.,0.));
#250=CARTESIAN_POINT('',(-51.6954353350712,60.,402.080317804189));
#251=CARTESIAN_POINT('',(-51.6954353350712,-60.,402.080317804189));
#252=CARTESIAN_POINT('',(-51.6954353350712,-60.,402.080317804189));
#253=CARTESIAN_POINT('',(109.998094168573,-60.,410.518476172854));
#254=CARTESIAN_POINT('',(109.998094168573,60.,410.518476172854));
#255=CARTESIAN_POINT('',(109.998094168573,-60.,410.518476172854));
#256=CARTESIAN_POINT('',(0.,-60.,0.));
#257=CARTESIAN_POINT('',(0.,60.,0.));
#258=MECHANICAL_DESIGN_GEOMETRIC_PRESENTATION_REPRESENTATION('',(#24),#259);
#259=(
GEOMETRIC_REPRESENTATION_CONTEXT(3)
GLOBAL_UNCERTAINTY_ASSIGNED_CONTEXT((#260))
GLOBAL_UNIT_ASSIGNED_CONTEXT((#266,#262,#261))
REPRESENTATION_CONTEXT('S_AC_M_02_tube','TOP_LEVEL_ASSEMBLY_PART')
);
#260=UNCERTAINTY_MEASURE_WITH_UNIT(LENGTH_MEASURE(2.E-5),#266,
'DISTANCE_ACCURACY_VALUE','Maximum Tolerance applied to model');
#261=(
NAMED_UNIT(*)
SI_UNIT($,.STERADIAN.)
SOLID_ANGLE_UNIT()
);
#262=(
CONVERSION_BASED_UNIT('DEGREE',#264)
NAMED_UNIT(#263)
PLANE_ANGLE_UNIT()
);
#263=DIMENSIONAL_EXPONENTS(0.,0.,0.,0.,0.,0.,0.);
#264=PLANE_ANGLE_MEASURE_WITH_UNIT(PLANE_ANGLE_MEASURE(0.0174532925),#265);
#265=(
NAMED_UNIT(*)
PLANE_ANGLE_UNIT()
SI_UNIT($,.RADIAN.)
);
#266=(
LENGTH_UNIT()
NAMED_UNIT(*)
SI_UNIT(.MILLI.,.METRE.)
);
ENDSEC;
END-ISO-10303-21;
