ISO-10303-21;
HEADER;
/* Generated by software containing ST-Developer
 * from STEP Tools, Inc. (www.steptools.com) 
 */
/* OPTION: using custom schema-name function */

FILE_DESCRIPTION(
/* description */ (''),
/* implementation_level */ '2;1');

FILE_NAME(
/* name */ 'S_AC_M_05_feeder_drum.stp',
/* time_stamp */ '2025-12-15T16:51:19+01:00',
/* author */ (''),
/* organization */ (''),
/* preprocessor_version */ 'ST-DEVELOPER v18.1',
/* originating_system */ 'SIEMENS PLM Software NX 1988',
/* authorisation */ '');

FILE_SCHEMA (('AUTOMOTIVE_DESIGN { 1 0 10303 214 3 1 1 1 }'));
ENDSEC;

DATA;
#10=SHAPE_REPRESENTATION_RELATIONSHIP('None',
'relationship between S_AC_M_05_feeder_drum-None and S_AC_M_05_feeder_
drum-None',#22,#11);
#11=ADVANCED_BREP_SHAPE_REPRESENTATION('S_AC_M_05_feeder_drum-None',(#32),
#1091);
#12=SHAPE_DEFINITION_REPRESENTATION(#13,#22);
#13=PRODUCT_DEFINITION_SHAPE('','',#14);
#14=PRODUCT_DEFINITION(' ','',#16,#15);
#15=PRODUCT_DEFINITION_CONTEXT('part definition',#21,'design');
#16=PRODUCT_DEFINITION_FORMATION_WITH_SPECIFIED_SOURCE(' ',' ',#18,
 .NOT_KNOWN.);
#17=PRODUCT_RELATED_PRODUCT_CATEGORY('part','',(#18));
#18=PRODUCT('S_AC_M_05_feeder_drum','S_AC_M_05_feeder_drum',' ',(#19));
#19=PRODUCT_CONTEXT(' ',#21,'mechanical');
#20=APPLICATION_PROTOCOL_DEFINITION('international standard',
'automotive_design',2010,#21);
#21=APPLICATION_CONTEXT(
'core data for automotive mechanical design processes');
#22=SHAPE_REPRESENTATION('S_AC_M_05_feeder_drum-None',(#606),#1091);
#23=PRESENTATION_LAYER_ASSIGNMENT('1','Layer 1',(#32));
#24=STYLED_ITEM('',(#25),#32);
#25=PRESENTATION_STYLE_ASSIGNMENT((#26));
#26=SURFACE_STYLE_USAGE(.BOTH.,#27);
#27=SURFACE_SIDE_STYLE('',(#28));
#28=SURFACE_STYLE_FILL_AREA(#29);
#29=FILL_AREA_STYLE('',(#30));
#30=FILL_AREA_STYLE_COLOUR('',#31);
#31=COLOUR_RGB('medium steel',0.596078431372549,0.666666666666667,0.686274509803922);
#32=MANIFOLD_SOLID_BREP('',#33);
#33=CLOSED_SHELL('',(#98,#99,#100,#101,#102,#103,#104,#105,#106,#107,#108,
#109,#110,#111,#112,#113,#114,#115,#116,#117,#118,#119,#120,#121,#122,#123,
#124,#125,#126,#127,#128,#129,#130,#131));
#34=PLANE('',#622);
#35=PLANE('',#623);
#36=PLANE('',#624);
#37=PLANE('',#625);
#38=PLANE('',#626);
#39=PLANE('',#627);
#40=PLANE('',#628);
#41=PLANE('',#629);
#42=PLANE('',#630);
#43=PLANE('',#631);
#44=PLANE('',#632);
#45=PLANE('',#633);
#46=PLANE('',#634);
#47=PLANE('',#635);
#48=PLANE('',#636);
#49=PLANE('',#637);
#50=PLANE('',#638);
#51=PLANE('',#639);
#52=PLANE('',#640);
#53=PLANE('',#641);
#54=PLANE('',#642);
#55=PLANE('',#643);
#56=PLANE('',#644);
#57=PLANE('',#645);
#58=PLANE('',#646);
#59=PLANE('',#647);
#60=PLANE('',#648);
#61=PLANE('',#649);
#62=PLANE('',#650);
#63=PLANE('',#651);
#64=PLANE('',#652);
#65=PLANE('',#653);
#66=FACE_OUTER_BOUND('',#158,.T.);
#67=FACE_OUTER_BOUND('',#159,.T.);
#68=FACE_OUTER_BOUND('',#160,.T.);
#69=FACE_OUTER_BOUND('',#161,.T.);
#70=FACE_OUTER_BOUND('',#162,.T.);
#71=FACE_OUTER_BOUND('',#163,.T.);
#72=FACE_OUTER_BOUND('',#164,.T.);
#73=FACE_OUTER_BOUND('',#165,.T.);
#74=FACE_OUTER_BOUND('',#166,.T.);
#75=FACE_OUTER_BOUND('',#167,.T.);
#76=FACE_OUTER_BOUND('',#168,.T.);
#77=FACE_OUTER_BOUND('',#169,.T.);
#78=FACE_OUTER_BOUND('',#170,.T.);
#79=FACE_OUTER_BOUND('',#171,.T.);
#80=FACE_OUTER_BOUND('',#172,.T.);
#81=FACE_OUTER_BOUND('',#173,.T.);
#82=FACE_OUTER_BOUND('',#174,.T.);
#83=FACE_OUTER_BOUND('',#175,.T.);
#84=FACE_OUTER_BOUND('',#176,.T.);
#85=FACE_OUTER_BOUND('',#177,.T.);
#86=FACE_OUTER_BOUND('',#178,.T.);
#87=FACE_OUTER_BOUND('',#179,.T.);
#88=FACE_OUTER_BOUND('',#180,.T.);
#89=FACE_OUTER_BOUND('',#181,.T.);
#90=FACE_OUTER_BOUND('',#182,.T.);
#91=FACE_OUTER_BOUND('',#183,.T.);
#92=FACE_OUTER_BOUND('',#184,.T.);
#93=FACE_OUTER_BOUND('',#185,.T.);
#94=FACE_OUTER_BOUND('',#186,.T.);
#95=FACE_OUTER_BOUND('',#187,.T.);
#96=FACE_OUTER_BOUND('',#188,.T.);
#97=FACE_OUTER_BOUND('',#189,.T.);
#98=ADVANCED_FACE('',(#136,#137,#138,#139,#140,#141,#142,#143,#144,#145),
#132,.T.);
#99=ADVANCED_FACE('',(#66),#34,.T.);
#100=ADVANCED_FACE('',(#67),#35,.F.);
#101=ADVANCED_FACE('',(#68),#36,.T.);
#102=ADVANCED_FACE('',(#69),#37,.T.);
#103=ADVANCED_FACE('',(#70),#38,.T.);
#104=ADVANCED_FACE('',(#71),#39,.F.);
#105=ADVANCED_FACE('',(#72),#40,.T.);
#106=ADVANCED_FACE('',(#73),#41,.T.);
#107=ADVANCED_FACE('',(#74),#42,.T.);
#108=ADVANCED_FACE('',(#75),#43,.T.);
#109=ADVANCED_FACE('',(#76),#44,.F.);
#110=ADVANCED_FACE('',(#77),#45,.T.);
#111=ADVANCED_FACE('',(#78),#46,.T.);
#112=ADVANCED_FACE('',(#79),#47,.T.);
#113=ADVANCED_FACE('',(#80),#48,.T.);
#114=ADVANCED_FACE('',(#81),#49,.F.);
#115=ADVANCED_FACE('',(#82),#50,.T.);
#116=ADVANCED_FACE('',(#83),#51,.T.);
#117=ADVANCED_FACE('',(#84),#52,.T.);
#118=ADVANCED_FACE('',(#85),#53,.T.);
#119=ADVANCED_FACE('',(#86),#54,.F.);
#120=ADVANCED_FACE('',(#87),#55,.T.);
#121=ADVANCED_FACE('',(#88),#56,.T.);
#122=ADVANCED_FACE('',(#89),#57,.T.);
#123=ADVANCED_FACE('',(#90),#58,.T.);
#124=ADVANCED_FACE('',(#91),#59,.F.);
#125=ADVANCED_FACE('',(#92),#60,.T.);
#126=ADVANCED_FACE('',(#93),#61,.T.);
#127=ADVANCED_FACE('',(#94),#62,.T.);
#128=ADVANCED_FACE('',(#95),#63,.T.);
#129=ADVANCED_FACE('',(#96),#64,.F.);
#130=ADVANCED_FACE('',(#97),#65,.T.);
#131=ADVANCED_FACE('',(#146,#147),#133,.F.);
#132=CYLINDRICAL_SURFACE('',#621,10.);
#133=CYLINDRICAL_SURFACE('',#654,2.);
#134=B_SPLINE_CURVE_WITH_KNOTS('',3,(#866,#867,#868,#869,#870,#871,#872,
#873,#874,#875,#876,#877,#878,#879,#880,#881,#882,#883,#884,#885,#886,#887,
#888,#889,#890,#891,#892,#893,#894,#895,#896,#897,#898,#899,#900,#901,#902,
#903,#904,#905,#906,#907,#908,#909,#910,#911,#912,#913,#914,#915,#916,#917,
#918,#919,#920,#921,#922,#923),.UNSPECIFIED.,.T.,.F.,(1,3,3,3,3,3,3,3,3,
3,3,3,3,3,3,3,3,3,3,3,3,1),(-0.0400669241293894,0.,0.0529702802188772,0.105895044979886,
0.159500494252396,0.213592292876969,0.266960158760327,0.319545220798078,
0.372461545734808,0.426322574289958,0.480310648175686,0.53335564228292,
0.585872648570928,0.639083891399925,0.693135704765439,0.746877169796903,
0.799660349214026,0.852311906354235,0.905832948567157,0.959933075870611,
1.,1.05297028021888),.UNSPECIFIED.);
#135=B_SPLINE_CURVE_WITH_KNOTS('',3,(#925,#926,#927,#928,#929,#930,#931,
#932,#933,#934,#935,#936,#937,#938,#939,#940,#941,#942,#943,#944,#945,#946,
#947,#948,#949,#950,#951,#952,#953,#954,#955,#956,#957,#958,#959,#960,#961,
#962,#963,#964,#965,#966,#967,#968,#969,#970,#971,#972,#973,#974,#975,#976,
#977,#978,#979,#980,#981,#982),.UNSPECIFIED.,.T.,.F.,(1,3,3,3,3,3,3,3,3,
3,3,3,3,3,3,3,3,3,3,3,3,1),(-0.0400669241293894,0.,0.0529702802188772,0.105895044979886,
0.159500494252396,0.213592292876969,0.266960158760327,0.319545220798078,
0.372461545734808,0.426322574289958,0.480310648175686,0.53335564228292,
0.585872648570928,0.639083891399925,0.693135704765439,0.746877169796903,
0.799660349214026,0.852311906354235,0.905832948567157,0.959933075870611,
1.,1.05297028021888),.UNSPECIFIED.);
#136=FACE_BOUND('',#148,.T.);
#137=FACE_BOUND('',#149,.T.);
#138=FACE_BOUND('',#150,.T.);
#139=FACE_BOUND('',#151,.T.);
#140=FACE_BOUND('',#152,.T.);
#141=FACE_BOUND('',#153,.T.);
#142=FACE_BOUND('',#154,.T.);
#143=FACE_BOUND('',#155,.T.);
#144=FACE_BOUND('',#156,.T.);
#145=FACE_BOUND('',#157,.T.);
#146=FACE_BOUND('',#190,.T.);
#147=FACE_BOUND('',#191,.T.);
#148=EDGE_LOOP('',(#312,#313,#314,#315));
#149=EDGE_LOOP('',(#316,#317,#318,#319));
#150=EDGE_LOOP('',(#320,#321,#322,#323));
#151=EDGE_LOOP('',(#324));
#152=EDGE_LOOP('',(#325));
#153=EDGE_LOOP('',(#326,#327,#328,#329));
#154=EDGE_LOOP('',(#330,#331,#332,#333));
#155=EDGE_LOOP('',(#334,#335,#336,#337));
#156=EDGE_LOOP('',(#338));
#157=EDGE_LOOP('',(#339));
#158=EDGE_LOOP('',(#340));
#159=EDGE_LOOP('',(#341));
#160=EDGE_LOOP('',(#342,#343,#344,#345));
#161=EDGE_LOOP('',(#346,#347,#348,#349));
#162=EDGE_LOOP('',(#350,#351,#352,#353));
#163=EDGE_LOOP('',(#354,#355,#356,#357));
#164=EDGE_LOOP('',(#358,#359,#360,#361));
#165=EDGE_LOOP('',(#362,#363,#364,#365));
#166=EDGE_LOOP('',(#366,#367,#368,#369));
#167=EDGE_LOOP('',(#370,#371,#372,#373));
#168=EDGE_LOOP('',(#374,#375,#376,#377));
#169=EDGE_LOOP('',(#378,#379,#380,#381));
#170=EDGE_LOOP('',(#382,#383,#384,#385));
#171=EDGE_LOOP('',(#386,#387,#388,#389));
#172=EDGE_LOOP('',(#390,#391,#392,#393));
#173=EDGE_LOOP('',(#394,#395,#396,#397));
#174=EDGE_LOOP('',(#398,#399,#400,#401));
#175=EDGE_LOOP('',(#402,#403,#404,#405));
#176=EDGE_LOOP('',(#406,#407,#408,#409));
#177=EDGE_LOOP('',(#410,#411,#412,#413));
#178=EDGE_LOOP('',(#414,#415,#416,#417));
#179=EDGE_LOOP('',(#418,#419,#420,#421));
#180=EDGE_LOOP('',(#422,#423,#424,#425));
#181=EDGE_LOOP('',(#426,#427,#428,#429));
#182=EDGE_LOOP('',(#430,#431,#432,#433));
#183=EDGE_LOOP('',(#434,#435,#436,#437));
#184=EDGE_LOOP('',(#438,#439,#440,#441));
#185=EDGE_LOOP('',(#442,#443,#444,#445));
#186=EDGE_LOOP('',(#446,#447,#448,#449));
#187=EDGE_LOOP('',(#450,#451,#452,#453));
#188=EDGE_LOOP('',(#454,#455,#456,#457));
#189=EDGE_LOOP('',(#458,#459,#460,#461));
#190=EDGE_LOOP('',(#462));
#191=EDGE_LOOP('',(#463));
#192=LINE('',#817,#252);
#193=LINE('',#821,#253);
#194=LINE('',#825,#254);
#195=LINE('',#829,#255);
#196=LINE('',#833,#256);
#197=LINE('',#837,#257);
#198=LINE('',#845,#258);
#199=LINE('',#849,#259);
#200=LINE('',#853,#260);
#201=LINE('',#857,#261);
#202=LINE('',#861,#262);
#203=LINE('',#865,#263);
#204=LINE('',#987,#264);
#205=LINE('',#989,#265);
#206=LINE('',#991,#266);
#207=LINE('',#993,#267);
#208=LINE('',#995,#268);
#209=LINE('',#997,#269);
#210=LINE('',#999,#270);
#211=LINE('',#1000,#271);
#212=LINE('',#1004,#272);
#213=LINE('',#1006,#273);
#214=LINE('',#1008,#274);
#215=LINE('',#1010,#275);
#216=LINE('',#1012,#276);
#217=LINE('',#1014,#277);
#218=LINE('',#1016,#278);
#219=LINE('',#1017,#279);
#220=LINE('',#1021,#280);
#221=LINE('',#1023,#281);
#222=LINE('',#1025,#282);
#223=LINE('',#1027,#283);
#224=LINE('',#1029,#284);
#225=LINE('',#1031,#285);
#226=LINE('',#1033,#286);
#227=LINE('',#1034,#287);
#228=LINE('',#1038,#288);
#229=LINE('',#1040,#289);
#230=LINE('',#1042,#290);
#231=LINE('',#1044,#291);
#232=LINE('',#1046,#292);
#233=LINE('',#1048,#293);
#234=LINE('',#1050,#294);
#235=LINE('',#1051,#295);
#236=LINE('',#1055,#296);
#237=LINE('',#1057,#297);
#238=LINE('',#1059,#298);
#239=LINE('',#1061,#299);
#240=LINE('',#1063,#300);
#241=LINE('',#1065,#301);
#242=LINE('',#1067,#302);
#243=LINE('',#1068,#303);
#244=LINE('',#1072,#304);
#245=LINE('',#1074,#305);
#246=LINE('',#1076,#306);
#247=LINE('',#1078,#307);
#248=LINE('',#1080,#308);
#249=LINE('',#1082,#309);
#250=LINE('',#1084,#310);
#251=LINE('',#1085,#311);
#252=VECTOR('',#659,1.);
#253=VECTOR('',#662,1.);
#254=VECTOR('',#665,1.);
#255=VECTOR('',#668,1.);
#256=VECTOR('',#671,1.);
#257=VECTOR('',#674,1.);
#258=VECTOR('',#681,1.);
#259=VECTOR('',#684,1.);
#260=VECTOR('',#687,1.);
#261=VECTOR('',#690,1.);
#262=VECTOR('',#693,1.);
#263=VECTOR('',#696,1.);
#264=VECTOR('',#703,1.);
#265=VECTOR('',#704,1.);
#266=VECTOR('',#705,1.);
#267=VECTOR('',#708,1.);
#268=VECTOR('',#709,1.);
#269=VECTOR('',#710,1.);
#270=VECTOR('',#713,1.);
#271=VECTOR('',#714,1.);
#272=VECTOR('',#721,1.);
#273=VECTOR('',#722,1.);
#274=VECTOR('',#723,1.);
#275=VECTOR('',#726,1.);
#276=VECTOR('',#727,1.);
#277=VECTOR('',#728,1.);
#278=VECTOR('',#731,1.);
#279=VECTOR('',#732,1.);
#280=VECTOR('',#739,1.);
#281=VECTOR('',#740,1.);
#282=VECTOR('',#741,1.);
#283=VECTOR('',#744,1.);
#284=VECTOR('',#745,1.);
#285=VECTOR('',#746,1.);
#286=VECTOR('',#749,1.);
#287=VECTOR('',#750,1.);
#288=VECTOR('',#757,1.);
#289=VECTOR('',#758,1.);
#290=VECTOR('',#759,1.);
#291=VECTOR('',#762,1.);
#292=VECTOR('',#763,1.);
#293=VECTOR('',#764,1.);
#294=VECTOR('',#767,1.);
#295=VECTOR('',#768,1.);
#296=VECTOR('',#775,1.);
#297=VECTOR('',#776,1.);
#298=VECTOR('',#777,1.);
#299=VECTOR('',#780,1.);
#300=VECTOR('',#781,1.);
#301=VECTOR('',#782,1.);
#302=VECTOR('',#785,1.);
#303=VECTOR('',#786,1.);
#304=VECTOR('',#793,1.);
#305=VECTOR('',#794,1.);
#306=VECTOR('',#795,1.);
#307=VECTOR('',#798,1.);
#308=VECTOR('',#799,1.);
#309=VECTOR('',#800,1.);
#310=VECTOR('',#803,1.);
#311=VECTOR('',#804,1.);
#312=ORIENTED_EDGE('',*,*,#516,.F.);
#313=ORIENTED_EDGE('',*,*,#517,.T.);
#314=ORIENTED_EDGE('',*,*,#518,.T.);
#315=ORIENTED_EDGE('',*,*,#519,.F.);
#316=ORIENTED_EDGE('',*,*,#520,.F.);
#317=ORIENTED_EDGE('',*,*,#521,.T.);
#318=ORIENTED_EDGE('',*,*,#522,.T.);
#319=ORIENTED_EDGE('',*,*,#523,.F.);
#320=ORIENTED_EDGE('',*,*,#524,.F.);
#321=ORIENTED_EDGE('',*,*,#525,.T.);
#322=ORIENTED_EDGE('',*,*,#526,.T.);
#323=ORIENTED_EDGE('',*,*,#527,.F.);
#324=ORIENTED_EDGE('',*,*,#528,.F.);
#325=ORIENTED_EDGE('',*,*,#529,.T.);
#326=ORIENTED_EDGE('',*,*,#530,.F.);
#327=ORIENTED_EDGE('',*,*,#531,.T.);
#328=ORIENTED_EDGE('',*,*,#532,.T.);
#329=ORIENTED_EDGE('',*,*,#533,.F.);
#330=ORIENTED_EDGE('',*,*,#534,.F.);
#331=ORIENTED_EDGE('',*,*,#535,.T.);
#332=ORIENTED_EDGE('',*,*,#536,.T.);
#333=ORIENTED_EDGE('',*,*,#537,.F.);
#334=ORIENTED_EDGE('',*,*,#538,.F.);
#335=ORIENTED_EDGE('',*,*,#539,.T.);
#336=ORIENTED_EDGE('',*,*,#540,.T.);
#337=ORIENTED_EDGE('',*,*,#541,.F.);
#338=ORIENTED_EDGE('',*,*,#542,.F.);
#339=ORIENTED_EDGE('',*,*,#543,.F.);
#340=ORIENTED_EDGE('',*,*,#528,.T.);
#341=ORIENTED_EDGE('',*,*,#529,.F.);
#342=ORIENTED_EDGE('',*,*,#544,.F.);
#343=ORIENTED_EDGE('',*,*,#525,.F.);
#344=ORIENTED_EDGE('',*,*,#545,.T.);
#345=ORIENTED_EDGE('',*,*,#546,.T.);
#346=ORIENTED_EDGE('',*,*,#547,.F.);
#347=ORIENTED_EDGE('',*,*,#546,.F.);
#348=ORIENTED_EDGE('',*,*,#548,.T.);
#349=ORIENTED_EDGE('',*,*,#549,.T.);
#350=ORIENTED_EDGE('',*,*,#550,.F.);
#351=ORIENTED_EDGE('',*,*,#549,.F.);
#352=ORIENTED_EDGE('',*,*,#551,.T.);
#353=ORIENTED_EDGE('',*,*,#527,.T.);
#354=ORIENTED_EDGE('',*,*,#545,.F.);
#355=ORIENTED_EDGE('',*,*,#524,.T.);
#356=ORIENTED_EDGE('',*,*,#551,.F.);
#357=ORIENTED_EDGE('',*,*,#548,.F.);
#358=ORIENTED_EDGE('',*,*,#526,.F.);
#359=ORIENTED_EDGE('',*,*,#544,.T.);
#360=ORIENTED_EDGE('',*,*,#547,.T.);
#361=ORIENTED_EDGE('',*,*,#550,.T.);
#362=ORIENTED_EDGE('',*,*,#552,.F.);
#363=ORIENTED_EDGE('',*,*,#531,.F.);
#364=ORIENTED_EDGE('',*,*,#553,.T.);
#365=ORIENTED_EDGE('',*,*,#554,.T.);
#366=ORIENTED_EDGE('',*,*,#555,.F.);
#367=ORIENTED_EDGE('',*,*,#554,.F.);
#368=ORIENTED_EDGE('',*,*,#556,.T.);
#369=ORIENTED_EDGE('',*,*,#557,.T.);
#370=ORIENTED_EDGE('',*,*,#558,.F.);
#371=ORIENTED_EDGE('',*,*,#557,.F.);
#372=ORIENTED_EDGE('',*,*,#559,.T.);
#373=ORIENTED_EDGE('',*,*,#533,.T.);
#374=ORIENTED_EDGE('',*,*,#553,.F.);
#375=ORIENTED_EDGE('',*,*,#530,.T.);
#376=ORIENTED_EDGE('',*,*,#559,.F.);
#377=ORIENTED_EDGE('',*,*,#556,.F.);
#378=ORIENTED_EDGE('',*,*,#532,.F.);
#379=ORIENTED_EDGE('',*,*,#552,.T.);
#380=ORIENTED_EDGE('',*,*,#555,.T.);
#381=ORIENTED_EDGE('',*,*,#558,.T.);
#382=ORIENTED_EDGE('',*,*,#560,.F.);
#383=ORIENTED_EDGE('',*,*,#521,.F.);
#384=ORIENTED_EDGE('',*,*,#561,.T.);
#385=ORIENTED_EDGE('',*,*,#562,.T.);
#386=ORIENTED_EDGE('',*,*,#563,.F.);
#387=ORIENTED_EDGE('',*,*,#562,.F.);
#388=ORIENTED_EDGE('',*,*,#564,.T.);
#389=ORIENTED_EDGE('',*,*,#565,.T.);
#390=ORIENTED_EDGE('',*,*,#566,.F.);
#391=ORIENTED_EDGE('',*,*,#565,.F.);
#392=ORIENTED_EDGE('',*,*,#567,.T.);
#393=ORIENTED_EDGE('',*,*,#523,.T.);
#394=ORIENTED_EDGE('',*,*,#561,.F.);
#395=ORIENTED_EDGE('',*,*,#520,.T.);
#396=ORIENTED_EDGE('',*,*,#567,.F.);
#397=ORIENTED_EDGE('',*,*,#564,.F.);
#398=ORIENTED_EDGE('',*,*,#522,.F.);
#399=ORIENTED_EDGE('',*,*,#560,.T.);
#400=ORIENTED_EDGE('',*,*,#563,.T.);
#401=ORIENTED_EDGE('',*,*,#566,.T.);
#402=ORIENTED_EDGE('',*,*,#568,.F.);
#403=ORIENTED_EDGE('',*,*,#535,.F.);
#404=ORIENTED_EDGE('',*,*,#569,.T.);
#405=ORIENTED_EDGE('',*,*,#570,.T.);
#406=ORIENTED_EDGE('',*,*,#571,.F.);
#407=ORIENTED_EDGE('',*,*,#570,.F.);
#408=ORIENTED_EDGE('',*,*,#572,.T.);
#409=ORIENTED_EDGE('',*,*,#573,.T.);
#410=ORIENTED_EDGE('',*,*,#574,.F.);
#411=ORIENTED_EDGE('',*,*,#573,.F.);
#412=ORIENTED_EDGE('',*,*,#575,.T.);
#413=ORIENTED_EDGE('',*,*,#537,.T.);
#414=ORIENTED_EDGE('',*,*,#569,.F.);
#415=ORIENTED_EDGE('',*,*,#534,.T.);
#416=ORIENTED_EDGE('',*,*,#575,.F.);
#417=ORIENTED_EDGE('',*,*,#572,.F.);
#418=ORIENTED_EDGE('',*,*,#536,.F.);
#419=ORIENTED_EDGE('',*,*,#568,.T.);
#420=ORIENTED_EDGE('',*,*,#571,.T.);
#421=ORIENTED_EDGE('',*,*,#574,.T.);
#422=ORIENTED_EDGE('',*,*,#576,.F.);
#423=ORIENTED_EDGE('',*,*,#517,.F.);
#424=ORIENTED_EDGE('',*,*,#577,.T.);
#425=ORIENTED_EDGE('',*,*,#578,.T.);
#426=ORIENTED_EDGE('',*,*,#579,.F.);
#427=ORIENTED_EDGE('',*,*,#578,.F.);
#428=ORIENTED_EDGE('',*,*,#580,.T.);
#429=ORIENTED_EDGE('',*,*,#581,.T.);
#430=ORIENTED_EDGE('',*,*,#582,.F.);
#431=ORIENTED_EDGE('',*,*,#581,.F.);
#432=ORIENTED_EDGE('',*,*,#583,.T.);
#433=ORIENTED_EDGE('',*,*,#519,.T.);
#434=ORIENTED_EDGE('',*,*,#577,.F.);
#435=ORIENTED_EDGE('',*,*,#516,.T.);
#436=ORIENTED_EDGE('',*,*,#583,.F.);
#437=ORIENTED_EDGE('',*,*,#580,.F.);
#438=ORIENTED_EDGE('',*,*,#518,.F.);
#439=ORIENTED_EDGE('',*,*,#576,.T.);
#440=ORIENTED_EDGE('',*,*,#579,.T.);
#441=ORIENTED_EDGE('',*,*,#582,.T.);
#442=ORIENTED_EDGE('',*,*,#584,.F.);
#443=ORIENTED_EDGE('',*,*,#539,.F.);
#444=ORIENTED_EDGE('',*,*,#585,.T.);
#445=ORIENTED_EDGE('',*,*,#586,.T.);
#446=ORIENTED_EDGE('',*,*,#587,.F.);
#447=ORIENTED_EDGE('',*,*,#586,.F.);
#448=ORIENTED_EDGE('',*,*,#588,.T.);
#449=ORIENTED_EDGE('',*,*,#589,.T.);
#450=ORIENTED_EDGE('',*,*,#590,.F.);
#451=ORIENTED_EDGE('',*,*,#589,.F.);
#452=ORIENTED_EDGE('',*,*,#591,.T.);
#453=ORIENTED_EDGE('',*,*,#541,.T.);
#454=ORIENTED_EDGE('',*,*,#585,.F.);
#455=ORIENTED_EDGE('',*,*,#538,.T.);
#456=ORIENTED_EDGE('',*,*,#591,.F.);
#457=ORIENTED_EDGE('',*,*,#588,.F.);
#458=ORIENTED_EDGE('',*,*,#540,.F.);
#459=ORIENTED_EDGE('',*,*,#584,.T.);
#460=ORIENTED_EDGE('',*,*,#587,.T.);
#461=ORIENTED_EDGE('',*,*,#590,.T.);
#462=ORIENTED_EDGE('',*,*,#542,.T.);
#463=ORIENTED_EDGE('',*,*,#543,.T.);
#464=VERTEX_POINT('',#815);
#465=VERTEX_POINT('',#816);
#466=VERTEX_POINT('',#818);
#467=VERTEX_POINT('',#820);
#468=VERTEX_POINT('',#823);
#469=VERTEX_POINT('',#824);
#470=VERTEX_POINT('',#826);
#471=VERTEX_POINT('',#828);
#472=VERTEX_POINT('',#831);
#473=VERTEX_POINT('',#832);
#474=VERTEX_POINT('',#834);
#475=VERTEX_POINT('',#836);
#476=VERTEX_POINT('',#839);
#477=VERTEX_POINT('',#841);
#478=VERTEX_POINT('',#843);
#479=VERTEX_POINT('',#844);
#480=VERTEX_POINT('',#846);
#481=VERTEX_POINT('',#848);
#482=VERTEX_POINT('',#851);
#483=VERTEX_POINT('',#852);
#484=VERTEX_POINT('',#854);
#485=VERTEX_POINT('',#856);
#486=VERTEX_POINT('',#859);
#487=VERTEX_POINT('',#860);
#488=VERTEX_POINT('',#862);
#489=VERTEX_POINT('',#864);
#490=VERTEX_POINT('',#924);
#491=VERTEX_POINT('',#983);
#492=VERTEX_POINT('',#988);
#493=VERTEX_POINT('',#990);
#494=VERTEX_POINT('',#994);
#495=VERTEX_POINT('',#996);
#496=VERTEX_POINT('',#1005);
#497=VERTEX_POINT('',#1007);
#498=VERTEX_POINT('',#1011);
#499=VERTEX_POINT('',#1013);
#500=VERTEX_POINT('',#1022);
#501=VERTEX_POINT('',#1024);
#502=VERTEX_POINT('',#1028);
#503=VERTEX_POINT('',#1030);
#504=VERTEX_POINT('',#1039);
#505=VERTEX_POINT('',#1041);
#506=VERTEX_POINT('',#1045);
#507=VERTEX_POINT('',#1047);
#508=VERTEX_POINT('',#1056);
#509=VERTEX_POINT('',#1058);
#510=VERTEX_POINT('',#1062);
#511=VERTEX_POINT('',#1064);
#512=VERTEX_POINT('',#1073);
#513=VERTEX_POINT('',#1075);
#514=VERTEX_POINT('',#1079);
#515=VERTEX_POINT('',#1081);
#516=EDGE_CURVE('',#464,#465,#592,.T.);
#517=EDGE_CURVE('',#464,#466,#192,.T.);
#518=EDGE_CURVE('',#466,#467,#593,.T.);
#519=EDGE_CURVE('',#465,#467,#193,.T.);
#520=EDGE_CURVE('',#468,#469,#594,.T.);
#521=EDGE_CURVE('',#468,#470,#194,.T.);
#522=EDGE_CURVE('',#470,#471,#595,.T.);
#523=EDGE_CURVE('',#469,#471,#195,.T.);
#524=EDGE_CURVE('',#472,#473,#596,.T.);
#525=EDGE_CURVE('',#472,#474,#196,.T.);
#526=EDGE_CURVE('',#474,#475,#597,.T.);
#527=EDGE_CURVE('',#473,#475,#197,.T.);
#528=EDGE_CURVE('',#476,#476,#598,.T.);
#529=EDGE_CURVE('',#477,#477,#599,.T.);
#530=EDGE_CURVE('',#478,#479,#600,.T.);
#531=EDGE_CURVE('',#478,#480,#198,.T.);
#532=EDGE_CURVE('',#480,#481,#601,.T.);
#533=EDGE_CURVE('',#479,#481,#199,.T.);
#534=EDGE_CURVE('',#482,#483,#602,.T.);
#535=EDGE_CURVE('',#482,#484,#200,.T.);
#536=EDGE_CURVE('',#484,#485,#603,.T.);
#537=EDGE_CURVE('',#483,#485,#201,.T.);
#538=EDGE_CURVE('',#486,#487,#604,.T.);
#539=EDGE_CURVE('',#486,#488,#202,.T.);
#540=EDGE_CURVE('',#488,#489,#605,.T.);
#541=EDGE_CURVE('',#487,#489,#203,.T.);
#542=EDGE_CURVE('',#490,#490,#134,.T.);
#543=EDGE_CURVE('',#491,#491,#135,.T.);
#544=EDGE_CURVE('',#474,#492,#204,.T.);
#545=EDGE_CURVE('',#472,#493,#205,.T.);
#546=EDGE_CURVE('',#493,#492,#206,.T.);
#547=EDGE_CURVE('',#492,#494,#207,.T.);
#548=EDGE_CURVE('',#493,#495,#208,.T.);
#549=EDGE_CURVE('',#495,#494,#209,.T.);
#550=EDGE_CURVE('',#494,#475,#210,.T.);
#551=EDGE_CURVE('',#495,#473,#211,.T.);
#552=EDGE_CURVE('',#480,#496,#212,.T.);
#553=EDGE_CURVE('',#478,#497,#213,.T.);
#554=EDGE_CURVE('',#497,#496,#214,.T.);
#555=EDGE_CURVE('',#496,#498,#215,.T.);
#556=EDGE_CURVE('',#497,#499,#216,.T.);
#557=EDGE_CURVE('',#499,#498,#217,.T.);
#558=EDGE_CURVE('',#498,#481,#218,.T.);
#559=EDGE_CURVE('',#499,#479,#219,.T.);
#560=EDGE_CURVE('',#470,#500,#220,.T.);
#561=EDGE_CURVE('',#468,#501,#221,.T.);
#562=EDGE_CURVE('',#501,#500,#222,.T.);
#563=EDGE_CURVE('',#500,#502,#223,.T.);
#564=EDGE_CURVE('',#501,#503,#224,.T.);
#565=EDGE_CURVE('',#503,#502,#225,.T.);
#566=EDGE_CURVE('',#502,#471,#226,.T.);
#567=EDGE_CURVE('',#503,#469,#227,.T.);
#568=EDGE_CURVE('',#484,#504,#228,.T.);
#569=EDGE_CURVE('',#482,#505,#229,.T.);
#570=EDGE_CURVE('',#505,#504,#230,.T.);
#571=EDGE_CURVE('',#504,#506,#231,.T.);
#572=EDGE_CURVE('',#505,#507,#232,.T.);
#573=EDGE_CURVE('',#507,#506,#233,.T.);
#574=EDGE_CURVE('',#506,#485,#234,.T.);
#575=EDGE_CURVE('',#507,#483,#235,.T.);
#576=EDGE_CURVE('',#466,#508,#236,.T.);
#577=EDGE_CURVE('',#464,#509,#237,.T.);
#578=EDGE_CURVE('',#509,#508,#238,.T.);
#579=EDGE_CURVE('',#508,#510,#239,.T.);
#580=EDGE_CURVE('',#509,#511,#240,.T.);
#581=EDGE_CURVE('',#511,#510,#241,.T.);
#582=EDGE_CURVE('',#510,#467,#242,.T.);
#583=EDGE_CURVE('',#511,#465,#243,.T.);
#584=EDGE_CURVE('',#488,#512,#244,.T.);
#585=EDGE_CURVE('',#486,#513,#245,.T.);
#586=EDGE_CURVE('',#513,#512,#246,.T.);
#587=EDGE_CURVE('',#512,#514,#247,.T.);
#588=EDGE_CURVE('',#513,#515,#248,.T.);
#589=EDGE_CURVE('',#515,#514,#249,.T.);
#590=EDGE_CURVE('',#514,#489,#250,.T.);
#591=EDGE_CURVE('',#515,#487,#251,.T.);
#592=CIRCLE('',#607,10.);
#593=CIRCLE('',#608,10.);
#594=CIRCLE('',#609,10.);
#595=CIRCLE('',#610,10.);
#596=CIRCLE('',#611,10.);
#597=CIRCLE('',#612,10.);
#598=CIRCLE('',#613,10.);
#599=CIRCLE('',#614,10.);
#600=CIRCLE('',#615,10.);
#601=CIRCLE('',#616,10.);
#602=CIRCLE('',#617,10.);
#603=CIRCLE('',#618,10.);
#604=CIRCLE('',#619,10.);
#605=CIRCLE('',#620,10.);
#606=AXIS2_PLACEMENT_3D('',#813,#655,#656);
#607=AXIS2_PLACEMENT_3D('',#814,#657,#658);
#608=AXIS2_PLACEMENT_3D('',#819,#660,#661);
#609=AXIS2_PLACEMENT_3D('',#822,#663,#664);
#610=AXIS2_PLACEMENT_3D('',#827,#666,#667);
#611=AXIS2_PLACEMENT_3D('',#830,#669,#670);
#612=AXIS2_PLACEMENT_3D('',#835,#672,#673);
#613=AXIS2_PLACEMENT_3D('',#838,#675,#676);
#614=AXIS2_PLACEMENT_3D('',#840,#677,#678);
#615=AXIS2_PLACEMENT_3D('',#842,#679,#680);
#616=AXIS2_PLACEMENT_3D('',#847,#682,#683);
#617=AXIS2_PLACEMENT_3D('',#850,#685,#686);
#618=AXIS2_PLACEMENT_3D('',#855,#688,#689);
#619=AXIS2_PLACEMENT_3D('',#858,#691,#692);
#620=AXIS2_PLACEMENT_3D('',#863,#694,#695);
#621=AXIS2_PLACEMENT_3D('',#984,#697,#698);
#622=AXIS2_PLACEMENT_3D('',#985,#699,#700);
#623=AXIS2_PLACEMENT_3D('',#986,#701,#702);
#624=AXIS2_PLACEMENT_3D('',#992,#706,#707);
#625=AXIS2_PLACEMENT_3D('',#998,#711,#712);
#626=AXIS2_PLACEMENT_3D('',#1001,#715,#716);
#627=AXIS2_PLACEMENT_3D('',#1002,#717,#718);
#628=AXIS2_PLACEMENT_3D('',#1003,#719,#720);
#629=AXIS2_PLACEMENT_3D('',#1009,#724,#725);
#630=AXIS2_PLACEMENT_3D('',#1015,#729,#730);
#631=AXIS2_PLACEMENT_3D('',#1018,#733,#734);
#632=AXIS2_PLACEMENT_3D('',#1019,#735,#736);
#633=AXIS2_PLACEMENT_3D('',#1020,#737,#738);
#634=AXIS2_PLACEMENT_3D('',#1026,#742,#743);
#635=AXIS2_PLACEMENT_3D('',#1032,#747,#748);
#636=AXIS2_PLACEMENT_3D('',#1035,#751,#752);
#637=AXIS2_PLACEMENT_3D('',#1036,#753,#754);
#638=AXIS2_PLACEMENT_3D('',#1037,#755,#756);
#639=AXIS2_PLACEMENT_3D('',#1043,#760,#761);
#640=AXIS2_PLACEMENT_3D('',#1049,#765,#766);
#641=AXIS2_PLACEMENT_3D('',#1052,#769,#770);
#642=AXIS2_PLACEMENT_3D('',#1053,#771,#772);
#643=AXIS2_PLACEMENT_3D('',#1054,#773,#774);
#644=AXIS2_PLACEMENT_3D('',#1060,#778,#779);
#645=AXIS2_PLACEMENT_3D('',#1066,#783,#784);
#646=AXIS2_PLACEMENT_3D('',#1069,#787,#788);
#647=AXIS2_PLACEMENT_3D('',#1070,#789,#790);
#648=AXIS2_PLACEMENT_3D('',#1071,#791,#792);
#649=AXIS2_PLACEMENT_3D('',#1077,#796,#797);
#650=AXIS2_PLACEMENT_3D('',#1083,#801,#802);
#651=AXIS2_PLACEMENT_3D('',#1086,#805,#806);
#652=AXIS2_PLACEMENT_3D('',#1087,#807,#808);
#653=AXIS2_PLACEMENT_3D('',#1088,#809,#810);
#654=AXIS2_PLACEMENT_3D('',#1089,#811,#812);
#655=DIRECTION('',(0.,0.,1.));
#656=DIRECTION('',(1.,0.,0.));
#657=DIRECTION('',(0.,-1.,0.));
#658=DIRECTION('',(0.,0.,-1.));
#659=DIRECTION('',(0.,-1.,0.));
#660=DIRECTION('',(0.,-1.,0.));
#661=DIRECTION('',(0.,0.,-1.));
#662=DIRECTION('',(0.,-1.,0.));
#663=DIRECTION('',(0.,-1.,0.));
#664=DIRECTION('',(0.,0.,-1.));
#665=DIRECTION('',(0.,-1.,0.));
#666=DIRECTION('',(0.,-1.,0.));
#667=DIRECTION('',(0.,0.,-1.));
#668=DIRECTION('',(0.,-1.,0.));
#669=DIRECTION('',(0.,-1.,0.));
#670=DIRECTION('',(0.,0.,-1.));
#671=DIRECTION('',(0.,-1.,0.));
#672=DIRECTION('',(0.,-1.,0.));
#673=DIRECTION('',(0.,0.,-1.));
#674=DIRECTION('',(0.,-1.,0.));
#675=DIRECTION('',(0.,1.,0.));
#676=DIRECTION('',(1.,0.,6.12323399573677E-17));
#677=DIRECTION('',(0.,1.,0.));
#678=DIRECTION('',(1.,0.,6.12323399573677E-17));
#679=DIRECTION('',(0.,-1.,0.));
#680=DIRECTION('',(0.,0.,-1.));
#681=DIRECTION('',(0.,-1.,0.));
#682=DIRECTION('',(0.,-1.,0.));
#683=DIRECTION('',(0.,0.,-1.));
#684=DIRECTION('',(0.,-1.,0.));
#685=DIRECTION('',(0.,-1.,0.));
#686=DIRECTION('',(0.,0.,-1.));
#687=DIRECTION('',(0.,-1.,0.));
#688=DIRECTION('',(0.,-1.,0.));
#689=DIRECTION('',(0.,0.,-1.));
#690=DIRECTION('',(0.,-1.,0.));
#691=DIRECTION('',(0.,-1.,0.));
#692=DIRECTION('',(0.,0.,-1.));
#693=DIRECTION('',(0.,-1.,0.));
#694=DIRECTION('',(0.,-1.,0.));
#695=DIRECTION('',(0.,0.,-1.));
#696=DIRECTION('',(0.,-1.,0.));
#697=DIRECTION('',(0.,-1.,0.));
#698=DIRECTION('',(0.,0.,-1.));
#699=DIRECTION('',(0.,1.,0.));
#700=DIRECTION('',(0.,0.,1.));
#701=DIRECTION('',(0.,1.,0.));
#702=DIRECTION('',(0.,0.,1.));
#703=DIRECTION('',(1.20789406960835E-16,0.,1.));
#704=DIRECTION('',(1.20789406960835E-16,0.,1.));
#705=DIRECTION('',(0.,-1.,0.));
#706=DIRECTION('',(1.,0.,-1.20789406960835E-16));
#707=DIRECTION('',(-1.20996962449382E-16,0.,-1.));
#708=DIRECTION('',(-1.,0.,0.));
#709=DIRECTION('',(-1.,0.,0.));
#710=DIRECTION('',(0.,-1.,0.));
#711=DIRECTION('',(0.,0.,1.));
#712=DIRECTION('',(1.,0.,0.));
#713=DIRECTION('',(1.20789406960835E-16,0.,-1.));
#714=DIRECTION('',(1.20789406960835E-16,0.,-1.));
#715=DIRECTION('',(-1.,0.,-1.20789406960835E-16));
#716=DIRECTION('',(-1.20996962449382E-16,0.,1.));
#717=DIRECTION('',(0.,-1.,0.));
#718=DIRECTION('',(0.,0.,-1.));
#719=DIRECTION('',(0.,-1.,0.));
#720=DIRECTION('',(0.,0.,-1.));
#721=DIRECTION('',(0.866025403784438,0.,0.500000000000001));
#722=DIRECTION('',(0.866025403784438,0.,0.500000000000001));
#723=DIRECTION('',(0.,-1.,0.));
#724=DIRECTION('',(0.500000000000001,0.,-0.866025403784438));
#725=DIRECTION('',(-0.866025403784438,0.,-0.500000000000001));
#726=DIRECTION('',(-0.500000000000001,0.,0.866025403784438));
#727=DIRECTION('',(-0.500000000000001,0.,0.866025403784438));
#728=DIRECTION('',(0.,-1.,0.));
#729=DIRECTION('',(0.866025403784438,0.,0.500000000000001));
#730=DIRECTION('',(0.500000000000001,0.,-0.866025403784438));
#731=DIRECTION('',(-0.866025403784438,0.,-0.500000000000001));
#732=DIRECTION('',(-0.866025403784438,0.,-0.500000000000001));
#733=DIRECTION('',(-0.500000000000001,0.,0.866025403784438));
#734=DIRECTION('',(0.866025403784438,0.,0.500000000000001));
#735=DIRECTION('',(0.,-1.,0.));
#736=DIRECTION('',(-0.866025403784438,0.,-0.500000000000001));
#737=DIRECTION('',(0.,-1.,0.));
#738=DIRECTION('',(-0.866025403784438,0.,-0.500000000000001));
#739=DIRECTION('',(0.866025403784439,0.,-0.499999999999999));
#740=DIRECTION('',(0.866025403784439,0.,-0.499999999999999));
#741=DIRECTION('',(0.,-1.,0.));
#742=DIRECTION('',(-0.499999999999999,0.,-0.866025403784439));
#743=DIRECTION('',(-0.866025403784439,0.,0.499999999999999));
#744=DIRECTION('',(0.499999999999999,0.,0.866025403784439));
#745=DIRECTION('',(0.499999999999999,0.,0.866025403784439));
#746=DIRECTION('',(0.,-1.,0.));
#747=DIRECTION('',(0.866025403784439,0.,-0.499999999999999));
#748=DIRECTION('',(-0.499999999999999,0.,-0.866025403784439));
#749=DIRECTION('',(-0.86602540378444,0.,0.499999999999999));
#750=DIRECTION('',(-0.86602540378444,0.,0.499999999999999));
#751=DIRECTION('',(0.499999999999999,0.,0.86602540378444));
#752=DIRECTION('',(0.86602540378444,0.,-0.499999999999999));
#753=DIRECTION('',(0.,-1.,0.));
#754=DIRECTION('',(-0.866025403784439,0.,0.499999999999999));
#755=DIRECTION('',(0.,-1.,0.));
#756=DIRECTION('',(-0.866025403784439,0.,0.499999999999999));
#757=DIRECTION('',(2.22212132220421E-15,0.,-1.));
#758=DIRECTION('',(2.22212132220421E-15,0.,-1.));
#759=DIRECTION('',(0.,-1.,0.));
#760=DIRECTION('',(-1.,0.,-2.22212132220421E-15));
#761=DIRECTION('',(-2.22218077272629E-15,0.,1.));
#762=DIRECTION('',(1.,0.,2.34291072916505E-15));
#763=DIRECTION('',(1.,0.,2.34291072916505E-15));
#764=DIRECTION('',(0.,-1.,0.));
#765=DIRECTION('',(2.34291072916505E-15,0.,-1.));
#766=DIRECTION('',(-1.,0.,-2.34534613952064E-15));
#767=DIRECTION('',(-2.46370013612588E-15,0.,1.));
#768=DIRECTION('',(-2.46370013612588E-15,0.,1.));
#769=DIRECTION('',(1.,0.,2.46370013612588E-15));
#770=DIRECTION('',(2.46374101675606E-15,0.,-1.));
#771=DIRECTION('',(0.,-1.,0.));
#772=DIRECTION('',(-2.34291072916505E-15,0.,1.));
#773=DIRECTION('',(0.,-1.,0.));
#774=DIRECTION('',(-2.34291072916505E-15,0.,1.));
#775=DIRECTION('',(-0.866025403784437,0.,-0.500000000000003));
#776=DIRECTION('',(-0.866025403784437,0.,-0.500000000000003));
#777=DIRECTION('',(0.,-1.,0.));
#778=DIRECTION('',(-0.500000000000003,0.,0.866025403784437));
#779=DIRECTION('',(0.866025403784437,0.,0.500000000000003));
#780=DIRECTION('',(0.500000000000003,0.,-0.866025403784437));
#781=DIRECTION('',(0.500000000000003,0.,-0.866025403784437));
#782=DIRECTION('',(0.,-1.,0.));
#783=DIRECTION('',(-0.866025403784437,0.,-0.500000000000003));
#784=DIRECTION('',(-0.500000000000003,0.,0.866025403784437));
#785=DIRECTION('',(0.866025403784437,0.,0.500000000000003));
#786=DIRECTION('',(0.866025403784437,0.,0.500000000000003));
#787=DIRECTION('',(0.500000000000003,0.,-0.866025403784437));
#788=DIRECTION('',(-0.866025403784437,0.,-0.500000000000003));
#789=DIRECTION('',(0.,-1.,0.));
#790=DIRECTION('',(0.866025403784437,0.,0.500000000000003));
#791=DIRECTION('',(0.,-1.,0.));
#792=DIRECTION('',(0.866025403784437,0.,0.500000000000003));
#793=DIRECTION('',(-0.866025403784441,0.,0.499999999999996));
#794=DIRECTION('',(-0.866025403784441,0.,0.499999999999996));
#795=DIRECTION('',(0.,-1.,0.));
#796=DIRECTION('',(0.499999999999996,0.,0.866025403784441));
#797=DIRECTION('',(0.866025403784441,0.,-0.499999999999996));
#798=DIRECTION('',(-0.499999999999996,0.,-0.866025403784441));
#799=DIRECTION('',(-0.499999999999996,0.,-0.866025403784441));
#800=DIRECTION('',(0.,-1.,0.));
#801=DIRECTION('',(-0.866025403784441,0.,0.499999999999996));
#802=DIRECTION('',(0.499999999999996,0.,0.866025403784441));
#803=DIRECTION('',(0.866025403784441,0.,-0.499999999999996));
#804=DIRECTION('',(0.866025403784441,0.,-0.499999999999996));
#805=DIRECTION('',(-0.499999999999996,0.,-0.866025403784441));
#806=DIRECTION('',(-0.866025403784441,0.,0.499999999999996));
#807=DIRECTION('',(0.,-1.,0.));
#808=DIRECTION('',(0.866025403784441,0.,-0.499999999999996));
#809=DIRECTION('',(0.,-1.,0.));
#810=DIRECTION('',(0.866025403784441,0.,-0.499999999999996));
#811=DIRECTION('',(-1.,0.,0.));
#812=DIRECTION('',(0.,0.,1.));
#813=CARTESIAN_POINT('',(0.,0.,0.));
#814=CARTESIAN_POINT('',(0.,120.,0.));
#815=CARTESIAN_POINT('',(-9.6352549156242,120.,-2.67616567329821));
#816=CARTESIAN_POINT('',(-7.1352549156242,120.,-7.00629269222039));
#817=CARTESIAN_POINT('',(-9.6352549156242,120.,-2.67616567329821));
#818=CARTESIAN_POINT('',(-9.6352549156242,0.,-2.67616567329821));
#819=CARTESIAN_POINT('',(0.,0.,0.));
#820=CARTESIAN_POINT('',(-7.13525491562419,0.,-7.00629269222039));
#821=CARTESIAN_POINT('',(-7.1352549156242,120.,-7.00629269222039));
#822=CARTESIAN_POINT('',(0.,120.,0.));
#823=CARTESIAN_POINT('',(7.13525491562423,120.,-7.00629269222035));
#824=CARTESIAN_POINT('',(9.63525491562422,120.,-2.67616567329817));
#825=CARTESIAN_POINT('',(7.13525491562423,120.,-7.00629269222035));
#826=CARTESIAN_POINT('',(7.13525491562423,0.,-7.00629269222035));
#827=CARTESIAN_POINT('',(0.,0.,0.));
#828=CARTESIAN_POINT('',(9.63525491562421,0.,-2.67616567329819));
#829=CARTESIAN_POINT('',(9.63525491562422,120.,-2.67616567329817));
#830=CARTESIAN_POINT('',(0.,120.,0.));
#831=CARTESIAN_POINT('',(2.49999999999999,120.,9.68245836551855));
#832=CARTESIAN_POINT('',(-2.49999999999999,120.,9.68245836551855));
#833=CARTESIAN_POINT('',(2.49999999999999,120.,9.68245836551855));
#834=CARTESIAN_POINT('',(2.49999999999999,0.,9.68245836551855));
#835=CARTESIAN_POINT('',(0.,0.,0.));
#836=CARTESIAN_POINT('',(-2.49999999999999,0.,9.68245836551855));
#837=CARTESIAN_POINT('',(-2.49999999999999,120.,9.68245836551855));
#838=CARTESIAN_POINT('',(0.,175.,0.));
#839=CARTESIAN_POINT('',(10.,175.,6.12323399573677E-16));
#840=CARTESIAN_POINT('',(0.,-5.,0.));
#841=CARTESIAN_POINT('',(10.,-5.,6.12323399573677E-16));
#842=CARTESIAN_POINT('',(0.,120.,0.));
#843=CARTESIAN_POINT('',(9.63525491562421,120.,2.67616567329819));
#844=CARTESIAN_POINT('',(7.13525491562422,120.,7.00629269222037));
#845=CARTESIAN_POINT('',(9.63525491562421,120.,2.67616567329819));
#846=CARTESIAN_POINT('',(9.63525491562421,0.,2.67616567329819));
#847=CARTESIAN_POINT('',(0.,0.,0.));
#848=CARTESIAN_POINT('',(7.13525491562422,0.,7.00629269222036));
#849=CARTESIAN_POINT('',(7.13525491562422,120.,7.00629269222037));
#850=CARTESIAN_POINT('',(0.,120.,0.));
#851=CARTESIAN_POINT('',(-2.49999999999997,120.,-9.68245836551855));
#852=CARTESIAN_POINT('',(2.50000000000001,120.,-9.68245836551855));
#853=CARTESIAN_POINT('',(-2.49999999999997,120.,-9.68245836551855));
#854=CARTESIAN_POINT('',(-2.49999999999997,0.,-9.68245836551855));
#855=CARTESIAN_POINT('',(0.,0.,0.));
#856=CARTESIAN_POINT('',(2.50000000000001,0.,-9.68245836551854));
#857=CARTESIAN_POINT('',(2.50000000000001,120.,-9.68245836551855));
#858=CARTESIAN_POINT('',(0.,120.,0.));
#859=CARTESIAN_POINT('',(-7.13525491562425,120.,7.00629269222033));
#860=CARTESIAN_POINT('',(-9.63525491562423,120.,2.67616567329814));
#861=CARTESIAN_POINT('',(-7.13525491562425,120.,7.00629269222033));
#862=CARTESIAN_POINT('',(-7.13525491562425,0.,7.00629269222033));
#863=CARTESIAN_POINT('',(0.,0.,0.));
#864=CARTESIAN_POINT('',(-9.63525491562422,0.,2.67616567329815));
#865=CARTESIAN_POINT('',(-9.63525491562423,120.,2.67616567329814));
#866=CARTESIAN_POINT('',(-9.79795897113271,162.5,2.));
#867=CARTESIAN_POINT('',(-9.79795897113271,162.721341955564,2.));
#868=CARTESIAN_POINT('',(-9.80588048846098,162.945726198576,1.96217401561562));
#869=CARTESIAN_POINT('',(-9.81979270029921,163.154468239756,1.88988659002344));
#870=CARTESIAN_POINT('',(-9.83369810214541,163.363108102242,1.8176345489407));
#871=CARTESIAN_POINT('',(-9.85383239187527,163.561854110666,1.70907609706515));
#872=CARTESIAN_POINT('',(-9.8754899993473,163.735031468105,1.57311705629028));
#873=CARTESIAN_POINT('',(-9.89742180881892,163.910401384336,1.43543666929143));
#874=CARTESIAN_POINT('',(-9.92135465766686,164.064392171427,1.26588049919709));
#875=CARTESIAN_POINT('',(-9.94173102827426,164.184641160174,1.0779536916996));
#876=CARTESIAN_POINT('',(-9.96228141136528,164.305917065125,0.888422005141944));
#877=CARTESIAN_POINT('',(-9.97963086536575,164.396198625918,0.674820685016902));
#878=CARTESIAN_POINT('',(-9.98964274411475,164.447552863222,0.455014115116763));
#879=CARTESIAN_POINT('',(-9.99952171482099,164.498225371218,0.238125485168377));
#880=CARTESIAN_POINT('',(-10.0024527904799,164.512361945609,0.00912027026272856));
#881=CARTESIAN_POINT('',(-9.9977415841544,164.488677144116,-0.212516391061491));
#882=CARTESIAN_POINT('',(-9.99309688139244,164.465326678161,-0.431024421041287));
#883=CARTESIAN_POINT('',(-9.98094966794857,164.404647714235,-0.648340130496185));
#884=CARTESIAN_POINT('',(-9.96407552985597,164.311850204811,-0.846875926759867));
#885=CARTESIAN_POINT('',(-9.94709242012763,164.218453417585,-1.04669384898194));
#886=CARTESIAN_POINT('',(-9.92498684141419,164.090065053069,-1.23293885675322));
#887=CARTESIAN_POINT('',(-9.90277219672972,163.936975010334,-1.39107973160304));
#888=CARTESIAN_POINT('',(-9.88017136970626,163.781223629926,-1.55196974846293));
#889=CARTESIAN_POINT('',(-9.85699572830847,163.595571691504,-1.68820749796481));
#890=CARTESIAN_POINT('',(-9.8387474408185,163.394958772354,-1.7885884925794));
#891=CARTESIAN_POINT('',(-9.82046376321772,163.193956791301,-1.88916416269568));
#892=CARTESIAN_POINT('',(-9.80678265888681,162.972216656202,-1.95648429885614));
#893=CARTESIAN_POINT('',(-9.80111056862534,162.748532449429,-1.98449782604584));
#894=CARTESIAN_POINT('',(-9.79553571776294,162.528682969687,-2.01203110372893));
#895=CARTESIAN_POINT('',(-9.79759279349659,162.300852522955,-2.00234335393575));
#896=CARTESIAN_POINT('',(-9.80677589867615,162.084243428368,-1.95630940117982));
#897=CARTESIAN_POINT('',(-9.81587257767773,161.869672935734,-1.9107086938802));
#898=CARTESIAN_POINT('',(-9.83210670648812,161.660272952265,-1.82829930401371));
#899=CARTESIAN_POINT('',(-9.85167225348254,161.47265089184,-1.71597022408964));
#900=CARTESIAN_POINT('',(-9.87149493590189,161.282563054288,-1.60216488665499));
#901=CARTESIAN_POINT('',(-9.89512012301898,161.109624517411,-1.45459649952352));
#902=CARTESIAN_POINT('',(-9.91709785134491,160.967410755241,-1.28497867953141));
#903=CARTESIAN_POINT('',(-9.93941017985905,160.823031857945,-1.11277851100661));
#904=CARTESIAN_POINT('',(-9.96048065340359,160.706341735139,-0.912998110637533));
#905=CARTESIAN_POINT('',(-9.9753293198456,160.627249338708,-0.702000684208202));
#906=CARTESIAN_POINT('',(-9.99008997996154,160.548625713749,-0.492253815085192));
#907=CARTESIAN_POINT('',(-9.99899431090479,160.505029420207,-0.265489806487132));
#908=CARTESIAN_POINT('',(-9.99991572614746,160.500421411884,-0.0410544753806342));
#909=CARTESIAN_POINT('',(-10.0008211536086,160.495893358643,0.179486603835298));
#910=CARTESIAN_POINT('',(-9.99404838174364,160.528858356273,0.40384943287318));
#911=CARTESIAN_POINT('',(-9.98116635467892,160.59640293135,0.613447797473783));
#912=CARTESIAN_POINT('',(-9.96831148081388,160.663805133543,0.822604363107868));
#913=CARTESIAN_POINT('',(-9.94913088895736,160.767375628313,1.02275084194623));
#914=CARTESIAN_POINT('',(-9.92795837077099,160.89863888777,1.19818303620037));
#915=CARTESIAN_POINT('',(-9.90644182553587,161.032035011696,1.37646578509864));
#916=CARTESIAN_POINT('',(-9.88242839812516,161.197668700365,1.53412425867269));
#917=CARTESIAN_POINT('',(-9.86149586134528,161.382368297099,1.65858354527891));
#918=CARTESIAN_POINT('',(-9.84034847099854,161.568963668223,1.78432029394993));
#919=CARTESIAN_POINT('',(-9.82193041538859,161.780317129445,1.87962941450323));
#920=CARTESIAN_POINT('',(-9.81076777353766,161.998837046176,1.93619102717549));
#921=CARTESIAN_POINT('',(-9.8024472066467,162.161720493344,1.97835171708968));
#922=CARTESIAN_POINT('',(-9.79795897113273,162.331542964028,2.));
#923=CARTESIAN_POINT('',(-9.79795897113271,162.5,2.));
#924=CARTESIAN_POINT('',(-9.79795897113271,162.5,2.));
#925=CARTESIAN_POINT('',(9.79795897113271,162.5,2.));
#926=CARTESIAN_POINT('',(9.79795897113271,162.278658044436,2.));
#927=CARTESIAN_POINT('',(9.80588048846098,162.054273801423,1.96217401561562));
#928=CARTESIAN_POINT('',(9.81979270029921,161.845531760244,1.88988659002344));
#929=CARTESIAN_POINT('',(9.83369810214541,161.636891897758,1.8176345489407));
#930=CARTESIAN_POINT('',(9.85383239187527,161.438145889334,1.70907609706515));
#931=CARTESIAN_POINT('',(9.8754899993473,161.264968531895,1.57311705629028));
#932=CARTESIAN_POINT('',(9.89742180881892,161.089598615664,1.43543666929143));
#933=CARTESIAN_POINT('',(9.92135465766686,160.935607828573,1.26588049919709));
#934=CARTESIAN_POINT('',(9.94173102827426,160.815358839826,1.0779536916996));
#935=CARTESIAN_POINT('',(9.96228141136528,160.694082934875,0.888422005141944));
#936=CARTESIAN_POINT('',(9.97963086536575,160.603801374082,0.674820685016903));
#937=CARTESIAN_POINT('',(9.98964274411475,160.552447136778,0.455014115116763));
#938=CARTESIAN_POINT('',(9.99952171482099,160.501774628782,0.238125485168378));
#939=CARTESIAN_POINT('',(10.0024527904799,160.487638054391,0.00912027026272918));
#940=CARTESIAN_POINT('',(9.9977415841544,160.511322855884,-0.21251639106149));
#941=CARTESIAN_POINT('',(9.99309688139244,160.534673321839,-0.431024421041286));
#942=CARTESIAN_POINT('',(9.98094966794857,160.595352285765,-0.648340130496185));
#943=CARTESIAN_POINT('',(9.96407552985597,160.688149795189,-0.846875926759867));
#944=CARTESIAN_POINT('',(9.94709242012763,160.781546582415,-1.04669384898194));
#945=CARTESIAN_POINT('',(9.92498684141419,160.909934946931,-1.23293885675322));
#946=CARTESIAN_POINT('',(9.90277219672972,161.063024989666,-1.39107973160304));
#947=CARTESIAN_POINT('',(9.88017136970626,161.218776370074,-1.55196974846293));
#948=CARTESIAN_POINT('',(9.85699572830847,161.404428308496,-1.68820749796481));
#949=CARTESIAN_POINT('',(9.8387474408185,161.605041227646,-1.7885884925794));
#950=CARTESIAN_POINT('',(9.82046376321772,161.806043208699,-1.88916416269568));
#951=CARTESIAN_POINT('',(9.80678265888681,162.027783343798,-1.95648429885614));
#952=CARTESIAN_POINT('',(9.80111056862534,162.251467550571,-1.98449782604584));
#953=CARTESIAN_POINT('',(9.79553571776294,162.471317030313,-2.01203110372893));
#954=CARTESIAN_POINT('',(9.79759279349659,162.699147477045,-2.00234335393575));
#955=CARTESIAN_POINT('',(9.80677589867615,162.915756571632,-1.95630940117982));
#956=CARTESIAN_POINT('',(9.81587257767773,163.130327064266,-1.9107086938802));
#957=CARTESIAN_POINT('',(9.83210670648812,163.339727047735,-1.82829930401371));
#958=CARTESIAN_POINT('',(9.85167225348254,163.52734910816,-1.71597022408964));
#959=CARTESIAN_POINT('',(9.87149493590189,163.717436945711,-1.60216488665499));
#960=CARTESIAN_POINT('',(9.89512012301898,163.890375482589,-1.45459649952352));
#961=CARTESIAN_POINT('',(9.91709785134491,164.032589244759,-1.28497867953141));
#962=CARTESIAN_POINT('',(9.93941017985905,164.176968142055,-1.11277851100661));
#963=CARTESIAN_POINT('',(9.96048065340359,164.293658264861,-0.912998110637533));
#964=CARTESIAN_POINT('',(9.9753293198456,164.372750661292,-0.702000684208202));
#965=CARTESIAN_POINT('',(9.99008997996154,164.451374286251,-0.492253815085192));
#966=CARTESIAN_POINT('',(9.99899431090479,164.494970579793,-0.265489806487132));
#967=CARTESIAN_POINT('',(9.99991572614746,164.499578588116,-0.0410544753806343));
#968=CARTESIAN_POINT('',(10.0008211536086,164.504106641357,0.179486603835298));
#969=CARTESIAN_POINT('',(9.99404838174364,164.471141643727,0.40384943287318));
#970=CARTESIAN_POINT('',(9.98116635467892,164.40359706865,0.613447797473783));
#971=CARTESIAN_POINT('',(9.96831148081388,164.336194866457,0.822604363107868));
#972=CARTESIAN_POINT('',(9.94913088895736,164.232624371687,1.02275084194622));
#973=CARTESIAN_POINT('',(9.92795837077099,164.10136111223,1.19818303620037));
#974=CARTESIAN_POINT('',(9.90644182553587,163.967964988304,1.37646578509864));
#975=CARTESIAN_POINT('',(9.88242839812516,163.802331299635,1.53412425867269));
#976=CARTESIAN_POINT('',(9.86149586134528,163.617631702901,1.65858354527891));
#977=CARTESIAN_POINT('',(9.84034847099854,163.431036331777,1.78432029394993));
#978=CARTESIAN_POINT('',(9.82193041538859,163.219682870555,1.87962941450323));
#979=CARTESIAN_POINT('',(9.81076777353766,163.001162953823,1.93619102717549));
#980=CARTESIAN_POINT('',(9.8024472066467,162.838279506656,1.97835171708968));
#981=CARTESIAN_POINT('',(9.7979589711327,162.668457035972,2.));
#982=CARTESIAN_POINT('',(9.79795897113271,162.5,2.));
#983=CARTESIAN_POINT('',(9.79795897113271,162.5,2.));
#984=CARTESIAN_POINT('',(0.,175.,0.));
#985=CARTESIAN_POINT('',(0.,175.,0.));
#986=CARTESIAN_POINT('',(0.,-5.,0.));
#987=CARTESIAN_POINT('',(2.49999999999999,0.,9.68245836551855));
#988=CARTESIAN_POINT('',(2.5,0.,59.947894041409));
#989=CARTESIAN_POINT('',(2.49999999999999,120.,9.68245836551855));
#990=CARTESIAN_POINT('',(2.5,120.,59.947894041409));
#991=CARTESIAN_POINT('',(2.5,120.,59.947894041409));
#992=CARTESIAN_POINT('',(2.49999999999999,120.,9.68245836551855));
#993=CARTESIAN_POINT('',(2.5,0.,59.947894041409));
#994=CARTESIAN_POINT('',(-2.5,0.,59.947894041409));
#995=CARTESIAN_POINT('',(2.5,120.,59.947894041409));
#996=CARTESIAN_POINT('',(-2.5,120.,59.947894041409));
#997=CARTESIAN_POINT('',(-2.5,120.,59.947894041409));
#998=CARTESIAN_POINT('',(2.5,120.,59.947894041409));
#999=CARTESIAN_POINT('',(-2.5,0.,59.947894041409));
#1000=CARTESIAN_POINT('',(-2.5,120.,59.947894041409));
#1001=CARTESIAN_POINT('',(-2.5,120.,59.947894041409));
#1002=CARTESIAN_POINT('',(0.,120.,0.));
#1003=CARTESIAN_POINT('',(0.,0.,0.));
#1004=CARTESIAN_POINT('',(9.63525491562421,0.,2.67616567329819));
#1005=CARTESIAN_POINT('',(53.1663991432379,0.,27.8088835112434));
#1006=CARTESIAN_POINT('',(9.63525491562421,120.,2.67616567329819));
#1007=CARTESIAN_POINT('',(53.1663991432379,120.,27.8088835112434));
#1008=CARTESIAN_POINT('',(53.1663991432379,120.,27.8088835112434));
#1009=CARTESIAN_POINT('',(9.63525491562421,120.,2.67616567329819));
#1010=CARTESIAN_POINT('',(53.1663991432379,0.,27.8088835112434));
#1011=CARTESIAN_POINT('',(50.6663991432379,0.,32.1390105301656));
#1012=CARTESIAN_POINT('',(53.1663991432379,120.,27.8088835112434));
#1013=CARTESIAN_POINT('',(50.6663991432379,120.,32.1390105301656));
#1014=CARTESIAN_POINT('',(50.6663991432379,120.,32.1390105301656));
#1015=CARTESIAN_POINT('',(53.1663991432379,120.,27.8088835112434));
#1016=CARTESIAN_POINT('',(50.6663991432379,0.,32.1390105301656));
#1017=CARTESIAN_POINT('',(50.6663991432379,120.,32.1390105301656));
#1018=CARTESIAN_POINT('',(50.6663991432379,120.,32.1390105301656));
#1019=CARTESIAN_POINT('',(0.,120.,0.));
#1020=CARTESIAN_POINT('',(0.,0.,0.));
#1021=CARTESIAN_POINT('',(7.13525491562423,0.,-7.00629269222035));
#1022=CARTESIAN_POINT('',(50.666399143238,0.,-32.1390105301655));
#1023=CARTESIAN_POINT('',(7.13525491562423,120.,-7.00629269222035));
#1024=CARTESIAN_POINT('',(50.666399143238,120.,-32.1390105301655));
#1025=CARTESIAN_POINT('',(50.666399143238,120.,-32.1390105301655));
#1026=CARTESIAN_POINT('',(7.13525491562423,120.,-7.00629269222035));
#1027=CARTESIAN_POINT('',(50.666399143238,0.,-32.1390105301655));
#1028=CARTESIAN_POINT('',(53.166399143238,0.,-27.8088835112433));
#1029=CARTESIAN_POINT('',(50.666399143238,120.,-32.1390105301655));
#1030=CARTESIAN_POINT('',(53.166399143238,120.,-27.8088835112433));
#1031=CARTESIAN_POINT('',(53.166399143238,120.,-27.8088835112433));
#1032=CARTESIAN_POINT('',(50.666399143238,120.,-32.1390105301655));
#1033=CARTESIAN_POINT('',(53.166399143238,0.,-27.8088835112433));
#1034=CARTESIAN_POINT('',(53.166399143238,120.,-27.8088835112433));
#1035=CARTESIAN_POINT('',(53.166399143238,120.,-27.8088835112433));
#1036=CARTESIAN_POINT('',(0.,120.,0.));
#1037=CARTESIAN_POINT('',(0.,0.,0.));
#1038=CARTESIAN_POINT('',(-2.49999999999997,0.,-9.68245836551855));
#1039=CARTESIAN_POINT('',(-2.49999999999986,0.,-59.947894041409));
#1040=CARTESIAN_POINT('',(-2.49999999999997,120.,-9.68245836551855));
#1041=CARTESIAN_POINT('',(-2.49999999999986,120.,-59.947894041409));
#1042=CARTESIAN_POINT('',(-2.49999999999986,120.,-59.947894041409));
#1043=CARTESIAN_POINT('',(-2.49999999999997,120.,-9.68245836551855));
#1044=CARTESIAN_POINT('',(-2.49999999999986,0.,-59.947894041409));
#1045=CARTESIAN_POINT('',(2.50000000000014,0.,-59.947894041409));
#1046=CARTESIAN_POINT('',(-2.49999999999986,120.,-59.947894041409));
#1047=CARTESIAN_POINT('',(2.50000000000014,120.,-59.947894041409));
#1048=CARTESIAN_POINT('',(2.50000000000014,120.,-59.947894041409));
#1049=CARTESIAN_POINT('',(-2.49999999999986,120.,-59.947894041409));
#1050=CARTESIAN_POINT('',(2.50000000000014,0.,-59.947894041409));
#1051=CARTESIAN_POINT('',(2.50000000000014,120.,-59.947894041409));
#1052=CARTESIAN_POINT('',(2.50000000000014,120.,-59.947894041409));
#1053=CARTESIAN_POINT('',(0.,120.,0.));
#1054=CARTESIAN_POINT('',(0.,0.,0.));
#1055=CARTESIAN_POINT('',(-9.6352549156242,0.,-2.67616567329821));
#1056=CARTESIAN_POINT('',(-53.1663991432379,0.,-27.8088835112436));
#1057=CARTESIAN_POINT('',(-9.6352549156242,120.,-2.67616567329821));
#1058=CARTESIAN_POINT('',(-53.1663991432379,120.,-27.8088835112436));
#1059=CARTESIAN_POINT('',(-53.1663991432379,120.,-27.8088835112436));
#1060=CARTESIAN_POINT('',(-9.6352549156242,120.,-2.67616567329821));
#1061=CARTESIAN_POINT('',(-53.1663991432379,0.,-27.8088835112436));
#1062=CARTESIAN_POINT('',(-50.6663991432379,0.,-32.1390105301657));
#1063=CARTESIAN_POINT('',(-53.1663991432379,120.,-27.8088835112436));
#1064=CARTESIAN_POINT('',(-50.6663991432379,120.,-32.1390105301657));
#1065=CARTESIAN_POINT('',(-50.6663991432379,120.,-32.1390105301657));
#1066=CARTESIAN_POINT('',(-53.1663991432379,120.,-27.8088835112436));
#1067=CARTESIAN_POINT('',(-50.6663991432379,0.,-32.1390105301657));
#1068=CARTESIAN_POINT('',(-50.6663991432379,120.,-32.1390105301657));
#1069=CARTESIAN_POINT('',(-50.6663991432379,120.,-32.1390105301657));
#1070=CARTESIAN_POINT('',(0.,120.,0.));
#1071=CARTESIAN_POINT('',(0.,0.,0.));
#1072=CARTESIAN_POINT('',(-7.13525491562425,0.,7.00629269222033));
#1073=CARTESIAN_POINT('',(-50.6663991432381,0.,32.1390105301654));
#1074=CARTESIAN_POINT('',(-7.13525491562425,120.,7.00629269222033));
#1075=CARTESIAN_POINT('',(-50.6663991432381,120.,32.1390105301654));
#1076=CARTESIAN_POINT('',(-50.6663991432381,120.,32.1390105301654));
#1077=CARTESIAN_POINT('',(-7.13525491562425,120.,7.00629269222033));
#1078=CARTESIAN_POINT('',(-50.6663991432381,0.,32.1390105301654));
#1079=CARTESIAN_POINT('',(-53.1663991432381,0.,27.8088835112432));
#1080=CARTESIAN_POINT('',(-50.6663991432381,120.,32.1390105301654));
#1081=CARTESIAN_POINT('',(-53.1663991432381,120.,27.8088835112432));
#1082=CARTESIAN_POINT('',(-53.1663991432381,120.,27.8088835112432));
#1083=CARTESIAN_POINT('',(-50.6663991432381,120.,32.1390105301654));
#1084=CARTESIAN_POINT('',(-53.1663991432381,0.,27.8088835112432));
#1085=CARTESIAN_POINT('',(-53.1663991432381,120.,27.8088835112432));
#1086=CARTESIAN_POINT('',(-53.1663991432381,120.,27.8088835112432));
#1087=CARTESIAN_POINT('',(0.,120.,0.));
#1088=CARTESIAN_POINT('',(0.,0.,0.));
#1089=CARTESIAN_POINT('',(58.4830390575618,162.5,0.));
#1090=MECHANICAL_DESIGN_GEOMETRIC_PRESENTATION_REPRESENTATION('',(#24),
#1091);
#1091=(
GEOMETRIC_REPRESENTATION_CONTEXT(3)
GLOBAL_UNCERTAINTY_ASSIGNED_CONTEXT((#1092))
GLOBAL_UNIT_ASSIGNED_CONTEXT((#1098,#1094,#1093))
REPRESENTATION_CONTEXT('S_AC_M_05_feeder_drum',
'TOP_LEVEL_ASSEMBLY_PART')
);
#1092=UNCERTAINTY_MEASURE_WITH_UNIT(LENGTH_MEASURE(0.0508),#1098,
'DISTANCE_ACCURACY_VALUE','Maximum Tolerance applied to model');
#1093=(
NAMED_UNIT(*)
SI_UNIT($,.STERADIAN.)
SOLID_ANGLE_UNIT()
);
#1094=(
CONVERSION_BASED_UNIT('DEGREE',#1096)
NAMED_UNIT(#1095)
PLANE_ANGLE_UNIT()
);
#1095=DIMENSIONAL_EXPONENTS(0.,0.,0.,0.,0.,0.,0.);
#1096=PLANE_ANGLE_MEASURE_WITH_UNIT(PLANE_ANGLE_MEASURE(0.0174532925),#1097);
#1097=(
NAMED_UNIT(*)
PLANE_ANGLE_UNIT()
SI_UNIT($,.RADIAN.)
);
#1098=(
LENGTH_UNIT()
NAMED_UNIT(*)
SI_UNIT(.MILLI.,.METRE.)
);
ENDSEC;
END-ISO-10303-21;
