ISO-10303-21;
HEADER;
/* Generated by software containing ST-Developer
 * from STEP Tools, Inc. (www.steptools.com) 
 */
/* OPTION: using custom schema-name function */

FILE_DESCRIPTION(
/* description */ (''),
/* implementation_level */ '2;1');

FILE_NAME(
/* name */ 'S_AC_M_01_frame.stp',
/* time_stamp */ '2025-12-15T16:48:18+01:00',
/* author */ (''),
/* organization */ (''),
/* preprocessor_version */ 'ST-DEVELOPER v18.1',
/* originating_system */ 'SIEMENS PLM Software NX 1988',
/* authorisation */ '');

FILE_SCHEMA (('AUTOMOTIVE_DESIGN { 1 0 10303 214 3 1 1 1 }'));
ENDSEC;

DATA;
#10=SHAPE_REPRESENTATION_RELATIONSHIP('None',
'relationship between S_AC_M_01_frame-None and S_AC_M_01_frame-None',#22,
#11);
#11=ADVANCED_BREP_SHAPE_REPRESENTATION('S_AC_M_01_frame-None',(#32),#1811);
#12=SHAPE_DEFINITION_REPRESENTATION(#13,#22);
#13=PRODUCT_DEFINITION_SHAPE('','',#14);
#14=PRODUCT_DEFINITION(' ','',#16,#15);
#15=PRODUCT_DEFINITION_CONTEXT('part definition',#21,'design');
#16=PRODUCT_DEFINITION_FORMATION_WITH_SPECIFIED_SOURCE(' ',' ',#18,
 .NOT_KNOWN.);
#17=PRODUCT_RELATED_PRODUCT_CATEGORY('part','',(#18));
#18=PRODUCT('S_AC_M_01_frame','S_AC_M_01_frame',' ',(#19));
#19=PRODUCT_CONTEXT(' ',#21,'mechanical');
#20=APPLICATION_PROTOCOL_DEFINITION('international standard',
'automotive_design',2010,#21);
#21=APPLICATION_CONTEXT(
'core data for automotive mechanical design processes');
#22=SHAPE_REPRESENTATION('S_AC_M_01_frame-None',(#1166),#1811);
#23=PRESENTATION_LAYER_ASSIGNMENT('1','Layer 1',(#32));
#24=STYLED_ITEM('',(#25),#32);
#25=PRESENTATION_STYLE_ASSIGNMENT((#26));
#26=SURFACE_STYLE_USAGE(.BOTH.,#27);
#27=SURFACE_SIDE_STYLE('',(#28));
#28=SURFACE_STYLE_FILL_AREA(#29);
#29=FILL_AREA_STYLE('',(#30));
#30=FILL_AREA_STYLE_COLOUR('',#31);
#31=COLOUR_RGB('medium steel',0.596078431372549,0.666666666666667,0.686274509803922);
#32=MANIFOLD_SOLID_BREP('',#33);
#33=CLOSED_SHELL('',(#60,#61,#62,#63,#64,#65,#66,#67,#68,#69,#70,#71,#72,
#73,#74,#75,#76,#77,#78,#79,#80,#81,#82,#83,#84,#85,#86,#87,#88,#89,#90,
#91,#92,#93,#94,#95,#96,#97,#98,#99,#100,#101,#102,#103,#104,#105,#106,
#107,#108,#109,#110,#111));
#34=CYLINDRICAL_SURFACE('',#1213,2.);
#35=CYLINDRICAL_SURFACE('',#1214,2.);
#36=CIRCLE('',#1204,2.);
#37=CIRCLE('',#1205,2.);
#38=CIRCLE('',#1210,2.);
#39=CIRCLE('',#1211,2.);
#40=FACE_BOUND('',#210,.T.);
#41=FACE_BOUND('',#211,.T.);
#42=FACE_BOUND('',#212,.T.);
#43=FACE_BOUND('',#219,.T.);
#44=FACE_BOUND('',#220,.T.);
#45=FACE_BOUND('',#221,.T.);
#46=FACE_BOUND('',#224,.T.);
#47=FACE_BOUND('',#225,.T.);
#48=FACE_BOUND('',#226,.T.);
#49=FACE_BOUND('',#227,.T.);
#50=FACE_BOUND('',#249,.T.);
#51=FACE_BOUND('',#250,.T.);
#52=FACE_BOUND('',#251,.T.);
#53=FACE_BOUND('',#255,.T.);
#54=FACE_BOUND('',#256,.T.);
#55=FACE_BOUND('',#257,.T.);
#56=FACE_BOUND('',#258,.T.);
#57=FACE_BOUND('',#259,.T.);
#58=FACE_BOUND('',#260,.T.);
#59=FACE_BOUND('',#261,.T.);
#60=ADVANCED_FACE('',(#162),#112,.T.);
#61=ADVANCED_FACE('',(#163),#113,.T.);
#62=ADVANCED_FACE('',(#164),#114,.T.);
#63=ADVANCED_FACE('',(#165),#115,.T.);
#64=ADVANCED_FACE('',(#40,#41,#42),#116,.T.);
#65=ADVANCED_FACE('',(#166),#117,.T.);
#66=ADVANCED_FACE('',(#167),#118,.T.);
#67=ADVANCED_FACE('',(#168),#119,.F.);
#68=ADVANCED_FACE('',(#169),#120,.F.);
#69=ADVANCED_FACE('',(#170),#121,.F.);
#70=ADVANCED_FACE('',(#171),#122,.F.);
#71=ADVANCED_FACE('',(#43,#44,#45),#123,.F.);
#72=ADVANCED_FACE('',(#172),#124,.F.);
#73=ADVANCED_FACE('',(#173),#125,.F.);
#74=ADVANCED_FACE('',(#46,#47),#126,.F.);
#75=ADVANCED_FACE('',(#48,#49),#127,.F.);
#76=ADVANCED_FACE('',(#174),#128,.T.);
#77=ADVANCED_FACE('',(#175),#129,.T.);
#78=ADVANCED_FACE('',(#176),#130,.T.);
#79=ADVANCED_FACE('',(#177),#131,.T.);
#80=ADVANCED_FACE('',(#178),#132,.T.);
#81=ADVANCED_FACE('',(#179),#133,.T.);
#82=ADVANCED_FACE('',(#180),#134,.F.);
#83=ADVANCED_FACE('',(#181),#135,.F.);
#84=ADVANCED_FACE('',(#182),#136,.F.);
#85=ADVANCED_FACE('',(#183),#137,.F.);
#86=ADVANCED_FACE('',(#184),#138,.F.);
#87=ADVANCED_FACE('',(#185),#139,.F.);
#88=ADVANCED_FACE('',(#186),#140,.F.);
#89=ADVANCED_FACE('',(#187),#141,.F.);
#90=ADVANCED_FACE('',(#188),#142,.F.);
#91=ADVANCED_FACE('',(#189),#143,.F.);
#92=ADVANCED_FACE('',(#190),#144,.F.);
#93=ADVANCED_FACE('',(#191),#145,.T.);
#94=ADVANCED_FACE('',(#192),#146,.F.);
#95=ADVANCED_FACE('',(#193),#147,.T.);
#96=ADVANCED_FACE('',(#194),#148,.F.);
#97=ADVANCED_FACE('',(#50,#51,#52),#149,.F.);
#98=ADVANCED_FACE('',(#195),#150,.T.);
#99=ADVANCED_FACE('',(#196),#151,.F.);
#100=ADVANCED_FACE('',(#197),#152,.F.);
#101=ADVANCED_FACE('',(#53,#54,#55),#153,.F.);
#102=ADVANCED_FACE('',(#56,#57),#34,.F.);
#103=ADVANCED_FACE('',(#58,#59),#35,.F.);
#104=ADVANCED_FACE('',(#198),#154,.F.);
#105=ADVANCED_FACE('',(#199),#155,.F.);
#106=ADVANCED_FACE('',(#200),#156,.F.);
#107=ADVANCED_FACE('',(#201),#157,.F.);
#108=ADVANCED_FACE('',(#202),#158,.F.);
#109=ADVANCED_FACE('',(#203),#159,.F.);
#110=ADVANCED_FACE('',(#204),#160,.F.);
#111=ADVANCED_FACE('',(#205),#161,.F.);
#112=PLANE('',#1167);
#113=PLANE('',#1168);
#114=PLANE('',#1169);
#115=PLANE('',#1170);
#116=PLANE('',#1171);
#117=PLANE('',#1172);
#118=PLANE('',#1173);
#119=PLANE('',#1174);
#120=PLANE('',#1175);
#121=PLANE('',#1176);
#122=PLANE('',#1177);
#123=PLANE('',#1178);
#124=PLANE('',#1179);
#125=PLANE('',#1180);
#126=PLANE('',#1181);
#127=PLANE('',#1182);
#128=PLANE('',#1183);
#129=PLANE('',#1184);
#130=PLANE('',#1185);
#131=PLANE('',#1186);
#132=PLANE('',#1187);
#133=PLANE('',#1188);
#134=PLANE('',#1189);
#135=PLANE('',#1190);
#136=PLANE('',#1191);
#137=PLANE('',#1192);
#138=PLANE('',#1193);
#139=PLANE('',#1194);
#140=PLANE('',#1195);
#141=PLANE('',#1196);
#142=PLANE('',#1197);
#143=PLANE('',#1198);
#144=PLANE('',#1199);
#145=PLANE('',#1200);
#146=PLANE('',#1201);
#147=PLANE('',#1202);
#148=PLANE('',#1203);
#149=PLANE('',#1206);
#150=PLANE('',#1207);
#151=PLANE('',#1208);
#152=PLANE('',#1209);
#153=PLANE('',#1212);
#154=PLANE('',#1215);
#155=PLANE('',#1216);
#156=PLANE('',#1217);
#157=PLANE('',#1218);
#158=PLANE('',#1219);
#159=PLANE('',#1220);
#160=PLANE('',#1221);
#161=PLANE('',#1222);
#162=FACE_OUTER_BOUND('',#206,.T.);
#163=FACE_OUTER_BOUND('',#207,.T.);
#164=FACE_OUTER_BOUND('',#208,.T.);
#165=FACE_OUTER_BOUND('',#209,.T.);
#166=FACE_OUTER_BOUND('',#213,.T.);
#167=FACE_OUTER_BOUND('',#214,.T.);
#168=FACE_OUTER_BOUND('',#215,.T.);
#169=FACE_OUTER_BOUND('',#216,.T.);
#170=FACE_OUTER_BOUND('',#217,.T.);
#171=FACE_OUTER_BOUND('',#218,.T.);
#172=FACE_OUTER_BOUND('',#222,.T.);
#173=FACE_OUTER_BOUND('',#223,.T.);
#174=FACE_OUTER_BOUND('',#228,.T.);
#175=FACE_OUTER_BOUND('',#229,.T.);
#176=FACE_OUTER_BOUND('',#230,.T.);
#177=FACE_OUTER_BOUND('',#231,.T.);
#178=FACE_OUTER_BOUND('',#232,.T.);
#179=FACE_OUTER_BOUND('',#233,.T.);
#180=FACE_OUTER_BOUND('',#234,.T.);
#181=FACE_OUTER_BOUND('',#235,.T.);
#182=FACE_OUTER_BOUND('',#236,.T.);
#183=FACE_OUTER_BOUND('',#237,.T.);
#184=FACE_OUTER_BOUND('',#238,.T.);
#185=FACE_OUTER_BOUND('',#239,.T.);
#186=FACE_OUTER_BOUND('',#240,.T.);
#187=FACE_OUTER_BOUND('',#241,.T.);
#188=FACE_OUTER_BOUND('',#242,.T.);
#189=FACE_OUTER_BOUND('',#243,.T.);
#190=FACE_OUTER_BOUND('',#244,.T.);
#191=FACE_OUTER_BOUND('',#245,.T.);
#192=FACE_OUTER_BOUND('',#246,.T.);
#193=FACE_OUTER_BOUND('',#247,.T.);
#194=FACE_OUTER_BOUND('',#248,.T.);
#195=FACE_OUTER_BOUND('',#252,.T.);
#196=FACE_OUTER_BOUND('',#253,.T.);
#197=FACE_OUTER_BOUND('',#254,.T.);
#198=FACE_OUTER_BOUND('',#262,.T.);
#199=FACE_OUTER_BOUND('',#263,.T.);
#200=FACE_OUTER_BOUND('',#264,.T.);
#201=FACE_OUTER_BOUND('',#265,.T.);
#202=FACE_OUTER_BOUND('',#266,.T.);
#203=FACE_OUTER_BOUND('',#267,.T.);
#204=FACE_OUTER_BOUND('',#268,.T.);
#205=FACE_OUTER_BOUND('',#269,.T.);
#206=EDGE_LOOP('',(#270,#271,#272,#273));
#207=EDGE_LOOP('',(#274,#275,#276,#277));
#208=EDGE_LOOP('',(#278,#279,#280,#281));
#209=EDGE_LOOP('',(#282,#283,#284,#285,#286,#287,#288,#289,#290,#291));
#210=EDGE_LOOP('',(#292,#293,#294,#295,#296,#297,#298,#299,#300,#301));
#211=EDGE_LOOP('',(#302,#303,#304,#305));
#212=EDGE_LOOP('',(#306,#307,#308,#309,#310));
#213=EDGE_LOOP('',(#311,#312,#313,#314));
#214=EDGE_LOOP('',(#315,#316,#317,#318,#319));
#215=EDGE_LOOP('',(#320,#321,#322,#323));
#216=EDGE_LOOP('',(#324,#325,#326,#327));
#217=EDGE_LOOP('',(#328,#329,#330,#331));
#218=EDGE_LOOP('',(#332,#333,#334,#335,#336,#337,#338,#339,#340,#341));
#219=EDGE_LOOP('',(#342,#343,#344,#345,#346,#347,#348,#349,#350,#351));
#220=EDGE_LOOP('',(#352,#353,#354,#355));
#221=EDGE_LOOP('',(#356,#357,#358,#359,#360));
#222=EDGE_LOOP('',(#361,#362,#363,#364));
#223=EDGE_LOOP('',(#365,#366,#367,#368,#369));
#224=EDGE_LOOP('',(#370,#371,#372,#373,#374,#375,#376,#377,#378,#379,#380,
#381));
#225=EDGE_LOOP('',(#382,#383,#384,#385));
#226=EDGE_LOOP('',(#386,#387,#388,#389,#390,#391,#392,#393,#394,#395,#396,
#397));
#227=EDGE_LOOP('',(#398,#399,#400,#401));
#228=EDGE_LOOP('',(#402,#403,#404,#405));
#229=EDGE_LOOP('',(#406,#407,#408,#409));
#230=EDGE_LOOP('',(#410,#411,#412,#413));
#231=EDGE_LOOP('',(#414,#415,#416,#417));
#232=EDGE_LOOP('',(#418,#419,#420,#421,#422,#423,#424,#425,#426,#427,#428,
#429,#430,#431,#432,#433));
#233=EDGE_LOOP('',(#434,#435,#436,#437));
#234=EDGE_LOOP('',(#438,#439,#440,#441));
#235=EDGE_LOOP('',(#442,#443,#444,#445));
#236=EDGE_LOOP('',(#446,#447,#448,#449));
#237=EDGE_LOOP('',(#450,#451,#452,#453,#454,#455,#456,#457,#458,#459,#460,
#461,#462,#463,#464,#465));
#238=EDGE_LOOP('',(#466,#467,#468,#469));
#239=EDGE_LOOP('',(#470,#471,#472,#473));
#240=EDGE_LOOP('',(#474,#475,#476,#477));
#241=EDGE_LOOP('',(#478,#479,#480,#481));
#242=EDGE_LOOP('',(#482,#483,#484,#485));
#243=EDGE_LOOP('',(#486,#487,#488,#489));
#244=EDGE_LOOP('',(#490,#491,#492,#493));
#245=EDGE_LOOP('',(#494,#495,#496,#497));
#246=EDGE_LOOP('',(#498,#499,#500,#501));
#247=EDGE_LOOP('',(#502,#503,#504,#505,#506,#507,#508,#509,#510,#511,#512,
#513));
#248=EDGE_LOOP('',(#514,#515,#516,#517));
#249=EDGE_LOOP('',(#518));
#250=EDGE_LOOP('',(#519));
#251=EDGE_LOOP('',(#520,#521,#522,#523,#524,#525));
#252=EDGE_LOOP('',(#526,#527,#528,#529));
#253=EDGE_LOOP('',(#530,#531,#532,#533));
#254=EDGE_LOOP('',(#534,#535,#536,#537));
#255=EDGE_LOOP('',(#538));
#256=EDGE_LOOP('',(#539));
#257=EDGE_LOOP('',(#540,#541,#542,#543,#544,#545));
#258=EDGE_LOOP('',(#546));
#259=EDGE_LOOP('',(#547));
#260=EDGE_LOOP('',(#548));
#261=EDGE_LOOP('',(#549));
#262=EDGE_LOOP('',(#550,#551,#552,#553,#554,#555,#556,#557));
#263=EDGE_LOOP('',(#558,#559,#560,#561,#562,#563));
#264=EDGE_LOOP('',(#564,#565,#566,#567));
#265=EDGE_LOOP('',(#568,#569,#570,#571,#572,#573));
#266=EDGE_LOOP('',(#574,#575,#576,#577));
#267=EDGE_LOOP('',(#578,#579,#580,#581));
#268=EDGE_LOOP('',(#582,#583,#584,#585));
#269=EDGE_LOOP('',(#586,#587,#588,#589));
#270=ORIENTED_EDGE('',*,*,#694,.F.);
#271=ORIENTED_EDGE('',*,*,#695,.T.);
#272=ORIENTED_EDGE('',*,*,#696,.T.);
#273=ORIENTED_EDGE('',*,*,#697,.F.);
#274=ORIENTED_EDGE('',*,*,#698,.T.);
#275=ORIENTED_EDGE('',*,*,#699,.T.);
#276=ORIENTED_EDGE('',*,*,#700,.F.);
#277=ORIENTED_EDGE('',*,*,#701,.T.);
#278=ORIENTED_EDGE('',*,*,#702,.F.);
#279=ORIENTED_EDGE('',*,*,#703,.F.);
#280=ORIENTED_EDGE('',*,*,#704,.T.);
#281=ORIENTED_EDGE('',*,*,#705,.T.);
#282=ORIENTED_EDGE('',*,*,#700,.T.);
#283=ORIENTED_EDGE('',*,*,#706,.F.);
#284=ORIENTED_EDGE('',*,*,#707,.F.);
#285=ORIENTED_EDGE('',*,*,#708,.T.);
#286=ORIENTED_EDGE('',*,*,#694,.T.);
#287=ORIENTED_EDGE('',*,*,#709,.F.);
#288=ORIENTED_EDGE('',*,*,#705,.F.);
#289=ORIENTED_EDGE('',*,*,#710,.F.);
#290=ORIENTED_EDGE('',*,*,#711,.F.);
#291=ORIENTED_EDGE('',*,*,#712,.T.);
#292=ORIENTED_EDGE('',*,*,#713,.T.);
#293=ORIENTED_EDGE('',*,*,#703,.T.);
#294=ORIENTED_EDGE('',*,*,#714,.F.);
#295=ORIENTED_EDGE('',*,*,#696,.F.);
#296=ORIENTED_EDGE('',*,*,#715,.F.);
#297=ORIENTED_EDGE('',*,*,#716,.T.);
#298=ORIENTED_EDGE('',*,*,#717,.F.);
#299=ORIENTED_EDGE('',*,*,#718,.F.);
#300=ORIENTED_EDGE('',*,*,#719,.T.);
#301=ORIENTED_EDGE('',*,*,#720,.T.);
#302=ORIENTED_EDGE('',*,*,#698,.F.);
#303=ORIENTED_EDGE('',*,*,#721,.F.);
#304=ORIENTED_EDGE('',*,*,#722,.T.);
#305=ORIENTED_EDGE('',*,*,#723,.T.);
#306=ORIENTED_EDGE('',*,*,#724,.F.);
#307=ORIENTED_EDGE('',*,*,#725,.T.);
#308=ORIENTED_EDGE('',*,*,#726,.T.);
#309=ORIENTED_EDGE('',*,*,#727,.T.);
#310=ORIENTED_EDGE('',*,*,#728,.T.);
#311=ORIENTED_EDGE('',*,*,#702,.T.);
#312=ORIENTED_EDGE('',*,*,#709,.T.);
#313=ORIENTED_EDGE('',*,*,#697,.T.);
#314=ORIENTED_EDGE('',*,*,#714,.T.);
#315=ORIENTED_EDGE('',*,*,#701,.F.);
#316=ORIENTED_EDGE('',*,*,#712,.F.);
#317=ORIENTED_EDGE('',*,*,#729,.F.);
#318=ORIENTED_EDGE('',*,*,#730,.F.);
#319=ORIENTED_EDGE('',*,*,#721,.T.);
#320=ORIENTED_EDGE('',*,*,#731,.F.);
#321=ORIENTED_EDGE('',*,*,#732,.T.);
#322=ORIENTED_EDGE('',*,*,#733,.T.);
#323=ORIENTED_EDGE('',*,*,#734,.F.);
#324=ORIENTED_EDGE('',*,*,#735,.F.);
#325=ORIENTED_EDGE('',*,*,#736,.F.);
#326=ORIENTED_EDGE('',*,*,#737,.F.);
#327=ORIENTED_EDGE('',*,*,#738,.T.);
#328=ORIENTED_EDGE('',*,*,#739,.T.);
#329=ORIENTED_EDGE('',*,*,#740,.F.);
#330=ORIENTED_EDGE('',*,*,#741,.F.);
#331=ORIENTED_EDGE('',*,*,#742,.T.);
#332=ORIENTED_EDGE('',*,*,#740,.T.);
#333=ORIENTED_EDGE('',*,*,#743,.T.);
#334=ORIENTED_EDGE('',*,*,#732,.F.);
#335=ORIENTED_EDGE('',*,*,#744,.F.);
#336=ORIENTED_EDGE('',*,*,#745,.T.);
#337=ORIENTED_EDGE('',*,*,#746,.T.);
#338=ORIENTED_EDGE('',*,*,#738,.F.);
#339=ORIENTED_EDGE('',*,*,#747,.F.);
#340=ORIENTED_EDGE('',*,*,#748,.T.);
#341=ORIENTED_EDGE('',*,*,#749,.T.);
#342=ORIENTED_EDGE('',*,*,#742,.F.);
#343=ORIENTED_EDGE('',*,*,#750,.F.);
#344=ORIENTED_EDGE('',*,*,#751,.T.);
#345=ORIENTED_EDGE('',*,*,#752,.F.);
#346=ORIENTED_EDGE('',*,*,#753,.T.);
#347=ORIENTED_EDGE('',*,*,#754,.T.);
#348=ORIENTED_EDGE('',*,*,#755,.F.);
#349=ORIENTED_EDGE('',*,*,#756,.T.);
#350=ORIENTED_EDGE('',*,*,#734,.T.);
#351=ORIENTED_EDGE('',*,*,#757,.T.);
#352=ORIENTED_EDGE('',*,*,#736,.T.);
#353=ORIENTED_EDGE('',*,*,#758,.F.);
#354=ORIENTED_EDGE('',*,*,#759,.F.);
#355=ORIENTED_EDGE('',*,*,#760,.T.);
#356=ORIENTED_EDGE('',*,*,#761,.F.);
#357=ORIENTED_EDGE('',*,*,#762,.T.);
#358=ORIENTED_EDGE('',*,*,#763,.F.);
#359=ORIENTED_EDGE('',*,*,#764,.F.);
#360=ORIENTED_EDGE('',*,*,#765,.F.);
#361=ORIENTED_EDGE('',*,*,#739,.F.);
#362=ORIENTED_EDGE('',*,*,#757,.F.);
#363=ORIENTED_EDGE('',*,*,#733,.F.);
#364=ORIENTED_EDGE('',*,*,#743,.F.);
#365=ORIENTED_EDGE('',*,*,#747,.T.);
#366=ORIENTED_EDGE('',*,*,#737,.T.);
#367=ORIENTED_EDGE('',*,*,#760,.F.);
#368=ORIENTED_EDGE('',*,*,#766,.T.);
#369=ORIENTED_EDGE('',*,*,#767,.T.);
#370=ORIENTED_EDGE('',*,*,#695,.F.);
#371=ORIENTED_EDGE('',*,*,#708,.F.);
#372=ORIENTED_EDGE('',*,*,#768,.T.);
#373=ORIENTED_EDGE('',*,*,#744,.T.);
#374=ORIENTED_EDGE('',*,*,#731,.T.);
#375=ORIENTED_EDGE('',*,*,#756,.F.);
#376=ORIENTED_EDGE('',*,*,#769,.T.);
#377=ORIENTED_EDGE('',*,*,#770,.T.);
#378=ORIENTED_EDGE('',*,*,#771,.F.);
#379=ORIENTED_EDGE('',*,*,#772,.F.);
#380=ORIENTED_EDGE('',*,*,#773,.F.);
#381=ORIENTED_EDGE('',*,*,#715,.T.);
#382=ORIENTED_EDGE('',*,*,#774,.F.);
#383=ORIENTED_EDGE('',*,*,#775,.T.);
#384=ORIENTED_EDGE('',*,*,#776,.T.);
#385=ORIENTED_EDGE('',*,*,#777,.F.);
#386=ORIENTED_EDGE('',*,*,#699,.F.);
#387=ORIENTED_EDGE('',*,*,#723,.F.);
#388=ORIENTED_EDGE('',*,*,#778,.F.);
#389=ORIENTED_EDGE('',*,*,#779,.T.);
#390=ORIENTED_EDGE('',*,*,#780,.T.);
#391=ORIENTED_EDGE('',*,*,#781,.F.);
#392=ORIENTED_EDGE('',*,*,#782,.T.);
#393=ORIENTED_EDGE('',*,*,#758,.T.);
#394=ORIENTED_EDGE('',*,*,#735,.T.);
#395=ORIENTED_EDGE('',*,*,#746,.F.);
#396=ORIENTED_EDGE('',*,*,#783,.F.);
#397=ORIENTED_EDGE('',*,*,#706,.T.);
#398=ORIENTED_EDGE('',*,*,#784,.F.);
#399=ORIENTED_EDGE('',*,*,#785,.T.);
#400=ORIENTED_EDGE('',*,*,#786,.T.);
#401=ORIENTED_EDGE('',*,*,#787,.F.);
#402=ORIENTED_EDGE('',*,*,#716,.F.);
#403=ORIENTED_EDGE('',*,*,#773,.T.);
#404=ORIENTED_EDGE('',*,*,#788,.T.);
#405=ORIENTED_EDGE('',*,*,#789,.F.);
#406=ORIENTED_EDGE('',*,*,#790,.T.);
#407=ORIENTED_EDGE('',*,*,#778,.T.);
#408=ORIENTED_EDGE('',*,*,#722,.F.);
#409=ORIENTED_EDGE('',*,*,#730,.T.);
#410=ORIENTED_EDGE('',*,*,#791,.F.);
#411=ORIENTED_EDGE('',*,*,#792,.T.);
#412=ORIENTED_EDGE('',*,*,#724,.T.);
#413=ORIENTED_EDGE('',*,*,#793,.F.);
#414=ORIENTED_EDGE('',*,*,#794,.F.);
#415=ORIENTED_EDGE('',*,*,#795,.F.);
#416=ORIENTED_EDGE('',*,*,#796,.T.);
#417=ORIENTED_EDGE('',*,*,#718,.T.);
#418=ORIENTED_EDGE('',*,*,#795,.T.);
#419=ORIENTED_EDGE('',*,*,#797,.F.);
#420=ORIENTED_EDGE('',*,*,#788,.F.);
#421=ORIENTED_EDGE('',*,*,#772,.T.);
#422=ORIENTED_EDGE('',*,*,#798,.F.);
#423=ORIENTED_EDGE('',*,*,#779,.F.);
#424=ORIENTED_EDGE('',*,*,#790,.F.);
#425=ORIENTED_EDGE('',*,*,#729,.T.);
#426=ORIENTED_EDGE('',*,*,#799,.F.);
#427=ORIENTED_EDGE('',*,*,#800,.F.);
#428=ORIENTED_EDGE('',*,*,#801,.F.);
#429=ORIENTED_EDGE('',*,*,#802,.T.);
#430=ORIENTED_EDGE('',*,*,#791,.T.);
#431=ORIENTED_EDGE('',*,*,#803,.T.);
#432=ORIENTED_EDGE('',*,*,#804,.T.);
#433=ORIENTED_EDGE('',*,*,#805,.T.);
#434=ORIENTED_EDGE('',*,*,#789,.T.);
#435=ORIENTED_EDGE('',*,*,#797,.T.);
#436=ORIENTED_EDGE('',*,*,#794,.T.);
#437=ORIENTED_EDGE('',*,*,#717,.T.);
#438=ORIENTED_EDGE('',*,*,#806,.F.);
#439=ORIENTED_EDGE('',*,*,#807,.T.);
#440=ORIENTED_EDGE('',*,*,#808,.T.);
#441=ORIENTED_EDGE('',*,*,#753,.F.);
#442=ORIENTED_EDGE('',*,*,#769,.F.);
#443=ORIENTED_EDGE('',*,*,#755,.T.);
#444=ORIENTED_EDGE('',*,*,#809,.T.);
#445=ORIENTED_EDGE('',*,*,#810,.F.);
#446=ORIENTED_EDGE('',*,*,#782,.F.);
#447=ORIENTED_EDGE('',*,*,#811,.F.);
#448=ORIENTED_EDGE('',*,*,#766,.F.);
#449=ORIENTED_EDGE('',*,*,#759,.T.);
#450=ORIENTED_EDGE('',*,*,#811,.T.);
#451=ORIENTED_EDGE('',*,*,#781,.T.);
#452=ORIENTED_EDGE('',*,*,#812,.T.);
#453=ORIENTED_EDGE('',*,*,#770,.F.);
#454=ORIENTED_EDGE('',*,*,#810,.T.);
#455=ORIENTED_EDGE('',*,*,#813,.T.);
#456=ORIENTED_EDGE('',*,*,#807,.F.);
#457=ORIENTED_EDGE('',*,*,#814,.F.);
#458=ORIENTED_EDGE('',*,*,#815,.F.);
#459=ORIENTED_EDGE('',*,*,#816,.F.);
#460=ORIENTED_EDGE('',*,*,#817,.F.);
#461=ORIENTED_EDGE('',*,*,#818,.F.);
#462=ORIENTED_EDGE('',*,*,#819,.T.);
#463=ORIENTED_EDGE('',*,*,#820,.T.);
#464=ORIENTED_EDGE('',*,*,#821,.T.);
#465=ORIENTED_EDGE('',*,*,#767,.F.);
#466=ORIENTED_EDGE('',*,*,#762,.F.);
#467=ORIENTED_EDGE('',*,*,#822,.T.);
#468=ORIENTED_EDGE('',*,*,#817,.T.);
#469=ORIENTED_EDGE('',*,*,#823,.T.);
#470=ORIENTED_EDGE('',*,*,#809,.F.);
#471=ORIENTED_EDGE('',*,*,#754,.F.);
#472=ORIENTED_EDGE('',*,*,#808,.F.);
#473=ORIENTED_EDGE('',*,*,#813,.F.);
#474=ORIENTED_EDGE('',*,*,#824,.F.);
#475=ORIENTED_EDGE('',*,*,#785,.F.);
#476=ORIENTED_EDGE('',*,*,#825,.F.);
#477=ORIENTED_EDGE('',*,*,#774,.T.);
#478=ORIENTED_EDGE('',*,*,#786,.F.);
#479=ORIENTED_EDGE('',*,*,#824,.T.);
#480=ORIENTED_EDGE('',*,*,#777,.T.);
#481=ORIENTED_EDGE('',*,*,#826,.F.);
#482=ORIENTED_EDGE('',*,*,#768,.F.);
#483=ORIENTED_EDGE('',*,*,#707,.T.);
#484=ORIENTED_EDGE('',*,*,#783,.T.);
#485=ORIENTED_EDGE('',*,*,#745,.F.);
#486=ORIENTED_EDGE('',*,*,#780,.F.);
#487=ORIENTED_EDGE('',*,*,#798,.T.);
#488=ORIENTED_EDGE('',*,*,#771,.T.);
#489=ORIENTED_EDGE('',*,*,#812,.F.);
#490=ORIENTED_EDGE('',*,*,#775,.F.);
#491=ORIENTED_EDGE('',*,*,#825,.T.);
#492=ORIENTED_EDGE('',*,*,#784,.T.);
#493=ORIENTED_EDGE('',*,*,#827,.F.);
#494=ORIENTED_EDGE('',*,*,#776,.F.);
#495=ORIENTED_EDGE('',*,*,#827,.T.);
#496=ORIENTED_EDGE('',*,*,#787,.T.);
#497=ORIENTED_EDGE('',*,*,#826,.T.);
#498=ORIENTED_EDGE('',*,*,#802,.F.);
#499=ORIENTED_EDGE('',*,*,#828,.F.);
#500=ORIENTED_EDGE('',*,*,#818,.T.);
#501=ORIENTED_EDGE('',*,*,#829,.T.);
#502=ORIENTED_EDGE('',*,*,#713,.F.);
#503=ORIENTED_EDGE('',*,*,#830,.F.);
#504=ORIENTED_EDGE('',*,*,#750,.T.);
#505=ORIENTED_EDGE('',*,*,#741,.T.);
#506=ORIENTED_EDGE('',*,*,#749,.F.);
#507=ORIENTED_EDGE('',*,*,#831,.F.);
#508=ORIENTED_EDGE('',*,*,#819,.F.);
#509=ORIENTED_EDGE('',*,*,#828,.T.);
#510=ORIENTED_EDGE('',*,*,#801,.T.);
#511=ORIENTED_EDGE('',*,*,#832,.T.);
#512=ORIENTED_EDGE('',*,*,#710,.T.);
#513=ORIENTED_EDGE('',*,*,#704,.F.);
#514=ORIENTED_EDGE('',*,*,#832,.F.);
#515=ORIENTED_EDGE('',*,*,#833,.F.);
#516=ORIENTED_EDGE('',*,*,#834,.F.);
#517=ORIENTED_EDGE('',*,*,#835,.F.);
#518=ORIENTED_EDGE('',*,*,#836,.T.);
#519=ORIENTED_EDGE('',*,*,#837,.T.);
#520=ORIENTED_EDGE('',*,*,#838,.F.);
#521=ORIENTED_EDGE('',*,*,#711,.T.);
#522=ORIENTED_EDGE('',*,*,#835,.T.);
#523=ORIENTED_EDGE('',*,*,#839,.T.);
#524=ORIENTED_EDGE('',*,*,#840,.F.);
#525=ORIENTED_EDGE('',*,*,#748,.F.);
#526=ORIENTED_EDGE('',*,*,#841,.T.);
#527=ORIENTED_EDGE('',*,*,#831,.T.);
#528=ORIENTED_EDGE('',*,*,#840,.T.);
#529=ORIENTED_EDGE('',*,*,#842,.T.);
#530=ORIENTED_EDGE('',*,*,#843,.F.);
#531=ORIENTED_EDGE('',*,*,#799,.T.);
#532=ORIENTED_EDGE('',*,*,#838,.T.);
#533=ORIENTED_EDGE('',*,*,#821,.F.);
#534=ORIENTED_EDGE('',*,*,#839,.F.);
#535=ORIENTED_EDGE('',*,*,#834,.T.);
#536=ORIENTED_EDGE('',*,*,#844,.T.);
#537=ORIENTED_EDGE('',*,*,#842,.F.);
#538=ORIENTED_EDGE('',*,*,#845,.T.);
#539=ORIENTED_EDGE('',*,*,#846,.T.);
#540=ORIENTED_EDGE('',*,*,#844,.F.);
#541=ORIENTED_EDGE('',*,*,#833,.T.);
#542=ORIENTED_EDGE('',*,*,#800,.T.);
#543=ORIENTED_EDGE('',*,*,#843,.T.);
#544=ORIENTED_EDGE('',*,*,#820,.F.);
#545=ORIENTED_EDGE('',*,*,#841,.F.);
#546=ORIENTED_EDGE('',*,*,#837,.F.);
#547=ORIENTED_EDGE('',*,*,#846,.F.);
#548=ORIENTED_EDGE('',*,*,#836,.F.);
#549=ORIENTED_EDGE('',*,*,#845,.F.);
#550=ORIENTED_EDGE('',*,*,#847,.F.);
#551=ORIENTED_EDGE('',*,*,#815,.T.);
#552=ORIENTED_EDGE('',*,*,#848,.T.);
#553=ORIENTED_EDGE('',*,*,#804,.F.);
#554=ORIENTED_EDGE('',*,*,#849,.T.);
#555=ORIENTED_EDGE('',*,*,#727,.F.);
#556=ORIENTED_EDGE('',*,*,#850,.F.);
#557=ORIENTED_EDGE('',*,*,#764,.T.);
#558=ORIENTED_EDGE('',*,*,#851,.F.);
#559=ORIENTED_EDGE('',*,*,#751,.F.);
#560=ORIENTED_EDGE('',*,*,#830,.T.);
#561=ORIENTED_EDGE('',*,*,#720,.F.);
#562=ORIENTED_EDGE('',*,*,#852,.F.);
#563=ORIENTED_EDGE('',*,*,#848,.F.);
#564=ORIENTED_EDGE('',*,*,#853,.F.);
#565=ORIENTED_EDGE('',*,*,#765,.T.);
#566=ORIENTED_EDGE('',*,*,#850,.T.);
#567=ORIENTED_EDGE('',*,*,#726,.F.);
#568=ORIENTED_EDGE('',*,*,#822,.F.);
#569=ORIENTED_EDGE('',*,*,#761,.T.);
#570=ORIENTED_EDGE('',*,*,#853,.T.);
#571=ORIENTED_EDGE('',*,*,#725,.F.);
#572=ORIENTED_EDGE('',*,*,#792,.F.);
#573=ORIENTED_EDGE('',*,*,#829,.F.);
#574=ORIENTED_EDGE('',*,*,#805,.F.);
#575=ORIENTED_EDGE('',*,*,#852,.T.);
#576=ORIENTED_EDGE('',*,*,#719,.F.);
#577=ORIENTED_EDGE('',*,*,#796,.F.);
#578=ORIENTED_EDGE('',*,*,#803,.F.);
#579=ORIENTED_EDGE('',*,*,#793,.T.);
#580=ORIENTED_EDGE('',*,*,#728,.F.);
#581=ORIENTED_EDGE('',*,*,#849,.F.);
#582=ORIENTED_EDGE('',*,*,#851,.T.);
#583=ORIENTED_EDGE('',*,*,#814,.T.);
#584=ORIENTED_EDGE('',*,*,#806,.T.);
#585=ORIENTED_EDGE('',*,*,#752,.T.);
#586=ORIENTED_EDGE('',*,*,#823,.F.);
#587=ORIENTED_EDGE('',*,*,#816,.T.);
#588=ORIENTED_EDGE('',*,*,#847,.T.);
#589=ORIENTED_EDGE('',*,*,#763,.T.);
#590=VERTEX_POINT('',#1495);
#591=VERTEX_POINT('',#1496);
#592=VERTEX_POINT('',#1498);
#593=VERTEX_POINT('',#1500);
#594=VERTEX_POINT('',#1504);
#595=VERTEX_POINT('',#1505);
#596=VERTEX_POINT('',#1507);
#597=VERTEX_POINT('',#1509);
#598=VERTEX_POINT('',#1513);
#599=VERTEX_POINT('',#1514);
#600=VERTEX_POINT('',#1516);
#601=VERTEX_POINT('',#1518);
#602=VERTEX_POINT('',#1522);
#603=VERTEX_POINT('',#1524);
#604=VERTEX_POINT('',#1528);
#605=VERTEX_POINT('',#1530);
#606=VERTEX_POINT('',#1534);
#607=VERTEX_POINT('',#1537);
#608=VERTEX_POINT('',#1539);
#609=VERTEX_POINT('',#1541);
#610=VERTEX_POINT('',#1543);
#611=VERTEX_POINT('',#1545);
#612=VERTEX_POINT('',#1548);
#613=VERTEX_POINT('',#1550);
#614=VERTEX_POINT('',#1553);
#615=VERTEX_POINT('',#1554);
#616=VERTEX_POINT('',#1556);
#617=VERTEX_POINT('',#1558);
#618=VERTEX_POINT('',#1560);
#619=VERTEX_POINT('',#1565);
#620=VERTEX_POINT('',#1569);
#621=VERTEX_POINT('',#1570);
#622=VERTEX_POINT('',#1572);
#623=VERTEX_POINT('',#1574);
#624=VERTEX_POINT('',#1578);
#625=VERTEX_POINT('',#1579);
#626=VERTEX_POINT('',#1581);
#627=VERTEX_POINT('',#1583);
#628=VERTEX_POINT('',#1587);
#629=VERTEX_POINT('',#1588);
#630=VERTEX_POINT('',#1590);
#631=VERTEX_POINT('',#1592);
#632=VERTEX_POINT('',#1597);
#633=VERTEX_POINT('',#1599);
#634=VERTEX_POINT('',#1602);
#635=VERTEX_POINT('',#1604);
#636=VERTEX_POINT('',#1608);
#637=VERTEX_POINT('',#1610);
#638=VERTEX_POINT('',#1612);
#639=VERTEX_POINT('',#1614);
#640=VERTEX_POINT('',#1616);
#641=VERTEX_POINT('',#1618);
#642=VERTEX_POINT('',#1622);
#643=VERTEX_POINT('',#1624);
#644=VERTEX_POINT('',#1627);
#645=VERTEX_POINT('',#1628);
#646=VERTEX_POINT('',#1630);
#647=VERTEX_POINT('',#1632);
#648=VERTEX_POINT('',#1634);
#649=VERTEX_POINT('',#1639);
#650=VERTEX_POINT('',#1644);
#651=VERTEX_POINT('',#1646);
#652=VERTEX_POINT('',#1648);
#653=VERTEX_POINT('',#1650);
#654=VERTEX_POINT('',#1653);
#655=VERTEX_POINT('',#1654);
#656=VERTEX_POINT('',#1656);
#657=VERTEX_POINT('',#1658);
#658=VERTEX_POINT('',#1662);
#659=VERTEX_POINT('',#1664);
#660=VERTEX_POINT('',#1666);
#661=VERTEX_POINT('',#1668);
#662=VERTEX_POINT('',#1672);
#663=VERTEX_POINT('',#1673);
#664=VERTEX_POINT('',#1675);
#665=VERTEX_POINT('',#1677);
#666=VERTEX_POINT('',#1681);
#667=VERTEX_POINT('',#1687);
#668=VERTEX_POINT('',#1688);
#669=VERTEX_POINT('',#1693);
#670=VERTEX_POINT('',#1695);
#671=VERTEX_POINT('',#1701);
#672=VERTEX_POINT('',#1703);
#673=VERTEX_POINT('',#1705);
#674=VERTEX_POINT('',#1708);
#675=VERTEX_POINT('',#1710);
#676=VERTEX_POINT('',#1715);
#677=VERTEX_POINT('',#1717);
#678=VERTEX_POINT('',#1721);
#679=VERTEX_POINT('',#1729);
#680=VERTEX_POINT('',#1731);
#681=VERTEX_POINT('',#1733);
#682=VERTEX_POINT('',#1735);
#683=VERTEX_POINT('',#1737);
#684=VERTEX_POINT('',#1739);
#685=VERTEX_POINT('',#1741);
#686=VERTEX_POINT('',#1766);
#687=VERTEX_POINT('',#1768);
#688=VERTEX_POINT('',#1772);
#689=VERTEX_POINT('',#1774);
#690=VERTEX_POINT('',#1777);
#691=VERTEX_POINT('',#1781);
#692=VERTEX_POINT('',#1789);
#693=VERTEX_POINT('',#1791);
#694=EDGE_CURVE('',#590,#591,#854,.T.);
#695=EDGE_CURVE('',#590,#592,#855,.T.);
#696=EDGE_CURVE('',#592,#593,#856,.T.);
#697=EDGE_CURVE('',#591,#593,#857,.T.);
#698=EDGE_CURVE('',#594,#595,#858,.T.);
#699=EDGE_CURVE('',#595,#596,#859,.T.);
#700=EDGE_CURVE('',#597,#596,#860,.T.);
#701=EDGE_CURVE('',#597,#594,#861,.T.);
#702=EDGE_CURVE('',#598,#599,#862,.T.);
#703=EDGE_CURVE('',#600,#598,#863,.T.);
#704=EDGE_CURVE('',#600,#601,#864,.T.);
#705=EDGE_CURVE('',#601,#599,#865,.T.);
#706=EDGE_CURVE('',#602,#596,#866,.T.);
#707=EDGE_CURVE('',#603,#602,#867,.T.);
#708=EDGE_CURVE('',#603,#590,#868,.T.);
#709=EDGE_CURVE('',#599,#591,#869,.T.);
#710=EDGE_CURVE('',#604,#601,#870,.T.);
#711=EDGE_CURVE('',#605,#604,#871,.T.);
#712=EDGE_CURVE('',#605,#597,#872,.T.);
#713=EDGE_CURVE('',#606,#600,#873,.T.);
#714=EDGE_CURVE('',#593,#598,#874,.T.);
#715=EDGE_CURVE('',#607,#592,#875,.T.);
#716=EDGE_CURVE('',#607,#608,#876,.T.);
#717=EDGE_CURVE('',#609,#608,#877,.T.);
#718=EDGE_CURVE('',#610,#609,#878,.T.);
#719=EDGE_CURVE('',#610,#611,#879,.T.);
#720=EDGE_CURVE('',#611,#606,#880,.T.);
#721=EDGE_CURVE('',#612,#594,#881,.T.);
#722=EDGE_CURVE('',#612,#613,#882,.T.);
#723=EDGE_CURVE('',#613,#595,#883,.T.);
#724=EDGE_CURVE('',#614,#615,#884,.T.);
#725=EDGE_CURVE('',#614,#616,#885,.T.);
#726=EDGE_CURVE('',#616,#617,#886,.T.);
#727=EDGE_CURVE('',#617,#618,#887,.T.);
#728=EDGE_CURVE('',#618,#615,#888,.T.);
#729=EDGE_CURVE('',#619,#605,#889,.T.);
#730=EDGE_CURVE('',#612,#619,#890,.T.);
#731=EDGE_CURVE('',#620,#621,#891,.T.);
#732=EDGE_CURVE('',#620,#622,#892,.T.);
#733=EDGE_CURVE('',#622,#623,#893,.T.);
#734=EDGE_CURVE('',#621,#623,#894,.T.);
#735=EDGE_CURVE('',#624,#625,#895,.T.);
#736=EDGE_CURVE('',#626,#624,#896,.T.);
#737=EDGE_CURVE('',#627,#626,#897,.T.);
#738=EDGE_CURVE('',#627,#625,#898,.T.);
#739=EDGE_CURVE('',#628,#629,#899,.T.);
#740=EDGE_CURVE('',#630,#629,#900,.T.);
#741=EDGE_CURVE('',#631,#630,#901,.T.);
#742=EDGE_CURVE('',#631,#628,#902,.T.);
#743=EDGE_CURVE('',#629,#622,#903,.T.);
#744=EDGE_CURVE('',#632,#620,#904,.T.);
#745=EDGE_CURVE('',#632,#633,#905,.T.);
#746=EDGE_CURVE('',#633,#625,#906,.T.);
#747=EDGE_CURVE('',#634,#627,#907,.T.);
#748=EDGE_CURVE('',#634,#635,#908,.T.);
#749=EDGE_CURVE('',#635,#630,#909,.T.);
#750=EDGE_CURVE('',#636,#631,#910,.T.);
#751=EDGE_CURVE('',#636,#637,#911,.T.);
#752=EDGE_CURVE('',#638,#637,#912,.T.);
#753=EDGE_CURVE('',#638,#639,#913,.T.);
#754=EDGE_CURVE('',#639,#640,#914,.T.);
#755=EDGE_CURVE('',#641,#640,#915,.T.);
#756=EDGE_CURVE('',#641,#621,#916,.T.);
#757=EDGE_CURVE('',#623,#628,#917,.T.);
#758=EDGE_CURVE('',#642,#624,#918,.T.);
#759=EDGE_CURVE('',#643,#642,#919,.T.);
#760=EDGE_CURVE('',#643,#626,#920,.T.);
#761=EDGE_CURVE('',#644,#645,#921,.T.);
#762=EDGE_CURVE('',#644,#646,#922,.T.);
#763=EDGE_CURVE('',#647,#646,#923,.T.);
#764=EDGE_CURVE('',#648,#647,#924,.T.);
#765=EDGE_CURVE('',#645,#648,#925,.T.);
#766=EDGE_CURVE('',#643,#649,#926,.T.);
#767=EDGE_CURVE('',#649,#634,#927,.T.);
#768=EDGE_CURVE('',#603,#632,#928,.T.);
#769=EDGE_CURVE('',#641,#650,#929,.T.);
#770=EDGE_CURVE('',#650,#651,#930,.T.);
#771=EDGE_CURVE('',#652,#651,#931,.T.);
#772=EDGE_CURVE('',#653,#652,#932,.T.);
#773=EDGE_CURVE('',#607,#653,#933,.T.);
#774=EDGE_CURVE('',#654,#655,#934,.T.);
#775=EDGE_CURVE('',#654,#656,#935,.T.);
#776=EDGE_CURVE('',#656,#657,#936,.T.);
#777=EDGE_CURVE('',#655,#657,#937,.T.);
#778=EDGE_CURVE('',#658,#613,#938,.T.);
#779=EDGE_CURVE('',#658,#659,#939,.T.);
#780=EDGE_CURVE('',#659,#660,#940,.T.);
#781=EDGE_CURVE('',#661,#660,#941,.T.);
#782=EDGE_CURVE('',#661,#642,#942,.T.);
#783=EDGE_CURVE('',#602,#633,#943,.T.);
#784=EDGE_CURVE('',#662,#663,#944,.T.);
#785=EDGE_CURVE('',#662,#664,#945,.T.);
#786=EDGE_CURVE('',#664,#665,#946,.T.);
#787=EDGE_CURVE('',#663,#665,#947,.T.);
#788=EDGE_CURVE('',#653,#666,#948,.T.);
#789=EDGE_CURVE('',#608,#666,#949,.T.);
#790=EDGE_CURVE('',#619,#658,#950,.T.);
#791=EDGE_CURVE('',#667,#668,#951,.T.);
#792=EDGE_CURVE('',#667,#614,#952,.T.);
#793=EDGE_CURVE('',#668,#615,#953,.T.);
#794=EDGE_CURVE('',#669,#609,#954,.T.);
#795=EDGE_CURVE('',#670,#669,#955,.T.);
#796=EDGE_CURVE('',#670,#610,#956,.T.);
#797=EDGE_CURVE('',#666,#669,#957,.T.);
#798=EDGE_CURVE('',#659,#652,#958,.T.);
#799=EDGE_CURVE('',#671,#605,#959,.T.);
#800=EDGE_CURVE('',#672,#671,#960,.T.);
#801=EDGE_CURVE('',#673,#672,#961,.T.);
#802=EDGE_CURVE('',#673,#667,#962,.T.);
#803=EDGE_CURVE('',#668,#674,#963,.T.);
#804=EDGE_CURVE('',#674,#675,#964,.T.);
#805=EDGE_CURVE('',#675,#670,#965,.T.);
#806=EDGE_CURVE('',#676,#638,#966,.T.);
#807=EDGE_CURVE('',#676,#677,#967,.T.);
#808=EDGE_CURVE('',#677,#639,#968,.T.);
#809=EDGE_CURVE('',#640,#678,#969,.T.);
#810=EDGE_CURVE('',#650,#678,#970,.T.);
#811=EDGE_CURVE('',#649,#661,#971,.T.);
#812=EDGE_CURVE('',#660,#651,#972,.T.);
#813=EDGE_CURVE('',#678,#677,#973,.T.);
#814=EDGE_CURVE('',#679,#676,#974,.T.);
#815=EDGE_CURVE('',#680,#679,#975,.T.);
#816=EDGE_CURVE('',#681,#680,#976,.T.);
#817=EDGE_CURVE('',#682,#681,#977,.T.);
#818=EDGE_CURVE('',#683,#682,#978,.T.);
#819=EDGE_CURVE('',#683,#684,#979,.T.);
#820=EDGE_CURVE('',#684,#685,#980,.T.);
#821=EDGE_CURVE('',#685,#634,#981,.T.);
#822=EDGE_CURVE('',#644,#682,#982,.T.);
#823=EDGE_CURVE('',#681,#646,#983,.T.);
#824=EDGE_CURVE('',#664,#655,#984,.T.);
#825=EDGE_CURVE('',#654,#662,#985,.T.);
#826=EDGE_CURVE('',#665,#657,#986,.T.);
#827=EDGE_CURVE('',#656,#663,#987,.T.);
#828=EDGE_CURVE('',#683,#673,#988,.T.);
#829=EDGE_CURVE('',#682,#667,#989,.T.);
#830=EDGE_CURVE('',#636,#606,#990,.T.);
#831=EDGE_CURVE('',#684,#635,#991,.T.);
#832=EDGE_CURVE('',#672,#604,#992,.T.);
#833=EDGE_CURVE('',#686,#672,#993,.T.);
#834=EDGE_CURVE('',#687,#686,#994,.T.);
#835=EDGE_CURVE('',#604,#687,#995,.T.);
#836=EDGE_CURVE('',#688,#688,#36,.T.);
#837=EDGE_CURVE('',#689,#689,#37,.T.);
#838=EDGE_CURVE('',#605,#634,#996,.T.);
#839=EDGE_CURVE('',#687,#690,#997,.T.);
#840=EDGE_CURVE('',#635,#690,#998,.T.);
#841=EDGE_CURVE('',#691,#684,#999,.T.);
#842=EDGE_CURVE('',#690,#691,#1000,.T.);
#843=EDGE_CURVE('',#671,#685,#1001,.T.);
#844=EDGE_CURVE('',#686,#691,#1002,.T.);
#845=EDGE_CURVE('',#692,#692,#38,.T.);
#846=EDGE_CURVE('',#693,#693,#39,.T.);
#847=EDGE_CURVE('',#680,#647,#1003,.T.);
#848=EDGE_CURVE('',#679,#675,#1004,.T.);
#849=EDGE_CURVE('',#674,#618,#1005,.T.);
#850=EDGE_CURVE('',#648,#617,#1006,.T.);
#851=EDGE_CURVE('',#637,#679,#1007,.T.);
#852=EDGE_CURVE('',#675,#611,#1008,.T.);
#853=EDGE_CURVE('',#645,#616,#1009,.T.);
#854=LINE('',#1494,#1010);
#855=LINE('',#1497,#1011);
#856=LINE('',#1499,#1012);
#857=LINE('',#1501,#1013);
#858=LINE('',#1503,#1014);
#859=LINE('',#1506,#1015);
#860=LINE('',#1508,#1016);
#861=LINE('',#1510,#1017);
#862=LINE('',#1512,#1018);
#863=LINE('',#1515,#1019);
#864=LINE('',#1517,#1020);
#865=LINE('',#1519,#1021);
#866=LINE('',#1521,#1022);
#867=LINE('',#1523,#1023);
#868=LINE('',#1525,#1024);
#869=LINE('',#1526,#1025);
#870=LINE('',#1527,#1026);
#871=LINE('',#1529,#1027);
#872=LINE('',#1531,#1028);
#873=LINE('',#1533,#1029);
#874=LINE('',#1535,#1030);
#875=LINE('',#1536,#1031);
#876=LINE('',#1538,#1032);
#877=LINE('',#1540,#1033);
#878=LINE('',#1542,#1034);
#879=LINE('',#1544,#1035);
#880=LINE('',#1546,#1036);
#881=LINE('',#1547,#1037);
#882=LINE('',#1549,#1038);
#883=LINE('',#1551,#1039);
#884=LINE('',#1552,#1040);
#885=LINE('',#1555,#1041);
#886=LINE('',#1557,#1042);
#887=LINE('',#1559,#1043);
#888=LINE('',#1561,#1044);
#889=LINE('',#1564,#1045);
#890=LINE('',#1566,#1046);
#891=LINE('',#1568,#1047);
#892=LINE('',#1571,#1048);
#893=LINE('',#1573,#1049);
#894=LINE('',#1575,#1050);
#895=LINE('',#1577,#1051);
#896=LINE('',#1580,#1052);
#897=LINE('',#1582,#1053);
#898=LINE('',#1584,#1054);
#899=LINE('',#1586,#1055);
#900=LINE('',#1589,#1056);
#901=LINE('',#1591,#1057);
#902=LINE('',#1593,#1058);
#903=LINE('',#1595,#1059);
#904=LINE('',#1596,#1060);
#905=LINE('',#1598,#1061);
#906=LINE('',#1600,#1062);
#907=LINE('',#1601,#1063);
#908=LINE('',#1603,#1064);
#909=LINE('',#1605,#1065);
#910=LINE('',#1607,#1066);
#911=LINE('',#1609,#1067);
#912=LINE('',#1611,#1068);
#913=LINE('',#1613,#1069);
#914=LINE('',#1615,#1070);
#915=LINE('',#1617,#1071);
#916=LINE('',#1619,#1072);
#917=LINE('',#1620,#1073);
#918=LINE('',#1621,#1074);
#919=LINE('',#1623,#1075);
#920=LINE('',#1625,#1076);
#921=LINE('',#1626,#1077);
#922=LINE('',#1629,#1078);
#923=LINE('',#1631,#1079);
#924=LINE('',#1633,#1080);
#925=LINE('',#1635,#1081);
#926=LINE('',#1638,#1082);
#927=LINE('',#1640,#1083);
#928=LINE('',#1642,#1084);
#929=LINE('',#1643,#1085);
#930=LINE('',#1645,#1086);
#931=LINE('',#1647,#1087);
#932=LINE('',#1649,#1088);
#933=LINE('',#1651,#1089);
#934=LINE('',#1652,#1090);
#935=LINE('',#1655,#1091);
#936=LINE('',#1657,#1092);
#937=LINE('',#1659,#1093);
#938=LINE('',#1661,#1094);
#939=LINE('',#1663,#1095);
#940=LINE('',#1665,#1096);
#941=LINE('',#1667,#1097);
#942=LINE('',#1669,#1098);
#943=LINE('',#1670,#1099);
#944=LINE('',#1671,#1100);
#945=LINE('',#1674,#1101);
#946=LINE('',#1676,#1102);
#947=LINE('',#1678,#1103);
#948=LINE('',#1680,#1104);
#949=LINE('',#1682,#1105);
#950=LINE('',#1684,#1106);
#951=LINE('',#1686,#1107);
#952=LINE('',#1689,#1108);
#953=LINE('',#1690,#1109);
#954=LINE('',#1692,#1110);
#955=LINE('',#1694,#1111);
#956=LINE('',#1696,#1112);
#957=LINE('',#1698,#1113);
#958=LINE('',#1699,#1114);
#959=LINE('',#1700,#1115);
#960=LINE('',#1702,#1116);
#961=LINE('',#1704,#1117);
#962=LINE('',#1706,#1118);
#963=LINE('',#1707,#1119);
#964=LINE('',#1709,#1120);
#965=LINE('',#1711,#1121);
#966=LINE('',#1714,#1122);
#967=LINE('',#1716,#1123);
#968=LINE('',#1718,#1124);
#969=LINE('',#1720,#1125);
#970=LINE('',#1722,#1126);
#971=LINE('',#1724,#1127);
#972=LINE('',#1726,#1128);
#973=LINE('',#1727,#1129);
#974=LINE('',#1728,#1130);
#975=LINE('',#1730,#1131);
#976=LINE('',#1732,#1132);
#977=LINE('',#1734,#1133);
#978=LINE('',#1736,#1134);
#979=LINE('',#1738,#1135);
#980=LINE('',#1740,#1136);
#981=LINE('',#1742,#1137);
#982=LINE('',#1744,#1138);
#983=LINE('',#1745,#1139);
#984=LINE('',#1748,#1140);
#985=LINE('',#1749,#1141);
#986=LINE('',#1751,#1142);
#987=LINE('',#1755,#1143);
#988=LINE('',#1758,#1144);
#989=LINE('',#1759,#1145);
#990=LINE('',#1761,#1146);
#991=LINE('',#1762,#1147);
#992=LINE('',#1763,#1148);
#993=LINE('',#1765,#1149);
#994=LINE('',#1767,#1150);
#995=LINE('',#1769,#1151);
#996=LINE('',#1775,#1152);
#997=LINE('',#1776,#1153);
#998=LINE('',#1778,#1154);
#999=LINE('',#1780,#1155);
#1000=LINE('',#1782,#1156);
#1001=LINE('',#1784,#1157);
#1002=LINE('',#1786,#1158);
#1003=LINE('',#1795,#1159);
#1004=LINE('',#1796,#1160);
#1005=LINE('',#1797,#1161);
#1006=LINE('',#1798,#1162);
#1007=LINE('',#1800,#1163);
#1008=LINE('',#1801,#1164);
#1009=LINE('',#1803,#1165);
#1010=VECTOR('',#1225,1.);
#1011=VECTOR('',#1226,1.);
#1012=VECTOR('',#1227,1.);
#1013=VECTOR('',#1228,1.);
#1014=VECTOR('',#1231,1.);
#1015=VECTOR('',#1232,1.);
#1016=VECTOR('',#1233,1.);
#1017=VECTOR('',#1234,1.);
#1018=VECTOR('',#1237,1.);
#1019=VECTOR('',#1238,1.);
#1020=VECTOR('',#1239,1.);
#1021=VECTOR('',#1240,1.);
#1022=VECTOR('',#1243,1.);
#1023=VECTOR('',#1244,1.);
#1024=VECTOR('',#1245,1.);
#1025=VECTOR('',#1246,1.);
#1026=VECTOR('',#1247,1.);
#1027=VECTOR('',#1248,1.);
#1028=VECTOR('',#1249,1.);
#1029=VECTOR('',#1252,1.);
#1030=VECTOR('',#1253,1.);
#1031=VECTOR('',#1254,1.);
#1032=VECTOR('',#1255,1.);
#1033=VECTOR('',#1256,1.);
#1034=VECTOR('',#1257,1.);
#1035=VECTOR('',#1258,1.);
#1036=VECTOR('',#1259,1.);
#1037=VECTOR('',#1260,1.);
#1038=VECTOR('',#1261,1.);
#1039=VECTOR('',#1262,1.);
#1040=VECTOR('',#1263,1.);
#1041=VECTOR('',#1264,1.);
#1042=VECTOR('',#1265,1.);
#1043=VECTOR('',#1266,1.);
#1044=VECTOR('',#1267,1.);
#1045=VECTOR('',#1272,1.);
#1046=VECTOR('',#1273,1.);
#1047=VECTOR('',#1276,1.);
#1048=VECTOR('',#1277,1.);
#1049=VECTOR('',#1278,1.);
#1050=VECTOR('',#1279,1.);
#1051=VECTOR('',#1282,1.);
#1052=VECTOR('',#1283,1.);
#1053=VECTOR('',#1284,1.);
#1054=VECTOR('',#1285,1.);
#1055=VECTOR('',#1288,1.);
#1056=VECTOR('',#1289,1.);
#1057=VECTOR('',#1290,1.);
#1058=VECTOR('',#1291,1.);
#1059=VECTOR('',#1294,1.);
#1060=VECTOR('',#1295,1.);
#1061=VECTOR('',#1296,1.);
#1062=VECTOR('',#1297,1.);
#1063=VECTOR('',#1298,1.);
#1064=VECTOR('',#1299,1.);
#1065=VECTOR('',#1300,1.);
#1066=VECTOR('',#1303,1.);
#1067=VECTOR('',#1304,1.);
#1068=VECTOR('',#1305,1.);
#1069=VECTOR('',#1306,1.);
#1070=VECTOR('',#1307,1.);
#1071=VECTOR('',#1308,1.);
#1072=VECTOR('',#1309,1.);
#1073=VECTOR('',#1310,1.);
#1074=VECTOR('',#1311,1.);
#1075=VECTOR('',#1312,1.);
#1076=VECTOR('',#1313,1.);
#1077=VECTOR('',#1314,1.);
#1078=VECTOR('',#1315,1.);
#1079=VECTOR('',#1316,1.);
#1080=VECTOR('',#1317,1.);
#1081=VECTOR('',#1318,1.);
#1082=VECTOR('',#1323,1.);
#1083=VECTOR('',#1324,1.);
#1084=VECTOR('',#1327,1.);
#1085=VECTOR('',#1328,1.);
#1086=VECTOR('',#1329,1.);
#1087=VECTOR('',#1330,1.);
#1088=VECTOR('',#1331,1.);
#1089=VECTOR('',#1332,1.);
#1090=VECTOR('',#1333,1.);
#1091=VECTOR('',#1334,1.);
#1092=VECTOR('',#1335,1.);
#1093=VECTOR('',#1336,1.);
#1094=VECTOR('',#1339,1.);
#1095=VECTOR('',#1340,1.);
#1096=VECTOR('',#1341,1.);
#1097=VECTOR('',#1342,1.);
#1098=VECTOR('',#1343,1.);
#1099=VECTOR('',#1344,1.);
#1100=VECTOR('',#1345,1.);
#1101=VECTOR('',#1346,1.);
#1102=VECTOR('',#1347,1.);
#1103=VECTOR('',#1348,1.);
#1104=VECTOR('',#1351,1.);
#1105=VECTOR('',#1352,1.);
#1106=VECTOR('',#1355,1.);
#1107=VECTOR('',#1358,1.);
#1108=VECTOR('',#1359,1.);
#1109=VECTOR('',#1360,1.);
#1110=VECTOR('',#1363,1.);
#1111=VECTOR('',#1364,1.);
#1112=VECTOR('',#1365,1.);
#1113=VECTOR('',#1368,1.);
#1114=VECTOR('',#1369,1.);
#1115=VECTOR('',#1370,1.);
#1116=VECTOR('',#1371,1.);
#1117=VECTOR('',#1372,1.);
#1118=VECTOR('',#1373,1.);
#1119=VECTOR('',#1374,1.);
#1120=VECTOR('',#1375,1.);
#1121=VECTOR('',#1376,1.);
#1122=VECTOR('',#1381,1.);
#1123=VECTOR('',#1382,1.);
#1124=VECTOR('',#1383,1.);
#1125=VECTOR('',#1386,1.);
#1126=VECTOR('',#1387,1.);
#1127=VECTOR('',#1390,1.);
#1128=VECTOR('',#1393,1.);
#1129=VECTOR('',#1394,1.);
#1130=VECTOR('',#1395,1.);
#1131=VECTOR('',#1396,1.);
#1132=VECTOR('',#1397,1.);
#1133=VECTOR('',#1398,1.);
#1134=VECTOR('',#1399,1.);
#1135=VECTOR('',#1400,1.);
#1136=VECTOR('',#1401,1.);
#1137=VECTOR('',#1402,1.);
#1138=VECTOR('',#1405,1.);
#1139=VECTOR('',#1406,1.);
#1140=VECTOR('',#1411,1.);
#1141=VECTOR('',#1412,1.);
#1142=VECTOR('',#1415,1.);
#1143=VECTOR('',#1422,1.);
#1144=VECTOR('',#1427,1.);
#1145=VECTOR('',#1428,1.);
#1146=VECTOR('',#1431,1.);
#1147=VECTOR('',#1432,1.);
#1148=VECTOR('',#1433,1.);
#1149=VECTOR('',#1436,1.);
#1150=VECTOR('',#1437,1.);
#1151=VECTOR('',#1438,1.);
#1152=VECTOR('',#1445,1.);
#1153=VECTOR('',#1446,1.);
#1154=VECTOR('',#1447,1.);
#1155=VECTOR('',#1450,1.);
#1156=VECTOR('',#1451,1.);
#1157=VECTOR('',#1454,1.);
#1158=VECTOR('',#1457,1.);
#1159=VECTOR('',#1470,1.);
#1160=VECTOR('',#1471,1.);
#1161=VECTOR('',#1472,1.);
#1162=VECTOR('',#1473,1.);
#1163=VECTOR('',#1476,1.);
#1164=VECTOR('',#1477,1.);
#1165=VECTOR('',#1480,1.);
#1166=AXIS2_PLACEMENT_3D('',#1493,#1223,#1224);
#1167=AXIS2_PLACEMENT_3D('',#1502,#1229,#1230);
#1168=AXIS2_PLACEMENT_3D('',#1511,#1235,#1236);
#1169=AXIS2_PLACEMENT_3D('',#1520,#1241,#1242);
#1170=AXIS2_PLACEMENT_3D('',#1532,#1250,#1251);
#1171=AXIS2_PLACEMENT_3D('',#1562,#1268,#1269);
#1172=AXIS2_PLACEMENT_3D('',#1563,#1270,#1271);
#1173=AXIS2_PLACEMENT_3D('',#1567,#1274,#1275);
#1174=AXIS2_PLACEMENT_3D('',#1576,#1280,#1281);
#1175=AXIS2_PLACEMENT_3D('',#1585,#1286,#1287);
#1176=AXIS2_PLACEMENT_3D('',#1594,#1292,#1293);
#1177=AXIS2_PLACEMENT_3D('',#1606,#1301,#1302);
#1178=AXIS2_PLACEMENT_3D('',#1636,#1319,#1320);
#1179=AXIS2_PLACEMENT_3D('',#1637,#1321,#1322);
#1180=AXIS2_PLACEMENT_3D('',#1641,#1325,#1326);
#1181=AXIS2_PLACEMENT_3D('',#1660,#1337,#1338);
#1182=AXIS2_PLACEMENT_3D('',#1679,#1349,#1350);
#1183=AXIS2_PLACEMENT_3D('',#1683,#1353,#1354);
#1184=AXIS2_PLACEMENT_3D('',#1685,#1356,#1357);
#1185=AXIS2_PLACEMENT_3D('',#1691,#1361,#1362);
#1186=AXIS2_PLACEMENT_3D('',#1697,#1366,#1367);
#1187=AXIS2_PLACEMENT_3D('',#1712,#1377,#1378);
#1188=AXIS2_PLACEMENT_3D('',#1713,#1379,#1380);
#1189=AXIS2_PLACEMENT_3D('',#1719,#1384,#1385);
#1190=AXIS2_PLACEMENT_3D('',#1723,#1388,#1389);
#1191=AXIS2_PLACEMENT_3D('',#1725,#1391,#1392);
#1192=AXIS2_PLACEMENT_3D('',#1743,#1403,#1404);
#1193=AXIS2_PLACEMENT_3D('',#1746,#1407,#1408);
#1194=AXIS2_PLACEMENT_3D('',#1747,#1409,#1410);
#1195=AXIS2_PLACEMENT_3D('',#1750,#1413,#1414);
#1196=AXIS2_PLACEMENT_3D('',#1752,#1416,#1417);
#1197=AXIS2_PLACEMENT_3D('',#1753,#1418,#1419);
#1198=AXIS2_PLACEMENT_3D('',#1754,#1420,#1421);
#1199=AXIS2_PLACEMENT_3D('',#1756,#1423,#1424);
#1200=AXIS2_PLACEMENT_3D('',#1757,#1425,#1426);
#1201=AXIS2_PLACEMENT_3D('',#1760,#1429,#1430);
#1202=AXIS2_PLACEMENT_3D('',#1764,#1434,#1435);
#1203=AXIS2_PLACEMENT_3D('',#1770,#1439,#1440);
#1204=AXIS2_PLACEMENT_3D('',#1771,#1441,#1442);
#1205=AXIS2_PLACEMENT_3D('',#1773,#1443,#1444);
#1206=AXIS2_PLACEMENT_3D('',#1779,#1448,#1449);
#1207=AXIS2_PLACEMENT_3D('',#1783,#1452,#1453);
#1208=AXIS2_PLACEMENT_3D('',#1785,#1455,#1456);
#1209=AXIS2_PLACEMENT_3D('',#1787,#1458,#1459);
#1210=AXIS2_PLACEMENT_3D('',#1788,#1460,#1461);
#1211=AXIS2_PLACEMENT_3D('',#1790,#1462,#1463);
#1212=AXIS2_PLACEMENT_3D('',#1792,#1464,#1465);
#1213=AXIS2_PLACEMENT_3D('',#1793,#1466,#1467);
#1214=AXIS2_PLACEMENT_3D('',#1794,#1468,#1469);
#1215=AXIS2_PLACEMENT_3D('',#1799,#1474,#1475);
#1216=AXIS2_PLACEMENT_3D('',#1802,#1478,#1479);
#1217=AXIS2_PLACEMENT_3D('',#1804,#1481,#1482);
#1218=AXIS2_PLACEMENT_3D('',#1805,#1483,#1484);
#1219=AXIS2_PLACEMENT_3D('',#1806,#1485,#1486);
#1220=AXIS2_PLACEMENT_3D('',#1807,#1487,#1488);
#1221=AXIS2_PLACEMENT_3D('',#1808,#1489,#1490);
#1222=AXIS2_PLACEMENT_3D('',#1809,#1491,#1492);
#1223=DIRECTION('',(0.,0.,1.));
#1224=DIRECTION('',(1.,0.,0.));
#1225=DIRECTION('',(0.,0.,-1.));
#1226=DIRECTION('',(5.20417042793048E-16,-1.,-5.20417042792997E-16));
#1227=DIRECTION('',(0.,0.,-1.));
#1228=DIRECTION('',(5.20417042793048E-16,-1.,0.));
#1229=DIRECTION('',(1.,5.20417042793048E-16,0.));
#1230=DIRECTION('',(-5.20417042793042E-16,1.,0.));
#1231=DIRECTION('',(0.,0.,-1.));
#1232=DIRECTION('',(-5.20417042793048E-16,1.,1.04083408558608E-15));
#1233=DIRECTION('',(0.,0.,-1.));
#1234=DIRECTION('',(5.20417042793048E-16,-1.,0.));
#1235=DIRECTION('',(1.,5.20417042793048E-16,0.));
#1236=DIRECTION('',(-5.20417042793042E-16,1.,0.));
#1237=DIRECTION('',(-4.28626379701573E-16,1.,0.));
#1238=DIRECTION('',(0.,0.,-1.));
#1239=DIRECTION('',(0.,1.,0.));
#1240=DIRECTION('',(0.,0.,-1.));
#1241=DIRECTION('',(-1.,-4.28626379701573E-16,0.));
#1242=DIRECTION('',(4.28626379701573E-16,-1.,0.));
#1243=DIRECTION('',(-1.,0.,0.));
#1244=DIRECTION('',(0.,-4.30211422042241E-14,1.));
#1245=DIRECTION('',(-1.,0.,0.));
#1246=DIRECTION('',(1.,0.,0.));
#1247=DIRECTION('',(-1.,0.,0.));
#1248=DIRECTION('',(-0.422618261740695,0.,0.906307787036652));
#1249=DIRECTION('',(-1.,0.,0.));
#1250=DIRECTION('',(0.,1.,0.));
#1251=DIRECTION('',(0.,0.,1.));
#1252=DIRECTION('',(-1.,0.,0.));
#1253=DIRECTION('',(-1.,0.,0.));
#1254=DIRECTION('',(-1.,0.,0.));
#1255=DIRECTION('',(0.,0.,-1.));
#1256=DIRECTION('',(-1.,-4.16333634234436E-15,0.));
#1257=DIRECTION('',(0.,0.,-1.));
#1258=DIRECTION('',(0.65,2.70616862252383E-15,0.759934207678533));
#1259=DIRECTION('',(0.,0.,1.));
#1260=DIRECTION('',(-1.,0.,0.));
#1261=DIRECTION('',(0.,0.,-1.));
#1262=DIRECTION('',(-1.,0.,0.));
#1263=DIRECTION('',(0.,0.,-1.));
#1264=DIRECTION('',(1.,4.16333634234436E-15,-1.11022302462516E-14));
#1265=DIRECTION('',(-1.11022302462514E-14,-4.62223186652933E-29,1.));
#1266=DIRECTION('',(1.,4.16333634234436E-15,0.));
#1267=DIRECTION('',(-0.65,-2.70616862252383E-15,-0.759934207678533));
#1268=DIRECTION('',(0.,-1.,0.));
#1269=DIRECTION('',(0.,0.,-1.));
#1270=DIRECTION('',(0.,0.,-1.));
#1271=DIRECTION('',(-1.,0.,0.));
#1272=DIRECTION('',(-1.,0.,0.));
#1273=DIRECTION('',(0.,1.,0.));
#1274=DIRECTION('',(0.,0.,-1.));
#1275=DIRECTION('',(-1.,0.,0.));
#1276=DIRECTION('',(5.20417042793048E-16,1.,5.20417042792997E-16));
#1277=DIRECTION('',(0.,0.,-1.));
#1278=DIRECTION('',(5.20417042793048E-16,1.,0.));
#1279=DIRECTION('',(0.,0.,-1.));
#1280=DIRECTION('',(-1.,5.20417042793048E-16,0.));
#1281=DIRECTION('',(-5.20417042793042E-16,-1.,0.));
#1282=DIRECTION('',(-5.20417042793048E-16,-1.,-1.04083408558608E-15));
#1283=DIRECTION('',(0.,0.,-1.));
#1284=DIRECTION('',(5.20417042793048E-16,1.,0.));
#1285=DIRECTION('',(0.,0.,-1.));
#1286=DIRECTION('',(-1.,5.20417042793048E-16,0.));
#1287=DIRECTION('',(-5.20417042793042E-16,-1.,0.));
#1288=DIRECTION('',(-4.28626379701573E-16,-1.,0.));
#1289=DIRECTION('',(0.,0.,-1.));
#1290=DIRECTION('',(0.,-1.,0.));
#1291=DIRECTION('',(0.,0.,-1.));
#1292=DIRECTION('',(1.,-4.28626379701573E-16,0.));
#1293=DIRECTION('',(4.28626379701573E-16,1.,0.));
#1294=DIRECTION('',(1.,0.,0.));
#1295=DIRECTION('',(-1.,0.,0.));
#1296=DIRECTION('',(0.,4.30211422042241E-14,1.));
#1297=DIRECTION('',(-1.,0.,0.));
#1298=DIRECTION('',(-1.,0.,0.));
#1299=DIRECTION('',(-0.422618261740695,0.,0.906307787036652));
#1300=DIRECTION('',(-1.,0.,0.));
#1301=DIRECTION('',(0.,1.,0.));
#1302=DIRECTION('',(0.,0.,1.));
#1303=DIRECTION('',(-1.,0.,0.));
#1304=DIRECTION('',(0.,0.,-1.));
#1305=DIRECTION('',(0.65,-2.70616862252382E-15,0.759934207678533));
#1306=DIRECTION('',(0.,0.,-1.));
#1307=DIRECTION('',(-1.,4.16333634234433E-15,0.));
#1308=DIRECTION('',(0.,0.,-1.));
#1309=DIRECTION('',(-1.,0.,0.));
#1310=DIRECTION('',(-1.,0.,0.));
#1311=DIRECTION('',(-1.,0.,0.));
#1312=DIRECTION('',(0.,0.,-1.));
#1313=DIRECTION('',(-1.,0.,0.));
#1314=DIRECTION('',(1.,-4.16333634234433E-15,-1.11022302462516E-14));
#1315=DIRECTION('',(0.,0.,-1.));
#1316=DIRECTION('',(-0.65,2.70616862252382E-15,-0.759934207678534));
#1317=DIRECTION('',(1.,-4.16333634234433E-15,0.));
#1318=DIRECTION('',(-1.11022302462514E-14,4.62223186652931E-29,1.));
#1319=DIRECTION('',(0.,-1.,0.));
#1320=DIRECTION('',(0.,0.,-1.));
#1321=DIRECTION('',(0.,0.,1.));
#1322=DIRECTION('',(1.,0.,0.));
#1323=DIRECTION('',(0.,-1.,0.));
#1324=DIRECTION('',(-1.,0.,0.));
#1325=DIRECTION('',(0.,0.,1.));
#1326=DIRECTION('',(1.,0.,0.));
#1327=DIRECTION('',(0.,1.,0.));
#1328=DIRECTION('',(0.,-1.,-5.20417042792997E-16));
#1329=DIRECTION('',(-1.,0.,0.));
#1330=DIRECTION('',(0.,1.,0.));
#1331=DIRECTION('',(-1.,0.,0.));
#1332=DIRECTION('',(0.,1.,5.20417042792997E-16));
#1333=DIRECTION('',(-1.,0.,0.));
#1334=DIRECTION('',(0.,1.,0.));
#1335=DIRECTION('',(-1.,0.,0.));
#1336=DIRECTION('',(0.,1.,0.));
#1337=DIRECTION('',(0.,-5.20417042792997E-16,1.));
#1338=DIRECTION('',(0.,-1.,-5.20417042793042E-16));
#1339=DIRECTION('',(0.,-1.,-1.04083408558608E-15));
#1340=DIRECTION('',(-1.,0.,0.));
#1341=DIRECTION('',(0.,1.,0.));
#1342=DIRECTION('',(-1.,0.,0.));
#1343=DIRECTION('',(0.,1.,1.04083408558608E-15));
#1344=DIRECTION('',(0.,1.,0.));
#1345=DIRECTION('',(0.,1.,0.));
#1346=DIRECTION('',(-1.,0.,0.));
#1347=DIRECTION('',(0.,1.,0.));
#1348=DIRECTION('',(-1.,0.,0.));
#1349=DIRECTION('',(0.,1.04083408558608E-15,-1.));
#1350=DIRECTION('',(0.,1.,1.04083408558608E-15));
#1351=DIRECTION('',(0.,0.,-1.));
#1352=DIRECTION('',(0.,1.,0.));
#1353=DIRECTION('',(-1.,0.,0.));
#1354=DIRECTION('',(0.,0.,1.));
#1355=DIRECTION('',(0.,0.,-1.));
#1356=DIRECTION('',(-1.,0.,0.));
#1357=DIRECTION('',(0.,0.,1.));
#1358=DIRECTION('',(0.,0.,-1.));
#1359=DIRECTION('',(0.,-1.,0.));
#1360=DIRECTION('',(0.,-1.,0.));
#1361=DIRECTION('',(1.,0.,0.));
#1362=DIRECTION('',(0.,0.,-1.));
#1363=DIRECTION('',(0.,-1.,0.));
#1364=DIRECTION('',(0.,0.,-1.));
#1365=DIRECTION('',(0.,-1.,0.));
#1366=DIRECTION('',(1.,0.,0.));
#1367=DIRECTION('',(0.,0.,-1.));
#1368=DIRECTION('',(1.,-4.16333634234433E-15,0.));
#1369=DIRECTION('',(0.,4.30211422042241E-14,-1.));
#1370=DIRECTION('',(-0.906307787036642,0.,-0.422618261740716));
#1371=DIRECTION('',(0.422618261740697,0.,-0.906307787036651));
#1372=DIRECTION('',(-1.,0.,0.));
#1373=DIRECTION('',(0.,0.,-1.));
#1374=DIRECTION('',(0.65,-2.70616862252382E-15,0.759934207678533));
#1375=DIRECTION('',(1.,-4.16333634234433E-15,-8.43696454564969E-15));
#1376=DIRECTION('',(-0.65,2.70616862252382E-15,-0.759934207678533));
#1377=DIRECTION('',(4.16333634234433E-15,1.,0.));
#1378=DIRECTION('',(-1.,4.16333634234434E-15,0.));
#1379=DIRECTION('',(0.,0.,-1.));
#1380=DIRECTION('',(-1.,0.,0.));
#1381=DIRECTION('',(0.,1.,0.));
#1382=DIRECTION('',(0.,0.,-1.));
#1383=DIRECTION('',(0.,1.,0.));
#1384=DIRECTION('',(-1.,0.,0.));
#1385=DIRECTION('',(0.,0.,1.));
#1386=DIRECTION('',(0.,-1.,0.));
#1387=DIRECTION('',(0.,0.,-1.));
#1388=DIRECTION('',(1.,0.,0.));
#1389=DIRECTION('',(0.,0.,-1.));
#1390=DIRECTION('',(0.,0.,-1.));
#1391=DIRECTION('',(1.,0.,0.));
#1392=DIRECTION('',(0.,0.,-1.));
#1393=DIRECTION('',(0.,-4.30211422042241E-14,-1.));
#1394=DIRECTION('',(1.,4.16333634234433E-15,0.));
#1395=DIRECTION('',(-0.65,-2.70616862252382E-15,-0.759934207678533));
#1396=DIRECTION('',(1.,4.16333634234433E-15,-8.43696454564969E-15));
#1397=DIRECTION('',(0.65,2.70616862252382E-15,0.759934207678534));
#1398=DIRECTION('',(0.,0.,-1.));
#1399=DIRECTION('',(0.,0.,-1.));
#1400=DIRECTION('',(-1.,0.,0.));
#1401=DIRECTION('',(0.422618261740697,0.,-0.906307787036651));
#1402=DIRECTION('',(-0.906307787036642,0.,-0.422618261740716));
#1403=DIRECTION('',(-4.16333634234433E-15,1.,0.));
#1404=DIRECTION('',(-1.,-4.16333634234434E-15,0.));
#1405=DIRECTION('',(0.,-1.,0.));
#1406=DIRECTION('',(0.,1.,0.));
#1407=DIRECTION('',(-1.,0.,0.));
#1408=DIRECTION('',(0.,0.,1.));
#1409=DIRECTION('',(0.,0.,1.));
#1410=DIRECTION('',(1.,0.,0.));
#1411=DIRECTION('',(0.,4.30211422042241E-14,-1.));
#1412=DIRECTION('',(0.,-4.30211422042241E-14,1.));
#1413=DIRECTION('',(0.,-1.,-4.30211422042241E-14));
#1414=DIRECTION('',(0.,4.30211422042248E-14,-1.));
#1415=DIRECTION('',(0.,-4.30211422042241E-14,-1.));
#1416=DIRECTION('',(-1.,0.,0.));
#1417=DIRECTION('',(0.,0.,1.));
#1418=DIRECTION('',(1.,0.,0.));
#1419=DIRECTION('',(0.,0.,-1.));
#1420=DIRECTION('',(-1.,0.,0.));
#1421=DIRECTION('',(0.,0.,1.));
#1422=DIRECTION('',(0.,4.30211422042241E-14,1.));
#1423=DIRECTION('',(1.,0.,0.));
#1424=DIRECTION('',(0.,0.,-1.));
#1425=DIRECTION('',(0.,-1.,4.30211422042241E-14));
#1426=DIRECTION('',(0.,-4.30211422042248E-14,-1.));
#1427=DIRECTION('',(0.,-1.,0.));
#1428=DIRECTION('',(0.,-1.,0.));
#1429=DIRECTION('',(1.,0.,0.));
#1430=DIRECTION('',(0.,0.,-1.));
#1431=DIRECTION('',(0.,-1.,0.));
#1432=DIRECTION('',(-1.,0.,0.));
#1433=DIRECTION('',(-1.,0.,0.));
#1434=DIRECTION('',(0.,0.,1.));
#1435=DIRECTION('',(1.,0.,0.));
#1436=DIRECTION('',(0.422618261740697,0.,-0.906307787036651));
#1437=DIRECTION('',(0.90630778703664,0.,0.42261826174072));
#1438=DIRECTION('',(-0.422618261740695,0.,0.906307787036652));
#1439=DIRECTION('',(0.,1.,0.));
#1440=DIRECTION('',(0.,0.,1.));
#1441=DIRECTION('',(0.90630778703665,0.,0.422618261740699));
#1442=DIRECTION('',(0.4226182617407,0.,-0.906307787036598));
#1443=DIRECTION('',(0.90630778703665,0.,0.422618261740699));
#1444=DIRECTION('',(0.4226182617407,0.,-0.906307787036598));
#1445=DIRECTION('',(0.,1.,0.));
#1446=DIRECTION('',(0.,1.,0.));
#1447=DIRECTION('',(-0.422618261740695,0.,0.906307787036652));
#1448=DIRECTION('',(0.906307787036652,0.,0.422618261740695));
#1449=DIRECTION('',(0.422618261740695,0.,-0.906307787036652));
#1450=DIRECTION('',(0.422618261740697,0.,-0.906307787036651));
#1451=DIRECTION('',(0.90630778703664,0.,0.42261826174072));
#1452=DIRECTION('',(0.,1.,0.));
#1453=DIRECTION('',(0.,0.,1.));
#1454=DIRECTION('',(0.,1.,0.));
#1455=DIRECTION('',(-0.422618261740716,0.,0.906307787036642));
#1456=DIRECTION('',(0.906307787036642,0.,0.422618261740716));
#1457=DIRECTION('',(0.,1.,0.));
#1458=DIRECTION('',(0.42261826174072,0.,-0.90630778703664));
#1459=DIRECTION('',(-0.90630778703664,0.,-0.42261826174072));
#1460=DIRECTION('',(-0.906307787036651,0.,-0.422618261740696));
#1461=DIRECTION('',(-0.422618261740696,0.,0.906307787036598));
#1462=DIRECTION('',(-0.906307787036651,0.,-0.422618261740696));
#1463=DIRECTION('',(-0.422618261740696,0.,0.906307787036598));
#1464=DIRECTION('',(-0.906307787036651,0.,-0.422618261740696));
#1465=DIRECTION('',(-0.422618261740697,0.,0.906307787036652));
#1466=DIRECTION('',(0.90630778703665,0.,0.422618261740699));
#1467=DIRECTION('',(0.4226182617407,0.,-0.906307787036598));
#1468=DIRECTION('',(0.90630778703665,0.,0.422618261740699));
#1469=DIRECTION('',(0.4226182617407,0.,-0.906307787036598));
#1470=DIRECTION('',(0.,1.,0.));
#1471=DIRECTION('',(0.,-1.,0.));
#1472=DIRECTION('',(0.,-1.,0.));
#1473=DIRECTION('',(0.,-1.,0.));
#1474=DIRECTION('',(0.,0.,1.));
#1475=DIRECTION('',(1.,0.,0.));
#1476=DIRECTION('',(0.,-1.,0.));
#1477=DIRECTION('',(0.,-1.,0.));
#1478=DIRECTION('',(-1.,0.,0.));
#1479=DIRECTION('',(0.,0.,1.));
#1480=DIRECTION('',(0.,-1.,0.));
#1481=DIRECTION('',(-1.,0.,-1.11022302462514E-14));
#1482=DIRECTION('',(-1.11022302462516E-14,0.,1.));
#1483=DIRECTION('',(1.11022302462516E-14,0.,1.));
#1484=DIRECTION('',(1.,0.,-1.11022302462516E-14));
#1485=DIRECTION('',(-0.759934207678533,0.,0.65));
#1486=DIRECTION('',(0.65,0.,0.759934207678533));
#1487=DIRECTION('',(0.759934207678533,0.,-0.65));
#1488=DIRECTION('',(-0.65,0.,-0.759934207678533));
#1489=DIRECTION('',(-0.759934207678533,0.,0.65));
#1490=DIRECTION('',(0.65,0.,0.759934207678533));
#1491=DIRECTION('',(0.759934207678534,0.,-0.65));
#1492=DIRECTION('',(-0.65,0.,-0.759934207678534));
#1493=CARTESIAN_POINT('',(0.,0.,0.));
#1494=CARTESIAN_POINT('',(20.0000000000001,-205.,1250.));
#1495=CARTESIAN_POINT('',(20.0000000000005,-204.999999999998,30.));
#1496=CARTESIAN_POINT('',(20.0000000000001,-205.,0.));
#1497=CARTESIAN_POINT('',(20.0000000000001,-205.,30.));
#1498=CARTESIAN_POINT('',(20.0000000000005,-224.999999999999,30.));
#1499=CARTESIAN_POINT('',(20.0000000000001,-225.,1250.));
#1500=CARTESIAN_POINT('',(20.0000000000001,-225.,0.));
#1501=CARTESIAN_POINT('',(20.0000000000001,-205.,0.));
#1502=CARTESIAN_POINT('',(20.0000000000001,-205.,1250.));
#1503=CARTESIAN_POINT('',(20.0000000000001,-225.,1250.));
#1504=CARTESIAN_POINT('',(20.0000000000001,-225.,1250.));
#1505=CARTESIAN_POINT('',(20.0000000000005,-224.999999999998,50.0000000000003));
#1506=CARTESIAN_POINT('',(20.0000000000001,-204.999999999999,50.0000000000003));
#1507=CARTESIAN_POINT('',(20.0000000000001,-205.,50.0000000000003));
#1508=CARTESIAN_POINT('',(20.0000000000001,-205.,1250.));
#1509=CARTESIAN_POINT('',(20.0000000000005,-205.000000000001,1250.));
#1510=CARTESIAN_POINT('',(20.0000000000001,-205.,1250.));
#1511=CARTESIAN_POINT('',(20.0000000000001,-205.,1250.));
#1512=CARTESIAN_POINT('',(6.5606778323922E-14,-225.,0.));
#1513=CARTESIAN_POINT('',(6.5606778323922E-14,-225.,0.));
#1514=CARTESIAN_POINT('',(5.70342507298906E-14,-205.,0.));
#1515=CARTESIAN_POINT('',(6.5606778323922E-14,-225.,1250.));
#1516=CARTESIAN_POINT('',(0.,-225.000000000003,1270.));
#1517=CARTESIAN_POINT('',(0.,-225.000000000003,1270.));
#1518=CARTESIAN_POINT('',(0.,-205.000000000001,1270.));
#1519=CARTESIAN_POINT('',(5.70342507298906E-14,-205.,1250.));
#1520=CARTESIAN_POINT('',(6.5606778323922E-14,-225.,1250.));
#1521=CARTESIAN_POINT('',(5841.,-204.999999999998,50.0000000000003));
#1522=CARTESIAN_POINT('',(120.,-204.999999999998,50.));
#1523=CARTESIAN_POINT('',(120.,-204.999999999998,30.));
#1524=CARTESIAN_POINT('',(120.,-204.999999999998,30.));
#1525=CARTESIAN_POINT('',(5841.,-204.999999999998,30.));
#1526=CARTESIAN_POINT('',(5.6843418860808E-14,-205.,0.));
#1527=CARTESIAN_POINT('',(5841.,-205.000000000001,1270.));
#1528=CARTESIAN_POINT('',(20.6738468368998,-205.000000000001,1270.));
#1529=CARTESIAN_POINT('',(17.3214521477791,-205.000000000001,1277.1892336111));
#1530=CARTESIAN_POINT('',(30.0000000000051,-205.000000000001,1250.));
#1531=CARTESIAN_POINT('',(5841.,-205.000000000001,1250.));
#1532=CARTESIAN_POINT('',(5.6843418860808E-14,-205.,1250.));
#1533=CARTESIAN_POINT('',(5841.,-225.000000000003,1270.));
#1534=CARTESIAN_POINT('',(1240.,-224.999999999997,1270.));
#1535=CARTESIAN_POINT('',(20.0000000000001,-225.,0.));
#1536=CARTESIAN_POINT('',(5841.,-224.999999999999,30.));
#1537=CARTESIAN_POINT('',(570.,-224.999999999999,30.));
#1538=CARTESIAN_POINT('',(570.,-225.,1250.));
#1539=CARTESIAN_POINT('',(570.,-225.,0.));
#1540=CARTESIAN_POINT('',(590.,-225.,0.));
#1541=CARTESIAN_POINT('',(590.,-225.,0.));
#1542=CARTESIAN_POINT('',(590.,-225.,1250.));
#1543=CARTESIAN_POINT('',(590.,-225.,505.065792321467));
#1544=CARTESIAN_POINT('',(1240.,-224.999999999997,1265.));
#1545=CARTESIAN_POINT('',(1240.,-224.999999999997,1265.));
#1546=CARTESIAN_POINT('',(1240.,-224.999999999997,1270.));
#1547=CARTESIAN_POINT('',(5841.,-225.000000000003,1250.));
#1548=CARTESIAN_POINT('',(570.,-225.000000000003,1250.));
#1549=CARTESIAN_POINT('',(570.,-225.,1250.));
#1550=CARTESIAN_POINT('',(570.,-225.,50.0000000000003));
#1551=CARTESIAN_POINT('',(5841.,-224.999999999998,50.0000000000003));
#1552=CARTESIAN_POINT('',(590.,-225.,1250.));
#1553=CARTESIAN_POINT('',(590.,-225.,1245.));
#1554=CARTESIAN_POINT('',(590.,-224.999999999999,535.835023090698));
#1555=CARTESIAN_POINT('',(610.00000000001,-225.,1245.));
#1556=CARTESIAN_POINT('',(610.,-225.,1245.));
#1557=CARTESIAN_POINT('',(610.,-225.,1265.));
#1558=CARTESIAN_POINT('',(610.,-225.,1265.));
#1559=CARTESIAN_POINT('',(1240.00000000001,-224.999999999997,1265.));
#1560=CARTESIAN_POINT('',(1213.68193220161,-224.999999999997,1265.));
#1561=CARTESIAN_POINT('',(590.000000000004,-225.,535.835023090701));
#1562=CARTESIAN_POINT('',(20.0000000000001,-225.,1250.));
#1563=CARTESIAN_POINT('',(0.,0.,0.));
#1564=CARTESIAN_POINT('',(5841.,-205.000000000001,1250.));
#1565=CARTESIAN_POINT('',(570.,-205.,1250.));
#1566=CARTESIAN_POINT('',(570.,-225.,1250.));
#1567=CARTESIAN_POINT('',(5841.,-205.000000000001,1250.));
#1568=CARTESIAN_POINT('',(20.0000000000001,205.000000000001,30.0000000000002));
#1569=CARTESIAN_POINT('',(20.0000000000001,205.,30.0000000000002));
#1570=CARTESIAN_POINT('',(20.0000000000001,225.,30.0000000000002));
#1571=CARTESIAN_POINT('',(20.0000000000001,205.,1250.));
#1572=CARTESIAN_POINT('',(20.0000000000001,205.,0.));
#1573=CARTESIAN_POINT('',(20.0000000000001,205.,0.));
#1574=CARTESIAN_POINT('',(20.0000000000001,225.,0.));
#1575=CARTESIAN_POINT('',(20.0000000000001,225.,1250.));
#1576=CARTESIAN_POINT('',(20.0000000000001,205.,1250.));
#1577=CARTESIAN_POINT('',(20.0000000000001,205.000000000001,50.0000000000007));
#1578=CARTESIAN_POINT('',(20.0000000000001,225.,50.0000000000007));
#1579=CARTESIAN_POINT('',(20.0000000000005,204.999999999998,50.0000000000003));
#1580=CARTESIAN_POINT('',(20.0000000000001,225.,1250.));
#1581=CARTESIAN_POINT('',(20.0000000000005,225.000000000003,1250.));
#1582=CARTESIAN_POINT('',(20.0000000000001,205.,1250.));
#1583=CARTESIAN_POINT('',(20.0000000000001,205.,1250.));
#1584=CARTESIAN_POINT('',(20.0000000000001,205.,1250.));
#1585=CARTESIAN_POINT('',(20.0000000000001,205.,1250.));
#1586=CARTESIAN_POINT('',(6.5606778323922E-14,225.,0.));
#1587=CARTESIAN_POINT('',(6.5606778323922E-14,225.,0.));
#1588=CARTESIAN_POINT('',(5.70342507298906E-14,205.,0.));
#1589=CARTESIAN_POINT('',(5.70342507298906E-14,205.,1250.));
#1590=CARTESIAN_POINT('',(0.,205.000000000001,1270.));
#1591=CARTESIAN_POINT('',(0.,225.000000000003,1270.));
#1592=CARTESIAN_POINT('',(0.,225.000000000003,1270.));
#1593=CARTESIAN_POINT('',(6.5606778323922E-14,225.,1250.));
#1594=CARTESIAN_POINT('',(6.5606778323922E-14,225.,1250.));
#1595=CARTESIAN_POINT('',(5.6843418860808E-14,205.,0.));
#1596=CARTESIAN_POINT('',(5841.,204.999999999998,30.));
#1597=CARTESIAN_POINT('',(120.,204.999999999998,30.));
#1598=CARTESIAN_POINT('',(120.,204.999999999998,30.));
#1599=CARTESIAN_POINT('',(120.,204.999999999998,50.0000000000003));
#1600=CARTESIAN_POINT('',(5841.,204.999999999998,50.0000000000003));
#1601=CARTESIAN_POINT('',(5841.,205.000000000001,1250.));
#1602=CARTESIAN_POINT('',(30.0000000000051,205.000000000001,1250.));
#1603=CARTESIAN_POINT('',(17.3214521477791,205.000000000001,1277.1892336111));
#1604=CARTESIAN_POINT('',(20.6738468369001,205.000000000001,1270.));
#1605=CARTESIAN_POINT('',(5841.,205.000000000001,1270.));
#1606=CARTESIAN_POINT('',(5.6843418860808E-14,205.,1250.));
#1607=CARTESIAN_POINT('',(5841.,225.000000000003,1270.));
#1608=CARTESIAN_POINT('',(1240.,224.999999999997,1270.));
#1609=CARTESIAN_POINT('',(1240.,224.999999999997,1270.));
#1610=CARTESIAN_POINT('',(1240.,224.999999999997,1265.));
#1611=CARTESIAN_POINT('',(590.000000000004,225.,505.065792321471));
#1612=CARTESIAN_POINT('',(590.,224.999999999999,505.065792321467));
#1613=CARTESIAN_POINT('',(590.,225.,1250.));
#1614=CARTESIAN_POINT('',(590.,225.,0.));
#1615=CARTESIAN_POINT('',(590.,225.,0.));
#1616=CARTESIAN_POINT('',(570.,225.,0.));
#1617=CARTESIAN_POINT('',(570.,225.,1250.));
#1618=CARTESIAN_POINT('',(570.,225.,30.0000000000002));
#1619=CARTESIAN_POINT('',(5841.,224.999999999999,30.));
#1620=CARTESIAN_POINT('',(20.0000000000001,225.,0.));
#1621=CARTESIAN_POINT('',(5841.,224.999999999998,50.0000000000003));
#1622=CARTESIAN_POINT('',(570.,224.999999999998,50.0000000000003));
#1623=CARTESIAN_POINT('',(570.,225.,1250.));
#1624=CARTESIAN_POINT('',(570.,225.,1250.));
#1625=CARTESIAN_POINT('',(5841.,225.000000000003,1250.));
#1626=CARTESIAN_POINT('',(609.999999999992,225.,1245.));
#1627=CARTESIAN_POINT('',(590.,225.,1245.));
#1628=CARTESIAN_POINT('',(610.,225.,1245.));
#1629=CARTESIAN_POINT('',(590.,225.,1250.));
#1630=CARTESIAN_POINT('',(590.,225.,535.835023090698));
#1631=CARTESIAN_POINT('',(1213.68193220161,224.999999999997,1265.));
#1632=CARTESIAN_POINT('',(1213.68193220161,224.999999999997,1265.));
#1633=CARTESIAN_POINT('',(1239.99999999999,224.999999999997,1265.));
#1634=CARTESIAN_POINT('',(610.,225.,1265.));
#1635=CARTESIAN_POINT('',(610.,225.,1265.));
#1636=CARTESIAN_POINT('',(20.0000000000001,225.,1250.));
#1637=CARTESIAN_POINT('',(0.,0.,0.));
#1638=CARTESIAN_POINT('',(570.,225.,1250.));
#1639=CARTESIAN_POINT('',(570.,205.000000000001,1250.));
#1640=CARTESIAN_POINT('',(5841.,205.000000000001,1250.));
#1641=CARTESIAN_POINT('',(5841.,205.000000000001,1250.));
#1642=CARTESIAN_POINT('',(120.,-2227.49999999999,30.));
#1643=CARTESIAN_POINT('',(570.,225.000000000001,30.0000000000002));
#1644=CARTESIAN_POINT('',(570.,205.,30.0000000000002));
#1645=CARTESIAN_POINT('',(5841.,204.999999999998,30.));
#1646=CARTESIAN_POINT('',(470.,204.999999999997,30.0000000000005));
#1647=CARTESIAN_POINT('',(470.,-2227.49999999999,30.0000000000005));
#1648=CARTESIAN_POINT('',(470.,-204.999999999998,30.));
#1649=CARTESIAN_POINT('',(5841.,-204.999999999998,30.));
#1650=CARTESIAN_POINT('',(570.,-204.999999999998,30.));
#1651=CARTESIAN_POINT('',(570.,-224.999999999999,30.));
#1652=CARTESIAN_POINT('',(5841.,-204.999999999998,30.));
#1653=CARTESIAN_POINT('',(450.,-204.999999999998,30.));
#1654=CARTESIAN_POINT('',(140.,-204.999999999998,30.));
#1655=CARTESIAN_POINT('',(450.,-2227.49999999999,30.0000000000005));
#1656=CARTESIAN_POINT('',(450.,204.999999999997,30.0000000000005));
#1657=CARTESIAN_POINT('',(5841.,204.999999999998,30.));
#1658=CARTESIAN_POINT('',(140.,204.999999999998,30.));
#1659=CARTESIAN_POINT('',(140.,-2227.49999999999,30.));
#1660=CARTESIAN_POINT('',(5841.,-224.999999999999,30.));
#1661=CARTESIAN_POINT('',(570.,-224.999999999999,50.0000000000003));
#1662=CARTESIAN_POINT('',(570.,-204.999999999998,50.0000000000003));
#1663=CARTESIAN_POINT('',(5841.,-204.999999999998,50.0000000000003));
#1664=CARTESIAN_POINT('',(470.,-204.999999999998,50.0000000000003));
#1665=CARTESIAN_POINT('',(470.,-2227.49999999999,50.0000000000006));
#1666=CARTESIAN_POINT('',(470.,204.999999999998,50.0000000000006));
#1667=CARTESIAN_POINT('',(5841.,204.999999999998,50.0000000000003));
#1668=CARTESIAN_POINT('',(570.,205.,50.0000000000007));
#1669=CARTESIAN_POINT('',(570.,225.000000000001,50.0000000000007));
#1670=CARTESIAN_POINT('',(120.,-2227.49999999999,50.));
#1671=CARTESIAN_POINT('',(450.,-2227.49999999999,50.0000000000006));
#1672=CARTESIAN_POINT('',(450.,-204.999999999998,50.0000000000006));
#1673=CARTESIAN_POINT('',(450.,204.999999999998,50.0000000000003));
#1674=CARTESIAN_POINT('',(5841.,-204.999999999998,50.0000000000003));
#1675=CARTESIAN_POINT('',(140.,-204.999999999998,50.0000000000003));
#1676=CARTESIAN_POINT('',(140.,-2227.49999999999,50.));
#1677=CARTESIAN_POINT('',(140.,204.999999999998,50.));
#1678=CARTESIAN_POINT('',(5841.,204.999999999998,50.0000000000003));
#1679=CARTESIAN_POINT('',(5841.,-204.999999999998,50.0000000000003));
#1680=CARTESIAN_POINT('',(570.,-205.,1250.));
#1681=CARTESIAN_POINT('',(570.,-205.,0.));
#1682=CARTESIAN_POINT('',(570.,-225.,0.));
#1683=CARTESIAN_POINT('',(570.,-225.,1250.));
#1684=CARTESIAN_POINT('',(570.,-205.,1250.));
#1685=CARTESIAN_POINT('',(570.,-225.,1250.));
#1686=CARTESIAN_POINT('',(590.,-205.,1250.));
#1687=CARTESIAN_POINT('',(590.,-205.,1245.));
#1688=CARTESIAN_POINT('',(590.,-205.,535.835023090698));
#1689=CARTESIAN_POINT('',(590.,2227.5,1245.));
#1690=CARTESIAN_POINT('',(590.,1578.5,535.835023090698));
#1691=CARTESIAN_POINT('',(590.,-205.,1250.));
#1692=CARTESIAN_POINT('',(590.,-205.,0.));
#1693=CARTESIAN_POINT('',(590.,-205.,0.));
#1694=CARTESIAN_POINT('',(590.,-205.,1250.));
#1695=CARTESIAN_POINT('',(590.,-205.,505.065792321467));
#1696=CARTESIAN_POINT('',(590.,1578.5,505.065792321467));
#1697=CARTESIAN_POINT('',(590.,-205.,1250.));
#1698=CARTESIAN_POINT('',(570.,-205.,0.));
#1699=CARTESIAN_POINT('',(470.,-204.999999999998,30.));
#1700=CARTESIAN_POINT('',(30.,-205.000000000001,1250.));
#1701=CARTESIAN_POINT('',(34.5315389351831,-205.000000000001,1252.1130913087));
#1702=CARTESIAN_POINT('',(34.5315389351831,-205.000000000001,1252.1130913087));
#1703=CARTESIAN_POINT('',(26.1907364317136,-205.000000000001,1270.));
#1704=CARTESIAN_POINT('',(5841.,-205.000000000001,1270.));
#1705=CARTESIAN_POINT('',(590.,-205.000000000001,1270.));
#1706=CARTESIAN_POINT('',(590.,-205.,1250.));
#1707=CARTESIAN_POINT('',(589.999999999997,-205.,535.835023090694));
#1708=CARTESIAN_POINT('',(1213.68193220161,-205.000000000003,1265.));
#1709=CARTESIAN_POINT('',(1213.6819322016,-205.000000000003,1265.));
#1710=CARTESIAN_POINT('',(1240.,-205.000000000003,1265.));
#1711=CARTESIAN_POINT('',(1240.,-205.000000000003,1265.));
#1712=CARTESIAN_POINT('',(570.,-205.,1250.));
#1713=CARTESIAN_POINT('',(0.,0.,0.));
#1714=CARTESIAN_POINT('',(590.,-1578.5,505.065792321467));
#1715=CARTESIAN_POINT('',(590.,205.000000000001,505.065792321467));
#1716=CARTESIAN_POINT('',(590.,205.,1250.));
#1717=CARTESIAN_POINT('',(590.,205.,0.));
#1718=CARTESIAN_POINT('',(590.,205.,0.));
#1719=CARTESIAN_POINT('',(590.,205.,1250.));
#1720=CARTESIAN_POINT('',(570.,225.,0.));
#1721=CARTESIAN_POINT('',(570.,205.,0.));
#1722=CARTESIAN_POINT('',(570.,205.,1250.));
#1723=CARTESIAN_POINT('',(570.,225.,1250.));
#1724=CARTESIAN_POINT('',(570.,205.,1250.));
#1725=CARTESIAN_POINT('',(570.,225.,1250.));
#1726=CARTESIAN_POINT('',(470.,204.999999999998,30.));
#1727=CARTESIAN_POINT('',(570.,205.,0.));
#1728=CARTESIAN_POINT('',(589.999999999997,205.,505.065792321463));
#1729=CARTESIAN_POINT('',(1240.,205.000000000002,1265.));
#1730=CARTESIAN_POINT('',(1239.99999999999,205.000000000003,1265.));
#1731=CARTESIAN_POINT('',(1213.68193220161,205.000000000003,1265.));
#1732=CARTESIAN_POINT('',(1213.68193220161,205.000000000003,1265.));
#1733=CARTESIAN_POINT('',(590.,205.000000000001,535.835023090698));
#1734=CARTESIAN_POINT('',(590.,205.,1250.));
#1735=CARTESIAN_POINT('',(590.,205.,1245.));
#1736=CARTESIAN_POINT('',(590.,205.,1250.));
#1737=CARTESIAN_POINT('',(590.,205.000000000001,1270.));
#1738=CARTESIAN_POINT('',(5841.,205.000000000001,1270.));
#1739=CARTESIAN_POINT('',(26.1907364317128,205.000000000001,1270.));
#1740=CARTESIAN_POINT('',(34.5315389351831,205.000000000001,1252.1130913087));
#1741=CARTESIAN_POINT('',(34.5315389351831,205.000000000001,1252.1130913087));
#1742=CARTESIAN_POINT('',(30.,205.000000000001,1250.));
#1743=CARTESIAN_POINT('',(570.,205.,1250.));
#1744=CARTESIAN_POINT('',(590.,2227.5,1245.));
#1745=CARTESIAN_POINT('',(590.,-1578.5,535.835023090698));
#1746=CARTESIAN_POINT('',(590.,205.,1250.));
#1747=CARTESIAN_POINT('',(0.,0.,0.));
#1748=CARTESIAN_POINT('',(140.,-204.999999999998,30.));
#1749=CARTESIAN_POINT('',(450.,-204.999999999998,30.));
#1750=CARTESIAN_POINT('',(5841.,-204.999999999998,30.));
#1751=CARTESIAN_POINT('',(140.,204.999999999998,30.));
#1752=CARTESIAN_POINT('',(140.,-2227.49999999999,30.));
#1753=CARTESIAN_POINT('',(120.,-2227.49999999999,50.));
#1754=CARTESIAN_POINT('',(470.,-2227.49999999999,30.0000000000005));
#1755=CARTESIAN_POINT('',(450.,204.999999999998,30.));
#1756=CARTESIAN_POINT('',(450.,-2227.49999999999,50.0000000000006));
#1757=CARTESIAN_POINT('',(5841.,204.999999999998,30.));
#1758=CARTESIAN_POINT('',(590.,2227.5,1270.));
#1759=CARTESIAN_POINT('',(590.,2227.5,1245.));
#1760=CARTESIAN_POINT('',(590.,2227.5,1245.));
#1761=CARTESIAN_POINT('',(1240.,2227.5,1270.));
#1762=CARTESIAN_POINT('',(5841.,205.000000000001,1270.));
#1763=CARTESIAN_POINT('',(5841.,-205.000000000001,1270.));
#1764=CARTESIAN_POINT('',(5841.,-225.000000000003,1270.));
#1765=CARTESIAN_POINT('',(34.5315389351831,-205.000000000001,1252.1130913087));
#1766=CARTESIAN_POINT('',(21.8529910829621,-205.000000000001,1279.3023249198));
#1767=CARTESIAN_POINT('',(21.8529910829621,-205.000000000001,1279.3023249198));
#1768=CARTESIAN_POINT('',(17.3214521477791,-205.000000000001,1277.1892336111));
#1769=CARTESIAN_POINT('',(17.3214521477791,-205.000000000001,1277.1892336111));
#1770=CARTESIAN_POINT('',(5841.,-205.000000000001,1270.));
#1771=CARTESIAN_POINT('',(23.6607260738895,100.,1263.59461680555));
#1772=CARTESIAN_POINT('',(24.5059625973709,100.,1261.78200123148));
#1773=CARTESIAN_POINT('',(23.6607260738895,-100.,1263.59461680555));
#1774=CARTESIAN_POINT('',(24.5059625973709,-100.,1261.78200123148));
#1775=CARTESIAN_POINT('',(30.,-2029.50000000001,1250.));
#1776=CARTESIAN_POINT('',(17.3214521477791,-2029.50000000001,1277.1892336111));
#1777=CARTESIAN_POINT('',(17.3214521477791,205.000000000001,1277.1892336111));
#1778=CARTESIAN_POINT('',(17.3214521477791,205.000000000001,1277.1892336111));
#1779=CARTESIAN_POINT('',(17.3214521477791,-2029.50000000001,1277.1892336111));
#1780=CARTESIAN_POINT('',(34.5315389351831,205.000000000001,1252.1130913087));
#1781=CARTESIAN_POINT('',(21.8529910829621,205.000000000001,1279.3023249198));
#1782=CARTESIAN_POINT('',(21.8529910829621,205.000000000001,1279.3023249198));
#1783=CARTESIAN_POINT('',(5841.,205.000000000001,1270.));
#1784=CARTESIAN_POINT('',(34.5315389351831,-2029.50000000001,1252.1130913087));
#1785=CARTESIAN_POINT('',(30.,-2029.50000000001,1250.));
#1786=CARTESIAN_POINT('',(21.8529910829621,-2029.50000000001,1279.3023249198));
#1787=CARTESIAN_POINT('',(21.8529910829621,-2029.50000000001,1279.3023249198));
#1788=CARTESIAN_POINT('',(28.1922650090725,100.,1265.70770811425));
#1789=CARTESIAN_POINT('',(27.3470284855911,100.,1267.52032368833));
#1790=CARTESIAN_POINT('',(28.1922650090725,-100.,1265.70770811425));
#1791=CARTESIAN_POINT('',(27.3470284855911,-100.,1267.52032368833));
#1792=CARTESIAN_POINT('',(34.5315389351831,-2029.50000000001,1252.1130913087));
#1793=CARTESIAN_POINT('',(23.6607260738895,-100.,1263.59461680555));
#1794=CARTESIAN_POINT('',(23.6607260738895,100.,1263.59461680555));
#1795=CARTESIAN_POINT('',(1213.68193220161,-1578.5,1265.));
#1796=CARTESIAN_POINT('',(1240.,2227.5,1265.));
#1797=CARTESIAN_POINT('',(1213.68193220161,1578.5,1265.));
#1798=CARTESIAN_POINT('',(610.,2227.5,1265.));
#1799=CARTESIAN_POINT('',(1240.,2227.5,1265.));
#1800=CARTESIAN_POINT('',(1240.,2227.5,1265.));
#1801=CARTESIAN_POINT('',(1240.,1578.5,1265.));
#1802=CARTESIAN_POINT('',(1240.,2227.5,1270.));
#1803=CARTESIAN_POINT('',(610.,2227.5,1245.));
#1804=CARTESIAN_POINT('',(610.,2227.5,1265.));
#1805=CARTESIAN_POINT('',(610.,2227.5,1245.));
#1806=CARTESIAN_POINT('',(1240.,1578.5,1265.));
#1807=CARTESIAN_POINT('',(590.,1578.5,535.835023090698));
#1808=CARTESIAN_POINT('',(590.,-1578.5,505.065792321467));
#1809=CARTESIAN_POINT('',(1213.68193220161,-1578.5,1265.));
#1810=MECHANICAL_DESIGN_GEOMETRIC_PRESENTATION_REPRESENTATION('',(#24),
#1811);
#1811=(
GEOMETRIC_REPRESENTATION_CONTEXT(3)
GLOBAL_UNCERTAINTY_ASSIGNED_CONTEXT((#1812))
GLOBAL_UNIT_ASSIGNED_CONTEXT((#1818,#1814,#1813))
REPRESENTATION_CONTEXT('S_AC_M_01_frame','TOP_LEVEL_ASSEMBLY_PART')
);
#1812=UNCERTAINTY_MEASURE_WITH_UNIT(LENGTH_MEASURE(2.E-5),#1818,
'DISTANCE_ACCURACY_VALUE','Maximum Tolerance applied to model');
#1813=(
NAMED_UNIT(*)
SI_UNIT($,.STERADIAN.)
SOLID_ANGLE_UNIT()
);
#1814=(
CONVERSION_BASED_UNIT('DEGREE',#1816)
NAMED_UNIT(#1815)
PLANE_ANGLE_UNIT()
);
#1815=DIMENSIONAL_EXPONENTS(0.,0.,0.,0.,0.,0.,0.);
#1816=PLANE_ANGLE_MEASURE_WITH_UNIT(PLANE_ANGLE_MEASURE(0.0174532925),#1817);
#1817=(
NAMED_UNIT(*)
PLANE_ANGLE_UNIT()
SI_UNIT($,.RADIAN.)
);
#1818=(
LENGTH_UNIT()
NAMED_UNIT(*)
SI_UNIT(.MILLI.,.METRE.)
);
ENDSEC;
END-ISO-10303-21;
