ISO-10303-21;
HEADER;
/* Generated by software containing ST-Developer
 * from STEP Tools, Inc. (www.steptools.com) 
 */
/* OPTION: using custom schema-name function */

FILE_DESCRIPTION(
/* description */ (''),
/* implementation_level */ '2;1');

FILE_NAME(
/* name */ 'S_AC_M_04_tube_vacuum_connector.stp',
/* time_stamp */ '2025-12-15T16:50:43+01:00',
/* author */ (''),
/* organization */ (''),
/* preprocessor_version */ 'ST-DEVELOPER v18.1',
/* originating_system */ 'SIEMENS PLM Software NX 1988',
/* authorisation */ '');

FILE_SCHEMA (('AUTOMOTIVE_DESIGN { 1 0 10303 214 3 1 1 1 }'));
ENDSEC;

DATA;
#10=SHAPE_REPRESENTATION_RELATIONSHIP('None',
'relationship between S_AC_M_04_tube_vacuum_connector-None and S_AC_M_
04_tube_vacuum_connector-None',#22,#11);
#11=ADVANCED_BREP_SHAPE_REPRESENTATION(
'S_AC_M_04_tube_vacuum_connector-None',(#32),#259);
#12=SHAPE_DEFINITION_REPRESENTATION(#13,#22);
#13=PRODUCT_DEFINITION_SHAPE('','',#14);
#14=PRODUCT_DEFINITION(' ','',#16,#15);
#15=PRODUCT_DEFINITION_CONTEXT('part definition',#21,'design');
#16=PRODUCT_DEFINITION_FORMATION_WITH_SPECIFIED_SOURCE(' ',' ',#18,
 .NOT_KNOWN.);
#17=PRODUCT_RELATED_PRODUCT_CATEGORY('part','',(#18));
#18=PRODUCT('S_AC_M_04_tube_vacuum_connector',
'S_AC_M_04_tube_vacuum_connector',' ',(#19));
#19=PRODUCT_CONTEXT(' ',#21,'mechanical');
#20=APPLICATION_PROTOCOL_DEFINITION('international standard',
'automotive_design',2010,#21);
#21=APPLICATION_CONTEXT(
'core data for automotive mechanical design processes');
#22=SHAPE_REPRESENTATION('S_AC_M_04_tube_vacuum_connector-None',(#155),
#259);
#23=PRESENTATION_LAYER_ASSIGNMENT('1','Layer 1',(#32));
#24=STYLED_ITEM('',(#25),#32);
#25=PRESENTATION_STYLE_ASSIGNMENT((#26));
#26=SURFACE_STYLE_USAGE(.BOTH.,#27);
#27=SURFACE_SIDE_STYLE('',(#28));
#28=SURFACE_STYLE_FILL_AREA(#29);
#29=FILL_AREA_STYLE('',(#30));
#30=FILL_AREA_STYLE_COLOUR('',#31);
#31=COLOUR_RGB('medium khaki',0.698039215686274,0.694117647058824,0.403921568627451);
#32=MANIFOLD_SOLID_BREP('',#33);
#33=CLOSED_SHELL('',(#43,#44,#45,#46,#47,#48,#49,#50,#51,#52,#53));
#34=PLANE('',#162);
#35=PLANE('',#166);
#36=PLANE('',#170);
#37=PLANE('',#176);
#38=CYLINDRICAL_SURFACE('',#160,71.);
#39=CYLINDRICAL_SURFACE('',#164,75.);
#40=CYLINDRICAL_SURFACE('',#168,79.);
#41=CYLINDRICAL_SURFACE('',#174,44.);
#42=CYLINDRICAL_SURFACE('',#177,40.);
#43=ADVANCED_FACE('',(#56,#57),#54,.F.);
#44=ADVANCED_FACE('',(#58,#59),#38,.F.);
#45=ADVANCED_FACE('',(#60,#61),#34,.F.);
#46=ADVANCED_FACE('',(#62,#63),#39,.T.);
#47=ADVANCED_FACE('',(#64,#65),#35,.F.);
#48=ADVANCED_FACE('',(#66,#67),#40,.T.);
#49=ADVANCED_FACE('',(#68,#69),#36,.F.);
#50=ADVANCED_FACE('',(#70,#71),#55,.T.);
#51=ADVANCED_FACE('',(#72,#73),#41,.T.);
#52=ADVANCED_FACE('',(#74,#75),#37,.F.);
#53=ADVANCED_FACE('',(#76,#77),#42,.F.);
#54=CONICAL_SURFACE('',#158,40.,20.);
#55=CONICAL_SURFACE('',#172,75.,20.);
#56=FACE_BOUND('',#78,.T.);
#57=FACE_BOUND('',#79,.T.);
#58=FACE_BOUND('',#80,.T.);
#59=FACE_BOUND('',#81,.T.);
#60=FACE_BOUND('',#82,.T.);
#61=FACE_BOUND('',#83,.T.);
#62=FACE_BOUND('',#84,.T.);
#63=FACE_BOUND('',#85,.T.);
#64=FACE_BOUND('',#86,.T.);
#65=FACE_BOUND('',#87,.T.);
#66=FACE_BOUND('',#88,.T.);
#67=FACE_BOUND('',#89,.T.);
#68=FACE_BOUND('',#90,.T.);
#69=FACE_BOUND('',#91,.T.);
#70=FACE_BOUND('',#92,.T.);
#71=FACE_BOUND('',#93,.T.);
#72=FACE_BOUND('',#94,.T.);
#73=FACE_BOUND('',#95,.T.);
#74=FACE_BOUND('',#96,.T.);
#75=FACE_BOUND('',#97,.T.);
#76=FACE_BOUND('',#98,.T.);
#77=FACE_BOUND('',#99,.T.);
#78=EDGE_LOOP('',(#100));
#79=EDGE_LOOP('',(#101));
#80=EDGE_LOOP('',(#102));
#81=EDGE_LOOP('',(#103));
#82=EDGE_LOOP('',(#104));
#83=EDGE_LOOP('',(#105));
#84=EDGE_LOOP('',(#106));
#85=EDGE_LOOP('',(#107));
#86=EDGE_LOOP('',(#108));
#87=EDGE_LOOP('',(#109));
#88=EDGE_LOOP('',(#110));
#89=EDGE_LOOP('',(#111));
#90=EDGE_LOOP('',(#112));
#91=EDGE_LOOP('',(#113));
#92=EDGE_LOOP('',(#114));
#93=EDGE_LOOP('',(#115));
#94=EDGE_LOOP('',(#116));
#95=EDGE_LOOP('',(#117));
#96=EDGE_LOOP('',(#118));
#97=EDGE_LOOP('',(#119));
#98=EDGE_LOOP('',(#120));
#99=EDGE_LOOP('',(#121));
#100=ORIENTED_EDGE('',*,*,#133,.F.);
#101=ORIENTED_EDGE('',*,*,#134,.T.);
#102=ORIENTED_EDGE('',*,*,#135,.F.);
#103=ORIENTED_EDGE('',*,*,#133,.T.);
#104=ORIENTED_EDGE('',*,*,#136,.F.);
#105=ORIENTED_EDGE('',*,*,#135,.T.);
#106=ORIENTED_EDGE('',*,*,#137,.F.);
#107=ORIENTED_EDGE('',*,*,#136,.T.);
#108=ORIENTED_EDGE('',*,*,#138,.F.);
#109=ORIENTED_EDGE('',*,*,#137,.T.);
#110=ORIENTED_EDGE('',*,*,#139,.F.);
#111=ORIENTED_EDGE('',*,*,#138,.T.);
#112=ORIENTED_EDGE('',*,*,#140,.F.);
#113=ORIENTED_EDGE('',*,*,#139,.T.);
#114=ORIENTED_EDGE('',*,*,#141,.F.);
#115=ORIENTED_EDGE('',*,*,#140,.T.);
#116=ORIENTED_EDGE('',*,*,#142,.F.);
#117=ORIENTED_EDGE('',*,*,#141,.T.);
#118=ORIENTED_EDGE('',*,*,#143,.F.);
#119=ORIENTED_EDGE('',*,*,#142,.T.);
#120=ORIENTED_EDGE('',*,*,#134,.F.);
#121=ORIENTED_EDGE('',*,*,#143,.T.);
#122=VERTEX_POINT('',#226);
#123=VERTEX_POINT('',#228);
#124=VERTEX_POINT('',#231);
#125=VERTEX_POINT('',#234);
#126=VERTEX_POINT('',#237);
#127=VERTEX_POINT('',#240);
#128=VERTEX_POINT('',#243);
#129=VERTEX_POINT('',#246);
#130=VERTEX_POINT('',#249);
#131=VERTEX_POINT('',#252);
#132=VERTEX_POINT('',#255);
#133=EDGE_CURVE('',#122,#122,#144,.T.);
#134=EDGE_CURVE('',#123,#123,#145,.T.);
#135=EDGE_CURVE('',#124,#124,#146,.T.);
#136=EDGE_CURVE('',#125,#125,#147,.T.);
#137=EDGE_CURVE('',#126,#126,#148,.T.);
#138=EDGE_CURVE('',#127,#127,#149,.T.);
#139=EDGE_CURVE('',#128,#128,#150,.T.);
#140=EDGE_CURVE('',#129,#129,#151,.T.);
#141=EDGE_CURVE('',#130,#130,#152,.T.);
#142=EDGE_CURVE('',#131,#131,#153,.T.);
#143=EDGE_CURVE('',#132,#132,#154,.T.);
#144=CIRCLE('',#156,71.);
#145=CIRCLE('',#157,40.);
#146=CIRCLE('',#159,71.);
#147=CIRCLE('',#161,75.);
#148=CIRCLE('',#163,75.);
#149=CIRCLE('',#165,79.);
#150=CIRCLE('',#167,79.);
#151=CIRCLE('',#169,75.);
#152=CIRCLE('',#171,44.);
#153=CIRCLE('',#173,44.);
#154=CIRCLE('',#175,40.);
#155=AXIS2_PLACEMENT_3D('',#224,#178,#179);
#156=AXIS2_PLACEMENT_3D('',#225,#180,#181);
#157=AXIS2_PLACEMENT_3D('',#227,#182,#183);
#158=AXIS2_PLACEMENT_3D('',#229,#184,#185);
#159=AXIS2_PLACEMENT_3D('',#230,#186,#187);
#160=AXIS2_PLACEMENT_3D('',#232,#188,#189);
#161=AXIS2_PLACEMENT_3D('',#233,#190,#191);
#162=AXIS2_PLACEMENT_3D('',#235,#192,#193);
#163=AXIS2_PLACEMENT_3D('',#236,#194,#195);
#164=AXIS2_PLACEMENT_3D('',#238,#196,#197);
#165=AXIS2_PLACEMENT_3D('',#239,#198,#199);
#166=AXIS2_PLACEMENT_3D('',#241,#200,#201);
#167=AXIS2_PLACEMENT_3D('',#242,#202,#203);
#168=AXIS2_PLACEMENT_3D('',#244,#204,#205);
#169=AXIS2_PLACEMENT_3D('',#245,#206,#207);
#170=AXIS2_PLACEMENT_3D('',#247,#208,#209);
#171=AXIS2_PLACEMENT_3D('',#248,#210,#211);
#172=AXIS2_PLACEMENT_3D('',#250,#212,#213);
#173=AXIS2_PLACEMENT_3D('',#251,#214,#215);
#174=AXIS2_PLACEMENT_3D('',#253,#216,#217);
#175=AXIS2_PLACEMENT_3D('',#254,#218,#219);
#176=AXIS2_PLACEMENT_3D('',#256,#220,#221);
#177=AXIS2_PLACEMENT_3D('',#257,#222,#223);
#178=DIRECTION('',(0.,0.,1.));
#179=DIRECTION('',(1.,0.,0.));
#180=DIRECTION('',(0.,0.,1.));
#181=DIRECTION('',(1.,0.,0.));
#182=DIRECTION('',(0.,0.,1.));
#183=DIRECTION('',(1.,0.,0.));
#184=DIRECTION('',(0.,0.,-1.));
#185=DIRECTION('',(-1.,0.,6.87069820033793E-17));
#186=DIRECTION('',(0.,0.,1.));
#187=DIRECTION('',(1.,0.,0.));
#188=DIRECTION('',(0.,0.,1.));
#189=DIRECTION('',(1.,0.,0.));
#190=DIRECTION('',(0.,0.,1.));
#191=DIRECTION('',(1.,0.,0.));
#192=DIRECTION('',(0.,0.,1.));
#193=DIRECTION('',(1.,0.,0.));
#194=DIRECTION('',(0.,0.,1.));
#195=DIRECTION('',(1.,0.,0.));
#196=DIRECTION('',(0.,0.,1.));
#197=DIRECTION('',(1.,0.,0.));
#198=DIRECTION('',(0.,0.,1.));
#199=DIRECTION('',(1.,0.,0.));
#200=DIRECTION('',(0.,0.,1.));
#201=DIRECTION('',(1.,0.,0.));
#202=DIRECTION('',(0.,0.,1.));
#203=DIRECTION('',(1.,0.,0.));
#204=DIRECTION('',(0.,0.,1.));
#205=DIRECTION('',(1.,0.,0.));
#206=DIRECTION('',(0.,0.,1.));
#207=DIRECTION('',(1.,0.,0.));
#208=DIRECTION('',(0.,0.,-1.));
#209=DIRECTION('',(-1.,0.,0.));
#210=DIRECTION('',(0.,0.,1.));
#211=DIRECTION('',(1.,0.,0.));
#212=DIRECTION('',(0.,0.,-1.));
#213=DIRECTION('',(-1.,0.,6.32288329572644E-17));
#214=DIRECTION('',(0.,0.,1.));
#215=DIRECTION('',(1.,0.,0.));
#216=DIRECTION('',(0.,0.,1.));
#217=DIRECTION('',(1.,0.,0.));
#218=DIRECTION('',(0.,0.,1.));
#219=DIRECTION('',(1.,0.,0.));
#220=DIRECTION('',(0.,0.,-1.));
#221=DIRECTION('',(-1.,0.,0.));
#222=DIRECTION('',(0.,0.,1.));
#223=DIRECTION('',(1.,0.,0.));
#224=CARTESIAN_POINT('',(0.,0.,0.));
#225=CARTESIAN_POINT('',(0.,0.,43.2946920771661));
#226=CARTESIAN_POINT('',(71.,0.,43.2946920771661));
#227=CARTESIAN_POINT('',(0.,0.,128.466492080259));
#228=CARTESIAN_POINT('',(40.,0.,128.466492080259));
#229=CARTESIAN_POINT('',(0.,0.,128.466492080259));
#230=CARTESIAN_POINT('',(0.,0.,0.));
#231=CARTESIAN_POINT('',(71.,0.,0.));
#232=CARTESIAN_POINT('',(0.,0.,0.));
#233=CARTESIAN_POINT('',(0.,0.,9.18485099360515E-15));
#234=CARTESIAN_POINT('',(75.,0.,9.18485099360515E-15));
#235=CARTESIAN_POINT('',(-71.,0.,4.59242549680257E-15));
#236=CARTESIAN_POINT('',(0.,0.,40.));
#237=CARTESIAN_POINT('',(75.,0.,40.));
#238=CARTESIAN_POINT('',(0.,0.,0.));
#239=CARTESIAN_POINT('',(0.,0.,40.));
#240=CARTESIAN_POINT('',(79.,0.,40.));
#241=CARTESIAN_POINT('',(-75.,0.,40.));
#242=CARTESIAN_POINT('',(0.,0.,44.));
#243=CARTESIAN_POINT('',(79.,0.,44.));
#244=CARTESIAN_POINT('',(0.,0.,0.));
#245=CARTESIAN_POINT('',(0.,0.,44.));
#246=CARTESIAN_POINT('',(75.,0.,44.));
#247=CARTESIAN_POINT('',(-79.,0.,44.));
#248=CARTESIAN_POINT('',(0.,0.,129.171800003093));
#249=CARTESIAN_POINT('',(44.,0.,129.171800003093));
#250=CARTESIAN_POINT('',(0.,0.,44.));
#251=CARTESIAN_POINT('',(0.,0.,168.466492080259));
#252=CARTESIAN_POINT('',(44.,0.,168.466492080259));
#253=CARTESIAN_POINT('',(0.,0.,0.));
#254=CARTESIAN_POINT('',(0.,0.,168.466492080259));
#255=CARTESIAN_POINT('',(40.,0.,168.466492080259));
#256=CARTESIAN_POINT('',(-44.,0.,168.466492080259));
#257=CARTESIAN_POINT('',(0.,0.,0.));
#258=MECHANICAL_DESIGN_GEOMETRIC_PRESENTATION_REPRESENTATION('',(#24),#259);
#259=(
GEOMETRIC_REPRESENTATION_CONTEXT(3)
GLOBAL_UNCERTAINTY_ASSIGNED_CONTEXT((#260))
GLOBAL_UNIT_ASSIGNED_CONTEXT((#266,#262,#261))
REPRESENTATION_CONTEXT('S_AC_M_04_tube_vacuum_connector',
'TOP_LEVEL_ASSEMBLY_PART')
);
#260=UNCERTAINTY_MEASURE_WITH_UNIT(LENGTH_MEASURE(2.E-5),#266,
'DISTANCE_ACCURACY_VALUE','Maximum Tolerance applied to model');
#261=(
NAMED_UNIT(*)
SI_UNIT($,.STERADIAN.)
SOLID_ANGLE_UNIT()
);
#262=(
CONVERSION_BASED_UNIT('DEGREE',#264)
NAMED_UNIT(#263)
PLANE_ANGLE_UNIT()
);
#263=DIMENSIONAL_EXPONENTS(0.,0.,0.,0.,0.,0.,0.);
#264=PLANE_ANGLE_MEASURE_WITH_UNIT(PLANE_ANGLE_MEASURE(0.0174532925),#265);
#265=(
NAMED_UNIT(*)
PLANE_ANGLE_UNIT()
SI_UNIT($,.RADIAN.)
);
#266=(
LENGTH_UNIT()
NAMED_UNIT(*)
SI_UNIT(.MILLI.,.METRE.)
);
ENDSEC;
END-ISO-10303-21;
