ISO-10303-21;
HEADER;
/* Generated by software containing ST-Developer
 * from STEP Tools, Inc. (www.steptools.com) 
 */
/* OPTION: using custom schema-name function */

FILE_DESCRIPTION(
/* description */ (''),
/* implementation_level */ '2;1');

FILE_NAME(
/* name */ 'S_AC_M_07_tube_support.stp',
/* time_stamp */ '2025-12-15T16:52:15+01:00',
/* author */ (''),
/* organization */ (''),
/* preprocessor_version */ 'ST-DEVELOPER v18.1',
/* originating_system */ 'SIEMENS PLM Software NX 1988',
/* authorisation */ '');

FILE_SCHEMA (('AUTOMOTIVE_DESIGN { 1 0 10303 214 3 1 1 1 }'));
ENDSEC;

DATA;
#10=SHAPE_REPRESENTATION_RELATIONSHIP('None',
'relationship between S_AC_M_07_tube_support-None and S_AC_M_07_tube_s
upport-None',#22,#11);
#11=ADVANCED_BREP_SHAPE_REPRESENTATION('S_AC_M_07_tube_support-None',(#32),
#221);
#12=SHAPE_DEFINITION_REPRESENTATION(#13,#22);
#13=PRODUCT_DEFINITION_SHAPE('','',#14);
#14=PRODUCT_DEFINITION(' ','',#16,#15);
#15=PRODUCT_DEFINITION_CONTEXT('part definition',#21,'design');
#16=PRODUCT_DEFINITION_FORMATION_WITH_SPECIFIED_SOURCE(' ',' ',#18,
 .NOT_KNOWN.);
#17=PRODUCT_RELATED_PRODUCT_CATEGORY('part','',(#18));
#18=PRODUCT('S_AC_M_07_tube_support','S_AC_M_07_tube_support',' ',(#19));
#19=PRODUCT_CONTEXT(' ',#21,'mechanical');
#20=APPLICATION_PROTOCOL_DEFINITION('international standard',
'automotive_design',2010,#21);
#21=APPLICATION_CONTEXT(
'core data for automotive mechanical design processes');
#22=SHAPE_REPRESENTATION('S_AC_M_07_tube_support-None',(#146),#221);
#23=PRESENTATION_LAYER_ASSIGNMENT('1','Layer 1',(#32));
#24=STYLED_ITEM('',(#25),#32);
#25=PRESENTATION_STYLE_ASSIGNMENT((#26));
#26=SURFACE_STYLE_USAGE(.BOTH.,#27);
#27=SURFACE_SIDE_STYLE('',(#28));
#28=SURFACE_STYLE_FILL_AREA(#29);
#29=FILL_AREA_STYLE('',(#30));
#30=FILL_AREA_STYLE_COLOUR('',#31);
#31=COLOUR_RGB('medium steel',0.596078431372549,0.666666666666667,0.686274509803922);
#32=MANIFOLD_SOLID_BREP('',#33);
#33=CLOSED_SHELL('',(#43,#44,#45,#46,#47,#48,#49));
#34=CYLINDRICAL_SURFACE('',#155,2.);
#35=FACE_BOUND('',#64,.T.);
#36=FACE_BOUND('',#65,.T.);
#37=FACE_BOUND('',#66,.T.);
#38=FACE_BOUND('',#67,.T.);
#39=FACE_BOUND('',#68,.T.);
#40=FACE_BOUND('',#69,.T.);
#41=CIRCLE('',#151,2.);
#42=CIRCLE('',#153,2.);
#43=ADVANCED_FACE('',(#56),#50,.F.);
#44=ADVANCED_FACE('',(#57),#51,.F.);
#45=ADVANCED_FACE('',(#58),#52,.F.);
#46=ADVANCED_FACE('',(#59),#53,.F.);
#47=ADVANCED_FACE('',(#35,#36),#54,.T.);
#48=ADVANCED_FACE('',(#37,#38),#55,.F.);
#49=ADVANCED_FACE('',(#39,#40),#34,.F.);
#50=PLANE('',#147);
#51=PLANE('',#148);
#52=PLANE('',#149);
#53=PLANE('',#150);
#54=PLANE('',#152);
#55=PLANE('',#154);
#56=FACE_OUTER_BOUND('',#60,.T.);
#57=FACE_OUTER_BOUND('',#61,.T.);
#58=FACE_OUTER_BOUND('',#62,.T.);
#59=FACE_OUTER_BOUND('',#63,.T.);
#60=EDGE_LOOP('',(#70,#71,#72,#73));
#61=EDGE_LOOP('',(#74,#75,#76,#77));
#62=EDGE_LOOP('',(#78,#79,#80,#81));
#63=EDGE_LOOP('',(#82,#83,#84,#85));
#64=EDGE_LOOP('',(#86));
#65=EDGE_LOOP('',(#87,#88,#89,#90));
#66=EDGE_LOOP('',(#91));
#67=EDGE_LOOP('',(#92,#93,#94,#95));
#68=EDGE_LOOP('',(#96));
#69=EDGE_LOOP('',(#97));
#70=ORIENTED_EDGE('',*,*,#108,.T.);
#71=ORIENTED_EDGE('',*,*,#109,.F.);
#72=ORIENTED_EDGE('',*,*,#110,.F.);
#73=ORIENTED_EDGE('',*,*,#111,.T.);
#74=ORIENTED_EDGE('',*,*,#112,.T.);
#75=ORIENTED_EDGE('',*,*,#113,.F.);
#76=ORIENTED_EDGE('',*,*,#114,.F.);
#77=ORIENTED_EDGE('',*,*,#109,.T.);
#78=ORIENTED_EDGE('',*,*,#115,.T.);
#79=ORIENTED_EDGE('',*,*,#116,.F.);
#80=ORIENTED_EDGE('',*,*,#117,.F.);
#81=ORIENTED_EDGE('',*,*,#113,.T.);
#82=ORIENTED_EDGE('',*,*,#118,.T.);
#83=ORIENTED_EDGE('',*,*,#111,.F.);
#84=ORIENTED_EDGE('',*,*,#119,.F.);
#85=ORIENTED_EDGE('',*,*,#116,.T.);
#86=ORIENTED_EDGE('',*,*,#120,.F.);
#87=ORIENTED_EDGE('',*,*,#110,.T.);
#88=ORIENTED_EDGE('',*,*,#114,.T.);
#89=ORIENTED_EDGE('',*,*,#117,.T.);
#90=ORIENTED_EDGE('',*,*,#119,.T.);
#91=ORIENTED_EDGE('',*,*,#121,.T.);
#92=ORIENTED_EDGE('',*,*,#108,.F.);
#93=ORIENTED_EDGE('',*,*,#118,.F.);
#94=ORIENTED_EDGE('',*,*,#115,.F.);
#95=ORIENTED_EDGE('',*,*,#112,.F.);
#96=ORIENTED_EDGE('',*,*,#120,.T.);
#97=ORIENTED_EDGE('',*,*,#121,.F.);
#98=VERTEX_POINT('',#190);
#99=VERTEX_POINT('',#191);
#100=VERTEX_POINT('',#193);
#101=VERTEX_POINT('',#195);
#102=VERTEX_POINT('',#199);
#103=VERTEX_POINT('',#201);
#104=VERTEX_POINT('',#205);
#105=VERTEX_POINT('',#207);
#106=VERTEX_POINT('',#214);
#107=VERTEX_POINT('',#217);
#108=EDGE_CURVE('',#98,#99,#122,.T.);
#109=EDGE_CURVE('',#100,#99,#123,.T.);
#110=EDGE_CURVE('',#101,#100,#124,.T.);
#111=EDGE_CURVE('',#101,#98,#125,.T.);
#112=EDGE_CURVE('',#99,#102,#126,.T.);
#113=EDGE_CURVE('',#103,#102,#127,.T.);
#114=EDGE_CURVE('',#100,#103,#128,.T.);
#115=EDGE_CURVE('',#102,#104,#129,.T.);
#116=EDGE_CURVE('',#105,#104,#130,.T.);
#117=EDGE_CURVE('',#103,#105,#131,.T.);
#118=EDGE_CURVE('',#104,#98,#132,.T.);
#119=EDGE_CURVE('',#105,#101,#133,.T.);
#120=EDGE_CURVE('',#106,#106,#41,.T.);
#121=EDGE_CURVE('',#107,#107,#42,.T.);
#122=LINE('',#189,#134);
#123=LINE('',#192,#135);
#124=LINE('',#194,#136);
#125=LINE('',#196,#137);
#126=LINE('',#198,#138);
#127=LINE('',#200,#139);
#128=LINE('',#202,#140);
#129=LINE('',#204,#141);
#130=LINE('',#206,#142);
#131=LINE('',#208,#143);
#132=LINE('',#210,#144);
#133=LINE('',#211,#145);
#134=VECTOR('',#158,1.);
#135=VECTOR('',#159,1.);
#136=VECTOR('',#160,1.);
#137=VECTOR('',#161,1.);
#138=VECTOR('',#164,1.);
#139=VECTOR('',#165,1.);
#140=VECTOR('',#166,1.);
#141=VECTOR('',#169,1.);
#142=VECTOR('',#170,1.);
#143=VECTOR('',#171,1.);
#144=VECTOR('',#174,1.);
#145=VECTOR('',#175,1.);
#146=AXIS2_PLACEMENT_3D('',#188,#156,#157);
#147=AXIS2_PLACEMENT_3D('',#197,#162,#163);
#148=AXIS2_PLACEMENT_3D('',#203,#167,#168);
#149=AXIS2_PLACEMENT_3D('',#209,#172,#173);
#150=AXIS2_PLACEMENT_3D('',#212,#176,#177);
#151=AXIS2_PLACEMENT_3D('',#213,#178,#179);
#152=AXIS2_PLACEMENT_3D('',#215,#180,#181);
#153=AXIS2_PLACEMENT_3D('',#216,#182,#183);
#154=AXIS2_PLACEMENT_3D('',#218,#184,#185);
#155=AXIS2_PLACEMENT_3D('',#219,#186,#187);
#156=DIRECTION('',(0.,0.,1.));
#157=DIRECTION('',(1.,0.,0.));
#158=DIRECTION('',(-5.20417042793042E-15,-1.,0.));
#159=DIRECTION('',(0.,0.,-1.));
#160=DIRECTION('',(-5.20417042793042E-15,-1.,0.));
#161=DIRECTION('',(0.,0.,-1.));
#162=DIRECTION('',(1.,-5.20417042793042E-15,0.));
#163=DIRECTION('',(5.20417042793042E-15,1.,0.));
#164=DIRECTION('',(1.,-1.04083408558608E-15,0.));
#165=DIRECTION('',(0.,0.,-1.));
#166=DIRECTION('',(1.,-1.04083408558608E-15,0.));
#167=DIRECTION('',(1.04083408558608E-15,1.,0.));
#168=DIRECTION('',(-1.,1.04083408558608E-15,0.));
#169=DIRECTION('',(0.,1.,0.));
#170=DIRECTION('',(0.,0.,-1.));
#171=DIRECTION('',(0.,1.,0.));
#172=DIRECTION('',(-1.,0.,0.));
#173=DIRECTION('',(0.,0.,1.));
#174=DIRECTION('',(-1.,0.,0.));
#175=DIRECTION('',(-1.,0.,0.));
#176=DIRECTION('',(0.,-1.,0.));
#177=DIRECTION('',(0.,0.,-1.));
#178=DIRECTION('',(0.,0.,1.));
#179=DIRECTION('',(1.,0.,0.));
#180=DIRECTION('',(0.,0.,1.));
#181=DIRECTION('',(1.,0.,0.));
#182=DIRECTION('',(0.,0.,1.));
#183=DIRECTION('',(1.,0.,0.));
#184=DIRECTION('',(0.,0.,1.));
#185=DIRECTION('',(1.,0.,0.));
#186=DIRECTION('',(0.,0.,1.));
#187=DIRECTION('',(1.,0.,0.));
#188=CARTESIAN_POINT('',(0.,0.,0.));
#189=CARTESIAN_POINT('',(-9.99999999999995,10.,0.));
#190=CARTESIAN_POINT('',(-9.99999999999995,10.,0.));
#191=CARTESIAN_POINT('',(-10.0000000000001,-10.,0.));
#192=CARTESIAN_POINT('',(-10.0000000000001,-10.,50.9464594030175));
#193=CARTESIAN_POINT('',(-10.0000000000001,-10.,50.9464594030175));
#194=CARTESIAN_POINT('',(-9.99999999999995,10.,50.9464594030175));
#195=CARTESIAN_POINT('',(-9.99999999999995,10.,50.9464594030175));
#196=CARTESIAN_POINT('',(-9.99999999999995,10.,50.9464594030175));
#197=CARTESIAN_POINT('',(-9.99999999999995,10.,50.9464594030175));
#198=CARTESIAN_POINT('',(-10.0000000000001,-10.,0.));
#199=CARTESIAN_POINT('',(9.99999999999995,-10.,0.));
#200=CARTESIAN_POINT('',(9.99999999999995,-10.,50.9464594030175));
#201=CARTESIAN_POINT('',(9.99999999999995,-10.,50.9464594030175));
#202=CARTESIAN_POINT('',(-10.0000000000001,-10.,50.9464594030175));
#203=CARTESIAN_POINT('',(-10.0000000000001,-10.,50.9464594030175));
#204=CARTESIAN_POINT('',(9.99999999999995,-10.,0.));
#205=CARTESIAN_POINT('',(9.99999999999995,10.,0.));
#206=CARTESIAN_POINT('',(9.99999999999995,10.,50.9464594030175));
#207=CARTESIAN_POINT('',(9.99999999999995,10.,50.9464594030175));
#208=CARTESIAN_POINT('',(9.99999999999995,-10.,50.9464594030175));
#209=CARTESIAN_POINT('',(9.99999999999995,-10.,50.9464594030175));
#210=CARTESIAN_POINT('',(9.99999999999995,10.,0.));
#211=CARTESIAN_POINT('',(9.99999999999995,10.,50.9464594030175));
#212=CARTESIAN_POINT('',(9.99999999999995,10.,50.9464594030175));
#213=CARTESIAN_POINT('',(0.,0.,50.9464594030175));
#214=CARTESIAN_POINT('',(2.,0.,50.9464594030175));
#215=CARTESIAN_POINT('',(0.,0.,50.9464594030175));
#216=CARTESIAN_POINT('',(0.,0.,0.));
#217=CARTESIAN_POINT('',(2.,0.,0.));
#218=CARTESIAN_POINT('',(0.,0.,0.));
#219=CARTESIAN_POINT('',(0.,0.,0.));
#220=MECHANICAL_DESIGN_GEOMETRIC_PRESENTATION_REPRESENTATION('',(#24),#221);
#221=(
GEOMETRIC_REPRESENTATION_CONTEXT(3)
GLOBAL_UNCERTAINTY_ASSIGNED_CONTEXT((#222))
GLOBAL_UNIT_ASSIGNED_CONTEXT((#228,#224,#223))
REPRESENTATION_CONTEXT('S_AC_M_07_tube_support',
'TOP_LEVEL_ASSEMBLY_PART')
);
#222=UNCERTAINTY_MEASURE_WITH_UNIT(LENGTH_MEASURE(2.E-5),#228,
'DISTANCE_ACCURACY_VALUE','Maximum Tolerance applied to model');
#223=(
NAMED_UNIT(*)
SI_UNIT($,.STERADIAN.)
SOLID_ANGLE_UNIT()
);
#224=(
CONVERSION_BASED_UNIT('DEGREE',#226)
NAMED_UNIT(#225)
PLANE_ANGLE_UNIT()
);
#225=DIMENSIONAL_EXPONENTS(0.,0.,0.,0.,0.,0.,0.);
#226=PLANE_ANGLE_MEASURE_WITH_UNIT(PLANE_ANGLE_MEASURE(0.0174532925),#227);
#227=(
NAMED_UNIT(*)
PLANE_ANGLE_UNIT()
SI_UNIT($,.RADIAN.)
);
#228=(
LENGTH_UNIT()
NAMED_UNIT(*)
SI_UNIT(.MILLI.,.METRE.)
);
ENDSEC;
END-ISO-10303-21;
