ISO-10303-21;
HEADER;
/* Generated by software containing ST-Developer
 * from STEP Tools, Inc. (www.steptools.com) 
 */
/* OPTION: using custom schema-name function */

FILE_DESCRIPTION(
/* description */ (''),
/* implementation_level */ '2;1');

FILE_NAME(
/* name */ 'S_SF_M_05_lid.stp',
/* time_stamp */ '2025-12-15T16:59:43+01:00',
/* author */ (''),
/* organization */ (''),
/* preprocessor_version */ 'ST-DEVELOPER v18.1',
/* originating_system */ 'SIEMENS PLM Software NX 1988',
/* authorisation */ '');

FILE_SCHEMA (('AUTOMOTIVE_DESIGN { 1 0 10303 214 3 1 1 1 }'));
ENDSEC;

DATA;
#10=SHAPE_REPRESENTATION_RELATIONSHIP('None',
'relationship between S_SF_M_05_lid-None and S_SF_M_05_lid-None',#22,#11);
#11=ADVANCED_BREP_SHAPE_REPRESENTATION('S_SF_M_05_lid-None',(#58,#59,#60,
#61),#1059);
#12=SHAPE_DEFINITION_REPRESENTATION(#13,#22);
#13=PRODUCT_DEFINITION_SHAPE('','',#14);
#14=PRODUCT_DEFINITION(' ','',#16,#15);
#15=PRODUCT_DEFINITION_CONTEXT('part definition',#21,'design');
#16=PRODUCT_DEFINITION_FORMATION_WITH_SPECIFIED_SOURCE(' ',' ',#18,
 .NOT_KNOWN.);
#17=PRODUCT_RELATED_PRODUCT_CATEGORY('part','',(#18));
#18=PRODUCT('S_SF_M_05_lid','S_SF_M_05_lid',' ',(#19));
#19=PRODUCT_CONTEXT(' ',#21,'mechanical');
#20=APPLICATION_PROTOCOL_DEFINITION('international standard',
'automotive_design',2010,#21);
#21=APPLICATION_CONTEXT(
'core data for automotive mechanical design processes');
#22=SHAPE_REPRESENTATION('S_SF_M_05_lid-None',(#686),#1059);
#23=FACE_BOUND('',#186,.T.);
#24=FACE_BOUND('',#187,.T.);
#25=FACE_BOUND('',#188,.T.);
#26=FACE_BOUND('',#189,.T.);
#27=PRESENTATION_LAYER_ASSIGNMENT('1','Layer 1',(#58,#59,#60,#61));
#28=STYLED_ITEM('',(#32),#58);
#29=STYLED_ITEM('',(#33),#59);
#30=STYLED_ITEM('',(#34),#60);
#31=STYLED_ITEM('',(#35),#61);
#32=PRESENTATION_STYLE_ASSIGNMENT((#36));
#33=PRESENTATION_STYLE_ASSIGNMENT((#37));
#34=PRESENTATION_STYLE_ASSIGNMENT((#38));
#35=PRESENTATION_STYLE_ASSIGNMENT((#39));
#36=SURFACE_STYLE_USAGE(.BOTH.,#40);
#37=SURFACE_STYLE_USAGE(.BOTH.,#41);
#38=SURFACE_STYLE_USAGE(.BOTH.,#42);
#39=SURFACE_STYLE_USAGE(.BOTH.,#43);
#40=SURFACE_SIDE_STYLE('',(#44));
#41=SURFACE_SIDE_STYLE('',(#45));
#42=SURFACE_SIDE_STYLE('',(#46));
#43=SURFACE_SIDE_STYLE('',(#47));
#44=SURFACE_STYLE_FILL_AREA(#48);
#45=SURFACE_STYLE_FILL_AREA(#49);
#46=SURFACE_STYLE_FILL_AREA(#50);
#47=SURFACE_STYLE_FILL_AREA(#51);
#48=FILL_AREA_STYLE('',(#52));
#49=FILL_AREA_STYLE('',(#53));
#50=FILL_AREA_STYLE('',(#54));
#51=FILL_AREA_STYLE('',(#55));
#52=FILL_AREA_STYLE_COLOUR('',#56);
#53=FILL_AREA_STYLE_COLOUR('',#57);
#54=FILL_AREA_STYLE_COLOUR('',#56);
#55=FILL_AREA_STYLE_COLOUR('',#56);
#56=COLOUR_RGB('ash gray',0.874509803921569,0.874509803921569,0.874509803921569);
#57=COLOUR_RGB('dark gray',0.2,0.2,0.2);
#58=MANIFOLD_SOLID_BREP('',#62);
#59=MANIFOLD_SOLID_BREP('',#63);
#60=MANIFOLD_SOLID_BREP('',#64);
#61=MANIFOLD_SOLID_BREP('',#65);
#62=CLOSED_SHELL('',(#66,#67,#68,#69,#70,#71));
#63=CLOSED_SHELL('',(#72,#73,#74,#75,#76,#77,#78,#79,#80,#81));
#64=CLOSED_SHELL('',(#82,#83,#84,#85,#86,#87,#88,#89,#90,#91));
#65=CLOSED_SHELL('',(#92,#93,#94,#95,#96,#97,#98,#99,#100,#101));
#66=ADVANCED_FACE('',(#138),#102,.T.);
#67=ADVANCED_FACE('',(#139),#103,.T.);
#68=ADVANCED_FACE('',(#140),#104,.T.);
#69=ADVANCED_FACE('',(#141),#105,.T.);
#70=ADVANCED_FACE('',(#142),#106,.F.);
#71=ADVANCED_FACE('',(#143),#107,.T.);
#72=ADVANCED_FACE('',(#144),#108,.T.);
#73=ADVANCED_FACE('',(#145),#109,.T.);
#74=ADVANCED_FACE('',(#146),#110,.T.);
#75=ADVANCED_FACE('',(#147),#111,.F.);
#76=ADVANCED_FACE('',(#148),#112,.F.);
#77=ADVANCED_FACE('',(#149),#113,.F.);
#78=ADVANCED_FACE('',(#150),#114,.F.);
#79=ADVANCED_FACE('',(#151),#115,.T.);
#80=ADVANCED_FACE('',(#23,#24),#116,.T.);
#81=ADVANCED_FACE('',(#25,#26),#117,.F.);
#82=ADVANCED_FACE('',(#152),#118,.T.);
#83=ADVANCED_FACE('',(#153),#119,.T.);
#84=ADVANCED_FACE('',(#154),#120,.T.);
#85=ADVANCED_FACE('',(#155),#121,.T.);
#86=ADVANCED_FACE('',(#156),#122,.T.);
#87=ADVANCED_FACE('',(#157),#123,.T.);
#88=ADVANCED_FACE('',(#158),#124,.T.);
#89=ADVANCED_FACE('',(#159),#125,.T.);
#90=ADVANCED_FACE('',(#160),#126,.F.);
#91=ADVANCED_FACE('',(#161),#127,.T.);
#92=ADVANCED_FACE('',(#162),#128,.T.);
#93=ADVANCED_FACE('',(#163),#129,.T.);
#94=ADVANCED_FACE('',(#164),#130,.T.);
#95=ADVANCED_FACE('',(#165),#131,.T.);
#96=ADVANCED_FACE('',(#166),#132,.T.);
#97=ADVANCED_FACE('',(#167),#133,.T.);
#98=ADVANCED_FACE('',(#168),#134,.T.);
#99=ADVANCED_FACE('',(#169),#135,.T.);
#100=ADVANCED_FACE('',(#170),#136,.F.);
#101=ADVANCED_FACE('',(#171),#137,.T.);
#102=PLANE('',#687);
#103=PLANE('',#688);
#104=PLANE('',#689);
#105=PLANE('',#690);
#106=PLANE('',#691);
#107=PLANE('',#692);
#108=PLANE('',#693);
#109=PLANE('',#694);
#110=PLANE('',#695);
#111=PLANE('',#696);
#112=PLANE('',#697);
#113=PLANE('',#698);
#114=PLANE('',#699);
#115=PLANE('',#700);
#116=PLANE('',#701);
#117=PLANE('',#702);
#118=PLANE('',#703);
#119=PLANE('',#704);
#120=PLANE('',#705);
#121=PLANE('',#706);
#122=PLANE('',#707);
#123=PLANE('',#708);
#124=PLANE('',#709);
#125=PLANE('',#710);
#126=PLANE('',#711);
#127=PLANE('',#712);
#128=PLANE('',#713);
#129=PLANE('',#714);
#130=PLANE('',#715);
#131=PLANE('',#716);
#132=PLANE('',#717);
#133=PLANE('',#718);
#134=PLANE('',#719);
#135=PLANE('',#720);
#136=PLANE('',#721);
#137=PLANE('',#722);
#138=FACE_OUTER_BOUND('',#172,.T.);
#139=FACE_OUTER_BOUND('',#173,.T.);
#140=FACE_OUTER_BOUND('',#174,.T.);
#141=FACE_OUTER_BOUND('',#175,.T.);
#142=FACE_OUTER_BOUND('',#176,.T.);
#143=FACE_OUTER_BOUND('',#177,.T.);
#144=FACE_OUTER_BOUND('',#178,.T.);
#145=FACE_OUTER_BOUND('',#179,.T.);
#146=FACE_OUTER_BOUND('',#180,.T.);
#147=FACE_OUTER_BOUND('',#181,.T.);
#148=FACE_OUTER_BOUND('',#182,.T.);
#149=FACE_OUTER_BOUND('',#183,.T.);
#150=FACE_OUTER_BOUND('',#184,.T.);
#151=FACE_OUTER_BOUND('',#185,.T.);
#152=FACE_OUTER_BOUND('',#190,.T.);
#153=FACE_OUTER_BOUND('',#191,.T.);
#154=FACE_OUTER_BOUND('',#192,.T.);
#155=FACE_OUTER_BOUND('',#193,.T.);
#156=FACE_OUTER_BOUND('',#194,.T.);
#157=FACE_OUTER_BOUND('',#195,.T.);
#158=FACE_OUTER_BOUND('',#196,.T.);
#159=FACE_OUTER_BOUND('',#197,.T.);
#160=FACE_OUTER_BOUND('',#198,.T.);
#161=FACE_OUTER_BOUND('',#199,.T.);
#162=FACE_OUTER_BOUND('',#200,.T.);
#163=FACE_OUTER_BOUND('',#201,.T.);
#164=FACE_OUTER_BOUND('',#202,.T.);
#165=FACE_OUTER_BOUND('',#203,.T.);
#166=FACE_OUTER_BOUND('',#204,.T.);
#167=FACE_OUTER_BOUND('',#205,.T.);
#168=FACE_OUTER_BOUND('',#206,.T.);
#169=FACE_OUTER_BOUND('',#207,.T.);
#170=FACE_OUTER_BOUND('',#208,.T.);
#171=FACE_OUTER_BOUND('',#209,.T.);
#172=EDGE_LOOP('',(#210,#211,#212,#213));
#173=EDGE_LOOP('',(#214,#215,#216,#217));
#174=EDGE_LOOP('',(#218,#219,#220,#221));
#175=EDGE_LOOP('',(#222,#223,#224,#225));
#176=EDGE_LOOP('',(#226,#227,#228,#229));
#177=EDGE_LOOP('',(#230,#231,#232,#233));
#178=EDGE_LOOP('',(#234,#235,#236,#237));
#179=EDGE_LOOP('',(#238,#239,#240,#241));
#180=EDGE_LOOP('',(#242,#243,#244,#245));
#181=EDGE_LOOP('',(#246,#247,#248,#249));
#182=EDGE_LOOP('',(#250,#251,#252,#253));
#183=EDGE_LOOP('',(#254,#255,#256,#257));
#184=EDGE_LOOP('',(#258,#259,#260,#261));
#185=EDGE_LOOP('',(#262,#263,#264,#265));
#186=EDGE_LOOP('',(#266,#267,#268,#269));
#187=EDGE_LOOP('',(#270,#271,#272,#273));
#188=EDGE_LOOP('',(#274,#275,#276,#277));
#189=EDGE_LOOP('',(#278,#279,#280,#281));
#190=EDGE_LOOP('',(#282,#283,#284,#285));
#191=EDGE_LOOP('',(#286,#287,#288,#289));
#192=EDGE_LOOP('',(#290,#291,#292,#293));
#193=EDGE_LOOP('',(#294,#295,#296,#297));
#194=EDGE_LOOP('',(#298,#299,#300,#301));
#195=EDGE_LOOP('',(#302,#303,#304,#305));
#196=EDGE_LOOP('',(#306,#307,#308,#309));
#197=EDGE_LOOP('',(#310,#311,#312,#313));
#198=EDGE_LOOP('',(#314,#315,#316,#317,#318,#319,#320,#321));
#199=EDGE_LOOP('',(#322,#323,#324,#325,#326,#327,#328,#329));
#200=EDGE_LOOP('',(#330,#331,#332,#333));
#201=EDGE_LOOP('',(#334,#335,#336,#337));
#202=EDGE_LOOP('',(#338,#339,#340,#341));
#203=EDGE_LOOP('',(#342,#343,#344,#345));
#204=EDGE_LOOP('',(#346,#347,#348,#349));
#205=EDGE_LOOP('',(#350,#351,#352,#353));
#206=EDGE_LOOP('',(#354,#355,#356,#357));
#207=EDGE_LOOP('',(#358,#359,#360,#361));
#208=EDGE_LOOP('',(#362,#363,#364,#365,#366,#367,#368,#369));
#209=EDGE_LOOP('',(#370,#371,#372,#373,#374,#375,#376,#377));
#210=ORIENTED_EDGE('',*,*,#434,.F.);
#211=ORIENTED_EDGE('',*,*,#435,.F.);
#212=ORIENTED_EDGE('',*,*,#436,.T.);
#213=ORIENTED_EDGE('',*,*,#437,.T.);
#214=ORIENTED_EDGE('',*,*,#438,.F.);
#215=ORIENTED_EDGE('',*,*,#437,.F.);
#216=ORIENTED_EDGE('',*,*,#439,.T.);
#217=ORIENTED_EDGE('',*,*,#440,.T.);
#218=ORIENTED_EDGE('',*,*,#441,.F.);
#219=ORIENTED_EDGE('',*,*,#440,.F.);
#220=ORIENTED_EDGE('',*,*,#442,.T.);
#221=ORIENTED_EDGE('',*,*,#443,.T.);
#222=ORIENTED_EDGE('',*,*,#444,.F.);
#223=ORIENTED_EDGE('',*,*,#443,.F.);
#224=ORIENTED_EDGE('',*,*,#445,.T.);
#225=ORIENTED_EDGE('',*,*,#435,.T.);
#226=ORIENTED_EDGE('',*,*,#436,.F.);
#227=ORIENTED_EDGE('',*,*,#445,.F.);
#228=ORIENTED_EDGE('',*,*,#442,.F.);
#229=ORIENTED_EDGE('',*,*,#439,.F.);
#230=ORIENTED_EDGE('',*,*,#434,.T.);
#231=ORIENTED_EDGE('',*,*,#438,.T.);
#232=ORIENTED_EDGE('',*,*,#441,.T.);
#233=ORIENTED_EDGE('',*,*,#444,.T.);
#234=ORIENTED_EDGE('',*,*,#446,.F.);
#235=ORIENTED_EDGE('',*,*,#447,.F.);
#236=ORIENTED_EDGE('',*,*,#448,.T.);
#237=ORIENTED_EDGE('',*,*,#449,.T.);
#238=ORIENTED_EDGE('',*,*,#450,.F.);
#239=ORIENTED_EDGE('',*,*,#451,.F.);
#240=ORIENTED_EDGE('',*,*,#452,.T.);
#241=ORIENTED_EDGE('',*,*,#447,.T.);
#242=ORIENTED_EDGE('',*,*,#453,.F.);
#243=ORIENTED_EDGE('',*,*,#454,.F.);
#244=ORIENTED_EDGE('',*,*,#455,.T.);
#245=ORIENTED_EDGE('',*,*,#451,.T.);
#246=ORIENTED_EDGE('',*,*,#456,.T.);
#247=ORIENTED_EDGE('',*,*,#457,.F.);
#248=ORIENTED_EDGE('',*,*,#458,.F.);
#249=ORIENTED_EDGE('',*,*,#459,.T.);
#250=ORIENTED_EDGE('',*,*,#460,.T.);
#251=ORIENTED_EDGE('',*,*,#461,.F.);
#252=ORIENTED_EDGE('',*,*,#462,.F.);
#253=ORIENTED_EDGE('',*,*,#457,.T.);
#254=ORIENTED_EDGE('',*,*,#463,.T.);
#255=ORIENTED_EDGE('',*,*,#464,.F.);
#256=ORIENTED_EDGE('',*,*,#465,.F.);
#257=ORIENTED_EDGE('',*,*,#461,.T.);
#258=ORIENTED_EDGE('',*,*,#466,.T.);
#259=ORIENTED_EDGE('',*,*,#459,.F.);
#260=ORIENTED_EDGE('',*,*,#467,.F.);
#261=ORIENTED_EDGE('',*,*,#464,.T.);
#262=ORIENTED_EDGE('',*,*,#468,.F.);
#263=ORIENTED_EDGE('',*,*,#449,.F.);
#264=ORIENTED_EDGE('',*,*,#469,.T.);
#265=ORIENTED_EDGE('',*,*,#454,.T.);
#266=ORIENTED_EDGE('',*,*,#458,.T.);
#267=ORIENTED_EDGE('',*,*,#462,.T.);
#268=ORIENTED_EDGE('',*,*,#465,.T.);
#269=ORIENTED_EDGE('',*,*,#467,.T.);
#270=ORIENTED_EDGE('',*,*,#448,.F.);
#271=ORIENTED_EDGE('',*,*,#452,.F.);
#272=ORIENTED_EDGE('',*,*,#455,.F.);
#273=ORIENTED_EDGE('',*,*,#469,.F.);
#274=ORIENTED_EDGE('',*,*,#456,.F.);
#275=ORIENTED_EDGE('',*,*,#466,.F.);
#276=ORIENTED_EDGE('',*,*,#463,.F.);
#277=ORIENTED_EDGE('',*,*,#460,.F.);
#278=ORIENTED_EDGE('',*,*,#446,.T.);
#279=ORIENTED_EDGE('',*,*,#468,.T.);
#280=ORIENTED_EDGE('',*,*,#453,.T.);
#281=ORIENTED_EDGE('',*,*,#450,.T.);
#282=ORIENTED_EDGE('',*,*,#470,.T.);
#283=ORIENTED_EDGE('',*,*,#471,.F.);
#284=ORIENTED_EDGE('',*,*,#472,.F.);
#285=ORIENTED_EDGE('',*,*,#473,.T.);
#286=ORIENTED_EDGE('',*,*,#474,.T.);
#287=ORIENTED_EDGE('',*,*,#473,.F.);
#288=ORIENTED_EDGE('',*,*,#475,.F.);
#289=ORIENTED_EDGE('',*,*,#476,.T.);
#290=ORIENTED_EDGE('',*,*,#477,.F.);
#291=ORIENTED_EDGE('',*,*,#476,.F.);
#292=ORIENTED_EDGE('',*,*,#478,.T.);
#293=ORIENTED_EDGE('',*,*,#479,.T.);
#294=ORIENTED_EDGE('',*,*,#480,.T.);
#295=ORIENTED_EDGE('',*,*,#479,.F.);
#296=ORIENTED_EDGE('',*,*,#481,.F.);
#297=ORIENTED_EDGE('',*,*,#482,.T.);
#298=ORIENTED_EDGE('',*,*,#483,.T.);
#299=ORIENTED_EDGE('',*,*,#482,.F.);
#300=ORIENTED_EDGE('',*,*,#484,.F.);
#301=ORIENTED_EDGE('',*,*,#485,.T.);
#302=ORIENTED_EDGE('',*,*,#486,.T.);
#303=ORIENTED_EDGE('',*,*,#485,.F.);
#304=ORIENTED_EDGE('',*,*,#487,.F.);
#305=ORIENTED_EDGE('',*,*,#488,.T.);
#306=ORIENTED_EDGE('',*,*,#489,.F.);
#307=ORIENTED_EDGE('',*,*,#488,.F.);
#308=ORIENTED_EDGE('',*,*,#490,.T.);
#309=ORIENTED_EDGE('',*,*,#491,.T.);
#310=ORIENTED_EDGE('',*,*,#492,.T.);
#311=ORIENTED_EDGE('',*,*,#491,.F.);
#312=ORIENTED_EDGE('',*,*,#493,.F.);
#313=ORIENTED_EDGE('',*,*,#471,.T.);
#314=ORIENTED_EDGE('',*,*,#472,.T.);
#315=ORIENTED_EDGE('',*,*,#493,.T.);
#316=ORIENTED_EDGE('',*,*,#490,.F.);
#317=ORIENTED_EDGE('',*,*,#487,.T.);
#318=ORIENTED_EDGE('',*,*,#484,.T.);
#319=ORIENTED_EDGE('',*,*,#481,.T.);
#320=ORIENTED_EDGE('',*,*,#478,.F.);
#321=ORIENTED_EDGE('',*,*,#475,.T.);
#322=ORIENTED_EDGE('',*,*,#470,.F.);
#323=ORIENTED_EDGE('',*,*,#474,.F.);
#324=ORIENTED_EDGE('',*,*,#477,.T.);
#325=ORIENTED_EDGE('',*,*,#480,.F.);
#326=ORIENTED_EDGE('',*,*,#483,.F.);
#327=ORIENTED_EDGE('',*,*,#486,.F.);
#328=ORIENTED_EDGE('',*,*,#489,.T.);
#329=ORIENTED_EDGE('',*,*,#492,.F.);
#330=ORIENTED_EDGE('',*,*,#494,.F.);
#331=ORIENTED_EDGE('',*,*,#495,.F.);
#332=ORIENTED_EDGE('',*,*,#496,.T.);
#333=ORIENTED_EDGE('',*,*,#497,.T.);
#334=ORIENTED_EDGE('',*,*,#498,.F.);
#335=ORIENTED_EDGE('',*,*,#497,.F.);
#336=ORIENTED_EDGE('',*,*,#499,.T.);
#337=ORIENTED_EDGE('',*,*,#500,.T.);
#338=ORIENTED_EDGE('',*,*,#501,.T.);
#339=ORIENTED_EDGE('',*,*,#500,.F.);
#340=ORIENTED_EDGE('',*,*,#502,.F.);
#341=ORIENTED_EDGE('',*,*,#503,.T.);
#342=ORIENTED_EDGE('',*,*,#504,.F.);
#343=ORIENTED_EDGE('',*,*,#503,.F.);
#344=ORIENTED_EDGE('',*,*,#505,.T.);
#345=ORIENTED_EDGE('',*,*,#506,.T.);
#346=ORIENTED_EDGE('',*,*,#507,.F.);
#347=ORIENTED_EDGE('',*,*,#506,.F.);
#348=ORIENTED_EDGE('',*,*,#508,.T.);
#349=ORIENTED_EDGE('',*,*,#509,.T.);
#350=ORIENTED_EDGE('',*,*,#510,.F.);
#351=ORIENTED_EDGE('',*,*,#509,.F.);
#352=ORIENTED_EDGE('',*,*,#511,.T.);
#353=ORIENTED_EDGE('',*,*,#512,.T.);
#354=ORIENTED_EDGE('',*,*,#513,.T.);
#355=ORIENTED_EDGE('',*,*,#512,.F.);
#356=ORIENTED_EDGE('',*,*,#514,.F.);
#357=ORIENTED_EDGE('',*,*,#515,.T.);
#358=ORIENTED_EDGE('',*,*,#516,.F.);
#359=ORIENTED_EDGE('',*,*,#515,.F.);
#360=ORIENTED_EDGE('',*,*,#517,.T.);
#361=ORIENTED_EDGE('',*,*,#495,.T.);
#362=ORIENTED_EDGE('',*,*,#496,.F.);
#363=ORIENTED_EDGE('',*,*,#517,.F.);
#364=ORIENTED_EDGE('',*,*,#514,.T.);
#365=ORIENTED_EDGE('',*,*,#511,.F.);
#366=ORIENTED_EDGE('',*,*,#508,.F.);
#367=ORIENTED_EDGE('',*,*,#505,.F.);
#368=ORIENTED_EDGE('',*,*,#502,.T.);
#369=ORIENTED_EDGE('',*,*,#499,.F.);
#370=ORIENTED_EDGE('',*,*,#494,.T.);
#371=ORIENTED_EDGE('',*,*,#498,.T.);
#372=ORIENTED_EDGE('',*,*,#501,.F.);
#373=ORIENTED_EDGE('',*,*,#504,.T.);
#374=ORIENTED_EDGE('',*,*,#507,.T.);
#375=ORIENTED_EDGE('',*,*,#510,.T.);
#376=ORIENTED_EDGE('',*,*,#513,.F.);
#377=ORIENTED_EDGE('',*,*,#516,.T.);
#378=VERTEX_POINT('',#883);
#379=VERTEX_POINT('',#884);
#380=VERTEX_POINT('',#886);
#381=VERTEX_POINT('',#888);
#382=VERTEX_POINT('',#892);
#383=VERTEX_POINT('',#894);
#384=VERTEX_POINT('',#898);
#385=VERTEX_POINT('',#900);
#386=VERTEX_POINT('',#909);
#387=VERTEX_POINT('',#910);
#388=VERTEX_POINT('',#912);
#389=VERTEX_POINT('',#914);
#390=VERTEX_POINT('',#918);
#391=VERTEX_POINT('',#920);
#392=VERTEX_POINT('',#924);
#393=VERTEX_POINT('',#926);
#394=VERTEX_POINT('',#930);
#395=VERTEX_POINT('',#931);
#396=VERTEX_POINT('',#933);
#397=VERTEX_POINT('',#935);
#398=VERTEX_POINT('',#939);
#399=VERTEX_POINT('',#941);
#400=VERTEX_POINT('',#945);
#401=VERTEX_POINT('',#947);
#402=VERTEX_POINT('',#959);
#403=VERTEX_POINT('',#960);
#404=VERTEX_POINT('',#962);
#405=VERTEX_POINT('',#964);
#406=VERTEX_POINT('',#968);
#407=VERTEX_POINT('',#970);
#408=VERTEX_POINT('',#974);
#409=VERTEX_POINT('',#976);
#410=VERTEX_POINT('',#980);
#411=VERTEX_POINT('',#982);
#412=VERTEX_POINT('',#986);
#413=VERTEX_POINT('',#988);
#414=VERTEX_POINT('',#992);
#415=VERTEX_POINT('',#994);
#416=VERTEX_POINT('',#998);
#417=VERTEX_POINT('',#1000);
#418=VERTEX_POINT('',#1009);
#419=VERTEX_POINT('',#1010);
#420=VERTEX_POINT('',#1012);
#421=VERTEX_POINT('',#1014);
#422=VERTEX_POINT('',#1018);
#423=VERTEX_POINT('',#1020);
#424=VERTEX_POINT('',#1024);
#425=VERTEX_POINT('',#1026);
#426=VERTEX_POINT('',#1030);
#427=VERTEX_POINT('',#1032);
#428=VERTEX_POINT('',#1036);
#429=VERTEX_POINT('',#1038);
#430=VERTEX_POINT('',#1042);
#431=VERTEX_POINT('',#1044);
#432=VERTEX_POINT('',#1048);
#433=VERTEX_POINT('',#1050);
#434=EDGE_CURVE('',#378,#379,#518,.T.);
#435=EDGE_CURVE('',#380,#378,#519,.T.);
#436=EDGE_CURVE('',#380,#381,#520,.T.);
#437=EDGE_CURVE('',#381,#379,#521,.T.);
#438=EDGE_CURVE('',#379,#382,#522,.T.);
#439=EDGE_CURVE('',#381,#383,#523,.T.);
#440=EDGE_CURVE('',#383,#382,#524,.T.);
#441=EDGE_CURVE('',#382,#384,#525,.T.);
#442=EDGE_CURVE('',#383,#385,#526,.T.);
#443=EDGE_CURVE('',#385,#384,#527,.T.);
#444=EDGE_CURVE('',#384,#378,#528,.T.);
#445=EDGE_CURVE('',#385,#380,#529,.T.);
#446=EDGE_CURVE('',#386,#387,#530,.T.);
#447=EDGE_CURVE('',#388,#386,#531,.T.);
#448=EDGE_CURVE('',#388,#389,#532,.T.);
#449=EDGE_CURVE('',#389,#387,#533,.T.);
#450=EDGE_CURVE('',#390,#386,#534,.T.);
#451=EDGE_CURVE('',#391,#390,#535,.T.);
#452=EDGE_CURVE('',#391,#388,#536,.T.);
#453=EDGE_CURVE('',#392,#390,#537,.T.);
#454=EDGE_CURVE('',#393,#392,#538,.T.);
#455=EDGE_CURVE('',#393,#391,#539,.T.);
#456=EDGE_CURVE('',#394,#395,#540,.T.);
#457=EDGE_CURVE('',#396,#395,#541,.T.);
#458=EDGE_CURVE('',#397,#396,#542,.T.);
#459=EDGE_CURVE('',#397,#394,#543,.T.);
#460=EDGE_CURVE('',#395,#398,#544,.T.);
#461=EDGE_CURVE('',#399,#398,#545,.T.);
#462=EDGE_CURVE('',#396,#399,#546,.T.);
#463=EDGE_CURVE('',#398,#400,#547,.T.);
#464=EDGE_CURVE('',#401,#400,#548,.T.);
#465=EDGE_CURVE('',#399,#401,#549,.T.);
#466=EDGE_CURVE('',#400,#394,#550,.T.);
#467=EDGE_CURVE('',#401,#397,#551,.T.);
#468=EDGE_CURVE('',#387,#392,#552,.T.);
#469=EDGE_CURVE('',#389,#393,#553,.T.);
#470=EDGE_CURVE('',#402,#403,#554,.T.);
#471=EDGE_CURVE('',#404,#403,#555,.T.);
#472=EDGE_CURVE('',#405,#404,#556,.T.);
#473=EDGE_CURVE('',#405,#402,#557,.T.);
#474=EDGE_CURVE('',#406,#402,#558,.T.);
#475=EDGE_CURVE('',#407,#405,#559,.T.);
#476=EDGE_CURVE('',#407,#406,#560,.T.);
#477=EDGE_CURVE('',#406,#408,#561,.T.);
#478=EDGE_CURVE('',#407,#409,#562,.T.);
#479=EDGE_CURVE('',#409,#408,#563,.T.);
#480=EDGE_CURVE('',#410,#408,#564,.T.);
#481=EDGE_CURVE('',#411,#409,#565,.T.);
#482=EDGE_CURVE('',#411,#410,#566,.T.);
#483=EDGE_CURVE('',#412,#410,#567,.T.);
#484=EDGE_CURVE('',#413,#411,#568,.T.);
#485=EDGE_CURVE('',#413,#412,#569,.T.);
#486=EDGE_CURVE('',#414,#412,#570,.T.);
#487=EDGE_CURVE('',#415,#413,#571,.T.);
#488=EDGE_CURVE('',#415,#414,#572,.T.);
#489=EDGE_CURVE('',#414,#416,#573,.T.);
#490=EDGE_CURVE('',#415,#417,#574,.T.);
#491=EDGE_CURVE('',#417,#416,#575,.T.);
#492=EDGE_CURVE('',#403,#416,#576,.T.);
#493=EDGE_CURVE('',#404,#417,#577,.T.);
#494=EDGE_CURVE('',#418,#419,#578,.T.);
#495=EDGE_CURVE('',#420,#418,#579,.T.);
#496=EDGE_CURVE('',#420,#421,#580,.T.);
#497=EDGE_CURVE('',#421,#419,#581,.T.);
#498=EDGE_CURVE('',#419,#422,#582,.T.);
#499=EDGE_CURVE('',#421,#423,#583,.T.);
#500=EDGE_CURVE('',#423,#422,#584,.T.);
#501=EDGE_CURVE('',#424,#422,#585,.T.);
#502=EDGE_CURVE('',#425,#423,#586,.T.);
#503=EDGE_CURVE('',#425,#424,#587,.T.);
#504=EDGE_CURVE('',#424,#426,#588,.T.);
#505=EDGE_CURVE('',#425,#427,#589,.T.);
#506=EDGE_CURVE('',#427,#426,#590,.T.);
#507=EDGE_CURVE('',#426,#428,#591,.T.);
#508=EDGE_CURVE('',#427,#429,#592,.T.);
#509=EDGE_CURVE('',#429,#428,#593,.T.);
#510=EDGE_CURVE('',#428,#430,#594,.T.);
#511=EDGE_CURVE('',#429,#431,#595,.T.);
#512=EDGE_CURVE('',#431,#430,#596,.T.);
#513=EDGE_CURVE('',#432,#430,#597,.T.);
#514=EDGE_CURVE('',#433,#431,#598,.T.);
#515=EDGE_CURVE('',#433,#432,#599,.T.);
#516=EDGE_CURVE('',#432,#418,#600,.T.);
#517=EDGE_CURVE('',#433,#420,#601,.T.);
#518=LINE('',#882,#602);
#519=LINE('',#885,#603);
#520=LINE('',#887,#604);
#521=LINE('',#889,#605);
#522=LINE('',#891,#606);
#523=LINE('',#893,#607);
#524=LINE('',#895,#608);
#525=LINE('',#897,#609);
#526=LINE('',#899,#610);
#527=LINE('',#901,#611);
#528=LINE('',#903,#612);
#529=LINE('',#904,#613);
#530=LINE('',#908,#614);
#531=LINE('',#911,#615);
#532=LINE('',#913,#616);
#533=LINE('',#915,#617);
#534=LINE('',#917,#618);
#535=LINE('',#919,#619);
#536=LINE('',#921,#620);
#537=LINE('',#923,#621);
#538=LINE('',#925,#622);
#539=LINE('',#927,#623);
#540=LINE('',#929,#624);
#541=LINE('',#932,#625);
#542=LINE('',#934,#626);
#543=LINE('',#936,#627);
#544=LINE('',#938,#628);
#545=LINE('',#940,#629);
#546=LINE('',#942,#630);
#547=LINE('',#944,#631);
#548=LINE('',#946,#632);
#549=LINE('',#948,#633);
#550=LINE('',#950,#634);
#551=LINE('',#951,#635);
#552=LINE('',#953,#636);
#553=LINE('',#954,#637);
#554=LINE('',#958,#638);
#555=LINE('',#961,#639);
#556=LINE('',#963,#640);
#557=LINE('',#965,#641);
#558=LINE('',#967,#642);
#559=LINE('',#969,#643);
#560=LINE('',#971,#644);
#561=LINE('',#973,#645);
#562=LINE('',#975,#646);
#563=LINE('',#977,#647);
#564=LINE('',#979,#648);
#565=LINE('',#981,#649);
#566=LINE('',#983,#650);
#567=LINE('',#985,#651);
#568=LINE('',#987,#652);
#569=LINE('',#989,#653);
#570=LINE('',#991,#654);
#571=LINE('',#993,#655);
#572=LINE('',#995,#656);
#573=LINE('',#997,#657);
#574=LINE('',#999,#658);
#575=LINE('',#1001,#659);
#576=LINE('',#1003,#660);
#577=LINE('',#1004,#661);
#578=LINE('',#1008,#662);
#579=LINE('',#1011,#663);
#580=LINE('',#1013,#664);
#581=LINE('',#1015,#665);
#582=LINE('',#1017,#666);
#583=LINE('',#1019,#667);
#584=LINE('',#1021,#668);
#585=LINE('',#1023,#669);
#586=LINE('',#1025,#670);
#587=LINE('',#1027,#671);
#588=LINE('',#1029,#672);
#589=LINE('',#1031,#673);
#590=LINE('',#1033,#674);
#591=LINE('',#1035,#675);
#592=LINE('',#1037,#676);
#593=LINE('',#1039,#677);
#594=LINE('',#1041,#678);
#595=LINE('',#1043,#679);
#596=LINE('',#1045,#680);
#597=LINE('',#1047,#681);
#598=LINE('',#1049,#682);
#599=LINE('',#1051,#683);
#600=LINE('',#1053,#684);
#601=LINE('',#1054,#685);
#602=VECTOR('',#725,1.);
#603=VECTOR('',#726,1.);
#604=VECTOR('',#727,1.);
#605=VECTOR('',#728,1.);
#606=VECTOR('',#731,1.);
#607=VECTOR('',#732,1.);
#608=VECTOR('',#733,1.);
#609=VECTOR('',#736,1.);
#610=VECTOR('',#737,1.);
#611=VECTOR('',#738,1.);
#612=VECTOR('',#741,1.);
#613=VECTOR('',#742,1.);
#614=VECTOR('',#749,1.);
#615=VECTOR('',#750,1.);
#616=VECTOR('',#751,1.);
#617=VECTOR('',#752,1.);
#618=VECTOR('',#755,1.);
#619=VECTOR('',#756,1.);
#620=VECTOR('',#757,1.);
#621=VECTOR('',#760,1.);
#622=VECTOR('',#761,1.);
#623=VECTOR('',#762,1.);
#624=VECTOR('',#765,1.);
#625=VECTOR('',#766,1.);
#626=VECTOR('',#767,1.);
#627=VECTOR('',#768,1.);
#628=VECTOR('',#771,1.);
#629=VECTOR('',#772,1.);
#630=VECTOR('',#773,1.);
#631=VECTOR('',#776,1.);
#632=VECTOR('',#777,1.);
#633=VECTOR('',#778,1.);
#634=VECTOR('',#781,1.);
#635=VECTOR('',#782,1.);
#636=VECTOR('',#785,1.);
#637=VECTOR('',#786,1.);
#638=VECTOR('',#793,1.);
#639=VECTOR('',#794,1.);
#640=VECTOR('',#795,1.);
#641=VECTOR('',#796,1.);
#642=VECTOR('',#799,1.);
#643=VECTOR('',#800,1.);
#644=VECTOR('',#801,1.);
#645=VECTOR('',#804,1.);
#646=VECTOR('',#805,1.);
#647=VECTOR('',#806,1.);
#648=VECTOR('',#809,1.);
#649=VECTOR('',#810,1.);
#650=VECTOR('',#811,1.);
#651=VECTOR('',#814,1.);
#652=VECTOR('',#815,1.);
#653=VECTOR('',#816,1.);
#654=VECTOR('',#819,1.);
#655=VECTOR('',#820,1.);
#656=VECTOR('',#821,1.);
#657=VECTOR('',#824,1.);
#658=VECTOR('',#825,1.);
#659=VECTOR('',#826,1.);
#660=VECTOR('',#829,1.);
#661=VECTOR('',#830,1.);
#662=VECTOR('',#837,1.);
#663=VECTOR('',#838,1.);
#664=VECTOR('',#839,1.);
#665=VECTOR('',#840,1.);
#666=VECTOR('',#843,1.);
#667=VECTOR('',#844,1.);
#668=VECTOR('',#845,1.);
#669=VECTOR('',#848,1.);
#670=VECTOR('',#849,1.);
#671=VECTOR('',#850,1.);
#672=VECTOR('',#853,1.);
#673=VECTOR('',#854,1.);
#674=VECTOR('',#855,1.);
#675=VECTOR('',#858,1.);
#676=VECTOR('',#859,1.);
#677=VECTOR('',#860,1.);
#678=VECTOR('',#863,1.);
#679=VECTOR('',#864,1.);
#680=VECTOR('',#865,1.);
#681=VECTOR('',#868,1.);
#682=VECTOR('',#869,1.);
#683=VECTOR('',#870,1.);
#684=VECTOR('',#873,1.);
#685=VECTOR('',#874,1.);
#686=AXIS2_PLACEMENT_3D('',#881,#723,#724);
#687=AXIS2_PLACEMENT_3D('',#890,#729,#730);
#688=AXIS2_PLACEMENT_3D('',#896,#734,#735);
#689=AXIS2_PLACEMENT_3D('',#902,#739,#740);
#690=AXIS2_PLACEMENT_3D('',#905,#743,#744);
#691=AXIS2_PLACEMENT_3D('',#906,#745,#746);
#692=AXIS2_PLACEMENT_3D('',#907,#747,#748);
#693=AXIS2_PLACEMENT_3D('',#916,#753,#754);
#694=AXIS2_PLACEMENT_3D('',#922,#758,#759);
#695=AXIS2_PLACEMENT_3D('',#928,#763,#764);
#696=AXIS2_PLACEMENT_3D('',#937,#769,#770);
#697=AXIS2_PLACEMENT_3D('',#943,#774,#775);
#698=AXIS2_PLACEMENT_3D('',#949,#779,#780);
#699=AXIS2_PLACEMENT_3D('',#952,#783,#784);
#700=AXIS2_PLACEMENT_3D('',#955,#787,#788);
#701=AXIS2_PLACEMENT_3D('',#956,#789,#790);
#702=AXIS2_PLACEMENT_3D('',#957,#791,#792);
#703=AXIS2_PLACEMENT_3D('',#966,#797,#798);
#704=AXIS2_PLACEMENT_3D('',#972,#802,#803);
#705=AXIS2_PLACEMENT_3D('',#978,#807,#808);
#706=AXIS2_PLACEMENT_3D('',#984,#812,#813);
#707=AXIS2_PLACEMENT_3D('',#990,#817,#818);
#708=AXIS2_PLACEMENT_3D('',#996,#822,#823);
#709=AXIS2_PLACEMENT_3D('',#1002,#827,#828);
#710=AXIS2_PLACEMENT_3D('',#1005,#831,#832);
#711=AXIS2_PLACEMENT_3D('',#1006,#833,#834);
#712=AXIS2_PLACEMENT_3D('',#1007,#835,#836);
#713=AXIS2_PLACEMENT_3D('',#1016,#841,#842);
#714=AXIS2_PLACEMENT_3D('',#1022,#846,#847);
#715=AXIS2_PLACEMENT_3D('',#1028,#851,#852);
#716=AXIS2_PLACEMENT_3D('',#1034,#856,#857);
#717=AXIS2_PLACEMENT_3D('',#1040,#861,#862);
#718=AXIS2_PLACEMENT_3D('',#1046,#866,#867);
#719=AXIS2_PLACEMENT_3D('',#1052,#871,#872);
#720=AXIS2_PLACEMENT_3D('',#1055,#875,#876);
#721=AXIS2_PLACEMENT_3D('',#1056,#877,#878);
#722=AXIS2_PLACEMENT_3D('',#1057,#879,#880);
#723=DIRECTION('',(0.,0.,1.));
#724=DIRECTION('',(1.,0.,0.));
#725=DIRECTION('',(0.,1.,0.));
#726=DIRECTION('',(0.,0.,-1.));
#727=DIRECTION('',(0.,1.,0.));
#728=DIRECTION('',(0.,0.,-1.));
#729=DIRECTION('',(-1.,0.,0.));
#730=DIRECTION('',(0.,0.,1.));
#731=DIRECTION('',(1.,0.,0.));
#732=DIRECTION('',(1.,0.,0.));
#733=DIRECTION('',(0.,0.,-1.));
#734=DIRECTION('',(0.,1.,0.));
#735=DIRECTION('',(0.,0.,1.));
#736=DIRECTION('',(5.66440318686304E-17,-1.,0.));
#737=DIRECTION('',(5.66440318686304E-17,-1.,0.));
#738=DIRECTION('',(0.,0.,-1.));
#739=DIRECTION('',(1.,5.66440318686304E-17,0.));
#740=DIRECTION('',(-5.55111512312578E-17,1.,0.));
#741=DIRECTION('',(-1.,0.,0.));
#742=DIRECTION('',(-1.,0.,0.));
#743=DIRECTION('',(0.,-1.,0.));
#744=DIRECTION('',(0.,0.,-1.));
#745=DIRECTION('',(0.,0.,-1.));
#746=DIRECTION('',(-1.,0.,0.));
#747=DIRECTION('',(0.,0.,-1.));
#748=DIRECTION('',(-1.,0.,0.));
#749=DIRECTION('',(0.,1.,0.));
#750=DIRECTION('',(0.,0.,1.));
#751=DIRECTION('',(0.,1.,0.));
#752=DIRECTION('',(0.,0.,1.));
#753=DIRECTION('',(1.,0.,0.));
#754=DIRECTION('',(0.,0.,-1.));
#755=DIRECTION('',(-1.,-1.2335811384724E-16,0.));
#756=DIRECTION('',(0.,0.,1.));
#757=DIRECTION('',(-1.,-1.2335811384724E-16,0.));
#758=DIRECTION('',(-1.2335811384724E-16,1.,0.));
#759=DIRECTION('',(-1.,-1.11022302462516E-16,0.));
#760=DIRECTION('',(0.,-1.,0.));
#761=DIRECTION('',(0.,0.,1.));
#762=DIRECTION('',(0.,-1.,0.));
#763=DIRECTION('',(-1.,0.,0.));
#764=DIRECTION('',(0.,0.,1.));
#765=DIRECTION('',(0.,1.,0.));
#766=DIRECTION('',(0.,0.,1.));
#767=DIRECTION('',(0.,1.,0.));
#768=DIRECTION('',(0.,0.,1.));
#769=DIRECTION('',(1.,0.,0.));
#770=DIRECTION('',(0.,0.,-1.));
#771=DIRECTION('',(1.,-2.26576127474522E-16,0.));
#772=DIRECTION('',(0.,0.,1.));
#773=DIRECTION('',(1.,-2.26576127474522E-16,0.));
#774=DIRECTION('',(-2.26576127474522E-16,-1.,0.));
#775=DIRECTION('',(1.,-2.22044604925031E-16,0.));
#776=DIRECTION('',(5.66440318686304E-17,-1.,0.));
#777=DIRECTION('',(0.,0.,1.));
#778=DIRECTION('',(5.66440318686304E-17,-1.,0.));
#779=DIRECTION('',(-1.,-5.66440318686304E-17,0.));
#780=DIRECTION('',(5.55111512312578E-17,-1.,0.));
#781=DIRECTION('',(-1.,1.13288063737261E-16,0.));
#782=DIRECTION('',(-1.,1.13288063737261E-16,0.));
#783=DIRECTION('',(1.13288063737261E-16,1.,0.));
#784=DIRECTION('',(-1.,1.11022302462516E-16,0.));
#785=DIRECTION('',(1.,0.,0.));
#786=DIRECTION('',(1.,0.,0.));
#787=DIRECTION('',(0.,-1.,0.));
#788=DIRECTION('',(0.,0.,-1.));
#789=DIRECTION('',(0.,0.,-1.));
#790=DIRECTION('',(-1.,0.,0.));
#791=DIRECTION('',(0.,0.,-1.));
#792=DIRECTION('',(-1.,0.,0.));
#793=DIRECTION('',(-1.,0.,0.));
#794=DIRECTION('',(0.,1.,0.));
#795=DIRECTION('',(-1.,0.,0.));
#796=DIRECTION('',(0.,1.,0.));
#797=DIRECTION('',(0.,0.,1.));
#798=DIRECTION('',(1.,0.,0.));
#799=DIRECTION('',(-2.31296463463575E-16,0.,1.));
#800=DIRECTION('',(-2.31296463463575E-16,0.,1.));
#801=DIRECTION('',(0.,1.,0.));
#802=DIRECTION('',(1.,0.,2.31296463463575E-16));
#803=DIRECTION('',(2.35922392732846E-16,0.,-1.));
#804=DIRECTION('',(-1.,0.,0.));
#805=DIRECTION('',(-1.,0.,0.));
#806=DIRECTION('',(0.,1.,0.));
#807=DIRECTION('',(0.,0.,-1.));
#808=DIRECTION('',(-1.,0.,0.));
#809=DIRECTION('',(2.08166817117217E-15,0.,-1.));
#810=DIRECTION('',(2.08166817117217E-15,0.,-1.));
#811=DIRECTION('',(0.,1.,0.));
#812=DIRECTION('',(-1.,0.,-2.08166817117217E-15));
#813=DIRECTION('',(-2.08166817117217E-15,0.,1.));
#814=DIRECTION('',(1.,0.,0.));
#815=DIRECTION('',(1.,0.,0.));
#816=DIRECTION('',(0.,1.,0.));
#817=DIRECTION('',(0.,0.,-1.));
#818=DIRECTION('',(-1.,0.,0.));
#819=DIRECTION('',(2.08166817117217E-15,0.,1.));
#820=DIRECTION('',(2.08166817117217E-15,0.,1.));
#821=DIRECTION('',(0.,1.,0.));
#822=DIRECTION('',(1.,0.,-2.08166817117217E-15));
#823=DIRECTION('',(-2.08166817117217E-15,0.,-1.));
#824=DIRECTION('',(-1.,0.,0.));
#825=DIRECTION('',(-1.,0.,0.));
#826=DIRECTION('',(0.,1.,0.));
#827=DIRECTION('',(0.,0.,-1.));
#828=DIRECTION('',(-1.,0.,0.));
#829=DIRECTION('',(2.31296463463575E-16,0.,-1.));
#830=DIRECTION('',(2.31296463463575E-16,0.,-1.));
#831=DIRECTION('',(-1.,0.,-2.31296463463575E-16));
#832=DIRECTION('',(-2.35922392732846E-16,0.,1.));
#833=DIRECTION('',(0.,1.,0.));
#834=DIRECTION('',(0.,0.,1.));
#835=DIRECTION('',(0.,1.,0.));
#836=DIRECTION('',(0.,0.,1.));
#837=DIRECTION('',(-1.,0.,0.));
#838=DIRECTION('',(0.,-1.,0.));
#839=DIRECTION('',(-1.,0.,0.));
#840=DIRECTION('',(0.,-1.,0.));
#841=DIRECTION('',(0.,0.,1.));
#842=DIRECTION('',(1.,0.,0.));
#843=DIRECTION('',(2.31296463463575E-16,0.,-1.));
#844=DIRECTION('',(2.31296463463575E-16,0.,-1.));
#845=DIRECTION('',(0.,-1.,0.));
#846=DIRECTION('',(-1.,0.,-2.31296463463575E-16));
#847=DIRECTION('',(-2.35922392732846E-16,0.,1.));
#848=DIRECTION('',(-1.,0.,0.));
#849=DIRECTION('',(-1.,0.,0.));
#850=DIRECTION('',(0.,-1.,0.));
#851=DIRECTION('',(0.,0.,-1.));
#852=DIRECTION('',(-1.,0.,0.));
#853=DIRECTION('',(2.08166817117217E-15,0.,1.));
#854=DIRECTION('',(2.08166817117217E-15,0.,1.));
#855=DIRECTION('',(0.,-1.,0.));
#856=DIRECTION('',(1.,0.,-2.08166817117217E-15));
#857=DIRECTION('',(-2.08166817117217E-15,0.,-1.));
#858=DIRECTION('',(1.,0.,0.));
#859=DIRECTION('',(1.,0.,0.));
#860=DIRECTION('',(0.,-1.,0.));
#861=DIRECTION('',(0.,0.,-1.));
#862=DIRECTION('',(-1.,0.,0.));
#863=DIRECTION('',(2.08166817117217E-15,0.,-1.));
#864=DIRECTION('',(2.08166817117217E-15,0.,-1.));
#865=DIRECTION('',(0.,-1.,0.));
#866=DIRECTION('',(-1.,0.,-2.08166817117217E-15));
#867=DIRECTION('',(-2.08166817117217E-15,0.,1.));
#868=DIRECTION('',(-1.,0.,0.));
#869=DIRECTION('',(-1.,0.,0.));
#870=DIRECTION('',(0.,-1.,0.));
#871=DIRECTION('',(0.,0.,-1.));
#872=DIRECTION('',(-1.,0.,0.));
#873=DIRECTION('',(-2.31296463463575E-16,0.,1.));
#874=DIRECTION('',(-2.31296463463575E-16,0.,1.));
#875=DIRECTION('',(1.,0.,2.31296463463575E-16));
#876=DIRECTION('',(2.35922392732846E-16,0.,-1.));
#877=DIRECTION('',(0.,-1.,0.));
#878=DIRECTION('',(0.,0.,-1.));
#879=DIRECTION('',(0.,-1.,0.));
#880=DIRECTION('',(0.,0.,-1.));
#881=CARTESIAN_POINT('',(0.,0.,0.));
#882=CARTESIAN_POINT('',(-245.,-245.,0.));
#883=CARTESIAN_POINT('',(-245.,-245.,0.));
#884=CARTESIAN_POINT('',(-245.,245.,0.));
#885=CARTESIAN_POINT('',(-245.,-245.,20.));
#886=CARTESIAN_POINT('',(-245.,-245.,20.));
#887=CARTESIAN_POINT('',(-245.,-245.,20.));
#888=CARTESIAN_POINT('',(-245.,245.,20.));
#889=CARTESIAN_POINT('',(-245.,245.,20.));
#890=CARTESIAN_POINT('',(-245.,-245.,20.));
#891=CARTESIAN_POINT('',(-245.,245.,0.));
#892=CARTESIAN_POINT('',(245.,245.,0.));
#893=CARTESIAN_POINT('',(-245.,245.,20.));
#894=CARTESIAN_POINT('',(245.,245.,20.));
#895=CARTESIAN_POINT('',(245.,245.,20.));
#896=CARTESIAN_POINT('',(-245.,245.,20.));
#897=CARTESIAN_POINT('',(245.,245.,0.));
#898=CARTESIAN_POINT('',(245.,-245.,0.));
#899=CARTESIAN_POINT('',(245.,245.,20.));
#900=CARTESIAN_POINT('',(245.,-245.,20.));
#901=CARTESIAN_POINT('',(245.,-245.,20.));
#902=CARTESIAN_POINT('',(245.,245.,20.));
#903=CARTESIAN_POINT('',(245.,-245.,0.));
#904=CARTESIAN_POINT('',(245.,-245.,20.));
#905=CARTESIAN_POINT('',(245.,-245.,20.));
#906=CARTESIAN_POINT('',(0.,0.,20.));
#907=CARTESIAN_POINT('',(0.,0.,0.));
#908=CARTESIAN_POINT('',(-225.,-225.,0.));
#909=CARTESIAN_POINT('',(-225.,-225.,0.));
#910=CARTESIAN_POINT('',(-225.,225.,0.));
#911=CARTESIAN_POINT('',(-225.,-225.,-2.));
#912=CARTESIAN_POINT('',(-225.,-225.,-2.));
#913=CARTESIAN_POINT('',(-225.,-225.,-2.));
#914=CARTESIAN_POINT('',(-225.,225.,-2.));
#915=CARTESIAN_POINT('',(-225.,225.,-2.));
#916=CARTESIAN_POINT('',(-225.,-225.,-2.));
#917=CARTESIAN_POINT('',(225.,-225.,0.));
#918=CARTESIAN_POINT('',(225.,-225.,0.));
#919=CARTESIAN_POINT('',(225.,-225.,-2.));
#920=CARTESIAN_POINT('',(225.,-225.,-2.));
#921=CARTESIAN_POINT('',(225.,-225.,-2.));
#922=CARTESIAN_POINT('',(225.,-225.,-2.));
#923=CARTESIAN_POINT('',(225.,225.,0.));
#924=CARTESIAN_POINT('',(225.,225.,0.));
#925=CARTESIAN_POINT('',(225.,225.,-2.));
#926=CARTESIAN_POINT('',(225.,225.,-2.));
#927=CARTESIAN_POINT('',(225.,225.,-2.));
#928=CARTESIAN_POINT('',(225.,225.,-2.));
#929=CARTESIAN_POINT('',(-245.,-245.,0.));
#930=CARTESIAN_POINT('',(-245.,-245.,0.));
#931=CARTESIAN_POINT('',(-245.,245.,0.));
#932=CARTESIAN_POINT('',(-245.,245.,-2.));
#933=CARTESIAN_POINT('',(-245.,245.,-2.));
#934=CARTESIAN_POINT('',(-245.,-245.,-2.));
#935=CARTESIAN_POINT('',(-245.,-245.,-2.));
#936=CARTESIAN_POINT('',(-245.,-245.,-2.));
#937=CARTESIAN_POINT('',(-245.,-245.,-2.));
#938=CARTESIAN_POINT('',(-245.,245.,0.));
#939=CARTESIAN_POINT('',(245.,245.,0.));
#940=CARTESIAN_POINT('',(245.,245.,-2.));
#941=CARTESIAN_POINT('',(245.,245.,-2.));
#942=CARTESIAN_POINT('',(-245.,245.,-2.));
#943=CARTESIAN_POINT('',(-245.,245.,-2.));
#944=CARTESIAN_POINT('',(245.,245.,0.));
#945=CARTESIAN_POINT('',(245.,-245.,0.));
#946=CARTESIAN_POINT('',(245.,-245.,-2.));
#947=CARTESIAN_POINT('',(245.,-245.,-2.));
#948=CARTESIAN_POINT('',(245.,245.,-2.));
#949=CARTESIAN_POINT('',(245.,245.,-2.));
#950=CARTESIAN_POINT('',(245.,-245.,0.));
#951=CARTESIAN_POINT('',(245.,-245.,-2.));
#952=CARTESIAN_POINT('',(245.,-245.,-2.));
#953=CARTESIAN_POINT('',(-225.,225.,0.));
#954=CARTESIAN_POINT('',(-225.,225.,-2.));
#955=CARTESIAN_POINT('',(-225.,225.,-2.));
#956=CARTESIAN_POINT('',(0.,0.,-2.));
#957=CARTESIAN_POINT('',(0.,0.,0.));
#958=CARTESIAN_POINT('',(-85.0000000000001,205.,79.9999999999999));
#959=CARTESIAN_POINT('',(85.0000000000001,205.,79.9999999999999));
#960=CARTESIAN_POINT('',(-85.0000000000001,205.,79.9999999999999));
#961=CARTESIAN_POINT('',(-85.0000000000001,185.,79.9999999999999));
#962=CARTESIAN_POINT('',(-85.0000000000001,185.,79.9999999999999));
#963=CARTESIAN_POINT('',(-85.0000000000001,185.,79.9999999999999));
#964=CARTESIAN_POINT('',(85.0000000000001,185.,79.9999999999999));
#965=CARTESIAN_POINT('',(85.0000000000001,185.,79.9999999999999));
#966=CARTESIAN_POINT('',(-85.0000000000001,185.,79.9999999999999));
#967=CARTESIAN_POINT('',(85.0000000000001,205.,79.9999999999999));
#968=CARTESIAN_POINT('',(85.0000000000001,205.,20.0000000000001));
#969=CARTESIAN_POINT('',(85.0000000000001,185.,79.9999999999999));
#970=CARTESIAN_POINT('',(85.0000000000001,185.,20.0000000000001));
#971=CARTESIAN_POINT('',(85.0000000000001,185.,20.0000000000001));
#972=CARTESIAN_POINT('',(85.0000000000001,185.,79.9999999999999));
#973=CARTESIAN_POINT('',(85.,205.,19.9999999999999));
#974=CARTESIAN_POINT('',(65.0000000000001,205.,19.9999999999999));
#975=CARTESIAN_POINT('',(85.,185.,19.9999999999999));
#976=CARTESIAN_POINT('',(65.0000000000001,185.,19.9999999999999));
#977=CARTESIAN_POINT('',(65.0000000000001,185.,19.9999999999999));
#978=CARTESIAN_POINT('',(85.,185.,19.9999999999999));
#979=CARTESIAN_POINT('',(65.0000000000001,205.,19.9999999999999));
#980=CARTESIAN_POINT('',(65.,205.,59.9999999999999));
#981=CARTESIAN_POINT('',(65.0000000000001,185.,19.9999999999999));
#982=CARTESIAN_POINT('',(65.,185.,59.9999999999999));
#983=CARTESIAN_POINT('',(65.,185.,59.9999999999999));
#984=CARTESIAN_POINT('',(65.0000000000001,185.,19.9999999999999));
#985=CARTESIAN_POINT('',(65.,205.,59.9999999999999));
#986=CARTESIAN_POINT('',(-65.,205.,59.9999999999999));
#987=CARTESIAN_POINT('',(65.,185.,59.9999999999999));
#988=CARTESIAN_POINT('',(-65.,185.,59.9999999999999));
#989=CARTESIAN_POINT('',(-65.,185.,59.9999999999999));
#990=CARTESIAN_POINT('',(65.,185.,59.9999999999999));
#991=CARTESIAN_POINT('',(-65.,205.,59.9999999999999));
#992=CARTESIAN_POINT('',(-65.0000000000001,205.,19.9999999999999));
#993=CARTESIAN_POINT('',(-65.,185.,59.9999999999999));
#994=CARTESIAN_POINT('',(-65.0000000000001,185.,19.9999999999999));
#995=CARTESIAN_POINT('',(-65.0000000000001,185.,19.9999999999999));
#996=CARTESIAN_POINT('',(-65.,185.,59.9999999999999));
#997=CARTESIAN_POINT('',(-65.0000000000001,205.,20.));
#998=CARTESIAN_POINT('',(-85.,205.,20.));
#999=CARTESIAN_POINT('',(-65.0000000000001,185.,20.));
#1000=CARTESIAN_POINT('',(-85.,185.,20.));
#1001=CARTESIAN_POINT('',(-85.,185.,20.));
#1002=CARTESIAN_POINT('',(-65.0000000000001,185.,20.));
#1003=CARTESIAN_POINT('',(-85.,205.,20.));
#1004=CARTESIAN_POINT('',(-85.,185.,20.));
#1005=CARTESIAN_POINT('',(-85.,185.,20.));
#1006=CARTESIAN_POINT('',(0.,185.,0.));
#1007=CARTESIAN_POINT('',(0.,205.,0.));
#1008=CARTESIAN_POINT('',(85.0000000000001,-205.,79.9999999999999));
#1009=CARTESIAN_POINT('',(85.0000000000001,-205.,79.9999999999999));
#1010=CARTESIAN_POINT('',(-85.0000000000001,-205.,79.9999999999999));
#1011=CARTESIAN_POINT('',(85.0000000000001,-185.,79.9999999999999));
#1012=CARTESIAN_POINT('',(85.0000000000001,-185.,79.9999999999999));
#1013=CARTESIAN_POINT('',(85.0000000000001,-185.,79.9999999999999));
#1014=CARTESIAN_POINT('',(-85.0000000000001,-185.,79.9999999999999));
#1015=CARTESIAN_POINT('',(-85.0000000000001,-185.,79.9999999999999));
#1016=CARTESIAN_POINT('',(85.0000000000001,-185.,79.9999999999999));
#1017=CARTESIAN_POINT('',(-85.0000000000001,-205.,79.9999999999999));
#1018=CARTESIAN_POINT('',(-85.,-205.,20.));
#1019=CARTESIAN_POINT('',(-85.0000000000001,-185.,79.9999999999999));
#1020=CARTESIAN_POINT('',(-85.,-185.,20.));
#1021=CARTESIAN_POINT('',(-85.,-185.,20.));
#1022=CARTESIAN_POINT('',(-85.0000000000001,-185.,79.9999999999999));
#1023=CARTESIAN_POINT('',(-85.,-205.,20.));
#1024=CARTESIAN_POINT('',(-65.0000000000001,-205.,20.));
#1025=CARTESIAN_POINT('',(-85.,-185.,20.));
#1026=CARTESIAN_POINT('',(-65.0000000000001,-185.,20.));
#1027=CARTESIAN_POINT('',(-65.0000000000001,-185.,20.));
#1028=CARTESIAN_POINT('',(-85.,-185.,20.));
#1029=CARTESIAN_POINT('',(-65.0000000000001,-205.,19.9999999999999));
#1030=CARTESIAN_POINT('',(-65.,-205.,59.9999999999999));
#1031=CARTESIAN_POINT('',(-65.0000000000001,-185.,19.9999999999999));
#1032=CARTESIAN_POINT('',(-65.,-185.,59.9999999999999));
#1033=CARTESIAN_POINT('',(-65.,-185.,59.9999999999999));
#1034=CARTESIAN_POINT('',(-65.0000000000001,-185.,19.9999999999999));
#1035=CARTESIAN_POINT('',(-65.,-205.,59.9999999999999));
#1036=CARTESIAN_POINT('',(65.,-205.,59.9999999999999));
#1037=CARTESIAN_POINT('',(-65.,-185.,59.9999999999999));
#1038=CARTESIAN_POINT('',(65.,-185.,59.9999999999999));
#1039=CARTESIAN_POINT('',(65.,-185.,59.9999999999999));
#1040=CARTESIAN_POINT('',(-65.,-185.,59.9999999999999));
#1041=CARTESIAN_POINT('',(65.,-205.,59.9999999999999));
#1042=CARTESIAN_POINT('',(65.0000000000001,-205.,19.9999999999999));
#1043=CARTESIAN_POINT('',(65.,-185.,59.9999999999999));
#1044=CARTESIAN_POINT('',(65.0000000000001,-185.,19.9999999999999));
#1045=CARTESIAN_POINT('',(65.0000000000001,-185.,19.9999999999999));
#1046=CARTESIAN_POINT('',(65.,-185.,59.9999999999999));
#1047=CARTESIAN_POINT('',(65.0000000000001,-205.,19.9999999999999));
#1048=CARTESIAN_POINT('',(85.,-205.,19.9999999999999));
#1049=CARTESIAN_POINT('',(65.0000000000001,-185.,19.9999999999999));
#1050=CARTESIAN_POINT('',(85.,-185.,19.9999999999999));
#1051=CARTESIAN_POINT('',(85.,-185.,19.9999999999999));
#1052=CARTESIAN_POINT('',(65.0000000000001,-185.,19.9999999999999));
#1053=CARTESIAN_POINT('',(85.0000000000001,-205.,20.0000000000001));
#1054=CARTESIAN_POINT('',(85.0000000000001,-185.,20.0000000000001));
#1055=CARTESIAN_POINT('',(85.0000000000001,-185.,20.0000000000001));
#1056=CARTESIAN_POINT('',(0.,-185.,0.));
#1057=CARTESIAN_POINT('',(0.,-205.,0.));
#1058=MECHANICAL_DESIGN_GEOMETRIC_PRESENTATION_REPRESENTATION('',(#28,#29,
#30,#31),#1059);
#1059=(
GEOMETRIC_REPRESENTATION_CONTEXT(3)
GLOBAL_UNCERTAINTY_ASSIGNED_CONTEXT((#1060))
GLOBAL_UNIT_ASSIGNED_CONTEXT((#1066,#1062,#1061))
REPRESENTATION_CONTEXT('S_SF_M_05_lid','TOP_LEVEL_ASSEMBLY_PART')
);
#1060=UNCERTAINTY_MEASURE_WITH_UNIT(LENGTH_MEASURE(2.E-5),#1066,
'DISTANCE_ACCURACY_VALUE','Maximum Tolerance applied to model');
#1061=(
NAMED_UNIT(*)
SI_UNIT($,.STERADIAN.)
SOLID_ANGLE_UNIT()
);
#1062=(
CONVERSION_BASED_UNIT('DEGREE',#1064)
NAMED_UNIT(#1063)
PLANE_ANGLE_UNIT()
);
#1063=DIMENSIONAL_EXPONENTS(0.,0.,0.,0.,0.,0.,0.);
#1064=PLANE_ANGLE_MEASURE_WITH_UNIT(PLANE_ANGLE_MEASURE(0.0174532925),#1065);
#1065=(
NAMED_UNIT(*)
PLANE_ANGLE_UNIT()
SI_UNIT($,.RADIAN.)
);
#1066=(
LENGTH_UNIT()
NAMED_UNIT(*)
SI_UNIT(.MILLI.,.METRE.)
);
ENDSEC;
END-ISO-10303-21;
