ISO-10303-21;
HEADER;
/* Generated by software containing ST-Developer
 * from STEP Tools, Inc. (www.steptools.com) 
 */
/* OPTION: using custom schema-name function */

FILE_DESCRIPTION(
/* description */ (''),
/* implementation_level */ '2;1');

FILE_NAME(
/* name */ 'S_SF_M_06_stirrer.stp',
/* time_stamp */ '2025-12-15T17:00:11+01:00',
/* author */ (''),
/* organization */ (''),
/* preprocessor_version */ 'ST-DEVELOPER v18.1',
/* originating_system */ 'SIEMENS PLM Software NX 1988',
/* authorisation */ '');

FILE_SCHEMA (('AUTOMOTIVE_DESIGN { 1 0 10303 214 3 1 1 1 }'));
ENDSEC;

DATA;
#10=SHAPE_REPRESENTATION_RELATIONSHIP('None',
'relationship between S_SF_M_06_stirrer-None and S_SF_M_06_stirrer-Non
e',#22,#11);
#11=ADVANCED_BREP_SHAPE_REPRESENTATION('S_SF_M_06_stirrer-None',(#32),#1115);
#12=SHAPE_DEFINITION_REPRESENTATION(#13,#22);
#13=PRODUCT_DEFINITION_SHAPE('','',#14);
#14=PRODUCT_DEFINITION(' ','',#16,#15);
#15=PRODUCT_DEFINITION_CONTEXT('part definition',#21,'design');
#16=PRODUCT_DEFINITION_FORMATION_WITH_SPECIFIED_SOURCE(' ',' ',#18,
 .NOT_KNOWN.);
#17=PRODUCT_RELATED_PRODUCT_CATEGORY('part','',(#18));
#18=PRODUCT('S_SF_M_06_stirrer','S_SF_M_06_stirrer',' ',(#19));
#19=PRODUCT_CONTEXT(' ',#21,'mechanical');
#20=APPLICATION_PROTOCOL_DEFINITION('international standard',
'automotive_design',2010,#21);
#21=APPLICATION_CONTEXT(
'core data for automotive mechanical design processes');
#22=SHAPE_REPRESENTATION('S_SF_M_06_stirrer-None',(#334),#1115);
#23=PRESENTATION_LAYER_ASSIGNMENT('1','Layer 1',(#32));
#24=STYLED_ITEM('',(#25),#32);
#25=PRESENTATION_STYLE_ASSIGNMENT((#26));
#26=SURFACE_STYLE_USAGE(.BOTH.,#27);
#27=SURFACE_SIDE_STYLE('',(#28));
#28=SURFACE_STYLE_FILL_AREA(#29);
#29=FILL_AREA_STYLE('',(#30));
#30=FILL_AREA_STYLE_COLOUR('',#31);
#31=COLOUR_RGB('medium steel',0.596078431372549,0.666666666666667,0.686274509803922);
#32=MANIFOLD_SOLID_BREP('',#33);
#33=CLOSED_SHELL('',(#46,#47,#48,#49,#50,#51,#52,#53,#54,#55,#56,#57,#58,
#59,#60,#61,#62,#63,#64,#65,#66,#67,#68,#69));
#34=TOROIDAL_SURFACE('',#343,9.99999999999999,1.);
#35=TOROIDAL_SURFACE('',#348,9.99999999999999,1.);
#36=TOROIDAL_SURFACE('',#352,9.99999999999998,1.);
#37=TOROIDAL_SURFACE('',#357,9.99999999999999,1.);
#38=TOROIDAL_SURFACE('',#361,9.99999999999998,1.);
#39=TOROIDAL_SURFACE('',#366,9.99999999999999,1.);
#40=TOROIDAL_SURFACE('',#371,9.99999999999999,1.);
#41=TOROIDAL_SURFACE('',#375,9.99999999999999,1.);
#42=PLANE('',#338);
#43=PLANE('',#339);
#44=FACE_OUTER_BOUND('',#168,.T.);
#45=FACE_OUTER_BOUND('',#169,.T.);
#46=ADVANCED_FACE('',(#102,#103,#104,#105,#106,#107,#108,#109,#110,#111,
#112,#113),#70,.T.);
#47=ADVANCED_FACE('',(#44),#42,.T.);
#48=ADVANCED_FACE('',(#45),#43,.T.);
#49=ADVANCED_FACE('',(#114,#115),#71,.F.);
#50=ADVANCED_FACE('',(#116,#117),#34,.T.);
#51=ADVANCED_FACE('',(#118,#119),#72,.T.);
#52=ADVANCED_FACE('',(#120,#121),#73,.T.);
#53=ADVANCED_FACE('',(#122,#123),#35,.T.);
#54=ADVANCED_FACE('',(#124,#125),#74,.T.);
#55=ADVANCED_FACE('',(#126,#127),#36,.T.);
#56=ADVANCED_FACE('',(#128,#129),#75,.T.);
#57=ADVANCED_FACE('',(#130,#131),#76,.T.);
#58=ADVANCED_FACE('',(#132,#133),#37,.T.);
#59=ADVANCED_FACE('',(#134,#135),#77,.T.);
#60=ADVANCED_FACE('',(#136,#137),#38,.T.);
#61=ADVANCED_FACE('',(#138,#139),#78,.T.);
#62=ADVANCED_FACE('',(#140,#141),#79,.T.);
#63=ADVANCED_FACE('',(#142,#143),#39,.T.);
#64=ADVANCED_FACE('',(#144,#145),#80,.T.);
#65=ADVANCED_FACE('',(#146,#147),#81,.T.);
#66=ADVANCED_FACE('',(#148,#149),#40,.T.);
#67=ADVANCED_FACE('',(#150,#151),#82,.T.);
#68=ADVANCED_FACE('',(#152,#153),#41,.T.);
#69=ADVANCED_FACE('',(#154,#155),#83,.T.);
#70=CYLINDRICAL_SURFACE('',#337,9.99999999999995);
#71=CYLINDRICAL_SURFACE('',#340,2.);
#72=CYLINDRICAL_SURFACE('',#344,1.);
#73=CYLINDRICAL_SURFACE('',#346,1.);
#74=CYLINDRICAL_SURFACE('',#349,1.);
#75=CYLINDRICAL_SURFACE('',#353,1.);
#76=CYLINDRICAL_SURFACE('',#355,1.);
#77=CYLINDRICAL_SURFACE('',#358,1.);
#78=CYLINDRICAL_SURFACE('',#362,1.);
#79=CYLINDRICAL_SURFACE('',#364,1.);
#80=CYLINDRICAL_SURFACE('',#367,1.);
#81=CYLINDRICAL_SURFACE('',#369,1.);
#82=CYLINDRICAL_SURFACE('',#373,1.);
#83=CYLINDRICAL_SURFACE('',#376,1.);
#84=CIRCLE('',#335,9.99999999999995);
#85=CIRCLE('',#336,9.99999999999985);
#86=CIRCLE('',#341,1.);
#87=CIRCLE('',#342,1.);
#88=CIRCLE('',#345,1.);
#89=CIRCLE('',#347,1.);
#90=CIRCLE('',#350,1.);
#91=CIRCLE('',#351,1.);
#92=CIRCLE('',#354,1.);
#93=CIRCLE('',#356,1.);
#94=CIRCLE('',#359,1.);
#95=CIRCLE('',#360,1.);
#96=CIRCLE('',#363,1.);
#97=CIRCLE('',#365,1.);
#98=CIRCLE('',#368,1.);
#99=CIRCLE('',#370,1.);
#100=CIRCLE('',#372,1.);
#101=CIRCLE('',#374,1.);
#102=FACE_BOUND('',#156,.T.);
#103=FACE_BOUND('',#157,.T.);
#104=FACE_BOUND('',#158,.T.);
#105=FACE_BOUND('',#159,.T.);
#106=FACE_BOUND('',#160,.T.);
#107=FACE_BOUND('',#161,.T.);
#108=FACE_BOUND('',#162,.T.);
#109=FACE_BOUND('',#163,.T.);
#110=FACE_BOUND('',#164,.T.);
#111=FACE_BOUND('',#165,.T.);
#112=FACE_BOUND('',#166,.T.);
#113=FACE_BOUND('',#167,.T.);
#114=FACE_BOUND('',#170,.T.);
#115=FACE_BOUND('',#171,.T.);
#116=FACE_BOUND('',#172,.T.);
#117=FACE_BOUND('',#173,.T.);
#118=FACE_BOUND('',#174,.T.);
#119=FACE_BOUND('',#175,.T.);
#120=FACE_BOUND('',#176,.T.);
#121=FACE_BOUND('',#177,.T.);
#122=FACE_BOUND('',#178,.T.);
#123=FACE_BOUND('',#179,.T.);
#124=FACE_BOUND('',#180,.T.);
#125=FACE_BOUND('',#181,.T.);
#126=FACE_BOUND('',#182,.T.);
#127=FACE_BOUND('',#183,.T.);
#128=FACE_BOUND('',#184,.T.);
#129=FACE_BOUND('',#185,.T.);
#130=FACE_BOUND('',#186,.T.);
#131=FACE_BOUND('',#187,.T.);
#132=FACE_BOUND('',#188,.T.);
#133=FACE_BOUND('',#189,.T.);
#134=FACE_BOUND('',#190,.T.);
#135=FACE_BOUND('',#191,.T.);
#136=FACE_BOUND('',#192,.T.);
#137=FACE_BOUND('',#193,.T.);
#138=FACE_BOUND('',#194,.T.);
#139=FACE_BOUND('',#195,.T.);
#140=FACE_BOUND('',#196,.T.);
#141=FACE_BOUND('',#197,.T.);
#142=FACE_BOUND('',#198,.T.);
#143=FACE_BOUND('',#199,.T.);
#144=FACE_BOUND('',#200,.T.);
#145=FACE_BOUND('',#201,.T.);
#146=FACE_BOUND('',#202,.T.);
#147=FACE_BOUND('',#203,.T.);
#148=FACE_BOUND('',#204,.T.);
#149=FACE_BOUND('',#205,.T.);
#150=FACE_BOUND('',#206,.T.);
#151=FACE_BOUND('',#207,.T.);
#152=FACE_BOUND('',#208,.T.);
#153=FACE_BOUND('',#209,.T.);
#154=FACE_BOUND('',#210,.T.);
#155=FACE_BOUND('',#211,.T.);
#156=EDGE_LOOP('',(#212));
#157=EDGE_LOOP('',(#213));
#158=EDGE_LOOP('',(#214));
#159=EDGE_LOOP('',(#215));
#160=EDGE_LOOP('',(#216));
#161=EDGE_LOOP('',(#217));
#162=EDGE_LOOP('',(#218));
#163=EDGE_LOOP('',(#219));
#164=EDGE_LOOP('',(#220));
#165=EDGE_LOOP('',(#221));
#166=EDGE_LOOP('',(#222));
#167=EDGE_LOOP('',(#223));
#168=EDGE_LOOP('',(#224));
#169=EDGE_LOOP('',(#225));
#170=EDGE_LOOP('',(#226));
#171=EDGE_LOOP('',(#227));
#172=EDGE_LOOP('',(#228));
#173=EDGE_LOOP('',(#229));
#174=EDGE_LOOP('',(#230));
#175=EDGE_LOOP('',(#231));
#176=EDGE_LOOP('',(#232));
#177=EDGE_LOOP('',(#233));
#178=EDGE_LOOP('',(#234));
#179=EDGE_LOOP('',(#235));
#180=EDGE_LOOP('',(#236));
#181=EDGE_LOOP('',(#237));
#182=EDGE_LOOP('',(#238));
#183=EDGE_LOOP('',(#239));
#184=EDGE_LOOP('',(#240));
#185=EDGE_LOOP('',(#241));
#186=EDGE_LOOP('',(#242));
#187=EDGE_LOOP('',(#243));
#188=EDGE_LOOP('',(#244));
#189=EDGE_LOOP('',(#245));
#190=EDGE_LOOP('',(#246));
#191=EDGE_LOOP('',(#247));
#192=EDGE_LOOP('',(#248));
#193=EDGE_LOOP('',(#249));
#194=EDGE_LOOP('',(#250));
#195=EDGE_LOOP('',(#251));
#196=EDGE_LOOP('',(#252));
#197=EDGE_LOOP('',(#253));
#198=EDGE_LOOP('',(#254));
#199=EDGE_LOOP('',(#255));
#200=EDGE_LOOP('',(#256));
#201=EDGE_LOOP('',(#257));
#202=EDGE_LOOP('',(#258));
#203=EDGE_LOOP('',(#259));
#204=EDGE_LOOP('',(#260));
#205=EDGE_LOOP('',(#261));
#206=EDGE_LOOP('',(#262));
#207=EDGE_LOOP('',(#263));
#208=EDGE_LOOP('',(#264));
#209=EDGE_LOOP('',(#265));
#210=EDGE_LOOP('',(#266));
#211=EDGE_LOOP('',(#267));
#212=ORIENTED_EDGE('',*,*,#296,.F.);
#213=ORIENTED_EDGE('',*,*,#297,.F.);
#214=ORIENTED_EDGE('',*,*,#298,.F.);
#215=ORIENTED_EDGE('',*,*,#299,.F.);
#216=ORIENTED_EDGE('',*,*,#300,.F.);
#217=ORIENTED_EDGE('',*,*,#301,.F.);
#218=ORIENTED_EDGE('',*,*,#302,.F.);
#219=ORIENTED_EDGE('',*,*,#303,.F.);
#220=ORIENTED_EDGE('',*,*,#304,.T.);
#221=ORIENTED_EDGE('',*,*,#305,.T.);
#222=ORIENTED_EDGE('',*,*,#306,.F.);
#223=ORIENTED_EDGE('',*,*,#307,.T.);
#224=ORIENTED_EDGE('',*,*,#305,.F.);
#225=ORIENTED_EDGE('',*,*,#306,.T.);
#226=ORIENTED_EDGE('',*,*,#307,.F.);
#227=ORIENTED_EDGE('',*,*,#304,.F.);
#228=ORIENTED_EDGE('',*,*,#308,.T.);
#229=ORIENTED_EDGE('',*,*,#309,.F.);
#230=ORIENTED_EDGE('',*,*,#302,.T.);
#231=ORIENTED_EDGE('',*,*,#308,.F.);
#232=ORIENTED_EDGE('',*,*,#310,.F.);
#233=ORIENTED_EDGE('',*,*,#309,.T.);
#234=ORIENTED_EDGE('',*,*,#311,.F.);
#235=ORIENTED_EDGE('',*,*,#310,.T.);
#236=ORIENTED_EDGE('',*,*,#303,.T.);
#237=ORIENTED_EDGE('',*,*,#311,.T.);
#238=ORIENTED_EDGE('',*,*,#312,.T.);
#239=ORIENTED_EDGE('',*,*,#313,.F.);
#240=ORIENTED_EDGE('',*,*,#300,.T.);
#241=ORIENTED_EDGE('',*,*,#313,.T.);
#242=ORIENTED_EDGE('',*,*,#314,.T.);
#243=ORIENTED_EDGE('',*,*,#312,.F.);
#244=ORIENTED_EDGE('',*,*,#315,.T.);
#245=ORIENTED_EDGE('',*,*,#314,.F.);
#246=ORIENTED_EDGE('',*,*,#301,.T.);
#247=ORIENTED_EDGE('',*,*,#315,.F.);
#248=ORIENTED_EDGE('',*,*,#316,.T.);
#249=ORIENTED_EDGE('',*,*,#317,.F.);
#250=ORIENTED_EDGE('',*,*,#298,.T.);
#251=ORIENTED_EDGE('',*,*,#317,.T.);
#252=ORIENTED_EDGE('',*,*,#318,.T.);
#253=ORIENTED_EDGE('',*,*,#316,.F.);
#254=ORIENTED_EDGE('',*,*,#319,.T.);
#255=ORIENTED_EDGE('',*,*,#318,.F.);
#256=ORIENTED_EDGE('',*,*,#299,.T.);
#257=ORIENTED_EDGE('',*,*,#319,.F.);
#258=ORIENTED_EDGE('',*,*,#296,.T.);
#259=ORIENTED_EDGE('',*,*,#320,.F.);
#260=ORIENTED_EDGE('',*,*,#320,.T.);
#261=ORIENTED_EDGE('',*,*,#321,.F.);
#262=ORIENTED_EDGE('',*,*,#297,.T.);
#263=ORIENTED_EDGE('',*,*,#322,.T.);
#264=ORIENTED_EDGE('',*,*,#322,.F.);
#265=ORIENTED_EDGE('',*,*,#323,.T.);
#266=ORIENTED_EDGE('',*,*,#323,.F.);
#267=ORIENTED_EDGE('',*,*,#321,.T.);
#268=VERTEX_POINT('',#522);
#269=VERTEX_POINT('',#581);
#270=VERTEX_POINT('',#640);
#271=VERTEX_POINT('',#699);
#272=VERTEX_POINT('',#758);
#273=VERTEX_POINT('',#817);
#274=VERTEX_POINT('',#876);
#275=VERTEX_POINT('',#935);
#276=VERTEX_POINT('',#994);
#277=VERTEX_POINT('',#996);
#278=VERTEX_POINT('',#998);
#279=VERTEX_POINT('',#1057);
#280=VERTEX_POINT('',#1063);
#281=VERTEX_POINT('',#1065);
#282=VERTEX_POINT('',#1069);
#283=VERTEX_POINT('',#1072);
#284=VERTEX_POINT('',#1076);
#285=VERTEX_POINT('',#1078);
#286=VERTEX_POINT('',#1082);
#287=VERTEX_POINT('',#1085);
#288=VERTEX_POINT('',#1089);
#289=VERTEX_POINT('',#1091);
#290=VERTEX_POINT('',#1095);
#291=VERTEX_POINT('',#1098);
#292=VERTEX_POINT('',#1102);
#293=VERTEX_POINT('',#1105);
#294=VERTEX_POINT('',#1108);
#295=VERTEX_POINT('',#1111);
#296=EDGE_CURVE('',#268,#268,#324,.T.);
#297=EDGE_CURVE('',#269,#269,#325,.T.);
#298=EDGE_CURVE('',#270,#270,#326,.T.);
#299=EDGE_CURVE('',#271,#271,#327,.T.);
#300=EDGE_CURVE('',#272,#272,#328,.T.);
#301=EDGE_CURVE('',#273,#273,#329,.T.);
#302=EDGE_CURVE('',#274,#274,#330,.T.);
#303=EDGE_CURVE('',#275,#275,#331,.T.);
#304=EDGE_CURVE('',#276,#276,#332,.T.);
#305=EDGE_CURVE('',#277,#277,#84,.T.);
#306=EDGE_CURVE('',#278,#278,#85,.T.);
#307=EDGE_CURVE('',#279,#279,#333,.T.);
#308=EDGE_CURVE('',#280,#280,#86,.T.);
#309=EDGE_CURVE('',#281,#281,#87,.T.);
#310=EDGE_CURVE('',#282,#282,#88,.T.);
#311=EDGE_CURVE('',#283,#283,#89,.T.);
#312=EDGE_CURVE('',#284,#284,#90,.T.);
#313=EDGE_CURVE('',#285,#285,#91,.T.);
#314=EDGE_CURVE('',#286,#286,#92,.T.);
#315=EDGE_CURVE('',#287,#287,#93,.T.);
#316=EDGE_CURVE('',#288,#288,#94,.T.);
#317=EDGE_CURVE('',#289,#289,#95,.T.);
#318=EDGE_CURVE('',#290,#290,#96,.T.);
#319=EDGE_CURVE('',#291,#291,#97,.T.);
#320=EDGE_CURVE('',#292,#292,#98,.T.);
#321=EDGE_CURVE('',#293,#293,#99,.T.);
#322=EDGE_CURVE('',#294,#294,#100,.T.);
#323=EDGE_CURVE('',#295,#295,#101,.T.);
#324=B_SPLINE_CURVE_WITH_KNOTS('',3,(#464,#465,#466,#467,#468,#469,#470,
#471,#472,#473,#474,#475,#476,#477,#478,#479,#480,#481,#482,#483,#484,#485,
#486,#487,#488,#489,#490,#491,#492,#493,#494,#495,#496,#497,#498,#499,#500,
#501,#502,#503,#504,#505,#506,#507,#508,#509,#510,#511,#512,#513,#514,#515,
#516,#517,#518,#519,#520,#521),.UNSPECIFIED.,.T.,.F.,(1,3,3,3,3,3,3,3,3,
3,3,3,3,3,3,3,3,3,3,3,3,1),(-0.0350071640796776,0.,0.053522323856062,0.107033368408265,
0.160713765613062,0.214513527639527,0.2681294938144,0.321545140313268,0.375056506460534,
0.42880969203183,0.482574671403383,0.536103806235444,0.589517695269125,
0.643113583217976,0.696908287865516,0.750607922740992,0.80406473791187,
0.857510889653106,0.911193849089854,0.964992835920322,1.,1.05352232385606),
 .UNSPECIFIED.);
#325=B_SPLINE_CURVE_WITH_KNOTS('',3,(#523,#524,#525,#526,#527,#528,#529,
#530,#531,#532,#533,#534,#535,#536,#537,#538,#539,#540,#541,#542,#543,#544,
#545,#546,#547,#548,#549,#550,#551,#552,#553,#554,#555,#556,#557,#558,#559,
#560,#561,#562,#563,#564,#565,#566,#567,#568,#569,#570,#571,#572,#573,#574,
#575,#576,#577,#578,#579,#580),.UNSPECIFIED.,.T.,.F.,(1,3,3,3,3,3,3,3,3,
3,3,3,3,3,3,3,3,3,3,3,3,1),(-0.0350071640796776,0.,0.053522323856062,0.107033368408265,
0.160713765613062,0.214513527639527,0.2681294938144,0.321545140313268,0.375056506460534,
0.42880969203183,0.482574671403383,0.536103806235444,0.589517695269125,
0.643113583217976,0.696908287865516,0.750607922740992,0.80406473791187,
0.857510889653106,0.911193849089854,0.964992835920322,1.,1.05352232385606),
 .UNSPECIFIED.);
#326=B_SPLINE_CURVE_WITH_KNOTS('',3,(#582,#583,#584,#585,#586,#587,#588,
#589,#590,#591,#592,#593,#594,#595,#596,#597,#598,#599,#600,#601,#602,#603,
#604,#605,#606,#607,#608,#609,#610,#611,#612,#613,#614,#615,#616,#617,#618,
#619,#620,#621,#622,#623,#624,#625,#626,#627,#628,#629,#630,#631,#632,#633,
#634,#635,#636,#637,#638,#639),.UNSPECIFIED.,.T.,.F.,(1,3,3,3,3,3,3,3,3,
3,3,3,3,3,3,3,3,3,3,3,3,1),(-0.0350071640796777,0.,0.053522323856062,0.107033368408265,
0.160713765613062,0.214513527639527,0.2681294938144,0.321545140313268,0.375056506460534,
0.42880969203183,0.482574671403383,0.536103806235444,0.589517695269125,
0.643113583217976,0.696908287865516,0.750607922740992,0.80406473791187,
0.857510889653105,0.911193849089854,0.964992835920322,1.,1.05352232385606),
 .UNSPECIFIED.);
#327=B_SPLINE_CURVE_WITH_KNOTS('',3,(#641,#642,#643,#644,#645,#646,#647,
#648,#649,#650,#651,#652,#653,#654,#655,#656,#657,#658,#659,#660,#661,#662,
#663,#664,#665,#666,#667,#668,#669,#670,#671,#672,#673,#674,#675,#676,#677,
#678,#679,#680,#681,#682,#683,#684,#685,#686,#687,#688,#689,#690,#691,#692,
#693,#694,#695,#696,#697,#698),.UNSPECIFIED.,.T.,.F.,(1,3,3,3,3,3,3,3,3,
3,3,3,3,3,3,3,3,3,3,3,3,1),(-0.0350071640796776,0.,0.053522323856062,0.107033368408265,
0.160713765613062,0.214513527639527,0.2681294938144,0.321545140313268,0.375056506460534,
0.42880969203183,0.482574671403383,0.536103806235444,0.589517695269125,
0.643113583217976,0.696908287865516,0.750607922740992,0.80406473791187,
0.857510889653106,0.911193849089854,0.964992835920322,1.,1.05352232385606),
 .UNSPECIFIED.);
#328=B_SPLINE_CURVE_WITH_KNOTS('',3,(#700,#701,#702,#703,#704,#705,#706,
#707,#708,#709,#710,#711,#712,#713,#714,#715,#716,#717,#718,#719,#720,#721,
#722,#723,#724,#725,#726,#727,#728,#729,#730,#731,#732,#733,#734,#735,#736,
#737,#738,#739,#740,#741,#742,#743,#744,#745,#746,#747,#748,#749,#750,#751,
#752,#753,#754,#755,#756,#757),.UNSPECIFIED.,.T.,.F.,(1,3,3,3,3,3,3,3,3,
3,3,3,3,3,3,3,3,3,3,3,3,1),(-0.0350071640796776,0.,0.053522323856062,0.107033368408265,
0.160713765613062,0.214513527639527,0.2681294938144,0.321545140313268,0.375056506460534,
0.42880969203183,0.482574671403383,0.536103806235444,0.589517695269125,
0.643113583217976,0.696908287865516,0.750607922740992,0.80406473791187,
0.857510889653106,0.911193849089854,0.964992835920322,1.,1.05352232385606),
 .UNSPECIFIED.);
#329=B_SPLINE_CURVE_WITH_KNOTS('',3,(#759,#760,#761,#762,#763,#764,#765,
#766,#767,#768,#769,#770,#771,#772,#773,#774,#775,#776,#777,#778,#779,#780,
#781,#782,#783,#784,#785,#786,#787,#788,#789,#790,#791,#792,#793,#794,#795,
#796,#797,#798,#799,#800,#801,#802,#803,#804,#805,#806,#807,#808,#809,#810,
#811,#812,#813,#814,#815,#816),.UNSPECIFIED.,.T.,.F.,(1,3,3,3,3,3,3,3,3,
3,3,3,3,3,3,3,3,3,3,3,3,1),(-0.0350071640796776,0.,0.053522323856062,0.107033368408265,
0.160713765613062,0.214513527639527,0.2681294938144,0.321545140313268,0.375056506460534,
0.42880969203183,0.482574671403383,0.536103806235444,0.589517695269125,
0.643113583217976,0.696908287865516,0.750607922740992,0.80406473791187,
0.857510889653106,0.911193849089854,0.964992835920322,1.,1.05352232385606),
 .UNSPECIFIED.);
#330=B_SPLINE_CURVE_WITH_KNOTS('',3,(#818,#819,#820,#821,#822,#823,#824,
#825,#826,#827,#828,#829,#830,#831,#832,#833,#834,#835,#836,#837,#838,#839,
#840,#841,#842,#843,#844,#845,#846,#847,#848,#849,#850,#851,#852,#853,#854,
#855,#856,#857,#858,#859,#860,#861,#862,#863,#864,#865,#866,#867,#868,#869,
#870,#871,#872,#873,#874,#875),.UNSPECIFIED.,.T.,.F.,(1,3,3,3,3,3,3,3,3,
3,3,3,3,3,3,3,3,3,3,3,3,1),(-0.0350071640796779,0.,0.053522323856062,0.107033368408265,
0.160713765613062,0.214513527639527,0.2681294938144,0.321545140313268,0.375056506460534,
0.42880969203183,0.482574671403383,0.536103806235444,0.589517695269125,
0.643113583217976,0.696908287865516,0.750607922740992,0.804064737911869,
0.857510889653105,0.911193849089854,0.964992835920322,1.,1.05352232385606),
 .UNSPECIFIED.);
#331=B_SPLINE_CURVE_WITH_KNOTS('',3,(#877,#878,#879,#880,#881,#882,#883,
#884,#885,#886,#887,#888,#889,#890,#891,#892,#893,#894,#895,#896,#897,#898,
#899,#900,#901,#902,#903,#904,#905,#906,#907,#908,#909,#910,#911,#912,#913,
#914,#915,#916,#917,#918,#919,#920,#921,#922,#923,#924,#925,#926,#927,#928,
#929,#930,#931,#932,#933,#934),.UNSPECIFIED.,.T.,.F.,(1,3,3,3,3,3,3,3,3,
3,3,3,3,3,3,3,3,3,3,3,3,1),(-0.0350071640796776,0.,0.053522323856062,0.107033368408265,
0.160713765613062,0.214513527639527,0.2681294938144,0.321545140313268,0.375056506460534,
0.42880969203183,0.482574671403383,0.536103806235444,0.589517695269125,
0.643113583217976,0.696908287865516,0.750607922740992,0.80406473791187,
0.857510889653106,0.911193849089854,0.964992835920322,1.,1.05352232385606),
 .UNSPECIFIED.);
#332=B_SPLINE_CURVE_WITH_KNOTS('',3,(#936,#937,#938,#939,#940,#941,#942,
#943,#944,#945,#946,#947,#948,#949,#950,#951,#952,#953,#954,#955,#956,#957,
#958,#959,#960,#961,#962,#963,#964,#965,#966,#967,#968,#969,#970,#971,#972,
#973,#974,#975,#976,#977,#978,#979,#980,#981,#982,#983,#984,#985,#986,#987,
#988,#989,#990,#991,#992,#993),.UNSPECIFIED.,.T.,.F.,(1,3,3,3,3,3,3,3,3,
3,3,3,3,3,3,3,3,3,3,3,3,1),(-0.0400828240276421,0.,0.052982024847147,0.10592083106351,
0.159510437224528,0.213607099662101,0.266983955839691,0.319531831224993,
0.372435109286565,0.426313335888461,0.480286343202899,0.533337615970105,
0.585893579466568,0.639101761877082,0.693143547729286,0.746903078848417,
0.799663280856192,0.85228356823255,0.905819072363707,0.959917175972358,
1.,1.05298202484715),.UNSPECIFIED.);
#333=B_SPLINE_CURVE_WITH_KNOTS('',3,(#999,#1000,#1001,#1002,#1003,#1004,
#1005,#1006,#1007,#1008,#1009,#1010,#1011,#1012,#1013,#1014,#1015,#1016,
#1017,#1018,#1019,#1020,#1021,#1022,#1023,#1024,#1025,#1026,#1027,#1028,
#1029,#1030,#1031,#1032,#1033,#1034,#1035,#1036,#1037,#1038,#1039,#1040,
#1041,#1042,#1043,#1044,#1045,#1046,#1047,#1048,#1049,#1050,#1051,#1052,
#1053,#1054,#1055,#1056),.UNSPECIFIED.,.T.,.F.,(1,3,3,3,3,3,3,3,3,3,3,3,
3,3,3,3,3,3,3,3,3,1),(-0.0400828240276421,0.,0.052982024847147,0.10592083106351,
0.159510437224528,0.213607099662101,0.266983955839691,0.319531831224993,
0.372435109286565,0.426313335888461,0.480286343202899,0.533337615970105,
0.585893579466568,0.639101761877082,0.693143547729286,0.746903078848417,
0.799663280856192,0.85228356823255,0.905819072363707,0.959917175972358,
1.,1.05298202484715),.UNSPECIFIED.);
#334=AXIS2_PLACEMENT_3D('',#463,#377,#378);
#335=AXIS2_PLACEMENT_3D('',#995,#379,#380);
#336=AXIS2_PLACEMENT_3D('',#997,#381,#382);
#337=AXIS2_PLACEMENT_3D('',#1058,#383,#384);
#338=AXIS2_PLACEMENT_3D('',#1059,#385,#386);
#339=AXIS2_PLACEMENT_3D('',#1060,#387,#388);
#340=AXIS2_PLACEMENT_3D('',#1061,#389,#390);
#341=AXIS2_PLACEMENT_3D('',#1062,#391,#392);
#342=AXIS2_PLACEMENT_3D('',#1064,#393,#394);
#343=AXIS2_PLACEMENT_3D('',#1066,#395,#396);
#344=AXIS2_PLACEMENT_3D('',#1067,#397,#398);
#345=AXIS2_PLACEMENT_3D('',#1068,#399,#400);
#346=AXIS2_PLACEMENT_3D('',#1070,#401,#402);
#347=AXIS2_PLACEMENT_3D('',#1071,#403,#404);
#348=AXIS2_PLACEMENT_3D('',#1073,#405,#406);
#349=AXIS2_PLACEMENT_3D('',#1074,#407,#408);
#350=AXIS2_PLACEMENT_3D('',#1075,#409,#410);
#351=AXIS2_PLACEMENT_3D('',#1077,#411,#412);
#352=AXIS2_PLACEMENT_3D('',#1079,#413,#414);
#353=AXIS2_PLACEMENT_3D('',#1080,#415,#416);
#354=AXIS2_PLACEMENT_3D('',#1081,#417,#418);
#355=AXIS2_PLACEMENT_3D('',#1083,#419,#420);
#356=AXIS2_PLACEMENT_3D('',#1084,#421,#422);
#357=AXIS2_PLACEMENT_3D('',#1086,#423,#424);
#358=AXIS2_PLACEMENT_3D('',#1087,#425,#426);
#359=AXIS2_PLACEMENT_3D('',#1088,#427,#428);
#360=AXIS2_PLACEMENT_3D('',#1090,#429,#430);
#361=AXIS2_PLACEMENT_3D('',#1092,#431,#432);
#362=AXIS2_PLACEMENT_3D('',#1093,#433,#434);
#363=AXIS2_PLACEMENT_3D('',#1094,#435,#436);
#364=AXIS2_PLACEMENT_3D('',#1096,#437,#438);
#365=AXIS2_PLACEMENT_3D('',#1097,#439,#440);
#366=AXIS2_PLACEMENT_3D('',#1099,#441,#442);
#367=AXIS2_PLACEMENT_3D('',#1100,#443,#444);
#368=AXIS2_PLACEMENT_3D('',#1101,#445,#446);
#369=AXIS2_PLACEMENT_3D('',#1103,#447,#448);
#370=AXIS2_PLACEMENT_3D('',#1104,#449,#450);
#371=AXIS2_PLACEMENT_3D('',#1106,#451,#452);
#372=AXIS2_PLACEMENT_3D('',#1107,#453,#454);
#373=AXIS2_PLACEMENT_3D('',#1109,#455,#456);
#374=AXIS2_PLACEMENT_3D('',#1110,#457,#458);
#375=AXIS2_PLACEMENT_3D('',#1112,#459,#460);
#376=AXIS2_PLACEMENT_3D('',#1113,#461,#462);
#377=DIRECTION('',(0.,0.,1.));
#378=DIRECTION('',(1.,0.,0.));
#379=DIRECTION('',(0.,0.,-1.));
#380=DIRECTION('',(-1.,0.,0.));
#381=DIRECTION('',(0.,0.,-1.));
#382=DIRECTION('',(-1.,0.,0.));
#383=DIRECTION('',(0.,0.,-1.));
#384=DIRECTION('',(-1.,0.,0.));
#385=DIRECTION('',(0.,0.,1.));
#386=DIRECTION('',(1.,0.,0.));
#387=DIRECTION('',(0.,0.,-1.));
#388=DIRECTION('',(-1.,0.,0.));
#389=DIRECTION('',(0.,1.,0.));
#390=DIRECTION('',(0.,0.,1.));
#391=DIRECTION('',(-1.17145536458252E-15,-1.,1.39349996950756E-15));
#392=DIRECTION('',(0.,0.,1.));
#393=DIRECTION('',(-2.22438465518628E-30,-1.89882151931499E-15,-1.));
#394=DIRECTION('',(-1.17145536458253E-15,-1.,0.));
#395=DIRECTION('',(1.,-1.17145536458252E-15,0.));
#396=DIRECTION('',(0.,0.,-1.));
#397=DIRECTION('',(-1.17145536458252E-15,-1.,0.));
#398=DIRECTION('',(0.,0.,1.));
#399=DIRECTION('',(-2.22438465518628E-30,-1.89882151931499E-15,-1.));
#400=DIRECTION('',(-1.17145536458253E-15,-1.,0.));
#401=DIRECTION('',(0.,0.,1.));
#402=DIRECTION('',(1.17145536458253E-15,1.,0.));
#403=DIRECTION('',(1.17145536458252E-15,1.,-3.82856869892695E-16));
#404=DIRECTION('',(0.,0.,-1.));
#405=DIRECTION('',(-1.,1.17145536458252E-15,0.));
#406=DIRECTION('',(0.,0.,1.));
#407=DIRECTION('',(1.17145536458252E-15,1.,0.));
#408=DIRECTION('',(0.,0.,-1.));
#409=DIRECTION('',(8.88178419700125E-16,0.,1.));
#410=DIRECTION('',(1.,0.,0.));
#411=DIRECTION('',(-1.,0.,1.39349996950756E-15));
#412=DIRECTION('',(0.,0.,1.));
#413=DIRECTION('',(0.,-1.,0.));
#414=DIRECTION('',(0.,0.,-1.));
#415=DIRECTION('',(-1.,0.,0.));
#416=DIRECTION('',(0.,0.,1.));
#417=DIRECTION('',(8.88178419700125E-16,0.,1.));
#418=DIRECTION('',(1.,0.,0.));
#419=DIRECTION('',(0.,0.,1.));
#420=DIRECTION('',(1.,0.,0.));
#421=DIRECTION('',(1.,0.,-3.82856869892695E-16));
#422=DIRECTION('',(0.,0.,-1.));
#423=DIRECTION('',(0.,-1.,0.));
#424=DIRECTION('',(0.,0.,-1.));
#425=DIRECTION('',(1.,0.,0.));
#426=DIRECTION('',(0.,0.,-1.));
#427=DIRECTION('',(1.04046137446414E-30,8.88178419700125E-16,1.));
#428=DIRECTION('',(1.17145536458253E-15,1.,0.));
#429=DIRECTION('',(-1.17145536458252E-15,-1.,1.39349996950756E-15));
#430=DIRECTION('',(0.,0.,1.));
#431=DIRECTION('',(1.,-1.17145536458252E-15,0.));
#432=DIRECTION('',(0.,0.,-1.));
#433=DIRECTION('',(-1.17145536458252E-15,-1.,0.));
#434=DIRECTION('',(0.,0.,1.));
#435=DIRECTION('',(1.04046137446414E-30,8.88178419700125E-16,1.));
#436=DIRECTION('',(1.17145536458253E-15,1.,0.));
#437=DIRECTION('',(0.,0.,1.));
#438=DIRECTION('',(1.17145536458253E-15,1.,0.));
#439=DIRECTION('',(1.17145536458252E-15,1.,-3.82856869892695E-16));
#440=DIRECTION('',(0.,0.,-1.));
#441=DIRECTION('',(1.,-1.17145536458252E-15,0.));
#442=DIRECTION('',(0.,0.,-1.));
#443=DIRECTION('',(1.17145536458252E-15,1.,0.));
#444=DIRECTION('',(0.,0.,-1.));
#445=DIRECTION('',(-1.,0.,1.39349996950756E-15));
#446=DIRECTION('',(0.,0.,1.));
#447=DIRECTION('',(-1.,0.,0.));
#448=DIRECTION('',(0.,0.,1.));
#449=DIRECTION('',(-1.89882151931499E-15,0.,-1.));
#450=DIRECTION('',(-1.,0.,0.));
#451=DIRECTION('',(0.,-1.,0.));
#452=DIRECTION('',(0.,0.,-1.));
#453=DIRECTION('',(1.,0.,-3.82856869892695E-16));
#454=DIRECTION('',(0.,0.,-1.));
#455=DIRECTION('',(1.,0.,0.));
#456=DIRECTION('',(0.,0.,-1.));
#457=DIRECTION('',(-1.89882151931499E-15,0.,-1.));
#458=DIRECTION('',(-1.,0.,0.));
#459=DIRECTION('',(0.,1.,0.));
#460=DIRECTION('',(0.,0.,1.));
#461=DIRECTION('',(0.,0.,1.));
#462=DIRECTION('',(1.,0.,0.));
#463=CARTESIAN_POINT('',(0.,0.,0.));
#464=CARTESIAN_POINT('',(-9.99999999999995,3.5324693763832E-16,51.));
#465=CARTESIAN_POINT('',(-9.99999999999995,0.111613417439141,51.));
#466=CARTESIAN_POINT('',(-9.99802892848585,0.224764766214557,50.9807783948789));
#467=CARTESIAN_POINT('',(-9.99455114762164,0.330071746100546,50.9439558477101));
#468=CARTESIAN_POINT('',(-9.99107378332793,0.435366112258927,50.9071377111662));
#469=CARTESIAN_POINT('',(-9.98602216166784,0.535718898838324,50.8517219104453));
#470=CARTESIAN_POINT('',(-9.98057978346034,0.622918281945357,50.7822869128512));
#471=CARTESIAN_POINT('',(-9.97512045441292,0.710389256391252,50.7126356529019));
#472=CARTESIAN_POINT('',(-9.96915945197077,0.787038047103578,50.6269591753397));
#473=CARTESIAN_POINT('',(-9.96410193030581,0.846565249980786,50.5322849589505));
#474=CARTESIAN_POINT('',(-9.95903383030313,0.906216960254506,50.4374127214948));
#475=CARTESIAN_POINT('',(-9.95477365090481,0.95031817110074,50.3308688596862));
#476=CARTESIAN_POINT('',(-9.95233952236065,0.975160515842019,50.2214993642039));
#477=CARTESIAN_POINT('',(-9.94991364314003,0.999918669245102,50.1125005247236));
#478=CARTESIAN_POINT('',(-9.94925473131037,1.00622691333195,49.9976773465379));
#479=CARTESIAN_POINT('',(-9.95052052170882,0.993549871446182,49.8866039994123));
#480=CARTESIAN_POINT('',(-9.95178176535282,0.980918365848734,49.7759296308501));
#481=CARTESIAN_POINT('',(-9.95497694410612,0.949099905895224,49.6659338241463));
#482=CARTESIAN_POINT('',(-9.95934962131486,0.900752530062795,49.5656673169269));
#483=CARTESIAN_POINT('',(-9.96373028875782,0.852316808615373,49.465217591775));
#484=CARTESIAN_POINT('',(-9.96937770195655,0.785971106468529,49.3717695009127));
#485=CARTESIAN_POINT('',(-9.97496487080144,0.707160396427947,49.2929468381204));
#486=CARTESIAN_POINT('',(-9.98057657619071,0.628003582208802,49.213778018658));
#487=CARTESIAN_POINT('',(-9.986238908254,0.534082288663507,49.1471800031735));
#488=CARTESIAN_POINT('',(-9.99061571057716,0.433125528649411,49.0986663900463));
#489=CARTESIAN_POINT('',(-9.99499306858819,0.332155950956382,49.0501466175305));
#490=CARTESIAN_POINT('',(-9.99817099581098,0.221343811089059,49.0183821506027));
#491=CARTESIAN_POINT('',(-9.99939584062686,0.109921892511087,49.0060597716428));
#492=CARTESIAN_POINT('',(-10.0006154189066,-0.00102093879628755,48.9937903759287));
#493=CARTESIAN_POINT('',(-9.99992312432971,-0.115632092203165,49.0004583057253));
#494=CARTESIAN_POINT('',(-9.99748223921423,-0.224385553445664,49.0254995518703));
#495=CARTESIAN_POINT('',(-9.99504629463905,-0.332918889268754,49.0504901125958));
#496=CARTESIAN_POINT('',(-9.99082195209305,-0.438601457415309,49.0944540535314));
#497=CARTESIAN_POINT('',(-9.98579728059032,-0.532778256832928,49.1537451157919));
#498=CARTESIAN_POINT('',(-9.98075562493485,-0.62727338813445,49.2132365908469));
#499=CARTESIAN_POINT('',(-9.97480827400844,-0.712787037472692,49.2897895772069));
#500=CARTESIAN_POINT('',(-9.96935132406621,-0.782326132337613,49.3771309747132));
#501=CARTESIAN_POINT('',(-9.96387491098906,-0.852113250145687,49.464783890086));
#502=CARTESIAN_POINT('',(-9.95878422809973,-0.907735826665616,49.5657342590683));
#503=CARTESIAN_POINT('',(-9.95529113115506,-0.944552007008815,49.6716381476852));
#504=CARTESIAN_POINT('',(-9.95180433580316,-0.981301770479092,49.7773509842959));
#505=CARTESIAN_POINT('',(-9.94984210192646,-1.00032107526353,49.890932809718));
#506=CARTESIAN_POINT('',(-9.94987479518013,-0.999995780110199,50.0029051268123));
#507=CARTESIAN_POINT('',(-9.94990734481072,-0.999671913994498,50.1143855440023));
#508=CARTESIAN_POINT('',(-9.95191705764011,-0.980168990608923,50.2273420888518));
#509=CARTESIAN_POINT('',(-9.95542616732503,-0.943127683264125,50.3324307041488));
#510=CARTESIAN_POINT('',(-9.95893489833774,-0.906090373090847,50.4375079792082));
#511=CARTESIAN_POINT('',(-9.9640097852018,-0.850513888403576,50.537607441096));
#512=CARTESIAN_POINT('',(-9.96945700310704,-0.780978273192647,50.6245581932863));
#513=CARTESIAN_POINT('',(-9.97492788276212,-0.711140607584541,50.7118866441444));
#514=CARTESIAN_POINT('',(-9.98088249881938,-0.625298298806368,50.788359156787));
#515=CARTESIAN_POINT('',(-9.98591894706978,-0.530492961830542,50.8476893401761));
#516=CARTESIAN_POINT('',(-9.99096562230723,-0.435495113603793,50.9071399991438));
#517=CARTESIAN_POINT('',(-9.99519039502581,-0.328858194112002,50.9510157522534));
#518=CARTESIAN_POINT('',(-9.99759207812628,-0.21943709664883,50.9756266502173));
#519=CARTESIAN_POINT('',(-9.99916778677523,-0.147647538061036,50.9917734952248));
#520=CARTESIAN_POINT('',(-9.99999999999995,-0.0735998925520387,51.));
#521=CARTESIAN_POINT('',(-9.99999999999995,3.5324693763832E-16,51.));
#522=CARTESIAN_POINT('',(-9.99999999999995,3.5324693763832E-16,51.));
#523=CARTESIAN_POINT('',(-9.99999999999995,3.5324693763832E-16,-49.));
#524=CARTESIAN_POINT('',(-9.99999999999995,0.111613417439141,-49.));
#525=CARTESIAN_POINT('',(-9.99802892848585,0.224764766214557,-49.0192216051211));
#526=CARTESIAN_POINT('',(-9.99455114762164,0.330071746100546,-49.0560441522899));
#527=CARTESIAN_POINT('',(-9.99107378332793,0.435366112258927,-49.0928622888338));
#528=CARTESIAN_POINT('',(-9.98602216166784,0.535718898838324,-49.1482780895547));
#529=CARTESIAN_POINT('',(-9.98057978346034,0.622918281945357,-49.2177130871488));
#530=CARTESIAN_POINT('',(-9.97512045441292,0.710389256391252,-49.2873643470981));
#531=CARTESIAN_POINT('',(-9.96915945197077,0.787038047103578,-49.3730408246603));
#532=CARTESIAN_POINT('',(-9.96410193030581,0.846565249980786,-49.4677150410495));
#533=CARTESIAN_POINT('',(-9.95903383030313,0.906216960254506,-49.5625872785052));
#534=CARTESIAN_POINT('',(-9.95477365090481,0.95031817110074,-49.6691311403138));
#535=CARTESIAN_POINT('',(-9.95233952236065,0.975160515842019,-49.7785006357961));
#536=CARTESIAN_POINT('',(-9.94991364314003,0.999918669245102,-49.8874994752764));
#537=CARTESIAN_POINT('',(-9.94925473131037,1.00622691333195,-50.0023226534621));
#538=CARTESIAN_POINT('',(-9.95052052170882,0.993549871446182,-50.1133960005876));
#539=CARTESIAN_POINT('',(-9.95178176535282,0.980918365848734,-50.2240703691498));
#540=CARTESIAN_POINT('',(-9.95497694410612,0.949099905895224,-50.3340661758537));
#541=CARTESIAN_POINT('',(-9.95934962131486,0.900752530062795,-50.4343326830731));
#542=CARTESIAN_POINT('',(-9.96373028875782,0.852316808615373,-50.534782408225));
#543=CARTESIAN_POINT('',(-9.96937770195655,0.785971106468529,-50.6282304990872));
#544=CARTESIAN_POINT('',(-9.97496487080144,0.707160396427947,-50.7070531618795));
#545=CARTESIAN_POINT('',(-9.98057657619071,0.628003582208802,-50.786221981342));
#546=CARTESIAN_POINT('',(-9.986238908254,0.534082288663507,-50.8528199968265));
#547=CARTESIAN_POINT('',(-9.99061571057716,0.433125528649411,-50.9013336099537));
#548=CARTESIAN_POINT('',(-9.99499306858819,0.332155950956382,-50.9498533824695));
#549=CARTESIAN_POINT('',(-9.99817099581098,0.221343811089059,-50.9816178493973));
#550=CARTESIAN_POINT('',(-9.99939584062686,0.109921892511087,-50.9939402283572));
#551=CARTESIAN_POINT('',(-10.0006154189066,-0.00102093879628755,-51.0062096240713));
#552=CARTESIAN_POINT('',(-9.99992312432971,-0.115632092203165,-50.9995416942746));
#553=CARTESIAN_POINT('',(-9.99748223921423,-0.224385553445664,-50.9745004481296));
#554=CARTESIAN_POINT('',(-9.99504629463905,-0.332918889268754,-50.9495098874042));
#555=CARTESIAN_POINT('',(-9.99082195209305,-0.438601457415309,-50.9055459464686));
#556=CARTESIAN_POINT('',(-9.98579728059032,-0.532778256832928,-50.8462548842081));
#557=CARTESIAN_POINT('',(-9.98075562493485,-0.62727338813445,-50.7867634091531));
#558=CARTESIAN_POINT('',(-9.97480827400844,-0.712787037472692,-50.710210422793));
#559=CARTESIAN_POINT('',(-9.96935132406621,-0.782326132337613,-50.6228690252867));
#560=CARTESIAN_POINT('',(-9.96387491098906,-0.852113250145687,-50.535216109914));
#561=CARTESIAN_POINT('',(-9.95878422809973,-0.907735826665616,-50.4342657409316));
#562=CARTESIAN_POINT('',(-9.95529113115506,-0.944552007008815,-50.3283618523148));
#563=CARTESIAN_POINT('',(-9.95180433580316,-0.981301770479092,-50.2226490157041));
#564=CARTESIAN_POINT('',(-9.94984210192646,-1.00032107526353,-50.1090671902819));
#565=CARTESIAN_POINT('',(-9.94987479518013,-0.999995780110199,-49.9970948731877));
#566=CARTESIAN_POINT('',(-9.94990734481072,-0.999671913994498,-49.8856144559976));
#567=CARTESIAN_POINT('',(-9.95191705764011,-0.980168990608923,-49.7726579111481));
#568=CARTESIAN_POINT('',(-9.95542616732503,-0.943127683264125,-49.6675692958512));
#569=CARTESIAN_POINT('',(-9.95893489833774,-0.906090373090847,-49.5624920207917));
#570=CARTESIAN_POINT('',(-9.9640097852018,-0.850513888403576,-49.4623925589039));
#571=CARTESIAN_POINT('',(-9.96945700310704,-0.780978273192647,-49.3754418067137));
#572=CARTESIAN_POINT('',(-9.97492788276212,-0.711140607584541,-49.2881133558556));
#573=CARTESIAN_POINT('',(-9.98088249881938,-0.625298298806368,-49.211640843213));
#574=CARTESIAN_POINT('',(-9.98591894706978,-0.530492961830542,-49.1523106598238));
#575=CARTESIAN_POINT('',(-9.99096562230723,-0.435495113603793,-49.0928600008562));
#576=CARTESIAN_POINT('',(-9.99519039502581,-0.328858194112002,-49.0489842477466));
#577=CARTESIAN_POINT('',(-9.99759207812628,-0.21943709664883,-49.0243733497826));
#578=CARTESIAN_POINT('',(-9.99916778677523,-0.147647538061036,-49.0082265047752));
#579=CARTESIAN_POINT('',(-9.99999999999995,-0.0735998925520387,-49.));
#580=CARTESIAN_POINT('',(-9.99999999999995,3.5324693763832E-16,-49.));
#581=CARTESIAN_POINT('',(-9.99999999999995,3.5324693763832E-16,-49.));
#582=CARTESIAN_POINT('',(1.20211220637524E-14,9.99999999999995,51.));
#583=CARTESIAN_POINT('',(0.111613417439153,9.99999999999995,51.));
#584=CARTESIAN_POINT('',(0.224764766214569,9.99802892848585,50.9807783948789));
#585=CARTESIAN_POINT('',(0.330071746100557,9.99455114762164,50.9439558477101));
#586=CARTESIAN_POINT('',(0.435366112258938,9.99107378332793,50.9071377111662));
#587=CARTESIAN_POINT('',(0.535718898838335,9.98602216166784,50.8517219104453));
#588=CARTESIAN_POINT('',(0.622918281945368,9.98057978346034,50.7822869128512));
#589=CARTESIAN_POINT('',(0.710389256391264,9.97512045441292,50.7126356529019));
#590=CARTESIAN_POINT('',(0.787038047103589,9.96915945197077,50.6269591753397));
#591=CARTESIAN_POINT('',(0.846565249980798,9.96410193030581,50.5322849589505));
#592=CARTESIAN_POINT('',(0.906216960254518,9.95903383030313,50.4374127214948));
#593=CARTESIAN_POINT('',(0.950318171100751,9.95477365090481,50.3308688596862));
#594=CARTESIAN_POINT('',(0.97516051584203,9.95233952236065,50.2214993642039));
#595=CARTESIAN_POINT('',(0.999918669245114,9.94991364314003,50.1125005247236));
#596=CARTESIAN_POINT('',(1.00622691333196,9.94925473131037,49.9976773465379));
#597=CARTESIAN_POINT('',(0.993549871446193,9.95052052170882,49.8866039994123));
#598=CARTESIAN_POINT('',(0.980918365848745,9.95178176535282,49.7759296308501));
#599=CARTESIAN_POINT('',(0.949099905895236,9.95497694410612,49.6659338241463));
#600=CARTESIAN_POINT('',(0.900752530062807,9.95934962131486,49.5656673169269));
#601=CARTESIAN_POINT('',(0.852316808615385,9.96373028875782,49.465217591775));
#602=CARTESIAN_POINT('',(0.785971106468541,9.96937770195655,49.3717695009127));
#603=CARTESIAN_POINT('',(0.707160396427959,9.97496487080144,49.2929468381204));
#604=CARTESIAN_POINT('',(0.628003582208814,9.98057657619071,49.213778018658));
#605=CARTESIAN_POINT('',(0.534082288663518,9.986238908254,49.1471800031735));
#606=CARTESIAN_POINT('',(0.433125528649423,9.99061571057716,49.0986663900463));
#607=CARTESIAN_POINT('',(0.332155950956393,9.99499306858819,49.0501466175305));
#608=CARTESIAN_POINT('',(0.221343811089071,9.99817099581098,49.0183821506027));
#609=CARTESIAN_POINT('',(0.109921892511099,9.99939584062686,49.0060597716428));
#610=CARTESIAN_POINT('',(-0.00102093879627583,10.0006154189066,48.9937903759287));
#611=CARTESIAN_POINT('',(-0.115632092203153,9.99992312432971,49.0004583057253));
#612=CARTESIAN_POINT('',(-0.224385553445653,9.99748223921423,49.0254995518703));
#613=CARTESIAN_POINT('',(-0.332918889268743,9.99504629463905,49.0504901125958));
#614=CARTESIAN_POINT('',(-0.438601457415297,9.99082195209305,49.0944540535314));
#615=CARTESIAN_POINT('',(-0.532778256832916,9.98579728059032,49.1537451157919));
#616=CARTESIAN_POINT('',(-0.627273388134439,9.98075562493485,49.2132365908469));
#617=CARTESIAN_POINT('',(-0.71278703747268,9.97480827400844,49.2897895772069));
#618=CARTESIAN_POINT('',(-0.782326132337601,9.96935132406621,49.3771309747132));
#619=CARTESIAN_POINT('',(-0.852113250145675,9.96387491098906,49.464783890086));
#620=CARTESIAN_POINT('',(-0.907735826665605,9.95878422809974,49.5657342590683));
#621=CARTESIAN_POINT('',(-0.944552007008804,9.95529113115506,49.6716381476852));
#622=CARTESIAN_POINT('',(-0.981301770479081,9.95180433580316,49.7773509842959));
#623=CARTESIAN_POINT('',(-1.00032107526352,9.94984210192646,49.890932809718));
#624=CARTESIAN_POINT('',(-0.999995780110187,9.94987479518013,50.0029051268123));
#625=CARTESIAN_POINT('',(-0.999671913994487,9.94990734481072,50.1143855440023));
#626=CARTESIAN_POINT('',(-0.980168990608911,9.95191705764012,50.2273420888518));
#627=CARTESIAN_POINT('',(-0.943127683264113,9.95542616732503,50.3324307041488));
#628=CARTESIAN_POINT('',(-0.906090373090835,9.95893489833774,50.4375079792082));
#629=CARTESIAN_POINT('',(-0.850513888403564,9.96400978520181,50.537607441096));
#630=CARTESIAN_POINT('',(-0.780978273192635,9.96945700310704,50.6245581932863));
#631=CARTESIAN_POINT('',(-0.711140607584529,9.97492788276212,50.7118866441444));
#632=CARTESIAN_POINT('',(-0.625298298806356,9.98088249881938,50.788359156787));
#633=CARTESIAN_POINT('',(-0.53049296183053,9.98591894706978,50.8476893401761));
#634=CARTESIAN_POINT('',(-0.435495113603782,9.99096562230723,50.9071399991438));
#635=CARTESIAN_POINT('',(-0.328858194111991,9.99519039502581,50.9510157522534));
#636=CARTESIAN_POINT('',(-0.219437096648818,9.99759207812628,50.9756266502173));
#637=CARTESIAN_POINT('',(-0.147647538061024,9.99916778677523,50.9917734952248));
#638=CARTESIAN_POINT('',(-0.0735998925520269,9.99999999999995,51.));
#639=CARTESIAN_POINT('',(1.20211220637524E-14,9.99999999999995,51.));
#640=CARTESIAN_POINT('',(1.20211220637524E-14,9.99999999999995,51.));
#641=CARTESIAN_POINT('',(1.13518992925165E-14,9.99999999999995,-51.));
#642=CARTESIAN_POINT('',(-0.111613417439129,9.99999999999995,-51.));
#643=CARTESIAN_POINT('',(-0.224764766214545,9.99802892848585,-50.9807783948789));
#644=CARTESIAN_POINT('',(-0.330071746100534,9.99455114762164,-50.9439558477101));
#645=CARTESIAN_POINT('',(-0.435366112258915,9.99107378332793,-50.9071377111662));
#646=CARTESIAN_POINT('',(-0.535718898838312,9.98602216166784,-50.8517219104453));
#647=CARTESIAN_POINT('',(-0.622918281945345,9.98057978346034,-50.7822869128512));
#648=CARTESIAN_POINT('',(-0.71038925639124,9.97512045441292,-50.7126356529019));
#649=CARTESIAN_POINT('',(-0.787038047103566,9.96915945197077,-50.6269591753397));
#650=CARTESIAN_POINT('',(-0.846565249980774,9.96410193030581,-50.5322849589505));
#651=CARTESIAN_POINT('',(-0.906216960254494,9.95903383030313,-50.4374127214948));
#652=CARTESIAN_POINT('',(-0.950318171100728,9.95477365090481,-50.3308688596862));
#653=CARTESIAN_POINT('',(-0.975160515842007,9.95233952236065,-50.2214993642039));
#654=CARTESIAN_POINT('',(-0.999918669245091,9.94991364314003,-50.1125005247236));
#655=CARTESIAN_POINT('',(-1.00622691333193,9.94925473131037,-49.9976773465379));
#656=CARTESIAN_POINT('',(-0.99354987144617,9.95052052170882,-49.8866039994123));
#657=CARTESIAN_POINT('',(-0.980918365848722,9.95178176535282,-49.7759296308501));
#658=CARTESIAN_POINT('',(-0.949099905895213,9.95497694410613,-49.6659338241463));
#659=CARTESIAN_POINT('',(-0.900752530062783,9.95934962131486,-49.5656673169269));
#660=CARTESIAN_POINT('',(-0.852316808615361,9.96373028875782,-49.465217591775));
#661=CARTESIAN_POINT('',(-0.785971106468517,9.96937770195655,-49.3717695009127));
#662=CARTESIAN_POINT('',(-0.707160396427936,9.97496487080145,-49.2929468381204));
#663=CARTESIAN_POINT('',(-0.62800358220879,9.98057657619071,-49.213778018658));
#664=CARTESIAN_POINT('',(-0.534082288663495,9.986238908254,-49.1471800031735));
#665=CARTESIAN_POINT('',(-0.433125528649399,9.99061571057716,-49.0986663900463));
#666=CARTESIAN_POINT('',(-0.33215595095637,9.99499306858819,-49.0501466175305));
#667=CARTESIAN_POINT('',(-0.221343811089048,9.99817099581098,-49.0183821506027));
#668=CARTESIAN_POINT('',(-0.109921892511075,9.99939584062686,-49.0060597716428));
#669=CARTESIAN_POINT('',(0.00102093879629958,10.0006154189066,-48.9937903759287));
#670=CARTESIAN_POINT('',(0.115632092203177,9.99992312432971,-49.0004583057253));
#671=CARTESIAN_POINT('',(0.224385553445676,9.99748223921423,-49.0254995518703));
#672=CARTESIAN_POINT('',(0.332918889268766,9.99504629463905,-49.0504901125958));
#673=CARTESIAN_POINT('',(0.438601457415321,9.99082195209305,-49.0944540535314));
#674=CARTESIAN_POINT('',(0.53277825683294,9.98579728059032,-49.1537451157919));
#675=CARTESIAN_POINT('',(0.627273388134462,9.98075562493485,-49.2132365908469));
#676=CARTESIAN_POINT('',(0.712787037472703,9.97480827400844,-49.2897895772069));
#677=CARTESIAN_POINT('',(0.782326132337624,9.96935132406621,-49.3771309747132));
#678=CARTESIAN_POINT('',(0.852113250145699,9.96387491098906,-49.464783890086));
#679=CARTESIAN_POINT('',(0.907735826665628,9.95878422809973,-49.5657342590683));
#680=CARTESIAN_POINT('',(0.944552007008827,9.95529113115506,-49.6716381476852));
#681=CARTESIAN_POINT('',(0.981301770479104,9.95180433580316,-49.7773509842959));
#682=CARTESIAN_POINT('',(1.00032107526354,9.94984210192646,-49.890932809718));
#683=CARTESIAN_POINT('',(0.99999578011021,9.94987479518013,-50.0029051268123));
#684=CARTESIAN_POINT('',(0.99967191399451,9.94990734481072,-50.1143855440023));
#685=CARTESIAN_POINT('',(0.980168990608934,9.95191705764011,-50.2273420888518));
#686=CARTESIAN_POINT('',(0.943127683264137,9.95542616732503,-50.3324307041488));
#687=CARTESIAN_POINT('',(0.906090373090859,9.95893489833774,-50.4375079792082));
#688=CARTESIAN_POINT('',(0.850513888403587,9.9640097852018,-50.537607441096));
#689=CARTESIAN_POINT('',(0.780978273192658,9.96945700310704,-50.6245581932863));
#690=CARTESIAN_POINT('',(0.711140607584553,9.97492788276211,-50.7118866441444));
#691=CARTESIAN_POINT('',(0.62529829880638,9.98088249881938,-50.788359156787));
#692=CARTESIAN_POINT('',(0.530492961830553,9.98591894706978,-50.8476893401761));
#693=CARTESIAN_POINT('',(0.435495113603805,9.99096562230723,-50.9071399991438));
#694=CARTESIAN_POINT('',(0.328858194112014,9.99519039502581,-50.9510157522534));
#695=CARTESIAN_POINT('',(0.219437096648842,9.99759207812628,-50.9756266502173));
#696=CARTESIAN_POINT('',(0.147647538061047,9.99916778677523,-50.9917734952248));
#697=CARTESIAN_POINT('',(0.0735998925520504,9.99999999999995,-51.));
#698=CARTESIAN_POINT('',(1.13518992925165E-14,9.99999999999995,-51.));
#699=CARTESIAN_POINT('',(1.13518992925165E-14,9.99999999999995,-51.));
#700=CARTESIAN_POINT('',(9.99999999999995,-3.5324693763832E-16,51.));
#701=CARTESIAN_POINT('',(9.99999999999995,-0.111613417439141,51.));
#702=CARTESIAN_POINT('',(9.99802892848585,-0.224764766214557,50.9807783948789));
#703=CARTESIAN_POINT('',(9.99455114762164,-0.330071746100546,50.9439558477101));
#704=CARTESIAN_POINT('',(9.99107378332793,-0.435366112258927,50.9071377111662));
#705=CARTESIAN_POINT('',(9.98602216166784,-0.535718898838324,50.8517219104453));
#706=CARTESIAN_POINT('',(9.98057978346034,-0.622918281945357,50.7822869128512));
#707=CARTESIAN_POINT('',(9.97512045441292,-0.710389256391252,50.7126356529019));
#708=CARTESIAN_POINT('',(9.96915945197077,-0.787038047103578,50.6269591753397));
#709=CARTESIAN_POINT('',(9.96410193030581,-0.846565249980786,50.5322849589505));
#710=CARTESIAN_POINT('',(9.95903383030313,-0.906216960254506,50.4374127214948));
#711=CARTESIAN_POINT('',(9.95477365090481,-0.95031817110074,50.3308688596862));
#712=CARTESIAN_POINT('',(9.95233952236065,-0.975160515842019,50.2214993642039));
#713=CARTESIAN_POINT('',(9.94991364314003,-0.999918669245102,50.1125005247236));
#714=CARTESIAN_POINT('',(9.94925473131037,-1.00622691333195,49.9976773465379));
#715=CARTESIAN_POINT('',(9.95052052170882,-0.993549871446182,49.8866039994123));
#716=CARTESIAN_POINT('',(9.95178176535282,-0.980918365848734,49.7759296308501));
#717=CARTESIAN_POINT('',(9.95497694410612,-0.949099905895224,49.6659338241463));
#718=CARTESIAN_POINT('',(9.95934962131486,-0.900752530062795,49.5656673169269));
#719=CARTESIAN_POINT('',(9.96373028875782,-0.852316808615373,49.465217591775));
#720=CARTESIAN_POINT('',(9.96937770195655,-0.785971106468529,49.3717695009127));
#721=CARTESIAN_POINT('',(9.97496487080144,-0.707160396427947,49.2929468381204));
#722=CARTESIAN_POINT('',(9.98057657619071,-0.628003582208802,49.213778018658));
#723=CARTESIAN_POINT('',(9.986238908254,-0.534082288663507,49.1471800031735));
#724=CARTESIAN_POINT('',(9.99061571057716,-0.433125528649411,49.0986663900463));
#725=CARTESIAN_POINT('',(9.99499306858819,-0.332155950956382,49.0501466175305));
#726=CARTESIAN_POINT('',(9.99817099581098,-0.221343811089059,49.0183821506027));
#727=CARTESIAN_POINT('',(9.99939584062686,-0.109921892511087,49.0060597716428));
#728=CARTESIAN_POINT('',(10.0006154189066,0.00102093879628755,48.9937903759287));
#729=CARTESIAN_POINT('',(9.99992312432971,0.115632092203165,49.0004583057253));
#730=CARTESIAN_POINT('',(9.99748223921423,0.224385553445664,49.0254995518703));
#731=CARTESIAN_POINT('',(9.99504629463905,0.332918889268754,49.0504901125958));
#732=CARTESIAN_POINT('',(9.99082195209305,0.438601457415309,49.0944540535314));
#733=CARTESIAN_POINT('',(9.98579728059032,0.532778256832928,49.1537451157919));
#734=CARTESIAN_POINT('',(9.98075562493485,0.62727338813445,49.2132365908469));
#735=CARTESIAN_POINT('',(9.97480827400844,0.712787037472692,49.2897895772069));
#736=CARTESIAN_POINT('',(9.96935132406621,0.782326132337613,49.3771309747132));
#737=CARTESIAN_POINT('',(9.96387491098906,0.852113250145687,49.464783890086));
#738=CARTESIAN_POINT('',(9.95878422809973,0.907735826665616,49.5657342590683));
#739=CARTESIAN_POINT('',(9.95529113115506,0.944552007008815,49.6716381476852));
#740=CARTESIAN_POINT('',(9.95180433580316,0.981301770479092,49.7773509842959));
#741=CARTESIAN_POINT('',(9.94984210192646,1.00032107526353,49.890932809718));
#742=CARTESIAN_POINT('',(9.94987479518013,0.999995780110199,50.0029051268123));
#743=CARTESIAN_POINT('',(9.94990734481072,0.999671913994498,50.1143855440023));
#744=CARTESIAN_POINT('',(9.95191705764011,0.980168990608923,50.2273420888518));
#745=CARTESIAN_POINT('',(9.95542616732503,0.943127683264125,50.3324307041488));
#746=CARTESIAN_POINT('',(9.95893489833774,0.906090373090847,50.4375079792082));
#747=CARTESIAN_POINT('',(9.9640097852018,0.850513888403576,50.537607441096));
#748=CARTESIAN_POINT('',(9.96945700310704,0.780978273192647,50.6245581932863));
#749=CARTESIAN_POINT('',(9.97492788276212,0.711140607584541,50.7118866441444));
#750=CARTESIAN_POINT('',(9.98088249881938,0.625298298806368,50.788359156787));
#751=CARTESIAN_POINT('',(9.98591894706978,0.530492961830542,50.8476893401761));
#752=CARTESIAN_POINT('',(9.99096562230723,0.435495113603793,50.9071399991438));
#753=CARTESIAN_POINT('',(9.99519039502581,0.328858194112002,50.9510157522534));
#754=CARTESIAN_POINT('',(9.99759207812628,0.21943709664883,50.9756266502173));
#755=CARTESIAN_POINT('',(9.99916778677523,0.147647538061036,50.9917734952248));
#756=CARTESIAN_POINT('',(9.99999999999995,0.0735998925520387,51.));
#757=CARTESIAN_POINT('',(9.99999999999995,-3.5324693763832E-16,51.));
#758=CARTESIAN_POINT('',(9.99999999999995,-3.5324693763832E-16,51.));
#759=CARTESIAN_POINT('',(9.99999999999995,3.5324693763832E-16,-51.));
#760=CARTESIAN_POINT('',(9.99999999999995,0.111613417439141,-51.));
#761=CARTESIAN_POINT('',(9.99802892848585,0.224764766214557,-50.9807783948789));
#762=CARTESIAN_POINT('',(9.99455114762164,0.330071746100546,-50.9439558477101));
#763=CARTESIAN_POINT('',(9.99107378332793,0.435366112258927,-50.9071377111662));
#764=CARTESIAN_POINT('',(9.98602216166784,0.535718898838324,-50.8517219104453));
#765=CARTESIAN_POINT('',(9.98057978346034,0.622918281945357,-50.7822869128512));
#766=CARTESIAN_POINT('',(9.97512045441292,0.710389256391252,-50.7126356529019));
#767=CARTESIAN_POINT('',(9.96915945197077,0.787038047103578,-50.6269591753397));
#768=CARTESIAN_POINT('',(9.96410193030581,0.846565249980786,-50.5322849589505));
#769=CARTESIAN_POINT('',(9.95903383030313,0.906216960254506,-50.4374127214948));
#770=CARTESIAN_POINT('',(9.95477365090481,0.95031817110074,-50.3308688596862));
#771=CARTESIAN_POINT('',(9.95233952236065,0.975160515842019,-50.2214993642039));
#772=CARTESIAN_POINT('',(9.94991364314003,0.999918669245102,-50.1125005247236));
#773=CARTESIAN_POINT('',(9.94925473131037,1.00622691333195,-49.9976773465379));
#774=CARTESIAN_POINT('',(9.95052052170882,0.993549871446182,-49.8866039994123));
#775=CARTESIAN_POINT('',(9.95178176535282,0.980918365848734,-49.7759296308501));
#776=CARTESIAN_POINT('',(9.95497694410612,0.949099905895224,-49.6659338241463));
#777=CARTESIAN_POINT('',(9.95934962131486,0.900752530062795,-49.5656673169269));
#778=CARTESIAN_POINT('',(9.96373028875782,0.852316808615373,-49.465217591775));
#779=CARTESIAN_POINT('',(9.96937770195655,0.785971106468529,-49.3717695009127));
#780=CARTESIAN_POINT('',(9.97496487080144,0.707160396427947,-49.2929468381204));
#781=CARTESIAN_POINT('',(9.98057657619071,0.628003582208802,-49.213778018658));
#782=CARTESIAN_POINT('',(9.986238908254,0.534082288663507,-49.1471800031735));
#783=CARTESIAN_POINT('',(9.99061571057716,0.433125528649411,-49.0986663900463));
#784=CARTESIAN_POINT('',(9.99499306858819,0.332155950956382,-49.0501466175305));
#785=CARTESIAN_POINT('',(9.99817099581098,0.221343811089059,-49.0183821506027));
#786=CARTESIAN_POINT('',(9.99939584062686,0.109921892511087,-49.0060597716428));
#787=CARTESIAN_POINT('',(10.0006154189066,-0.00102093879628755,-48.9937903759287));
#788=CARTESIAN_POINT('',(9.99992312432971,-0.115632092203165,-49.0004583057253));
#789=CARTESIAN_POINT('',(9.99748223921423,-0.224385553445664,-49.0254995518703));
#790=CARTESIAN_POINT('',(9.99504629463905,-0.332918889268754,-49.0504901125958));
#791=CARTESIAN_POINT('',(9.99082195209305,-0.438601457415309,-49.0944540535314));
#792=CARTESIAN_POINT('',(9.98579728059032,-0.532778256832928,-49.1537451157919));
#793=CARTESIAN_POINT('',(9.98075562493485,-0.62727338813445,-49.2132365908469));
#794=CARTESIAN_POINT('',(9.97480827400844,-0.712787037472692,-49.2897895772069));
#795=CARTESIAN_POINT('',(9.96935132406621,-0.782326132337613,-49.3771309747132));
#796=CARTESIAN_POINT('',(9.96387491098906,-0.852113250145687,-49.464783890086));
#797=CARTESIAN_POINT('',(9.95878422809973,-0.907735826665616,-49.5657342590683));
#798=CARTESIAN_POINT('',(9.95529113115506,-0.944552007008815,-49.6716381476852));
#799=CARTESIAN_POINT('',(9.95180433580316,-0.981301770479092,-49.7773509842959));
#800=CARTESIAN_POINT('',(9.94984210192646,-1.00032107526353,-49.890932809718));
#801=CARTESIAN_POINT('',(9.94987479518013,-0.999995780110199,-50.0029051268123));
#802=CARTESIAN_POINT('',(9.94990734481072,-0.999671913994498,-50.1143855440023));
#803=CARTESIAN_POINT('',(9.95191705764011,-0.980168990608923,-50.2273420888518));
#804=CARTESIAN_POINT('',(9.95542616732503,-0.943127683264125,-50.3324307041488));
#805=CARTESIAN_POINT('',(9.95893489833774,-0.906090373090847,-50.4375079792082));
#806=CARTESIAN_POINT('',(9.9640097852018,-0.850513888403576,-50.537607441096));
#807=CARTESIAN_POINT('',(9.96945700310704,-0.780978273192647,-50.6245581932863));
#808=CARTESIAN_POINT('',(9.97492788276212,-0.711140607584541,-50.7118866441444));
#809=CARTESIAN_POINT('',(9.98088249881938,-0.625298298806368,-50.788359156787));
#810=CARTESIAN_POINT('',(9.98591894706978,-0.530492961830542,-50.8476893401761));
#811=CARTESIAN_POINT('',(9.99096562230723,-0.435495113603793,-50.9071399991438));
#812=CARTESIAN_POINT('',(9.99519039502581,-0.328858194112002,-50.9510157522534));
#813=CARTESIAN_POINT('',(9.99759207812628,-0.21943709664883,-50.9756266502173));
#814=CARTESIAN_POINT('',(9.99916778677523,-0.147647538061036,-50.9917734952248));
#815=CARTESIAN_POINT('',(9.99999999999995,-0.0735998925520387,-51.));
#816=CARTESIAN_POINT('',(9.99999999999995,3.5324693763832E-16,-51.));
#817=CARTESIAN_POINT('',(9.99999999999995,3.5324693763832E-16,-51.));
#818=CARTESIAN_POINT('',(-1.20202742036241E-14,-9.99999999999995,51.));
#819=CARTESIAN_POINT('',(-0.111613417439153,-9.99999999999995,51.));
#820=CARTESIAN_POINT('',(-0.224764766214569,-9.99802892848585,50.9807783948789));
#821=CARTESIAN_POINT('',(-0.330071746100557,-9.99455114762164,50.9439558477101));
#822=CARTESIAN_POINT('',(-0.435366112258938,-9.99107378332793,50.9071377111662));
#823=CARTESIAN_POINT('',(-0.535718898838335,-9.98602216166784,50.8517219104453));
#824=CARTESIAN_POINT('',(-0.622918281945368,-9.98057978346034,50.7822869128512));
#825=CARTESIAN_POINT('',(-0.710389256391264,-9.97512045441292,50.7126356529019));
#826=CARTESIAN_POINT('',(-0.787038047103589,-9.96915945197077,50.6269591753397));
#827=CARTESIAN_POINT('',(-0.846565249980798,-9.96410193030581,50.5322849589505));
#828=CARTESIAN_POINT('',(-0.906216960254518,-9.95903383030313,50.4374127214948));
#829=CARTESIAN_POINT('',(-0.950318171100751,-9.95477365090481,50.3308688596862));
#830=CARTESIAN_POINT('',(-0.97516051584203,-9.95233952236065,50.2214993642039));
#831=CARTESIAN_POINT('',(-0.999918669245114,-9.94991364314003,50.1125005247236));
#832=CARTESIAN_POINT('',(-1.00622691333196,-9.94925473131037,49.9976773465379));
#833=CARTESIAN_POINT('',(-0.993549871446193,-9.95052052170882,49.8866039994123));
#834=CARTESIAN_POINT('',(-0.980918365848745,-9.95178176535282,49.7759296308501));
#835=CARTESIAN_POINT('',(-0.949099905895236,-9.95497694410612,49.6659338241463));
#836=CARTESIAN_POINT('',(-0.900752530062807,-9.95934962131486,49.5656673169269));
#837=CARTESIAN_POINT('',(-0.852316808615385,-9.96373028875782,49.465217591775));
#838=CARTESIAN_POINT('',(-0.785971106468541,-9.96937770195655,49.3717695009127));
#839=CARTESIAN_POINT('',(-0.707160396427959,-9.97496487080144,49.2929468381204));
#840=CARTESIAN_POINT('',(-0.628003582208814,-9.98057657619071,49.213778018658));
#841=CARTESIAN_POINT('',(-0.534082288663518,-9.986238908254,49.1471800031735));
#842=CARTESIAN_POINT('',(-0.433125528649423,-9.99061571057716,49.0986663900463));
#843=CARTESIAN_POINT('',(-0.332155950956393,-9.99499306858819,49.0501466175305));
#844=CARTESIAN_POINT('',(-0.221343811089071,-9.99817099581098,49.0183821506027));
#845=CARTESIAN_POINT('',(-0.109921892511099,-9.99939584062686,49.0060597716428));
#846=CARTESIAN_POINT('',(0.00102093879627589,-10.0006154189066,48.9937903759287));
#847=CARTESIAN_POINT('',(0.115632092203153,-9.99992312432971,49.0004583057253));
#848=CARTESIAN_POINT('',(0.224385553445653,-9.99748223921423,49.0254995518703));
#849=CARTESIAN_POINT('',(0.332918889268743,-9.99504629463905,49.0504901125958));
#850=CARTESIAN_POINT('',(0.438601457415297,-9.99082195209305,49.0944540535314));
#851=CARTESIAN_POINT('',(0.532778256832916,-9.98579728059032,49.1537451157919));
#852=CARTESIAN_POINT('',(0.627273388134438,-9.98075562493485,49.2132365908469));
#853=CARTESIAN_POINT('',(0.71278703747268,-9.97480827400844,49.2897895772069));
#854=CARTESIAN_POINT('',(0.782326132337601,-9.96935132406621,49.3771309747132));
#855=CARTESIAN_POINT('',(0.852113250145675,-9.96387491098906,49.464783890086));
#856=CARTESIAN_POINT('',(0.907735826665605,-9.95878422809974,49.5657342590683));
#857=CARTESIAN_POINT('',(0.944552007008804,-9.95529113115506,49.6716381476852));
#858=CARTESIAN_POINT('',(0.981301770479081,-9.95180433580316,49.7773509842959));
#859=CARTESIAN_POINT('',(1.00032107526352,-9.94984210192646,49.890932809718));
#860=CARTESIAN_POINT('',(0.999995780110187,-9.94987479518013,50.0029051268123));
#861=CARTESIAN_POINT('',(0.999671913994487,-9.94990734481072,50.1143855440023));
#862=CARTESIAN_POINT('',(0.980168990608911,-9.95191705764012,50.2273420888518));
#863=CARTESIAN_POINT('',(0.943127683264113,-9.95542616732503,50.3324307041488));
#864=CARTESIAN_POINT('',(0.906090373090835,-9.95893489833774,50.4375079792082));
#865=CARTESIAN_POINT('',(0.850513888403564,-9.96400978520181,50.537607441096));
#866=CARTESIAN_POINT('',(0.780978273192635,-9.96945700310704,50.6245581932863));
#867=CARTESIAN_POINT('',(0.711140607584529,-9.97492788276212,50.7118866441444));
#868=CARTESIAN_POINT('',(0.625298298806356,-9.98088249881938,50.788359156787));
#869=CARTESIAN_POINT('',(0.53049296183053,-9.98591894706978,50.8476893401761));
#870=CARTESIAN_POINT('',(0.435495113603782,-9.99096562230723,50.9071399991438));
#871=CARTESIAN_POINT('',(0.32885819411199,-9.99519039502581,50.9510157522534));
#872=CARTESIAN_POINT('',(0.219437096648818,-9.99759207812628,50.9756266502173));
#873=CARTESIAN_POINT('',(0.147647538061024,-9.99916778677523,50.9917734952248));
#874=CARTESIAN_POINT('',(0.0735998925520269,-9.99999999999995,51.));
#875=CARTESIAN_POINT('',(-1.20202742036241E-14,-9.99999999999995,51.));
#876=CARTESIAN_POINT('',(-1.20202742036241E-14,-9.99999999999995,51.));
#877=CARTESIAN_POINT('',(-1.13552890786676E-14,-9.99999999999995,-51.));
#878=CARTESIAN_POINT('',(0.111613417439129,-9.99999999999995,-51.));
#879=CARTESIAN_POINT('',(0.224764766214545,-9.99802892848585,-50.9807783948789));
#880=CARTESIAN_POINT('',(0.330071746100534,-9.99455114762164,-50.9439558477101));
#881=CARTESIAN_POINT('',(0.435366112258915,-9.99107378332793,-50.9071377111662));
#882=CARTESIAN_POINT('',(0.535718898838312,-9.98602216166784,-50.8517219104453));
#883=CARTESIAN_POINT('',(0.622918281945345,-9.98057978346034,-50.7822869128512));
#884=CARTESIAN_POINT('',(0.71038925639124,-9.97512045441292,-50.7126356529019));
#885=CARTESIAN_POINT('',(0.787038047103566,-9.96915945197077,-50.6269591753397));
#886=CARTESIAN_POINT('',(0.846565249980774,-9.96410193030581,-50.5322849589505));
#887=CARTESIAN_POINT('',(0.906216960254494,-9.95903383030313,-50.4374127214948));
#888=CARTESIAN_POINT('',(0.950318171100728,-9.95477365090481,-50.3308688596862));
#889=CARTESIAN_POINT('',(0.975160515842007,-9.95233952236065,-50.2214993642039));
#890=CARTESIAN_POINT('',(0.999918669245091,-9.94991364314003,-50.1125005247236));
#891=CARTESIAN_POINT('',(1.00622691333193,-9.94925473131037,-49.9976773465379));
#892=CARTESIAN_POINT('',(0.99354987144617,-9.95052052170882,-49.8866039994123));
#893=CARTESIAN_POINT('',(0.980918365848722,-9.95178176535282,-49.7759296308501));
#894=CARTESIAN_POINT('',(0.949099905895213,-9.95497694410613,-49.6659338241463));
#895=CARTESIAN_POINT('',(0.900752530062783,-9.95934962131486,-49.5656673169269));
#896=CARTESIAN_POINT('',(0.852316808615361,-9.96373028875782,-49.465217591775));
#897=CARTESIAN_POINT('',(0.785971106468517,-9.96937770195655,-49.3717695009127));
#898=CARTESIAN_POINT('',(0.707160396427936,-9.97496487080145,-49.2929468381204));
#899=CARTESIAN_POINT('',(0.62800358220879,-9.98057657619071,-49.213778018658));
#900=CARTESIAN_POINT('',(0.534082288663495,-9.986238908254,-49.1471800031735));
#901=CARTESIAN_POINT('',(0.433125528649399,-9.99061571057716,-49.0986663900463));
#902=CARTESIAN_POINT('',(0.33215595095637,-9.99499306858819,-49.0501466175305));
#903=CARTESIAN_POINT('',(0.221343811089048,-9.99817099581098,-49.0183821506027));
#904=CARTESIAN_POINT('',(0.109921892511075,-9.99939584062686,-49.0060597716428));
#905=CARTESIAN_POINT('',(-0.00102093879629933,-10.0006154189066,-48.9937903759287));
#906=CARTESIAN_POINT('',(-0.115632092203177,-9.99992312432971,-49.0004583057253));
#907=CARTESIAN_POINT('',(-0.224385553445676,-9.99748223921423,-49.0254995518703));
#908=CARTESIAN_POINT('',(-0.332918889268766,-9.99504629463905,-49.0504901125958));
#909=CARTESIAN_POINT('',(-0.438601457415321,-9.99082195209305,-49.0944540535314));
#910=CARTESIAN_POINT('',(-0.53277825683294,-9.98579728059032,-49.1537451157919));
#911=CARTESIAN_POINT('',(-0.627273388134462,-9.98075562493485,-49.2132365908469));
#912=CARTESIAN_POINT('',(-0.712787037472703,-9.97480827400844,-49.2897895772069));
#913=CARTESIAN_POINT('',(-0.782326132337624,-9.96935132406621,-49.3771309747132));
#914=CARTESIAN_POINT('',(-0.852113250145699,-9.96387491098906,-49.464783890086));
#915=CARTESIAN_POINT('',(-0.907735826665628,-9.95878422809973,-49.5657342590683));
#916=CARTESIAN_POINT('',(-0.944552007008827,-9.95529113115506,-49.6716381476852));
#917=CARTESIAN_POINT('',(-0.981301770479104,-9.95180433580316,-49.7773509842959));
#918=CARTESIAN_POINT('',(-1.00032107526354,-9.94984210192646,-49.890932809718));
#919=CARTESIAN_POINT('',(-0.99999578011021,-9.94987479518013,-50.0029051268123));
#920=CARTESIAN_POINT('',(-0.99967191399451,-9.94990734481072,-50.1143855440023));
#921=CARTESIAN_POINT('',(-0.980168990608934,-9.95191705764011,-50.2273420888518));
#922=CARTESIAN_POINT('',(-0.943127683264137,-9.95542616732503,-50.3324307041488));
#923=CARTESIAN_POINT('',(-0.906090373090859,-9.95893489833774,-50.4375079792082));
#924=CARTESIAN_POINT('',(-0.850513888403587,-9.9640097852018,-50.537607441096));
#925=CARTESIAN_POINT('',(-0.780978273192658,-9.96945700310704,-50.6245581932863));
#926=CARTESIAN_POINT('',(-0.711140607584553,-9.97492788276211,-50.7118866441444));
#927=CARTESIAN_POINT('',(-0.62529829880638,-9.98088249881938,-50.788359156787));
#928=CARTESIAN_POINT('',(-0.530492961830553,-9.98591894706978,-50.8476893401761));
#929=CARTESIAN_POINT('',(-0.435495113603805,-9.99096562230723,-50.9071399991438));
#930=CARTESIAN_POINT('',(-0.328858194112014,-9.99519039502581,-50.9510157522534));
#931=CARTESIAN_POINT('',(-0.219437096648842,-9.99759207812628,-50.9756266502173));
#932=CARTESIAN_POINT('',(-0.147647538061047,-9.99916778677523,-50.9917734952248));
#933=CARTESIAN_POINT('',(-0.0735998925520503,-9.99999999999995,-51.));
#934=CARTESIAN_POINT('',(-1.13552890786676E-14,-9.99999999999995,-51.));
#935=CARTESIAN_POINT('',(-1.13552890786676E-14,-9.99999999999995,-51.));
#936=CARTESIAN_POINT('',(-1.07171841353745E-14,9.99999999999995,509.5));
#937=CARTESIAN_POINT('',(-0.221391869830286,9.99999999999995,509.5));
#938=CARTESIAN_POINT('',(-0.445827788070127,9.99224804460835,509.462158076553));
#939=CARTESIAN_POINT('',(-0.654623802323653,9.97855037956067,509.389832711494));
#940=CARTESIAN_POINT('',(-0.863323010005433,9.96485906532384,509.3175408795));
#941=CARTESIAN_POINT('',(-1.06212850390872,9.94496591996175,509.208914001934));
#942=CARTESIAN_POINT('',(-1.23533131131207,9.9234044839103,509.072881607525));
#943=CARTESIAN_POINT('',(-1.41063284459449,9.90158178451959,508.935200887026));
#944=CARTESIAN_POINT('',(-1.56454600127191,9.8776041305419,508.765676363733));
#945=CARTESIAN_POINT('',(-1.6847356806449,9.85706171667607,508.577805959513));
#946=CARTESIAN_POINT('',(-1.80599735692888,9.8363360807206,508.388259899828));
#947=CARTESIAN_POINT('',(-1.8962603934784,9.81870336706435,508.174651221076));
#948=CARTESIAN_POINT('',(-1.94759639827029,9.80850999232012,507.954827736011));
#949=CARTESIAN_POINT('',(-1.9982538718935,9.7984513480152,507.737909757263));
#950=CARTESIAN_POINT('',(-2.01236654739468,9.79545643138101,507.50885871768));
#951=CARTESIAN_POINT('',(-1.98864624708944,9.80026969546941,507.287194680665));
#952=CARTESIAN_POINT('',(-1.96528042421097,9.8050110298838,507.068843202785));
#953=CARTESIAN_POINT('',(-1.90464135228347,9.81739413127735,506.851698075669));
#954=CARTESIAN_POINT('',(-1.81193501072755,9.83447464366545,506.653305535096));
#955=CARTESIAN_POINT('',(-1.71858721092761,9.85167334036867,506.453540267171));
#956=CARTESIAN_POINT('',(-1.59027214080445,9.87395281389614,506.267337682667));
#957=CARTESIAN_POINT('',(-1.43725007019538,9.89617664735843,506.109204459411));
#958=CARTESIAN_POINT('',(-1.28148407589298,9.91879898871538,505.948235661545));
#959=CARTESIAN_POINT('',(-1.09577767116638,9.9418242746837,505.811914756261));
#960=CARTESIAN_POINT('',(-0.895095487404045,9.95985964100037,505.711479922274));
#961=CARTESIAN_POINT('',(-0.694139205723994,9.97791964057675,505.610907911293));
#962=CARTESIAN_POINT('',(-0.472456440671741,9.9913373966114,505.543580247214));
#963=CARTESIAN_POINT('',(-0.248833815345016,9.99690360723458,505.515539939343));
#964=CARTESIAN_POINT('',(-0.0289574397337173,10.0023765696235,505.487969378196));
#965=CARTESIAN_POINT('',(0.198897001566784,10.000372894348,505.497627781261));
#966=CARTESIAN_POINT('',(0.415546149138669,9.99136233943775,505.543645891477));
#967=CARTESIAN_POINT('',(0.630282796191669,9.98243132645571,505.589257770417));
#968=CARTESIAN_POINT('',(0.839858881735236,9.96645698061608,505.671740480988));
#969=CARTESIAN_POINT('',(1.02761261327646,9.94706048624588,505.784187563562));
#970=CARTESIAN_POINT('',(1.21768578344098,9.92742437491665,505.898023774886));
#971=CARTESIAN_POINT('',(1.39059700685475,9.90388511356596,506.045618447209));
#972=CARTESIAN_POINT('',(1.53277311197149,9.88183214729011,506.215240650076));
#973=CARTESIAN_POINT('',(1.67709735564866,9.85944598277965,506.387425674553));
#974=CARTESIAN_POINT('',(1.79373186447516,9.83814026139951,506.587159866532));
#975=CARTESIAN_POINT('',(1.87279263337619,9.82306712551487,506.798111296307));
#976=CARTESIAN_POINT('',(1.95142335025066,9.80807598013858,507.00791525318));
#977=CARTESIAN_POINT('',(1.99501155391056,9.79897702255271,507.234758123648));
#978=CARTESIAN_POINT('',(1.99958512636416,9.79804364770959,507.459265218508));
#979=CARTESIAN_POINT('',(2.00407596807023,9.79712715656062,507.679711234205));
#980=CARTESIAN_POINT('',(1.97110477380187,9.80405402832684,507.90397035291));
#981=CARTESIAN_POINT('',(1.90359150444043,9.81714517485716,508.113465063571));
#982=CARTESIAN_POINT('',(1.83622980926219,9.83020693042684,508.322489437216));
#983=CARTESIAN_POINT('',(1.73275294618765,9.84963040435187,508.522503705186));
#984=CARTESIAN_POINT('',(1.60160768975955,9.87090942153265,508.697853416785));
#985=CARTESIAN_POINT('',(1.46822031400942,9.89255223452942,508.876200987301));
#986=CARTESIAN_POINT('',(1.30256664922839,9.91654592427357,509.033935041529));
#987=CARTESIAN_POINT('',(1.11782068324101,9.93732745360228,509.15845618577));
#988=CARTESIAN_POINT('',(0.931234906754209,9.95831593779276,509.284217385822));
#989=CARTESIAN_POINT('',(0.719878640265172,9.97645446011395,509.379554485802));
#990=CARTESIAN_POINT('',(0.501364280660437,9.98742378484446,509.436138904644));
#991=CARTESIAN_POINT('',(0.338413806640597,9.99560382696045,509.478335023422));
#992=CARTESIAN_POINT('',(0.168523833662185,9.99999999999995,509.5));
#993=CARTESIAN_POINT('',(-1.07171841353745E-14,9.99999999999995,509.5));
#994=CARTESIAN_POINT('',(-1.07171841353745E-14,9.99999999999995,509.5));
#995=CARTESIAN_POINT('',(0.,0.,520.));
#996=CARTESIAN_POINT('',(-9.99999999999995,0.,520.));
#997=CARTESIAN_POINT('',(0.,0.,-55.));
#998=CARTESIAN_POINT('',(-9.99999999999985,0.,-55.));
#999=CARTESIAN_POINT('',(1.07171841353745E-14,-9.99999999999995,509.5));
#1000=CARTESIAN_POINT('',(0.221391869830286,-9.99999999999995,509.5));
#1001=CARTESIAN_POINT('',(0.445827788070127,-9.99224804460835,509.462158076553));
#1002=CARTESIAN_POINT('',(0.654623802323653,-9.97855037956067,509.389832711494));
#1003=CARTESIAN_POINT('',(0.863323010005433,-9.96485906532384,509.3175408795));
#1004=CARTESIAN_POINT('',(1.06212850390872,-9.94496591996175,509.208914001934));
#1005=CARTESIAN_POINT('',(1.23533131131207,-9.9234044839103,509.072881607525));
#1006=CARTESIAN_POINT('',(1.41063284459449,-9.90158178451959,508.935200887026));
#1007=CARTESIAN_POINT('',(1.56454600127191,-9.8776041305419,508.765676363733));
#1008=CARTESIAN_POINT('',(1.6847356806449,-9.85706171667607,508.577805959513));
#1009=CARTESIAN_POINT('',(1.80599735692888,-9.8363360807206,508.388259899828));
#1010=CARTESIAN_POINT('',(1.8962603934784,-9.81870336706435,508.174651221076));
#1011=CARTESIAN_POINT('',(1.94759639827029,-9.80850999232012,507.954827736011));
#1012=CARTESIAN_POINT('',(1.9982538718935,-9.7984513480152,507.737909757263));
#1013=CARTESIAN_POINT('',(2.01236654739468,-9.79545643138101,507.50885871768));
#1014=CARTESIAN_POINT('',(1.98864624708944,-9.80026969546941,507.287194680665));
#1015=CARTESIAN_POINT('',(1.96528042421097,-9.8050110298838,507.068843202785));
#1016=CARTESIAN_POINT('',(1.90464135228347,-9.81739413127735,506.851698075669));
#1017=CARTESIAN_POINT('',(1.81193501072755,-9.83447464366545,506.653305535096));
#1018=CARTESIAN_POINT('',(1.71858721092761,-9.85167334036867,506.453540267171));
#1019=CARTESIAN_POINT('',(1.59027214080445,-9.87395281389614,506.267337682667));
#1020=CARTESIAN_POINT('',(1.43725007019538,-9.89617664735843,506.109204459411));
#1021=CARTESIAN_POINT('',(1.28148407589298,-9.91879898871538,505.948235661545));
#1022=CARTESIAN_POINT('',(1.09577767116638,-9.9418242746837,505.811914756261));
#1023=CARTESIAN_POINT('',(0.895095487404045,-9.95985964100037,505.711479922274));
#1024=CARTESIAN_POINT('',(0.694139205723994,-9.97791964057675,505.610907911293));
#1025=CARTESIAN_POINT('',(0.472456440671741,-9.9913373966114,505.543580247214));
#1026=CARTESIAN_POINT('',(0.248833815345016,-9.99690360723458,505.515539939343));
#1027=CARTESIAN_POINT('',(0.0289574397337173,-10.0023765696235,505.487969378196));
#1028=CARTESIAN_POINT('',(-0.198897001566784,-10.000372894348,505.497627781261));
#1029=CARTESIAN_POINT('',(-0.415546149138669,-9.99136233943775,505.543645891477));
#1030=CARTESIAN_POINT('',(-0.630282796191669,-9.98243132645571,505.589257770417));
#1031=CARTESIAN_POINT('',(-0.839858881735236,-9.96645698061608,505.671740480988));
#1032=CARTESIAN_POINT('',(-1.02761261327646,-9.94706048624588,505.784187563562));
#1033=CARTESIAN_POINT('',(-1.21768578344098,-9.92742437491665,505.898023774886));
#1034=CARTESIAN_POINT('',(-1.39059700685475,-9.90388511356596,506.045618447209));
#1035=CARTESIAN_POINT('',(-1.53277311197149,-9.88183214729011,506.215240650076));
#1036=CARTESIAN_POINT('',(-1.67709735564866,-9.85944598277965,506.387425674553));
#1037=CARTESIAN_POINT('',(-1.79373186447516,-9.83814026139951,506.587159866532));
#1038=CARTESIAN_POINT('',(-1.87279263337619,-9.82306712551487,506.798111296307));
#1039=CARTESIAN_POINT('',(-1.95142335025066,-9.80807598013858,507.00791525318));
#1040=CARTESIAN_POINT('',(-1.99501155391056,-9.79897702255271,507.234758123648));
#1041=CARTESIAN_POINT('',(-1.99958512636416,-9.79804364770959,507.459265218508));
#1042=CARTESIAN_POINT('',(-2.00407596807023,-9.79712715656062,507.679711234205));
#1043=CARTESIAN_POINT('',(-1.97110477380187,-9.80405402832684,507.90397035291));
#1044=CARTESIAN_POINT('',(-1.90359150444043,-9.81714517485716,508.113465063571));
#1045=CARTESIAN_POINT('',(-1.83622980926219,-9.83020693042684,508.322489437216));
#1046=CARTESIAN_POINT('',(-1.73275294618765,-9.84963040435187,508.522503705186));
#1047=CARTESIAN_POINT('',(-1.60160768975955,-9.87090942153265,508.697853416785));
#1048=CARTESIAN_POINT('',(-1.46822031400942,-9.89255223452942,508.876200987301));
#1049=CARTESIAN_POINT('',(-1.30256664922839,-9.91654592427357,509.033935041529));
#1050=CARTESIAN_POINT('',(-1.11782068324101,-9.93732745360228,509.15845618577));
#1051=CARTESIAN_POINT('',(-0.931234906754209,-9.95831593779276,509.284217385822));
#1052=CARTESIAN_POINT('',(-0.719878640265172,-9.97645446011395,509.379554485802));
#1053=CARTESIAN_POINT('',(-0.501364280660437,-9.98742378484446,509.436138904644));
#1054=CARTESIAN_POINT('',(-0.338413806640597,-9.99560382696045,509.478335023422));
#1055=CARTESIAN_POINT('',(-0.168523833662185,-9.99999999999995,509.5));
#1056=CARTESIAN_POINT('',(1.07171841353745E-14,-9.99999999999995,509.5));
#1057=CARTESIAN_POINT('',(1.07171841353745E-14,-9.99999999999995,509.5));
#1058=CARTESIAN_POINT('',(0.,0.,0.));
#1059=CARTESIAN_POINT('',(-9.99999999999995,0.,520.));
#1060=CARTESIAN_POINT('',(4.2632564145606E-14,0.,-55.));
#1061=CARTESIAN_POINT('',(0.,-10.9999999999999,507.5));
#1062=CARTESIAN_POINT('',(-1.64003751041553E-13,-140.,50.));
#1063=CARTESIAN_POINT('',(-1.64003751041553E-13,-140.,51.));
#1064=CARTESIAN_POINT('',(-1.75718304687379E-13,-150.,40.));
#1065=CARTESIAN_POINT('',(-1.76889760051961E-13,-151.,40.));
#1066=CARTESIAN_POINT('',(-1.64003751041553E-13,-140.,40.));
#1067=CARTESIAN_POINT('',(1.64003751041553E-13,140.,50.));
#1068=CARTESIAN_POINT('',(-1.75718304687379E-13,-150.,-40.));
#1069=CARTESIAN_POINT('',(-1.76889760051961E-13,-151.,-40.));
#1070=CARTESIAN_POINT('',(-1.75718304687379E-13,-150.,-40.));
#1071=CARTESIAN_POINT('',(-1.64003751041553E-13,-140.,-50.));
#1072=CARTESIAN_POINT('',(-1.64003751041553E-13,-140.,-51.));
#1073=CARTESIAN_POINT('',(-1.64003751041553E-13,-140.,-40.));
#1074=CARTESIAN_POINT('',(-1.64003751041553E-13,-140.,-50.));
#1075=CARTESIAN_POINT('',(150.,0.,40.));
#1076=CARTESIAN_POINT('',(151.,0.,40.));
#1077=CARTESIAN_POINT('',(140.,0.,50.));
#1078=CARTESIAN_POINT('',(140.,0.,51.));
#1079=CARTESIAN_POINT('',(140.,0.,40.));
#1080=CARTESIAN_POINT('',(140.,0.,50.));
#1081=CARTESIAN_POINT('',(150.,0.,-40.));
#1082=CARTESIAN_POINT('',(151.,0.,-40.));
#1083=CARTESIAN_POINT('',(150.,0.,-40.));
#1084=CARTESIAN_POINT('',(140.,0.,-50.));
#1085=CARTESIAN_POINT('',(140.,0.,-51.));
#1086=CARTESIAN_POINT('',(140.,0.,-40.));
#1087=CARTESIAN_POINT('',(-140.,0.,-50.));
#1088=CARTESIAN_POINT('',(1.75718304687379E-13,150.,40.));
#1089=CARTESIAN_POINT('',(1.76889760051961E-13,151.,40.));
#1090=CARTESIAN_POINT('',(1.64003751041553E-13,140.,50.));
#1091=CARTESIAN_POINT('',(1.64003751041553E-13,140.,51.));
#1092=CARTESIAN_POINT('',(1.64003751041553E-13,140.,40.));
#1093=CARTESIAN_POINT('',(1.64003751041553E-13,140.,50.));
#1094=CARTESIAN_POINT('',(1.75718304687379E-13,150.,-40.));
#1095=CARTESIAN_POINT('',(1.76889760051961E-13,151.,-40.));
#1096=CARTESIAN_POINT('',(1.75718304687379E-13,150.,-40.));
#1097=CARTESIAN_POINT('',(1.64003751041553E-13,140.,-50.));
#1098=CARTESIAN_POINT('',(1.64003751041553E-13,140.,-51.));
#1099=CARTESIAN_POINT('',(1.64003751041553E-13,140.,-40.));
#1100=CARTESIAN_POINT('',(-1.64003751041553E-13,-140.,-50.));
#1101=CARTESIAN_POINT('',(-140.,0.,50.));
#1102=CARTESIAN_POINT('',(-140.,0.,51.));
#1103=CARTESIAN_POINT('',(140.,0.,50.));
#1104=CARTESIAN_POINT('',(-150.,0.,40.));
#1105=CARTESIAN_POINT('',(-151.,0.,40.));
#1106=CARTESIAN_POINT('',(-140.,0.,40.));
#1107=CARTESIAN_POINT('',(-140.,0.,-50.));
#1108=CARTESIAN_POINT('',(-140.,0.,-51.));
#1109=CARTESIAN_POINT('',(-140.,0.,-50.));
#1110=CARTESIAN_POINT('',(-150.,0.,-40.));
#1111=CARTESIAN_POINT('',(-151.,0.,-40.));
#1112=CARTESIAN_POINT('',(-140.,0.,-40.));
#1113=CARTESIAN_POINT('',(-150.,0.,-40.));
#1114=MECHANICAL_DESIGN_GEOMETRIC_PRESENTATION_REPRESENTATION('',(#24),
#1115);
#1115=(
GEOMETRIC_REPRESENTATION_CONTEXT(3)
GLOBAL_UNCERTAINTY_ASSIGNED_CONTEXT((#1116))
GLOBAL_UNIT_ASSIGNED_CONTEXT((#1122,#1118,#1117))
REPRESENTATION_CONTEXT('S_SF_M_06_stirrer','TOP_LEVEL_ASSEMBLY_PART')
);
#1116=UNCERTAINTY_MEASURE_WITH_UNIT(LENGTH_MEASURE(0.0508),#1122,
'DISTANCE_ACCURACY_VALUE','Maximum Tolerance applied to model');
#1117=(
NAMED_UNIT(*)
SI_UNIT($,.STERADIAN.)
SOLID_ANGLE_UNIT()
);
#1118=(
CONVERSION_BASED_UNIT('DEGREE',#1120)
NAMED_UNIT(#1119)
PLANE_ANGLE_UNIT()
);
#1119=DIMENSIONAL_EXPONENTS(0.,0.,0.,0.,0.,0.,0.);
#1120=PLANE_ANGLE_MEASURE_WITH_UNIT(PLANE_ANGLE_MEASURE(0.0174532925),#1121);
#1121=(
NAMED_UNIT(*)
PLANE_ANGLE_UNIT()
SI_UNIT($,.RADIAN.)
);
#1122=(
LENGTH_UNIT()
NAMED_UNIT(*)
SI_UNIT(.MILLI.,.METRE.)
);
ENDSEC;
END-ISO-10303-21;
