ISO-10303-21;
HEADER;
/* Generated by software containing ST-Developer
 * from STEP Tools, Inc. (www.steptools.com) 
 */
/* OPTION: using custom schema-name function */

FILE_DESCRIPTION(
/* description */ (''),
/* implementation_level */ '2;1');

FILE_NAME(
/* name */ 'S_SF_M_09_stirrer_holder_clamp.stp',
/* time_stamp */ '2025-12-15T17:01:54+01:00',
/* author */ (''),
/* organization */ (''),
/* preprocessor_version */ 'ST-DEVELOPER v18.1',
/* originating_system */ 'SIEMENS PLM Software NX 1988',
/* authorisation */ '');

FILE_SCHEMA (('AUTOMOTIVE_DESIGN { 1 0 10303 214 3 1 1 1 }'));
ENDSEC;

DATA;
#10=SHAPE_REPRESENTATION_RELATIONSHIP('None',
'relationship between S_SF_M_09_stirrer_holder_clamp-None and S_SF_M_0
9_stirrer_holder_clamp-None',#22,#11);
#11=ADVANCED_BREP_SHAPE_REPRESENTATION(
'S_SF_M_09_stirrer_holder_clamp-None',(#32),#377);
#12=SHAPE_DEFINITION_REPRESENTATION(#13,#22);
#13=PRODUCT_DEFINITION_SHAPE('','',#14);
#14=PRODUCT_DEFINITION(' ','',#16,#15);
#15=PRODUCT_DEFINITION_CONTEXT('part definition',#21,'design');
#16=PRODUCT_DEFINITION_FORMATION_WITH_SPECIFIED_SOURCE(' ',' ',#18,
 .NOT_KNOWN.);
#17=PRODUCT_RELATED_PRODUCT_CATEGORY('part','',(#18));
#18=PRODUCT('S_SF_M_09_stirrer_holder_clamp',
'S_SF_M_09_stirrer_holder_clamp',' ',(#19));
#19=PRODUCT_CONTEXT(' ',#21,'mechanical');
#20=APPLICATION_PROTOCOL_DEFINITION('international standard',
'automotive_design',2010,#21);
#21=APPLICATION_CONTEXT(
'core data for automotive mechanical design processes');
#22=SHAPE_REPRESENTATION('S_SF_M_09_stirrer_holder_clamp-None',(#212),#377);
#23=PRESENTATION_LAYER_ASSIGNMENT('1','Layer 1',(#32));
#24=STYLED_ITEM('',(#25),#32);
#25=PRESENTATION_STYLE_ASSIGNMENT((#26));
#26=SURFACE_STYLE_USAGE(.BOTH.,#27);
#27=SURFACE_SIDE_STYLE('',(#28));
#28=SURFACE_STYLE_FILL_AREA(#29);
#29=FILL_AREA_STYLE('',(#30));
#30=FILL_AREA_STYLE_COLOUR('',#31);
#31=COLOUR_RGB('medium steel',0.596078431372549,0.666666666666667,0.686274509803922);
#32=MANIFOLD_SOLID_BREP('',#33);
#33=CLOSED_SHELL('',(#45,#46,#47,#48,#49,#50,#51,#52,#53,#54,#55,#56));
#34=PLANE('',#225);
#35=PLANE('',#226);
#36=PLANE('',#227);
#37=PLANE('',#228);
#38=PLANE('',#230);
#39=PLANE('',#233);
#40=FACE_OUTER_BOUND('',#95,.T.);
#41=FACE_OUTER_BOUND('',#96,.T.);
#42=FACE_OUTER_BOUND('',#97,.T.);
#43=FACE_OUTER_BOUND('',#104,.T.);
#44=FACE_OUTER_BOUND('',#107,.T.);
#45=ADVANCED_FACE('',(#73,#74,#75),#57,.T.);
#46=ADVANCED_FACE('',(#76,#77),#58,.F.);
#47=ADVANCED_FACE('',(#78,#79),#59,.F.);
#48=ADVANCED_FACE('',(#40),#60,.F.);
#49=ADVANCED_FACE('',(#41),#34,.T.);
#50=ADVANCED_FACE('',(#42),#35,.T.);
#51=ADVANCED_FACE('',(#80,#81),#36,.F.);
#52=ADVANCED_FACE('',(#82,#83),#37,.F.);
#53=ADVANCED_FACE('',(#84,#85),#38,.T.);
#54=ADVANCED_FACE('',(#43),#61,.F.);
#55=ADVANCED_FACE('',(#86,#87),#39,.T.);
#56=ADVANCED_FACE('',(#44),#62,.F.);
#57=CYLINDRICAL_SURFACE('',#215,25.0000000000002);
#58=CYLINDRICAL_SURFACE('',#218,3.);
#59=CYLINDRICAL_SURFACE('',#221,3.);
#60=CYLINDRICAL_SURFACE('',#224,10.0000000000002);
#61=CYLINDRICAL_SURFACE('',#231,6.);
#62=CYLINDRICAL_SURFACE('',#234,6.);
#63=CIRCLE('',#213,25.0000000000002);
#64=CIRCLE('',#214,25.0000000000002);
#65=CIRCLE('',#216,3.);
#66=CIRCLE('',#217,3.);
#67=CIRCLE('',#219,3.);
#68=CIRCLE('',#220,3.);
#69=CIRCLE('',#222,10.0000000000002);
#70=CIRCLE('',#223,10.0000000000002);
#71=CIRCLE('',#229,6.);
#72=CIRCLE('',#232,6.);
#73=FACE_BOUND('',#88,.T.);
#74=FACE_BOUND('',#89,.T.);
#75=FACE_BOUND('',#90,.T.);
#76=FACE_BOUND('',#91,.T.);
#77=FACE_BOUND('',#92,.T.);
#78=FACE_BOUND('',#93,.T.);
#79=FACE_BOUND('',#94,.T.);
#80=FACE_BOUND('',#98,.T.);
#81=FACE_BOUND('',#99,.T.);
#82=FACE_BOUND('',#100,.T.);
#83=FACE_BOUND('',#101,.T.);
#84=FACE_BOUND('',#102,.T.);
#85=FACE_BOUND('',#103,.T.);
#86=FACE_BOUND('',#105,.T.);
#87=FACE_BOUND('',#106,.T.);
#88=EDGE_LOOP('',(#128,#129));
#89=EDGE_LOOP('',(#130,#131,#132,#133));
#90=EDGE_LOOP('',(#134,#135));
#91=EDGE_LOOP('',(#136));
#92=EDGE_LOOP('',(#137));
#93=EDGE_LOOP('',(#138));
#94=EDGE_LOOP('',(#139));
#95=EDGE_LOOP('',(#140,#141,#142,#143));
#96=EDGE_LOOP('',(#144,#145,#146,#147));
#97=EDGE_LOOP('',(#148,#149,#150,#151));
#98=EDGE_LOOP('',(#152));
#99=EDGE_LOOP('',(#153,#154,#155,#156));
#100=EDGE_LOOP('',(#157));
#101=EDGE_LOOP('',(#158,#159,#160,#161));
#102=EDGE_LOOP('',(#162,#163));
#103=EDGE_LOOP('',(#164));
#104=EDGE_LOOP('',(#165,#166));
#105=EDGE_LOOP('',(#167,#168));
#106=EDGE_LOOP('',(#169));
#107=EDGE_LOOP('',(#170,#171));
#108=LINE('',#312,#118);
#109=LINE('',#313,#119);
#110=LINE('',#318,#120);
#111=LINE('',#341,#121);
#112=LINE('',#356,#122);
#113=LINE('',#360,#123);
#114=LINE('',#362,#124);
#115=LINE('',#363,#125);
#116=LINE('',#365,#126);
#117=LINE('',#366,#127);
#118=VECTOR('',#237,1.);
#119=VECTOR('',#238,1.);
#120=VECTOR('',#241,1.);
#121=VECTOR('',#244,1.);
#122=VECTOR('',#261,1.);
#123=VECTOR('',#264,1.);
#124=VECTOR('',#267,1.);
#125=VECTOR('',#268,1.);
#126=VECTOR('',#271,1.);
#127=VECTOR('',#272,1.);
#128=ORIENTED_EDGE('',*,*,#188,.T.);
#129=ORIENTED_EDGE('',*,*,#189,.F.);
#130=ORIENTED_EDGE('',*,*,#190,.F.);
#131=ORIENTED_EDGE('',*,*,#191,.F.);
#132=ORIENTED_EDGE('',*,*,#192,.T.);
#133=ORIENTED_EDGE('',*,*,#193,.T.);
#134=ORIENTED_EDGE('',*,*,#194,.F.);
#135=ORIENTED_EDGE('',*,*,#195,.F.);
#136=ORIENTED_EDGE('',*,*,#196,.T.);
#137=ORIENTED_EDGE('',*,*,#197,.F.);
#138=ORIENTED_EDGE('',*,*,#198,.T.);
#139=ORIENTED_EDGE('',*,*,#199,.F.);
#140=ORIENTED_EDGE('',*,*,#200,.T.);
#141=ORIENTED_EDGE('',*,*,#201,.T.);
#142=ORIENTED_EDGE('',*,*,#202,.F.);
#143=ORIENTED_EDGE('',*,*,#203,.F.);
#144=ORIENTED_EDGE('',*,*,#200,.F.);
#145=ORIENTED_EDGE('',*,*,#204,.T.);
#146=ORIENTED_EDGE('',*,*,#191,.T.);
#147=ORIENTED_EDGE('',*,*,#205,.T.);
#148=ORIENTED_EDGE('',*,*,#193,.F.);
#149=ORIENTED_EDGE('',*,*,#206,.T.);
#150=ORIENTED_EDGE('',*,*,#202,.T.);
#151=ORIENTED_EDGE('',*,*,#207,.T.);
#152=ORIENTED_EDGE('',*,*,#196,.F.);
#153=ORIENTED_EDGE('',*,*,#190,.T.);
#154=ORIENTED_EDGE('',*,*,#207,.F.);
#155=ORIENTED_EDGE('',*,*,#201,.F.);
#156=ORIENTED_EDGE('',*,*,#205,.F.);
#157=ORIENTED_EDGE('',*,*,#198,.F.);
#158=ORIENTED_EDGE('',*,*,#203,.T.);
#159=ORIENTED_EDGE('',*,*,#206,.F.);
#160=ORIENTED_EDGE('',*,*,#192,.F.);
#161=ORIENTED_EDGE('',*,*,#204,.F.);
#162=ORIENTED_EDGE('',*,*,#189,.T.);
#163=ORIENTED_EDGE('',*,*,#208,.T.);
#164=ORIENTED_EDGE('',*,*,#199,.T.);
#165=ORIENTED_EDGE('',*,*,#208,.F.);
#166=ORIENTED_EDGE('',*,*,#188,.F.);
#167=ORIENTED_EDGE('',*,*,#195,.T.);
#168=ORIENTED_EDGE('',*,*,#209,.F.);
#169=ORIENTED_EDGE('',*,*,#197,.T.);
#170=ORIENTED_EDGE('',*,*,#194,.T.);
#171=ORIENTED_EDGE('',*,*,#209,.T.);
#172=VERTEX_POINT('',#310);
#173=VERTEX_POINT('',#311);
#174=VERTEX_POINT('',#314);
#175=VERTEX_POINT('',#315);
#176=VERTEX_POINT('',#317);
#177=VERTEX_POINT('',#319);
#178=VERTEX_POINT('',#339);
#179=VERTEX_POINT('',#340);
#180=VERTEX_POINT('',#344);
#181=VERTEX_POINT('',#346);
#182=VERTEX_POINT('',#349);
#183=VERTEX_POINT('',#351);
#184=VERTEX_POINT('',#354);
#185=VERTEX_POINT('',#355);
#186=VERTEX_POINT('',#357);
#187=VERTEX_POINT('',#359);
#188=EDGE_CURVE('',#172,#173,#210,.T.);
#189=EDGE_CURVE('',#172,#173,#108,.T.);
#190=EDGE_CURVE('',#174,#175,#109,.T.);
#191=EDGE_CURVE('',#176,#174,#63,.T.);
#192=EDGE_CURVE('',#176,#177,#110,.T.);
#193=EDGE_CURVE('',#177,#175,#64,.T.);
#194=EDGE_CURVE('',#178,#179,#211,.T.);
#195=EDGE_CURVE('',#179,#178,#111,.T.);
#196=EDGE_CURVE('',#180,#180,#65,.T.);
#197=EDGE_CURVE('',#181,#181,#66,.T.);
#198=EDGE_CURVE('',#182,#182,#67,.T.);
#199=EDGE_CURVE('',#183,#183,#68,.T.);
#200=EDGE_CURVE('',#184,#185,#69,.T.);
#201=EDGE_CURVE('',#185,#186,#112,.T.);
#202=EDGE_CURVE('',#187,#186,#70,.T.);
#203=EDGE_CURVE('',#184,#187,#113,.T.);
#204=EDGE_CURVE('',#184,#176,#114,.T.);
#205=EDGE_CURVE('',#174,#185,#115,.T.);
#206=EDGE_CURVE('',#177,#187,#116,.T.);
#207=EDGE_CURVE('',#186,#175,#117,.T.);
#208=EDGE_CURVE('',#173,#172,#71,.T.);
#209=EDGE_CURVE('',#179,#178,#72,.T.);
#210=B_SPLINE_CURVE_WITH_KNOTS('',3,(#292,#293,#294,#295,#296,#297,#298,
#299,#300,#301,#302,#303,#304,#305,#306,#307,#308,#309),.UNSPECIFIED.,.F.,
 .F.,(4,2,2,2,2,2,2,2,4),(0.,0.125,0.25,0.375,0.5,0.625,0.75,0.875,1.),
 .UNSPECIFIED.);
#211=B_SPLINE_CURVE_WITH_KNOTS('',3,(#321,#322,#323,#324,#325,#326,#327,
#328,#329,#330,#331,#332,#333,#334,#335,#336,#337,#338),.UNSPECIFIED.,.F.,
 .F.,(4,2,2,2,2,2,2,2,4),(0.,0.125,0.25,0.375,0.5,0.625,0.75,0.875,1.),
 .UNSPECIFIED.);
#212=AXIS2_PLACEMENT_3D('',#291,#235,#236);
#213=AXIS2_PLACEMENT_3D('',#316,#239,#240);
#214=AXIS2_PLACEMENT_3D('',#320,#242,#243);
#215=AXIS2_PLACEMENT_3D('',#342,#245,#246);
#216=AXIS2_PLACEMENT_3D('',#343,#247,#248);
#217=AXIS2_PLACEMENT_3D('',#345,#249,#250);
#218=AXIS2_PLACEMENT_3D('',#347,#251,#252);
#219=AXIS2_PLACEMENT_3D('',#348,#253,#254);
#220=AXIS2_PLACEMENT_3D('',#350,#255,#256);
#221=AXIS2_PLACEMENT_3D('',#352,#257,#258);
#222=AXIS2_PLACEMENT_3D('',#353,#259,#260);
#223=AXIS2_PLACEMENT_3D('',#358,#262,#263);
#224=AXIS2_PLACEMENT_3D('',#361,#265,#266);
#225=AXIS2_PLACEMENT_3D('',#364,#269,#270);
#226=AXIS2_PLACEMENT_3D('',#367,#273,#274);
#227=AXIS2_PLACEMENT_3D('',#368,#275,#276);
#228=AXIS2_PLACEMENT_3D('',#369,#277,#278);
#229=AXIS2_PLACEMENT_3D('',#370,#279,#280);
#230=AXIS2_PLACEMENT_3D('',#371,#281,#282);
#231=AXIS2_PLACEMENT_3D('',#372,#283,#284);
#232=AXIS2_PLACEMENT_3D('',#373,#285,#286);
#233=AXIS2_PLACEMENT_3D('',#374,#287,#288);
#234=AXIS2_PLACEMENT_3D('',#375,#289,#290);
#235=DIRECTION('',(0.,0.,1.));
#236=DIRECTION('',(1.,0.,0.));
#237=DIRECTION('',(0.,0.,1.));
#238=DIRECTION('',(0.,0.,1.));
#239=DIRECTION('',(0.,0.,-1.));
#240=DIRECTION('',(-1.,0.,0.));
#241=DIRECTION('',(0.,0.,1.));
#242=DIRECTION('',(0.,0.,-1.));
#243=DIRECTION('',(-1.,0.,0.));
#244=DIRECTION('',(0.,0.,-1.));
#245=DIRECTION('',(0.,0.,-1.));
#246=DIRECTION('',(-1.,0.,0.));
#247=DIRECTION('',(-5.91509530241864E-16,-1.,0.));
#248=DIRECTION('',(-1.,5.78241158658936E-16,0.));
#249=DIRECTION('',(-5.91509530241864E-16,-1.,0.));
#250=DIRECTION('',(-1.,5.78241158658936E-16,0.));
#251=DIRECTION('',(0.,1.,0.));
#252=DIRECTION('',(0.,0.,1.));
#253=DIRECTION('',(-5.91509530241864E-16,1.,0.));
#254=DIRECTION('',(1.,5.78241158658936E-16,0.));
#255=DIRECTION('',(-5.91509530241864E-16,1.,0.));
#256=DIRECTION('',(1.,5.78241158658936E-16,0.));
#257=DIRECTION('',(0.,1.,0.));
#258=DIRECTION('',(0.,0.,1.));
#259=DIRECTION('',(0.,0.,-1.));
#260=DIRECTION('',(-1.,0.,0.));
#261=DIRECTION('',(0.,0.,1.));
#262=DIRECTION('',(0.,0.,-1.));
#263=DIRECTION('',(-1.,0.,0.));
#264=DIRECTION('',(0.,0.,1.));
#265=DIRECTION('',(0.,0.,-1.));
#266=DIRECTION('',(-1.,0.,0.));
#267=DIRECTION('',(1.,5.91509530241864E-16,0.));
#268=DIRECTION('',(-1.,5.91509530241864E-16,0.));
#269=DIRECTION('',(0.,0.,-1.));
#270=DIRECTION('',(-1.,0.,0.));
#271=DIRECTION('',(-1.,-5.91509530241864E-16,0.));
#272=DIRECTION('',(1.,-5.91509530241864E-16,0.));
#273=DIRECTION('',(0.,0.,1.));
#274=DIRECTION('',(1.,0.,0.));
#275=DIRECTION('',(5.91509530241864E-16,1.,0.));
#276=DIRECTION('',(-1.,5.91540705308091E-16,0.));
#277=DIRECTION('',(5.91509530241864E-16,-1.,0.));
#278=DIRECTION('',(1.,5.91540705308091E-16,0.));
#279=DIRECTION('',(5.91509530241864E-16,-1.,0.));
#280=DIRECTION('',(1.,5.78241158658936E-16,0.));
#281=DIRECTION('',(5.91509530241864E-16,-1.,0.));
#282=DIRECTION('',(1.,5.91540705308091E-16,0.));
#283=DIRECTION('',(0.,1.,0.));
#284=DIRECTION('',(0.,0.,1.));
#285=DIRECTION('',(-5.91509530241864E-16,-1.,0.));
#286=DIRECTION('',(-1.,5.78241158658936E-16,0.));
#287=DIRECTION('',(5.91509530241864E-16,1.,0.));
#288=DIRECTION('',(1.,-5.91540705308091E-16,0.));
#289=DIRECTION('',(0.,-1.,0.));
#290=DIRECTION('',(0.,0.,-1.));
#291=CARTESIAN_POINT('',(0.,0.,0.));
#292=CARTESIAN_POINT('',(22.4499443206439,-11.,-743.390877647826));
#293=CARTESIAN_POINT('',(21.8401877683407,-12.2444546043957,-744.280989676782));
#294=CARTESIAN_POINT('',(21.0825983457261,-13.5284034420357,-744.924470544468));
#295=CARTESIAN_POINT('',(19.2127770620635,-16.0736694709436,-745.843955491428));
#296=CARTESIAN_POINT('',(18.1223803021126,-17.298557502602,-746.088341468589));
#297=CARTESIAN_POINT('',(15.7209323652607,-19.5067435788787,-745.855781538754));
#298=CARTESIAN_POINT('',(14.387692295879,-20.4839836722857,-745.342452354924));
#299=CARTESIAN_POINT('',(12.2471730447666,-21.8313084605321,-743.261298113962));
#300=CARTESIAN_POINT('',(11.5076731716961,-22.1939976479309,-741.66422079475));
#301=CARTESIAN_POINT('',(11.4924565411556,-22.2018809129449,-738.39157429112));
#302=CARTESIAN_POINT('',(12.2239355064722,-21.844299025644,-736.772605211605));
#303=CARTESIAN_POINT('',(14.3650578966727,-20.4998319703695,-734.668483173729));
#304=CARTESIAN_POINT('',(15.7067062624646,-19.5178614337508,-734.148910447194));
#305=CARTESIAN_POINT('',(18.1041220210748,-17.3172833437718,-733.910156983329));
#306=CARTESIAN_POINT('',(19.2071364126883,-16.0789155138254,-734.156181028591));
#307=CARTESIAN_POINT('',(21.0611627046255,-13.559979306977,-735.062120384891));
#308=CARTESIAN_POINT('',(21.8399472435568,-12.2449454923963,-735.718659209314));
#309=CARTESIAN_POINT('',(22.4499443206439,-11.,-736.609122352174));
#310=CARTESIAN_POINT('',(22.4499443206439,-11.,-743.390877647826));
#311=CARTESIAN_POINT('',(22.4499443206439,-11.,-736.609122352174));
#312=CARTESIAN_POINT('',(22.4499443206439,-11.,0.));
#313=CARTESIAN_POINT('',(24.9799919935938,1.,-7425.));
#314=CARTESIAN_POINT('',(24.9799919935938,1.,-750.));
#315=CARTESIAN_POINT('',(24.9799919935938,1.,-730.));
#316=CARTESIAN_POINT('',(0.,0.,-750.));
#317=CARTESIAN_POINT('',(24.9799919935938,-0.999999999999996,-750.));
#318=CARTESIAN_POINT('',(24.9799919935938,-0.999999999999996,-7425.));
#319=CARTESIAN_POINT('',(24.9799919935938,-0.999999999999996,-730.));
#320=CARTESIAN_POINT('',(0.,0.,-730.));
#321=CARTESIAN_POINT('',(22.4499443206439,11.,-743.390877647826));
#322=CARTESIAN_POINT('',(21.8401877683407,12.2444546043957,-744.280989676782));
#323=CARTESIAN_POINT('',(21.0825983457261,13.5284034420357,-744.924470544468));
#324=CARTESIAN_POINT('',(19.2127770620635,16.0736694709436,-745.843955491428));
#325=CARTESIAN_POINT('',(18.1223803021126,17.298557502602,-746.088341468589));
#326=CARTESIAN_POINT('',(15.7209323652607,19.5067435788787,-745.855781538754));
#327=CARTESIAN_POINT('',(14.387692295879,20.4839836722857,-745.342452354924));
#328=CARTESIAN_POINT('',(12.2471730447667,21.8313084605321,-743.261298113963));
#329=CARTESIAN_POINT('',(11.5076731716961,22.1939976479309,-741.66422079475));
#330=CARTESIAN_POINT('',(11.4924565411556,22.2018809129449,-738.39157429112));
#331=CARTESIAN_POINT('',(12.2239355064722,21.844299025644,-736.772605211605));
#332=CARTESIAN_POINT('',(14.3650578966727,20.4998319703695,-734.668483173729));
#333=CARTESIAN_POINT('',(15.7067062624646,19.5178614337508,-734.148910447194));
#334=CARTESIAN_POINT('',(18.1041220210748,17.3172833437718,-733.91015698333));
#335=CARTESIAN_POINT('',(19.2071364126883,16.0789155138254,-734.156181028591));
#336=CARTESIAN_POINT('',(21.0611627046255,13.559979306977,-735.062120384891));
#337=CARTESIAN_POINT('',(21.8399472435568,12.2449454923963,-735.718659209314));
#338=CARTESIAN_POINT('',(22.4499443206439,11.,-736.609122352174));
#339=CARTESIAN_POINT('',(22.4499443206439,11.,-743.390877647826));
#340=CARTESIAN_POINT('',(22.4499443206439,11.,-736.609122352174));
#341=CARTESIAN_POINT('',(22.4499443206439,11.,0.));
#342=CARTESIAN_POINT('',(0.,0.,0.));
#343=CARTESIAN_POINT('',(17.5000000000002,1.,-740.));
#344=CARTESIAN_POINT('',(14.5000000000002,1.,-740.));
#345=CARTESIAN_POINT('',(17.5000000000002,11.,-740.));
#346=CARTESIAN_POINT('',(14.5000000000002,11.,-740.));
#347=CARTESIAN_POINT('',(17.5000000000002,-27.6000000000003,-740.));
#348=CARTESIAN_POINT('',(17.5000000000002,-1.,-740.));
#349=CARTESIAN_POINT('',(20.5000000000002,-0.999999999999999,-740.));
#350=CARTESIAN_POINT('',(17.5000000000002,-11.,-740.));
#351=CARTESIAN_POINT('',(20.5000000000002,-11.,-740.));
#352=CARTESIAN_POINT('',(17.5000000000002,-27.6000000000003,-740.));
#353=CARTESIAN_POINT('',(0.,0.,-750.));
#354=CARTESIAN_POINT('',(9.94987437106638,-1.00000000000001,-750.));
#355=CARTESIAN_POINT('',(9.94987437106638,1.00000000000001,-750.));
#356=CARTESIAN_POINT('',(9.94987437106638,1.00000000000001,-7425.));
#357=CARTESIAN_POINT('',(9.94987437106638,1.00000000000001,-730.));
#358=CARTESIAN_POINT('',(0.,0.,-730.));
#359=CARTESIAN_POINT('',(9.94987437106638,-1.00000000000001,-730.));
#360=CARTESIAN_POINT('',(9.94987437106638,-1.00000000000001,-7425.));
#361=CARTESIAN_POINT('',(0.,0.,0.));
#362=CARTESIAN_POINT('',(9.94987437106638,-1.00000000000001,-750.));
#363=CARTESIAN_POINT('',(24.9799919935938,0.999999999999996,-750.));
#364=CARTESIAN_POINT('',(10.0000000000002,0.,-750.));
#365=CARTESIAN_POINT('',(9.94987437106638,-1.00000000000001,-730.));
#366=CARTESIAN_POINT('',(24.9799919935938,0.999999999999996,-730.));
#367=CARTESIAN_POINT('',(25.0000000000002,0.,-730.));
#368=CARTESIAN_POINT('',(24.9799919935938,0.999999999999996,-7425.));
#369=CARTESIAN_POINT('',(9.94987437106638,-1.00000000000001,-7425.));
#370=CARTESIAN_POINT('',(17.5000000000002,-11.,-740.));
#371=CARTESIAN_POINT('',(9.94987437106639,-11.,-7425.));
#372=CARTESIAN_POINT('',(17.5000000000002,-27.6000000000003,-740.));
#373=CARTESIAN_POINT('',(17.5000000000002,11.,-740.));
#374=CARTESIAN_POINT('',(9.94987437106639,11.,-7425.));
#375=CARTESIAN_POINT('',(17.5000000000002,27.6000000000003,-740.));
#376=MECHANICAL_DESIGN_GEOMETRIC_PRESENTATION_REPRESENTATION('',(#24),#377);
#377=(
GEOMETRIC_REPRESENTATION_CONTEXT(3)
GLOBAL_UNCERTAINTY_ASSIGNED_CONTEXT((#378))
GLOBAL_UNIT_ASSIGNED_CONTEXT((#384,#380,#379))
REPRESENTATION_CONTEXT('S_SF_M_09_stirrer_holder_clamp',
'TOP_LEVEL_ASSEMBLY_PART')
);
#378=UNCERTAINTY_MEASURE_WITH_UNIT(LENGTH_MEASURE(0.0508),#384,
'DISTANCE_ACCURACY_VALUE','Maximum Tolerance applied to model');
#379=(
NAMED_UNIT(*)
SI_UNIT($,.STERADIAN.)
SOLID_ANGLE_UNIT()
);
#380=(
CONVERSION_BASED_UNIT('DEGREE',#382)
NAMED_UNIT(#381)
PLANE_ANGLE_UNIT()
);
#381=DIMENSIONAL_EXPONENTS(0.,0.,0.,0.,0.,0.,0.);
#382=PLANE_ANGLE_MEASURE_WITH_UNIT(PLANE_ANGLE_MEASURE(0.0174532925),#383);
#383=(
NAMED_UNIT(*)
PLANE_ANGLE_UNIT()
SI_UNIT($,.RADIAN.)
);
#384=(
LENGTH_UNIT()
NAMED_UNIT(*)
SI_UNIT(.MILLI.,.METRE.)
);
ENDSEC;
END-ISO-10303-21;
