ISO-10303-21;
HEADER;
/* Generated by software containing ST-Developer
 * from STEP Tools, Inc. (www.steptools.com) 
 */
/* OPTION: using custom schema-name function */

FILE_DESCRIPTION(
/* description */ (''),
/* implementation_level */ '2;1');

FILE_NAME(
/* name */ 'S_SF_M_08_stirrer_mount.stp',
/* time_stamp */ '2025-12-15T17:01:11+01:00',
/* author */ (''),
/* organization */ (''),
/* preprocessor_version */ 'ST-DEVELOPER v18.1',
/* originating_system */ 'SIEMENS PLM Software NX 1988',
/* authorisation */ '');

FILE_SCHEMA (('AUTOMOTIVE_DESIGN { 1 0 10303 214 3 1 1 1 }'));
ENDSEC;

DATA;
#10=SHAPE_REPRESENTATION_RELATIONSHIP('None',
'relationship between S_SF_M_08_stirrer_mount-None and S_SF_M_08_stirr
er_mount-None',#22,#11);
#11=ADVANCED_BREP_SHAPE_REPRESENTATION('S_SF_M_08_stirrer_mount-None',(#39,
#40),#1328);
#12=SHAPE_DEFINITION_REPRESENTATION(#13,#22);
#13=PRODUCT_DEFINITION_SHAPE('','',#14);
#14=PRODUCT_DEFINITION(' ','',#16,#15);
#15=PRODUCT_DEFINITION_CONTEXT('part definition',#21,'design');
#16=PRODUCT_DEFINITION_FORMATION_WITH_SPECIFIED_SOURCE(' ',' ',#18,
 .NOT_KNOWN.);
#17=PRODUCT_RELATED_PRODUCT_CATEGORY('part','',(#18));
#18=PRODUCT('S_SF_M_08_stirrer_mount','S_SF_M_08_stirrer_mount',' ',(#19));
#19=PRODUCT_CONTEXT(' ',#21,'mechanical');
#20=APPLICATION_PROTOCOL_DEFINITION('international standard',
'automotive_design',2010,#21);
#21=APPLICATION_CONTEXT(
'core data for automotive mechanical design processes');
#22=SHAPE_REPRESENTATION('S_SF_M_08_stirrer_mount-None',(#809),#1328);
#23=PRESENTATION_LAYER_ASSIGNMENT('1','Layer 1',(#39,#40));
#24=STYLED_ITEM('',(#26),#39);
#25=STYLED_ITEM('',(#27),#40);
#26=PRESENTATION_STYLE_ASSIGNMENT((#28));
#27=PRESENTATION_STYLE_ASSIGNMENT((#29));
#28=SURFACE_STYLE_USAGE(.BOTH.,#30);
#29=SURFACE_STYLE_USAGE(.BOTH.,#31);
#30=SURFACE_SIDE_STYLE('',(#32));
#31=SURFACE_SIDE_STYLE('',(#33));
#32=SURFACE_STYLE_FILL_AREA(#34);
#33=SURFACE_STYLE_FILL_AREA(#35);
#34=FILL_AREA_STYLE('',(#36));
#35=FILL_AREA_STYLE('',(#37));
#36=FILL_AREA_STYLE_COLOUR('',#38);
#37=FILL_AREA_STYLE_COLOUR('',#38);
#38=COLOUR_RGB('medium steel',0.596078431372549,0.666666666666667,0.686274509803922);
#39=MANIFOLD_SOLID_BREP('',#41);
#40=MANIFOLD_SOLID_BREP('',#42);
#41=CLOSED_SHELL('',(#141,#142,#143,#144,#145,#146,#147,#148,#149,#150,
#151,#152,#153,#154,#155,#156,#157,#158,#159,#160,#161,#162,#163,#164,#165,
#166,#167,#168,#169,#170,#171));
#42=CLOSED_SHELL('',(#172,#173,#174,#175,#176,#177,#178,#179,#180,#181));
#43=CYLINDRICAL_SURFACE('',#817,2.);
#44=CYLINDRICAL_SURFACE('',#821,7.00000000000002);
#45=CYLINDRICAL_SURFACE('',#825,7.00000000000002);
#46=CYLINDRICAL_SURFACE('',#829,2.);
#47=CYLINDRICAL_SURFACE('',#839,7.00000000000005);
#48=CYLINDRICAL_SURFACE('',#843,2.);
#49=CYLINDRICAL_SURFACE('',#847,2.);
#50=CYLINDRICAL_SURFACE('',#851,7.00000000000006);
#51=CYLINDRICAL_SURFACE('',#861,5.);
#52=CYLINDRICAL_SURFACE('',#862,5.);
#53=CYLINDRICAL_SURFACE('',#863,5.);
#54=CYLINDRICAL_SURFACE('',#864,5.);
#55=CYLINDRICAL_SURFACE('',#865,12.);
#56=CYLINDRICAL_SURFACE('',#868,10.);
#57=CYLINDRICAL_SURFACE('',#883,5.);
#58=CYLINDRICAL_SURFACE('',#884,5.);
#59=CYLINDRICAL_SURFACE('',#885,5.);
#60=CYLINDRICAL_SURFACE('',#886,5.);
#61=FACE_BOUND('',#231,.T.);
#62=FACE_BOUND('',#232,.T.);
#63=FACE_BOUND('',#233,.T.);
#64=FACE_BOUND('',#241,.T.);
#65=FACE_BOUND('',#242,.T.);
#66=FACE_BOUND('',#243,.T.);
#67=FACE_BOUND('',#245,.T.);
#68=FACE_BOUND('',#246,.T.);
#69=FACE_BOUND('',#247,.T.);
#70=FACE_BOUND('',#255,.T.);
#71=FACE_BOUND('',#256,.T.);
#72=FACE_BOUND('',#257,.T.);
#73=FACE_BOUND('',#258,.T.);
#74=FACE_BOUND('',#259,.T.);
#75=FACE_BOUND('',#260,.T.);
#76=FACE_BOUND('',#261,.T.);
#77=FACE_BOUND('',#262,.T.);
#78=FACE_BOUND('',#263,.T.);
#79=FACE_BOUND('',#264,.T.);
#80=FACE_BOUND('',#265,.T.);
#81=FACE_BOUND('',#266,.T.);
#82=FACE_BOUND('',#267,.T.);
#83=FACE_BOUND('',#268,.T.);
#84=FACE_BOUND('',#269,.T.);
#85=FACE_BOUND('',#273,.T.);
#86=FACE_BOUND('',#274,.T.);
#87=FACE_BOUND('',#276,.T.);
#88=FACE_BOUND('',#277,.T.);
#89=FACE_BOUND('',#278,.T.);
#90=FACE_BOUND('',#279,.T.);
#91=FACE_BOUND('',#280,.T.);
#92=FACE_BOUND('',#284,.T.);
#93=FACE_BOUND('',#285,.T.);
#94=FACE_BOUND('',#286,.T.);
#95=FACE_BOUND('',#287,.T.);
#96=FACE_BOUND('',#288,.T.);
#97=FACE_BOUND('',#289,.T.);
#98=FACE_BOUND('',#290,.T.);
#99=FACE_BOUND('',#291,.T.);
#100=FACE_BOUND('',#292,.T.);
#101=FACE_BOUND('',#293,.T.);
#102=FACE_BOUND('',#294,.T.);
#103=FACE_BOUND('',#295,.T.);
#104=FACE_BOUND('',#296,.T.);
#105=CIRCLE('',#812,5.);
#106=CIRCLE('',#813,5.);
#107=CIRCLE('',#815,2.);
#108=CIRCLE('',#816,2.);
#109=CIRCLE('',#819,7.00000000000002);
#110=CIRCLE('',#820,7.00000000000002);
#111=CIRCLE('',#823,7.00000000000002);
#112=CIRCLE('',#824,7.00000000000002);
#113=CIRCLE('',#827,2.);
#114=CIRCLE('',#828,2.);
#115=CIRCLE('',#830,5.);
#116=CIRCLE('',#831,5.);
#117=CIRCLE('',#834,5.);
#118=CIRCLE('',#835,5.);
#119=CIRCLE('',#837,7.00000000000005);
#120=CIRCLE('',#838,7.00000000000005);
#121=CIRCLE('',#841,2.);
#122=CIRCLE('',#842,2.);
#123=CIRCLE('',#845,2.);
#124=CIRCLE('',#846,2.);
#125=CIRCLE('',#849,7.00000000000006);
#126=CIRCLE('',#850,7.00000000000006);
#127=CIRCLE('',#852,5.);
#128=CIRCLE('',#853,5.);
#129=CIRCLE('',#855,12.);
#130=CIRCLE('',#856,10.);
#131=CIRCLE('',#858,12.);
#132=CIRCLE('',#859,10.);
#133=CIRCLE('',#870,5.);
#134=CIRCLE('',#871,5.);
#135=CIRCLE('',#872,5.);
#136=CIRCLE('',#873,5.);
#137=CIRCLE('',#878,5.);
#138=CIRCLE('',#879,5.);
#139=CIRCLE('',#880,5.);
#140=CIRCLE('',#881,5.);
#141=ADVANCED_FACE('',(#205),#182,.F.);
#142=ADVANCED_FACE('',(#206),#183,.F.);
#143=ADVANCED_FACE('',(#61,#62,#63),#184,.F.);
#144=ADVANCED_FACE('',(#207),#43,.F.);
#145=ADVANCED_FACE('',(#208),#185,.F.);
#146=ADVANCED_FACE('',(#209),#44,.T.);
#147=ADVANCED_FACE('',(#210),#186,.F.);
#148=ADVANCED_FACE('',(#211),#45,.T.);
#149=ADVANCED_FACE('',(#212),#187,.F.);
#150=ADVANCED_FACE('',(#213),#46,.F.);
#151=ADVANCED_FACE('',(#64,#65,#66),#188,.F.);
#152=ADVANCED_FACE('',(#214),#189,.F.);
#153=ADVANCED_FACE('',(#67,#68,#69),#190,.F.);
#154=ADVANCED_FACE('',(#215),#47,.T.);
#155=ADVANCED_FACE('',(#216),#191,.F.);
#156=ADVANCED_FACE('',(#217),#48,.F.);
#157=ADVANCED_FACE('',(#218),#192,.F.);
#158=ADVANCED_FACE('',(#219),#49,.F.);
#159=ADVANCED_FACE('',(#220),#193,.F.);
#160=ADVANCED_FACE('',(#221),#50,.T.);
#161=ADVANCED_FACE('',(#70,#71,#72),#194,.F.);
#162=ADVANCED_FACE('',(#73,#74),#195,.F.);
#163=ADVANCED_FACE('',(#75,#76),#196,.T.);
#164=ADVANCED_FACE('',(#77,#78),#51,.F.);
#165=ADVANCED_FACE('',(#79,#80),#52,.F.);
#166=ADVANCED_FACE('',(#81,#82),#53,.F.);
#167=ADVANCED_FACE('',(#83,#84),#54,.F.);
#168=ADVANCED_FACE('',(#222),#55,.T.);
#169=ADVANCED_FACE('',(#223),#197,.F.);
#170=ADVANCED_FACE('',(#224),#198,.F.);
#171=ADVANCED_FACE('',(#85,#86),#56,.F.);
#172=ADVANCED_FACE('',(#225),#199,.T.);
#173=ADVANCED_FACE('',(#87,#88,#89,#90,#91),#200,.T.);
#174=ADVANCED_FACE('',(#226),#201,.F.);
#175=ADVANCED_FACE('',(#227),#202,.T.);
#176=ADVANCED_FACE('',(#228),#203,.T.);
#177=ADVANCED_FACE('',(#92,#93,#94,#95,#96),#204,.T.);
#178=ADVANCED_FACE('',(#97,#98),#57,.F.);
#179=ADVANCED_FACE('',(#99,#100),#58,.F.);
#180=ADVANCED_FACE('',(#101,#102),#59,.F.);
#181=ADVANCED_FACE('',(#103,#104),#60,.F.);
#182=PLANE('',#810);
#183=PLANE('',#811);
#184=PLANE('',#814);
#185=PLANE('',#818);
#186=PLANE('',#822);
#187=PLANE('',#826);
#188=PLANE('',#832);
#189=PLANE('',#833);
#190=PLANE('',#836);
#191=PLANE('',#840);
#192=PLANE('',#844);
#193=PLANE('',#848);
#194=PLANE('',#854);
#195=PLANE('',#857);
#196=PLANE('',#860);
#197=PLANE('',#866);
#198=PLANE('',#867);
#199=PLANE('',#869);
#200=PLANE('',#874);
#201=PLANE('',#875);
#202=PLANE('',#876);
#203=PLANE('',#877);
#204=PLANE('',#882);
#205=FACE_OUTER_BOUND('',#229,.T.);
#206=FACE_OUTER_BOUND('',#230,.T.);
#207=FACE_OUTER_BOUND('',#234,.T.);
#208=FACE_OUTER_BOUND('',#235,.T.);
#209=FACE_OUTER_BOUND('',#236,.T.);
#210=FACE_OUTER_BOUND('',#237,.T.);
#211=FACE_OUTER_BOUND('',#238,.T.);
#212=FACE_OUTER_BOUND('',#239,.T.);
#213=FACE_OUTER_BOUND('',#240,.T.);
#214=FACE_OUTER_BOUND('',#244,.T.);
#215=FACE_OUTER_BOUND('',#248,.T.);
#216=FACE_OUTER_BOUND('',#249,.T.);
#217=FACE_OUTER_BOUND('',#250,.T.);
#218=FACE_OUTER_BOUND('',#251,.T.);
#219=FACE_OUTER_BOUND('',#252,.T.);
#220=FACE_OUTER_BOUND('',#253,.T.);
#221=FACE_OUTER_BOUND('',#254,.T.);
#222=FACE_OUTER_BOUND('',#270,.T.);
#223=FACE_OUTER_BOUND('',#271,.T.);
#224=FACE_OUTER_BOUND('',#272,.T.);
#225=FACE_OUTER_BOUND('',#275,.T.);
#226=FACE_OUTER_BOUND('',#281,.T.);
#227=FACE_OUTER_BOUND('',#282,.T.);
#228=FACE_OUTER_BOUND('',#283,.T.);
#229=EDGE_LOOP('',(#297,#298,#299,#300));
#230=EDGE_LOOP('',(#301,#302,#303,#304));
#231=EDGE_LOOP('',(#305));
#232=EDGE_LOOP('',(#306));
#233=EDGE_LOOP('',(#307,#308,#309,#310));
#234=EDGE_LOOP('',(#311,#312,#313,#314));
#235=EDGE_LOOP('',(#315,#316,#317,#318));
#236=EDGE_LOOP('',(#319,#320,#321,#322));
#237=EDGE_LOOP('',(#323,#324,#325,#326));
#238=EDGE_LOOP('',(#327,#328,#329,#330));
#239=EDGE_LOOP('',(#331,#332,#333,#334));
#240=EDGE_LOOP('',(#335,#336,#337,#338));
#241=EDGE_LOOP('',(#339));
#242=EDGE_LOOP('',(#340));
#243=EDGE_LOOP('',(#341,#342,#343,#344));
#244=EDGE_LOOP('',(#345,#346,#347,#348));
#245=EDGE_LOOP('',(#349));
#246=EDGE_LOOP('',(#350));
#247=EDGE_LOOP('',(#351,#352,#353,#354));
#248=EDGE_LOOP('',(#355,#356,#357,#358));
#249=EDGE_LOOP('',(#359,#360,#361,#362));
#250=EDGE_LOOP('',(#363,#364,#365,#366));
#251=EDGE_LOOP('',(#367,#368,#369,#370));
#252=EDGE_LOOP('',(#371,#372,#373,#374));
#253=EDGE_LOOP('',(#375,#376,#377,#378));
#254=EDGE_LOOP('',(#379,#380,#381,#382));
#255=EDGE_LOOP('',(#383));
#256=EDGE_LOOP('',(#384));
#257=EDGE_LOOP('',(#385,#386,#387,#388));
#258=EDGE_LOOP('',(#389,#390,#391,#392,#393,#394,#395,#396,#397,#398,#399,
#400,#401,#402,#403,#404,#405,#406,#407,#408,#409,#410,#411,#412));
#259=EDGE_LOOP('',(#413));
#260=EDGE_LOOP('',(#414,#415,#416,#417,#418,#419,#420,#421,#422,#423,#424,
#425,#426,#427,#428,#429,#430,#431,#432,#433,#434,#435,#436,#437));
#261=EDGE_LOOP('',(#438));
#262=EDGE_LOOP('',(#439));
#263=EDGE_LOOP('',(#440));
#264=EDGE_LOOP('',(#441));
#265=EDGE_LOOP('',(#442));
#266=EDGE_LOOP('',(#443));
#267=EDGE_LOOP('',(#444));
#268=EDGE_LOOP('',(#445));
#269=EDGE_LOOP('',(#446));
#270=EDGE_LOOP('',(#447,#448,#449,#450));
#271=EDGE_LOOP('',(#451,#452,#453,#454));
#272=EDGE_LOOP('',(#455,#456,#457,#458));
#273=EDGE_LOOP('',(#459));
#274=EDGE_LOOP('',(#460));
#275=EDGE_LOOP('',(#461,#462,#463,#464));
#276=EDGE_LOOP('',(#465));
#277=EDGE_LOOP('',(#466));
#278=EDGE_LOOP('',(#467));
#279=EDGE_LOOP('',(#468));
#280=EDGE_LOOP('',(#469,#470,#471,#472));
#281=EDGE_LOOP('',(#473,#474,#475,#476));
#282=EDGE_LOOP('',(#477,#478,#479,#480));
#283=EDGE_LOOP('',(#481,#482,#483,#484));
#284=EDGE_LOOP('',(#485));
#285=EDGE_LOOP('',(#486));
#286=EDGE_LOOP('',(#487));
#287=EDGE_LOOP('',(#488));
#288=EDGE_LOOP('',(#489,#490,#491,#492));
#289=EDGE_LOOP('',(#493));
#290=EDGE_LOOP('',(#494));
#291=EDGE_LOOP('',(#495));
#292=EDGE_LOOP('',(#496));
#293=EDGE_LOOP('',(#497));
#294=EDGE_LOOP('',(#498));
#295=EDGE_LOOP('',(#499));
#296=EDGE_LOOP('',(#500));
#297=ORIENTED_EDGE('',*,*,#575,.F.);
#298=ORIENTED_EDGE('',*,*,#576,.F.);
#299=ORIENTED_EDGE('',*,*,#577,.T.);
#300=ORIENTED_EDGE('',*,*,#578,.T.);
#301=ORIENTED_EDGE('',*,*,#579,.T.);
#302=ORIENTED_EDGE('',*,*,#580,.F.);
#303=ORIENTED_EDGE('',*,*,#581,.F.);
#304=ORIENTED_EDGE('',*,*,#582,.T.);
#305=ORIENTED_EDGE('',*,*,#583,.F.);
#306=ORIENTED_EDGE('',*,*,#584,.F.);
#307=ORIENTED_EDGE('',*,*,#585,.T.);
#308=ORIENTED_EDGE('',*,*,#586,.F.);
#309=ORIENTED_EDGE('',*,*,#587,.F.);
#310=ORIENTED_EDGE('',*,*,#580,.T.);
#311=ORIENTED_EDGE('',*,*,#588,.T.);
#312=ORIENTED_EDGE('',*,*,#589,.F.);
#313=ORIENTED_EDGE('',*,*,#590,.F.);
#314=ORIENTED_EDGE('',*,*,#586,.T.);
#315=ORIENTED_EDGE('',*,*,#591,.T.);
#316=ORIENTED_EDGE('',*,*,#592,.F.);
#317=ORIENTED_EDGE('',*,*,#593,.F.);
#318=ORIENTED_EDGE('',*,*,#589,.T.);
#319=ORIENTED_EDGE('',*,*,#594,.T.);
#320=ORIENTED_EDGE('',*,*,#577,.F.);
#321=ORIENTED_EDGE('',*,*,#595,.F.);
#322=ORIENTED_EDGE('',*,*,#592,.T.);
#323=ORIENTED_EDGE('',*,*,#596,.F.);
#324=ORIENTED_EDGE('',*,*,#597,.T.);
#325=ORIENTED_EDGE('',*,*,#598,.T.);
#326=ORIENTED_EDGE('',*,*,#599,.F.);
#327=ORIENTED_EDGE('',*,*,#600,.T.);
#328=ORIENTED_EDGE('',*,*,#601,.F.);
#329=ORIENTED_EDGE('',*,*,#602,.F.);
#330=ORIENTED_EDGE('',*,*,#599,.T.);
#331=ORIENTED_EDGE('',*,*,#603,.T.);
#332=ORIENTED_EDGE('',*,*,#604,.F.);
#333=ORIENTED_EDGE('',*,*,#605,.F.);
#334=ORIENTED_EDGE('',*,*,#601,.T.);
#335=ORIENTED_EDGE('',*,*,#606,.T.);
#336=ORIENTED_EDGE('',*,*,#607,.F.);
#337=ORIENTED_EDGE('',*,*,#608,.F.);
#338=ORIENTED_EDGE('',*,*,#604,.T.);
#339=ORIENTED_EDGE('',*,*,#609,.F.);
#340=ORIENTED_EDGE('',*,*,#610,.F.);
#341=ORIENTED_EDGE('',*,*,#611,.T.);
#342=ORIENTED_EDGE('',*,*,#612,.F.);
#343=ORIENTED_EDGE('',*,*,#613,.F.);
#344=ORIENTED_EDGE('',*,*,#607,.T.);
#345=ORIENTED_EDGE('',*,*,#614,.T.);
#346=ORIENTED_EDGE('',*,*,#615,.F.);
#347=ORIENTED_EDGE('',*,*,#616,.F.);
#348=ORIENTED_EDGE('',*,*,#612,.T.);
#349=ORIENTED_EDGE('',*,*,#617,.F.);
#350=ORIENTED_EDGE('',*,*,#618,.F.);
#351=ORIENTED_EDGE('',*,*,#619,.T.);
#352=ORIENTED_EDGE('',*,*,#620,.F.);
#353=ORIENTED_EDGE('',*,*,#621,.F.);
#354=ORIENTED_EDGE('',*,*,#615,.T.);
#355=ORIENTED_EDGE('',*,*,#622,.T.);
#356=ORIENTED_EDGE('',*,*,#623,.F.);
#357=ORIENTED_EDGE('',*,*,#624,.F.);
#358=ORIENTED_EDGE('',*,*,#620,.T.);
#359=ORIENTED_EDGE('',*,*,#625,.T.);
#360=ORIENTED_EDGE('',*,*,#626,.F.);
#361=ORIENTED_EDGE('',*,*,#627,.F.);
#362=ORIENTED_EDGE('',*,*,#623,.T.);
#363=ORIENTED_EDGE('',*,*,#628,.T.);
#364=ORIENTED_EDGE('',*,*,#629,.F.);
#365=ORIENTED_EDGE('',*,*,#630,.F.);
#366=ORIENTED_EDGE('',*,*,#626,.T.);
#367=ORIENTED_EDGE('',*,*,#631,.T.);
#368=ORIENTED_EDGE('',*,*,#632,.F.);
#369=ORIENTED_EDGE('',*,*,#633,.F.);
#370=ORIENTED_EDGE('',*,*,#629,.T.);
#371=ORIENTED_EDGE('',*,*,#634,.T.);
#372=ORIENTED_EDGE('',*,*,#635,.F.);
#373=ORIENTED_EDGE('',*,*,#636,.F.);
#374=ORIENTED_EDGE('',*,*,#632,.T.);
#375=ORIENTED_EDGE('',*,*,#637,.T.);
#376=ORIENTED_EDGE('',*,*,#638,.F.);
#377=ORIENTED_EDGE('',*,*,#639,.F.);
#378=ORIENTED_EDGE('',*,*,#635,.T.);
#379=ORIENTED_EDGE('',*,*,#640,.T.);
#380=ORIENTED_EDGE('',*,*,#641,.F.);
#381=ORIENTED_EDGE('',*,*,#642,.F.);
#382=ORIENTED_EDGE('',*,*,#638,.T.);
#383=ORIENTED_EDGE('',*,*,#643,.F.);
#384=ORIENTED_EDGE('',*,*,#644,.F.);
#385=ORIENTED_EDGE('',*,*,#645,.T.);
#386=ORIENTED_EDGE('',*,*,#582,.F.);
#387=ORIENTED_EDGE('',*,*,#646,.F.);
#388=ORIENTED_EDGE('',*,*,#641,.T.);
#389=ORIENTED_EDGE('',*,*,#581,.T.);
#390=ORIENTED_EDGE('',*,*,#587,.T.);
#391=ORIENTED_EDGE('',*,*,#590,.T.);
#392=ORIENTED_EDGE('',*,*,#593,.T.);
#393=ORIENTED_EDGE('',*,*,#595,.T.);
#394=ORIENTED_EDGE('',*,*,#576,.T.);
#395=ORIENTED_EDGE('',*,*,#647,.F.);
#396=ORIENTED_EDGE('',*,*,#648,.F.);
#397=ORIENTED_EDGE('',*,*,#649,.F.);
#398=ORIENTED_EDGE('',*,*,#596,.T.);
#399=ORIENTED_EDGE('',*,*,#602,.T.);
#400=ORIENTED_EDGE('',*,*,#605,.T.);
#401=ORIENTED_EDGE('',*,*,#608,.T.);
#402=ORIENTED_EDGE('',*,*,#613,.T.);
#403=ORIENTED_EDGE('',*,*,#616,.T.);
#404=ORIENTED_EDGE('',*,*,#621,.T.);
#405=ORIENTED_EDGE('',*,*,#624,.T.);
#406=ORIENTED_EDGE('',*,*,#627,.T.);
#407=ORIENTED_EDGE('',*,*,#630,.T.);
#408=ORIENTED_EDGE('',*,*,#633,.T.);
#409=ORIENTED_EDGE('',*,*,#636,.T.);
#410=ORIENTED_EDGE('',*,*,#639,.T.);
#411=ORIENTED_EDGE('',*,*,#642,.T.);
#412=ORIENTED_EDGE('',*,*,#646,.T.);
#413=ORIENTED_EDGE('',*,*,#650,.T.);
#414=ORIENTED_EDGE('',*,*,#579,.F.);
#415=ORIENTED_EDGE('',*,*,#645,.F.);
#416=ORIENTED_EDGE('',*,*,#640,.F.);
#417=ORIENTED_EDGE('',*,*,#637,.F.);
#418=ORIENTED_EDGE('',*,*,#634,.F.);
#419=ORIENTED_EDGE('',*,*,#631,.F.);
#420=ORIENTED_EDGE('',*,*,#628,.F.);
#421=ORIENTED_EDGE('',*,*,#625,.F.);
#422=ORIENTED_EDGE('',*,*,#622,.F.);
#423=ORIENTED_EDGE('',*,*,#619,.F.);
#424=ORIENTED_EDGE('',*,*,#614,.F.);
#425=ORIENTED_EDGE('',*,*,#611,.F.);
#426=ORIENTED_EDGE('',*,*,#606,.F.);
#427=ORIENTED_EDGE('',*,*,#603,.F.);
#428=ORIENTED_EDGE('',*,*,#600,.F.);
#429=ORIENTED_EDGE('',*,*,#598,.F.);
#430=ORIENTED_EDGE('',*,*,#651,.T.);
#431=ORIENTED_EDGE('',*,*,#652,.T.);
#432=ORIENTED_EDGE('',*,*,#653,.T.);
#433=ORIENTED_EDGE('',*,*,#578,.F.);
#434=ORIENTED_EDGE('',*,*,#594,.F.);
#435=ORIENTED_EDGE('',*,*,#591,.F.);
#436=ORIENTED_EDGE('',*,*,#588,.F.);
#437=ORIENTED_EDGE('',*,*,#585,.F.);
#438=ORIENTED_EDGE('',*,*,#654,.F.);
#439=ORIENTED_EDGE('',*,*,#644,.T.);
#440=ORIENTED_EDGE('',*,*,#584,.T.);
#441=ORIENTED_EDGE('',*,*,#643,.T.);
#442=ORIENTED_EDGE('',*,*,#583,.T.);
#443=ORIENTED_EDGE('',*,*,#618,.T.);
#444=ORIENTED_EDGE('',*,*,#610,.T.);
#445=ORIENTED_EDGE('',*,*,#617,.T.);
#446=ORIENTED_EDGE('',*,*,#609,.T.);
#447=ORIENTED_EDGE('',*,*,#655,.F.);
#448=ORIENTED_EDGE('',*,*,#648,.T.);
#449=ORIENTED_EDGE('',*,*,#656,.T.);
#450=ORIENTED_EDGE('',*,*,#652,.F.);
#451=ORIENTED_EDGE('',*,*,#597,.F.);
#452=ORIENTED_EDGE('',*,*,#649,.T.);
#453=ORIENTED_EDGE('',*,*,#655,.T.);
#454=ORIENTED_EDGE('',*,*,#651,.F.);
#455=ORIENTED_EDGE('',*,*,#656,.F.);
#456=ORIENTED_EDGE('',*,*,#647,.T.);
#457=ORIENTED_EDGE('',*,*,#575,.T.);
#458=ORIENTED_EDGE('',*,*,#653,.F.);
#459=ORIENTED_EDGE('',*,*,#650,.F.);
#460=ORIENTED_EDGE('',*,*,#654,.T.);
#461=ORIENTED_EDGE('',*,*,#657,.F.);
#462=ORIENTED_EDGE('',*,*,#658,.F.);
#463=ORIENTED_EDGE('',*,*,#659,.F.);
#464=ORIENTED_EDGE('',*,*,#660,.F.);
#465=ORIENTED_EDGE('',*,*,#661,.T.);
#466=ORIENTED_EDGE('',*,*,#662,.T.);
#467=ORIENTED_EDGE('',*,*,#663,.T.);
#468=ORIENTED_EDGE('',*,*,#664,.T.);
#469=ORIENTED_EDGE('',*,*,#665,.F.);
#470=ORIENTED_EDGE('',*,*,#660,.T.);
#471=ORIENTED_EDGE('',*,*,#666,.T.);
#472=ORIENTED_EDGE('',*,*,#667,.F.);
#473=ORIENTED_EDGE('',*,*,#668,.T.);
#474=ORIENTED_EDGE('',*,*,#667,.T.);
#475=ORIENTED_EDGE('',*,*,#669,.T.);
#476=ORIENTED_EDGE('',*,*,#670,.T.);
#477=ORIENTED_EDGE('',*,*,#671,.F.);
#478=ORIENTED_EDGE('',*,*,#657,.T.);
#479=ORIENTED_EDGE('',*,*,#665,.T.);
#480=ORIENTED_EDGE('',*,*,#668,.F.);
#481=ORIENTED_EDGE('',*,*,#666,.F.);
#482=ORIENTED_EDGE('',*,*,#659,.T.);
#483=ORIENTED_EDGE('',*,*,#672,.T.);
#484=ORIENTED_EDGE('',*,*,#669,.F.);
#485=ORIENTED_EDGE('',*,*,#673,.T.);
#486=ORIENTED_EDGE('',*,*,#674,.T.);
#487=ORIENTED_EDGE('',*,*,#675,.T.);
#488=ORIENTED_EDGE('',*,*,#676,.T.);
#489=ORIENTED_EDGE('',*,*,#672,.F.);
#490=ORIENTED_EDGE('',*,*,#658,.T.);
#491=ORIENTED_EDGE('',*,*,#671,.T.);
#492=ORIENTED_EDGE('',*,*,#670,.F.);
#493=ORIENTED_EDGE('',*,*,#664,.F.);
#494=ORIENTED_EDGE('',*,*,#676,.F.);
#495=ORIENTED_EDGE('',*,*,#663,.F.);
#496=ORIENTED_EDGE('',*,*,#675,.F.);
#497=ORIENTED_EDGE('',*,*,#662,.F.);
#498=ORIENTED_EDGE('',*,*,#674,.F.);
#499=ORIENTED_EDGE('',*,*,#661,.F.);
#500=ORIENTED_EDGE('',*,*,#673,.F.);
#501=VERTEX_POINT('',#1111);
#502=VERTEX_POINT('',#1112);
#503=VERTEX_POINT('',#1114);
#504=VERTEX_POINT('',#1116);
#505=VERTEX_POINT('',#1120);
#506=VERTEX_POINT('',#1121);
#507=VERTEX_POINT('',#1123);
#508=VERTEX_POINT('',#1125);
#509=VERTEX_POINT('',#1129);
#510=VERTEX_POINT('',#1131);
#511=VERTEX_POINT('',#1133);
#512=VERTEX_POINT('',#1135);
#513=VERTEX_POINT('',#1139);
#514=VERTEX_POINT('',#1141);
#515=VERTEX_POINT('',#1145);
#516=VERTEX_POINT('',#1147);
#517=VERTEX_POINT('',#1154);
#518=VERTEX_POINT('',#1155);
#519=VERTEX_POINT('',#1157);
#520=VERTEX_POINT('',#1159);
#521=VERTEX_POINT('',#1163);
#522=VERTEX_POINT('',#1165);
#523=VERTEX_POINT('',#1169);
#524=VERTEX_POINT('',#1171);
#525=VERTEX_POINT('',#1175);
#526=VERTEX_POINT('',#1177);
#527=VERTEX_POINT('',#1181);
#528=VERTEX_POINT('',#1183);
#529=VERTEX_POINT('',#1185);
#530=VERTEX_POINT('',#1187);
#531=VERTEX_POINT('',#1191);
#532=VERTEX_POINT('',#1193);
#533=VERTEX_POINT('',#1197);
#534=VERTEX_POINT('',#1199);
#535=VERTEX_POINT('',#1201);
#536=VERTEX_POINT('',#1203);
#537=VERTEX_POINT('',#1207);
#538=VERTEX_POINT('',#1209);
#539=VERTEX_POINT('',#1213);
#540=VERTEX_POINT('',#1215);
#541=VERTEX_POINT('',#1219);
#542=VERTEX_POINT('',#1221);
#543=VERTEX_POINT('',#1225);
#544=VERTEX_POINT('',#1227);
#545=VERTEX_POINT('',#1231);
#546=VERTEX_POINT('',#1233);
#547=VERTEX_POINT('',#1237);
#548=VERTEX_POINT('',#1239);
#549=VERTEX_POINT('',#1243);
#550=VERTEX_POINT('',#1245);
#551=VERTEX_POINT('',#1249);
#552=VERTEX_POINT('',#1251);
#553=VERTEX_POINT('',#1256);
#554=VERTEX_POINT('',#1258);
#555=VERTEX_POINT('',#1261);
#556=VERTEX_POINT('',#1264);
#557=VERTEX_POINT('',#1266);
#558=VERTEX_POINT('',#1269);
#559=VERTEX_POINT('',#1282);
#560=VERTEX_POINT('',#1283);
#561=VERTEX_POINT('',#1285);
#562=VERTEX_POINT('',#1287);
#563=VERTEX_POINT('',#1291);
#564=VERTEX_POINT('',#1293);
#565=VERTEX_POINT('',#1295);
#566=VERTEX_POINT('',#1297);
#567=VERTEX_POINT('',#1299);
#568=VERTEX_POINT('',#1301);
#569=VERTEX_POINT('',#1305);
#570=VERTEX_POINT('',#1307);
#571=VERTEX_POINT('',#1315);
#572=VERTEX_POINT('',#1317);
#573=VERTEX_POINT('',#1319);
#574=VERTEX_POINT('',#1321);
#575=EDGE_CURVE('',#501,#502,#677,.T.);
#576=EDGE_CURVE('',#503,#501,#678,.T.);
#577=EDGE_CURVE('',#503,#504,#679,.T.);
#578=EDGE_CURVE('',#504,#502,#680,.T.);
#579=EDGE_CURVE('',#505,#506,#681,.T.);
#580=EDGE_CURVE('',#507,#506,#682,.T.);
#581=EDGE_CURVE('',#508,#507,#683,.T.);
#582=EDGE_CURVE('',#508,#505,#684,.T.);
#583=EDGE_CURVE('',#509,#509,#105,.T.);
#584=EDGE_CURVE('',#510,#510,#106,.T.);
#585=EDGE_CURVE('',#506,#511,#685,.T.);
#586=EDGE_CURVE('',#512,#511,#686,.T.);
#587=EDGE_CURVE('',#507,#512,#687,.T.);
#588=EDGE_CURVE('',#511,#513,#107,.T.);
#589=EDGE_CURVE('',#514,#513,#688,.T.);
#590=EDGE_CURVE('',#512,#514,#108,.T.);
#591=EDGE_CURVE('',#513,#515,#689,.T.);
#592=EDGE_CURVE('',#516,#515,#690,.T.);
#593=EDGE_CURVE('',#514,#516,#691,.T.);
#594=EDGE_CURVE('',#515,#504,#109,.T.);
#595=EDGE_CURVE('',#516,#503,#110,.T.);
#596=EDGE_CURVE('',#517,#518,#692,.T.);
#597=EDGE_CURVE('',#517,#519,#693,.T.);
#598=EDGE_CURVE('',#519,#520,#694,.T.);
#599=EDGE_CURVE('',#518,#520,#695,.T.);
#600=EDGE_CURVE('',#520,#521,#111,.T.);
#601=EDGE_CURVE('',#522,#521,#696,.T.);
#602=EDGE_CURVE('',#518,#522,#112,.T.);
#603=EDGE_CURVE('',#521,#523,#697,.T.);
#604=EDGE_CURVE('',#524,#523,#698,.T.);
#605=EDGE_CURVE('',#522,#524,#699,.T.);
#606=EDGE_CURVE('',#523,#525,#113,.T.);
#607=EDGE_CURVE('',#526,#525,#700,.T.);
#608=EDGE_CURVE('',#524,#526,#114,.T.);
#609=EDGE_CURVE('',#527,#527,#115,.T.);
#610=EDGE_CURVE('',#528,#528,#116,.T.);
#611=EDGE_CURVE('',#525,#529,#701,.T.);
#612=EDGE_CURVE('',#530,#529,#702,.T.);
#613=EDGE_CURVE('',#526,#530,#703,.T.);
#614=EDGE_CURVE('',#529,#531,#704,.T.);
#615=EDGE_CURVE('',#532,#531,#705,.T.);
#616=EDGE_CURVE('',#530,#532,#706,.T.);
#617=EDGE_CURVE('',#533,#533,#117,.T.);
#618=EDGE_CURVE('',#534,#534,#118,.T.);
#619=EDGE_CURVE('',#531,#535,#707,.T.);
#620=EDGE_CURVE('',#536,#535,#708,.T.);
#621=EDGE_CURVE('',#532,#536,#709,.T.);
#622=EDGE_CURVE('',#535,#537,#119,.T.);
#623=EDGE_CURVE('',#538,#537,#710,.T.);
#624=EDGE_CURVE('',#536,#538,#120,.T.);
#625=EDGE_CURVE('',#537,#539,#711,.T.);
#626=EDGE_CURVE('',#540,#539,#712,.T.);
#627=EDGE_CURVE('',#538,#540,#713,.T.);
#628=EDGE_CURVE('',#539,#541,#121,.T.);
#629=EDGE_CURVE('',#542,#541,#714,.T.);
#630=EDGE_CURVE('',#540,#542,#122,.T.);
#631=EDGE_CURVE('',#541,#543,#715,.T.);
#632=EDGE_CURVE('',#544,#543,#716,.T.);
#633=EDGE_CURVE('',#542,#544,#717,.T.);
#634=EDGE_CURVE('',#543,#545,#123,.T.);
#635=EDGE_CURVE('',#546,#545,#718,.T.);
#636=EDGE_CURVE('',#544,#546,#124,.T.);
#637=EDGE_CURVE('',#545,#547,#719,.T.);
#638=EDGE_CURVE('',#548,#547,#720,.T.);
#639=EDGE_CURVE('',#546,#548,#721,.T.);
#640=EDGE_CURVE('',#547,#549,#125,.T.);
#641=EDGE_CURVE('',#550,#549,#722,.T.);
#642=EDGE_CURVE('',#548,#550,#126,.T.);
#643=EDGE_CURVE('',#551,#551,#127,.T.);
#644=EDGE_CURVE('',#552,#552,#128,.T.);
#645=EDGE_CURVE('',#549,#505,#723,.T.);
#646=EDGE_CURVE('',#550,#508,#724,.T.);
#647=EDGE_CURVE('',#553,#501,#725,.T.);
#648=EDGE_CURVE('',#554,#553,#129,.T.);
#649=EDGE_CURVE('',#517,#554,#726,.T.);
#650=EDGE_CURVE('',#555,#555,#130,.T.);
#651=EDGE_CURVE('',#519,#556,#727,.T.);
#652=EDGE_CURVE('',#556,#557,#131,.T.);
#653=EDGE_CURVE('',#557,#502,#728,.T.);
#654=EDGE_CURVE('',#558,#558,#132,.T.);
#655=EDGE_CURVE('',#554,#556,#729,.T.);
#656=EDGE_CURVE('',#553,#557,#730,.T.);
#657=EDGE_CURVE('',#559,#560,#731,.T.);
#658=EDGE_CURVE('',#561,#559,#732,.T.);
#659=EDGE_CURVE('',#562,#561,#733,.T.);
#660=EDGE_CURVE('',#560,#562,#734,.T.);
#661=EDGE_CURVE('',#563,#563,#133,.T.);
#662=EDGE_CURVE('',#564,#564,#134,.T.);
#663=EDGE_CURVE('',#565,#565,#135,.T.);
#664=EDGE_CURVE('',#566,#566,#136,.T.);
#665=EDGE_CURVE('',#560,#567,#735,.T.);
#666=EDGE_CURVE('',#562,#568,#736,.T.);
#667=EDGE_CURVE('',#567,#568,#737,.T.);
#668=EDGE_CURVE('',#569,#567,#738,.T.);
#669=EDGE_CURVE('',#568,#570,#739,.T.);
#670=EDGE_CURVE('',#570,#569,#740,.T.);
#671=EDGE_CURVE('',#559,#569,#741,.T.);
#672=EDGE_CURVE('',#561,#570,#742,.T.);
#673=EDGE_CURVE('',#571,#571,#137,.T.);
#674=EDGE_CURVE('',#572,#572,#138,.T.);
#675=EDGE_CURVE('',#573,#573,#139,.T.);
#676=EDGE_CURVE('',#574,#574,#140,.T.);
#677=LINE('',#1110,#743);
#678=LINE('',#1113,#744);
#679=LINE('',#1115,#745);
#680=LINE('',#1117,#746);
#681=LINE('',#1119,#747);
#682=LINE('',#1122,#748);
#683=LINE('',#1124,#749);
#684=LINE('',#1126,#750);
#685=LINE('',#1132,#751);
#686=LINE('',#1134,#752);
#687=LINE('',#1136,#753);
#688=LINE('',#1140,#754);
#689=LINE('',#1144,#755);
#690=LINE('',#1146,#756);
#691=LINE('',#1148,#757);
#692=LINE('',#1153,#758);
#693=LINE('',#1156,#759);
#694=LINE('',#1158,#760);
#695=LINE('',#1160,#761);
#696=LINE('',#1164,#762);
#697=LINE('',#1168,#763);
#698=LINE('',#1170,#764);
#699=LINE('',#1172,#765);
#700=LINE('',#1176,#766);
#701=LINE('',#1184,#767);
#702=LINE('',#1186,#768);
#703=LINE('',#1188,#769);
#704=LINE('',#1190,#770);
#705=LINE('',#1192,#771);
#706=LINE('',#1194,#772);
#707=LINE('',#1200,#773);
#708=LINE('',#1202,#774);
#709=LINE('',#1204,#775);
#710=LINE('',#1208,#776);
#711=LINE('',#1212,#777);
#712=LINE('',#1214,#778);
#713=LINE('',#1216,#779);
#714=LINE('',#1220,#780);
#715=LINE('',#1224,#781);
#716=LINE('',#1226,#782);
#717=LINE('',#1228,#783);
#718=LINE('',#1232,#784);
#719=LINE('',#1236,#785);
#720=LINE('',#1238,#786);
#721=LINE('',#1240,#787);
#722=LINE('',#1244,#788);
#723=LINE('',#1252,#789);
#724=LINE('',#1253,#790);
#725=LINE('',#1255,#791);
#726=LINE('',#1259,#792);
#727=LINE('',#1263,#793);
#728=LINE('',#1267,#794);
#729=LINE('',#1275,#795);
#730=LINE('',#1276,#796);
#731=LINE('',#1281,#797);
#732=LINE('',#1284,#798);
#733=LINE('',#1286,#799);
#734=LINE('',#1288,#800);
#735=LINE('',#1298,#801);
#736=LINE('',#1300,#802);
#737=LINE('',#1302,#803);
#738=LINE('',#1304,#804);
#739=LINE('',#1306,#805);
#740=LINE('',#1308,#806);
#741=LINE('',#1310,#807);
#742=LINE('',#1312,#808);
#743=VECTOR('',#889,1.);
#744=VECTOR('',#890,1.);
#745=VECTOR('',#891,1.);
#746=VECTOR('',#892,1.);
#747=VECTOR('',#895,1.);
#748=VECTOR('',#896,1.);
#749=VECTOR('',#897,1.);
#750=VECTOR('',#898,1.);
#751=VECTOR('',#905,1.);
#752=VECTOR('',#906,1.);
#753=VECTOR('',#907,1.);
#754=VECTOR('',#912,1.);
#755=VECTOR('',#917,1.);
#756=VECTOR('',#918,1.);
#757=VECTOR('',#919,1.);
#758=VECTOR('',#928,1.);
#759=VECTOR('',#929,1.);
#760=VECTOR('',#930,1.);
#761=VECTOR('',#931,1.);
#762=VECTOR('',#936,1.);
#763=VECTOR('',#941,1.);
#764=VECTOR('',#942,1.);
#765=VECTOR('',#943,1.);
#766=VECTOR('',#948,1.);
#767=VECTOR('',#957,1.);
#768=VECTOR('',#958,1.);
#769=VECTOR('',#959,1.);
#770=VECTOR('',#962,1.);
#771=VECTOR('',#963,1.);
#772=VECTOR('',#964,1.);
#773=VECTOR('',#971,1.);
#774=VECTOR('',#972,1.);
#775=VECTOR('',#973,1.);
#776=VECTOR('',#978,1.);
#777=VECTOR('',#983,1.);
#778=VECTOR('',#984,1.);
#779=VECTOR('',#985,1.);
#780=VECTOR('',#990,1.);
#781=VECTOR('',#995,1.);
#782=VECTOR('',#996,1.);
#783=VECTOR('',#997,1.);
#784=VECTOR('',#1002,1.);
#785=VECTOR('',#1007,1.);
#786=VECTOR('',#1008,1.);
#787=VECTOR('',#1009,1.);
#788=VECTOR('',#1014,1.);
#789=VECTOR('',#1023,1.);
#790=VECTOR('',#1024,1.);
#791=VECTOR('',#1027,1.);
#792=VECTOR('',#1030,1.);
#793=VECTOR('',#1035,1.);
#794=VECTOR('',#1038,1.);
#795=VECTOR('',#1051,1.);
#796=VECTOR('',#1052,1.);
#797=VECTOR('',#1061,1.);
#798=VECTOR('',#1062,1.);
#799=VECTOR('',#1063,1.);
#800=VECTOR('',#1064,1.);
#801=VECTOR('',#1075,1.);
#802=VECTOR('',#1076,1.);
#803=VECTOR('',#1077,1.);
#804=VECTOR('',#1080,1.);
#805=VECTOR('',#1081,1.);
#806=VECTOR('',#1082,1.);
#807=VECTOR('',#1085,1.);
#808=VECTOR('',#1088,1.);
#809=AXIS2_PLACEMENT_3D('',#1109,#887,#888);
#810=AXIS2_PLACEMENT_3D('',#1118,#893,#894);
#811=AXIS2_PLACEMENT_3D('',#1127,#899,#900);
#812=AXIS2_PLACEMENT_3D('',#1128,#901,#902);
#813=AXIS2_PLACEMENT_3D('',#1130,#903,#904);
#814=AXIS2_PLACEMENT_3D('',#1137,#908,#909);
#815=AXIS2_PLACEMENT_3D('',#1138,#910,#911);
#816=AXIS2_PLACEMENT_3D('',#1142,#913,#914);
#817=AXIS2_PLACEMENT_3D('',#1143,#915,#916);
#818=AXIS2_PLACEMENT_3D('',#1149,#920,#921);
#819=AXIS2_PLACEMENT_3D('',#1150,#922,#923);
#820=AXIS2_PLACEMENT_3D('',#1151,#924,#925);
#821=AXIS2_PLACEMENT_3D('',#1152,#926,#927);
#822=AXIS2_PLACEMENT_3D('',#1161,#932,#933);
#823=AXIS2_PLACEMENT_3D('',#1162,#934,#935);
#824=AXIS2_PLACEMENT_3D('',#1166,#937,#938);
#825=AXIS2_PLACEMENT_3D('',#1167,#939,#940);
#826=AXIS2_PLACEMENT_3D('',#1173,#944,#945);
#827=AXIS2_PLACEMENT_3D('',#1174,#946,#947);
#828=AXIS2_PLACEMENT_3D('',#1178,#949,#950);
#829=AXIS2_PLACEMENT_3D('',#1179,#951,#952);
#830=AXIS2_PLACEMENT_3D('',#1180,#953,#954);
#831=AXIS2_PLACEMENT_3D('',#1182,#955,#956);
#832=AXIS2_PLACEMENT_3D('',#1189,#960,#961);
#833=AXIS2_PLACEMENT_3D('',#1195,#965,#966);
#834=AXIS2_PLACEMENT_3D('',#1196,#967,#968);
#835=AXIS2_PLACEMENT_3D('',#1198,#969,#970);
#836=AXIS2_PLACEMENT_3D('',#1205,#974,#975);
#837=AXIS2_PLACEMENT_3D('',#1206,#976,#977);
#838=AXIS2_PLACEMENT_3D('',#1210,#979,#980);
#839=AXIS2_PLACEMENT_3D('',#1211,#981,#982);
#840=AXIS2_PLACEMENT_3D('',#1217,#986,#987);
#841=AXIS2_PLACEMENT_3D('',#1218,#988,#989);
#842=AXIS2_PLACEMENT_3D('',#1222,#991,#992);
#843=AXIS2_PLACEMENT_3D('',#1223,#993,#994);
#844=AXIS2_PLACEMENT_3D('',#1229,#998,#999);
#845=AXIS2_PLACEMENT_3D('',#1230,#1000,#1001);
#846=AXIS2_PLACEMENT_3D('',#1234,#1003,#1004);
#847=AXIS2_PLACEMENT_3D('',#1235,#1005,#1006);
#848=AXIS2_PLACEMENT_3D('',#1241,#1010,#1011);
#849=AXIS2_PLACEMENT_3D('',#1242,#1012,#1013);
#850=AXIS2_PLACEMENT_3D('',#1246,#1015,#1016);
#851=AXIS2_PLACEMENT_3D('',#1247,#1017,#1018);
#852=AXIS2_PLACEMENT_3D('',#1248,#1019,#1020);
#853=AXIS2_PLACEMENT_3D('',#1250,#1021,#1022);
#854=AXIS2_PLACEMENT_3D('',#1254,#1025,#1026);
#855=AXIS2_PLACEMENT_3D('',#1257,#1028,#1029);
#856=AXIS2_PLACEMENT_3D('',#1260,#1031,#1032);
#857=AXIS2_PLACEMENT_3D('',#1262,#1033,#1034);
#858=AXIS2_PLACEMENT_3D('',#1265,#1036,#1037);
#859=AXIS2_PLACEMENT_3D('',#1268,#1039,#1040);
#860=AXIS2_PLACEMENT_3D('',#1270,#1041,#1042);
#861=AXIS2_PLACEMENT_3D('',#1271,#1043,#1044);
#862=AXIS2_PLACEMENT_3D('',#1272,#1045,#1046);
#863=AXIS2_PLACEMENT_3D('',#1273,#1047,#1048);
#864=AXIS2_PLACEMENT_3D('',#1274,#1049,#1050);
#865=AXIS2_PLACEMENT_3D('',#1277,#1053,#1054);
#866=AXIS2_PLACEMENT_3D('',#1278,#1055,#1056);
#867=AXIS2_PLACEMENT_3D('',#1279,#1057,#1058);
#868=AXIS2_PLACEMENT_3D('',#1280,#1059,#1060);
#869=AXIS2_PLACEMENT_3D('',#1289,#1065,#1066);
#870=AXIS2_PLACEMENT_3D('',#1290,#1067,#1068);
#871=AXIS2_PLACEMENT_3D('',#1292,#1069,#1070);
#872=AXIS2_PLACEMENT_3D('',#1294,#1071,#1072);
#873=AXIS2_PLACEMENT_3D('',#1296,#1073,#1074);
#874=AXIS2_PLACEMENT_3D('',#1303,#1078,#1079);
#875=AXIS2_PLACEMENT_3D('',#1309,#1083,#1084);
#876=AXIS2_PLACEMENT_3D('',#1311,#1086,#1087);
#877=AXIS2_PLACEMENT_3D('',#1313,#1089,#1090);
#878=AXIS2_PLACEMENT_3D('',#1314,#1091,#1092);
#879=AXIS2_PLACEMENT_3D('',#1316,#1093,#1094);
#880=AXIS2_PLACEMENT_3D('',#1318,#1095,#1096);
#881=AXIS2_PLACEMENT_3D('',#1320,#1097,#1098);
#882=AXIS2_PLACEMENT_3D('',#1322,#1099,#1100);
#883=AXIS2_PLACEMENT_3D('',#1323,#1101,#1102);
#884=AXIS2_PLACEMENT_3D('',#1324,#1103,#1104);
#885=AXIS2_PLACEMENT_3D('',#1325,#1105,#1106);
#886=AXIS2_PLACEMENT_3D('',#1326,#1107,#1108);
#887=DIRECTION('',(0.,0.,1.));
#888=DIRECTION('',(1.,0.,0.));
#889=DIRECTION('',(0.,0.,-1.));
#890=DIRECTION('',(1.,0.,0.));
#891=DIRECTION('',(0.,0.,-1.));
#892=DIRECTION('',(1.,0.,0.));
#893=DIRECTION('',(0.,1.,0.));
#894=DIRECTION('',(0.,0.,1.));
#895=DIRECTION('',(0.,-1.,0.));
#896=DIRECTION('',(0.,0.,-1.));
#897=DIRECTION('',(0.,-1.,0.));
#898=DIRECTION('',(0.,0.,-1.));
#899=DIRECTION('',(1.,0.,0.));
#900=DIRECTION('',(0.,0.,-1.));
#901=DIRECTION('',(1.44560289664734E-16,-1.,0.));
#902=DIRECTION('',(-0.999999999999999,-1.73472347597681E-16,0.));
#903=DIRECTION('',(1.44560289664734E-16,-1.,0.));
#904=DIRECTION('',(-0.999999999999999,-1.73472347597681E-16,0.));
#905=DIRECTION('',(1.,1.44560289664734E-16,0.));
#906=DIRECTION('',(0.,0.,-1.));
#907=DIRECTION('',(1.,1.44560289664734E-16,0.));
#908=DIRECTION('',(-1.44560289664734E-16,1.,0.));
#909=DIRECTION('',(-1.,-1.44849410244063E-16,0.));
#910=DIRECTION('',(0.,0.,-1.));
#911=DIRECTION('',(1.,0.,0.));
#912=DIRECTION('',(0.,0.,-1.));
#913=DIRECTION('',(0.,0.,-1.));
#914=DIRECTION('',(1.,0.,0.));
#915=DIRECTION('',(0.,0.,-1.));
#916=DIRECTION('',(-1.,0.,0.));
#917=DIRECTION('',(2.16840434497103E-15,-1.,0.));
#918=DIRECTION('',(0.,0.,-1.));
#919=DIRECTION('',(2.16840434497103E-15,-1.,0.));
#920=DIRECTION('',(1.,2.16840434497103E-15,0.));
#921=DIRECTION('',(-2.16840434497101E-15,1.,0.));
#922=DIRECTION('',(0.,0.,1.));
#923=DIRECTION('',(1.,0.,0.));
#924=DIRECTION('',(0.,0.,1.));
#925=DIRECTION('',(1.,0.,0.));
#926=DIRECTION('',(0.,0.,-1.));
#927=DIRECTION('',(-1.,0.,0.));
#928=DIRECTION('',(1.,0.,0.));
#929=DIRECTION('',(0.,0.,-1.));
#930=DIRECTION('',(1.,0.,0.));
#931=DIRECTION('',(0.,0.,-1.));
#932=DIRECTION('',(0.,1.,0.));
#933=DIRECTION('',(0.,0.,1.));
#934=DIRECTION('',(0.,0.,1.));
#935=DIRECTION('',(1.,0.,0.));
#936=DIRECTION('',(0.,0.,-1.));
#937=DIRECTION('',(0.,0.,1.));
#938=DIRECTION('',(1.,0.,0.));
#939=DIRECTION('',(0.,0.,-1.));
#940=DIRECTION('',(-1.,0.,0.));
#941=DIRECTION('',(2.16840434497103E-15,1.,0.));
#942=DIRECTION('',(0.,0.,-1.));
#943=DIRECTION('',(2.16840434497103E-15,1.,0.));
#944=DIRECTION('',(-1.,2.16840434497103E-15,0.));
#945=DIRECTION('',(-2.16840434497101E-15,-1.,0.));
#946=DIRECTION('',(0.,0.,-1.));
#947=DIRECTION('',(1.,0.,0.));
#948=DIRECTION('',(0.,0.,-1.));
#949=DIRECTION('',(0.,0.,-1.));
#950=DIRECTION('',(1.,0.,0.));
#951=DIRECTION('',(0.,0.,-1.));
#952=DIRECTION('',(-1.,0.,0.));
#953=DIRECTION('',(-1.44560289664734E-16,-1.,0.));
#954=DIRECTION('',(-0.999999999999999,1.73472347597681E-16,0.));
#955=DIRECTION('',(-1.44560289664734E-16,-1.,0.));
#956=DIRECTION('',(-0.999999999999999,1.73472347597681E-16,0.));
#957=DIRECTION('',(1.,-1.44560289664734E-16,0.));
#958=DIRECTION('',(0.,0.,-1.));
#959=DIRECTION('',(1.,-1.44560289664734E-16,0.));
#960=DIRECTION('',(1.44560289664734E-16,1.,0.));
#961=DIRECTION('',(-1.,1.44849410244063E-16,0.));
#962=DIRECTION('',(0.,1.,0.));
#963=DIRECTION('',(0.,0.,-1.));
#964=DIRECTION('',(0.,1.,0.));
#965=DIRECTION('',(-1.,0.,0.));
#966=DIRECTION('',(0.,0.,1.));
#967=DIRECTION('',(9.8097717165007E-16,1.,0.));
#968=DIRECTION('',(0.999999999999999,-9.8097717165007E-16,0.));
#969=DIRECTION('',(9.8097717165007E-16,1.,0.));
#970=DIRECTION('',(0.999999999999999,-9.8097717165007E-16,0.));
#971=DIRECTION('',(-1.,9.8097717165007E-16,0.));
#972=DIRECTION('',(0.,0.,-1.));
#973=DIRECTION('',(-1.,9.8097717165007E-16,0.));
#974=DIRECTION('',(-9.8097717165007E-16,-1.,0.));
#975=DIRECTION('',(1.,-9.8097717165007E-16,0.));
#976=DIRECTION('',(0.,0.,1.));
#977=DIRECTION('',(1.,0.,0.));
#978=DIRECTION('',(0.,0.,-1.));
#979=DIRECTION('',(0.,0.,1.));
#980=DIRECTION('',(1.,0.,0.));
#981=DIRECTION('',(0.,0.,-1.));
#982=DIRECTION('',(-1.,0.,0.));
#983=DIRECTION('',(4.33680868994205E-16,-1.,0.));
#984=DIRECTION('',(0.,0.,-1.));
#985=DIRECTION('',(4.33680868994205E-16,-1.,0.));
#986=DIRECTION('',(1.,4.33680868994205E-16,0.));
#987=DIRECTION('',(-4.33680868994202E-16,1.,0.));
#988=DIRECTION('',(0.,0.,-1.));
#989=DIRECTION('',(1.,0.,0.));
#990=DIRECTION('',(0.,0.,-1.));
#991=DIRECTION('',(0.,0.,-1.));
#992=DIRECTION('',(1.,0.,0.));
#993=DIRECTION('',(0.,0.,-1.));
#994=DIRECTION('',(-1.,0.,0.));
#995=DIRECTION('',(-1.,0.,0.));
#996=DIRECTION('',(0.,0.,-1.));
#997=DIRECTION('',(-1.,0.,0.));
#998=DIRECTION('',(0.,-1.,0.));
#999=DIRECTION('',(0.,0.,-1.));
#1000=DIRECTION('',(0.,0.,-1.));
#1001=DIRECTION('',(1.,0.,0.));
#1002=DIRECTION('',(0.,0.,-1.));
#1003=DIRECTION('',(0.,0.,-1.));
#1004=DIRECTION('',(1.,0.,0.));
#1005=DIRECTION('',(0.,0.,-1.));
#1006=DIRECTION('',(-1.,0.,0.));
#1007=DIRECTION('',(4.33680868994205E-16,1.,0.));
#1008=DIRECTION('',(0.,0.,-1.));
#1009=DIRECTION('',(4.33680868994205E-16,1.,0.));
#1010=DIRECTION('',(-1.,4.33680868994205E-16,0.));
#1011=DIRECTION('',(-4.33680868994202E-16,-1.,0.));
#1012=DIRECTION('',(0.,0.,1.));
#1013=DIRECTION('',(1.,0.,0.));
#1014=DIRECTION('',(0.,0.,-1.));
#1015=DIRECTION('',(0.,0.,1.));
#1016=DIRECTION('',(1.,0.,0.));
#1017=DIRECTION('',(0.,0.,-1.));
#1018=DIRECTION('',(-1.,0.,0.));
#1019=DIRECTION('',(-9.8097717165007E-16,1.,0.));
#1020=DIRECTION('',(0.999999999999999,9.8097717165007E-16,0.));
#1021=DIRECTION('',(-9.8097717165007E-16,1.,0.));
#1022=DIRECTION('',(0.999999999999999,9.8097717165007E-16,0.));
#1023=DIRECTION('',(-1.,-9.8097717165007E-16,0.));
#1024=DIRECTION('',(-1.,-9.8097717165007E-16,0.));
#1025=DIRECTION('',(9.8097717165007E-16,-1.,0.));
#1026=DIRECTION('',(1.,9.8097717165007E-16,0.));
#1027=DIRECTION('',(-5.13992141030165E-16,1.,0.));
#1028=DIRECTION('',(0.,0.,-1.));
#1029=DIRECTION('',(-1.,0.,0.));
#1030=DIRECTION('',(-5.13992141030165E-16,-1.,0.));
#1031=DIRECTION('',(0.,0.,-1.));
#1032=DIRECTION('',(-1.,0.,0.));
#1033=DIRECTION('',(0.,0.,-1.));
#1034=DIRECTION('',(-1.,0.,0.));
#1035=DIRECTION('',(-5.13992141030165E-16,-1.,0.));
#1036=DIRECTION('',(0.,0.,-1.));
#1037=DIRECTION('',(-1.,0.,0.));
#1038=DIRECTION('',(-5.13992141030165E-16,1.,0.));
#1039=DIRECTION('',(0.,0.,-1.));
#1040=DIRECTION('',(-1.,0.,0.));
#1041=DIRECTION('',(0.,0.,-1.));
#1042=DIRECTION('',(-1.,0.,0.));
#1043=DIRECTION('',(0.,1.,0.));
#1044=DIRECTION('',(0.,0.,1.));
#1045=DIRECTION('',(0.,1.,0.));
#1046=DIRECTION('',(0.,0.,1.));
#1047=DIRECTION('',(0.,1.,0.));
#1048=DIRECTION('',(0.,0.,1.));
#1049=DIRECTION('',(0.,1.,0.));
#1050=DIRECTION('',(0.,0.,1.));
#1051=DIRECTION('',(0.,0.,-1.));
#1052=DIRECTION('',(0.,0.,-1.));
#1053=DIRECTION('',(0.,0.,-1.));
#1054=DIRECTION('',(-1.,0.,0.));
#1055=DIRECTION('',(-1.,5.13992141030165E-16,0.));
#1056=DIRECTION('',(-5.13478148889135E-16,-1.,0.));
#1057=DIRECTION('',(1.,5.13992141030165E-16,0.));
#1058=DIRECTION('',(-5.13478148889135E-16,1.,0.));
#1059=DIRECTION('',(0.,0.,-1.));
#1060=DIRECTION('',(-1.,0.,0.));
#1061=DIRECTION('',(-2.77555756156291E-15,-1.,0.));
#1062=DIRECTION('',(-1.,-5.3776427755281E-16,0.));
#1063=DIRECTION('',(-2.77555756156291E-15,1.,0.));
#1064=DIRECTION('',(1.,5.50774703622636E-16,0.));
#1065=DIRECTION('',(0.,0.,-1.));
#1066=DIRECTION('',(-1.,0.,0.));
#1067=DIRECTION('',(-5.50774703622636E-16,1.,0.));
#1068=DIRECTION('',(0.999999999999999,5.20417042793042E-16,0.));
#1069=DIRECTION('',(-5.50774703622636E-16,1.,0.));
#1070=DIRECTION('',(0.999999999999999,5.20417042793042E-16,0.));
#1071=DIRECTION('',(-5.50774703622636E-16,1.,0.));
#1072=DIRECTION('',(0.999999999999999,5.20417042793042E-16,0.));
#1073=DIRECTION('',(-5.50774703622636E-16,1.,0.));
#1074=DIRECTION('',(0.999999999999999,5.20417042793042E-16,0.));
#1075=DIRECTION('',(0.,0.,1.));
#1076=DIRECTION('',(0.,0.,1.));
#1077=DIRECTION('',(1.,5.50774703622636E-16,0.));
#1078=DIRECTION('',(5.50774703622636E-16,-1.,0.));
#1079=DIRECTION('',(1.,5.50774703622636E-16,0.));
#1080=DIRECTION('',(-2.77555756156291E-15,-1.,0.));
#1081=DIRECTION('',(-2.77555756156291E-15,1.,0.));
#1082=DIRECTION('',(-1.,-5.3776427755281E-16,0.));
#1083=DIRECTION('',(0.,0.,-1.));
#1084=DIRECTION('',(-1.,0.,0.));
#1085=DIRECTION('',(0.,0.,1.));
#1086=DIRECTION('',(-1.,2.77555756156291E-15,0.));
#1087=DIRECTION('',(-2.77555756156289E-15,-1.,0.));
#1088=DIRECTION('',(0.,0.,1.));
#1089=DIRECTION('',(1.,2.77555756156291E-15,0.));
#1090=DIRECTION('',(-2.77555756156289E-15,1.,0.));
#1091=DIRECTION('',(5.3776427755281E-16,-1.,0.));
#1092=DIRECTION('',(-0.999999999999999,-6.93889390390723E-16,0.));
#1093=DIRECTION('',(5.3776427755281E-16,-1.,0.));
#1094=DIRECTION('',(-0.999999999999999,-6.93889390390723E-16,0.));
#1095=DIRECTION('',(5.3776427755281E-16,-1.,0.));
#1096=DIRECTION('',(-0.999999999999999,-6.93889390390723E-16,0.));
#1097=DIRECTION('',(5.3776427755281E-16,-1.,0.));
#1098=DIRECTION('',(-0.999999999999999,-6.93889390390723E-16,0.));
#1099=DIRECTION('',(-5.3776427755281E-16,1.,0.));
#1100=DIRECTION('',(-1.,-5.3776427755281E-16,0.));
#1101=DIRECTION('',(0.,1.,0.));
#1102=DIRECTION('',(0.,0.,1.));
#1103=DIRECTION('',(0.,1.,0.));
#1104=DIRECTION('',(0.,0.,1.));
#1105=DIRECTION('',(0.,1.,0.));
#1106=DIRECTION('',(0.,0.,1.));
#1107=DIRECTION('',(0.,1.,0.));
#1108=DIRECTION('',(0.,0.,1.));
#1109=CARTESIAN_POINT('',(0.,0.,0.));
#1110=CARTESIAN_POINT('',(-12.,-22.,346.5));
#1111=CARTESIAN_POINT('',(-12.,-22.,35.));
#1112=CARTESIAN_POINT('',(-12.,-22.,-35.));
#1113=CARTESIAN_POINT('',(-23.,-22.,35.));
#1114=CARTESIAN_POINT('',(-23.,-22.,35.));
#1115=CARTESIAN_POINT('',(-23.,-22.,35.));
#1116=CARTESIAN_POINT('',(-23.,-22.,-35.));
#1117=CARTESIAN_POINT('',(-23.,-22.,-35.));
#1118=CARTESIAN_POINT('',(-23.,-22.,35.));
#1119=CARTESIAN_POINT('',(-50.,-1.59872115546023E-14,-35.));
#1120=CARTESIAN_POINT('',(-50.,-1.59872115546023E-14,-35.));
#1121=CARTESIAN_POINT('',(-50.,-5.00000000000002,-35.));
#1122=CARTESIAN_POINT('',(-50.,-5.00000000000002,35.));
#1123=CARTESIAN_POINT('',(-50.,-5.00000000000002,35.));
#1124=CARTESIAN_POINT('',(-50.,-1.59872115546023E-14,35.));
#1125=CARTESIAN_POINT('',(-50.,-1.59872115546023E-14,35.));
#1126=CARTESIAN_POINT('',(-50.,-1.59872115546023E-14,35.));
#1127=CARTESIAN_POINT('',(-50.,-1.59872115546023E-14,35.));
#1128=CARTESIAN_POINT('',(-41.,-5.00000000000002,17.5));
#1129=CARTESIAN_POINT('',(-46.,-5.00000000000002,17.5));
#1130=CARTESIAN_POINT('',(-41.,-5.00000000000002,-17.5));
#1131=CARTESIAN_POINT('',(-46.,-5.00000000000002,-17.5));
#1132=CARTESIAN_POINT('',(-50.,-5.00000000000002,-35.));
#1133=CARTESIAN_POINT('',(-32.,-5.00000000000002,-35.));
#1134=CARTESIAN_POINT('',(-32.,-5.00000000000002,35.));
#1135=CARTESIAN_POINT('',(-32.,-5.00000000000002,35.));
#1136=CARTESIAN_POINT('',(-50.,-5.00000000000002,35.));
#1137=CARTESIAN_POINT('',(-50.,-5.00000000000002,35.));
#1138=CARTESIAN_POINT('',(-32.,-7.00000000000001,-35.));
#1139=CARTESIAN_POINT('',(-30.,-7.00000000000001,-35.));
#1140=CARTESIAN_POINT('',(-30.,-7.00000000000001,35.));
#1141=CARTESIAN_POINT('',(-30.,-7.00000000000001,35.));
#1142=CARTESIAN_POINT('',(-32.,-7.00000000000001,35.));
#1143=CARTESIAN_POINT('',(-32.,-7.00000000000001,35.));
#1144=CARTESIAN_POINT('',(-30.,-7.00000000000001,-35.));
#1145=CARTESIAN_POINT('',(-30.,-15.,-35.));
#1146=CARTESIAN_POINT('',(-30.,-15.,35.));
#1147=CARTESIAN_POINT('',(-30.,-15.,35.));
#1148=CARTESIAN_POINT('',(-30.,-7.00000000000001,35.));
#1149=CARTESIAN_POINT('',(-30.,-7.00000000000001,35.));
#1150=CARTESIAN_POINT('',(-23.,-15.,-35.));
#1151=CARTESIAN_POINT('',(-23.,-15.,35.));
#1152=CARTESIAN_POINT('',(-23.,-15.,35.));
#1153=CARTESIAN_POINT('',(-23.,-22.,35.));
#1154=CARTESIAN_POINT('',(12.,-22.,35.));
#1155=CARTESIAN_POINT('',(23.,-22.,35.));
#1156=CARTESIAN_POINT('',(12.,-22.,346.5));
#1157=CARTESIAN_POINT('',(12.,-22.,-35.));
#1158=CARTESIAN_POINT('',(-23.,-22.,-35.));
#1159=CARTESIAN_POINT('',(23.,-22.,-35.));
#1160=CARTESIAN_POINT('',(23.,-22.,35.));
#1161=CARTESIAN_POINT('',(-23.,-22.,35.));
#1162=CARTESIAN_POINT('',(23.,-15.,-35.));
#1163=CARTESIAN_POINT('',(30.,-15.,-35.));
#1164=CARTESIAN_POINT('',(30.,-15.,35.));
#1165=CARTESIAN_POINT('',(30.,-15.,35.));
#1166=CARTESIAN_POINT('',(23.,-15.,35.));
#1167=CARTESIAN_POINT('',(23.,-15.,35.));
#1168=CARTESIAN_POINT('',(30.,-15.,-35.));
#1169=CARTESIAN_POINT('',(30.,-7.00000000000001,-35.));
#1170=CARTESIAN_POINT('',(30.,-7.00000000000001,35.));
#1171=CARTESIAN_POINT('',(30.,-7.00000000000001,35.));
#1172=CARTESIAN_POINT('',(30.,-15.,35.));
#1173=CARTESIAN_POINT('',(30.,-15.,35.));
#1174=CARTESIAN_POINT('',(32.,-7.00000000000002,-35.));
#1175=CARTESIAN_POINT('',(32.,-5.00000000000002,-35.));
#1176=CARTESIAN_POINT('',(32.,-5.00000000000002,35.));
#1177=CARTESIAN_POINT('',(32.,-5.00000000000002,35.));
#1178=CARTESIAN_POINT('',(32.,-7.00000000000002,35.));
#1179=CARTESIAN_POINT('',(32.,-7.00000000000002,35.));
#1180=CARTESIAN_POINT('',(41.,-5.00000000000002,17.5));
#1181=CARTESIAN_POINT('',(36.,-5.00000000000001,17.5));
#1182=CARTESIAN_POINT('',(41.,-5.00000000000002,-17.5));
#1183=CARTESIAN_POINT('',(36.,-5.00000000000001,-17.5));
#1184=CARTESIAN_POINT('',(32.,-5.00000000000002,-35.));
#1185=CARTESIAN_POINT('',(50.,-5.00000000000002,-35.));
#1186=CARTESIAN_POINT('',(50.,-5.00000000000002,35.));
#1187=CARTESIAN_POINT('',(50.,-5.00000000000002,35.));
#1188=CARTESIAN_POINT('',(32.,-5.00000000000002,35.));
#1189=CARTESIAN_POINT('',(32.,-5.00000000000002,35.));
#1190=CARTESIAN_POINT('',(50.,-5.00000000000002,-35.));
#1191=CARTESIAN_POINT('',(50.,-1.56125112837913E-14,-35.));
#1192=CARTESIAN_POINT('',(50.,-1.56125112837913E-14,35.));
#1193=CARTESIAN_POINT('',(50.,-1.56125112837913E-14,35.));
#1194=CARTESIAN_POINT('',(50.,-5.00000000000002,35.));
#1195=CARTESIAN_POINT('',(50.,-5.00000000000002,35.));
#1196=CARTESIAN_POINT('',(41.,-6.93889390390723E-15,17.5));
#1197=CARTESIAN_POINT('',(46.,-1.18437797621576E-14,17.5));
#1198=CARTESIAN_POINT('',(41.,-6.93889390390723E-15,-17.5));
#1199=CARTESIAN_POINT('',(46.,-1.18437797621576E-14,-17.5));
#1200=CARTESIAN_POINT('',(50.,-1.5881232250301E-14,-35.));
#1201=CARTESIAN_POINT('',(32.,1.77635683940025E-15,-35.));
#1202=CARTESIAN_POINT('',(32.,1.77635683940025E-15,35.));
#1203=CARTESIAN_POINT('',(32.,1.77635683940025E-15,35.));
#1204=CARTESIAN_POINT('',(50.,-1.5881232250301E-14,35.));
#1205=CARTESIAN_POINT('',(50.,-1.5881232250301E-14,35.));
#1206=CARTESIAN_POINT('',(32.,-7.00000000000005,-35.));
#1207=CARTESIAN_POINT('',(25.,-7.00000000000006,-35.));
#1208=CARTESIAN_POINT('',(25.,-7.00000000000006,35.));
#1209=CARTESIAN_POINT('',(25.,-7.00000000000006,35.));
#1210=CARTESIAN_POINT('',(32.,-7.00000000000005,35.));
#1211=CARTESIAN_POINT('',(32.,-7.00000000000005,35.));
#1212=CARTESIAN_POINT('',(25.,-7.00000000000006,-35.));
#1213=CARTESIAN_POINT('',(25.,-15.,-35.));
#1214=CARTESIAN_POINT('',(25.,-15.,35.));
#1215=CARTESIAN_POINT('',(25.,-15.,35.));
#1216=CARTESIAN_POINT('',(25.,-7.00000000000006,35.));
#1217=CARTESIAN_POINT('',(25.,-7.00000000000006,35.));
#1218=CARTESIAN_POINT('',(23.,-15.,-35.));
#1219=CARTESIAN_POINT('',(23.,-17.,-35.));
#1220=CARTESIAN_POINT('',(23.,-17.,35.));
#1221=CARTESIAN_POINT('',(23.,-17.,35.));
#1222=CARTESIAN_POINT('',(23.,-15.,35.));
#1223=CARTESIAN_POINT('',(23.,-15.,35.));
#1224=CARTESIAN_POINT('',(23.,-17.,-35.));
#1225=CARTESIAN_POINT('',(-23.,-17.,-35.));
#1226=CARTESIAN_POINT('',(-23.,-17.,35.));
#1227=CARTESIAN_POINT('',(-23.,-17.,35.));
#1228=CARTESIAN_POINT('',(23.,-17.,35.));
#1229=CARTESIAN_POINT('',(23.,-17.,35.));
#1230=CARTESIAN_POINT('',(-23.,-15.,-35.));
#1231=CARTESIAN_POINT('',(-25.,-15.,-35.));
#1232=CARTESIAN_POINT('',(-25.,-15.,35.));
#1233=CARTESIAN_POINT('',(-25.,-15.,35.));
#1234=CARTESIAN_POINT('',(-23.,-15.,35.));
#1235=CARTESIAN_POINT('',(-23.,-15.,35.));
#1236=CARTESIAN_POINT('',(-25.,-15.,-35.));
#1237=CARTESIAN_POINT('',(-25.,-7.00000000000006,-35.));
#1238=CARTESIAN_POINT('',(-25.,-7.00000000000006,35.));
#1239=CARTESIAN_POINT('',(-25.,-7.00000000000006,35.));
#1240=CARTESIAN_POINT('',(-25.,-15.,35.));
#1241=CARTESIAN_POINT('',(-25.,-15.,35.));
#1242=CARTESIAN_POINT('',(-32.,-7.00000000000005,-35.));
#1243=CARTESIAN_POINT('',(-32.,6.07153216591882E-15,-35.));
#1244=CARTESIAN_POINT('',(-32.,6.07153216591882E-15,35.));
#1245=CARTESIAN_POINT('',(-32.,6.07153216591882E-15,35.));
#1246=CARTESIAN_POINT('',(-32.,-7.00000000000005,35.));
#1247=CARTESIAN_POINT('',(-32.,-7.00000000000005,35.));
#1248=CARTESIAN_POINT('',(-41.,-6.93889390390723E-15,17.5));
#1249=CARTESIAN_POINT('',(-36.,-2.03400804565688E-15,17.5));
#1250=CARTESIAN_POINT('',(-41.,-6.93889390390723E-15,-17.5));
#1251=CARTESIAN_POINT('',(-36.,-2.03400804565688E-15,-17.5));
#1252=CARTESIAN_POINT('',(-32.,1.77635683940025E-15,-35.));
#1253=CARTESIAN_POINT('',(-32.,1.77635683940025E-15,35.));
#1254=CARTESIAN_POINT('',(-32.,1.77635683940025E-15,35.));
#1255=CARTESIAN_POINT('',(-12.,-22.,35.));
#1256=CARTESIAN_POINT('',(-12.,-49.,35.));
#1257=CARTESIAN_POINT('',(0.,-49.,35.));
#1258=CARTESIAN_POINT('',(12.,-49.,35.));
#1259=CARTESIAN_POINT('',(12.,-49.,35.));
#1260=CARTESIAN_POINT('',(0.,-49.,35.));
#1261=CARTESIAN_POINT('',(-10.,-49.,35.));
#1262=CARTESIAN_POINT('',(-32.,-7.00000000000001,35.));
#1263=CARTESIAN_POINT('',(12.,-49.,-35.));
#1264=CARTESIAN_POINT('',(12.,-49.,-35.));
#1265=CARTESIAN_POINT('',(0.,-49.,-35.));
#1266=CARTESIAN_POINT('',(-12.,-49.,-35.));
#1267=CARTESIAN_POINT('',(-12.,-22.,-35.));
#1268=CARTESIAN_POINT('',(0.,-49.,-35.));
#1269=CARTESIAN_POINT('',(-10.,-49.,-35.));
#1270=CARTESIAN_POINT('',(-32.,-7.00000000000001,-35.));
#1271=CARTESIAN_POINT('',(-41.,-24.2,-17.5));
#1272=CARTESIAN_POINT('',(-41.,-24.2,17.5));
#1273=CARTESIAN_POINT('',(41.,-24.2,-17.5));
#1274=CARTESIAN_POINT('',(41.,-24.2,17.5));
#1275=CARTESIAN_POINT('',(12.,-49.,346.5));
#1276=CARTESIAN_POINT('',(-12.,-49.,346.5));
#1277=CARTESIAN_POINT('',(0.,-49.,346.5));
#1278=CARTESIAN_POINT('',(12.,-49.,346.5));
#1279=CARTESIAN_POINT('',(-12.,-22.,346.5));
#1280=CARTESIAN_POINT('',(0.,-49.,346.5));
#1281=CARTESIAN_POINT('',(-50.,7.99999999999993,-35.));
#1282=CARTESIAN_POINT('',(-50.,7.99999999999993,-35.));
#1283=CARTESIAN_POINT('',(-50.,2.99999999999996,-35.));
#1284=CARTESIAN_POINT('',(50.,7.99999999999998,-35.));
#1285=CARTESIAN_POINT('',(50.,7.99999999999998,-35.));
#1286=CARTESIAN_POINT('',(50.,3.00000000000002,-35.));
#1287=CARTESIAN_POINT('',(50.,3.00000000000001,-35.));
#1288=CARTESIAN_POINT('',(-50.,2.99999999999996,-35.));
#1289=CARTESIAN_POINT('',(-32.,-7.00000000000001,-35.));
#1290=CARTESIAN_POINT('',(41.,3.00000000000001,17.5));
#1291=CARTESIAN_POINT('',(46.,3.00000000000001,17.5));
#1292=CARTESIAN_POINT('',(-41.,2.99999999999996,17.5));
#1293=CARTESIAN_POINT('',(-36.,2.99999999999997,17.5));
#1294=CARTESIAN_POINT('',(-41.,2.99999999999996,-17.5));
#1295=CARTESIAN_POINT('',(-36.,2.99999999999997,-17.5));
#1296=CARTESIAN_POINT('',(41.,3.00000000000001,-17.5));
#1297=CARTESIAN_POINT('',(46.,3.00000000000001,-17.5));
#1298=CARTESIAN_POINT('',(-50.,2.99999999999996,-346.5));
#1299=CARTESIAN_POINT('',(-50.,2.99999999999996,35.));
#1300=CARTESIAN_POINT('',(50.,3.00000000000001,-346.5));
#1301=CARTESIAN_POINT('',(50.,3.00000000000001,35.));
#1302=CARTESIAN_POINT('',(-50.,2.99999999999996,35.));
#1303=CARTESIAN_POINT('',(-50.,2.99999999999996,-346.5));
#1304=CARTESIAN_POINT('',(-50.,7.99999999999993,35.));
#1305=CARTESIAN_POINT('',(-50.,7.99999999999993,35.));
#1306=CARTESIAN_POINT('',(50.,3.00000000000002,35.));
#1307=CARTESIAN_POINT('',(50.,7.99999999999998,35.));
#1308=CARTESIAN_POINT('',(50.,7.99999999999998,35.));
#1309=CARTESIAN_POINT('',(-32.,-7.00000000000001,35.));
#1310=CARTESIAN_POINT('',(-50.,7.99999999999993,-346.5));
#1311=CARTESIAN_POINT('',(-50.,7.99999999999993,-346.5));
#1312=CARTESIAN_POINT('',(50.,7.99999999999998,-346.5));
#1313=CARTESIAN_POINT('',(50.,3.00000000000002,-346.5));
#1314=CARTESIAN_POINT('',(41.,7.99999999999998,17.5));
#1315=CARTESIAN_POINT('',(36.,7.99999999999998,17.5));
#1316=CARTESIAN_POINT('',(-41.,7.99999999999994,17.5));
#1317=CARTESIAN_POINT('',(-46.,7.99999999999993,17.5));
#1318=CARTESIAN_POINT('',(-41.,7.99999999999994,-17.5));
#1319=CARTESIAN_POINT('',(-46.,7.99999999999993,-17.5));
#1320=CARTESIAN_POINT('',(41.,7.99999999999998,-17.5));
#1321=CARTESIAN_POINT('',(36.,7.99999999999998,-17.5));
#1322=CARTESIAN_POINT('',(50.,7.99999999999998,-346.5));
#1323=CARTESIAN_POINT('',(41.,2.69999999999996,-17.5));
#1324=CARTESIAN_POINT('',(-41.,2.69999999999996,-17.5));
#1325=CARTESIAN_POINT('',(-41.,2.69999999999996,17.5));
#1326=CARTESIAN_POINT('',(41.,2.69999999999996,17.5));
#1327=MECHANICAL_DESIGN_GEOMETRIC_PRESENTATION_REPRESENTATION('',(#24,#25),
#1328);
#1328=(
GEOMETRIC_REPRESENTATION_CONTEXT(3)
GLOBAL_UNCERTAINTY_ASSIGNED_CONTEXT((#1329))
GLOBAL_UNIT_ASSIGNED_CONTEXT((#1335,#1331,#1330))
REPRESENTATION_CONTEXT('S_SF_M_08_stirrer_mount',
'TOP_LEVEL_ASSEMBLY_PART')
);
#1329=UNCERTAINTY_MEASURE_WITH_UNIT(LENGTH_MEASURE(2.E-5),#1335,
'DISTANCE_ACCURACY_VALUE','Maximum Tolerance applied to model');
#1330=(
NAMED_UNIT(*)
SI_UNIT($,.STERADIAN.)
SOLID_ANGLE_UNIT()
);
#1331=(
CONVERSION_BASED_UNIT('DEGREE',#1333)
NAMED_UNIT(#1332)
PLANE_ANGLE_UNIT()
);
#1332=DIMENSIONAL_EXPONENTS(0.,0.,0.,0.,0.,0.,0.);
#1333=PLANE_ANGLE_MEASURE_WITH_UNIT(PLANE_ANGLE_MEASURE(0.0174532925),#1334);
#1334=(
NAMED_UNIT(*)
PLANE_ANGLE_UNIT()
SI_UNIT($,.RADIAN.)
);
#1335=(
LENGTH_UNIT()
NAMED_UNIT(*)
SI_UNIT(.MILLI.,.METRE.)
);
ENDSEC;
END-ISO-10303-21;
