ISO-10303-21;
HEADER;
/* Generated by software containing ST-Developer
 * from STEP Tools, Inc. (www.steptools.com) 
 */
/* OPTION: using custom schema-name function */

FILE_DESCRIPTION(
/* description */ (''),
/* implementation_level */ '2;1');

FILE_NAME(
/* name */ 'S_SF_M_04_scoop.stp',
/* time_stamp */ '2025-12-15T16:59:13+01:00',
/* author */ (''),
/* organization */ (''),
/* preprocessor_version */ 'ST-DEVELOPER v18.1',
/* originating_system */ 'SIEMENS PLM Software NX 1988',
/* authorisation */ '');

FILE_SCHEMA (('AUTOMOTIVE_DESIGN { 1 0 10303 214 3 1 1 1 }'));
ENDSEC;

DATA;
#10=SHAPE_REPRESENTATION_RELATIONSHIP('None',
'relationship between S_SF_M_04_scoop-None and S_SF_M_04_scoop-None',#22,
#11);
#11=ADVANCED_BREP_SHAPE_REPRESENTATION('S_SF_M_04_scoop-None',(#224,#225,
#226),#1347);
#12=SHAPE_DEFINITION_REPRESENTATION(#13,#22);
#13=PRODUCT_DEFINITION_SHAPE('','',#14);
#14=PRODUCT_DEFINITION(' ','',#16,#15);
#15=PRODUCT_DEFINITION_CONTEXT('part definition',#21,'design');
#16=PRODUCT_DEFINITION_FORMATION_WITH_SPECIFIED_SOURCE(' ',' ',#18,
 .NOT_KNOWN.);
#17=PRODUCT_RELATED_PRODUCT_CATEGORY('part','',(#18));
#18=PRODUCT('S_SF_M_04_scoop','S_SF_M_04_scoop',' ',(#19));
#19=PRODUCT_CONTEXT(' ',#21,'mechanical');
#20=APPLICATION_PROTOCOL_DEFINITION('international standard',
'automotive_design',2010,#21);
#21=APPLICATION_CONTEXT(
'core data for automotive mechanical design processes');
#22=SHAPE_REPRESENTATION('S_SF_M_04_scoop-None',(#798),#1347);
#23=CONICAL_SURFACE('',#876,5.99999999999999,45.0000000000006);
#24=CONICAL_SURFACE('',#877,5.99999999999999,45.0000000000006);
#25=CONICAL_SURFACE('',#880,5.99999999999999,45.0000000000006);
#26=CONICAL_SURFACE('',#881,5.99999999999999,45.0000000000006);
#27=CONICAL_SURFACE('',#884,5.99999999999999,45.0000000000006);
#28=CONICAL_SURFACE('',#885,5.99999999999999,45.0000000000006);
#29=CONICAL_SURFACE('',#888,5.99999999999999,45.0000000000006);
#30=CONICAL_SURFACE('',#889,5.99999999999999,45.0000000000006);
#31=PLANE('',#831);
#32=PLANE('',#835);
#33=PLANE('',#839);
#34=PLANE('',#843);
#35=PLANE('',#847);
#36=PLANE('',#848);
#37=PLANE('',#853);
#38=PLANE('',#854);
#39=PLANE('',#859);
#40=PLANE('',#860);
#41=PLANE('',#861);
#42=PLANE('',#862);
#43=PLANE('',#875);
#44=PLANE('',#878);
#45=PLANE('',#879);
#46=PLANE('',#882);
#47=PLANE('',#883);
#48=PLANE('',#886);
#49=PLANE('',#887);
#50=PLANE('',#890);
#51=FACE_OUTER_BOUND('',#370,.T.);
#52=FACE_OUTER_BOUND('',#371,.T.);
#53=FACE_OUTER_BOUND('',#372,.T.);
#54=FACE_OUTER_BOUND('',#373,.T.);
#55=FACE_OUTER_BOUND('',#374,.T.);
#56=FACE_OUTER_BOUND('',#375,.T.);
#57=FACE_OUTER_BOUND('',#376,.T.);
#58=FACE_OUTER_BOUND('',#377,.T.);
#59=FACE_OUTER_BOUND('',#378,.T.);
#60=FACE_OUTER_BOUND('',#379,.T.);
#61=FACE_OUTER_BOUND('',#380,.T.);
#62=FACE_OUTER_BOUND('',#381,.T.);
#63=FACE_OUTER_BOUND('',#382,.T.);
#64=FACE_OUTER_BOUND('',#383,.T.);
#65=FACE_OUTER_BOUND('',#384,.T.);
#66=FACE_OUTER_BOUND('',#385,.T.);
#67=FACE_OUTER_BOUND('',#386,.T.);
#68=FACE_OUTER_BOUND('',#387,.T.);
#69=FACE_OUTER_BOUND('',#388,.T.);
#70=FACE_OUTER_BOUND('',#389,.T.);
#71=FACE_OUTER_BOUND('',#390,.T.);
#72=FACE_OUTER_BOUND('',#391,.T.);
#73=FACE_OUTER_BOUND('',#392,.T.);
#74=FACE_OUTER_BOUND('',#393,.T.);
#75=FACE_OUTER_BOUND('',#394,.T.);
#76=FACE_OUTER_BOUND('',#395,.T.);
#77=FACE_OUTER_BOUND('',#396,.T.);
#78=FACE_OUTER_BOUND('',#397,.T.);
#79=FACE_OUTER_BOUND('',#398,.T.);
#80=FACE_OUTER_BOUND('',#399,.T.);
#81=FACE_OUTER_BOUND('',#400,.T.);
#82=FACE_OUTER_BOUND('',#401,.T.);
#83=FACE_OUTER_BOUND('',#402,.T.);
#84=FACE_OUTER_BOUND('',#403,.T.);
#85=FACE_OUTER_BOUND('',#404,.T.);
#86=FACE_OUTER_BOUND('',#405,.T.);
#87=LINE('',#1182,#143);
#88=LINE('',#1185,#144);
#89=LINE('',#1187,#145);
#90=LINE('',#1189,#146);
#91=LINE('',#1193,#147);
#92=LINE('',#1197,#148);
#93=LINE('',#1199,#149);
#94=LINE('',#1201,#150);
#95=LINE('',#1205,#151);
#96=LINE('',#1209,#152);
#97=LINE('',#1211,#153);
#98=LINE('',#1213,#154);
#99=LINE('',#1217,#155);
#100=LINE('',#1221,#156);
#101=LINE('',#1223,#157);
#102=LINE('',#1225,#158);
#103=LINE('',#1235,#159);
#104=LINE('',#1239,#160);
#105=LINE('',#1243,#161);
#106=LINE('',#1247,#162);
#107=LINE('',#1249,#163);
#108=LINE('',#1252,#164);
#109=LINE('',#1254,#165);
#110=LINE('',#1256,#166);
#111=LINE('',#1261,#167);
#112=LINE('',#1265,#168);
#113=LINE('',#1269,#169);
#114=LINE('',#1273,#170);
#115=LINE('',#1275,#171);
#116=LINE('',#1278,#172);
#117=LINE('',#1280,#173);
#118=LINE('',#1282,#174);
#119=LINE('',#1284,#175);
#120=LINE('',#1287,#176);
#121=LINE('',#1289,#177);
#122=LINE('',#1291,#178);
#123=LINE('',#1293,#179);
#124=LINE('',#1296,#180);
#125=LINE('',#1298,#181);
#126=LINE('',#1300,#182);
#127=LINE('',#1314,#183);
#128=LINE('',#1315,#184);
#129=LINE('',#1317,#185);
#130=LINE('',#1319,#186);
#131=LINE('',#1321,#187);
#132=LINE('',#1323,#188);
#133=LINE('',#1325,#189);
#134=LINE('',#1327,#190);
#135=LINE('',#1330,#191);
#136=LINE('',#1331,#192);
#137=LINE('',#1333,#193);
#138=LINE('',#1335,#194);
#139=LINE('',#1337,#195);
#140=LINE('',#1339,#196);
#141=LINE('',#1341,#197);
#142=LINE('',#1343,#198);
#143=VECTOR('',#957,1.);
#144=VECTOR('',#958,1.);
#145=VECTOR('',#959,1.);
#146=VECTOR('',#960,1.);
#147=VECTOR('',#965,1.);
#148=VECTOR('',#970,1.);
#149=VECTOR('',#971,1.);
#150=VECTOR('',#972,1.);
#151=VECTOR('',#977,1.);
#152=VECTOR('',#982,1.);
#153=VECTOR('',#983,1.);
#154=VECTOR('',#984,1.);
#155=VECTOR('',#989,1.);
#156=VECTOR('',#994,1.);
#157=VECTOR('',#995,1.);
#158=VECTOR('',#996,1.);
#159=VECTOR('',#1011,1.);
#160=VECTOR('',#1014,1.);
#161=VECTOR('',#1017,1.);
#162=VECTOR('',#1020,1.);
#163=VECTOR('',#1023,1.);
#164=VECTOR('',#1024,1.);
#165=VECTOR('',#1025,1.);
#166=VECTOR('',#1026,1.);
#167=VECTOR('',#1031,1.);
#168=VECTOR('',#1034,1.);
#169=VECTOR('',#1037,1.);
#170=VECTOR('',#1040,1.);
#171=VECTOR('',#1043,1.);
#172=VECTOR('',#1044,1.);
#173=VECTOR('',#1045,1.);
#174=VECTOR('',#1046,1.);
#175=VECTOR('',#1049,1.);
#176=VECTOR('',#1050,1.);
#177=VECTOR('',#1051,1.);
#178=VECTOR('',#1052,1.);
#179=VECTOR('',#1055,1.);
#180=VECTOR('',#1056,1.);
#181=VECTOR('',#1057,1.);
#182=VECTOR('',#1058,1.);
#183=VECTOR('',#1085,1.);
#184=VECTOR('',#1086,1.);
#185=VECTOR('',#1089,1.);
#186=VECTOR('',#1092,1.);
#187=VECTOR('',#1095,1.);
#188=VECTOR('',#1098,1.);
#189=VECTOR('',#1101,1.);
#190=VECTOR('',#1104,1.);
#191=VECTOR('',#1109,1.);
#192=VECTOR('',#1110,1.);
#193=VECTOR('',#1113,1.);
#194=VECTOR('',#1116,1.);
#195=VECTOR('',#1119,1.);
#196=VECTOR('',#1122,1.);
#197=VECTOR('',#1125,1.);
#198=VECTOR('',#1128,1.);
#199=PRESENTATION_LAYER_ASSIGNMENT('1','Layer 1',(#224,#225,#226));
#200=STYLED_ITEM('',(#203),#224);
#201=STYLED_ITEM('',(#204),#225);
#202=STYLED_ITEM('',(#205),#226);
#203=PRESENTATION_STYLE_ASSIGNMENT((#206));
#204=PRESENTATION_STYLE_ASSIGNMENT((#207));
#205=PRESENTATION_STYLE_ASSIGNMENT((#208));
#206=SURFACE_STYLE_USAGE(.BOTH.,#209);
#207=SURFACE_STYLE_USAGE(.BOTH.,#210);
#208=SURFACE_STYLE_USAGE(.BOTH.,#211);
#209=SURFACE_SIDE_STYLE('',(#212));
#210=SURFACE_SIDE_STYLE('',(#213));
#211=SURFACE_SIDE_STYLE('',(#214));
#212=SURFACE_STYLE_FILL_AREA(#215);
#213=SURFACE_STYLE_FILL_AREA(#216);
#214=SURFACE_STYLE_FILL_AREA(#217);
#215=FILL_AREA_STYLE('',(#218));
#216=FILL_AREA_STYLE('',(#219));
#217=FILL_AREA_STYLE('',(#220));
#218=FILL_AREA_STYLE_COLOUR('',#221);
#219=FILL_AREA_STYLE_COLOUR('',#222);
#220=FILL_AREA_STYLE_COLOUR('',#223);
#221=COLOUR_RGB('medium steel',0.596078431372549,0.666666666666667,0.686274509803922);
#222=COLOUR_RGB('granite gray',0.4,0.4,0.4);
#223=COLOUR_RGB('medium umber',0.372549019607843,0.313725490196078,0.270588235294118);
#224=MANIFOLD_SOLID_BREP('',#227);
#225=MANIFOLD_SOLID_BREP('',#228);
#226=MANIFOLD_SOLID_BREP('',#229);
#227=CLOSED_SHELL('',(#246,#247,#248,#249,#250,#251,#252,#253,#254,#255,
#256,#257,#258,#259,#260,#261));
#228=CLOSED_SHELL('',(#262,#263,#264,#265,#266,#267,#268,#269,#270,#271));
#229=CLOSED_SHELL('',(#272,#273,#274,#275,#276,#277,#278,#279,#280,#281,
#282,#283,#284,#285,#286,#287,#288,#289,#290,#291,#292,#293,#294,#295,#296,
#297));
#230=CYLINDRICAL_SURFACE('',#803,2.5);
#231=CYLINDRICAL_SURFACE('',#807,2.5);
#232=CYLINDRICAL_SURFACE('',#811,2.5);
#233=CYLINDRICAL_SURFACE('',#815,2.5);
#234=CYLINDRICAL_SURFACE('',#819,2.5);
#235=CYLINDRICAL_SURFACE('',#823,2.5);
#236=CYLINDRICAL_SURFACE('',#827,2.5);
#237=CYLINDRICAL_SURFACE('',#830,2.5);
#238=CYLINDRICAL_SURFACE('',#834,7.00000000000009);
#239=CYLINDRICAL_SURFACE('',#838,7.00000000000009);
#240=CYLINDRICAL_SURFACE('',#842,6.99999999999994);
#241=CYLINDRICAL_SURFACE('',#846,6.99999999999994);
#242=CYLINDRICAL_SURFACE('',#865,11.);
#243=CYLINDRICAL_SURFACE('',#868,11.);
#244=CYLINDRICAL_SURFACE('',#871,11.);
#245=CYLINDRICAL_SURFACE('',#874,11.);
#246=ADVANCED_FACE('',(#306,#307),#298,.T.);
#247=ADVANCED_FACE('',(#308,#309),#230,.T.);
#248=ADVANCED_FACE('',(#310,#311),#299,.T.);
#249=ADVANCED_FACE('',(#312,#313),#231,.T.);
#250=ADVANCED_FACE('',(#314,#315),#300,.T.);
#251=ADVANCED_FACE('',(#316,#317),#232,.T.);
#252=ADVANCED_FACE('',(#318,#319),#301,.T.);
#253=ADVANCED_FACE('',(#320,#321),#233,.T.);
#254=ADVANCED_FACE('',(#322,#323),#302,.T.);
#255=ADVANCED_FACE('',(#324,#325),#234,.T.);
#256=ADVANCED_FACE('',(#326,#327),#303,.T.);
#257=ADVANCED_FACE('',(#328,#329),#235,.T.);
#258=ADVANCED_FACE('',(#330,#331),#304,.T.);
#259=ADVANCED_FACE('',(#332,#333),#236,.T.);
#260=ADVANCED_FACE('',(#334,#335),#305,.T.);
#261=ADVANCED_FACE('',(#336,#337),#237,.T.);
#262=ADVANCED_FACE('',(#51),#31,.F.);
#263=ADVANCED_FACE('',(#52),#238,.T.);
#264=ADVANCED_FACE('',(#53),#32,.F.);
#265=ADVANCED_FACE('',(#54),#239,.T.);
#266=ADVANCED_FACE('',(#55),#33,.F.);
#267=ADVANCED_FACE('',(#56),#240,.T.);
#268=ADVANCED_FACE('',(#57),#34,.F.);
#269=ADVANCED_FACE('',(#58),#241,.T.);
#270=ADVANCED_FACE('',(#59),#35,.T.);
#271=ADVANCED_FACE('',(#60),#36,.F.);
#272=ADVANCED_FACE('',(#61),#37,.F.);
#273=ADVANCED_FACE('',(#62),#38,.F.);
#274=ADVANCED_FACE('',(#63),#39,.T.);
#275=ADVANCED_FACE('',(#64),#40,.F.);
#276=ADVANCED_FACE('',(#65),#41,.F.);
#277=ADVANCED_FACE('',(#66),#42,.F.);
#278=ADVANCED_FACE('',(#67),#242,.T.);
#279=ADVANCED_FACE('',(#68),#243,.T.);
#280=ADVANCED_FACE('',(#69),#244,.T.);
#281=ADVANCED_FACE('',(#70),#245,.T.);
#282=ADVANCED_FACE('',(#71),#43,.T.);
#283=ADVANCED_FACE('',(#72),#23,.T.);
#284=ADVANCED_FACE('',(#73),#24,.T.);
#285=ADVANCED_FACE('',(#74),#44,.T.);
#286=ADVANCED_FACE('',(#75),#45,.T.);
#287=ADVANCED_FACE('',(#76),#25,.T.);
#288=ADVANCED_FACE('',(#77),#26,.T.);
#289=ADVANCED_FACE('',(#78),#46,.T.);
#290=ADVANCED_FACE('',(#79),#47,.F.);
#291=ADVANCED_FACE('',(#80),#27,.T.);
#292=ADVANCED_FACE('',(#81),#28,.T.);
#293=ADVANCED_FACE('',(#82),#48,.F.);
#294=ADVANCED_FACE('',(#83),#49,.F.);
#295=ADVANCED_FACE('',(#84),#29,.T.);
#296=ADVANCED_FACE('',(#85),#30,.T.);
#297=ADVANCED_FACE('',(#86),#50,.F.);
#298=TOROIDAL_SURFACE('',#801,7.00000000000001,2.5);
#299=TOROIDAL_SURFACE('',#805,6.99999999999998,2.5);
#300=TOROIDAL_SURFACE('',#809,7.00000000000006,2.5);
#301=TOROIDAL_SURFACE('',#813,6.9999999999999,2.5);
#302=TOROIDAL_SURFACE('',#817,6.99999999999991,2.5);
#303=TOROIDAL_SURFACE('',#821,7.00000000000006,2.5);
#304=TOROIDAL_SURFACE('',#825,6.99999999999998,2.5);
#305=TOROIDAL_SURFACE('',#829,6.99999999999998,2.5);
#306=FACE_BOUND('',#338,.T.);
#307=FACE_BOUND('',#339,.T.);
#308=FACE_BOUND('',#340,.T.);
#309=FACE_BOUND('',#341,.T.);
#310=FACE_BOUND('',#342,.T.);
#311=FACE_BOUND('',#343,.T.);
#312=FACE_BOUND('',#344,.T.);
#313=FACE_BOUND('',#345,.T.);
#314=FACE_BOUND('',#346,.T.);
#315=FACE_BOUND('',#347,.T.);
#316=FACE_BOUND('',#348,.T.);
#317=FACE_BOUND('',#349,.T.);
#318=FACE_BOUND('',#350,.T.);
#319=FACE_BOUND('',#351,.T.);
#320=FACE_BOUND('',#352,.T.);
#321=FACE_BOUND('',#353,.T.);
#322=FACE_BOUND('',#354,.T.);
#323=FACE_BOUND('',#355,.T.);
#324=FACE_BOUND('',#356,.T.);
#325=FACE_BOUND('',#357,.T.);
#326=FACE_BOUND('',#358,.T.);
#327=FACE_BOUND('',#359,.T.);
#328=FACE_BOUND('',#360,.T.);
#329=FACE_BOUND('',#361,.T.);
#330=FACE_BOUND('',#362,.T.);
#331=FACE_BOUND('',#363,.T.);
#332=FACE_BOUND('',#364,.T.);
#333=FACE_BOUND('',#365,.T.);
#334=FACE_BOUND('',#366,.T.);
#335=FACE_BOUND('',#367,.T.);
#336=FACE_BOUND('',#368,.T.);
#337=FACE_BOUND('',#369,.T.);
#338=EDGE_LOOP('',(#406));
#339=EDGE_LOOP('',(#407));
#340=EDGE_LOOP('',(#408));
#341=EDGE_LOOP('',(#409));
#342=EDGE_LOOP('',(#410));
#343=EDGE_LOOP('',(#411));
#344=EDGE_LOOP('',(#412));
#345=EDGE_LOOP('',(#413));
#346=EDGE_LOOP('',(#414));
#347=EDGE_LOOP('',(#415));
#348=EDGE_LOOP('',(#416));
#349=EDGE_LOOP('',(#417));
#350=EDGE_LOOP('',(#418));
#351=EDGE_LOOP('',(#419));
#352=EDGE_LOOP('',(#420));
#353=EDGE_LOOP('',(#421));
#354=EDGE_LOOP('',(#422));
#355=EDGE_LOOP('',(#423));
#356=EDGE_LOOP('',(#424));
#357=EDGE_LOOP('',(#425));
#358=EDGE_LOOP('',(#426));
#359=EDGE_LOOP('',(#427));
#360=EDGE_LOOP('',(#428));
#361=EDGE_LOOP('',(#429));
#362=EDGE_LOOP('',(#430));
#363=EDGE_LOOP('',(#431));
#364=EDGE_LOOP('',(#432));
#365=EDGE_LOOP('',(#433));
#366=EDGE_LOOP('',(#434));
#367=EDGE_LOOP('',(#435));
#368=EDGE_LOOP('',(#436));
#369=EDGE_LOOP('',(#437));
#370=EDGE_LOOP('',(#438,#439,#440,#441));
#371=EDGE_LOOP('',(#442,#443,#444,#445));
#372=EDGE_LOOP('',(#446,#447,#448,#449));
#373=EDGE_LOOP('',(#450,#451,#452,#453));
#374=EDGE_LOOP('',(#454,#455,#456,#457));
#375=EDGE_LOOP('',(#458,#459,#460,#461));
#376=EDGE_LOOP('',(#462,#463,#464,#465));
#377=EDGE_LOOP('',(#466,#467,#468,#469));
#378=EDGE_LOOP('',(#470,#471,#472,#473,#474,#475,#476,#477));
#379=EDGE_LOOP('',(#478,#479,#480,#481,#482,#483,#484,#485));
#380=EDGE_LOOP('',(#486,#487,#488,#489,#490,#491,#492,#493));
#381=EDGE_LOOP('',(#494,#495,#496,#497));
#382=EDGE_LOOP('',(#498,#499,#500,#501,#502,#503,#504,#505));
#383=EDGE_LOOP('',(#506,#507,#508,#509));
#384=EDGE_LOOP('',(#510,#511,#512,#513));
#385=EDGE_LOOP('',(#514,#515,#516,#517));
#386=EDGE_LOOP('',(#518,#519,#520,#521));
#387=EDGE_LOOP('',(#522,#523,#524,#525));
#388=EDGE_LOOP('',(#526,#527,#528,#529));
#389=EDGE_LOOP('',(#530,#531,#532,#533));
#390=EDGE_LOOP('',(#534,#535,#536,#537));
#391=EDGE_LOOP('',(#538,#539,#540,#541));
#392=EDGE_LOOP('',(#542,#543,#544,#545));
#393=EDGE_LOOP('',(#546,#547,#548,#549));
#394=EDGE_LOOP('',(#550,#551,#552,#553));
#395=EDGE_LOOP('',(#554,#555,#556,#557));
#396=EDGE_LOOP('',(#558,#559,#560,#561));
#397=EDGE_LOOP('',(#562,#563,#564,#565));
#398=EDGE_LOOP('',(#566,#567,#568,#569));
#399=EDGE_LOOP('',(#570,#571,#572,#573));
#400=EDGE_LOOP('',(#574,#575,#576,#577));
#401=EDGE_LOOP('',(#578,#579,#580,#581));
#402=EDGE_LOOP('',(#582,#583,#584,#585));
#403=EDGE_LOOP('',(#586,#587,#588,#589));
#404=EDGE_LOOP('',(#590,#591,#592,#593));
#405=EDGE_LOOP('',(#594,#595,#596,#597));
#406=ORIENTED_EDGE('',*,*,#662,.T.);
#407=ORIENTED_EDGE('',*,*,#663,.F.);
#408=ORIENTED_EDGE('',*,*,#664,.T.);
#409=ORIENTED_EDGE('',*,*,#662,.F.);
#410=ORIENTED_EDGE('',*,*,#665,.T.);
#411=ORIENTED_EDGE('',*,*,#664,.F.);
#412=ORIENTED_EDGE('',*,*,#666,.T.);
#413=ORIENTED_EDGE('',*,*,#665,.F.);
#414=ORIENTED_EDGE('',*,*,#667,.T.);
#415=ORIENTED_EDGE('',*,*,#666,.F.);
#416=ORIENTED_EDGE('',*,*,#668,.T.);
#417=ORIENTED_EDGE('',*,*,#667,.F.);
#418=ORIENTED_EDGE('',*,*,#669,.T.);
#419=ORIENTED_EDGE('',*,*,#668,.F.);
#420=ORIENTED_EDGE('',*,*,#670,.T.);
#421=ORIENTED_EDGE('',*,*,#669,.F.);
#422=ORIENTED_EDGE('',*,*,#671,.T.);
#423=ORIENTED_EDGE('',*,*,#670,.F.);
#424=ORIENTED_EDGE('',*,*,#672,.T.);
#425=ORIENTED_EDGE('',*,*,#671,.F.);
#426=ORIENTED_EDGE('',*,*,#673,.T.);
#427=ORIENTED_EDGE('',*,*,#672,.F.);
#428=ORIENTED_EDGE('',*,*,#674,.T.);
#429=ORIENTED_EDGE('',*,*,#673,.F.);
#430=ORIENTED_EDGE('',*,*,#675,.T.);
#431=ORIENTED_EDGE('',*,*,#674,.F.);
#432=ORIENTED_EDGE('',*,*,#676,.T.);
#433=ORIENTED_EDGE('',*,*,#675,.F.);
#434=ORIENTED_EDGE('',*,*,#676,.F.);
#435=ORIENTED_EDGE('',*,*,#677,.T.);
#436=ORIENTED_EDGE('',*,*,#677,.F.);
#437=ORIENTED_EDGE('',*,*,#663,.T.);
#438=ORIENTED_EDGE('',*,*,#678,.T.);
#439=ORIENTED_EDGE('',*,*,#679,.F.);
#440=ORIENTED_EDGE('',*,*,#680,.F.);
#441=ORIENTED_EDGE('',*,*,#681,.T.);
#442=ORIENTED_EDGE('',*,*,#682,.T.);
#443=ORIENTED_EDGE('',*,*,#683,.F.);
#444=ORIENTED_EDGE('',*,*,#684,.F.);
#445=ORIENTED_EDGE('',*,*,#679,.T.);
#446=ORIENTED_EDGE('',*,*,#685,.T.);
#447=ORIENTED_EDGE('',*,*,#686,.F.);
#448=ORIENTED_EDGE('',*,*,#687,.F.);
#449=ORIENTED_EDGE('',*,*,#683,.T.);
#450=ORIENTED_EDGE('',*,*,#688,.T.);
#451=ORIENTED_EDGE('',*,*,#689,.F.);
#452=ORIENTED_EDGE('',*,*,#690,.F.);
#453=ORIENTED_EDGE('',*,*,#686,.T.);
#454=ORIENTED_EDGE('',*,*,#691,.T.);
#455=ORIENTED_EDGE('',*,*,#692,.F.);
#456=ORIENTED_EDGE('',*,*,#693,.F.);
#457=ORIENTED_EDGE('',*,*,#689,.T.);
#458=ORIENTED_EDGE('',*,*,#694,.T.);
#459=ORIENTED_EDGE('',*,*,#695,.F.);
#460=ORIENTED_EDGE('',*,*,#696,.F.);
#461=ORIENTED_EDGE('',*,*,#692,.T.);
#462=ORIENTED_EDGE('',*,*,#697,.T.);
#463=ORIENTED_EDGE('',*,*,#698,.F.);
#464=ORIENTED_EDGE('',*,*,#699,.F.);
#465=ORIENTED_EDGE('',*,*,#695,.T.);
#466=ORIENTED_EDGE('',*,*,#700,.T.);
#467=ORIENTED_EDGE('',*,*,#681,.F.);
#468=ORIENTED_EDGE('',*,*,#701,.F.);
#469=ORIENTED_EDGE('',*,*,#698,.T.);
#470=ORIENTED_EDGE('',*,*,#680,.T.);
#471=ORIENTED_EDGE('',*,*,#684,.T.);
#472=ORIENTED_EDGE('',*,*,#687,.T.);
#473=ORIENTED_EDGE('',*,*,#690,.T.);
#474=ORIENTED_EDGE('',*,*,#693,.T.);
#475=ORIENTED_EDGE('',*,*,#696,.T.);
#476=ORIENTED_EDGE('',*,*,#699,.T.);
#477=ORIENTED_EDGE('',*,*,#701,.T.);
#478=ORIENTED_EDGE('',*,*,#678,.F.);
#479=ORIENTED_EDGE('',*,*,#700,.F.);
#480=ORIENTED_EDGE('',*,*,#697,.F.);
#481=ORIENTED_EDGE('',*,*,#694,.F.);
#482=ORIENTED_EDGE('',*,*,#691,.F.);
#483=ORIENTED_EDGE('',*,*,#688,.F.);
#484=ORIENTED_EDGE('',*,*,#685,.F.);
#485=ORIENTED_EDGE('',*,*,#682,.F.);
#486=ORIENTED_EDGE('',*,*,#702,.T.);
#487=ORIENTED_EDGE('',*,*,#703,.T.);
#488=ORIENTED_EDGE('',*,*,#704,.T.);
#489=ORIENTED_EDGE('',*,*,#705,.T.);
#490=ORIENTED_EDGE('',*,*,#706,.T.);
#491=ORIENTED_EDGE('',*,*,#707,.T.);
#492=ORIENTED_EDGE('',*,*,#708,.T.);
#493=ORIENTED_EDGE('',*,*,#709,.T.);
#494=ORIENTED_EDGE('',*,*,#710,.T.);
#495=ORIENTED_EDGE('',*,*,#711,.T.);
#496=ORIENTED_EDGE('',*,*,#712,.T.);
#497=ORIENTED_EDGE('',*,*,#713,.T.);
#498=ORIENTED_EDGE('',*,*,#714,.T.);
#499=ORIENTED_EDGE('',*,*,#715,.T.);
#500=ORIENTED_EDGE('',*,*,#716,.T.);
#501=ORIENTED_EDGE('',*,*,#717,.T.);
#502=ORIENTED_EDGE('',*,*,#718,.T.);
#503=ORIENTED_EDGE('',*,*,#719,.T.);
#504=ORIENTED_EDGE('',*,*,#720,.T.);
#505=ORIENTED_EDGE('',*,*,#721,.T.);
#506=ORIENTED_EDGE('',*,*,#722,.T.);
#507=ORIENTED_EDGE('',*,*,#723,.T.);
#508=ORIENTED_EDGE('',*,*,#724,.T.);
#509=ORIENTED_EDGE('',*,*,#725,.T.);
#510=ORIENTED_EDGE('',*,*,#726,.T.);
#511=ORIENTED_EDGE('',*,*,#727,.T.);
#512=ORIENTED_EDGE('',*,*,#728,.T.);
#513=ORIENTED_EDGE('',*,*,#729,.T.);
#514=ORIENTED_EDGE('',*,*,#730,.T.);
#515=ORIENTED_EDGE('',*,*,#731,.T.);
#516=ORIENTED_EDGE('',*,*,#732,.T.);
#517=ORIENTED_EDGE('',*,*,#733,.T.);
#518=ORIENTED_EDGE('',*,*,#712,.F.);
#519=ORIENTED_EDGE('',*,*,#734,.T.);
#520=ORIENTED_EDGE('',*,*,#722,.F.);
#521=ORIENTED_EDGE('',*,*,#735,.T.);
#522=ORIENTED_EDGE('',*,*,#728,.F.);
#523=ORIENTED_EDGE('',*,*,#736,.T.);
#524=ORIENTED_EDGE('',*,*,#710,.F.);
#525=ORIENTED_EDGE('',*,*,#737,.T.);
#526=ORIENTED_EDGE('',*,*,#724,.F.);
#527=ORIENTED_EDGE('',*,*,#738,.T.);
#528=ORIENTED_EDGE('',*,*,#730,.F.);
#529=ORIENTED_EDGE('',*,*,#739,.T.);
#530=ORIENTED_EDGE('',*,*,#732,.F.);
#531=ORIENTED_EDGE('',*,*,#740,.T.);
#532=ORIENTED_EDGE('',*,*,#726,.F.);
#533=ORIENTED_EDGE('',*,*,#741,.T.);
#534=ORIENTED_EDGE('',*,*,#742,.F.);
#535=ORIENTED_EDGE('',*,*,#711,.F.);
#536=ORIENTED_EDGE('',*,*,#743,.F.);
#537=ORIENTED_EDGE('',*,*,#719,.F.);
#538=ORIENTED_EDGE('',*,*,#743,.T.);
#539=ORIENTED_EDGE('',*,*,#736,.F.);
#540=ORIENTED_EDGE('',*,*,#744,.F.);
#541=ORIENTED_EDGE('',*,*,#720,.F.);
#542=ORIENTED_EDGE('',*,*,#742,.T.);
#543=ORIENTED_EDGE('',*,*,#718,.F.);
#544=ORIENTED_EDGE('',*,*,#745,.F.);
#545=ORIENTED_EDGE('',*,*,#734,.F.);
#546=ORIENTED_EDGE('',*,*,#744,.T.);
#547=ORIENTED_EDGE('',*,*,#727,.F.);
#548=ORIENTED_EDGE('',*,*,#746,.F.);
#549=ORIENTED_EDGE('',*,*,#721,.F.);
#550=ORIENTED_EDGE('',*,*,#745,.T.);
#551=ORIENTED_EDGE('',*,*,#717,.F.);
#552=ORIENTED_EDGE('',*,*,#747,.F.);
#553=ORIENTED_EDGE('',*,*,#723,.F.);
#554=ORIENTED_EDGE('',*,*,#746,.T.);
#555=ORIENTED_EDGE('',*,*,#740,.F.);
#556=ORIENTED_EDGE('',*,*,#748,.F.);
#557=ORIENTED_EDGE('',*,*,#714,.F.);
#558=ORIENTED_EDGE('',*,*,#747,.T.);
#559=ORIENTED_EDGE('',*,*,#716,.F.);
#560=ORIENTED_EDGE('',*,*,#749,.F.);
#561=ORIENTED_EDGE('',*,*,#738,.F.);
#562=ORIENTED_EDGE('',*,*,#748,.T.);
#563=ORIENTED_EDGE('',*,*,#731,.F.);
#564=ORIENTED_EDGE('',*,*,#749,.T.);
#565=ORIENTED_EDGE('',*,*,#715,.F.);
#566=ORIENTED_EDGE('',*,*,#750,.F.);
#567=ORIENTED_EDGE('',*,*,#713,.F.);
#568=ORIENTED_EDGE('',*,*,#751,.F.);
#569=ORIENTED_EDGE('',*,*,#707,.F.);
#570=ORIENTED_EDGE('',*,*,#751,.T.);
#571=ORIENTED_EDGE('',*,*,#735,.F.);
#572=ORIENTED_EDGE('',*,*,#752,.F.);
#573=ORIENTED_EDGE('',*,*,#708,.F.);
#574=ORIENTED_EDGE('',*,*,#750,.T.);
#575=ORIENTED_EDGE('',*,*,#706,.F.);
#576=ORIENTED_EDGE('',*,*,#753,.F.);
#577=ORIENTED_EDGE('',*,*,#737,.F.);
#578=ORIENTED_EDGE('',*,*,#752,.T.);
#579=ORIENTED_EDGE('',*,*,#725,.F.);
#580=ORIENTED_EDGE('',*,*,#754,.F.);
#581=ORIENTED_EDGE('',*,*,#709,.F.);
#582=ORIENTED_EDGE('',*,*,#753,.T.);
#583=ORIENTED_EDGE('',*,*,#705,.F.);
#584=ORIENTED_EDGE('',*,*,#755,.F.);
#585=ORIENTED_EDGE('',*,*,#729,.F.);
#586=ORIENTED_EDGE('',*,*,#754,.T.);
#587=ORIENTED_EDGE('',*,*,#739,.F.);
#588=ORIENTED_EDGE('',*,*,#756,.F.);
#589=ORIENTED_EDGE('',*,*,#702,.F.);
#590=ORIENTED_EDGE('',*,*,#755,.T.);
#591=ORIENTED_EDGE('',*,*,#704,.F.);
#592=ORIENTED_EDGE('',*,*,#757,.F.);
#593=ORIENTED_EDGE('',*,*,#741,.F.);
#594=ORIENTED_EDGE('',*,*,#756,.T.);
#595=ORIENTED_EDGE('',*,*,#733,.F.);
#596=ORIENTED_EDGE('',*,*,#757,.T.);
#597=ORIENTED_EDGE('',*,*,#703,.F.);
#598=VERTEX_POINT('',#1135);
#599=VERTEX_POINT('',#1137);
#600=VERTEX_POINT('',#1140);
#601=VERTEX_POINT('',#1143);
#602=VERTEX_POINT('',#1146);
#603=VERTEX_POINT('',#1149);
#604=VERTEX_POINT('',#1152);
#605=VERTEX_POINT('',#1155);
#606=VERTEX_POINT('',#1158);
#607=VERTEX_POINT('',#1161);
#608=VERTEX_POINT('',#1164);
#609=VERTEX_POINT('',#1167);
#610=VERTEX_POINT('',#1170);
#611=VERTEX_POINT('',#1173);
#612=VERTEX_POINT('',#1176);
#613=VERTEX_POINT('',#1179);
#614=VERTEX_POINT('',#1183);
#615=VERTEX_POINT('',#1184);
#616=VERTEX_POINT('',#1186);
#617=VERTEX_POINT('',#1188);
#618=VERTEX_POINT('',#1192);
#619=VERTEX_POINT('',#1194);
#620=VERTEX_POINT('',#1198);
#621=VERTEX_POINT('',#1200);
#622=VERTEX_POINT('',#1204);
#623=VERTEX_POINT('',#1206);
#624=VERTEX_POINT('',#1210);
#625=VERTEX_POINT('',#1212);
#626=VERTEX_POINT('',#1216);
#627=VERTEX_POINT('',#1218);
#628=VERTEX_POINT('',#1222);
#629=VERTEX_POINT('',#1224);
#630=VERTEX_POINT('',#1233);
#631=VERTEX_POINT('',#1234);
#632=VERTEX_POINT('',#1236);
#633=VERTEX_POINT('',#1238);
#634=VERTEX_POINT('',#1240);
#635=VERTEX_POINT('',#1242);
#636=VERTEX_POINT('',#1244);
#637=VERTEX_POINT('',#1246);
#638=VERTEX_POINT('',#1250);
#639=VERTEX_POINT('',#1251);
#640=VERTEX_POINT('',#1253);
#641=VERTEX_POINT('',#1255);
#642=VERTEX_POINT('',#1259);
#643=VERTEX_POINT('',#1260);
#644=VERTEX_POINT('',#1262);
#645=VERTEX_POINT('',#1264);
#646=VERTEX_POINT('',#1266);
#647=VERTEX_POINT('',#1268);
#648=VERTEX_POINT('',#1270);
#649=VERTEX_POINT('',#1272);
#650=VERTEX_POINT('',#1276);
#651=VERTEX_POINT('',#1277);
#652=VERTEX_POINT('',#1279);
#653=VERTEX_POINT('',#1281);
#654=VERTEX_POINT('',#1285);
#655=VERTEX_POINT('',#1286);
#656=VERTEX_POINT('',#1288);
#657=VERTEX_POINT('',#1290);
#658=VERTEX_POINT('',#1294);
#659=VERTEX_POINT('',#1295);
#660=VERTEX_POINT('',#1297);
#661=VERTEX_POINT('',#1299);
#662=EDGE_CURVE('',#598,#598,#758,.T.);
#663=EDGE_CURVE('',#599,#599,#759,.T.);
#664=EDGE_CURVE('',#600,#600,#760,.T.);
#665=EDGE_CURVE('',#601,#601,#761,.T.);
#666=EDGE_CURVE('',#602,#602,#762,.T.);
#667=EDGE_CURVE('',#603,#603,#763,.T.);
#668=EDGE_CURVE('',#604,#604,#764,.T.);
#669=EDGE_CURVE('',#605,#605,#765,.T.);
#670=EDGE_CURVE('',#606,#606,#766,.T.);
#671=EDGE_CURVE('',#607,#607,#767,.T.);
#672=EDGE_CURVE('',#608,#608,#768,.T.);
#673=EDGE_CURVE('',#609,#609,#769,.T.);
#674=EDGE_CURVE('',#610,#610,#770,.T.);
#675=EDGE_CURVE('',#611,#611,#771,.T.);
#676=EDGE_CURVE('',#612,#612,#772,.T.);
#677=EDGE_CURVE('',#613,#613,#773,.T.);
#678=EDGE_CURVE('',#614,#615,#87,.T.);
#679=EDGE_CURVE('',#616,#615,#88,.T.);
#680=EDGE_CURVE('',#617,#616,#89,.T.);
#681=EDGE_CURVE('',#617,#614,#90,.T.);
#682=EDGE_CURVE('',#615,#618,#774,.T.);
#683=EDGE_CURVE('',#619,#618,#91,.T.);
#684=EDGE_CURVE('',#616,#619,#775,.T.);
#685=EDGE_CURVE('',#618,#620,#92,.T.);
#686=EDGE_CURVE('',#621,#620,#93,.T.);
#687=EDGE_CURVE('',#619,#621,#94,.T.);
#688=EDGE_CURVE('',#620,#622,#776,.T.);
#689=EDGE_CURVE('',#623,#622,#95,.T.);
#690=EDGE_CURVE('',#621,#623,#777,.T.);
#691=EDGE_CURVE('',#622,#624,#96,.T.);
#692=EDGE_CURVE('',#625,#624,#97,.T.);
#693=EDGE_CURVE('',#623,#625,#98,.T.);
#694=EDGE_CURVE('',#624,#626,#778,.T.);
#695=EDGE_CURVE('',#627,#626,#99,.T.);
#696=EDGE_CURVE('',#625,#627,#779,.T.);
#697=EDGE_CURVE('',#626,#628,#100,.T.);
#698=EDGE_CURVE('',#629,#628,#101,.T.);
#699=EDGE_CURVE('',#627,#629,#102,.T.);
#700=EDGE_CURVE('',#628,#614,#780,.T.);
#701=EDGE_CURVE('',#629,#617,#781,.T.);
#702=EDGE_CURVE('',#630,#631,#782,.T.);
#703=EDGE_CURVE('',#631,#632,#103,.T.);
#704=EDGE_CURVE('',#632,#633,#783,.T.);
#705=EDGE_CURVE('',#633,#634,#104,.T.);
#706=EDGE_CURVE('',#634,#635,#784,.T.);
#707=EDGE_CURVE('',#635,#636,#105,.T.);
#708=EDGE_CURVE('',#636,#637,#785,.T.);
#709=EDGE_CURVE('',#637,#630,#106,.T.);
#710=EDGE_CURVE('',#638,#639,#107,.T.);
#711=EDGE_CURVE('',#639,#640,#108,.T.);
#712=EDGE_CURVE('',#640,#641,#109,.T.);
#713=EDGE_CURVE('',#641,#638,#110,.T.);
#714=EDGE_CURVE('',#642,#643,#786,.T.);
#715=EDGE_CURVE('',#643,#644,#111,.T.);
#716=EDGE_CURVE('',#644,#645,#787,.T.);
#717=EDGE_CURVE('',#645,#646,#112,.T.);
#718=EDGE_CURVE('',#646,#647,#788,.T.);
#719=EDGE_CURVE('',#647,#648,#113,.T.);
#720=EDGE_CURVE('',#648,#649,#789,.T.);
#721=EDGE_CURVE('',#649,#642,#114,.T.);
#722=EDGE_CURVE('',#650,#651,#115,.T.);
#723=EDGE_CURVE('',#651,#652,#116,.T.);
#724=EDGE_CURVE('',#652,#653,#117,.T.);
#725=EDGE_CURVE('',#653,#650,#118,.T.);
#726=EDGE_CURVE('',#654,#655,#119,.T.);
#727=EDGE_CURVE('',#655,#656,#120,.T.);
#728=EDGE_CURVE('',#656,#657,#121,.T.);
#729=EDGE_CURVE('',#657,#654,#122,.T.);
#730=EDGE_CURVE('',#658,#659,#123,.T.);
#731=EDGE_CURVE('',#659,#660,#124,.T.);
#732=EDGE_CURVE('',#660,#661,#125,.T.);
#733=EDGE_CURVE('',#661,#658,#126,.T.);
#734=EDGE_CURVE('',#640,#651,#790,.T.);
#735=EDGE_CURVE('',#650,#641,#791,.T.);
#736=EDGE_CURVE('',#656,#639,#792,.T.);
#737=EDGE_CURVE('',#638,#657,#793,.T.);
#738=EDGE_CURVE('',#652,#659,#794,.T.);
#739=EDGE_CURVE('',#658,#653,#795,.T.);
#740=EDGE_CURVE('',#660,#655,#796,.T.);
#741=EDGE_CURVE('',#654,#661,#797,.T.);
#742=EDGE_CURVE('',#640,#647,#127,.T.);
#743=EDGE_CURVE('',#648,#639,#128,.T.);
#744=EDGE_CURVE('',#649,#656,#129,.T.);
#745=EDGE_CURVE('',#651,#646,#130,.T.);
#746=EDGE_CURVE('',#642,#655,#131,.T.);
#747=EDGE_CURVE('',#652,#645,#132,.T.);
#748=EDGE_CURVE('',#643,#660,#133,.T.);
#749=EDGE_CURVE('',#659,#644,#134,.T.);
#750=EDGE_CURVE('',#638,#635,#135,.T.);
#751=EDGE_CURVE('',#636,#641,#136,.T.);
#752=EDGE_CURVE('',#637,#650,#137,.T.);
#753=EDGE_CURVE('',#657,#634,#138,.T.);
#754=EDGE_CURVE('',#630,#653,#139,.T.);
#755=EDGE_CURVE('',#654,#633,#140,.T.);
#756=EDGE_CURVE('',#631,#658,#141,.T.);
#757=EDGE_CURVE('',#661,#632,#142,.T.);
#758=CIRCLE('',#799,2.5);
#759=CIRCLE('',#800,2.5);
#760=CIRCLE('',#802,2.5);
#761=CIRCLE('',#804,2.5);
#762=CIRCLE('',#806,2.5);
#763=CIRCLE('',#808,2.5);
#764=CIRCLE('',#810,2.5);
#765=CIRCLE('',#812,2.5);
#766=CIRCLE('',#814,2.5);
#767=CIRCLE('',#816,2.5);
#768=CIRCLE('',#818,2.5);
#769=CIRCLE('',#820,2.5);
#770=CIRCLE('',#822,2.5);
#771=CIRCLE('',#824,2.5);
#772=CIRCLE('',#826,2.5);
#773=CIRCLE('',#828,2.5);
#774=CIRCLE('',#832,7.00000000000009);
#775=CIRCLE('',#833,7.00000000000009);
#776=CIRCLE('',#836,7.00000000000009);
#777=CIRCLE('',#837,7.00000000000009);
#778=CIRCLE('',#840,6.99999999999994);
#779=CIRCLE('',#841,6.99999999999994);
#780=CIRCLE('',#844,6.99999999999994);
#781=CIRCLE('',#845,6.99999999999994);
#782=CIRCLE('',#849,5.99999999999988);
#783=CIRCLE('',#850,5.99999999999988);
#784=CIRCLE('',#851,5.99999999999988);
#785=CIRCLE('',#852,5.99999999999988);
#786=CIRCLE('',#855,5.99999999999997);
#787=CIRCLE('',#856,5.99999999999997);
#788=CIRCLE('',#857,5.99999999999997);
#789=CIRCLE('',#858,5.99999999999997);
#790=CIRCLE('',#863,11.);
#791=CIRCLE('',#864,11.);
#792=CIRCLE('',#866,11.);
#793=CIRCLE('',#867,11.);
#794=CIRCLE('',#869,11.);
#795=CIRCLE('',#870,11.);
#796=CIRCLE('',#872,11.);
#797=CIRCLE('',#873,11.);
#798=AXIS2_PLACEMENT_3D('',#1133,#891,#892);
#799=AXIS2_PLACEMENT_3D('',#1134,#893,#894);
#800=AXIS2_PLACEMENT_3D('',#1136,#895,#896);
#801=AXIS2_PLACEMENT_3D('',#1138,#897,#898);
#802=AXIS2_PLACEMENT_3D('',#1139,#899,#900);
#803=AXIS2_PLACEMENT_3D('',#1141,#901,#902);
#804=AXIS2_PLACEMENT_3D('',#1142,#903,#904);
#805=AXIS2_PLACEMENT_3D('',#1144,#905,#906);
#806=AXIS2_PLACEMENT_3D('',#1145,#907,#908);
#807=AXIS2_PLACEMENT_3D('',#1147,#909,#910);
#808=AXIS2_PLACEMENT_3D('',#1148,#911,#912);
#809=AXIS2_PLACEMENT_3D('',#1150,#913,#914);
#810=AXIS2_PLACEMENT_3D('',#1151,#915,#916);
#811=AXIS2_PLACEMENT_3D('',#1153,#917,#918);
#812=AXIS2_PLACEMENT_3D('',#1154,#919,#920);
#813=AXIS2_PLACEMENT_3D('',#1156,#921,#922);
#814=AXIS2_PLACEMENT_3D('',#1157,#923,#924);
#815=AXIS2_PLACEMENT_3D('',#1159,#925,#926);
#816=AXIS2_PLACEMENT_3D('',#1160,#927,#928);
#817=AXIS2_PLACEMENT_3D('',#1162,#929,#930);
#818=AXIS2_PLACEMENT_3D('',#1163,#931,#932);
#819=AXIS2_PLACEMENT_3D('',#1165,#933,#934);
#820=AXIS2_PLACEMENT_3D('',#1166,#935,#936);
#821=AXIS2_PLACEMENT_3D('',#1168,#937,#938);
#822=AXIS2_PLACEMENT_3D('',#1169,#939,#940);
#823=AXIS2_PLACEMENT_3D('',#1171,#941,#942);
#824=AXIS2_PLACEMENT_3D('',#1172,#943,#944);
#825=AXIS2_PLACEMENT_3D('',#1174,#945,#946);
#826=AXIS2_PLACEMENT_3D('',#1175,#947,#948);
#827=AXIS2_PLACEMENT_3D('',#1177,#949,#950);
#828=AXIS2_PLACEMENT_3D('',#1178,#951,#952);
#829=AXIS2_PLACEMENT_3D('',#1180,#953,#954);
#830=AXIS2_PLACEMENT_3D('',#1181,#955,#956);
#831=AXIS2_PLACEMENT_3D('',#1190,#961,#962);
#832=AXIS2_PLACEMENT_3D('',#1191,#963,#964);
#833=AXIS2_PLACEMENT_3D('',#1195,#966,#967);
#834=AXIS2_PLACEMENT_3D('',#1196,#968,#969);
#835=AXIS2_PLACEMENT_3D('',#1202,#973,#974);
#836=AXIS2_PLACEMENT_3D('',#1203,#975,#976);
#837=AXIS2_PLACEMENT_3D('',#1207,#978,#979);
#838=AXIS2_PLACEMENT_3D('',#1208,#980,#981);
#839=AXIS2_PLACEMENT_3D('',#1214,#985,#986);
#840=AXIS2_PLACEMENT_3D('',#1215,#987,#988);
#841=AXIS2_PLACEMENT_3D('',#1219,#990,#991);
#842=AXIS2_PLACEMENT_3D('',#1220,#992,#993);
#843=AXIS2_PLACEMENT_3D('',#1226,#997,#998);
#844=AXIS2_PLACEMENT_3D('',#1227,#999,#1000);
#845=AXIS2_PLACEMENT_3D('',#1228,#1001,#1002);
#846=AXIS2_PLACEMENT_3D('',#1229,#1003,#1004);
#847=AXIS2_PLACEMENT_3D('',#1230,#1005,#1006);
#848=AXIS2_PLACEMENT_3D('',#1231,#1007,#1008);
#849=AXIS2_PLACEMENT_3D('',#1232,#1009,#1010);
#850=AXIS2_PLACEMENT_3D('',#1237,#1012,#1013);
#851=AXIS2_PLACEMENT_3D('',#1241,#1015,#1016);
#852=AXIS2_PLACEMENT_3D('',#1245,#1018,#1019);
#853=AXIS2_PLACEMENT_3D('',#1248,#1021,#1022);
#854=AXIS2_PLACEMENT_3D('',#1257,#1027,#1028);
#855=AXIS2_PLACEMENT_3D('',#1258,#1029,#1030);
#856=AXIS2_PLACEMENT_3D('',#1263,#1032,#1033);
#857=AXIS2_PLACEMENT_3D('',#1267,#1035,#1036);
#858=AXIS2_PLACEMENT_3D('',#1271,#1038,#1039);
#859=AXIS2_PLACEMENT_3D('',#1274,#1041,#1042);
#860=AXIS2_PLACEMENT_3D('',#1283,#1047,#1048);
#861=AXIS2_PLACEMENT_3D('',#1292,#1053,#1054);
#862=AXIS2_PLACEMENT_3D('',#1301,#1059,#1060);
#863=AXIS2_PLACEMENT_3D('',#1302,#1061,#1062);
#864=AXIS2_PLACEMENT_3D('',#1303,#1063,#1064);
#865=AXIS2_PLACEMENT_3D('',#1304,#1065,#1066);
#866=AXIS2_PLACEMENT_3D('',#1305,#1067,#1068);
#867=AXIS2_PLACEMENT_3D('',#1306,#1069,#1070);
#868=AXIS2_PLACEMENT_3D('',#1307,#1071,#1072);
#869=AXIS2_PLACEMENT_3D('',#1308,#1073,#1074);
#870=AXIS2_PLACEMENT_3D('',#1309,#1075,#1076);
#871=AXIS2_PLACEMENT_3D('',#1310,#1077,#1078);
#872=AXIS2_PLACEMENT_3D('',#1311,#1079,#1080);
#873=AXIS2_PLACEMENT_3D('',#1312,#1081,#1082);
#874=AXIS2_PLACEMENT_3D('',#1313,#1083,#1084);
#875=AXIS2_PLACEMENT_3D('',#1316,#1087,#1088);
#876=AXIS2_PLACEMENT_3D('',#1318,#1090,#1091);
#877=AXIS2_PLACEMENT_3D('',#1320,#1093,#1094);
#878=AXIS2_PLACEMENT_3D('',#1322,#1096,#1097);
#879=AXIS2_PLACEMENT_3D('',#1324,#1099,#1100);
#880=AXIS2_PLACEMENT_3D('',#1326,#1102,#1103);
#881=AXIS2_PLACEMENT_3D('',#1328,#1105,#1106);
#882=AXIS2_PLACEMENT_3D('',#1329,#1107,#1108);
#883=AXIS2_PLACEMENT_3D('',#1332,#1111,#1112);
#884=AXIS2_PLACEMENT_3D('',#1334,#1114,#1115);
#885=AXIS2_PLACEMENT_3D('',#1336,#1117,#1118);
#886=AXIS2_PLACEMENT_3D('',#1338,#1120,#1121);
#887=AXIS2_PLACEMENT_3D('',#1340,#1123,#1124);
#888=AXIS2_PLACEMENT_3D('',#1342,#1126,#1127);
#889=AXIS2_PLACEMENT_3D('',#1344,#1129,#1130);
#890=AXIS2_PLACEMENT_3D('',#1345,#1131,#1132);
#891=DIRECTION('',(0.,0.,1.));
#892=DIRECTION('',(1.,0.,0.));
#893=DIRECTION('',(1.33226762955019E-15,1.,0.));
#894=DIRECTION('',(-1.,1.38777878078145E-15,0.));
#895=DIRECTION('',(-1.,1.83758917935762E-15,0.));
#896=DIRECTION('',(0.,-1.,0.));
#897=DIRECTION('',(0.,0.,1.));
#898=DIRECTION('',(1.,0.,0.));
#899=DIRECTION('',(1.33226762955019E-15,1.,0.));
#900=DIRECTION('',(-1.,0.,0.));
#901=DIRECTION('',(0.,1.,0.));
#902=DIRECTION('',(0.,0.,1.));
#903=DIRECTION('',(1.,-8.26946079742758E-16,0.));
#904=DIRECTION('',(0.,1.,0.));
#905=DIRECTION('',(0.,0.,1.));
#906=DIRECTION('',(1.,0.,0.));
#907=DIRECTION('',(1.,-8.26946079742758E-16,0.));
#908=DIRECTION('',(1.38777878078145E-15,1.,0.));
#909=DIRECTION('',(1.,0.,0.));
#910=DIRECTION('',(0.,0.,-1.));
#911=DIRECTION('',(1.33226762955019E-15,1.,0.));
#912=DIRECTION('',(-1.,0.,0.));
#913=DIRECTION('',(0.,0.,-1.));
#914=DIRECTION('',(-1.,0.,0.));
#915=DIRECTION('',(1.33226762955019E-15,1.,0.));
#916=DIRECTION('',(-1.,0.,0.));
#917=DIRECTION('',(3.91843420455938E-17,1.,0.));
#918=DIRECTION('',(-1.,0.,0.));
#919=DIRECTION('',(1.,-8.26946079742758E-16,0.));
#920=DIRECTION('',(8.67361737988404E-16,1.,0.));
#921=DIRECTION('',(0.,0.,1.));
#922=DIRECTION('',(1.,0.,0.));
#923=DIRECTION('',(1.,-8.26946079742758E-16,0.));
#924=DIRECTION('',(8.67361737988404E-16,1.,0.));
#925=DIRECTION('',(1.,0.,0.));
#926=DIRECTION('',(0.,0.,-1.));
#927=DIRECTION('',(-3.21624529935327E-16,-1.,0.));
#928=DIRECTION('',(1.,0.,0.));
#929=DIRECTION('',(0.,0.,1.));
#930=DIRECTION('',(1.,0.,0.));
#931=DIRECTION('',(-3.21624529935327E-16,-1.,0.));
#932=DIRECTION('',(1.,0.,0.));
#933=DIRECTION('',(3.00413289016219E-16,-1.,0.));
#934=DIRECTION('',(1.,0.,0.));
#935=DIRECTION('',(1.,-8.26946079742758E-16,0.));
#936=DIRECTION('',(1.38777878078145E-15,1.,0.));
#937=DIRECTION('',(0.,0.,-1.));
#938=DIRECTION('',(-1.,0.,0.));
#939=DIRECTION('',(1.,-8.26946079742758E-16,0.));
#940=DIRECTION('',(0.,1.,0.));
#941=DIRECTION('',(1.,2.25569122463524E-16,0.));
#942=DIRECTION('',(0.,1.,0.));
#943=DIRECTION('',(-3.21624529935327E-16,-1.,0.));
#944=DIRECTION('',(1.,0.,0.));
#945=DIRECTION('',(0.,0.,1.));
#946=DIRECTION('',(1.,0.,0.));
#947=DIRECTION('',(-3.21624529935327E-16,-1.,0.));
#948=DIRECTION('',(1.,-3.46944695195361E-16,0.));
#949=DIRECTION('',(3.05609778821549E-16,-1.,0.));
#950=DIRECTION('',(1.,3.46944695195361E-16,0.));
#951=DIRECTION('',(-1.,1.83758917935762E-15,0.));
#952=DIRECTION('',(0.,-1.,0.));
#953=DIRECTION('',(0.,0.,-1.));
#954=DIRECTION('',(-1.,0.,0.));
#955=DIRECTION('',(1.,1.22464679914735E-16,0.));
#956=DIRECTION('',(0.,1.,0.));
#957=DIRECTION('',(0.,-1.,0.));
#958=DIRECTION('',(0.,0.,-1.));
#959=DIRECTION('',(0.,-1.,0.));
#960=DIRECTION('',(0.,0.,-1.));
#961=DIRECTION('',(1.,0.,0.));
#962=DIRECTION('',(0.,0.,-1.));
#963=DIRECTION('',(0.,0.,1.));
#964=DIRECTION('',(-1.,0.,0.));
#965=DIRECTION('',(0.,0.,-1.));
#966=DIRECTION('',(0.,0.,1.));
#967=DIRECTION('',(-1.,0.,0.));
#968=DIRECTION('',(0.,0.,-1.));
#969=DIRECTION('',(-1.,0.,0.));
#970=DIRECTION('',(1.,0.,0.));
#971=DIRECTION('',(0.,0.,-1.));
#972=DIRECTION('',(1.,0.,0.));
#973=DIRECTION('',(0.,1.,0.));
#974=DIRECTION('',(0.,0.,1.));
#975=DIRECTION('',(0.,0.,1.));
#976=DIRECTION('',(1.,0.,0.));
#977=DIRECTION('',(0.,0.,-1.));
#978=DIRECTION('',(0.,0.,1.));
#979=DIRECTION('',(1.,0.,0.));
#980=DIRECTION('',(0.,0.,-1.));
#981=DIRECTION('',(-1.,0.,0.));
#982=DIRECTION('',(0.,1.,0.));
#983=DIRECTION('',(0.,0.,-1.));
#984=DIRECTION('',(0.,1.,0.));
#985=DIRECTION('',(-1.,0.,0.));
#986=DIRECTION('',(0.,0.,1.));
#987=DIRECTION('',(0.,0.,1.));
#988=DIRECTION('',(1.,0.,0.));
#989=DIRECTION('',(0.,0.,-1.));
#990=DIRECTION('',(0.,0.,1.));
#991=DIRECTION('',(1.,0.,0.));
#992=DIRECTION('',(0.,0.,-1.));
#993=DIRECTION('',(-1.,0.,0.));
#994=DIRECTION('',(-1.,0.,0.));
#995=DIRECTION('',(0.,0.,-1.));
#996=DIRECTION('',(-1.,0.,0.));
#997=DIRECTION('',(0.,-1.,0.));
#998=DIRECTION('',(0.,0.,-1.));
#999=DIRECTION('',(0.,0.,1.));
#1000=DIRECTION('',(-1.,1.2390881971263E-16,0.));
#1001=DIRECTION('',(0.,0.,1.));
#1002=DIRECTION('',(-1.,1.2390881971263E-16,0.));
#1003=DIRECTION('',(0.,0.,-1.));
#1004=DIRECTION('',(-1.,0.,0.));
#1005=DIRECTION('',(0.,0.,1.));
#1006=DIRECTION('',(1.,0.,0.));
#1007=DIRECTION('',(0.,0.,1.));
#1008=DIRECTION('',(1.,0.,0.));
#1009=DIRECTION('',(0.,-1.,0.));
#1010=DIRECTION('',(0.,0.,1.));
#1011=DIRECTION('',(-1.,0.,0.));
#1012=DIRECTION('',(0.,-1.,0.));
#1013=DIRECTION('',(0.,0.,1.));
#1014=DIRECTION('',(0.,0.,-1.));
#1015=DIRECTION('',(0.,-1.,0.));
#1016=DIRECTION('',(0.,0.,1.));
#1017=DIRECTION('',(1.,0.,0.));
#1018=DIRECTION('',(0.,-1.,0.));
#1019=DIRECTION('',(0.,0.,1.));
#1020=DIRECTION('',(0.,0.,1.));
#1021=DIRECTION('',(0.,1.,0.));
#1022=DIRECTION('',(0.,0.,1.));
#1023=DIRECTION('',(0.,1.,0.));
#1024=DIRECTION('',(1.,0.,0.));
#1025=DIRECTION('',(0.,-1.,0.));
#1026=DIRECTION('',(-1.,0.,0.));
#1027=DIRECTION('',(0.,0.,1.));
#1028=DIRECTION('',(1.,0.,0.));
#1029=DIRECTION('',(0.,1.,0.));
#1030=DIRECTION('',(0.,0.,1.));
#1031=DIRECTION('',(1.,0.,0.));
#1032=DIRECTION('',(0.,1.,0.));
#1033=DIRECTION('',(0.,0.,1.));
#1034=DIRECTION('',(0.,0.,-1.));
#1035=DIRECTION('',(0.,1.,0.));
#1036=DIRECTION('',(0.,0.,1.));
#1037=DIRECTION('',(-1.,0.,0.));
#1038=DIRECTION('',(0.,1.,0.));
#1039=DIRECTION('',(0.,0.,1.));
#1040=DIRECTION('',(0.,0.,1.));
#1041=DIRECTION('',(0.,1.,0.));
#1042=DIRECTION('',(0.,0.,1.));
#1043=DIRECTION('',(0.,1.,0.));
#1044=DIRECTION('',(0.,0.,1.));
#1045=DIRECTION('',(0.,-1.,0.));
#1046=DIRECTION('',(0.,0.,-1.));
#1047=DIRECTION('',(-1.,0.,0.));
#1048=DIRECTION('',(0.,0.,1.));
#1049=DIRECTION('',(0.,1.,0.));
#1050=DIRECTION('',(0.,0.,-1.));
#1051=DIRECTION('',(0.,-1.,0.));
#1052=DIRECTION('',(0.,0.,1.));
#1053=DIRECTION('',(1.,0.,0.));
#1054=DIRECTION('',(0.,0.,-1.));
#1055=DIRECTION('',(0.,1.,0.));
#1056=DIRECTION('',(-1.,0.,0.));
#1057=DIRECTION('',(0.,-1.,0.));
#1058=DIRECTION('',(1.,0.,0.));
#1059=DIRECTION('',(0.,0.,-1.));
#1060=DIRECTION('',(-1.,0.,0.));
#1061=DIRECTION('',(0.,-1.,0.));
#1062=DIRECTION('',(0.,0.,1.));
#1063=DIRECTION('',(0.,1.,0.));
#1064=DIRECTION('',(0.,0.,1.));
#1065=DIRECTION('',(0.,1.,0.));
#1066=DIRECTION('',(0.,0.,1.));
#1067=DIRECTION('',(0.,-1.,0.));
#1068=DIRECTION('',(0.,0.,1.));
#1069=DIRECTION('',(0.,1.,0.));
#1070=DIRECTION('',(0.,0.,1.));
#1071=DIRECTION('',(0.,1.,0.));
#1072=DIRECTION('',(0.,0.,1.));
#1073=DIRECTION('',(0.,-1.,0.));
#1074=DIRECTION('',(0.,0.,1.));
#1075=DIRECTION('',(0.,1.,0.));
#1076=DIRECTION('',(0.,0.,1.));
#1077=DIRECTION('',(0.,1.,0.));
#1078=DIRECTION('',(0.,0.,1.));
#1079=DIRECTION('',(0.,-1.,0.));
#1080=DIRECTION('',(0.,0.,1.));
#1081=DIRECTION('',(0.,1.,0.));
#1082=DIRECTION('',(0.,0.,1.));
#1083=DIRECTION('',(0.,1.,0.));
#1084=DIRECTION('',(0.,0.,1.));
#1085=DIRECTION('',(0.,0.707106781186542,0.707106781186553));
#1086=DIRECTION('',(0.,-0.707106781186542,-0.707106781186553));
#1087=DIRECTION('',(0.,0.707106781186553,-0.707106781186542));
#1088=DIRECTION('',(1.,0.,0.));
#1089=DIRECTION('',(-0.707106781186555,-0.70710678118654,0.));
#1090=DIRECTION('',(0.,-1.,0.));
#1091=DIRECTION('',(0.,0.,-1.));
#1092=DIRECTION('',(-0.707106781186555,0.70710678118654,0.));
#1093=DIRECTION('',(0.,-1.,0.));
#1094=DIRECTION('',(0.,0.,-1.));
#1095=DIRECTION('',(-0.707106781186554,-0.707106781186541,0.));
#1096=DIRECTION('',(-0.707106781186541,0.707106781186554,0.));
#1097=DIRECTION('',(0.,0.,-1.));
#1098=DIRECTION('',(-0.707106781186554,0.707106781186541,0.));
#1099=DIRECTION('',(0.707106781186541,0.707106781186554,0.));
#1100=DIRECTION('',(0.,0.,1.));
#1101=DIRECTION('',(0.,-0.70710678118654,0.707106781186555));
#1102=DIRECTION('',(0.,-1.,0.));
#1103=DIRECTION('',(0.,0.,-1.));
#1104=DIRECTION('',(0.,0.70710678118654,-0.707106781186555));
#1105=DIRECTION('',(0.,-1.,0.));
#1106=DIRECTION('',(0.,0.,-1.));
#1107=DIRECTION('',(0.,0.707106781186553,0.707106781186542));
#1108=DIRECTION('',(-1.,0.,0.));
#1109=DIRECTION('',(0.,-0.707106781186548,0.707106781186547));
#1110=DIRECTION('',(0.,0.707106781186548,-0.707106781186547));
#1111=DIRECTION('',(0.,0.707106781186547,0.707106781186548));
#1112=DIRECTION('',(1.,0.,0.));
#1113=DIRECTION('',(0.707106781186555,0.70710678118654,0.));
#1114=DIRECTION('',(0.,1.,0.));
#1115=DIRECTION('',(0.,0.,1.));
#1116=DIRECTION('',(0.707106781186555,-0.707106781186539,0.));
#1117=DIRECTION('',(0.,1.,0.));
#1118=DIRECTION('',(0.,0.,1.));
#1119=DIRECTION('',(0.707106781186548,0.707106781186547,0.));
#1120=DIRECTION('',(-0.707106781186547,0.707106781186548,0.));
#1121=DIRECTION('',(0.,0.,1.));
#1122=DIRECTION('',(0.707106781186548,-0.707106781186547,0.));
#1123=DIRECTION('',(0.707106781186547,0.707106781186548,0.));
#1124=DIRECTION('',(0.,0.,-1.));
#1125=DIRECTION('',(0.,0.70710678118654,0.707106781186555));
#1126=DIRECTION('',(0.,1.,0.));
#1127=DIRECTION('',(0.,0.,1.));
#1128=DIRECTION('',(0.,-0.707106781186539,-0.707106781186555));
#1129=DIRECTION('',(0.,1.,0.));
#1130=DIRECTION('',(0.,0.,1.));
#1131=DIRECTION('',(0.,0.707106781186547,-0.707106781186548));
#1132=DIRECTION('',(-1.,0.,0.));
#1133=CARTESIAN_POINT('',(0.,0.,0.));
#1134=CARTESIAN_POINT('',(150.,-7.00000000000001,0.));
#1135=CARTESIAN_POINT('',(147.5,-7.,0.));
#1136=CARTESIAN_POINT('',(143.,2.77555756156289E-14,0.));
#1137=CARTESIAN_POINT('',(143.,-2.49999999999997,0.));
#1138=CARTESIAN_POINT('',(143.,-6.99999999999998,0.));
#1139=CARTESIAN_POINT('',(150.,-193.,0.));
#1140=CARTESIAN_POINT('',(147.5,-193.,0.));
#1141=CARTESIAN_POINT('',(150.,-193.,0.));
#1142=CARTESIAN_POINT('',(143.,-200.,0.));
#1143=CARTESIAN_POINT('',(143.,-197.5,0.));
#1144=CARTESIAN_POINT('',(143.,-193.,0.));
#1145=CARTESIAN_POINT('',(16.9999999999999,-200.,0.));
#1146=CARTESIAN_POINT('',(16.9999999999999,-197.5,0.));
#1147=CARTESIAN_POINT('',(16.9999999999999,-200.,0.));
#1148=CARTESIAN_POINT('',(9.9999999999999,-207.,0.));
#1149=CARTESIAN_POINT('',(7.4999999999999,-207.,0.));
#1150=CARTESIAN_POINT('',(17.,-207.,0.));
#1151=CARTESIAN_POINT('',(9.9999999999999,-343.,0.));
#1152=CARTESIAN_POINT('',(7.4999999999999,-343.,0.));
#1153=CARTESIAN_POINT('',(9.9999999999999,-343.,0.));
#1154=CARTESIAN_POINT('',(2.99999999999993,-350.,0.));
#1155=CARTESIAN_POINT('',(2.99999999999993,-347.5,0.));
#1156=CARTESIAN_POINT('',(2.99999999999998,-343.,0.));
#1157=CARTESIAN_POINT('',(-2.99999999999995,-350.,0.));
#1158=CARTESIAN_POINT('',(-2.99999999999994,-347.5,0.));
#1159=CARTESIAN_POINT('',(-2.99999999999995,-350.,0.));
#1160=CARTESIAN_POINT('',(-9.9999999999998,-343.,0.));
#1161=CARTESIAN_POINT('',(-7.4999999999998,-343.,0.));
#1162=CARTESIAN_POINT('',(-2.9999999999999,-343.,0.));
#1163=CARTESIAN_POINT('',(-9.99999999999984,-207.,0.));
#1164=CARTESIAN_POINT('',(-7.49999999999984,-207.,0.));
#1165=CARTESIAN_POINT('',(-9.99999999999984,-207.,0.));
#1166=CARTESIAN_POINT('',(-17.,-200.,0.));
#1167=CARTESIAN_POINT('',(-17.,-197.5,0.));
#1168=CARTESIAN_POINT('',(-16.9999999999999,-207.,0.));
#1169=CARTESIAN_POINT('',(-143.,-200.,0.));
#1170=CARTESIAN_POINT('',(-143.,-197.5,0.));
#1171=CARTESIAN_POINT('',(-143.,-200.,0.));
#1172=CARTESIAN_POINT('',(-150.,-193.,0.));
#1173=CARTESIAN_POINT('',(-147.5,-193.,0.));
#1174=CARTESIAN_POINT('',(-143.,-193.,0.));
#1175=CARTESIAN_POINT('',(-150.,-7.00000000000001,0.));
#1176=CARTESIAN_POINT('',(-147.5,-7.00000000000001,0.));
#1177=CARTESIAN_POINT('',(-150.,-7.00000000000001,0.));
#1178=CARTESIAN_POINT('',(-143.,-7.26932283998538E-15,0.));
#1179=CARTESIAN_POINT('',(-143.,-2.50000000000001,0.));
#1180=CARTESIAN_POINT('',(-143.,-7.00000000000002,0.));
#1181=CARTESIAN_POINT('',(-143.,-7.26932283998538E-15,0.));
#1182=CARTESIAN_POINT('',(-150.,-6.99999999999997,2.4));
#1183=CARTESIAN_POINT('',(-150.,-6.99999999999997,2.4));
#1184=CARTESIAN_POINT('',(-150.,-193.,2.4));
#1185=CARTESIAN_POINT('',(-150.,-193.,2.5));
#1186=CARTESIAN_POINT('',(-150.,-193.,2.5));
#1187=CARTESIAN_POINT('',(-150.,-6.99999999999997,2.5));
#1188=CARTESIAN_POINT('',(-150.,-6.99999999999997,2.5));
#1189=CARTESIAN_POINT('',(-150.,-6.99999999999997,2.5));
#1190=CARTESIAN_POINT('',(-150.,-6.99999999999997,2.5));
#1191=CARTESIAN_POINT('',(-143.,-193.,2.4));
#1192=CARTESIAN_POINT('',(-143.,-200.,2.4));
#1193=CARTESIAN_POINT('',(-143.,-200.,2.5));
#1194=CARTESIAN_POINT('',(-143.,-200.,2.5));
#1195=CARTESIAN_POINT('',(-143.,-193.,2.5));
#1196=CARTESIAN_POINT('',(-143.,-193.,2.5));
#1197=CARTESIAN_POINT('',(-143.,-200.,2.4));
#1198=CARTESIAN_POINT('',(143.,-200.,2.4));
#1199=CARTESIAN_POINT('',(143.,-200.,2.5));
#1200=CARTESIAN_POINT('',(143.,-200.,2.5));
#1201=CARTESIAN_POINT('',(-143.,-200.,2.5));
#1202=CARTESIAN_POINT('',(-143.,-200.,2.5));
#1203=CARTESIAN_POINT('',(143.,-193.,2.4));
#1204=CARTESIAN_POINT('',(150.,-193.,2.4));
#1205=CARTESIAN_POINT('',(150.,-193.,2.5));
#1206=CARTESIAN_POINT('',(150.,-193.,2.5));
#1207=CARTESIAN_POINT('',(143.,-193.,2.5));
#1208=CARTESIAN_POINT('',(143.,-193.,2.5));
#1209=CARTESIAN_POINT('',(150.,-193.,2.4));
#1210=CARTESIAN_POINT('',(150.,-6.99999999999998,2.4));
#1211=CARTESIAN_POINT('',(150.,-6.99999999999998,2.5));
#1212=CARTESIAN_POINT('',(150.,-6.99999999999998,2.5));
#1213=CARTESIAN_POINT('',(150.,-193.,2.5));
#1214=CARTESIAN_POINT('',(150.,-193.,2.5));
#1215=CARTESIAN_POINT('',(143.,-6.99999999999993,2.4));
#1216=CARTESIAN_POINT('',(143.,8.67361737988404E-15,2.4));
#1217=CARTESIAN_POINT('',(143.,8.67361737988404E-15,2.5));
#1218=CARTESIAN_POINT('',(143.,8.67361737988404E-15,2.5));
#1219=CARTESIAN_POINT('',(143.,-6.99999999999993,2.5));
#1220=CARTESIAN_POINT('',(143.,-6.99999999999993,2.5));
#1221=CARTESIAN_POINT('',(143.,0.,2.4));
#1222=CARTESIAN_POINT('',(-143.,0.,2.4));
#1223=CARTESIAN_POINT('',(-143.,0.,2.5));
#1224=CARTESIAN_POINT('',(-143.,0.,2.5));
#1225=CARTESIAN_POINT('',(143.,0.,2.5));
#1226=CARTESIAN_POINT('',(143.,0.,2.5));
#1227=CARTESIAN_POINT('',(-143.,-6.99999999999993,2.4));
#1228=CARTESIAN_POINT('',(-143.,-6.99999999999993,2.5));
#1229=CARTESIAN_POINT('',(-143.,-6.99999999999993,2.5));
#1230=CARTESIAN_POINT('',(-143.,-193.,2.5));
#1231=CARTESIAN_POINT('',(-143.,-193.,2.4));
#1232=CARTESIAN_POINT('',(9.,-335.,1.50000000000001));
#1233=CARTESIAN_POINT('',(15.,-335.,1.50000000000001));
#1234=CARTESIAN_POINT('',(9.,-335.,7.49999999999989));
#1235=CARTESIAN_POINT('',(-143.,-335.,7.50000000000001));
#1236=CARTESIAN_POINT('',(-9.,-335.,7.49999999999989));
#1237=CARTESIAN_POINT('',(-9.,-335.,1.50000000000001));
#1238=CARTESIAN_POINT('',(-14.9999999999999,-335.,1.50000000000001));
#1239=CARTESIAN_POINT('',(-15.,-335.,2.5));
#1240=CARTESIAN_POINT('',(-15.,-335.,-1.50000000000001));
#1241=CARTESIAN_POINT('',(-9.,-335.,-1.50000000000001));
#1242=CARTESIAN_POINT('',(-9.,-335.,-7.49999999999989));
#1243=CARTESIAN_POINT('',(-143.,-335.,-7.50000000000001));
#1244=CARTESIAN_POINT('',(9.,-335.,-7.50000000000001));
#1245=CARTESIAN_POINT('',(9.,-335.,-1.50000000000001));
#1246=CARTESIAN_POINT('',(14.9999999999999,-335.,-1.50000000000001));
#1247=CARTESIAN_POINT('',(15.,-335.,2.5));
#1248=CARTESIAN_POINT('',(-143.,-335.,2.5));
#1249=CARTESIAN_POINT('',(-9.,-2948.,-12.5));
#1250=CARTESIAN_POINT('',(-9.,-330.,-12.5));
#1251=CARTESIAN_POINT('',(-9.,-210.,-12.5));
#1252=CARTESIAN_POINT('',(9.,-210.,-12.5));
#1253=CARTESIAN_POINT('',(9.,-210.,-12.5));
#1254=CARTESIAN_POINT('',(9.,-2948.,-12.5));
#1255=CARTESIAN_POINT('',(9.,-330.,-12.5));
#1256=CARTESIAN_POINT('',(-20.,-330.,-12.5));
#1257=CARTESIAN_POINT('',(-20.,-2948.,-12.5));
#1258=CARTESIAN_POINT('',(-9.,-205.,1.50000000000001));
#1259=CARTESIAN_POINT('',(-15.,-205.,1.50000000000001));
#1260=CARTESIAN_POINT('',(-9.,-205.,7.49999999999998));
#1261=CARTESIAN_POINT('',(9.,-205.,7.50000000000001));
#1262=CARTESIAN_POINT('',(9.,-205.,7.49999999999998));
#1263=CARTESIAN_POINT('',(9.,-205.,1.50000000000001));
#1264=CARTESIAN_POINT('',(15.,-205.,1.50000000000001));
#1265=CARTESIAN_POINT('',(15.,-205.,-1.50000000000001));
#1266=CARTESIAN_POINT('',(15.,-205.,-1.50000000000001));
#1267=CARTESIAN_POINT('',(9.,-205.,-1.50000000000001));
#1268=CARTESIAN_POINT('',(9.,-205.,-7.49999999999998));
#1269=CARTESIAN_POINT('',(-9.,-205.,-7.50000000000001));
#1270=CARTESIAN_POINT('',(-9.,-205.,-7.50000000000001));
#1271=CARTESIAN_POINT('',(-9.,-205.,-1.50000000000001));
#1272=CARTESIAN_POINT('',(-15.,-205.,-1.50000000000001));
#1273=CARTESIAN_POINT('',(-15.,-205.,1.50000000000001));
#1274=CARTESIAN_POINT('',(-143.,-205.,2.5));
#1275=CARTESIAN_POINT('',(20.,-2948.,-1.50000000000001));
#1276=CARTESIAN_POINT('',(20.,-330.,-1.50000000000001));
#1277=CARTESIAN_POINT('',(20.,-210.,-1.50000000000001));
#1278=CARTESIAN_POINT('',(20.,-210.,1.50000000000001));
#1279=CARTESIAN_POINT('',(20.,-210.,1.50000000000001));
#1280=CARTESIAN_POINT('',(20.,-2948.,1.50000000000001));
#1281=CARTESIAN_POINT('',(20.,-330.,1.50000000000001));
#1282=CARTESIAN_POINT('',(20.,-330.,-12.5));
#1283=CARTESIAN_POINT('',(20.,-2948.,-12.5));
#1284=CARTESIAN_POINT('',(-20.,-2948.,1.50000000000001));
#1285=CARTESIAN_POINT('',(-20.,-330.,1.50000000000001));
#1286=CARTESIAN_POINT('',(-20.,-210.,1.50000000000001));
#1287=CARTESIAN_POINT('',(-20.,-210.,-1.50000000000001));
#1288=CARTESIAN_POINT('',(-20.,-210.,-1.50000000000001));
#1289=CARTESIAN_POINT('',(-20.,-2948.,-1.50000000000001));
#1290=CARTESIAN_POINT('',(-20.,-330.,-1.50000000000001));
#1291=CARTESIAN_POINT('',(-20.,-330.,12.5));
#1292=CARTESIAN_POINT('',(-20.,-2948.,12.5));
#1293=CARTESIAN_POINT('',(9.,-2948.,12.5));
#1294=CARTESIAN_POINT('',(9.,-330.,12.5));
#1295=CARTESIAN_POINT('',(9.,-210.,12.5));
#1296=CARTESIAN_POINT('',(-9.,-210.,12.5));
#1297=CARTESIAN_POINT('',(-9.,-210.,12.5));
#1298=CARTESIAN_POINT('',(-9.,-2948.,12.5));
#1299=CARTESIAN_POINT('',(-9.,-330.,12.5));
#1300=CARTESIAN_POINT('',(20.,-330.,12.5));
#1301=CARTESIAN_POINT('',(20.,-2948.,12.5));
#1302=CARTESIAN_POINT('',(9.,-210.,-1.50000000000001));
#1303=CARTESIAN_POINT('',(9.,-330.,-1.50000000000001));
#1304=CARTESIAN_POINT('',(9.,-2948.,-1.50000000000001));
#1305=CARTESIAN_POINT('',(-9.,-210.,-1.50000000000001));
#1306=CARTESIAN_POINT('',(-9.,-330.,-1.50000000000001));
#1307=CARTESIAN_POINT('',(-9.,-2948.,-1.50000000000001));
#1308=CARTESIAN_POINT('',(9.,-210.,1.50000000000001));
#1309=CARTESIAN_POINT('',(9.,-330.,1.50000000000001));
#1310=CARTESIAN_POINT('',(9.,-2948.,1.50000000000001));
#1311=CARTESIAN_POINT('',(-9.,-210.,1.50000000000001));
#1312=CARTESIAN_POINT('',(-9.,-330.,1.50000000000001));
#1313=CARTESIAN_POINT('',(-9.,-2948.,1.50000000000001));
#1314=CARTESIAN_POINT('',(9.,-210.,-12.5));
#1315=CARTESIAN_POINT('',(-9.,-205.,-7.50000000000001));
#1316=CARTESIAN_POINT('',(-143.,-205.,-7.50000000000001));
#1317=CARTESIAN_POINT('',(-15.,-205.,-1.50000000000001));
#1318=CARTESIAN_POINT('',(-9.,-205.,-1.50000000000001));
#1319=CARTESIAN_POINT('',(20.,-210.,-1.50000000000001));
#1320=CARTESIAN_POINT('',(9.,-205.,-1.50000000000001));
#1321=CARTESIAN_POINT('',(-15.,-205.,1.50000000000001));
#1322=CARTESIAN_POINT('',(-15.,-205.,2.5));
#1323=CARTESIAN_POINT('',(20.,-210.,1.50000000000001));
#1324=CARTESIAN_POINT('',(15.,-205.,2.5));
#1325=CARTESIAN_POINT('',(-9.,-205.,7.49999999999998));
#1326=CARTESIAN_POINT('',(-9.,-205.,1.50000000000001));
#1327=CARTESIAN_POINT('',(9.,-210.,12.5));
#1328=CARTESIAN_POINT('',(9.,-205.,1.50000000000001));
#1329=CARTESIAN_POINT('',(-143.,-205.,7.50000000000001));
#1330=CARTESIAN_POINT('',(-9.,-330.,-12.5));
#1331=CARTESIAN_POINT('',(9.,-335.,-7.50000000000001));
#1332=CARTESIAN_POINT('',(-143.,-335.,-7.50000000000001));
#1333=CARTESIAN_POINT('',(14.9999999999999,-335.,-1.50000000000001));
#1334=CARTESIAN_POINT('',(9.,-335.,-1.50000000000001));
#1335=CARTESIAN_POINT('',(-20.,-330.,-1.50000000000001));
#1336=CARTESIAN_POINT('',(-9.,-335.,-1.50000000000001));
#1337=CARTESIAN_POINT('',(15.,-335.,1.50000000000001));
#1338=CARTESIAN_POINT('',(15.,-335.,2.5));
#1339=CARTESIAN_POINT('',(-20.,-330.,1.50000000000001));
#1340=CARTESIAN_POINT('',(-15.,-335.,2.5));
#1341=CARTESIAN_POINT('',(9.,-335.,7.49999999999989));
#1342=CARTESIAN_POINT('',(9.,-335.,1.50000000000001));
#1343=CARTESIAN_POINT('',(-9.,-330.,12.5));
#1344=CARTESIAN_POINT('',(-9.,-335.,1.50000000000001));
#1345=CARTESIAN_POINT('',(-143.,-335.,7.50000000000001));
#1346=MECHANICAL_DESIGN_GEOMETRIC_PRESENTATION_REPRESENTATION('',(#200,
#201,#202),#1347);
#1347=(
GEOMETRIC_REPRESENTATION_CONTEXT(3)
GLOBAL_UNCERTAINTY_ASSIGNED_CONTEXT((#1348))
GLOBAL_UNIT_ASSIGNED_CONTEXT((#1354,#1350,#1349))
REPRESENTATION_CONTEXT('S_SF_M_04_scoop','TOP_LEVEL_ASSEMBLY_PART')
);
#1348=UNCERTAINTY_MEASURE_WITH_UNIT(LENGTH_MEASURE(2.E-5),#1354,
'DISTANCE_ACCURACY_VALUE','Maximum Tolerance applied to model');
#1349=(
NAMED_UNIT(*)
SI_UNIT($,.STERADIAN.)
SOLID_ANGLE_UNIT()
);
#1350=(
CONVERSION_BASED_UNIT('DEGREE',#1352)
NAMED_UNIT(#1351)
PLANE_ANGLE_UNIT()
);
#1351=DIMENSIONAL_EXPONENTS(0.,0.,0.,0.,0.,0.,0.);
#1352=PLANE_ANGLE_MEASURE_WITH_UNIT(PLANE_ANGLE_MEASURE(0.0174532925),#1353);
#1353=(
NAMED_UNIT(*)
PLANE_ANGLE_UNIT()
SI_UNIT($,.RADIAN.)
);
#1354=(
LENGTH_UNIT()
NAMED_UNIT(*)
SI_UNIT(.MILLI.,.METRE.)
);
ENDSEC;
END-ISO-10303-21;
