ISO-10303-21;
HEADER;
/* Generated by software containing ST-Developer
 * from STEP Tools, Inc. (www.steptools.com) 
 */
/* OPTION: using custom schema-name function */

FILE_DESCRIPTION(
/* description */ (''),
/* implementation_level */ '2;1');

FILE_NAME(
/* name */ 'S_SF_M_03_tray.stp',
/* time_stamp */ '2025-12-15T16:58:44+01:00',
/* author */ (''),
/* organization */ (''),
/* preprocessor_version */ 'ST-DEVELOPER v18.1',
/* originating_system */ 'SIEMENS PLM Software NX 1988',
/* authorisation */ '');

FILE_SCHEMA (('AUTOMOTIVE_DESIGN { 1 0 10303 214 3 1 1 1 }'));
ENDSEC;

DATA;
#10=SHAPE_REPRESENTATION_RELATIONSHIP('None',
'relationship between S_SF_M_03_tray-None and S_SF_M_03_tray-None',#22,
#11);
#11=ADVANCED_BREP_SHAPE_REPRESENTATION('S_SF_M_03_tray-None',(#97,#98,#99,
#100,#101,#102,#103,#104,#105),#1848);
#12=SHAPE_DEFINITION_REPRESENTATION(#13,#22);
#13=PRODUCT_DEFINITION_SHAPE('','',#14);
#14=PRODUCT_DEFINITION(' ','',#16,#15);
#15=PRODUCT_DEFINITION_CONTEXT('part definition',#21,'design');
#16=PRODUCT_DEFINITION_FORMATION_WITH_SPECIFIED_SOURCE(' ',' ',#18,
 .NOT_KNOWN.);
#17=PRODUCT_RELATED_PRODUCT_CATEGORY('part','',(#18));
#18=PRODUCT('S_SF_M_03_tray','S_SF_M_03_tray',' ',(#19));
#19=PRODUCT_CONTEXT(' ',#21,'mechanical');
#20=APPLICATION_PROTOCOL_DEFINITION('international standard',
'automotive_design',2010,#21);
#21=APPLICATION_CONTEXT(
'core data for automotive mechanical design processes');
#22=SHAPE_REPRESENTATION('S_SF_M_03_tray-None',(#1195),#1848);
#23=FACE_BOUND('',#331,.T.);
#24=FACE_BOUND('',#332,.T.);
#25=FACE_BOUND('',#333,.T.);
#26=FACE_BOUND('',#334,.T.);
#27=FACE_BOUND('',#345,.T.);
#28=FACE_BOUND('',#346,.T.);
#29=FACE_BOUND('',#347,.T.);
#30=FACE_BOUND('',#348,.T.);
#31=PRESENTATION_LAYER_ASSIGNMENT('1','Layer 1',(#97,#98,#99,#100,#101,
#102,#103,#104,#105));
#32=STYLED_ITEM('',(#41),#97);
#33=STYLED_ITEM('',(#42),#98);
#34=STYLED_ITEM('',(#43),#99);
#35=STYLED_ITEM('',(#44),#100);
#36=STYLED_ITEM('',(#45),#101);
#37=STYLED_ITEM('',(#46),#102);
#38=STYLED_ITEM('',(#47),#103);
#39=STYLED_ITEM('',(#48),#104);
#40=STYLED_ITEM('',(#49),#105);
#41=PRESENTATION_STYLE_ASSIGNMENT((#50));
#42=PRESENTATION_STYLE_ASSIGNMENT((#51));
#43=PRESENTATION_STYLE_ASSIGNMENT((#52));
#44=PRESENTATION_STYLE_ASSIGNMENT((#53));
#45=PRESENTATION_STYLE_ASSIGNMENT((#54));
#46=PRESENTATION_STYLE_ASSIGNMENT((#55));
#47=PRESENTATION_STYLE_ASSIGNMENT((#56));
#48=PRESENTATION_STYLE_ASSIGNMENT((#57));
#49=PRESENTATION_STYLE_ASSIGNMENT((#58));
#50=SURFACE_STYLE_USAGE(.BOTH.,#59);
#51=SURFACE_STYLE_USAGE(.BOTH.,#60);
#52=SURFACE_STYLE_USAGE(.BOTH.,#61);
#53=SURFACE_STYLE_USAGE(.BOTH.,#62);
#54=SURFACE_STYLE_USAGE(.BOTH.,#63);
#55=SURFACE_STYLE_USAGE(.BOTH.,#64);
#56=SURFACE_STYLE_USAGE(.BOTH.,#65);
#57=SURFACE_STYLE_USAGE(.BOTH.,#66);
#58=SURFACE_STYLE_USAGE(.BOTH.,#67);
#59=SURFACE_SIDE_STYLE('',(#68));
#60=SURFACE_SIDE_STYLE('',(#69));
#61=SURFACE_SIDE_STYLE('',(#70));
#62=SURFACE_SIDE_STYLE('',(#71));
#63=SURFACE_SIDE_STYLE('',(#72));
#64=SURFACE_SIDE_STYLE('',(#73));
#65=SURFACE_SIDE_STYLE('',(#74));
#66=SURFACE_SIDE_STYLE('',(#75));
#67=SURFACE_SIDE_STYLE('',(#76));
#68=SURFACE_STYLE_FILL_AREA(#77);
#69=SURFACE_STYLE_FILL_AREA(#78);
#70=SURFACE_STYLE_FILL_AREA(#79);
#71=SURFACE_STYLE_FILL_AREA(#80);
#72=SURFACE_STYLE_FILL_AREA(#81);
#73=SURFACE_STYLE_FILL_AREA(#82);
#74=SURFACE_STYLE_FILL_AREA(#83);
#75=SURFACE_STYLE_FILL_AREA(#84);
#76=SURFACE_STYLE_FILL_AREA(#85);
#77=FILL_AREA_STYLE('',(#86));
#78=FILL_AREA_STYLE('',(#87));
#79=FILL_AREA_STYLE('',(#88));
#80=FILL_AREA_STYLE('',(#89));
#81=FILL_AREA_STYLE('',(#90));
#82=FILL_AREA_STYLE('',(#91));
#83=FILL_AREA_STYLE('',(#92));
#84=FILL_AREA_STYLE('',(#93));
#85=FILL_AREA_STYLE('',(#94));
#86=FILL_AREA_STYLE_COLOUR('',#95);
#87=FILL_AREA_STYLE_COLOUR('',#96);
#88=FILL_AREA_STYLE_COLOUR('',#96);
#89=FILL_AREA_STYLE_COLOUR('',#96);
#90=FILL_AREA_STYLE_COLOUR('',#96);
#91=FILL_AREA_STYLE_COLOUR('',#96);
#92=FILL_AREA_STYLE_COLOUR('',#96);
#93=FILL_AREA_STYLE_COLOUR('',#96);
#94=FILL_AREA_STYLE_COLOUR('',#96);
#95=COLOUR_RGB('granite gray',0.4,0.4,0.4);
#96=COLOUR_RGB('ash gray',0.874509803921569,0.874509803921569,0.874509803921569);
#97=MANIFOLD_SOLID_BREP('',#106);
#98=MANIFOLD_SOLID_BREP('',#107);
#99=MANIFOLD_SOLID_BREP('',#108);
#100=MANIFOLD_SOLID_BREP('',#109);
#101=MANIFOLD_SOLID_BREP('',#110);
#102=MANIFOLD_SOLID_BREP('',#111);
#103=MANIFOLD_SOLID_BREP('',#112);
#104=MANIFOLD_SOLID_BREP('',#113);
#105=MANIFOLD_SOLID_BREP('',#114);
#106=CLOSED_SHELL('',(#115,#116,#117,#118,#119,#120));
#107=CLOSED_SHELL('',(#121,#122,#123,#124,#125,#126));
#108=CLOSED_SHELL('',(#127,#128,#129,#130,#131,#132,#133,#134,#135,#136,
#137,#138));
#109=CLOSED_SHELL('',(#139,#140,#141,#142,#143,#144,#145,#146,#147,#148,
#149,#150));
#110=CLOSED_SHELL('',(#151,#152,#153,#154,#155,#156));
#111=CLOSED_SHELL('',(#157,#158,#159,#160,#161,#162));
#112=CLOSED_SHELL('',(#163,#164,#165,#166,#167,#168));
#113=CLOSED_SHELL('',(#169,#170,#171,#172,#173,#174));
#114=CLOSED_SHELL('',(#175,#176,#177,#178,#179,#180));
#115=ADVANCED_FACE('',(#247),#181,.T.);
#116=ADVANCED_FACE('',(#248),#182,.T.);
#117=ADVANCED_FACE('',(#249),#183,.T.);
#118=ADVANCED_FACE('',(#250),#184,.T.);
#119=ADVANCED_FACE('',(#251),#185,.F.);
#120=ADVANCED_FACE('',(#252),#186,.T.);
#121=ADVANCED_FACE('',(#253),#187,.T.);
#122=ADVANCED_FACE('',(#254),#188,.F.);
#123=ADVANCED_FACE('',(#255),#189,.F.);
#124=ADVANCED_FACE('',(#256),#190,.F.);
#125=ADVANCED_FACE('',(#257),#191,.F.);
#126=ADVANCED_FACE('',(#258),#192,.T.);
#127=ADVANCED_FACE('',(#259),#193,.F.);
#128=ADVANCED_FACE('',(#260),#194,.F.);
#129=ADVANCED_FACE('',(#261),#195,.F.);
#130=ADVANCED_FACE('',(#262),#196,.F.);
#131=ADVANCED_FACE('',(#263),#197,.F.);
#132=ADVANCED_FACE('',(#264),#198,.F.);
#133=ADVANCED_FACE('',(#265),#199,.F.);
#134=ADVANCED_FACE('',(#266),#200,.F.);
#135=ADVANCED_FACE('',(#267),#201,.F.);
#136=ADVANCED_FACE('',(#268),#202,.F.);
#137=ADVANCED_FACE('',(#23,#24),#203,.T.);
#138=ADVANCED_FACE('',(#25,#26),#204,.F.);
#139=ADVANCED_FACE('',(#269),#205,.F.);
#140=ADVANCED_FACE('',(#270),#206,.F.);
#141=ADVANCED_FACE('',(#271),#207,.F.);
#142=ADVANCED_FACE('',(#272),#208,.F.);
#143=ADVANCED_FACE('',(#273),#209,.F.);
#144=ADVANCED_FACE('',(#274),#210,.F.);
#145=ADVANCED_FACE('',(#275),#211,.F.);
#146=ADVANCED_FACE('',(#276),#212,.F.);
#147=ADVANCED_FACE('',(#277),#213,.F.);
#148=ADVANCED_FACE('',(#278),#214,.F.);
#149=ADVANCED_FACE('',(#27,#28),#215,.T.);
#150=ADVANCED_FACE('',(#29,#30),#216,.F.);
#151=ADVANCED_FACE('',(#279),#217,.T.);
#152=ADVANCED_FACE('',(#280),#218,.T.);
#153=ADVANCED_FACE('',(#281),#219,.T.);
#154=ADVANCED_FACE('',(#282),#220,.T.);
#155=ADVANCED_FACE('',(#283),#221,.F.);
#156=ADVANCED_FACE('',(#284),#222,.T.);
#157=ADVANCED_FACE('',(#285),#223,.F.);
#158=ADVANCED_FACE('',(#286),#224,.F.);
#159=ADVANCED_FACE('',(#287),#225,.F.);
#160=ADVANCED_FACE('',(#288),#226,.F.);
#161=ADVANCED_FACE('',(#289),#227,.T.);
#162=ADVANCED_FACE('',(#290),#228,.F.);
#163=ADVANCED_FACE('',(#291),#229,.F.);
#164=ADVANCED_FACE('',(#292),#230,.F.);
#165=ADVANCED_FACE('',(#293),#231,.T.);
#166=ADVANCED_FACE('',(#294),#232,.F.);
#167=ADVANCED_FACE('',(#295),#233,.T.);
#168=ADVANCED_FACE('',(#296),#234,.F.);
#169=ADVANCED_FACE('',(#297),#235,.F.);
#170=ADVANCED_FACE('',(#298),#236,.F.);
#171=ADVANCED_FACE('',(#299),#237,.T.);
#172=ADVANCED_FACE('',(#300),#238,.F.);
#173=ADVANCED_FACE('',(#301),#239,.T.);
#174=ADVANCED_FACE('',(#302),#240,.F.);
#175=ADVANCED_FACE('',(#303),#241,.F.);
#176=ADVANCED_FACE('',(#304),#242,.T.);
#177=ADVANCED_FACE('',(#305),#243,.F.);
#178=ADVANCED_FACE('',(#306),#244,.F.);
#179=ADVANCED_FACE('',(#307),#245,.T.);
#180=ADVANCED_FACE('',(#308),#246,.F.);
#181=PLANE('',#1196);
#182=PLANE('',#1197);
#183=PLANE('',#1198);
#184=PLANE('',#1199);
#185=PLANE('',#1200);
#186=PLANE('',#1201);
#187=PLANE('',#1202);
#188=PLANE('',#1203);
#189=PLANE('',#1204);
#190=PLANE('',#1205);
#191=PLANE('',#1206);
#192=PLANE('',#1207);
#193=PLANE('',#1208);
#194=PLANE('',#1209);
#195=PLANE('',#1210);
#196=PLANE('',#1211);
#197=PLANE('',#1212);
#198=PLANE('',#1213);
#199=PLANE('',#1214);
#200=PLANE('',#1215);
#201=PLANE('',#1216);
#202=PLANE('',#1217);
#203=PLANE('',#1218);
#204=PLANE('',#1219);
#205=PLANE('',#1220);
#206=PLANE('',#1221);
#207=PLANE('',#1222);
#208=PLANE('',#1223);
#209=PLANE('',#1224);
#210=PLANE('',#1225);
#211=PLANE('',#1226);
#212=PLANE('',#1227);
#213=PLANE('',#1228);
#214=PLANE('',#1229);
#215=PLANE('',#1230);
#216=PLANE('',#1231);
#217=PLANE('',#1232);
#218=PLANE('',#1233);
#219=PLANE('',#1234);
#220=PLANE('',#1235);
#221=PLANE('',#1236);
#222=PLANE('',#1237);
#223=PLANE('',#1238);
#224=PLANE('',#1239);
#225=PLANE('',#1240);
#226=PLANE('',#1241);
#227=PLANE('',#1242);
#228=PLANE('',#1243);
#229=PLANE('',#1244);
#230=PLANE('',#1245);
#231=PLANE('',#1246);
#232=PLANE('',#1247);
#233=PLANE('',#1248);
#234=PLANE('',#1249);
#235=PLANE('',#1250);
#236=PLANE('',#1251);
#237=PLANE('',#1252);
#238=PLANE('',#1253);
#239=PLANE('',#1254);
#240=PLANE('',#1255);
#241=PLANE('',#1256);
#242=PLANE('',#1257);
#243=PLANE('',#1258);
#244=PLANE('',#1259);
#245=PLANE('',#1260);
#246=PLANE('',#1261);
#247=FACE_OUTER_BOUND('',#309,.T.);
#248=FACE_OUTER_BOUND('',#310,.T.);
#249=FACE_OUTER_BOUND('',#311,.T.);
#250=FACE_OUTER_BOUND('',#312,.T.);
#251=FACE_OUTER_BOUND('',#313,.T.);
#252=FACE_OUTER_BOUND('',#314,.T.);
#253=FACE_OUTER_BOUND('',#315,.T.);
#254=FACE_OUTER_BOUND('',#316,.T.);
#255=FACE_OUTER_BOUND('',#317,.T.);
#256=FACE_OUTER_BOUND('',#318,.T.);
#257=FACE_OUTER_BOUND('',#319,.T.);
#258=FACE_OUTER_BOUND('',#320,.T.);
#259=FACE_OUTER_BOUND('',#321,.T.);
#260=FACE_OUTER_BOUND('',#322,.T.);
#261=FACE_OUTER_BOUND('',#323,.T.);
#262=FACE_OUTER_BOUND('',#324,.T.);
#263=FACE_OUTER_BOUND('',#325,.T.);
#264=FACE_OUTER_BOUND('',#326,.T.);
#265=FACE_OUTER_BOUND('',#327,.T.);
#266=FACE_OUTER_BOUND('',#328,.T.);
#267=FACE_OUTER_BOUND('',#329,.T.);
#268=FACE_OUTER_BOUND('',#330,.T.);
#269=FACE_OUTER_BOUND('',#335,.T.);
#270=FACE_OUTER_BOUND('',#336,.T.);
#271=FACE_OUTER_BOUND('',#337,.T.);
#272=FACE_OUTER_BOUND('',#338,.T.);
#273=FACE_OUTER_BOUND('',#339,.T.);
#274=FACE_OUTER_BOUND('',#340,.T.);
#275=FACE_OUTER_BOUND('',#341,.T.);
#276=FACE_OUTER_BOUND('',#342,.T.);
#277=FACE_OUTER_BOUND('',#343,.T.);
#278=FACE_OUTER_BOUND('',#344,.T.);
#279=FACE_OUTER_BOUND('',#349,.T.);
#280=FACE_OUTER_BOUND('',#350,.T.);
#281=FACE_OUTER_BOUND('',#351,.T.);
#282=FACE_OUTER_BOUND('',#352,.T.);
#283=FACE_OUTER_BOUND('',#353,.T.);
#284=FACE_OUTER_BOUND('',#354,.T.);
#285=FACE_OUTER_BOUND('',#355,.T.);
#286=FACE_OUTER_BOUND('',#356,.T.);
#287=FACE_OUTER_BOUND('',#357,.T.);
#288=FACE_OUTER_BOUND('',#358,.T.);
#289=FACE_OUTER_BOUND('',#359,.T.);
#290=FACE_OUTER_BOUND('',#360,.T.);
#291=FACE_OUTER_BOUND('',#361,.T.);
#292=FACE_OUTER_BOUND('',#362,.T.);
#293=FACE_OUTER_BOUND('',#363,.T.);
#294=FACE_OUTER_BOUND('',#364,.T.);
#295=FACE_OUTER_BOUND('',#365,.T.);
#296=FACE_OUTER_BOUND('',#366,.T.);
#297=FACE_OUTER_BOUND('',#367,.T.);
#298=FACE_OUTER_BOUND('',#368,.T.);
#299=FACE_OUTER_BOUND('',#369,.T.);
#300=FACE_OUTER_BOUND('',#370,.T.);
#301=FACE_OUTER_BOUND('',#371,.T.);
#302=FACE_OUTER_BOUND('',#372,.T.);
#303=FACE_OUTER_BOUND('',#373,.T.);
#304=FACE_OUTER_BOUND('',#374,.T.);
#305=FACE_OUTER_BOUND('',#375,.T.);
#306=FACE_OUTER_BOUND('',#376,.T.);
#307=FACE_OUTER_BOUND('',#377,.T.);
#308=FACE_OUTER_BOUND('',#378,.T.);
#309=EDGE_LOOP('',(#379,#380,#381,#382));
#310=EDGE_LOOP('',(#383,#384,#385,#386));
#311=EDGE_LOOP('',(#387,#388,#389,#390));
#312=EDGE_LOOP('',(#391,#392,#393,#394));
#313=EDGE_LOOP('',(#395,#396,#397,#398));
#314=EDGE_LOOP('',(#399,#400,#401,#402));
#315=EDGE_LOOP('',(#403,#404,#405,#406));
#316=EDGE_LOOP('',(#407,#408,#409,#410));
#317=EDGE_LOOP('',(#411,#412,#413,#414));
#318=EDGE_LOOP('',(#415,#416,#417,#418));
#319=EDGE_LOOP('',(#419,#420,#421,#422));
#320=EDGE_LOOP('',(#423,#424,#425,#426));
#321=EDGE_LOOP('',(#427,#428,#429,#430));
#322=EDGE_LOOP('',(#431,#432,#433,#434));
#323=EDGE_LOOP('',(#435,#436,#437,#438));
#324=EDGE_LOOP('',(#439,#440,#441,#442));
#325=EDGE_LOOP('',(#443,#444,#445,#446));
#326=EDGE_LOOP('',(#447,#448,#449,#450));
#327=EDGE_LOOP('',(#451,#452,#453,#454));
#328=EDGE_LOOP('',(#455,#456,#457,#458));
#329=EDGE_LOOP('',(#459,#460,#461,#462));
#330=EDGE_LOOP('',(#463,#464,#465,#466));
#331=EDGE_LOOP('',(#467,#468,#469,#470,#471,#472));
#332=EDGE_LOOP('',(#473,#474,#475,#476));
#333=EDGE_LOOP('',(#477,#478,#479,#480,#481,#482));
#334=EDGE_LOOP('',(#483,#484,#485,#486));
#335=EDGE_LOOP('',(#487,#488,#489,#490));
#336=EDGE_LOOP('',(#491,#492,#493,#494));
#337=EDGE_LOOP('',(#495,#496,#497,#498));
#338=EDGE_LOOP('',(#499,#500,#501,#502));
#339=EDGE_LOOP('',(#503,#504,#505,#506));
#340=EDGE_LOOP('',(#507,#508,#509,#510));
#341=EDGE_LOOP('',(#511,#512,#513,#514));
#342=EDGE_LOOP('',(#515,#516,#517,#518));
#343=EDGE_LOOP('',(#519,#520,#521,#522));
#344=EDGE_LOOP('',(#523,#524,#525,#526));
#345=EDGE_LOOP('',(#527,#528,#529,#530,#531,#532));
#346=EDGE_LOOP('',(#533,#534,#535,#536));
#347=EDGE_LOOP('',(#537,#538,#539,#540,#541,#542));
#348=EDGE_LOOP('',(#543,#544,#545,#546));
#349=EDGE_LOOP('',(#547,#548,#549,#550));
#350=EDGE_LOOP('',(#551,#552,#553,#554));
#351=EDGE_LOOP('',(#555,#556,#557,#558));
#352=EDGE_LOOP('',(#559,#560,#561,#562));
#353=EDGE_LOOP('',(#563,#564,#565,#566));
#354=EDGE_LOOP('',(#567,#568,#569,#570));
#355=EDGE_LOOP('',(#571,#572,#573,#574));
#356=EDGE_LOOP('',(#575,#576,#577,#578));
#357=EDGE_LOOP('',(#579,#580,#581,#582));
#358=EDGE_LOOP('',(#583,#584,#585,#586));
#359=EDGE_LOOP('',(#587,#588,#589,#590));
#360=EDGE_LOOP('',(#591,#592,#593,#594));
#361=EDGE_LOOP('',(#595,#596,#597,#598));
#362=EDGE_LOOP('',(#599,#600,#601,#602));
#363=EDGE_LOOP('',(#603,#604,#605,#606));
#364=EDGE_LOOP('',(#607,#608,#609,#610));
#365=EDGE_LOOP('',(#611,#612,#613,#614));
#366=EDGE_LOOP('',(#615,#616,#617,#618));
#367=EDGE_LOOP('',(#619,#620,#621,#622));
#368=EDGE_LOOP('',(#623,#624,#625,#626));
#369=EDGE_LOOP('',(#627,#628,#629,#630));
#370=EDGE_LOOP('',(#631,#632,#633,#634));
#371=EDGE_LOOP('',(#635,#636,#637,#638));
#372=EDGE_LOOP('',(#639,#640,#641,#642));
#373=EDGE_LOOP('',(#643,#644,#645,#646));
#374=EDGE_LOOP('',(#647,#648,#649,#650));
#375=EDGE_LOOP('',(#651,#652,#653,#654));
#376=EDGE_LOOP('',(#655,#656,#657,#658));
#377=EDGE_LOOP('',(#659,#660,#661,#662));
#378=EDGE_LOOP('',(#663,#664,#665,#666));
#379=ORIENTED_EDGE('',*,*,#763,.F.);
#380=ORIENTED_EDGE('',*,*,#764,.F.);
#381=ORIENTED_EDGE('',*,*,#765,.T.);
#382=ORIENTED_EDGE('',*,*,#766,.T.);
#383=ORIENTED_EDGE('',*,*,#767,.F.);
#384=ORIENTED_EDGE('',*,*,#766,.F.);
#385=ORIENTED_EDGE('',*,*,#768,.T.);
#386=ORIENTED_EDGE('',*,*,#769,.T.);
#387=ORIENTED_EDGE('',*,*,#770,.F.);
#388=ORIENTED_EDGE('',*,*,#769,.F.);
#389=ORIENTED_EDGE('',*,*,#771,.T.);
#390=ORIENTED_EDGE('',*,*,#772,.T.);
#391=ORIENTED_EDGE('',*,*,#773,.F.);
#392=ORIENTED_EDGE('',*,*,#772,.F.);
#393=ORIENTED_EDGE('',*,*,#774,.T.);
#394=ORIENTED_EDGE('',*,*,#764,.T.);
#395=ORIENTED_EDGE('',*,*,#765,.F.);
#396=ORIENTED_EDGE('',*,*,#774,.F.);
#397=ORIENTED_EDGE('',*,*,#771,.F.);
#398=ORIENTED_EDGE('',*,*,#768,.F.);
#399=ORIENTED_EDGE('',*,*,#763,.T.);
#400=ORIENTED_EDGE('',*,*,#767,.T.);
#401=ORIENTED_EDGE('',*,*,#770,.T.);
#402=ORIENTED_EDGE('',*,*,#773,.T.);
#403=ORIENTED_EDGE('',*,*,#775,.T.);
#404=ORIENTED_EDGE('',*,*,#776,.F.);
#405=ORIENTED_EDGE('',*,*,#777,.T.);
#406=ORIENTED_EDGE('',*,*,#778,.T.);
#407=ORIENTED_EDGE('',*,*,#779,.T.);
#408=ORIENTED_EDGE('',*,*,#780,.F.);
#409=ORIENTED_EDGE('',*,*,#781,.F.);
#410=ORIENTED_EDGE('',*,*,#782,.F.);
#411=ORIENTED_EDGE('',*,*,#783,.F.);
#412=ORIENTED_EDGE('',*,*,#775,.F.);
#413=ORIENTED_EDGE('',*,*,#784,.T.);
#414=ORIENTED_EDGE('',*,*,#780,.T.);
#415=ORIENTED_EDGE('',*,*,#785,.F.);
#416=ORIENTED_EDGE('',*,*,#782,.T.);
#417=ORIENTED_EDGE('',*,*,#786,.F.);
#418=ORIENTED_EDGE('',*,*,#777,.F.);
#419=ORIENTED_EDGE('',*,*,#781,.T.);
#420=ORIENTED_EDGE('',*,*,#784,.F.);
#421=ORIENTED_EDGE('',*,*,#778,.F.);
#422=ORIENTED_EDGE('',*,*,#786,.T.);
#423=ORIENTED_EDGE('',*,*,#779,.F.);
#424=ORIENTED_EDGE('',*,*,#785,.T.);
#425=ORIENTED_EDGE('',*,*,#776,.T.);
#426=ORIENTED_EDGE('',*,*,#783,.T.);
#427=ORIENTED_EDGE('',*,*,#787,.T.);
#428=ORIENTED_EDGE('',*,*,#788,.F.);
#429=ORIENTED_EDGE('',*,*,#789,.F.);
#430=ORIENTED_EDGE('',*,*,#790,.T.);
#431=ORIENTED_EDGE('',*,*,#791,.T.);
#432=ORIENTED_EDGE('',*,*,#792,.F.);
#433=ORIENTED_EDGE('',*,*,#793,.F.);
#434=ORIENTED_EDGE('',*,*,#788,.T.);
#435=ORIENTED_EDGE('',*,*,#794,.T.);
#436=ORIENTED_EDGE('',*,*,#795,.F.);
#437=ORIENTED_EDGE('',*,*,#796,.F.);
#438=ORIENTED_EDGE('',*,*,#792,.T.);
#439=ORIENTED_EDGE('',*,*,#797,.T.);
#440=ORIENTED_EDGE('',*,*,#798,.F.);
#441=ORIENTED_EDGE('',*,*,#799,.F.);
#442=ORIENTED_EDGE('',*,*,#800,.T.);
#443=ORIENTED_EDGE('',*,*,#801,.T.);
#444=ORIENTED_EDGE('',*,*,#802,.F.);
#445=ORIENTED_EDGE('',*,*,#803,.F.);
#446=ORIENTED_EDGE('',*,*,#798,.T.);
#447=ORIENTED_EDGE('',*,*,#804,.T.);
#448=ORIENTED_EDGE('',*,*,#805,.F.);
#449=ORIENTED_EDGE('',*,*,#806,.F.);
#450=ORIENTED_EDGE('',*,*,#802,.T.);
#451=ORIENTED_EDGE('',*,*,#807,.T.);
#452=ORIENTED_EDGE('',*,*,#808,.F.);
#453=ORIENTED_EDGE('',*,*,#809,.F.);
#454=ORIENTED_EDGE('',*,*,#805,.T.);
#455=ORIENTED_EDGE('',*,*,#810,.T.);
#456=ORIENTED_EDGE('',*,*,#811,.F.);
#457=ORIENTED_EDGE('',*,*,#812,.F.);
#458=ORIENTED_EDGE('',*,*,#808,.T.);
#459=ORIENTED_EDGE('',*,*,#813,.T.);
#460=ORIENTED_EDGE('',*,*,#800,.F.);
#461=ORIENTED_EDGE('',*,*,#814,.F.);
#462=ORIENTED_EDGE('',*,*,#811,.T.);
#463=ORIENTED_EDGE('',*,*,#815,.T.);
#464=ORIENTED_EDGE('',*,*,#790,.F.);
#465=ORIENTED_EDGE('',*,*,#816,.F.);
#466=ORIENTED_EDGE('',*,*,#795,.T.);
#467=ORIENTED_EDGE('',*,*,#799,.T.);
#468=ORIENTED_EDGE('',*,*,#803,.T.);
#469=ORIENTED_EDGE('',*,*,#806,.T.);
#470=ORIENTED_EDGE('',*,*,#809,.T.);
#471=ORIENTED_EDGE('',*,*,#812,.T.);
#472=ORIENTED_EDGE('',*,*,#814,.T.);
#473=ORIENTED_EDGE('',*,*,#789,.T.);
#474=ORIENTED_EDGE('',*,*,#793,.T.);
#475=ORIENTED_EDGE('',*,*,#796,.T.);
#476=ORIENTED_EDGE('',*,*,#816,.T.);
#477=ORIENTED_EDGE('',*,*,#797,.F.);
#478=ORIENTED_EDGE('',*,*,#813,.F.);
#479=ORIENTED_EDGE('',*,*,#810,.F.);
#480=ORIENTED_EDGE('',*,*,#807,.F.);
#481=ORIENTED_EDGE('',*,*,#804,.F.);
#482=ORIENTED_EDGE('',*,*,#801,.F.);
#483=ORIENTED_EDGE('',*,*,#787,.F.);
#484=ORIENTED_EDGE('',*,*,#815,.F.);
#485=ORIENTED_EDGE('',*,*,#794,.F.);
#486=ORIENTED_EDGE('',*,*,#791,.F.);
#487=ORIENTED_EDGE('',*,*,#817,.F.);
#488=ORIENTED_EDGE('',*,*,#818,.F.);
#489=ORIENTED_EDGE('',*,*,#819,.T.);
#490=ORIENTED_EDGE('',*,*,#820,.T.);
#491=ORIENTED_EDGE('',*,*,#821,.F.);
#492=ORIENTED_EDGE('',*,*,#822,.F.);
#493=ORIENTED_EDGE('',*,*,#823,.T.);
#494=ORIENTED_EDGE('',*,*,#818,.T.);
#495=ORIENTED_EDGE('',*,*,#824,.F.);
#496=ORIENTED_EDGE('',*,*,#825,.F.);
#497=ORIENTED_EDGE('',*,*,#826,.T.);
#498=ORIENTED_EDGE('',*,*,#822,.T.);
#499=ORIENTED_EDGE('',*,*,#827,.F.);
#500=ORIENTED_EDGE('',*,*,#828,.F.);
#501=ORIENTED_EDGE('',*,*,#829,.T.);
#502=ORIENTED_EDGE('',*,*,#830,.T.);
#503=ORIENTED_EDGE('',*,*,#831,.F.);
#504=ORIENTED_EDGE('',*,*,#832,.F.);
#505=ORIENTED_EDGE('',*,*,#833,.T.);
#506=ORIENTED_EDGE('',*,*,#828,.T.);
#507=ORIENTED_EDGE('',*,*,#834,.F.);
#508=ORIENTED_EDGE('',*,*,#835,.F.);
#509=ORIENTED_EDGE('',*,*,#836,.T.);
#510=ORIENTED_EDGE('',*,*,#832,.T.);
#511=ORIENTED_EDGE('',*,*,#837,.F.);
#512=ORIENTED_EDGE('',*,*,#838,.F.);
#513=ORIENTED_EDGE('',*,*,#839,.T.);
#514=ORIENTED_EDGE('',*,*,#835,.T.);
#515=ORIENTED_EDGE('',*,*,#840,.F.);
#516=ORIENTED_EDGE('',*,*,#841,.F.);
#517=ORIENTED_EDGE('',*,*,#842,.T.);
#518=ORIENTED_EDGE('',*,*,#838,.T.);
#519=ORIENTED_EDGE('',*,*,#843,.F.);
#520=ORIENTED_EDGE('',*,*,#830,.F.);
#521=ORIENTED_EDGE('',*,*,#844,.T.);
#522=ORIENTED_EDGE('',*,*,#841,.T.);
#523=ORIENTED_EDGE('',*,*,#845,.F.);
#524=ORIENTED_EDGE('',*,*,#820,.F.);
#525=ORIENTED_EDGE('',*,*,#846,.T.);
#526=ORIENTED_EDGE('',*,*,#825,.T.);
#527=ORIENTED_EDGE('',*,*,#829,.F.);
#528=ORIENTED_EDGE('',*,*,#833,.F.);
#529=ORIENTED_EDGE('',*,*,#836,.F.);
#530=ORIENTED_EDGE('',*,*,#839,.F.);
#531=ORIENTED_EDGE('',*,*,#842,.F.);
#532=ORIENTED_EDGE('',*,*,#844,.F.);
#533=ORIENTED_EDGE('',*,*,#819,.F.);
#534=ORIENTED_EDGE('',*,*,#823,.F.);
#535=ORIENTED_EDGE('',*,*,#826,.F.);
#536=ORIENTED_EDGE('',*,*,#846,.F.);
#537=ORIENTED_EDGE('',*,*,#827,.T.);
#538=ORIENTED_EDGE('',*,*,#843,.T.);
#539=ORIENTED_EDGE('',*,*,#840,.T.);
#540=ORIENTED_EDGE('',*,*,#837,.T.);
#541=ORIENTED_EDGE('',*,*,#834,.T.);
#542=ORIENTED_EDGE('',*,*,#831,.T.);
#543=ORIENTED_EDGE('',*,*,#817,.T.);
#544=ORIENTED_EDGE('',*,*,#845,.T.);
#545=ORIENTED_EDGE('',*,*,#824,.T.);
#546=ORIENTED_EDGE('',*,*,#821,.T.);
#547=ORIENTED_EDGE('',*,*,#847,.F.);
#548=ORIENTED_EDGE('',*,*,#848,.F.);
#549=ORIENTED_EDGE('',*,*,#849,.T.);
#550=ORIENTED_EDGE('',*,*,#850,.T.);
#551=ORIENTED_EDGE('',*,*,#851,.F.);
#552=ORIENTED_EDGE('',*,*,#850,.F.);
#553=ORIENTED_EDGE('',*,*,#852,.T.);
#554=ORIENTED_EDGE('',*,*,#853,.T.);
#555=ORIENTED_EDGE('',*,*,#854,.F.);
#556=ORIENTED_EDGE('',*,*,#853,.F.);
#557=ORIENTED_EDGE('',*,*,#855,.T.);
#558=ORIENTED_EDGE('',*,*,#856,.T.);
#559=ORIENTED_EDGE('',*,*,#857,.F.);
#560=ORIENTED_EDGE('',*,*,#856,.F.);
#561=ORIENTED_EDGE('',*,*,#858,.T.);
#562=ORIENTED_EDGE('',*,*,#848,.T.);
#563=ORIENTED_EDGE('',*,*,#849,.F.);
#564=ORIENTED_EDGE('',*,*,#858,.F.);
#565=ORIENTED_EDGE('',*,*,#855,.F.);
#566=ORIENTED_EDGE('',*,*,#852,.F.);
#567=ORIENTED_EDGE('',*,*,#847,.T.);
#568=ORIENTED_EDGE('',*,*,#851,.T.);
#569=ORIENTED_EDGE('',*,*,#854,.T.);
#570=ORIENTED_EDGE('',*,*,#857,.T.);
#571=ORIENTED_EDGE('',*,*,#859,.T.);
#572=ORIENTED_EDGE('',*,*,#860,.F.);
#573=ORIENTED_EDGE('',*,*,#861,.F.);
#574=ORIENTED_EDGE('',*,*,#862,.T.);
#575=ORIENTED_EDGE('',*,*,#863,.T.);
#576=ORIENTED_EDGE('',*,*,#864,.F.);
#577=ORIENTED_EDGE('',*,*,#865,.F.);
#578=ORIENTED_EDGE('',*,*,#860,.T.);
#579=ORIENTED_EDGE('',*,*,#866,.T.);
#580=ORIENTED_EDGE('',*,*,#867,.F.);
#581=ORIENTED_EDGE('',*,*,#868,.F.);
#582=ORIENTED_EDGE('',*,*,#864,.T.);
#583=ORIENTED_EDGE('',*,*,#869,.T.);
#584=ORIENTED_EDGE('',*,*,#862,.F.);
#585=ORIENTED_EDGE('',*,*,#870,.F.);
#586=ORIENTED_EDGE('',*,*,#867,.T.);
#587=ORIENTED_EDGE('',*,*,#861,.T.);
#588=ORIENTED_EDGE('',*,*,#865,.T.);
#589=ORIENTED_EDGE('',*,*,#868,.T.);
#590=ORIENTED_EDGE('',*,*,#870,.T.);
#591=ORIENTED_EDGE('',*,*,#859,.F.);
#592=ORIENTED_EDGE('',*,*,#869,.F.);
#593=ORIENTED_EDGE('',*,*,#866,.F.);
#594=ORIENTED_EDGE('',*,*,#863,.F.);
#595=ORIENTED_EDGE('',*,*,#871,.F.);
#596=ORIENTED_EDGE('',*,*,#872,.F.);
#597=ORIENTED_EDGE('',*,*,#873,.F.);
#598=ORIENTED_EDGE('',*,*,#874,.T.);
#599=ORIENTED_EDGE('',*,*,#875,.T.);
#600=ORIENTED_EDGE('',*,*,#876,.T.);
#601=ORIENTED_EDGE('',*,*,#877,.F.);
#602=ORIENTED_EDGE('',*,*,#873,.T.);
#603=ORIENTED_EDGE('',*,*,#878,.F.);
#604=ORIENTED_EDGE('',*,*,#871,.T.);
#605=ORIENTED_EDGE('',*,*,#879,.T.);
#606=ORIENTED_EDGE('',*,*,#880,.T.);
#607=ORIENTED_EDGE('',*,*,#878,.T.);
#608=ORIENTED_EDGE('',*,*,#881,.T.);
#609=ORIENTED_EDGE('',*,*,#875,.F.);
#610=ORIENTED_EDGE('',*,*,#872,.T.);
#611=ORIENTED_EDGE('',*,*,#882,.F.);
#612=ORIENTED_EDGE('',*,*,#879,.F.);
#613=ORIENTED_EDGE('',*,*,#874,.F.);
#614=ORIENTED_EDGE('',*,*,#877,.T.);
#615=ORIENTED_EDGE('',*,*,#881,.F.);
#616=ORIENTED_EDGE('',*,*,#880,.F.);
#617=ORIENTED_EDGE('',*,*,#882,.T.);
#618=ORIENTED_EDGE('',*,*,#876,.F.);
#619=ORIENTED_EDGE('',*,*,#883,.F.);
#620=ORIENTED_EDGE('',*,*,#884,.F.);
#621=ORIENTED_EDGE('',*,*,#885,.T.);
#622=ORIENTED_EDGE('',*,*,#886,.T.);
#623=ORIENTED_EDGE('',*,*,#887,.F.);
#624=ORIENTED_EDGE('',*,*,#888,.T.);
#625=ORIENTED_EDGE('',*,*,#889,.F.);
#626=ORIENTED_EDGE('',*,*,#890,.F.);
#627=ORIENTED_EDGE('',*,*,#884,.T.);
#628=ORIENTED_EDGE('',*,*,#891,.F.);
#629=ORIENTED_EDGE('',*,*,#890,.T.);
#630=ORIENTED_EDGE('',*,*,#892,.T.);
#631=ORIENTED_EDGE('',*,*,#893,.T.);
#632=ORIENTED_EDGE('',*,*,#886,.F.);
#633=ORIENTED_EDGE('',*,*,#894,.F.);
#634=ORIENTED_EDGE('',*,*,#888,.F.);
#635=ORIENTED_EDGE('',*,*,#893,.F.);
#636=ORIENTED_EDGE('',*,*,#887,.T.);
#637=ORIENTED_EDGE('',*,*,#891,.T.);
#638=ORIENTED_EDGE('',*,*,#883,.T.);
#639=ORIENTED_EDGE('',*,*,#894,.T.);
#640=ORIENTED_EDGE('',*,*,#885,.F.);
#641=ORIENTED_EDGE('',*,*,#892,.F.);
#642=ORIENTED_EDGE('',*,*,#889,.T.);
#643=ORIENTED_EDGE('',*,*,#895,.T.);
#644=ORIENTED_EDGE('',*,*,#896,.F.);
#645=ORIENTED_EDGE('',*,*,#897,.F.);
#646=ORIENTED_EDGE('',*,*,#898,.T.);
#647=ORIENTED_EDGE('',*,*,#899,.F.);
#648=ORIENTED_EDGE('',*,*,#900,.F.);
#649=ORIENTED_EDGE('',*,*,#901,.T.);
#650=ORIENTED_EDGE('',*,*,#898,.F.);
#651=ORIENTED_EDGE('',*,*,#902,.F.);
#652=ORIENTED_EDGE('',*,*,#903,.T.);
#653=ORIENTED_EDGE('',*,*,#904,.T.);
#654=ORIENTED_EDGE('',*,*,#896,.T.);
#655=ORIENTED_EDGE('',*,*,#904,.F.);
#656=ORIENTED_EDGE('',*,*,#905,.T.);
#657=ORIENTED_EDGE('',*,*,#899,.T.);
#658=ORIENTED_EDGE('',*,*,#897,.T.);
#659=ORIENTED_EDGE('',*,*,#906,.F.);
#660=ORIENTED_EDGE('',*,*,#902,.T.);
#661=ORIENTED_EDGE('',*,*,#895,.F.);
#662=ORIENTED_EDGE('',*,*,#901,.F.);
#663=ORIENTED_EDGE('',*,*,#903,.F.);
#664=ORIENTED_EDGE('',*,*,#906,.T.);
#665=ORIENTED_EDGE('',*,*,#900,.T.);
#666=ORIENTED_EDGE('',*,*,#905,.F.);
#667=VERTEX_POINT('',#1542);
#668=VERTEX_POINT('',#1543);
#669=VERTEX_POINT('',#1545);
#670=VERTEX_POINT('',#1547);
#671=VERTEX_POINT('',#1551);
#672=VERTEX_POINT('',#1553);
#673=VERTEX_POINT('',#1557);
#674=VERTEX_POINT('',#1559);
#675=VERTEX_POINT('',#1568);
#676=VERTEX_POINT('',#1569);
#677=VERTEX_POINT('',#1571);
#678=VERTEX_POINT('',#1573);
#679=VERTEX_POINT('',#1577);
#680=VERTEX_POINT('',#1578);
#681=VERTEX_POINT('',#1580);
#682=VERTEX_POINT('',#1582);
#683=VERTEX_POINT('',#1594);
#684=VERTEX_POINT('',#1595);
#685=VERTEX_POINT('',#1597);
#686=VERTEX_POINT('',#1599);
#687=VERTEX_POINT('',#1603);
#688=VERTEX_POINT('',#1605);
#689=VERTEX_POINT('',#1609);
#690=VERTEX_POINT('',#1611);
#691=VERTEX_POINT('',#1615);
#692=VERTEX_POINT('',#1616);
#693=VERTEX_POINT('',#1618);
#694=VERTEX_POINT('',#1620);
#695=VERTEX_POINT('',#1624);
#696=VERTEX_POINT('',#1626);
#697=VERTEX_POINT('',#1630);
#698=VERTEX_POINT('',#1632);
#699=VERTEX_POINT('',#1636);
#700=VERTEX_POINT('',#1638);
#701=VERTEX_POINT('',#1642);
#702=VERTEX_POINT('',#1644);
#703=VERTEX_POINT('',#1656);
#704=VERTEX_POINT('',#1657);
#705=VERTEX_POINT('',#1659);
#706=VERTEX_POINT('',#1661);
#707=VERTEX_POINT('',#1665);
#708=VERTEX_POINT('',#1667);
#709=VERTEX_POINT('',#1671);
#710=VERTEX_POINT('',#1673);
#711=VERTEX_POINT('',#1677);
#712=VERTEX_POINT('',#1678);
#713=VERTEX_POINT('',#1680);
#714=VERTEX_POINT('',#1682);
#715=VERTEX_POINT('',#1686);
#716=VERTEX_POINT('',#1688);
#717=VERTEX_POINT('',#1692);
#718=VERTEX_POINT('',#1694);
#719=VERTEX_POINT('',#1698);
#720=VERTEX_POINT('',#1700);
#721=VERTEX_POINT('',#1704);
#722=VERTEX_POINT('',#1706);
#723=VERTEX_POINT('',#1718);
#724=VERTEX_POINT('',#1719);
#725=VERTEX_POINT('',#1721);
#726=VERTEX_POINT('',#1723);
#727=VERTEX_POINT('',#1727);
#728=VERTEX_POINT('',#1729);
#729=VERTEX_POINT('',#1733);
#730=VERTEX_POINT('',#1735);
#731=VERTEX_POINT('',#1744);
#732=VERTEX_POINT('',#1745);
#733=VERTEX_POINT('',#1747);
#734=VERTEX_POINT('',#1749);
#735=VERTEX_POINT('',#1753);
#736=VERTEX_POINT('',#1755);
#737=VERTEX_POINT('',#1759);
#738=VERTEX_POINT('',#1761);
#739=VERTEX_POINT('',#1770);
#740=VERTEX_POINT('',#1771);
#741=VERTEX_POINT('',#1773);
#742=VERTEX_POINT('',#1775);
#743=VERTEX_POINT('',#1779);
#744=VERTEX_POINT('',#1781);
#745=VERTEX_POINT('',#1785);
#746=VERTEX_POINT('',#1787);
#747=VERTEX_POINT('',#1796);
#748=VERTEX_POINT('',#1797);
#749=VERTEX_POINT('',#1799);
#750=VERTEX_POINT('',#1801);
#751=VERTEX_POINT('',#1805);
#752=VERTEX_POINT('',#1806);
#753=VERTEX_POINT('',#1808);
#754=VERTEX_POINT('',#1810);
#755=VERTEX_POINT('',#1822);
#756=VERTEX_POINT('',#1823);
#757=VERTEX_POINT('',#1825);
#758=VERTEX_POINT('',#1827);
#759=VERTEX_POINT('',#1831);
#760=VERTEX_POINT('',#1833);
#761=VERTEX_POINT('',#1837);
#762=VERTEX_POINT('',#1839);
#763=EDGE_CURVE('',#667,#668,#907,.T.);
#764=EDGE_CURVE('',#669,#667,#908,.T.);
#765=EDGE_CURVE('',#669,#670,#909,.T.);
#766=EDGE_CURVE('',#670,#668,#910,.T.);
#767=EDGE_CURVE('',#668,#671,#911,.T.);
#768=EDGE_CURVE('',#670,#672,#912,.T.);
#769=EDGE_CURVE('',#672,#671,#913,.T.);
#770=EDGE_CURVE('',#671,#673,#914,.T.);
#771=EDGE_CURVE('',#672,#674,#915,.T.);
#772=EDGE_CURVE('',#674,#673,#916,.T.);
#773=EDGE_CURVE('',#673,#667,#917,.T.);
#774=EDGE_CURVE('',#674,#669,#918,.T.);
#775=EDGE_CURVE('',#675,#676,#919,.T.);
#776=EDGE_CURVE('',#677,#676,#920,.T.);
#777=EDGE_CURVE('',#677,#678,#921,.T.);
#778=EDGE_CURVE('',#678,#675,#922,.T.);
#779=EDGE_CURVE('',#679,#680,#923,.T.);
#780=EDGE_CURVE('',#681,#680,#924,.T.);
#781=EDGE_CURVE('',#682,#681,#925,.T.);
#782=EDGE_CURVE('',#679,#682,#926,.T.);
#783=EDGE_CURVE('',#676,#680,#927,.T.);
#784=EDGE_CURVE('',#675,#681,#928,.T.);
#785=EDGE_CURVE('',#679,#677,#929,.T.);
#786=EDGE_CURVE('',#678,#682,#930,.T.);
#787=EDGE_CURVE('',#683,#684,#931,.T.);
#788=EDGE_CURVE('',#685,#684,#932,.T.);
#789=EDGE_CURVE('',#686,#685,#933,.T.);
#790=EDGE_CURVE('',#686,#683,#934,.T.);
#791=EDGE_CURVE('',#684,#687,#935,.T.);
#792=EDGE_CURVE('',#688,#687,#936,.T.);
#793=EDGE_CURVE('',#685,#688,#937,.T.);
#794=EDGE_CURVE('',#687,#689,#938,.T.);
#795=EDGE_CURVE('',#690,#689,#939,.T.);
#796=EDGE_CURVE('',#688,#690,#940,.T.);
#797=EDGE_CURVE('',#691,#692,#941,.T.);
#798=EDGE_CURVE('',#693,#692,#942,.T.);
#799=EDGE_CURVE('',#694,#693,#943,.T.);
#800=EDGE_CURVE('',#694,#691,#944,.T.);
#801=EDGE_CURVE('',#692,#695,#945,.T.);
#802=EDGE_CURVE('',#696,#695,#946,.T.);
#803=EDGE_CURVE('',#693,#696,#947,.T.);
#804=EDGE_CURVE('',#695,#697,#948,.T.);
#805=EDGE_CURVE('',#698,#697,#949,.T.);
#806=EDGE_CURVE('',#696,#698,#950,.T.);
#807=EDGE_CURVE('',#697,#699,#951,.T.);
#808=EDGE_CURVE('',#700,#699,#952,.T.);
#809=EDGE_CURVE('',#698,#700,#953,.T.);
#810=EDGE_CURVE('',#699,#701,#954,.T.);
#811=EDGE_CURVE('',#702,#701,#955,.T.);
#812=EDGE_CURVE('',#700,#702,#956,.T.);
#813=EDGE_CURVE('',#701,#691,#957,.T.);
#814=EDGE_CURVE('',#702,#694,#958,.T.);
#815=EDGE_CURVE('',#689,#683,#959,.T.);
#816=EDGE_CURVE('',#690,#686,#960,.T.);
#817=EDGE_CURVE('',#703,#704,#961,.T.);
#818=EDGE_CURVE('',#705,#703,#962,.T.);
#819=EDGE_CURVE('',#705,#706,#963,.T.);
#820=EDGE_CURVE('',#706,#704,#964,.T.);
#821=EDGE_CURVE('',#707,#703,#965,.T.);
#822=EDGE_CURVE('',#708,#707,#966,.T.);
#823=EDGE_CURVE('',#708,#705,#967,.T.);
#824=EDGE_CURVE('',#709,#707,#968,.T.);
#825=EDGE_CURVE('',#710,#709,#969,.T.);
#826=EDGE_CURVE('',#710,#708,#970,.T.);
#827=EDGE_CURVE('',#711,#712,#971,.T.);
#828=EDGE_CURVE('',#713,#711,#972,.T.);
#829=EDGE_CURVE('',#713,#714,#973,.T.);
#830=EDGE_CURVE('',#714,#712,#974,.T.);
#831=EDGE_CURVE('',#715,#711,#975,.T.);
#832=EDGE_CURVE('',#716,#715,#976,.T.);
#833=EDGE_CURVE('',#716,#713,#977,.T.);
#834=EDGE_CURVE('',#717,#715,#978,.T.);
#835=EDGE_CURVE('',#718,#717,#979,.T.);
#836=EDGE_CURVE('',#718,#716,#980,.T.);
#837=EDGE_CURVE('',#719,#717,#981,.T.);
#838=EDGE_CURVE('',#720,#719,#982,.T.);
#839=EDGE_CURVE('',#720,#718,#983,.T.);
#840=EDGE_CURVE('',#721,#719,#984,.T.);
#841=EDGE_CURVE('',#722,#721,#985,.T.);
#842=EDGE_CURVE('',#722,#720,#986,.T.);
#843=EDGE_CURVE('',#712,#721,#987,.T.);
#844=EDGE_CURVE('',#714,#722,#988,.T.);
#845=EDGE_CURVE('',#704,#709,#989,.T.);
#846=EDGE_CURVE('',#706,#710,#990,.T.);
#847=EDGE_CURVE('',#723,#724,#991,.T.);
#848=EDGE_CURVE('',#725,#723,#992,.T.);
#849=EDGE_CURVE('',#725,#726,#993,.T.);
#850=EDGE_CURVE('',#726,#724,#994,.T.);
#851=EDGE_CURVE('',#724,#727,#995,.T.);
#852=EDGE_CURVE('',#726,#728,#996,.T.);
#853=EDGE_CURVE('',#728,#727,#997,.T.);
#854=EDGE_CURVE('',#727,#729,#998,.T.);
#855=EDGE_CURVE('',#728,#730,#999,.T.);
#856=EDGE_CURVE('',#730,#729,#1000,.T.);
#857=EDGE_CURVE('',#729,#723,#1001,.T.);
#858=EDGE_CURVE('',#730,#725,#1002,.T.);
#859=EDGE_CURVE('',#731,#732,#1003,.T.);
#860=EDGE_CURVE('',#733,#732,#1004,.T.);
#861=EDGE_CURVE('',#734,#733,#1005,.T.);
#862=EDGE_CURVE('',#734,#731,#1006,.T.);
#863=EDGE_CURVE('',#732,#735,#1007,.T.);
#864=EDGE_CURVE('',#736,#735,#1008,.T.);
#865=EDGE_CURVE('',#733,#736,#1009,.T.);
#866=EDGE_CURVE('',#735,#737,#1010,.T.);
#867=EDGE_CURVE('',#738,#737,#1011,.T.);
#868=EDGE_CURVE('',#736,#738,#1012,.T.);
#869=EDGE_CURVE('',#737,#731,#1013,.T.);
#870=EDGE_CURVE('',#738,#734,#1014,.T.);
#871=EDGE_CURVE('',#739,#740,#1015,.T.);
#872=EDGE_CURVE('',#741,#739,#1016,.T.);
#873=EDGE_CURVE('',#742,#741,#1017,.T.);
#874=EDGE_CURVE('',#742,#740,#1018,.T.);
#875=EDGE_CURVE('',#741,#743,#1019,.T.);
#876=EDGE_CURVE('',#743,#744,#1020,.T.);
#877=EDGE_CURVE('',#742,#744,#1021,.T.);
#878=EDGE_CURVE('',#739,#745,#1022,.T.);
#879=EDGE_CURVE('',#740,#746,#1023,.T.);
#880=EDGE_CURVE('',#746,#745,#1024,.T.);
#881=EDGE_CURVE('',#745,#743,#1025,.T.);
#882=EDGE_CURVE('',#746,#744,#1026,.T.);
#883=EDGE_CURVE('',#747,#748,#1027,.T.);
#884=EDGE_CURVE('',#749,#747,#1028,.T.);
#885=EDGE_CURVE('',#749,#750,#1029,.T.);
#886=EDGE_CURVE('',#750,#748,#1030,.T.);
#887=EDGE_CURVE('',#751,#752,#1031,.T.);
#888=EDGE_CURVE('',#751,#753,#1032,.T.);
#889=EDGE_CURVE('',#754,#753,#1033,.T.);
#890=EDGE_CURVE('',#752,#754,#1034,.T.);
#891=EDGE_CURVE('',#752,#747,#1035,.T.);
#892=EDGE_CURVE('',#754,#749,#1036,.T.);
#893=EDGE_CURVE('',#751,#748,#1037,.T.);
#894=EDGE_CURVE('',#753,#750,#1038,.T.);
#895=EDGE_CURVE('',#755,#756,#1039,.T.);
#896=EDGE_CURVE('',#757,#756,#1040,.T.);
#897=EDGE_CURVE('',#758,#757,#1041,.T.);
#898=EDGE_CURVE('',#758,#755,#1042,.T.);
#899=EDGE_CURVE('',#759,#758,#1043,.T.);
#900=EDGE_CURVE('',#760,#759,#1044,.T.);
#901=EDGE_CURVE('',#760,#755,#1045,.T.);
#902=EDGE_CURVE('',#761,#756,#1046,.T.);
#903=EDGE_CURVE('',#761,#762,#1047,.T.);
#904=EDGE_CURVE('',#762,#757,#1048,.T.);
#905=EDGE_CURVE('',#762,#759,#1049,.T.);
#906=EDGE_CURVE('',#761,#760,#1050,.T.);
#907=LINE('',#1541,#1051);
#908=LINE('',#1544,#1052);
#909=LINE('',#1546,#1053);
#910=LINE('',#1548,#1054);
#911=LINE('',#1550,#1055);
#912=LINE('',#1552,#1056);
#913=LINE('',#1554,#1057);
#914=LINE('',#1556,#1058);
#915=LINE('',#1558,#1059);
#916=LINE('',#1560,#1060);
#917=LINE('',#1562,#1061);
#918=LINE('',#1563,#1062);
#919=LINE('',#1567,#1063);
#920=LINE('',#1570,#1064);
#921=LINE('',#1572,#1065);
#922=LINE('',#1574,#1066);
#923=LINE('',#1576,#1067);
#924=LINE('',#1579,#1068);
#925=LINE('',#1581,#1069);
#926=LINE('',#1583,#1070);
#927=LINE('',#1585,#1071);
#928=LINE('',#1586,#1072);
#929=LINE('',#1588,#1073);
#930=LINE('',#1589,#1074);
#931=LINE('',#1593,#1075);
#932=LINE('',#1596,#1076);
#933=LINE('',#1598,#1077);
#934=LINE('',#1600,#1078);
#935=LINE('',#1602,#1079);
#936=LINE('',#1604,#1080);
#937=LINE('',#1606,#1081);
#938=LINE('',#1608,#1082);
#939=LINE('',#1610,#1083);
#940=LINE('',#1612,#1084);
#941=LINE('',#1614,#1085);
#942=LINE('',#1617,#1086);
#943=LINE('',#1619,#1087);
#944=LINE('',#1621,#1088);
#945=LINE('',#1623,#1089);
#946=LINE('',#1625,#1090);
#947=LINE('',#1627,#1091);
#948=LINE('',#1629,#1092);
#949=LINE('',#1631,#1093);
#950=LINE('',#1633,#1094);
#951=LINE('',#1635,#1095);
#952=LINE('',#1637,#1096);
#953=LINE('',#1639,#1097);
#954=LINE('',#1641,#1098);
#955=LINE('',#1643,#1099);
#956=LINE('',#1645,#1100);
#957=LINE('',#1647,#1101);
#958=LINE('',#1648,#1102);
#959=LINE('',#1650,#1103);
#960=LINE('',#1651,#1104);
#961=LINE('',#1655,#1105);
#962=LINE('',#1658,#1106);
#963=LINE('',#1660,#1107);
#964=LINE('',#1662,#1108);
#965=LINE('',#1664,#1109);
#966=LINE('',#1666,#1110);
#967=LINE('',#1668,#1111);
#968=LINE('',#1670,#1112);
#969=LINE('',#1672,#1113);
#970=LINE('',#1674,#1114);
#971=LINE('',#1676,#1115);
#972=LINE('',#1679,#1116);
#973=LINE('',#1681,#1117);
#974=LINE('',#1683,#1118);
#975=LINE('',#1685,#1119);
#976=LINE('',#1687,#1120);
#977=LINE('',#1689,#1121);
#978=LINE('',#1691,#1122);
#979=LINE('',#1693,#1123);
#980=LINE('',#1695,#1124);
#981=LINE('',#1697,#1125);
#982=LINE('',#1699,#1126);
#983=LINE('',#1701,#1127);
#984=LINE('',#1703,#1128);
#985=LINE('',#1705,#1129);
#986=LINE('',#1707,#1130);
#987=LINE('',#1709,#1131);
#988=LINE('',#1710,#1132);
#989=LINE('',#1712,#1133);
#990=LINE('',#1713,#1134);
#991=LINE('',#1717,#1135);
#992=LINE('',#1720,#1136);
#993=LINE('',#1722,#1137);
#994=LINE('',#1724,#1138);
#995=LINE('',#1726,#1139);
#996=LINE('',#1728,#1140);
#997=LINE('',#1730,#1141);
#998=LINE('',#1732,#1142);
#999=LINE('',#1734,#1143);
#1000=LINE('',#1736,#1144);
#1001=LINE('',#1738,#1145);
#1002=LINE('',#1739,#1146);
#1003=LINE('',#1743,#1147);
#1004=LINE('',#1746,#1148);
#1005=LINE('',#1748,#1149);
#1006=LINE('',#1750,#1150);
#1007=LINE('',#1752,#1151);
#1008=LINE('',#1754,#1152);
#1009=LINE('',#1756,#1153);
#1010=LINE('',#1758,#1154);
#1011=LINE('',#1760,#1155);
#1012=LINE('',#1762,#1156);
#1013=LINE('',#1764,#1157);
#1014=LINE('',#1765,#1158);
#1015=LINE('',#1769,#1159);
#1016=LINE('',#1772,#1160);
#1017=LINE('',#1774,#1161);
#1018=LINE('',#1776,#1162);
#1019=LINE('',#1778,#1163);
#1020=LINE('',#1780,#1164);
#1021=LINE('',#1782,#1165);
#1022=LINE('',#1784,#1166);
#1023=LINE('',#1786,#1167);
#1024=LINE('',#1788,#1168);
#1025=LINE('',#1790,#1169);
#1026=LINE('',#1792,#1170);
#1027=LINE('',#1795,#1171);
#1028=LINE('',#1798,#1172);
#1029=LINE('',#1800,#1173);
#1030=LINE('',#1802,#1174);
#1031=LINE('',#1804,#1175);
#1032=LINE('',#1807,#1176);
#1033=LINE('',#1809,#1177);
#1034=LINE('',#1811,#1178);
#1035=LINE('',#1813,#1179);
#1036=LINE('',#1814,#1180);
#1037=LINE('',#1816,#1181);
#1038=LINE('',#1817,#1182);
#1039=LINE('',#1821,#1183);
#1040=LINE('',#1824,#1184);
#1041=LINE('',#1826,#1185);
#1042=LINE('',#1828,#1186);
#1043=LINE('',#1830,#1187);
#1044=LINE('',#1832,#1188);
#1045=LINE('',#1834,#1189);
#1046=LINE('',#1836,#1190);
#1047=LINE('',#1838,#1191);
#1048=LINE('',#1840,#1192);
#1049=LINE('',#1842,#1193);
#1050=LINE('',#1844,#1194);
#1051=VECTOR('',#1264,1.);
#1052=VECTOR('',#1265,1.);
#1053=VECTOR('',#1266,1.);
#1054=VECTOR('',#1267,1.);
#1055=VECTOR('',#1270,1.);
#1056=VECTOR('',#1271,1.);
#1057=VECTOR('',#1272,1.);
#1058=VECTOR('',#1275,1.);
#1059=VECTOR('',#1276,1.);
#1060=VECTOR('',#1277,1.);
#1061=VECTOR('',#1280,1.);
#1062=VECTOR('',#1281,1.);
#1063=VECTOR('',#1288,1.);
#1064=VECTOR('',#1289,1.);
#1065=VECTOR('',#1290,1.);
#1066=VECTOR('',#1291,1.);
#1067=VECTOR('',#1294,1.);
#1068=VECTOR('',#1295,1.);
#1069=VECTOR('',#1296,1.);
#1070=VECTOR('',#1297,1.);
#1071=VECTOR('',#1300,1.);
#1072=VECTOR('',#1301,1.);
#1073=VECTOR('',#1304,1.);
#1074=VECTOR('',#1305,1.);
#1075=VECTOR('',#1312,1.);
#1076=VECTOR('',#1313,1.);
#1077=VECTOR('',#1314,1.);
#1078=VECTOR('',#1315,1.);
#1079=VECTOR('',#1318,1.);
#1080=VECTOR('',#1319,1.);
#1081=VECTOR('',#1320,1.);
#1082=VECTOR('',#1323,1.);
#1083=VECTOR('',#1324,1.);
#1084=VECTOR('',#1325,1.);
#1085=VECTOR('',#1328,1.);
#1086=VECTOR('',#1329,1.);
#1087=VECTOR('',#1330,1.);
#1088=VECTOR('',#1331,1.);
#1089=VECTOR('',#1334,1.);
#1090=VECTOR('',#1335,1.);
#1091=VECTOR('',#1336,1.);
#1092=VECTOR('',#1339,1.);
#1093=VECTOR('',#1340,1.);
#1094=VECTOR('',#1341,1.);
#1095=VECTOR('',#1344,1.);
#1096=VECTOR('',#1345,1.);
#1097=VECTOR('',#1346,1.);
#1098=VECTOR('',#1349,1.);
#1099=VECTOR('',#1350,1.);
#1100=VECTOR('',#1351,1.);
#1101=VECTOR('',#1354,1.);
#1102=VECTOR('',#1355,1.);
#1103=VECTOR('',#1358,1.);
#1104=VECTOR('',#1359,1.);
#1105=VECTOR('',#1366,1.);
#1106=VECTOR('',#1367,1.);
#1107=VECTOR('',#1368,1.);
#1108=VECTOR('',#1369,1.);
#1109=VECTOR('',#1372,1.);
#1110=VECTOR('',#1373,1.);
#1111=VECTOR('',#1374,1.);
#1112=VECTOR('',#1377,1.);
#1113=VECTOR('',#1378,1.);
#1114=VECTOR('',#1379,1.);
#1115=VECTOR('',#1382,1.);
#1116=VECTOR('',#1383,1.);
#1117=VECTOR('',#1384,1.);
#1118=VECTOR('',#1385,1.);
#1119=VECTOR('',#1388,1.);
#1120=VECTOR('',#1389,1.);
#1121=VECTOR('',#1390,1.);
#1122=VECTOR('',#1393,1.);
#1123=VECTOR('',#1394,1.);
#1124=VECTOR('',#1395,1.);
#1125=VECTOR('',#1398,1.);
#1126=VECTOR('',#1399,1.);
#1127=VECTOR('',#1400,1.);
#1128=VECTOR('',#1403,1.);
#1129=VECTOR('',#1404,1.);
#1130=VECTOR('',#1405,1.);
#1131=VECTOR('',#1408,1.);
#1132=VECTOR('',#1409,1.);
#1133=VECTOR('',#1412,1.);
#1134=VECTOR('',#1413,1.);
#1135=VECTOR('',#1420,1.);
#1136=VECTOR('',#1421,1.);
#1137=VECTOR('',#1422,1.);
#1138=VECTOR('',#1423,1.);
#1139=VECTOR('',#1426,1.);
#1140=VECTOR('',#1427,1.);
#1141=VECTOR('',#1428,1.);
#1142=VECTOR('',#1431,1.);
#1143=VECTOR('',#1432,1.);
#1144=VECTOR('',#1433,1.);
#1145=VECTOR('',#1436,1.);
#1146=VECTOR('',#1437,1.);
#1147=VECTOR('',#1444,1.);
#1148=VECTOR('',#1445,1.);
#1149=VECTOR('',#1446,1.);
#1150=VECTOR('',#1447,1.);
#1151=VECTOR('',#1450,1.);
#1152=VECTOR('',#1451,1.);
#1153=VECTOR('',#1452,1.);
#1154=VECTOR('',#1455,1.);
#1155=VECTOR('',#1456,1.);
#1156=VECTOR('',#1457,1.);
#1157=VECTOR('',#1460,1.);
#1158=VECTOR('',#1461,1.);
#1159=VECTOR('',#1468,1.);
#1160=VECTOR('',#1469,1.);
#1161=VECTOR('',#1470,1.);
#1162=VECTOR('',#1471,1.);
#1163=VECTOR('',#1474,1.);
#1164=VECTOR('',#1475,1.);
#1165=VECTOR('',#1476,1.);
#1166=VECTOR('',#1479,1.);
#1167=VECTOR('',#1480,1.);
#1168=VECTOR('',#1481,1.);
#1169=VECTOR('',#1484,1.);
#1170=VECTOR('',#1487,1.);
#1171=VECTOR('',#1492,1.);
#1172=VECTOR('',#1493,1.);
#1173=VECTOR('',#1494,1.);
#1174=VECTOR('',#1495,1.);
#1175=VECTOR('',#1498,1.);
#1176=VECTOR('',#1499,1.);
#1177=VECTOR('',#1500,1.);
#1178=VECTOR('',#1501,1.);
#1179=VECTOR('',#1504,1.);
#1180=VECTOR('',#1505,1.);
#1181=VECTOR('',#1508,1.);
#1182=VECTOR('',#1509,1.);
#1183=VECTOR('',#1516,1.);
#1184=VECTOR('',#1517,1.);
#1185=VECTOR('',#1518,1.);
#1186=VECTOR('',#1519,1.);
#1187=VECTOR('',#1522,1.);
#1188=VECTOR('',#1523,1.);
#1189=VECTOR('',#1524,1.);
#1190=VECTOR('',#1527,1.);
#1191=VECTOR('',#1528,1.);
#1192=VECTOR('',#1529,1.);
#1193=VECTOR('',#1532,1.);
#1194=VECTOR('',#1535,1.);
#1195=AXIS2_PLACEMENT_3D('',#1540,#1262,#1263);
#1196=AXIS2_PLACEMENT_3D('',#1549,#1268,#1269);
#1197=AXIS2_PLACEMENT_3D('',#1555,#1273,#1274);
#1198=AXIS2_PLACEMENT_3D('',#1561,#1278,#1279);
#1199=AXIS2_PLACEMENT_3D('',#1564,#1282,#1283);
#1200=AXIS2_PLACEMENT_3D('',#1565,#1284,#1285);
#1201=AXIS2_PLACEMENT_3D('',#1566,#1286,#1287);
#1202=AXIS2_PLACEMENT_3D('',#1575,#1292,#1293);
#1203=AXIS2_PLACEMENT_3D('',#1584,#1298,#1299);
#1204=AXIS2_PLACEMENT_3D('',#1587,#1302,#1303);
#1205=AXIS2_PLACEMENT_3D('',#1590,#1306,#1307);
#1206=AXIS2_PLACEMENT_3D('',#1591,#1308,#1309);
#1207=AXIS2_PLACEMENT_3D('',#1592,#1310,#1311);
#1208=AXIS2_PLACEMENT_3D('',#1601,#1316,#1317);
#1209=AXIS2_PLACEMENT_3D('',#1607,#1321,#1322);
#1210=AXIS2_PLACEMENT_3D('',#1613,#1326,#1327);
#1211=AXIS2_PLACEMENT_3D('',#1622,#1332,#1333);
#1212=AXIS2_PLACEMENT_3D('',#1628,#1337,#1338);
#1213=AXIS2_PLACEMENT_3D('',#1634,#1342,#1343);
#1214=AXIS2_PLACEMENT_3D('',#1640,#1347,#1348);
#1215=AXIS2_PLACEMENT_3D('',#1646,#1352,#1353);
#1216=AXIS2_PLACEMENT_3D('',#1649,#1356,#1357);
#1217=AXIS2_PLACEMENT_3D('',#1652,#1360,#1361);
#1218=AXIS2_PLACEMENT_3D('',#1653,#1362,#1363);
#1219=AXIS2_PLACEMENT_3D('',#1654,#1364,#1365);
#1220=AXIS2_PLACEMENT_3D('',#1663,#1370,#1371);
#1221=AXIS2_PLACEMENT_3D('',#1669,#1375,#1376);
#1222=AXIS2_PLACEMENT_3D('',#1675,#1380,#1381);
#1223=AXIS2_PLACEMENT_3D('',#1684,#1386,#1387);
#1224=AXIS2_PLACEMENT_3D('',#1690,#1391,#1392);
#1225=AXIS2_PLACEMENT_3D('',#1696,#1396,#1397);
#1226=AXIS2_PLACEMENT_3D('',#1702,#1401,#1402);
#1227=AXIS2_PLACEMENT_3D('',#1708,#1406,#1407);
#1228=AXIS2_PLACEMENT_3D('',#1711,#1410,#1411);
#1229=AXIS2_PLACEMENT_3D('',#1714,#1414,#1415);
#1230=AXIS2_PLACEMENT_3D('',#1715,#1416,#1417);
#1231=AXIS2_PLACEMENT_3D('',#1716,#1418,#1419);
#1232=AXIS2_PLACEMENT_3D('',#1725,#1424,#1425);
#1233=AXIS2_PLACEMENT_3D('',#1731,#1429,#1430);
#1234=AXIS2_PLACEMENT_3D('',#1737,#1434,#1435);
#1235=AXIS2_PLACEMENT_3D('',#1740,#1438,#1439);
#1236=AXIS2_PLACEMENT_3D('',#1741,#1440,#1441);
#1237=AXIS2_PLACEMENT_3D('',#1742,#1442,#1443);
#1238=AXIS2_PLACEMENT_3D('',#1751,#1448,#1449);
#1239=AXIS2_PLACEMENT_3D('',#1757,#1453,#1454);
#1240=AXIS2_PLACEMENT_3D('',#1763,#1458,#1459);
#1241=AXIS2_PLACEMENT_3D('',#1766,#1462,#1463);
#1242=AXIS2_PLACEMENT_3D('',#1767,#1464,#1465);
#1243=AXIS2_PLACEMENT_3D('',#1768,#1466,#1467);
#1244=AXIS2_PLACEMENT_3D('',#1777,#1472,#1473);
#1245=AXIS2_PLACEMENT_3D('',#1783,#1477,#1478);
#1246=AXIS2_PLACEMENT_3D('',#1789,#1482,#1483);
#1247=AXIS2_PLACEMENT_3D('',#1791,#1485,#1486);
#1248=AXIS2_PLACEMENT_3D('',#1793,#1488,#1489);
#1249=AXIS2_PLACEMENT_3D('',#1794,#1490,#1491);
#1250=AXIS2_PLACEMENT_3D('',#1803,#1496,#1497);
#1251=AXIS2_PLACEMENT_3D('',#1812,#1502,#1503);
#1252=AXIS2_PLACEMENT_3D('',#1815,#1506,#1507);
#1253=AXIS2_PLACEMENT_3D('',#1818,#1510,#1511);
#1254=AXIS2_PLACEMENT_3D('',#1819,#1512,#1513);
#1255=AXIS2_PLACEMENT_3D('',#1820,#1514,#1515);
#1256=AXIS2_PLACEMENT_3D('',#1829,#1520,#1521);
#1257=AXIS2_PLACEMENT_3D('',#1835,#1525,#1526);
#1258=AXIS2_PLACEMENT_3D('',#1841,#1530,#1531);
#1259=AXIS2_PLACEMENT_3D('',#1843,#1533,#1534);
#1260=AXIS2_PLACEMENT_3D('',#1845,#1536,#1537);
#1261=AXIS2_PLACEMENT_3D('',#1846,#1538,#1539);
#1262=DIRECTION('',(0.,0.,1.));
#1263=DIRECTION('',(1.,0.,0.));
#1264=DIRECTION('',(0.,1.,0.));
#1265=DIRECTION('',(0.,0.,1.));
#1266=DIRECTION('',(0.,1.,0.));
#1267=DIRECTION('',(0.,0.,1.));
#1268=DIRECTION('',(1.,0.,0.));
#1269=DIRECTION('',(0.,0.,-1.));
#1270=DIRECTION('',(-1.,0.,0.));
#1271=DIRECTION('',(-1.,0.,0.));
#1272=DIRECTION('',(0.,0.,1.));
#1273=DIRECTION('',(0.,1.,0.));
#1274=DIRECTION('',(0.,0.,1.));
#1275=DIRECTION('',(0.,-1.,0.));
#1276=DIRECTION('',(0.,-1.,0.));
#1277=DIRECTION('',(0.,0.,1.));
#1278=DIRECTION('',(-1.,0.,0.));
#1279=DIRECTION('',(0.,0.,1.));
#1280=DIRECTION('',(1.,0.,0.));
#1281=DIRECTION('',(1.,0.,0.));
#1282=DIRECTION('',(0.,-1.,0.));
#1283=DIRECTION('',(0.,0.,-1.));
#1284=DIRECTION('',(0.,0.,1.));
#1285=DIRECTION('',(1.,0.,0.));
#1286=DIRECTION('',(0.,0.,1.));
#1287=DIRECTION('',(1.,0.,0.));
#1288=DIRECTION('',(0.,-1.,0.));
#1289=DIRECTION('',(1.,0.,0.));
#1290=DIRECTION('',(0.,1.,0.));
#1291=DIRECTION('',(1.,0.,0.));
#1292=DIRECTION('',(0.,0.,-1.));
#1293=DIRECTION('',(-1.,0.,0.));
#1294=DIRECTION('',(1.,2.08166817117217E-16,0.));
#1295=DIRECTION('',(0.,-1.,0.));
#1296=DIRECTION('',(1.,0.,0.));
#1297=DIRECTION('',(0.,1.,0.));
#1298=DIRECTION('',(0.,0.,-1.));
#1299=DIRECTION('',(-1.,0.,0.));
#1300=DIRECTION('',(0.,0.,1.));
#1301=DIRECTION('',(0.,0.,1.));
#1302=DIRECTION('',(-1.,0.,0.));
#1303=DIRECTION('',(0.,0.,1.));
#1304=DIRECTION('',(0.,0.,-1.));
#1305=DIRECTION('',(0.,0.,1.));
#1306=DIRECTION('',(1.,0.,0.));
#1307=DIRECTION('',(0.,0.,-1.));
#1308=DIRECTION('',(0.,-1.,0.));
#1309=DIRECTION('',(0.,0.,-1.));
#1310=DIRECTION('',(2.08166817117217E-16,-1.,0.));
#1311=DIRECTION('',(1.,1.94289029309402E-16,0.));
#1312=DIRECTION('',(0.,0.,1.));
#1313=DIRECTION('',(0.,1.,0.));
#1314=DIRECTION('',(0.,0.,1.));
#1315=DIRECTION('',(0.,1.,0.));
#1316=DIRECTION('',(-1.,0.,0.));
#1317=DIRECTION('',(0.,0.,1.));
#1318=DIRECTION('',(1.,0.,0.));
#1319=DIRECTION('',(0.,1.,0.));
#1320=DIRECTION('',(1.,0.,0.));
#1321=DIRECTION('',(0.,0.,1.));
#1322=DIRECTION('',(1.,0.,0.));
#1323=DIRECTION('',(0.,0.,-1.));
#1324=DIRECTION('',(0.,1.,0.));
#1325=DIRECTION('',(0.,0.,-1.));
#1326=DIRECTION('',(1.,0.,0.));
#1327=DIRECTION('',(0.,0.,-1.));
#1328=DIRECTION('',(0.,0.,-1.));
#1329=DIRECTION('',(0.,1.,0.));
#1330=DIRECTION('',(0.,0.,-1.));
#1331=DIRECTION('',(0.,1.,0.));
#1332=DIRECTION('',(1.,0.,0.));
#1333=DIRECTION('',(0.,0.,-1.));
#1334=DIRECTION('',(1.,0.,1.22464679914735E-16));
#1335=DIRECTION('',(0.,1.,0.));
#1336=DIRECTION('',(1.,0.,1.22464679914735E-16));
#1337=DIRECTION('',(-1.22464679914735E-16,0.,1.));
#1338=DIRECTION('',(1.,0.,1.22464679914735E-16));
#1339=DIRECTION('',(-2.92163953848725E-16,0.,1.));
#1340=DIRECTION('',(0.,1.,0.));
#1341=DIRECTION('',(-2.92163953848725E-16,0.,1.));
#1342=DIRECTION('',(-1.,0.,-2.92163953848725E-16));
#1343=DIRECTION('',(-3.05311331771918E-16,0.,1.));
#1344=DIRECTION('',(-0.707106781186548,0.,0.707106781186547));
#1345=DIRECTION('',(0.,1.,0.));
#1346=DIRECTION('',(-0.707106781186548,0.,0.707106781186547));
#1347=DIRECTION('',(-0.707106781186547,0.,-0.707106781186548));
#1348=DIRECTION('',(-0.707106781186548,0.,0.707106781186547));
#1349=DIRECTION('',(-1.,0.,0.));
#1350=DIRECTION('',(0.,1.,0.));
#1351=DIRECTION('',(-1.,0.,0.));
#1352=DIRECTION('',(0.,0.,-1.));
#1353=DIRECTION('',(-1.,0.,0.));
#1354=DIRECTION('',(-0.707106781186547,0.,-0.707106781186547));
#1355=DIRECTION('',(-0.707106781186547,0.,-0.707106781186547));
#1356=DIRECTION('',(0.707106781186548,0.,-0.707106781186548));
#1357=DIRECTION('',(-0.707106781186548,0.,-0.707106781186548));
#1358=DIRECTION('',(-1.,0.,0.));
#1359=DIRECTION('',(-1.,0.,0.));
#1360=DIRECTION('',(0.,0.,-1.));
#1361=DIRECTION('',(-1.,0.,0.));
#1362=DIRECTION('',(0.,-1.,0.));
#1363=DIRECTION('',(0.,0.,-1.));
#1364=DIRECTION('',(0.,-1.,0.));
#1365=DIRECTION('',(0.,0.,-1.));
#1366=DIRECTION('',(0.,0.,1.));
#1367=DIRECTION('',(0.,-1.,0.));
#1368=DIRECTION('',(0.,0.,1.));
#1369=DIRECTION('',(0.,-1.,0.));
#1370=DIRECTION('',(-1.,0.,0.));
#1371=DIRECTION('',(0.,0.,1.));
#1372=DIRECTION('',(-1.,0.,0.));
#1373=DIRECTION('',(0.,-1.,0.));
#1374=DIRECTION('',(-1.,0.,0.));
#1375=DIRECTION('',(0.,0.,-1.));
#1376=DIRECTION('',(-1.,0.,0.));
#1377=DIRECTION('',(0.,0.,-1.));
#1378=DIRECTION('',(0.,-1.,0.));
#1379=DIRECTION('',(0.,0.,-1.));
#1380=DIRECTION('',(1.,0.,0.));
#1381=DIRECTION('',(0.,0.,-1.));
#1382=DIRECTION('',(0.,0.,-1.));
#1383=DIRECTION('',(0.,-1.,0.));
#1384=DIRECTION('',(0.,0.,-1.));
#1385=DIRECTION('',(0.,-1.,0.));
#1386=DIRECTION('',(1.,0.,0.));
#1387=DIRECTION('',(0.,0.,-1.));
#1388=DIRECTION('',(-0.707106781186547,0.,-0.707106781186547));
#1389=DIRECTION('',(0.,-1.,0.));
#1390=DIRECTION('',(-0.707106781186547,0.,-0.707106781186547));
#1391=DIRECTION('',(0.707106781186548,0.,-0.707106781186548));
#1392=DIRECTION('',(-0.707106781186548,0.,-0.707106781186548));
#1393=DIRECTION('',(-1.,0.,0.));
#1394=DIRECTION('',(0.,-1.,0.));
#1395=DIRECTION('',(-1.,0.,0.));
#1396=DIRECTION('',(0.,0.,-1.));
#1397=DIRECTION('',(-1.,0.,0.));
#1398=DIRECTION('',(-0.707106781186548,0.,0.707106781186547));
#1399=DIRECTION('',(0.,-1.,0.));
#1400=DIRECTION('',(-0.707106781186548,0.,0.707106781186547));
#1401=DIRECTION('',(-0.707106781186547,0.,-0.707106781186548));
#1402=DIRECTION('',(-0.707106781186548,0.,0.707106781186547));
#1403=DIRECTION('',(-2.92163953848725E-16,0.,1.));
#1404=DIRECTION('',(0.,-1.,0.));
#1405=DIRECTION('',(-2.92163953848725E-16,0.,1.));
#1406=DIRECTION('',(-1.,0.,-2.92163953848725E-16));
#1407=DIRECTION('',(-3.05311331771918E-16,0.,1.));
#1408=DIRECTION('',(1.,0.,1.22464679914735E-16));
#1409=DIRECTION('',(1.,0.,1.22464679914735E-16));
#1410=DIRECTION('',(-1.22464679914735E-16,0.,1.));
#1411=DIRECTION('',(1.,0.,1.22464679914735E-16));
#1412=DIRECTION('',(1.,0.,0.));
#1413=DIRECTION('',(1.,0.,0.));
#1414=DIRECTION('',(0.,0.,1.));
#1415=DIRECTION('',(1.,0.,0.));
#1416=DIRECTION('',(0.,1.,0.));
#1417=DIRECTION('',(0.,0.,1.));
#1418=DIRECTION('',(0.,1.,0.));
#1419=DIRECTION('',(0.,0.,1.));
#1420=DIRECTION('',(0.,0.,1.));
#1421=DIRECTION('',(-1.,0.,0.));
#1422=DIRECTION('',(0.,0.,1.));
#1423=DIRECTION('',(-1.,0.,0.));
#1424=DIRECTION('',(0.,-1.,0.));
#1425=DIRECTION('',(0.,0.,-1.));
#1426=DIRECTION('',(0.,1.,1.38777878078145E-16));
#1427=DIRECTION('',(0.,1.,1.38777878078145E-16));
#1428=DIRECTION('',(-1.,0.,0.));
#1429=DIRECTION('',(0.,-1.38777878078145E-16,1.));
#1430=DIRECTION('',(0.,-1.,-1.11022302462516E-16));
#1431=DIRECTION('',(0.,2.92163953848725E-16,-1.));
#1432=DIRECTION('',(0.,2.92163953848725E-16,-1.));
#1433=DIRECTION('',(-1.,0.,0.));
#1434=DIRECTION('',(0.,1.,2.92163953848725E-16));
#1435=DIRECTION('',(0.,-3.05311331771918E-16,1.));
#1436=DIRECTION('',(0.,-1.,-1.22464679914735E-16));
#1437=DIRECTION('',(0.,-1.,-1.22464679914735E-16));
#1438=DIRECTION('',(0.,1.22464679914735E-16,-1.));
#1439=DIRECTION('',(0.,1.,1.22464679914735E-16));
#1440=DIRECTION('',(-1.,0.,0.));
#1441=DIRECTION('',(0.,0.,1.));
#1442=DIRECTION('',(-1.,0.,0.));
#1443=DIRECTION('',(0.,0.,1.));
#1444=DIRECTION('',(0.,0.,1.));
#1445=DIRECTION('',(1.,0.,0.));
#1446=DIRECTION('',(0.,0.,1.));
#1447=DIRECTION('',(1.,0.,0.));
#1448=DIRECTION('',(0.,1.,0.));
#1449=DIRECTION('',(0.,0.,1.));
#1450=DIRECTION('',(0.,1.,1.38777878078145E-16));
#1451=DIRECTION('',(1.,0.,0.));
#1452=DIRECTION('',(0.,1.,1.38777878078145E-16));
#1453=DIRECTION('',(0.,1.38777878078145E-16,-1.));
#1454=DIRECTION('',(0.,1.,1.11022302462516E-16));
#1455=DIRECTION('',(0.,2.92163953848725E-16,-1.));
#1456=DIRECTION('',(1.,0.,0.));
#1457=DIRECTION('',(0.,2.92163953848725E-16,-1.));
#1458=DIRECTION('',(0.,-1.,-2.92163953848725E-16));
#1459=DIRECTION('',(0.,3.05311331771918E-16,-1.));
#1460=DIRECTION('',(0.,-1.,-1.22464679914735E-16));
#1461=DIRECTION('',(0.,-1.,-1.22464679914735E-16));
#1462=DIRECTION('',(0.,-1.22464679914735E-16,1.));
#1463=DIRECTION('',(0.,-1.,-1.22464679914735E-16));
#1464=DIRECTION('',(-1.,0.,0.));
#1465=DIRECTION('',(0.,0.,1.));
#1466=DIRECTION('',(-1.,0.,0.));
#1467=DIRECTION('',(0.,0.,1.));
#1468=DIRECTION('',(0.,0.,-1.));
#1469=DIRECTION('',(1.,0.,0.));
#1470=DIRECTION('',(0.,0.,1.));
#1471=DIRECTION('',(1.,0.,0.));
#1472=DIRECTION('',(0.,1.,0.));
#1473=DIRECTION('',(0.,0.,1.));
#1474=DIRECTION('',(0.,1.,0.));
#1475=DIRECTION('',(0.,0.,-1.));
#1476=DIRECTION('',(0.,1.,0.));
#1477=DIRECTION('',(1.,0.,0.));
#1478=DIRECTION('',(0.,0.,-1.));
#1479=DIRECTION('',(2.77555756156289E-16,1.,0.));
#1480=DIRECTION('',(2.77555756156289E-16,1.,0.));
#1481=DIRECTION('',(0.,0.,1.));
#1482=DIRECTION('',(1.,-2.77555756156289E-16,0.));
#1483=DIRECTION('',(2.77555756156289E-16,1.,0.));
#1484=DIRECTION('',(-1.,0.,0.));
#1485=DIRECTION('',(0.,0.,-1.));
#1486=DIRECTION('',(-1.,0.,0.));
#1487=DIRECTION('',(-1.,0.,0.));
#1488=DIRECTION('',(0.,0.,-1.));
#1489=DIRECTION('',(-1.,0.,0.));
#1490=DIRECTION('',(0.,-1.,0.));
#1491=DIRECTION('',(0.,0.,-1.));
#1492=DIRECTION('',(0.,0.,1.));
#1493=DIRECTION('',(0.,1.,0.));
#1494=DIRECTION('',(0.,0.,1.));
#1495=DIRECTION('',(0.,1.,0.));
#1496=DIRECTION('',(1.,0.,0.));
#1497=DIRECTION('',(0.,0.,-1.));
#1498=DIRECTION('',(0.,0.,-1.));
#1499=DIRECTION('',(0.,-1.,0.));
#1500=DIRECTION('',(0.,0.,1.));
#1501=DIRECTION('',(0.,-1.,0.));
#1502=DIRECTION('',(-1.,0.,0.));
#1503=DIRECTION('',(0.,0.,1.));
#1504=DIRECTION('',(-1.,0.,0.));
#1505=DIRECTION('',(-1.,0.,0.));
#1506=DIRECTION('',(0.,0.,-1.));
#1507=DIRECTION('',(-1.,0.,0.));
#1508=DIRECTION('',(-1.,-2.08166817117216E-16,0.));
#1509=DIRECTION('',(-1.,0.,0.));
#1510=DIRECTION('',(0.,0.,-1.));
#1511=DIRECTION('',(-1.,0.,0.));
#1512=DIRECTION('',(-2.08166817117216E-16,1.,0.));
#1513=DIRECTION('',(-1.,-1.94289029309402E-16,0.));
#1514=DIRECTION('',(0.,1.,0.));
#1515=DIRECTION('',(0.,0.,1.));
#1516=DIRECTION('',(1.,0.,0.));
#1517=DIRECTION('',(0.,0.,-1.));
#1518=DIRECTION('',(1.,0.,0.));
#1519=DIRECTION('',(0.,0.,-1.));
#1520=DIRECTION('',(0.,1.,0.));
#1521=DIRECTION('',(0.,0.,1.));
#1522=DIRECTION('',(6.93889390390723E-16,-1.,0.));
#1523=DIRECTION('',(0.,0.,1.));
#1524=DIRECTION('',(6.93889390390723E-16,-1.,0.));
#1525=DIRECTION('',(-1.,-6.93889390390723E-16,0.));
#1526=DIRECTION('',(6.93889390390723E-16,-1.,0.));
#1527=DIRECTION('',(0.,-1.,0.));
#1528=DIRECTION('',(0.,0.,1.));
#1529=DIRECTION('',(0.,-1.,0.));
#1530=DIRECTION('',(-1.,0.,0.));
#1531=DIRECTION('',(0.,0.,1.));
#1532=DIRECTION('',(-1.,0.,0.));
#1533=DIRECTION('',(0.,0.,-1.));
#1534=DIRECTION('',(-1.,0.,0.));
#1535=DIRECTION('',(-1.,0.,0.));
#1536=DIRECTION('',(0.,0.,-1.));
#1537=DIRECTION('',(-1.,0.,0.));
#1538=DIRECTION('',(0.,-1.,0.));
#1539=DIRECTION('',(0.,0.,-1.));
#1540=CARTESIAN_POINT('',(0.,0.,0.));
#1541=CARTESIAN_POINT('',(220.,-220.,0.));
#1542=CARTESIAN_POINT('',(220.,-220.,0.));
#1543=CARTESIAN_POINT('',(220.,220.,0.));
#1544=CARTESIAN_POINT('',(220.,-220.,-1.));
#1545=CARTESIAN_POINT('',(220.,-220.,-1.));
#1546=CARTESIAN_POINT('',(220.,-220.,-1.));
#1547=CARTESIAN_POINT('',(220.,220.,-1.));
#1548=CARTESIAN_POINT('',(220.,220.,-1.));
#1549=CARTESIAN_POINT('',(220.,-220.,-1.));
#1550=CARTESIAN_POINT('',(220.,220.,0.));
#1551=CARTESIAN_POINT('',(-220.,220.,0.));
#1552=CARTESIAN_POINT('',(220.,220.,-1.));
#1553=CARTESIAN_POINT('',(-220.,220.,-1.));
#1554=CARTESIAN_POINT('',(-220.,220.,-1.));
#1555=CARTESIAN_POINT('',(220.,220.,-1.));
#1556=CARTESIAN_POINT('',(-220.,220.,0.));
#1557=CARTESIAN_POINT('',(-220.,-220.,0.));
#1558=CARTESIAN_POINT('',(-220.,220.,-1.));
#1559=CARTESIAN_POINT('',(-220.,-220.,-1.));
#1560=CARTESIAN_POINT('',(-220.,-220.,-1.));
#1561=CARTESIAN_POINT('',(-220.,220.,-1.));
#1562=CARTESIAN_POINT('',(-220.,-220.,0.));
#1563=CARTESIAN_POINT('',(-220.,-220.,-1.));
#1564=CARTESIAN_POINT('',(-220.,-220.,-1.));
#1565=CARTESIAN_POINT('',(0.,0.,-1.));
#1566=CARTESIAN_POINT('',(0.,0.,0.));
#1567=CARTESIAN_POINT('',(220.,220.,-21.));
#1568=CARTESIAN_POINT('',(220.,220.,-21.));
#1569=CARTESIAN_POINT('',(220.,200.,-21.));
#1570=CARTESIAN_POINT('',(0.,200.,-21.));
#1571=CARTESIAN_POINT('',(-220.,200.,-21.));
#1572=CARTESIAN_POINT('',(-220.,-220.,-21.));
#1573=CARTESIAN_POINT('',(-220.,220.,-21.));
#1574=CARTESIAN_POINT('',(-220.,220.,-21.));
#1575=CARTESIAN_POINT('',(0.,0.,-21.));
#1576=CARTESIAN_POINT('',(-200.,200.,-1.));
#1577=CARTESIAN_POINT('',(-220.,200.,-1.));
#1578=CARTESIAN_POINT('',(220.,200.,-1.));
#1579=CARTESIAN_POINT('',(220.,220.,-1.));
#1580=CARTESIAN_POINT('',(220.,220.,-1.));
#1581=CARTESIAN_POINT('',(-220.,220.,-1.));
#1582=CARTESIAN_POINT('',(-220.,220.,-1.));
#1583=CARTESIAN_POINT('',(-220.,-220.,-1.));
#1584=CARTESIAN_POINT('',(0.,0.,-1.));
#1585=CARTESIAN_POINT('',(220.,200.,-21.));
#1586=CARTESIAN_POINT('',(220.,220.,-21.));
#1587=CARTESIAN_POINT('',(220.,220.,-21.));
#1588=CARTESIAN_POINT('',(-220.,200.,-21.));
#1589=CARTESIAN_POINT('',(-220.,220.,-21.));
#1590=CARTESIAN_POINT('',(-220.,-220.,-21.));
#1591=CARTESIAN_POINT('',(-220.,220.,-21.));
#1592=CARTESIAN_POINT('',(-200.,200.,-21.));
#1593=CARTESIAN_POINT('',(-70.,-200.,410.));
#1594=CARTESIAN_POINT('',(-70.,-200.,410.));
#1595=CARTESIAN_POINT('',(-70.,-200.,450.));
#1596=CARTESIAN_POINT('',(-70.,-220.,450.));
#1597=CARTESIAN_POINT('',(-70.,-220.,450.));
#1598=CARTESIAN_POINT('',(-70.,-220.,410.));
#1599=CARTESIAN_POINT('',(-70.,-220.,410.));
#1600=CARTESIAN_POINT('',(-70.,-220.,410.));
#1601=CARTESIAN_POINT('',(-70.,-220.,410.));
#1602=CARTESIAN_POINT('',(-70.,-200.,450.));
#1603=CARTESIAN_POINT('',(69.9999999999999,-200.,450.));
#1604=CARTESIAN_POINT('',(69.9999999999999,-220.,450.));
#1605=CARTESIAN_POINT('',(69.9999999999999,-220.,450.));
#1606=CARTESIAN_POINT('',(-70.,-220.,450.));
#1607=CARTESIAN_POINT('',(-70.,-220.,450.));
#1608=CARTESIAN_POINT('',(69.9999999999999,-200.,450.));
#1609=CARTESIAN_POINT('',(69.9999999999999,-200.,410.));
#1610=CARTESIAN_POINT('',(69.9999999999999,-220.,410.));
#1611=CARTESIAN_POINT('',(69.9999999999999,-220.,410.));
#1612=CARTESIAN_POINT('',(69.9999999999999,-220.,450.));
#1613=CARTESIAN_POINT('',(69.9999999999999,-220.,450.));
#1614=CARTESIAN_POINT('',(-220.,-200.,380.));
#1615=CARTESIAN_POINT('',(-220.,-200.,380.));
#1616=CARTESIAN_POINT('',(-220.,-200.,0.));
#1617=CARTESIAN_POINT('',(-220.,-220.,0.));
#1618=CARTESIAN_POINT('',(-220.,-220.,0.));
#1619=CARTESIAN_POINT('',(-220.,-220.,380.));
#1620=CARTESIAN_POINT('',(-220.,-220.,380.));
#1621=CARTESIAN_POINT('',(-220.,-220.,380.));
#1622=CARTESIAN_POINT('',(-220.,-220.,380.));
#1623=CARTESIAN_POINT('',(-220.,-200.,-2.54627497320795E-14));
#1624=CARTESIAN_POINT('',(220.,-200.,2.8421709430404E-14));
#1625=CARTESIAN_POINT('',(220.,-220.,2.8421709430404E-14));
#1626=CARTESIAN_POINT('',(220.,-220.,2.8421709430404E-14));
#1627=CARTESIAN_POINT('',(-220.,-220.,-2.54627497320795E-14));
#1628=CARTESIAN_POINT('',(-220.,-220.,-2.54627497320795E-14));
#1629=CARTESIAN_POINT('',(220.,-200.,0.));
#1630=CARTESIAN_POINT('',(220.,-200.,380.));
#1631=CARTESIAN_POINT('',(220.,-220.,380.));
#1632=CARTESIAN_POINT('',(220.,-220.,380.));
#1633=CARTESIAN_POINT('',(220.,-220.,0.));
#1634=CARTESIAN_POINT('',(220.,-220.,0.));
#1635=CARTESIAN_POINT('',(220.,-200.,380.));
#1636=CARTESIAN_POINT('',(130.,-200.,470.));
#1637=CARTESIAN_POINT('',(130.,-220.,470.));
#1638=CARTESIAN_POINT('',(130.,-220.,470.));
#1639=CARTESIAN_POINT('',(220.,-220.,380.));
#1640=CARTESIAN_POINT('',(220.,-220.,380.));
#1641=CARTESIAN_POINT('',(130.,-200.,470.));
#1642=CARTESIAN_POINT('',(-130.,-200.,470.));
#1643=CARTESIAN_POINT('',(-130.,-220.,470.));
#1644=CARTESIAN_POINT('',(-130.,-220.,470.));
#1645=CARTESIAN_POINT('',(130.,-220.,470.));
#1646=CARTESIAN_POINT('',(130.,-220.,470.));
#1647=CARTESIAN_POINT('',(-130.,-200.,470.));
#1648=CARTESIAN_POINT('',(-130.,-220.,470.));
#1649=CARTESIAN_POINT('',(-130.,-220.,470.));
#1650=CARTESIAN_POINT('',(69.9999999999999,-200.,410.));
#1651=CARTESIAN_POINT('',(69.9999999999999,-220.,410.));
#1652=CARTESIAN_POINT('',(69.9999999999999,-220.,410.));
#1653=CARTESIAN_POINT('',(0.,-220.,0.));
#1654=CARTESIAN_POINT('',(0.,-200.,0.));
#1655=CARTESIAN_POINT('',(-70.,200.,450.));
#1656=CARTESIAN_POINT('',(-70.,200.,410.));
#1657=CARTESIAN_POINT('',(-70.,200.,450.));
#1658=CARTESIAN_POINT('',(-70.,220.,410.));
#1659=CARTESIAN_POINT('',(-70.,220.,410.));
#1660=CARTESIAN_POINT('',(-70.,220.,450.));
#1661=CARTESIAN_POINT('',(-70.,220.,450.));
#1662=CARTESIAN_POINT('',(-70.,220.,450.));
#1663=CARTESIAN_POINT('',(-70.,220.,450.));
#1664=CARTESIAN_POINT('',(-70.,200.,410.));
#1665=CARTESIAN_POINT('',(69.9999999999999,200.,410.));
#1666=CARTESIAN_POINT('',(69.9999999999999,220.,410.));
#1667=CARTESIAN_POINT('',(69.9999999999999,220.,410.));
#1668=CARTESIAN_POINT('',(-70.,220.,410.));
#1669=CARTESIAN_POINT('',(-70.,220.,410.));
#1670=CARTESIAN_POINT('',(69.9999999999999,200.,410.));
#1671=CARTESIAN_POINT('',(69.9999999999999,200.,450.));
#1672=CARTESIAN_POINT('',(69.9999999999999,220.,450.));
#1673=CARTESIAN_POINT('',(69.9999999999999,220.,450.));
#1674=CARTESIAN_POINT('',(69.9999999999999,220.,410.));
#1675=CARTESIAN_POINT('',(69.9999999999999,220.,410.));
#1676=CARTESIAN_POINT('',(-220.,200.,-2.54627497320795E-14));
#1677=CARTESIAN_POINT('',(-220.,200.,380.));
#1678=CARTESIAN_POINT('',(-220.,200.,-2.54627497320795E-14));
#1679=CARTESIAN_POINT('',(-220.,220.,380.));
#1680=CARTESIAN_POINT('',(-220.,220.,380.));
#1681=CARTESIAN_POINT('',(-220.,220.,-2.54627497320795E-14));
#1682=CARTESIAN_POINT('',(-220.,220.,-2.54627497320795E-14));
#1683=CARTESIAN_POINT('',(-220.,220.,-2.54627497320795E-14));
#1684=CARTESIAN_POINT('',(-220.,220.,-2.54627497320795E-14));
#1685=CARTESIAN_POINT('',(-220.,200.,380.));
#1686=CARTESIAN_POINT('',(-130.,200.,470.));
#1687=CARTESIAN_POINT('',(-130.,220.,470.));
#1688=CARTESIAN_POINT('',(-130.,220.,470.));
#1689=CARTESIAN_POINT('',(-220.,220.,380.));
#1690=CARTESIAN_POINT('',(-220.,220.,380.));
#1691=CARTESIAN_POINT('',(-130.,200.,470.));
#1692=CARTESIAN_POINT('',(130.,200.,470.));
#1693=CARTESIAN_POINT('',(130.,220.,470.));
#1694=CARTESIAN_POINT('',(130.,220.,470.));
#1695=CARTESIAN_POINT('',(-130.,220.,470.));
#1696=CARTESIAN_POINT('',(-130.,220.,470.));
#1697=CARTESIAN_POINT('',(130.,200.,470.));
#1698=CARTESIAN_POINT('',(220.,200.,380.));
#1699=CARTESIAN_POINT('',(220.,220.,380.));
#1700=CARTESIAN_POINT('',(220.,220.,380.));
#1701=CARTESIAN_POINT('',(130.,220.,470.));
#1702=CARTESIAN_POINT('',(130.,220.,470.));
#1703=CARTESIAN_POINT('',(220.,200.,380.));
#1704=CARTESIAN_POINT('',(220.,200.,0.));
#1705=CARTESIAN_POINT('',(220.,220.,0.));
#1706=CARTESIAN_POINT('',(220.,220.,0.));
#1707=CARTESIAN_POINT('',(220.,220.,380.));
#1708=CARTESIAN_POINT('',(220.,220.,380.));
#1709=CARTESIAN_POINT('',(220.,200.,2.8421709430404E-14));
#1710=CARTESIAN_POINT('',(220.,220.,2.8421709430404E-14));
#1711=CARTESIAN_POINT('',(220.,220.,2.8421709430404E-14));
#1712=CARTESIAN_POINT('',(69.9999999999999,200.,450.));
#1713=CARTESIAN_POINT('',(69.9999999999999,220.,450.));
#1714=CARTESIAN_POINT('',(69.9999999999999,220.,450.));
#1715=CARTESIAN_POINT('',(0.,220.,0.));
#1716=CARTESIAN_POINT('',(0.,200.,0.));
#1717=CARTESIAN_POINT('',(200.,-200.,0.));
#1718=CARTESIAN_POINT('',(200.,-200.,0.));
#1719=CARTESIAN_POINT('',(200.,-200.,380.));
#1720=CARTESIAN_POINT('',(220.,-200.,0.));
#1721=CARTESIAN_POINT('',(220.,-200.,0.));
#1722=CARTESIAN_POINT('',(220.,-200.,0.));
#1723=CARTESIAN_POINT('',(220.,-200.,380.));
#1724=CARTESIAN_POINT('',(220.,-200.,380.));
#1725=CARTESIAN_POINT('',(220.,-200.,0.));
#1726=CARTESIAN_POINT('',(200.,-200.,380.));
#1727=CARTESIAN_POINT('',(200.,200.,380.));
#1728=CARTESIAN_POINT('',(220.,-200.,380.));
#1729=CARTESIAN_POINT('',(220.,200.,380.));
#1730=CARTESIAN_POINT('',(220.,200.,380.));
#1731=CARTESIAN_POINT('',(220.,-200.,380.));
#1732=CARTESIAN_POINT('',(200.,200.,380.));
#1733=CARTESIAN_POINT('',(200.,200.,5.55111512312578E-14));
#1734=CARTESIAN_POINT('',(220.,200.,380.));
#1735=CARTESIAN_POINT('',(220.,200.,5.55111512312578E-14));
#1736=CARTESIAN_POINT('',(220.,200.,5.55111512312578E-14));
#1737=CARTESIAN_POINT('',(220.,200.,380.));
#1738=CARTESIAN_POINT('',(200.,200.,3.67394039744206E-14));
#1739=CARTESIAN_POINT('',(220.,200.,3.67394039744206E-14));
#1740=CARTESIAN_POINT('',(220.,200.,3.67394039744206E-14));
#1741=CARTESIAN_POINT('',(220.,0.,0.));
#1742=CARTESIAN_POINT('',(200.,0.,0.));
#1743=CARTESIAN_POINT('',(-200.,-200.,0.));
#1744=CARTESIAN_POINT('',(-200.,-200.,0.));
#1745=CARTESIAN_POINT('',(-200.,-200.,380.));
#1746=CARTESIAN_POINT('',(-220.,-200.,380.));
#1747=CARTESIAN_POINT('',(-220.,-200.,380.));
#1748=CARTESIAN_POINT('',(-220.,-200.,0.));
#1749=CARTESIAN_POINT('',(-220.,-200.,0.));
#1750=CARTESIAN_POINT('',(-220.,-200.,0.));
#1751=CARTESIAN_POINT('',(-220.,-200.,0.));
#1752=CARTESIAN_POINT('',(-200.,-200.,380.));
#1753=CARTESIAN_POINT('',(-200.,200.,380.));
#1754=CARTESIAN_POINT('',(-220.,200.,380.));
#1755=CARTESIAN_POINT('',(-220.,200.,380.));
#1756=CARTESIAN_POINT('',(-220.,-200.,380.));
#1757=CARTESIAN_POINT('',(-220.,-200.,380.));
#1758=CARTESIAN_POINT('',(-200.,200.,380.));
#1759=CARTESIAN_POINT('',(-200.,200.,5.55111512312578E-14));
#1760=CARTESIAN_POINT('',(-220.,200.,5.55111512312578E-14));
#1761=CARTESIAN_POINT('',(-220.,200.,5.55111512312578E-14));
#1762=CARTESIAN_POINT('',(-220.,200.,380.));
#1763=CARTESIAN_POINT('',(-220.,200.,380.));
#1764=CARTESIAN_POINT('',(-200.,200.,3.67394039744206E-14));
#1765=CARTESIAN_POINT('',(-220.,200.,3.67394039744206E-14));
#1766=CARTESIAN_POINT('',(-220.,200.,3.67394039744206E-14));
#1767=CARTESIAN_POINT('',(-220.,0.,0.));
#1768=CARTESIAN_POINT('',(-200.,0.,0.));
#1769=CARTESIAN_POINT('',(-200.,-200.,-21.));
#1770=CARTESIAN_POINT('',(-200.,-200.,-1.));
#1771=CARTESIAN_POINT('',(-200.,-200.,-21.));
#1772=CARTESIAN_POINT('',(0.,-200.,-1.));
#1773=CARTESIAN_POINT('',(-220.,-200.,-1.));
#1774=CARTESIAN_POINT('',(-220.,-200.,-21.));
#1775=CARTESIAN_POINT('',(-220.,-200.,-21.));
#1776=CARTESIAN_POINT('',(0.,-200.,-21.));
#1777=CARTESIAN_POINT('',(0.,-200.,235.));
#1778=CARTESIAN_POINT('',(-220.,-220.,-1.));
#1779=CARTESIAN_POINT('',(-220.,200.,-1.));
#1780=CARTESIAN_POINT('',(-220.,200.,-21.));
#1781=CARTESIAN_POINT('',(-220.,200.,-21.));
#1782=CARTESIAN_POINT('',(-220.,-220.,-21.));
#1783=CARTESIAN_POINT('',(-220.,-220.,-21.));
#1784=CARTESIAN_POINT('',(-200.,-200.,-1.));
#1785=CARTESIAN_POINT('',(-200.,200.,-1.));
#1786=CARTESIAN_POINT('',(-200.,-200.,-21.));
#1787=CARTESIAN_POINT('',(-200.,200.,-21.));
#1788=CARTESIAN_POINT('',(-200.,200.,-21.));
#1789=CARTESIAN_POINT('',(-200.,-200.,-21.));
#1790=CARTESIAN_POINT('',(0.,200.,-1.));
#1791=CARTESIAN_POINT('',(0.,0.,-1.));
#1792=CARTESIAN_POINT('',(0.,200.,-21.));
#1793=CARTESIAN_POINT('',(0.,0.,-21.));
#1794=CARTESIAN_POINT('',(0.,200.,235.));
#1795=CARTESIAN_POINT('',(-220.,-200.,-21.));
#1796=CARTESIAN_POINT('',(-220.,-200.,-21.));
#1797=CARTESIAN_POINT('',(-220.,-200.,-1.));
#1798=CARTESIAN_POINT('',(-220.,-220.,-21.));
#1799=CARTESIAN_POINT('',(-220.,-220.,-21.));
#1800=CARTESIAN_POINT('',(-220.,-220.,-21.));
#1801=CARTESIAN_POINT('',(-220.,-220.,-1.));
#1802=CARTESIAN_POINT('',(-220.,-220.,-1.));
#1803=CARTESIAN_POINT('',(-220.,-220.,-21.));
#1804=CARTESIAN_POINT('',(220.,-200.,-21.));
#1805=CARTESIAN_POINT('',(220.,-200.,-1.));
#1806=CARTESIAN_POINT('',(220.,-200.,-21.));
#1807=CARTESIAN_POINT('',(220.,220.,-1.));
#1808=CARTESIAN_POINT('',(220.,-220.,-1.));
#1809=CARTESIAN_POINT('',(220.,-220.,-21.));
#1810=CARTESIAN_POINT('',(220.,-220.,-21.));
#1811=CARTESIAN_POINT('',(220.,220.,-21.));
#1812=CARTESIAN_POINT('',(220.,220.,-21.));
#1813=CARTESIAN_POINT('',(0.,-200.,-21.));
#1814=CARTESIAN_POINT('',(220.,-220.,-21.));
#1815=CARTESIAN_POINT('',(0.,0.,-21.));
#1816=CARTESIAN_POINT('',(200.000000000001,-200.,-1.));
#1817=CARTESIAN_POINT('',(220.,-220.,-1.));
#1818=CARTESIAN_POINT('',(0.,0.,-1.));
#1819=CARTESIAN_POINT('',(200.000000000001,-200.,-21.));
#1820=CARTESIAN_POINT('',(220.,-220.,-21.));
#1821=CARTESIAN_POINT('',(0.,-200.,-21.));
#1822=CARTESIAN_POINT('',(200.000000000001,-200.,-21.));
#1823=CARTESIAN_POINT('',(220.,-200.,-21.));
#1824=CARTESIAN_POINT('',(220.,-200.,-21.));
#1825=CARTESIAN_POINT('',(220.,-200.,-1.));
#1826=CARTESIAN_POINT('',(0.,-200.,-1.));
#1827=CARTESIAN_POINT('',(200.,-200.,-1.));
#1828=CARTESIAN_POINT('',(200.000000000001,-200.,-21.));
#1829=CARTESIAN_POINT('',(0.,-200.,235.));
#1830=CARTESIAN_POINT('',(200.,200.,-1.));
#1831=CARTESIAN_POINT('',(200.,200.,-1.));
#1832=CARTESIAN_POINT('',(200.,200.,-21.));
#1833=CARTESIAN_POINT('',(200.,200.,-21.));
#1834=CARTESIAN_POINT('',(200.,200.,-21.));
#1835=CARTESIAN_POINT('',(200.,200.,-21.));
#1836=CARTESIAN_POINT('',(220.,220.,-21.));
#1837=CARTESIAN_POINT('',(220.,200.,-21.));
#1838=CARTESIAN_POINT('',(220.,200.,-21.));
#1839=CARTESIAN_POINT('',(220.,200.,-1.));
#1840=CARTESIAN_POINT('',(220.,220.,-1.));
#1841=CARTESIAN_POINT('',(220.,220.,-21.));
#1842=CARTESIAN_POINT('',(0.,200.,-1.));
#1843=CARTESIAN_POINT('',(0.,0.,-1.));
#1844=CARTESIAN_POINT('',(0.,200.,-21.));
#1845=CARTESIAN_POINT('',(0.,0.,-21.));
#1846=CARTESIAN_POINT('',(0.,200.,235.));
#1847=MECHANICAL_DESIGN_GEOMETRIC_PRESENTATION_REPRESENTATION('',(#32,#33,
#34,#35,#36,#37,#38,#39,#40),#1848);
#1848=(
GEOMETRIC_REPRESENTATION_CONTEXT(3)
GLOBAL_UNCERTAINTY_ASSIGNED_CONTEXT((#1849))
GLOBAL_UNIT_ASSIGNED_CONTEXT((#1855,#1851,#1850))
REPRESENTATION_CONTEXT('S_SF_M_03_tray','TOP_LEVEL_ASSEMBLY_PART')
);
#1849=UNCERTAINTY_MEASURE_WITH_UNIT(LENGTH_MEASURE(2.E-5),#1855,
'DISTANCE_ACCURACY_VALUE','Maximum Tolerance applied to model');
#1850=(
NAMED_UNIT(*)
SI_UNIT($,.STERADIAN.)
SOLID_ANGLE_UNIT()
);
#1851=(
CONVERSION_BASED_UNIT('DEGREE',#1853)
NAMED_UNIT(#1852)
PLANE_ANGLE_UNIT()
);
#1852=DIMENSIONAL_EXPONENTS(0.,0.,0.,0.,0.,0.,0.);
#1853=PLANE_ANGLE_MEASURE_WITH_UNIT(PLANE_ANGLE_MEASURE(0.0174532925),#1854);
#1854=(
NAMED_UNIT(*)
PLANE_ANGLE_UNIT()
SI_UNIT($,.RADIAN.)
);
#1855=(
LENGTH_UNIT()
NAMED_UNIT(*)
SI_UNIT(.MILLI.,.METRE.)
);
ENDSEC;
END-ISO-10303-21;
