ISO-10303-21;
HEADER;
/* Generated by software containing ST-Developer
 * from STEP Tools, Inc. (www.steptools.com) 
 */
/* OPTION: using custom schema-name function */

FILE_DESCRIPTION(
/* description */ (''),
/* implementation_level */ '2;1');

FILE_NAME(
/* name */ 'S_SF_M_07_stirrer_holder.stp',
/* time_stamp */ '2025-12-15T17:00:47+01:00',
/* author */ (''),
/* organization */ (''),
/* preprocessor_version */ 'ST-DEVELOPER v18.1',
/* originating_system */ 'SIEMENS PLM Software NX 1988',
/* authorisation */ '');

FILE_SCHEMA (('AUTOMOTIVE_DESIGN { 1 0 10303 214 3 1 1 1 }'));
ENDSEC;

DATA;
#10=SHAPE_REPRESENTATION_RELATIONSHIP('None',
'relationship between S_SF_M_07_stirrer_holder-None and S_SF_M_07_stir
rer_holder-None',#22,#11);
#11=ADVANCED_BREP_SHAPE_REPRESENTATION('S_SF_M_07_stirrer_holder-None',
(#32),#428);
#12=SHAPE_DEFINITION_REPRESENTATION(#13,#22);
#13=PRODUCT_DEFINITION_SHAPE('','',#14);
#14=PRODUCT_DEFINITION(' ','',#16,#15);
#15=PRODUCT_DEFINITION_CONTEXT('part definition',#21,'design');
#16=PRODUCT_DEFINITION_FORMATION_WITH_SPECIFIED_SOURCE(' ',' ',#18,
 .NOT_KNOWN.);
#17=PRODUCT_RELATED_PRODUCT_CATEGORY('part','',(#18));
#18=PRODUCT('S_SF_M_07_stirrer_holder','S_SF_M_07_stirrer_holder',' ',(#19));
#19=PRODUCT_CONTEXT(' ',#21,'mechanical');
#20=APPLICATION_PROTOCOL_DEFINITION('international standard',
'automotive_design',2010,#21);
#21=APPLICATION_CONTEXT(
'core data for automotive mechanical design processes');
#22=SHAPE_REPRESENTATION('S_SF_M_07_stirrer_holder-None',(#257),#428);
#23=PRESENTATION_LAYER_ASSIGNMENT('1','Layer 1',(#32));
#24=STYLED_ITEM('',(#25),#32);
#25=PRESENTATION_STYLE_ASSIGNMENT((#26));
#26=SURFACE_STYLE_USAGE(.BOTH.,#27);
#27=SURFACE_SIDE_STYLE('',(#28));
#28=SURFACE_STYLE_FILL_AREA(#29);
#29=FILL_AREA_STYLE('',(#30));
#30=FILL_AREA_STYLE_COLOUR('',#31);
#31=COLOUR_RGB('medium steel',0.596078431372549,0.666666666666667,0.686274509803922);
#32=MANIFOLD_SOLID_BREP('',#33);
#33=CLOSED_SHELL('',(#80,#81,#82,#83,#84,#85,#86,#87,#88,#89,#90,#91,#92,
#93,#94));
#34=LINE('',#373,#49);
#35=LINE('',#375,#50);
#36=LINE('',#377,#51);
#37=LINE('',#379,#52);
#38=LINE('',#381,#53);
#39=LINE('',#389,#54);
#40=LINE('',#391,#55);
#41=LINE('',#400,#56);
#42=LINE('',#402,#57);
#43=LINE('',#404,#58);
#44=LINE('',#405,#59);
#45=LINE('',#407,#60);
#46=LINE('',#409,#61);
#47=LINE('',#411,#62);
#48=LINE('',#412,#63);
#49=VECTOR('',#301,1.);
#50=VECTOR('',#302,1.);
#51=VECTOR('',#305,1.);
#52=VECTOR('',#306,1.);
#53=VECTOR('',#309,1.);
#54=VECTOR('',#316,1.);
#55=VECTOR('',#319,1.);
#56=VECTOR('',#326,1.);
#57=VECTOR('',#327,1.);
#58=VECTOR('',#330,1.);
#59=VECTOR('',#331,1.);
#60=VECTOR('',#334,1.);
#61=VECTOR('',#337,1.);
#62=VECTOR('',#340,1.);
#63=VECTOR('',#341,1.);
#64=CYLINDRICAL_SURFACE('',#263,10.0000000000001);
#65=CYLINDRICAL_SURFACE('',#279,12.);
#66=CYLINDRICAL_SURFACE('',#282,10.);
#67=CYLINDRICAL_SURFACE('',#285,5.);
#68=CYLINDRICAL_SURFACE('',#286,5.);
#69=FACE_BOUND('',#116,.T.);
#70=FACE_BOUND('',#117,.T.);
#71=FACE_BOUND('',#125,.T.);
#72=FACE_BOUND('',#126,.T.);
#73=FACE_BOUND('',#127,.T.);
#74=FACE_BOUND('',#128,.T.);
#75=FACE_BOUND('',#129,.T.);
#76=FACE_BOUND('',#130,.T.);
#77=FACE_BOUND('',#131,.T.);
#78=FACE_BOUND('',#132,.T.);
#79=FACE_BOUND('',#133,.T.);
#80=ADVANCED_FACE('',(#105),#95,.T.);
#81=ADVANCED_FACE('',(#69,#70),#64,.T.);
#82=ADVANCED_FACE('',(#106),#96,.T.);
#83=ADVANCED_FACE('',(#107),#97,.T.);
#84=ADVANCED_FACE('',(#108),#98,.T.);
#85=ADVANCED_FACE('',(#109),#99,.T.);
#86=ADVANCED_FACE('',(#110),#100,.T.);
#87=ADVANCED_FACE('',(#111),#101,.F.);
#88=ADVANCED_FACE('',(#112),#102,.T.);
#89=ADVANCED_FACE('',(#71,#72,#73),#65,.T.);
#90=ADVANCED_FACE('',(#74,#75),#66,.F.);
#91=ADVANCED_FACE('',(#76,#77),#103,.T.);
#92=ADVANCED_FACE('',(#78,#79),#104,.F.);
#93=ADVANCED_FACE('',(#113),#67,.F.);
#94=ADVANCED_FACE('',(#114),#68,.F.);
#95=PLANE('',#259);
#96=PLANE('',#264);
#97=PLANE('',#265);
#98=PLANE('',#269);
#99=PLANE('',#273);
#100=PLANE('',#274);
#101=PLANE('',#275);
#102=PLANE('',#276);
#103=PLANE('',#283);
#104=PLANE('',#284);
#105=FACE_OUTER_BOUND('',#115,.T.);
#106=FACE_OUTER_BOUND('',#118,.T.);
#107=FACE_OUTER_BOUND('',#119,.T.);
#108=FACE_OUTER_BOUND('',#120,.T.);
#109=FACE_OUTER_BOUND('',#121,.T.);
#110=FACE_OUTER_BOUND('',#122,.T.);
#111=FACE_OUTER_BOUND('',#123,.T.);
#112=FACE_OUTER_BOUND('',#124,.T.);
#113=FACE_OUTER_BOUND('',#134,.T.);
#114=FACE_OUTER_BOUND('',#135,.T.);
#115=EDGE_LOOP('',(#136));
#116=EDGE_LOOP('',(#137,#138,#139));
#117=EDGE_LOOP('',(#140));
#118=EDGE_LOOP('',(#141,#142,#143));
#119=EDGE_LOOP('',(#144,#145,#146));
#120=EDGE_LOOP('',(#147,#148,#149,#150,#151,#152));
#121=EDGE_LOOP('',(#153,#154,#155,#156,#157,#158));
#122=EDGE_LOOP('',(#159,#160,#161,#162,#163));
#123=EDGE_LOOP('',(#164,#165,#166,#167,#168));
#124=EDGE_LOOP('',(#169,#170,#171,#172,#173));
#125=EDGE_LOOP('',(#174,#175,#176,#177));
#126=EDGE_LOOP('',(#178));
#127=EDGE_LOOP('',(#179));
#128=EDGE_LOOP('',(#180));
#129=EDGE_LOOP('',(#181));
#130=EDGE_LOOP('',(#182));
#131=EDGE_LOOP('',(#183));
#132=EDGE_LOOP('',(#184));
#133=EDGE_LOOP('',(#185));
#134=EDGE_LOOP('',(#186,#187,#188,#189));
#135=EDGE_LOOP('',(#190,#191,#192,#193));
#136=ORIENTED_EDGE('',*,*,#214,.T.);
#137=ORIENTED_EDGE('',*,*,#215,.T.);
#138=ORIENTED_EDGE('',*,*,#216,.T.);
#139=ORIENTED_EDGE('',*,*,#217,.T.);
#140=ORIENTED_EDGE('',*,*,#214,.F.);
#141=ORIENTED_EDGE('',*,*,#215,.F.);
#142=ORIENTED_EDGE('',*,*,#218,.F.);
#143=ORIENTED_EDGE('',*,*,#219,.F.);
#144=ORIENTED_EDGE('',*,*,#216,.F.);
#145=ORIENTED_EDGE('',*,*,#220,.F.);
#146=ORIENTED_EDGE('',*,*,#221,.T.);
#147=ORIENTED_EDGE('',*,*,#222,.T.);
#148=ORIENTED_EDGE('',*,*,#223,.T.);
#149=ORIENTED_EDGE('',*,*,#224,.T.);
#150=ORIENTED_EDGE('',*,*,#225,.T.);
#151=ORIENTED_EDGE('',*,*,#226,.F.);
#152=ORIENTED_EDGE('',*,*,#217,.F.);
#153=ORIENTED_EDGE('',*,*,#227,.F.);
#154=ORIENTED_EDGE('',*,*,#228,.T.);
#155=ORIENTED_EDGE('',*,*,#229,.T.);
#156=ORIENTED_EDGE('',*,*,#230,.T.);
#157=ORIENTED_EDGE('',*,*,#231,.T.);
#158=ORIENTED_EDGE('',*,*,#232,.T.);
#159=ORIENTED_EDGE('',*,*,#233,.F.);
#160=ORIENTED_EDGE('',*,*,#232,.F.);
#161=ORIENTED_EDGE('',*,*,#234,.T.);
#162=ORIENTED_EDGE('',*,*,#220,.T.);
#163=ORIENTED_EDGE('',*,*,#219,.T.);
#164=ORIENTED_EDGE('',*,*,#235,.F.);
#165=ORIENTED_EDGE('',*,*,#222,.F.);
#166=ORIENTED_EDGE('',*,*,#221,.F.);
#167=ORIENTED_EDGE('',*,*,#234,.F.);
#168=ORIENTED_EDGE('',*,*,#231,.F.);
#169=ORIENTED_EDGE('',*,*,#236,.T.);
#170=ORIENTED_EDGE('',*,*,#227,.T.);
#171=ORIENTED_EDGE('',*,*,#233,.T.);
#172=ORIENTED_EDGE('',*,*,#218,.T.);
#173=ORIENTED_EDGE('',*,*,#226,.T.);
#174=ORIENTED_EDGE('',*,*,#229,.F.);
#175=ORIENTED_EDGE('',*,*,#237,.T.);
#176=ORIENTED_EDGE('',*,*,#224,.F.);
#177=ORIENTED_EDGE('',*,*,#238,.T.);
#178=ORIENTED_EDGE('',*,*,#239,.F.);
#179=ORIENTED_EDGE('',*,*,#240,.T.);
#180=ORIENTED_EDGE('',*,*,#241,.T.);
#181=ORIENTED_EDGE('',*,*,#242,.F.);
#182=ORIENTED_EDGE('',*,*,#239,.T.);
#183=ORIENTED_EDGE('',*,*,#241,.F.);
#184=ORIENTED_EDGE('',*,*,#240,.F.);
#185=ORIENTED_EDGE('',*,*,#242,.T.);
#186=ORIENTED_EDGE('',*,*,#225,.F.);
#187=ORIENTED_EDGE('',*,*,#237,.F.);
#188=ORIENTED_EDGE('',*,*,#228,.F.);
#189=ORIENTED_EDGE('',*,*,#236,.F.);
#190=ORIENTED_EDGE('',*,*,#230,.F.);
#191=ORIENTED_EDGE('',*,*,#238,.F.);
#192=ORIENTED_EDGE('',*,*,#223,.F.);
#193=ORIENTED_EDGE('',*,*,#235,.T.);
#194=VERTEX_POINT('',#364);
#195=VERTEX_POINT('',#367);
#196=VERTEX_POINT('',#368);
#197=VERTEX_POINT('',#370);
#198=VERTEX_POINT('',#374);
#199=VERTEX_POINT('',#378);
#200=VERTEX_POINT('',#382);
#201=VERTEX_POINT('',#384);
#202=VERTEX_POINT('',#386);
#203=VERTEX_POINT('',#388);
#204=VERTEX_POINT('',#392);
#205=VERTEX_POINT('',#393);
#206=VERTEX_POINT('',#395);
#207=VERTEX_POINT('',#397);
#208=VERTEX_POINT('',#399);
#209=VERTEX_POINT('',#401);
#210=VERTEX_POINT('',#414);
#211=VERTEX_POINT('',#416);
#212=VERTEX_POINT('',#419);
#213=VERTEX_POINT('',#421);
#214=EDGE_CURVE('',#194,#194,#243,.T.);
#215=EDGE_CURVE('',#195,#196,#244,.T.);
#216=EDGE_CURVE('',#196,#197,#245,.T.);
#217=EDGE_CURVE('',#197,#195,#246,.T.);
#218=EDGE_CURVE('',#198,#195,#34,.T.);
#219=EDGE_CURVE('',#196,#198,#35,.T.);
#220=EDGE_CURVE('',#199,#196,#36,.T.);
#221=EDGE_CURVE('',#199,#197,#37,.T.);
#222=EDGE_CURVE('',#197,#200,#38,.T.);
#223=EDGE_CURVE('',#200,#201,#247,.T.);
#224=EDGE_CURVE('',#201,#202,#248,.T.);
#225=EDGE_CURVE('',#202,#203,#249,.T.);
#226=EDGE_CURVE('',#195,#203,#39,.T.);
#227=EDGE_CURVE('',#204,#205,#40,.T.);
#228=EDGE_CURVE('',#204,#206,#250,.T.);
#229=EDGE_CURVE('',#206,#207,#251,.T.);
#230=EDGE_CURVE('',#207,#208,#252,.T.);
#231=EDGE_CURVE('',#208,#209,#41,.T.);
#232=EDGE_CURVE('',#209,#205,#42,.T.);
#233=EDGE_CURVE('',#205,#198,#43,.T.);
#234=EDGE_CURVE('',#209,#199,#44,.T.);
#235=EDGE_CURVE('',#200,#208,#45,.T.);
#236=EDGE_CURVE('',#203,#204,#46,.T.);
#237=EDGE_CURVE('',#206,#202,#47,.T.);
#238=EDGE_CURVE('',#201,#207,#48,.T.);
#239=EDGE_CURVE('',#210,#210,#253,.T.);
#240=EDGE_CURVE('',#211,#211,#254,.T.);
#241=EDGE_CURVE('',#212,#212,#255,.T.);
#242=EDGE_CURVE('',#213,#213,#256,.T.);
#243=CIRCLE('',#258,10.0000000000003);
#244=CIRCLE('',#260,9.9999999999998);
#245=CIRCLE('',#261,9.9999999999998);
#246=CIRCLE('',#262,9.9999999999998);
#247=CIRCLE('',#266,5.);
#248=CIRCLE('',#267,12.);
#249=CIRCLE('',#268,5.);
#250=CIRCLE('',#270,5.);
#251=CIRCLE('',#271,12.);
#252=CIRCLE('',#272,5.);
#253=CIRCLE('',#277,12.);
#254=CIRCLE('',#278,12.);
#255=CIRCLE('',#280,10.);
#256=CIRCLE('',#281,10.);
#257=AXIS2_PLACEMENT_3D('',#362,#287,#288);
#258=AXIS2_PLACEMENT_3D('',#363,#289,#290);
#259=AXIS2_PLACEMENT_3D('',#365,#291,#292);
#260=AXIS2_PLACEMENT_3D('',#366,#293,#294);
#261=AXIS2_PLACEMENT_3D('',#369,#295,#296);
#262=AXIS2_PLACEMENT_3D('',#371,#297,#298);
#263=AXIS2_PLACEMENT_3D('',#372,#299,#300);
#264=AXIS2_PLACEMENT_3D('',#376,#303,#304);
#265=AXIS2_PLACEMENT_3D('',#380,#307,#308);
#266=AXIS2_PLACEMENT_3D('',#383,#310,#311);
#267=AXIS2_PLACEMENT_3D('',#385,#312,#313);
#268=AXIS2_PLACEMENT_3D('',#387,#314,#315);
#269=AXIS2_PLACEMENT_3D('',#390,#317,#318);
#270=AXIS2_PLACEMENT_3D('',#394,#320,#321);
#271=AXIS2_PLACEMENT_3D('',#396,#322,#323);
#272=AXIS2_PLACEMENT_3D('',#398,#324,#325);
#273=AXIS2_PLACEMENT_3D('',#403,#328,#329);
#274=AXIS2_PLACEMENT_3D('',#406,#332,#333);
#275=AXIS2_PLACEMENT_3D('',#408,#335,#336);
#276=AXIS2_PLACEMENT_3D('',#410,#338,#339);
#277=AXIS2_PLACEMENT_3D('',#413,#342,#343);
#278=AXIS2_PLACEMENT_3D('',#415,#344,#345);
#279=AXIS2_PLACEMENT_3D('',#417,#346,#347);
#280=AXIS2_PLACEMENT_3D('',#418,#348,#349);
#281=AXIS2_PLACEMENT_3D('',#420,#350,#351);
#282=AXIS2_PLACEMENT_3D('',#422,#352,#353);
#283=AXIS2_PLACEMENT_3D('',#423,#354,#355);
#284=AXIS2_PLACEMENT_3D('',#424,#356,#357);
#285=AXIS2_PLACEMENT_3D('',#425,#358,#359);
#286=AXIS2_PLACEMENT_3D('',#426,#360,#361);
#287=DIRECTION('',(0.,0.,1.));
#288=DIRECTION('',(1.,0.,0.));
#289=DIRECTION('',(0.,0.,-1.));
#290=DIRECTION('',(-1.,0.,0.));
#291=DIRECTION('',(0.,0.,-1.));
#292=DIRECTION('',(-1.,0.,0.));
#293=DIRECTION('',(0.,0.,-1.));
#294=DIRECTION('',(-1.,0.,0.));
#295=DIRECTION('',(0.,0.,-1.));
#296=DIRECTION('',(-1.,0.,0.));
#297=DIRECTION('',(0.,0.,-1.));
#298=DIRECTION('',(-1.,0.,0.));
#299=DIRECTION('',(0.,0.,-1.));
#300=DIRECTION('',(-1.,0.,0.));
#301=DIRECTION('',(-1.,0.,-6.1580370432542E-17));
#302=DIRECTION('',(0.,1.,0.));
#303=DIRECTION('',(6.1580370432542E-17,0.,-1.));
#304=DIRECTION('',(-1.,0.,-6.1580370432542E-17));
#305=DIRECTION('',(0.,1.,0.));
#306=DIRECTION('',(-1.,0.,-6.1580370432542E-17));
#307=DIRECTION('',(6.1580370432542E-17,0.,-1.));
#308=DIRECTION('',(-1.,0.,-6.1580370432542E-17));
#309=DIRECTION('',(-1.,0.,-6.1580370432542E-17));
#310=DIRECTION('',(-6.1580370432542E-17,0.,1.));
#311=DIRECTION('',(-1.,0.,-6.15803704325418E-17));
#312=DIRECTION('',(-6.1580370432542E-17,0.,1.));
#313=DIRECTION('',(-1.,0.,-6.1580370432542E-17));
#314=DIRECTION('',(-6.1580370432542E-17,0.,1.));
#315=DIRECTION('',(-1.,0.,-6.15803704325418E-17));
#316=DIRECTION('',(-1.,0.,-6.1580370432542E-17));
#317=DIRECTION('',(6.1580370432542E-17,0.,-1.));
#318=DIRECTION('',(-1.,0.,-6.1580370432542E-17));
#319=DIRECTION('',(1.,0.,4.90348502542777E-16));
#320=DIRECTION('',(4.90348502542777E-16,0.,-1.));
#321=DIRECTION('',(1.,0.,6.93889390390723E-16));
#322=DIRECTION('',(4.90348502542777E-16,0.,-1.));
#323=DIRECTION('',(1.,0.,5.78241158658936E-16));
#324=DIRECTION('',(4.90348502542777E-16,0.,-1.));
#325=DIRECTION('',(1.,0.,6.93889390390723E-16));
#326=DIRECTION('',(1.,0.,4.90348502542777E-16));
#327=DIRECTION('',(0.,1.,0.));
#328=DIRECTION('',(-4.90348502542777E-16,0.,1.));
#329=DIRECTION('',(1.,0.,4.8919202022546E-16));
#330=DIRECTION('',(-4.59701721133853E-15,0.,-1.));
#331=DIRECTION('',(-4.59701721133853E-15,0.,-1.));
#332=DIRECTION('',(1.,0.,-4.59701721133853E-15));
#333=DIRECTION('',(-4.59701721133854E-15,0.,-1.));
#334=DIRECTION('',(0.,0.,1.));
#335=DIRECTION('',(0.,1.,0.));
#336=DIRECTION('',(0.,0.,1.));
#337=DIRECTION('',(0.,0.,1.));
#338=DIRECTION('',(0.,1.,0.));
#339=DIRECTION('',(0.,0.,1.));
#340=DIRECTION('',(0.,0.,-1.));
#341=DIRECTION('',(0.,0.,1.));
#342=DIRECTION('',(0.,0.,1.));
#343=DIRECTION('',(1.,0.,0.));
#344=DIRECTION('',(0.,0.,1.));
#345=DIRECTION('',(1.,0.,0.));
#346=DIRECTION('',(0.,0.,-1.));
#347=DIRECTION('',(-1.,0.,0.));
#348=DIRECTION('',(0.,0.,1.));
#349=DIRECTION('',(1.,0.,0.));
#350=DIRECTION('',(0.,0.,1.));
#351=DIRECTION('',(1.,0.,0.));
#352=DIRECTION('',(0.,0.,-1.));
#353=DIRECTION('',(-1.,0.,0.));
#354=DIRECTION('',(0.,0.,1.));
#355=DIRECTION('',(1.,0.,0.));
#356=DIRECTION('',(0.,0.,1.));
#357=DIRECTION('',(1.,0.,0.));
#358=DIRECTION('',(0.,0.,-1.));
#359=DIRECTION('',(-1.,0.,0.));
#360=DIRECTION('',(0.,0.,1.));
#361=DIRECTION('',(1.,0.,0.));
#362=CARTESIAN_POINT('',(0.,0.,0.));
#363=CARTESIAN_POINT('',(0.,0.,-920.));
#364=CARTESIAN_POINT('',(-10.0000000000003,0.,-920.));
#365=CARTESIAN_POINT('',(8.70414851306123E-14,0.,-920.));
#366=CARTESIAN_POINT('',(0.,0.,0.));
#367=CARTESIAN_POINT('',(0.,10.,0.));
#368=CARTESIAN_POINT('',(9.9999999999998,0.,0.));
#369=CARTESIAN_POINT('',(0.,0.,0.));
#370=CARTESIAN_POINT('',(0.,-10.,-6.1580370432541E-16));
#371=CARTESIAN_POINT('',(0.,0.,0.));
#372=CARTESIAN_POINT('',(0.,0.,0.));
#373=CARTESIAN_POINT('',(9.99999999999983,10.,0.));
#374=CARTESIAN_POINT('',(9.9999999999998,10.,0.));
#375=CARTESIAN_POINT('',(9.9999999999998,-10.,0.));
#376=CARTESIAN_POINT('',(9.99999999999983,-10.,0.));
#377=CARTESIAN_POINT('',(9.9999999999998,-10.,0.));
#378=CARTESIAN_POINT('',(9.9999999999998,-10.,0.));
#379=CARTESIAN_POINT('',(9.99999999999983,-10.,0.));
#380=CARTESIAN_POINT('',(9.99999999999983,-10.,0.));
#381=CARTESIAN_POINT('',(9.99999999999983,-10.,0.));
#382=CARTESIAN_POINT('',(-365.,-10.,-2.1316282072803E-14));
#383=CARTESIAN_POINT('',(-366.552776554087,-14.7527765540869,-2.08166817117217E-14));
#384=CARTESIAN_POINT('',(-369.037254038179,-10.4137246264143,-2.04494936065976E-14));
#385=CARTESIAN_POINT('',(-375.,0.,-2.08166817117217E-14));
#386=CARTESIAN_POINT('',(-369.037254038179,10.4137246264143,-2.04494936065976E-14));
#387=CARTESIAN_POINT('',(-366.552776554087,14.7527765540869,-2.08166817117217E-14));
#388=CARTESIAN_POINT('',(-365.,10.,-2.1316282072803E-14));
#389=CARTESIAN_POINT('',(9.99999999999983,10.,0.));
#390=CARTESIAN_POINT('',(9.99999999999983,-10.,0.));
#391=CARTESIAN_POINT('',(-365.,10.,19.9999999999999));
#392=CARTESIAN_POINT('',(-365.,10.,19.9999999999999));
#393=CARTESIAN_POINT('',(9.9999999999999,10.,20.0000000000001));
#394=CARTESIAN_POINT('',(-366.552776554087,14.7527765540869,19.9999999999999));
#395=CARTESIAN_POINT('',(-369.037254038179,10.4137246264143,19.9999999999999));
#396=CARTESIAN_POINT('',(-375.,0.,19.9999999999999));
#397=CARTESIAN_POINT('',(-369.037254038179,-10.4137246264143,19.9999999999999));
#398=CARTESIAN_POINT('',(-366.552776554087,-14.7527765540869,19.9999999999999));
#399=CARTESIAN_POINT('',(-365.,-10.,19.9999999999999));
#400=CARTESIAN_POINT('',(-365.,-10.,19.9999999999999));
#401=CARTESIAN_POINT('',(9.9999999999999,-10.,20.0000000000001));
#402=CARTESIAN_POINT('',(9.9999999999999,-10.,20.0000000000001));
#403=CARTESIAN_POINT('',(-365.,-10.,19.9999999999999));
#404=CARTESIAN_POINT('',(9.9999999999999,10.,20.0000000000001));
#405=CARTESIAN_POINT('',(9.9999999999999,-10.,20.0000000000001));
#406=CARTESIAN_POINT('',(9.9999999999999,-10.,20.0000000000001));
#407=CARTESIAN_POINT('',(-365.,-10.,-2.1316282072803E-14));
#408=CARTESIAN_POINT('',(0.,-10.,0.));
#409=CARTESIAN_POINT('',(-365.,10.,-2.1316282072803E-14));
#410=CARTESIAN_POINT('',(0.,10.,0.));
#411=CARTESIAN_POINT('',(-369.037254038179,10.4137246264143,35.));
#412=CARTESIAN_POINT('',(-369.037254038179,-10.4137246264143,35.));
#413=CARTESIAN_POINT('',(-375.,0.,35.));
#414=CARTESIAN_POINT('',(-363.,0.,35.));
#415=CARTESIAN_POINT('',(-375.,0.,-15.));
#416=CARTESIAN_POINT('',(-363.,0.,-15.));
#417=CARTESIAN_POINT('',(-375.,0.,35.));
#418=CARTESIAN_POINT('',(-375.,0.,35.));
#419=CARTESIAN_POINT('',(-365.,0.,35.));
#420=CARTESIAN_POINT('',(-375.,0.,-15.));
#421=CARTESIAN_POINT('',(-365.,0.,-15.));
#422=CARTESIAN_POINT('',(-375.,0.,35.));
#423=CARTESIAN_POINT('',(-375.,0.,35.));
#424=CARTESIAN_POINT('',(-375.,0.,-15.));
#425=CARTESIAN_POINT('',(-366.552776554087,14.7527765540869,35.));
#426=CARTESIAN_POINT('',(-366.552776554087,-14.7527765540869,35.));
#427=MECHANICAL_DESIGN_GEOMETRIC_PRESENTATION_REPRESENTATION('',(#24),#428);
#428=(
GEOMETRIC_REPRESENTATION_CONTEXT(3)
GLOBAL_UNCERTAINTY_ASSIGNED_CONTEXT((#429))
GLOBAL_UNIT_ASSIGNED_CONTEXT((#435,#431,#430))
REPRESENTATION_CONTEXT('S_SF_M_07_stirrer_holder',
'TOP_LEVEL_ASSEMBLY_PART')
);
#429=UNCERTAINTY_MEASURE_WITH_UNIT(LENGTH_MEASURE(2.E-5),#435,
'DISTANCE_ACCURACY_VALUE','Maximum Tolerance applied to model');
#430=(
NAMED_UNIT(*)
SI_UNIT($,.STERADIAN.)
SOLID_ANGLE_UNIT()
);
#431=(
CONVERSION_BASED_UNIT('DEGREE',#433)
NAMED_UNIT(#432)
PLANE_ANGLE_UNIT()
);
#432=DIMENSIONAL_EXPONENTS(0.,0.,0.,0.,0.,0.,0.);
#433=PLANE_ANGLE_MEASURE_WITH_UNIT(PLANE_ANGLE_MEASURE(0.0174532925),#434);
#434=(
NAMED_UNIT(*)
PLANE_ANGLE_UNIT()
SI_UNIT($,.RADIAN.)
);
#435=(
LENGTH_UNIT()
NAMED_UNIT(*)
SI_UNIT(.MILLI.,.METRE.)
);
ENDSEC;
END-ISO-10303-21;
