ISO-10303-21;
HEADER;
/* Generated by software containing ST-Developer
 * from STEP Tools, Inc. (www.steptools.com) 
 */
/* OPTION: using custom schema-name function */

FILE_DESCRIPTION(
/* description */ (''),
/* implementation_level */ '2;1');

FILE_NAME(
/* name */ 'S_SF_M_01_basin.stp',
/* time_stamp */ '2025-12-15T16:57:53+01:00',
/* author */ (''),
/* organization */ (''),
/* preprocessor_version */ 'ST-DEVELOPER v18.1',
/* originating_system */ 'SIEMENS PLM Software NX 1988',
/* authorisation */ '');

FILE_SCHEMA (('AUTOMOTIVE_DESIGN { 1 0 10303 214 3 1 1 1 }'));
ENDSEC;

DATA;
#10=SHAPE_REPRESENTATION_RELATIONSHIP('None',
'relationship between S_SF_M_01_basin-None and S_SF_M_01_basin-None',#22,
#11);
#11=ADVANCED_BREP_SHAPE_REPRESENTATION('S_SF_M_01_basin-None',(#60,#61,
#62,#63,#64),#1079);
#12=SHAPE_DEFINITION_REPRESENTATION(#13,#22);
#13=PRODUCT_DEFINITION_SHAPE('','',#14);
#14=PRODUCT_DEFINITION(' ','',#16,#15);
#15=PRODUCT_DEFINITION_CONTEXT('part definition',#21,'design');
#16=PRODUCT_DEFINITION_FORMATION_WITH_SPECIFIED_SOURCE(' ',' ',#18,
 .NOT_KNOWN.);
#17=PRODUCT_RELATED_PRODUCT_CATEGORY('part','',(#18));
#18=PRODUCT('S_SF_M_01_basin','S_SF_M_01_basin',' ',(#19));
#19=PRODUCT_CONTEXT(' ',#21,'mechanical');
#20=APPLICATION_PROTOCOL_DEFINITION('international standard',
'automotive_design',2010,#21);
#21=APPLICATION_CONTEXT(
'core data for automotive mechanical design processes');
#22=SHAPE_REPRESENTATION('S_SF_M_01_basin-None',(#698),#1079);
#23=PRESENTATION_LAYER_ASSIGNMENT('1','Layer 1',(#60,#61,#62,#63,#64));
#24=STYLED_ITEM('',(#29),#60);
#25=STYLED_ITEM('',(#30),#61);
#26=STYLED_ITEM('',(#31),#62);
#27=STYLED_ITEM('',(#32),#63);
#28=STYLED_ITEM('',(#33),#64);
#29=PRESENTATION_STYLE_ASSIGNMENT((#34));
#30=PRESENTATION_STYLE_ASSIGNMENT((#35));
#31=PRESENTATION_STYLE_ASSIGNMENT((#36));
#32=PRESENTATION_STYLE_ASSIGNMENT((#37));
#33=PRESENTATION_STYLE_ASSIGNMENT((#38));
#34=SURFACE_STYLE_USAGE(.BOTH.,#39);
#35=SURFACE_STYLE_USAGE(.BOTH.,#40);
#36=SURFACE_STYLE_USAGE(.BOTH.,#41);
#37=SURFACE_STYLE_USAGE(.BOTH.,#42);
#38=SURFACE_STYLE_USAGE(.BOTH.,#43);
#39=SURFACE_SIDE_STYLE('',(#44));
#40=SURFACE_SIDE_STYLE('',(#45));
#41=SURFACE_SIDE_STYLE('',(#46));
#42=SURFACE_SIDE_STYLE('',(#47));
#43=SURFACE_SIDE_STYLE('',(#48));
#44=SURFACE_STYLE_FILL_AREA(#49);
#45=SURFACE_STYLE_FILL_AREA(#50);
#46=SURFACE_STYLE_FILL_AREA(#51);
#47=SURFACE_STYLE_FILL_AREA(#52);
#48=SURFACE_STYLE_FILL_AREA(#53);
#49=FILL_AREA_STYLE('',(#54));
#50=FILL_AREA_STYLE('',(#55));
#51=FILL_AREA_STYLE('',(#56));
#52=FILL_AREA_STYLE('',(#57));
#53=FILL_AREA_STYLE('',(#58));
#54=FILL_AREA_STYLE_COLOUR('',#59);
#55=FILL_AREA_STYLE_COLOUR('',#59);
#56=FILL_AREA_STYLE_COLOUR('',#59);
#57=FILL_AREA_STYLE_COLOUR('',#59);
#58=FILL_AREA_STYLE_COLOUR('',#59);
#59=COLOUR_RGB('ash gray',0.874509803921569,0.874509803921569,0.874509803921569);
#60=MANIFOLD_SOLID_BREP('',#65);
#61=MANIFOLD_SOLID_BREP('',#66);
#62=MANIFOLD_SOLID_BREP('',#67);
#63=MANIFOLD_SOLID_BREP('',#68);
#64=MANIFOLD_SOLID_BREP('',#69);
#65=CLOSED_SHELL('',(#70,#71,#72,#73,#74,#75,#76,#77,#78,#79,#80,#81,#82,
#83));
#66=CLOSED_SHELL('',(#84,#85,#86,#87,#88,#89));
#67=CLOSED_SHELL('',(#90,#91,#92,#93,#94,#95));
#68=CLOSED_SHELL('',(#96,#97,#98,#99,#100,#101));
#69=CLOSED_SHELL('',(#102,#103,#104,#105,#106,#107));
#70=ADVANCED_FACE('',(#146),#108,.F.);
#71=ADVANCED_FACE('',(#147),#109,.F.);
#72=ADVANCED_FACE('',(#148),#110,.F.);
#73=ADVANCED_FACE('',(#149),#111,.F.);
#74=ADVANCED_FACE('',(#150),#112,.F.);
#75=ADVANCED_FACE('',(#151),#113,.F.);
#76=ADVANCED_FACE('',(#152),#114,.T.);
#77=ADVANCED_FACE('',(#153),#115,.F.);
#78=ADVANCED_FACE('',(#154),#116,.T.);
#79=ADVANCED_FACE('',(#155),#117,.T.);
#80=ADVANCED_FACE('',(#156),#118,.T.);
#81=ADVANCED_FACE('',(#157),#119,.T.);
#82=ADVANCED_FACE('',(#158),#120,.T.);
#83=ADVANCED_FACE('',(#159),#121,.T.);
#84=ADVANCED_FACE('',(#160),#122,.F.);
#85=ADVANCED_FACE('',(#161),#123,.T.);
#86=ADVANCED_FACE('',(#162),#124,.F.);
#87=ADVANCED_FACE('',(#163),#125,.F.);
#88=ADVANCED_FACE('',(#164),#126,.F.);
#89=ADVANCED_FACE('',(#165),#127,.T.);
#90=ADVANCED_FACE('',(#166),#128,.T.);
#91=ADVANCED_FACE('',(#167),#129,.F.);
#92=ADVANCED_FACE('',(#168),#130,.F.);
#93=ADVANCED_FACE('',(#169),#131,.F.);
#94=ADVANCED_FACE('',(#170),#132,.F.);
#95=ADVANCED_FACE('',(#171),#133,.T.);
#96=ADVANCED_FACE('',(#172),#134,.F.);
#97=ADVANCED_FACE('',(#173),#135,.T.);
#98=ADVANCED_FACE('',(#174),#136,.F.);
#99=ADVANCED_FACE('',(#175),#137,.F.);
#100=ADVANCED_FACE('',(#176),#138,.F.);
#101=ADVANCED_FACE('',(#177),#139,.T.);
#102=ADVANCED_FACE('',(#178),#140,.F.);
#103=ADVANCED_FACE('',(#179),#141,.T.);
#104=ADVANCED_FACE('',(#180),#142,.F.);
#105=ADVANCED_FACE('',(#181),#143,.F.);
#106=ADVANCED_FACE('',(#182),#144,.F.);
#107=ADVANCED_FACE('',(#183),#145,.T.);
#108=PLANE('',#699);
#109=PLANE('',#700);
#110=PLANE('',#701);
#111=PLANE('',#702);
#112=PLANE('',#703);
#113=PLANE('',#704);
#114=PLANE('',#705);
#115=PLANE('',#706);
#116=PLANE('',#707);
#117=PLANE('',#708);
#118=PLANE('',#709);
#119=PLANE('',#710);
#120=PLANE('',#711);
#121=PLANE('',#712);
#122=PLANE('',#713);
#123=PLANE('',#714);
#124=PLANE('',#715);
#125=PLANE('',#716);
#126=PLANE('',#717);
#127=PLANE('',#718);
#128=PLANE('',#719);
#129=PLANE('',#720);
#130=PLANE('',#721);
#131=PLANE('',#722);
#132=PLANE('',#723);
#133=PLANE('',#724);
#134=PLANE('',#725);
#135=PLANE('',#726);
#136=PLANE('',#727);
#137=PLANE('',#728);
#138=PLANE('',#729);
#139=PLANE('',#730);
#140=PLANE('',#731);
#141=PLANE('',#732);
#142=PLANE('',#733);
#143=PLANE('',#734);
#144=PLANE('',#735);
#145=PLANE('',#736);
#146=FACE_OUTER_BOUND('',#184,.T.);
#147=FACE_OUTER_BOUND('',#185,.T.);
#148=FACE_OUTER_BOUND('',#186,.T.);
#149=FACE_OUTER_BOUND('',#187,.T.);
#150=FACE_OUTER_BOUND('',#188,.T.);
#151=FACE_OUTER_BOUND('',#189,.T.);
#152=FACE_OUTER_BOUND('',#190,.T.);
#153=FACE_OUTER_BOUND('',#191,.T.);
#154=FACE_OUTER_BOUND('',#192,.T.);
#155=FACE_OUTER_BOUND('',#193,.T.);
#156=FACE_OUTER_BOUND('',#194,.T.);
#157=FACE_OUTER_BOUND('',#195,.T.);
#158=FACE_OUTER_BOUND('',#196,.T.);
#159=FACE_OUTER_BOUND('',#197,.T.);
#160=FACE_OUTER_BOUND('',#198,.T.);
#161=FACE_OUTER_BOUND('',#199,.T.);
#162=FACE_OUTER_BOUND('',#200,.T.);
#163=FACE_OUTER_BOUND('',#201,.T.);
#164=FACE_OUTER_BOUND('',#202,.T.);
#165=FACE_OUTER_BOUND('',#203,.T.);
#166=FACE_OUTER_BOUND('',#204,.T.);
#167=FACE_OUTER_BOUND('',#205,.T.);
#168=FACE_OUTER_BOUND('',#206,.T.);
#169=FACE_OUTER_BOUND('',#207,.T.);
#170=FACE_OUTER_BOUND('',#208,.T.);
#171=FACE_OUTER_BOUND('',#209,.T.);
#172=FACE_OUTER_BOUND('',#210,.T.);
#173=FACE_OUTER_BOUND('',#211,.T.);
#174=FACE_OUTER_BOUND('',#212,.T.);
#175=FACE_OUTER_BOUND('',#213,.T.);
#176=FACE_OUTER_BOUND('',#214,.T.);
#177=FACE_OUTER_BOUND('',#215,.T.);
#178=FACE_OUTER_BOUND('',#216,.T.);
#179=FACE_OUTER_BOUND('',#217,.T.);
#180=FACE_OUTER_BOUND('',#218,.T.);
#181=FACE_OUTER_BOUND('',#219,.T.);
#182=FACE_OUTER_BOUND('',#220,.T.);
#183=FACE_OUTER_BOUND('',#221,.T.);
#184=EDGE_LOOP('',(#222,#223,#224,#225));
#185=EDGE_LOOP('',(#226,#227,#228,#229));
#186=EDGE_LOOP('',(#230,#231,#232,#233));
#187=EDGE_LOOP('',(#234,#235,#236,#237));
#188=EDGE_LOOP('',(#238,#239,#240,#241));
#189=EDGE_LOOP('',(#242,#243,#244,#245));
#190=EDGE_LOOP('',(#246,#247,#248,#249,#250,#251,#252,#253,#254,#255,#256,
#257));
#191=EDGE_LOOP('',(#258,#259,#260,#261,#262,#263,#264,#265,#266,#267,#268,
#269));
#192=EDGE_LOOP('',(#270,#271,#272,#273));
#193=EDGE_LOOP('',(#274,#275,#276,#277));
#194=EDGE_LOOP('',(#278,#279,#280,#281));
#195=EDGE_LOOP('',(#282,#283,#284,#285));
#196=EDGE_LOOP('',(#286,#287,#288,#289));
#197=EDGE_LOOP('',(#290,#291,#292,#293));
#198=EDGE_LOOP('',(#294,#295,#296,#297));
#199=EDGE_LOOP('',(#298,#299,#300,#301));
#200=EDGE_LOOP('',(#302,#303,#304,#305));
#201=EDGE_LOOP('',(#306,#307,#308,#309));
#202=EDGE_LOOP('',(#310,#311,#312,#313));
#203=EDGE_LOOP('',(#314,#315,#316,#317));
#204=EDGE_LOOP('',(#318,#319,#320,#321));
#205=EDGE_LOOP('',(#322,#323,#324,#325));
#206=EDGE_LOOP('',(#326,#327,#328,#329));
#207=EDGE_LOOP('',(#330,#331,#332,#333));
#208=EDGE_LOOP('',(#334,#335,#336,#337));
#209=EDGE_LOOP('',(#338,#339,#340,#341));
#210=EDGE_LOOP('',(#342,#343,#344,#345));
#211=EDGE_LOOP('',(#346,#347,#348,#349));
#212=EDGE_LOOP('',(#350,#351,#352,#353));
#213=EDGE_LOOP('',(#354,#355,#356,#357));
#214=EDGE_LOOP('',(#358,#359,#360,#361));
#215=EDGE_LOOP('',(#362,#363,#364,#365));
#216=EDGE_LOOP('',(#366,#367,#368,#369));
#217=EDGE_LOOP('',(#370,#371,#372,#373));
#218=EDGE_LOOP('',(#374,#375,#376,#377));
#219=EDGE_LOOP('',(#378,#379,#380,#381));
#220=EDGE_LOOP('',(#382,#383,#384,#385));
#221=EDGE_LOOP('',(#386,#387,#388,#389));
#222=ORIENTED_EDGE('',*,*,#446,.F.);
#223=ORIENTED_EDGE('',*,*,#447,.F.);
#224=ORIENTED_EDGE('',*,*,#448,.T.);
#225=ORIENTED_EDGE('',*,*,#449,.T.);
#226=ORIENTED_EDGE('',*,*,#450,.F.);
#227=ORIENTED_EDGE('',*,*,#451,.F.);
#228=ORIENTED_EDGE('',*,*,#452,.T.);
#229=ORIENTED_EDGE('',*,*,#453,.T.);
#230=ORIENTED_EDGE('',*,*,#454,.T.);
#231=ORIENTED_EDGE('',*,*,#448,.F.);
#232=ORIENTED_EDGE('',*,*,#455,.F.);
#233=ORIENTED_EDGE('',*,*,#456,.T.);
#234=ORIENTED_EDGE('',*,*,#457,.F.);
#235=ORIENTED_EDGE('',*,*,#458,.T.);
#236=ORIENTED_EDGE('',*,*,#459,.T.);
#237=ORIENTED_EDGE('',*,*,#460,.F.);
#238=ORIENTED_EDGE('',*,*,#461,.T.);
#239=ORIENTED_EDGE('',*,*,#452,.F.);
#240=ORIENTED_EDGE('',*,*,#462,.F.);
#241=ORIENTED_EDGE('',*,*,#460,.T.);
#242=ORIENTED_EDGE('',*,*,#463,.F.);
#243=ORIENTED_EDGE('',*,*,#464,.T.);
#244=ORIENTED_EDGE('',*,*,#465,.T.);
#245=ORIENTED_EDGE('',*,*,#456,.F.);
#246=ORIENTED_EDGE('',*,*,#455,.T.);
#247=ORIENTED_EDGE('',*,*,#447,.T.);
#248=ORIENTED_EDGE('',*,*,#466,.F.);
#249=ORIENTED_EDGE('',*,*,#467,.F.);
#250=ORIENTED_EDGE('',*,*,#468,.F.);
#251=ORIENTED_EDGE('',*,*,#457,.T.);
#252=ORIENTED_EDGE('',*,*,#462,.T.);
#253=ORIENTED_EDGE('',*,*,#451,.T.);
#254=ORIENTED_EDGE('',*,*,#469,.F.);
#255=ORIENTED_EDGE('',*,*,#470,.F.);
#256=ORIENTED_EDGE('',*,*,#471,.F.);
#257=ORIENTED_EDGE('',*,*,#463,.T.);
#258=ORIENTED_EDGE('',*,*,#454,.F.);
#259=ORIENTED_EDGE('',*,*,#465,.F.);
#260=ORIENTED_EDGE('',*,*,#472,.T.);
#261=ORIENTED_EDGE('',*,*,#473,.T.);
#262=ORIENTED_EDGE('',*,*,#474,.T.);
#263=ORIENTED_EDGE('',*,*,#453,.F.);
#264=ORIENTED_EDGE('',*,*,#461,.F.);
#265=ORIENTED_EDGE('',*,*,#459,.F.);
#266=ORIENTED_EDGE('',*,*,#475,.T.);
#267=ORIENTED_EDGE('',*,*,#476,.T.);
#268=ORIENTED_EDGE('',*,*,#477,.T.);
#269=ORIENTED_EDGE('',*,*,#449,.F.);
#270=ORIENTED_EDGE('',*,*,#474,.F.);
#271=ORIENTED_EDGE('',*,*,#478,.F.);
#272=ORIENTED_EDGE('',*,*,#469,.T.);
#273=ORIENTED_EDGE('',*,*,#450,.T.);
#274=ORIENTED_EDGE('',*,*,#472,.F.);
#275=ORIENTED_EDGE('',*,*,#464,.F.);
#276=ORIENTED_EDGE('',*,*,#471,.T.);
#277=ORIENTED_EDGE('',*,*,#479,.T.);
#278=ORIENTED_EDGE('',*,*,#473,.F.);
#279=ORIENTED_EDGE('',*,*,#479,.F.);
#280=ORIENTED_EDGE('',*,*,#470,.T.);
#281=ORIENTED_EDGE('',*,*,#478,.T.);
#282=ORIENTED_EDGE('',*,*,#475,.F.);
#283=ORIENTED_EDGE('',*,*,#458,.F.);
#284=ORIENTED_EDGE('',*,*,#468,.T.);
#285=ORIENTED_EDGE('',*,*,#480,.T.);
#286=ORIENTED_EDGE('',*,*,#476,.F.);
#287=ORIENTED_EDGE('',*,*,#480,.F.);
#288=ORIENTED_EDGE('',*,*,#467,.T.);
#289=ORIENTED_EDGE('',*,*,#481,.T.);
#290=ORIENTED_EDGE('',*,*,#477,.F.);
#291=ORIENTED_EDGE('',*,*,#481,.F.);
#292=ORIENTED_EDGE('',*,*,#466,.T.);
#293=ORIENTED_EDGE('',*,*,#446,.T.);
#294=ORIENTED_EDGE('',*,*,#482,.T.);
#295=ORIENTED_EDGE('',*,*,#483,.F.);
#296=ORIENTED_EDGE('',*,*,#484,.F.);
#297=ORIENTED_EDGE('',*,*,#485,.T.);
#298=ORIENTED_EDGE('',*,*,#486,.F.);
#299=ORIENTED_EDGE('',*,*,#487,.T.);
#300=ORIENTED_EDGE('',*,*,#484,.T.);
#301=ORIENTED_EDGE('',*,*,#488,.T.);
#302=ORIENTED_EDGE('',*,*,#489,.F.);
#303=ORIENTED_EDGE('',*,*,#490,.T.);
#304=ORIENTED_EDGE('',*,*,#491,.F.);
#305=ORIENTED_EDGE('',*,*,#482,.F.);
#306=ORIENTED_EDGE('',*,*,#491,.T.);
#307=ORIENTED_EDGE('',*,*,#492,.F.);
#308=ORIENTED_EDGE('',*,*,#488,.F.);
#309=ORIENTED_EDGE('',*,*,#483,.T.);
#310=ORIENTED_EDGE('',*,*,#489,.T.);
#311=ORIENTED_EDGE('',*,*,#485,.F.);
#312=ORIENTED_EDGE('',*,*,#487,.F.);
#313=ORIENTED_EDGE('',*,*,#493,.T.);
#314=ORIENTED_EDGE('',*,*,#490,.F.);
#315=ORIENTED_EDGE('',*,*,#493,.F.);
#316=ORIENTED_EDGE('',*,*,#486,.T.);
#317=ORIENTED_EDGE('',*,*,#492,.T.);
#318=ORIENTED_EDGE('',*,*,#494,.F.);
#319=ORIENTED_EDGE('',*,*,#495,.T.);
#320=ORIENTED_EDGE('',*,*,#496,.T.);
#321=ORIENTED_EDGE('',*,*,#497,.T.);
#322=ORIENTED_EDGE('',*,*,#498,.F.);
#323=ORIENTED_EDGE('',*,*,#499,.T.);
#324=ORIENTED_EDGE('',*,*,#500,.F.);
#325=ORIENTED_EDGE('',*,*,#501,.F.);
#326=ORIENTED_EDGE('',*,*,#501,.T.);
#327=ORIENTED_EDGE('',*,*,#502,.F.);
#328=ORIENTED_EDGE('',*,*,#496,.F.);
#329=ORIENTED_EDGE('',*,*,#503,.T.);
#330=ORIENTED_EDGE('',*,*,#500,.T.);
#331=ORIENTED_EDGE('',*,*,#504,.F.);
#332=ORIENTED_EDGE('',*,*,#497,.F.);
#333=ORIENTED_EDGE('',*,*,#502,.T.);
#334=ORIENTED_EDGE('',*,*,#498,.T.);
#335=ORIENTED_EDGE('',*,*,#503,.F.);
#336=ORIENTED_EDGE('',*,*,#495,.F.);
#337=ORIENTED_EDGE('',*,*,#505,.T.);
#338=ORIENTED_EDGE('',*,*,#499,.F.);
#339=ORIENTED_EDGE('',*,*,#505,.F.);
#340=ORIENTED_EDGE('',*,*,#494,.T.);
#341=ORIENTED_EDGE('',*,*,#504,.T.);
#342=ORIENTED_EDGE('',*,*,#506,.T.);
#343=ORIENTED_EDGE('',*,*,#507,.F.);
#344=ORIENTED_EDGE('',*,*,#508,.F.);
#345=ORIENTED_EDGE('',*,*,#509,.T.);
#346=ORIENTED_EDGE('',*,*,#510,.F.);
#347=ORIENTED_EDGE('',*,*,#511,.T.);
#348=ORIENTED_EDGE('',*,*,#508,.T.);
#349=ORIENTED_EDGE('',*,*,#512,.T.);
#350=ORIENTED_EDGE('',*,*,#513,.F.);
#351=ORIENTED_EDGE('',*,*,#514,.T.);
#352=ORIENTED_EDGE('',*,*,#515,.F.);
#353=ORIENTED_EDGE('',*,*,#506,.F.);
#354=ORIENTED_EDGE('',*,*,#515,.T.);
#355=ORIENTED_EDGE('',*,*,#516,.F.);
#356=ORIENTED_EDGE('',*,*,#512,.F.);
#357=ORIENTED_EDGE('',*,*,#507,.T.);
#358=ORIENTED_EDGE('',*,*,#513,.T.);
#359=ORIENTED_EDGE('',*,*,#509,.F.);
#360=ORIENTED_EDGE('',*,*,#511,.F.);
#361=ORIENTED_EDGE('',*,*,#517,.T.);
#362=ORIENTED_EDGE('',*,*,#514,.F.);
#363=ORIENTED_EDGE('',*,*,#517,.F.);
#364=ORIENTED_EDGE('',*,*,#510,.T.);
#365=ORIENTED_EDGE('',*,*,#516,.T.);
#366=ORIENTED_EDGE('',*,*,#518,.T.);
#367=ORIENTED_EDGE('',*,*,#519,.F.);
#368=ORIENTED_EDGE('',*,*,#520,.F.);
#369=ORIENTED_EDGE('',*,*,#521,.T.);
#370=ORIENTED_EDGE('',*,*,#522,.F.);
#371=ORIENTED_EDGE('',*,*,#523,.T.);
#372=ORIENTED_EDGE('',*,*,#520,.T.);
#373=ORIENTED_EDGE('',*,*,#524,.T.);
#374=ORIENTED_EDGE('',*,*,#525,.F.);
#375=ORIENTED_EDGE('',*,*,#526,.T.);
#376=ORIENTED_EDGE('',*,*,#527,.F.);
#377=ORIENTED_EDGE('',*,*,#518,.F.);
#378=ORIENTED_EDGE('',*,*,#527,.T.);
#379=ORIENTED_EDGE('',*,*,#528,.F.);
#380=ORIENTED_EDGE('',*,*,#524,.F.);
#381=ORIENTED_EDGE('',*,*,#519,.T.);
#382=ORIENTED_EDGE('',*,*,#525,.T.);
#383=ORIENTED_EDGE('',*,*,#521,.F.);
#384=ORIENTED_EDGE('',*,*,#523,.F.);
#385=ORIENTED_EDGE('',*,*,#529,.T.);
#386=ORIENTED_EDGE('',*,*,#526,.F.);
#387=ORIENTED_EDGE('',*,*,#529,.F.);
#388=ORIENTED_EDGE('',*,*,#522,.T.);
#389=ORIENTED_EDGE('',*,*,#528,.T.);
#390=VERTEX_POINT('',#901);
#391=VERTEX_POINT('',#902);
#392=VERTEX_POINT('',#904);
#393=VERTEX_POINT('',#906);
#394=VERTEX_POINT('',#910);
#395=VERTEX_POINT('',#911);
#396=VERTEX_POINT('',#913);
#397=VERTEX_POINT('',#915);
#398=VERTEX_POINT('',#919);
#399=VERTEX_POINT('',#921);
#400=VERTEX_POINT('',#925);
#401=VERTEX_POINT('',#926);
#402=VERTEX_POINT('',#928);
#403=VERTEX_POINT('',#930);
#404=VERTEX_POINT('',#937);
#405=VERTEX_POINT('',#939);
#406=VERTEX_POINT('',#943);
#407=VERTEX_POINT('',#945);
#408=VERTEX_POINT('',#948);
#409=VERTEX_POINT('',#950);
#410=VERTEX_POINT('',#954);
#411=VERTEX_POINT('',#956);
#412=VERTEX_POINT('',#959);
#413=VERTEX_POINT('',#961);
#414=VERTEX_POINT('',#975);
#415=VERTEX_POINT('',#976);
#416=VERTEX_POINT('',#978);
#417=VERTEX_POINT('',#980);
#418=VERTEX_POINT('',#984);
#419=VERTEX_POINT('',#985);
#420=VERTEX_POINT('',#990);
#421=VERTEX_POINT('',#992);
#422=VERTEX_POINT('',#1001);
#423=VERTEX_POINT('',#1002);
#424=VERTEX_POINT('',#1004);
#425=VERTEX_POINT('',#1006);
#426=VERTEX_POINT('',#1010);
#427=VERTEX_POINT('',#1011);
#428=VERTEX_POINT('',#1013);
#429=VERTEX_POINT('',#1015);
#430=VERTEX_POINT('',#1027);
#431=VERTEX_POINT('',#1028);
#432=VERTEX_POINT('',#1030);
#433=VERTEX_POINT('',#1032);
#434=VERTEX_POINT('',#1036);
#435=VERTEX_POINT('',#1037);
#436=VERTEX_POINT('',#1042);
#437=VERTEX_POINT('',#1044);
#438=VERTEX_POINT('',#1053);
#439=VERTEX_POINT('',#1054);
#440=VERTEX_POINT('',#1056);
#441=VERTEX_POINT('',#1058);
#442=VERTEX_POINT('',#1062);
#443=VERTEX_POINT('',#1063);
#444=VERTEX_POINT('',#1068);
#445=VERTEX_POINT('',#1070);
#446=EDGE_CURVE('',#390,#391,#530,.T.);
#447=EDGE_CURVE('',#392,#390,#531,.T.);
#448=EDGE_CURVE('',#392,#393,#532,.T.);
#449=EDGE_CURVE('',#393,#391,#533,.T.);
#450=EDGE_CURVE('',#394,#395,#534,.T.);
#451=EDGE_CURVE('',#396,#394,#535,.T.);
#452=EDGE_CURVE('',#396,#397,#536,.T.);
#453=EDGE_CURVE('',#397,#395,#537,.T.);
#454=EDGE_CURVE('',#398,#393,#538,.T.);
#455=EDGE_CURVE('',#399,#392,#539,.T.);
#456=EDGE_CURVE('',#399,#398,#540,.T.);
#457=EDGE_CURVE('',#400,#401,#541,.T.);
#458=EDGE_CURVE('',#400,#402,#542,.T.);
#459=EDGE_CURVE('',#402,#403,#543,.T.);
#460=EDGE_CURVE('',#401,#403,#544,.T.);
#461=EDGE_CURVE('',#403,#397,#545,.T.);
#462=EDGE_CURVE('',#401,#396,#546,.T.);
#463=EDGE_CURVE('',#404,#399,#547,.T.);
#464=EDGE_CURVE('',#404,#405,#548,.T.);
#465=EDGE_CURVE('',#405,#398,#549,.T.);
#466=EDGE_CURVE('',#406,#390,#550,.T.);
#467=EDGE_CURVE('',#407,#406,#551,.T.);
#468=EDGE_CURVE('',#400,#407,#552,.T.);
#469=EDGE_CURVE('',#408,#394,#553,.T.);
#470=EDGE_CURVE('',#409,#408,#554,.T.);
#471=EDGE_CURVE('',#404,#409,#555,.T.);
#472=EDGE_CURVE('',#405,#410,#556,.T.);
#473=EDGE_CURVE('',#410,#411,#557,.T.);
#474=EDGE_CURVE('',#411,#395,#558,.T.);
#475=EDGE_CURVE('',#402,#412,#559,.T.);
#476=EDGE_CURVE('',#412,#413,#560,.T.);
#477=EDGE_CURVE('',#413,#391,#561,.T.);
#478=EDGE_CURVE('',#408,#411,#562,.T.);
#479=EDGE_CURVE('',#409,#410,#563,.T.);
#480=EDGE_CURVE('',#407,#412,#564,.T.);
#481=EDGE_CURVE('',#406,#413,#565,.T.);
#482=EDGE_CURVE('',#414,#415,#566,.T.);
#483=EDGE_CURVE('',#416,#415,#567,.T.);
#484=EDGE_CURVE('',#417,#416,#568,.T.);
#485=EDGE_CURVE('',#417,#414,#569,.T.);
#486=EDGE_CURVE('',#418,#419,#570,.T.);
#487=EDGE_CURVE('',#418,#417,#571,.T.);
#488=EDGE_CURVE('',#416,#419,#572,.T.);
#489=EDGE_CURVE('',#420,#414,#573,.T.);
#490=EDGE_CURVE('',#420,#421,#574,.T.);
#491=EDGE_CURVE('',#415,#421,#575,.T.);
#492=EDGE_CURVE('',#419,#421,#576,.T.);
#493=EDGE_CURVE('',#418,#420,#577,.T.);
#494=EDGE_CURVE('',#422,#423,#578,.T.);
#495=EDGE_CURVE('',#422,#424,#579,.T.);
#496=EDGE_CURVE('',#424,#425,#580,.T.);
#497=EDGE_CURVE('',#425,#423,#581,.T.);
#498=EDGE_CURVE('',#426,#427,#582,.T.);
#499=EDGE_CURVE('',#426,#428,#583,.T.);
#500=EDGE_CURVE('',#429,#428,#584,.T.);
#501=EDGE_CURVE('',#427,#429,#585,.T.);
#502=EDGE_CURVE('',#425,#429,#586,.T.);
#503=EDGE_CURVE('',#424,#427,#587,.T.);
#504=EDGE_CURVE('',#423,#428,#588,.T.);
#505=EDGE_CURVE('',#422,#426,#589,.T.);
#506=EDGE_CURVE('',#430,#431,#590,.T.);
#507=EDGE_CURVE('',#432,#431,#591,.T.);
#508=EDGE_CURVE('',#433,#432,#592,.T.);
#509=EDGE_CURVE('',#433,#430,#593,.T.);
#510=EDGE_CURVE('',#434,#435,#594,.T.);
#511=EDGE_CURVE('',#434,#433,#595,.T.);
#512=EDGE_CURVE('',#432,#435,#596,.T.);
#513=EDGE_CURVE('',#436,#430,#597,.T.);
#514=EDGE_CURVE('',#436,#437,#598,.T.);
#515=EDGE_CURVE('',#431,#437,#599,.T.);
#516=EDGE_CURVE('',#435,#437,#600,.T.);
#517=EDGE_CURVE('',#434,#436,#601,.T.);
#518=EDGE_CURVE('',#438,#439,#602,.T.);
#519=EDGE_CURVE('',#440,#439,#603,.T.);
#520=EDGE_CURVE('',#441,#440,#604,.T.);
#521=EDGE_CURVE('',#441,#438,#605,.T.);
#522=EDGE_CURVE('',#442,#443,#606,.T.);
#523=EDGE_CURVE('',#442,#441,#607,.T.);
#524=EDGE_CURVE('',#440,#443,#608,.T.);
#525=EDGE_CURVE('',#444,#438,#609,.T.);
#526=EDGE_CURVE('',#444,#445,#610,.T.);
#527=EDGE_CURVE('',#439,#445,#611,.T.);
#528=EDGE_CURVE('',#443,#445,#612,.T.);
#529=EDGE_CURVE('',#442,#444,#613,.T.);
#530=LINE('',#900,#614);
#531=LINE('',#903,#615);
#532=LINE('',#905,#616);
#533=LINE('',#907,#617);
#534=LINE('',#909,#618);
#535=LINE('',#912,#619);
#536=LINE('',#914,#620);
#537=LINE('',#916,#621);
#538=LINE('',#918,#622);
#539=LINE('',#920,#623);
#540=LINE('',#922,#624);
#541=LINE('',#924,#625);
#542=LINE('',#927,#626);
#543=LINE('',#929,#627);
#544=LINE('',#931,#628);
#545=LINE('',#933,#629);
#546=LINE('',#934,#630);
#547=LINE('',#936,#631);
#548=LINE('',#938,#632);
#549=LINE('',#940,#633);
#550=LINE('',#942,#634);
#551=LINE('',#944,#635);
#552=LINE('',#946,#636);
#553=LINE('',#947,#637);
#554=LINE('',#949,#638);
#555=LINE('',#951,#639);
#556=LINE('',#953,#640);
#557=LINE('',#955,#641);
#558=LINE('',#957,#642);
#559=LINE('',#958,#643);
#560=LINE('',#960,#644);
#561=LINE('',#962,#645);
#562=LINE('',#964,#646);
#563=LINE('',#966,#647);
#564=LINE('',#969,#648);
#565=LINE('',#971,#649);
#566=LINE('',#974,#650);
#567=LINE('',#977,#651);
#568=LINE('',#979,#652);
#569=LINE('',#981,#653);
#570=LINE('',#983,#654);
#571=LINE('',#986,#655);
#572=LINE('',#987,#656);
#573=LINE('',#989,#657);
#574=LINE('',#991,#658);
#575=LINE('',#993,#659);
#576=LINE('',#995,#660);
#577=LINE('',#997,#661);
#578=LINE('',#1000,#662);
#579=LINE('',#1003,#663);
#580=LINE('',#1005,#664);
#581=LINE('',#1007,#665);
#582=LINE('',#1009,#666);
#583=LINE('',#1012,#667);
#584=LINE('',#1014,#668);
#585=LINE('',#1016,#669);
#586=LINE('',#1018,#670);
#587=LINE('',#1019,#671);
#588=LINE('',#1021,#672);
#589=LINE('',#1023,#673);
#590=LINE('',#1026,#674);
#591=LINE('',#1029,#675);
#592=LINE('',#1031,#676);
#593=LINE('',#1033,#677);
#594=LINE('',#1035,#678);
#595=LINE('',#1038,#679);
#596=LINE('',#1039,#680);
#597=LINE('',#1041,#681);
#598=LINE('',#1043,#682);
#599=LINE('',#1045,#683);
#600=LINE('',#1047,#684);
#601=LINE('',#1049,#685);
#602=LINE('',#1052,#686);
#603=LINE('',#1055,#687);
#604=LINE('',#1057,#688);
#605=LINE('',#1059,#689);
#606=LINE('',#1061,#690);
#607=LINE('',#1064,#691);
#608=LINE('',#1065,#692);
#609=LINE('',#1067,#693);
#610=LINE('',#1069,#694);
#611=LINE('',#1071,#695);
#612=LINE('',#1073,#696);
#613=LINE('',#1075,#697);
#614=VECTOR('',#739,1.);
#615=VECTOR('',#740,1.);
#616=VECTOR('',#741,1.);
#617=VECTOR('',#742,1.);
#618=VECTOR('',#745,1.);
#619=VECTOR('',#746,1.);
#620=VECTOR('',#747,1.);
#621=VECTOR('',#748,1.);
#622=VECTOR('',#751,1.);
#623=VECTOR('',#752,1.);
#624=VECTOR('',#753,1.);
#625=VECTOR('',#756,1.);
#626=VECTOR('',#757,1.);
#627=VECTOR('',#758,1.);
#628=VECTOR('',#759,1.);
#629=VECTOR('',#762,1.);
#630=VECTOR('',#763,1.);
#631=VECTOR('',#766,1.);
#632=VECTOR('',#767,1.);
#633=VECTOR('',#768,1.);
#634=VECTOR('',#771,1.);
#635=VECTOR('',#772,1.);
#636=VECTOR('',#773,1.);
#637=VECTOR('',#774,1.);
#638=VECTOR('',#775,1.);
#639=VECTOR('',#776,1.);
#640=VECTOR('',#779,1.);
#641=VECTOR('',#780,1.);
#642=VECTOR('',#781,1.);
#643=VECTOR('',#782,1.);
#644=VECTOR('',#783,1.);
#645=VECTOR('',#784,1.);
#646=VECTOR('',#787,1.);
#647=VECTOR('',#790,1.);
#648=VECTOR('',#795,1.);
#649=VECTOR('',#798,1.);
#650=VECTOR('',#803,1.);
#651=VECTOR('',#804,1.);
#652=VECTOR('',#805,1.);
#653=VECTOR('',#806,1.);
#654=VECTOR('',#809,1.);
#655=VECTOR('',#810,1.);
#656=VECTOR('',#811,1.);
#657=VECTOR('',#814,1.);
#658=VECTOR('',#815,1.);
#659=VECTOR('',#816,1.);
#660=VECTOR('',#819,1.);
#661=VECTOR('',#822,1.);
#662=VECTOR('',#827,1.);
#663=VECTOR('',#828,1.);
#664=VECTOR('',#829,1.);
#665=VECTOR('',#830,1.);
#666=VECTOR('',#833,1.);
#667=VECTOR('',#834,1.);
#668=VECTOR('',#835,1.);
#669=VECTOR('',#836,1.);
#670=VECTOR('',#839,1.);
#671=VECTOR('',#840,1.);
#672=VECTOR('',#843,1.);
#673=VECTOR('',#846,1.);
#674=VECTOR('',#851,1.);
#675=VECTOR('',#852,1.);
#676=VECTOR('',#853,1.);
#677=VECTOR('',#854,1.);
#678=VECTOR('',#857,1.);
#679=VECTOR('',#858,1.);
#680=VECTOR('',#859,1.);
#681=VECTOR('',#862,1.);
#682=VECTOR('',#863,1.);
#683=VECTOR('',#864,1.);
#684=VECTOR('',#867,1.);
#685=VECTOR('',#870,1.);
#686=VECTOR('',#875,1.);
#687=VECTOR('',#876,1.);
#688=VECTOR('',#877,1.);
#689=VECTOR('',#878,1.);
#690=VECTOR('',#881,1.);
#691=VECTOR('',#882,1.);
#692=VECTOR('',#883,1.);
#693=VECTOR('',#886,1.);
#694=VECTOR('',#887,1.);
#695=VECTOR('',#888,1.);
#696=VECTOR('',#891,1.);
#697=VECTOR('',#894,1.);
#698=AXIS2_PLACEMENT_3D('',#899,#737,#738);
#699=AXIS2_PLACEMENT_3D('',#908,#743,#744);
#700=AXIS2_PLACEMENT_3D('',#917,#749,#750);
#701=AXIS2_PLACEMENT_3D('',#923,#754,#755);
#702=AXIS2_PLACEMENT_3D('',#932,#760,#761);
#703=AXIS2_PLACEMENT_3D('',#935,#764,#765);
#704=AXIS2_PLACEMENT_3D('',#941,#769,#770);
#705=AXIS2_PLACEMENT_3D('',#952,#777,#778);
#706=AXIS2_PLACEMENT_3D('',#963,#785,#786);
#707=AXIS2_PLACEMENT_3D('',#965,#788,#789);
#708=AXIS2_PLACEMENT_3D('',#967,#791,#792);
#709=AXIS2_PLACEMENT_3D('',#968,#793,#794);
#710=AXIS2_PLACEMENT_3D('',#970,#796,#797);
#711=AXIS2_PLACEMENT_3D('',#972,#799,#800);
#712=AXIS2_PLACEMENT_3D('',#973,#801,#802);
#713=AXIS2_PLACEMENT_3D('',#982,#807,#808);
#714=AXIS2_PLACEMENT_3D('',#988,#812,#813);
#715=AXIS2_PLACEMENT_3D('',#994,#817,#818);
#716=AXIS2_PLACEMENT_3D('',#996,#820,#821);
#717=AXIS2_PLACEMENT_3D('',#998,#823,#824);
#718=AXIS2_PLACEMENT_3D('',#999,#825,#826);
#719=AXIS2_PLACEMENT_3D('',#1008,#831,#832);
#720=AXIS2_PLACEMENT_3D('',#1017,#837,#838);
#721=AXIS2_PLACEMENT_3D('',#1020,#841,#842);
#722=AXIS2_PLACEMENT_3D('',#1022,#844,#845);
#723=AXIS2_PLACEMENT_3D('',#1024,#847,#848);
#724=AXIS2_PLACEMENT_3D('',#1025,#849,#850);
#725=AXIS2_PLACEMENT_3D('',#1034,#855,#856);
#726=AXIS2_PLACEMENT_3D('',#1040,#860,#861);
#727=AXIS2_PLACEMENT_3D('',#1046,#865,#866);
#728=AXIS2_PLACEMENT_3D('',#1048,#868,#869);
#729=AXIS2_PLACEMENT_3D('',#1050,#871,#872);
#730=AXIS2_PLACEMENT_3D('',#1051,#873,#874);
#731=AXIS2_PLACEMENT_3D('',#1060,#879,#880);
#732=AXIS2_PLACEMENT_3D('',#1066,#884,#885);
#733=AXIS2_PLACEMENT_3D('',#1072,#889,#890);
#734=AXIS2_PLACEMENT_3D('',#1074,#892,#893);
#735=AXIS2_PLACEMENT_3D('',#1076,#895,#896);
#736=AXIS2_PLACEMENT_3D('',#1077,#897,#898);
#737=DIRECTION('',(0.,0.,1.));
#738=DIRECTION('',(1.,0.,0.));
#739=DIRECTION('',(0.,0.,1.));
#740=DIRECTION('',(-1.,-4.1633363423443E-15,0.));
#741=DIRECTION('',(0.,0.,1.));
#742=DIRECTION('',(-1.,1.38777878078144E-15,0.));
#743=DIRECTION('',(1.38777878078144E-15,1.,0.));
#744=DIRECTION('',(-1.,1.38777878078145E-15,0.));
#745=DIRECTION('',(0.,0.,1.));
#746=DIRECTION('',(1.,4.1633363423443E-15,0.));
#747=DIRECTION('',(0.,0.,1.));
#748=DIRECTION('',(1.,-4.1633363423443E-15,0.));
#749=DIRECTION('',(-4.1633363423443E-15,-1.,0.));
#750=DIRECTION('',(1.,-4.16333634234434E-15,0.));
#751=DIRECTION('',(0.,-1.,0.));
#752=DIRECTION('',(0.,-1.,0.));
#753=DIRECTION('',(0.,0.,1.));
#754=DIRECTION('',(-1.,0.,0.));
#755=DIRECTION('',(0.,0.,1.));
#756=DIRECTION('',(-1.,-4.1633363423443E-15,0.));
#757=DIRECTION('',(0.,0.,1.));
#758=DIRECTION('',(-1.,1.38777878078144E-15,0.));
#759=DIRECTION('',(0.,0.,1.));
#760=DIRECTION('',(1.38777878078144E-15,1.,0.));
#761=DIRECTION('',(-1.,1.38777878078145E-15,0.));
#762=DIRECTION('',(0.,1.,0.));
#763=DIRECTION('',(0.,1.,0.));
#764=DIRECTION('',(1.,0.,0.));
#765=DIRECTION('',(0.,0.,-1.));
#766=DIRECTION('',(1.,4.1633363423443E-15,0.));
#767=DIRECTION('',(0.,0.,1.));
#768=DIRECTION('',(1.,-4.1633363423443E-15,0.));
#769=DIRECTION('',(-4.1633363423443E-15,-1.,0.));
#770=DIRECTION('',(1.,-4.16333634234434E-15,0.));
#771=DIRECTION('',(0.,1.,0.));
#772=DIRECTION('',(1.,0.,0.));
#773=DIRECTION('',(0.,-1.,0.));
#774=DIRECTION('',(0.,-1.,0.));
#775=DIRECTION('',(-1.,0.,0.));
#776=DIRECTION('',(0.,1.,0.));
#777=DIRECTION('',(0.,0.,-1.));
#778=DIRECTION('',(-1.,0.,0.));
#779=DIRECTION('',(0.,1.,0.));
#780=DIRECTION('',(-1.,0.,0.));
#781=DIRECTION('',(0.,-1.,0.));
#782=DIRECTION('',(0.,-1.,0.));
#783=DIRECTION('',(1.,0.,0.));
#784=DIRECTION('',(0.,1.,0.));
#785=DIRECTION('',(0.,0.,-1.));
#786=DIRECTION('',(-1.,0.,0.));
#787=DIRECTION('',(0.,0.,1.));
#788=DIRECTION('',(-1.,0.,0.));
#789=DIRECTION('',(0.,0.,1.));
#790=DIRECTION('',(0.,0.,1.));
#791=DIRECTION('',(1.,0.,0.));
#792=DIRECTION('',(0.,0.,-1.));
#793=DIRECTION('',(0.,1.,0.));
#794=DIRECTION('',(0.,0.,1.));
#795=DIRECTION('',(0.,0.,1.));
#796=DIRECTION('',(-1.,0.,0.));
#797=DIRECTION('',(0.,0.,1.));
#798=DIRECTION('',(0.,0.,1.));
#799=DIRECTION('',(0.,-1.,0.));
#800=DIRECTION('',(0.,0.,-1.));
#801=DIRECTION('',(1.,0.,0.));
#802=DIRECTION('',(0.,0.,-1.));
#803=DIRECTION('',(1.,0.,0.));
#804=DIRECTION('',(0.,0.,-1.));
#805=DIRECTION('',(1.,0.,0.));
#806=DIRECTION('',(0.,0.,-1.));
#807=DIRECTION('',(0.,1.,0.));
#808=DIRECTION('',(0.,0.,1.));
#809=DIRECTION('',(1.,0.,0.));
#810=DIRECTION('',(-5.55111512312572E-15,-1.,0.));
#811=DIRECTION('',(-9.71445146547003E-15,1.,0.));
#812=DIRECTION('',(0.,0.,1.));
#813=DIRECTION('',(1.,0.,0.));
#814=DIRECTION('',(-5.55111512312572E-15,-1.,0.));
#815=DIRECTION('',(1.,0.,0.));
#816=DIRECTION('',(-9.71445146547003E-15,1.,0.));
#817=DIRECTION('',(0.,0.,1.));
#818=DIRECTION('',(1.,0.,0.));
#819=DIRECTION('',(0.,0.,-1.));
#820=DIRECTION('',(-1.,-9.71445146547003E-15,0.));
#821=DIRECTION('',(9.71445146547012E-15,-1.,0.));
#822=DIRECTION('',(0.,0.,-1.));
#823=DIRECTION('',(1.,-5.55111512312572E-15,0.));
#824=DIRECTION('',(5.55111512312578E-15,1.,0.));
#825=DIRECTION('',(0.,1.,0.));
#826=DIRECTION('',(0.,0.,1.));
#827=DIRECTION('',(0.,-1.,0.));
#828=DIRECTION('',(-1.,-4.1633363423443E-15,0.));
#829=DIRECTION('',(0.,-1.,0.));
#830=DIRECTION('',(1.,-1.38777878078144E-15,0.));
#831=DIRECTION('',(0.,0.,1.));
#832=DIRECTION('',(1.,0.,0.));
#833=DIRECTION('',(-1.,-4.1633363423443E-15,0.));
#834=DIRECTION('',(0.,-1.,0.));
#835=DIRECTION('',(1.,-1.38777878078144E-15,0.));
#836=DIRECTION('',(0.,-1.,0.));
#837=DIRECTION('',(0.,0.,1.));
#838=DIRECTION('',(1.,0.,0.));
#839=DIRECTION('',(0.,0.,-1.));
#840=DIRECTION('',(0.,0.,-1.));
#841=DIRECTION('',(1.,0.,0.));
#842=DIRECTION('',(0.,0.,-1.));
#843=DIRECTION('',(0.,0.,-1.));
#844=DIRECTION('',(1.38777878078144E-15,1.,0.));
#845=DIRECTION('',(-1.,1.38777878078145E-15,0.));
#846=DIRECTION('',(0.,0.,-1.));
#847=DIRECTION('',(4.1633363423443E-15,-1.,0.));
#848=DIRECTION('',(1.,4.16333634234434E-15,0.));
#849=DIRECTION('',(1.,0.,0.));
#850=DIRECTION('',(0.,0.,-1.));
#851=DIRECTION('',(-1.,0.,0.));
#852=DIRECTION('',(0.,0.,-1.));
#853=DIRECTION('',(-1.,0.,0.));
#854=DIRECTION('',(0.,0.,-1.));
#855=DIRECTION('',(0.,-1.,0.));
#856=DIRECTION('',(0.,0.,-1.));
#857=DIRECTION('',(-1.,0.,0.));
#858=DIRECTION('',(6.93889390390716E-15,1.,0.));
#859=DIRECTION('',(6.93889390390716E-15,-1.,0.));
#860=DIRECTION('',(0.,0.,1.));
#861=DIRECTION('',(1.,0.,0.));
#862=DIRECTION('',(6.93889390390716E-15,1.,0.));
#863=DIRECTION('',(-1.,0.,0.));
#864=DIRECTION('',(6.93889390390716E-15,-1.,0.));
#865=DIRECTION('',(0.,0.,1.));
#866=DIRECTION('',(1.,0.,0.));
#867=DIRECTION('',(0.,0.,-1.));
#868=DIRECTION('',(1.,6.93889390390717E-15,0.));
#869=DIRECTION('',(-6.93889390390723E-15,1.,0.));
#870=DIRECTION('',(0.,0.,-1.));
#871=DIRECTION('',(-1.,6.93889390390717E-15,0.));
#872=DIRECTION('',(-6.93889390390723E-15,-1.,0.));
#873=DIRECTION('',(0.,-1.,0.));
#874=DIRECTION('',(0.,0.,-1.));
#875=DIRECTION('',(0.,1.,0.));
#876=DIRECTION('',(0.,0.,-1.));
#877=DIRECTION('',(0.,1.,0.));
#878=DIRECTION('',(0.,0.,-1.));
#879=DIRECTION('',(-1.,0.,0.));
#880=DIRECTION('',(0.,0.,1.));
#881=DIRECTION('',(-6.16790569236198E-17,1.,0.));
#882=DIRECTION('',(1.,4.1633363423443E-15,0.));
#883=DIRECTION('',(-1.,4.1633363423443E-15,0.));
#884=DIRECTION('',(0.,0.,1.));
#885=DIRECTION('',(1.,0.,0.));
#886=DIRECTION('',(1.,4.1633363423443E-15,0.));
#887=DIRECTION('',(-6.16790569236198E-17,1.,0.));
#888=DIRECTION('',(-1.,4.1633363423443E-15,0.));
#889=DIRECTION('',(0.,0.,1.));
#890=DIRECTION('',(1.,0.,0.));
#891=DIRECTION('',(0.,0.,-1.));
#892=DIRECTION('',(-4.1633363423443E-15,-1.,0.));
#893=DIRECTION('',(1.,-4.16333634234434E-15,0.));
#894=DIRECTION('',(0.,0.,-1.));
#895=DIRECTION('',(-4.1633363423443E-15,1.,0.));
#896=DIRECTION('',(-1.,-4.16333634234434E-15,0.));
#897=DIRECTION('',(-1.,-6.16790569236198E-17,0.));
#898=DIRECTION('',(5.55111512312578E-17,-1.,0.));
#899=CARTESIAN_POINT('',(0.,0.,0.));
#900=CARTESIAN_POINT('',(225.,-225.,-20.));
#901=CARTESIAN_POINT('',(225.,-225.,-20.));
#902=CARTESIAN_POINT('',(225.,-225.,0.));
#903=CARTESIAN_POINT('',(245.,-225.,-20.));
#904=CARTESIAN_POINT('',(245.,-225.,-20.));
#905=CARTESIAN_POINT('',(245.,-225.,-20.));
#906=CARTESIAN_POINT('',(245.,-225.,0.));
#907=CARTESIAN_POINT('',(-225.,-225.,0.));
#908=CARTESIAN_POINT('',(-225.,-225.,-20.));
#909=CARTESIAN_POINT('',(-225.,225.,-20.));
#910=CARTESIAN_POINT('',(-225.,225.,-20.));
#911=CARTESIAN_POINT('',(-225.,225.,0.));
#912=CARTESIAN_POINT('',(-245.,225.,-20.));
#913=CARTESIAN_POINT('',(-245.,225.,-20.));
#914=CARTESIAN_POINT('',(-245.,225.,-20.));
#915=CARTESIAN_POINT('',(-245.,225.,0.));
#916=CARTESIAN_POINT('',(225.,225.,0.));
#917=CARTESIAN_POINT('',(225.,225.,-20.));
#918=CARTESIAN_POINT('',(245.,225.,0.));
#919=CARTESIAN_POINT('',(245.,225.,0.));
#920=CARTESIAN_POINT('',(245.,225.,-20.));
#921=CARTESIAN_POINT('',(245.,225.,-20.));
#922=CARTESIAN_POINT('',(245.,225.,-20.));
#923=CARTESIAN_POINT('',(245.,225.,-20.));
#924=CARTESIAN_POINT('',(245.,-225.,-20.));
#925=CARTESIAN_POINT('',(-225.,-225.,-20.));
#926=CARTESIAN_POINT('',(-245.,-225.,-20.));
#927=CARTESIAN_POINT('',(-225.,-225.,-20.));
#928=CARTESIAN_POINT('',(-225.,-225.,0.));
#929=CARTESIAN_POINT('',(-225.,-225.,0.));
#930=CARTESIAN_POINT('',(-245.,-225.,0.));
#931=CARTESIAN_POINT('',(-245.,-225.,-20.));
#932=CARTESIAN_POINT('',(-225.,-225.,-20.));
#933=CARTESIAN_POINT('',(-245.,-225.,0.));
#934=CARTESIAN_POINT('',(-245.,-225.,-20.));
#935=CARTESIAN_POINT('',(-245.,-225.,-20.));
#936=CARTESIAN_POINT('',(-245.,225.,-20.));
#937=CARTESIAN_POINT('',(225.,225.,-20.));
#938=CARTESIAN_POINT('',(225.,225.,-20.));
#939=CARTESIAN_POINT('',(225.,225.,0.));
#940=CARTESIAN_POINT('',(225.,225.,0.));
#941=CARTESIAN_POINT('',(225.,225.,-20.));
#942=CARTESIAN_POINT('',(225.,-245.,-20.));
#943=CARTESIAN_POINT('',(225.,-245.,-20.));
#944=CARTESIAN_POINT('',(-225.,-245.,-20.));
#945=CARTESIAN_POINT('',(-225.,-245.,-20.));
#946=CARTESIAN_POINT('',(-225.,-225.,-20.));
#947=CARTESIAN_POINT('',(-225.,245.,-20.));
#948=CARTESIAN_POINT('',(-225.,245.,-20.));
#949=CARTESIAN_POINT('',(225.,245.,-20.));
#950=CARTESIAN_POINT('',(225.,245.,-20.));
#951=CARTESIAN_POINT('',(225.,225.,-20.));
#952=CARTESIAN_POINT('',(0.,0.,-20.));
#953=CARTESIAN_POINT('',(225.,225.,0.));
#954=CARTESIAN_POINT('',(225.,245.,0.));
#955=CARTESIAN_POINT('',(225.,245.,0.));
#956=CARTESIAN_POINT('',(-225.,245.,0.));
#957=CARTESIAN_POINT('',(-225.,245.,0.));
#958=CARTESIAN_POINT('',(-225.,-225.,0.));
#959=CARTESIAN_POINT('',(-225.,-245.,0.));
#960=CARTESIAN_POINT('',(-225.,-245.,0.));
#961=CARTESIAN_POINT('',(225.,-245.,0.));
#962=CARTESIAN_POINT('',(225.,-245.,0.));
#963=CARTESIAN_POINT('',(0.,0.,0.));
#964=CARTESIAN_POINT('',(-225.,245.,-20.));
#965=CARTESIAN_POINT('',(-225.,245.,-20.));
#966=CARTESIAN_POINT('',(225.,245.,-20.));
#967=CARTESIAN_POINT('',(225.,225.,-20.));
#968=CARTESIAN_POINT('',(225.,245.,-20.));
#969=CARTESIAN_POINT('',(-225.,-245.,-20.));
#970=CARTESIAN_POINT('',(-225.,-225.,-20.));
#971=CARTESIAN_POINT('',(225.,-245.,-20.));
#972=CARTESIAN_POINT('',(-225.,-245.,-20.));
#973=CARTESIAN_POINT('',(225.,-245.,-20.));
#974=CARTESIAN_POINT('',(-225.,-245.,0.));
#975=CARTESIAN_POINT('',(-225.,-245.,0.));
#976=CARTESIAN_POINT('',(225.,-245.,0.));
#977=CARTESIAN_POINT('',(225.,-245.,400.));
#978=CARTESIAN_POINT('',(225.,-245.,400.));
#979=CARTESIAN_POINT('',(-225.,-245.,400.));
#980=CARTESIAN_POINT('',(-225.,-245.,400.));
#981=CARTESIAN_POINT('',(-225.,-245.,400.));
#982=CARTESIAN_POINT('',(-225.,-245.,400.));
#983=CARTESIAN_POINT('',(-225.,-225.,400.));
#984=CARTESIAN_POINT('',(-225.,-225.,400.));
#985=CARTESIAN_POINT('',(225.,-225.,400.));
#986=CARTESIAN_POINT('',(-225.,-225.,400.));
#987=CARTESIAN_POINT('',(225.,-245.,400.));
#988=CARTESIAN_POINT('',(0.,0.,400.));
#989=CARTESIAN_POINT('',(-225.,-225.,0.));
#990=CARTESIAN_POINT('',(-225.,-225.,0.));
#991=CARTESIAN_POINT('',(-225.,-225.,0.));
#992=CARTESIAN_POINT('',(225.,-225.,0.));
#993=CARTESIAN_POINT('',(225.,-245.,0.));
#994=CARTESIAN_POINT('',(0.,0.,0.));
#995=CARTESIAN_POINT('',(225.,-225.,400.));
#996=CARTESIAN_POINT('',(225.,-245.,400.));
#997=CARTESIAN_POINT('',(-225.,-225.,400.));
#998=CARTESIAN_POINT('',(-225.,-225.,400.));
#999=CARTESIAN_POINT('',(-225.,-225.,400.));
#1000=CARTESIAN_POINT('',(-225.,225.,400.));
#1001=CARTESIAN_POINT('',(-225.,225.,400.));
#1002=CARTESIAN_POINT('',(-225.,-225.,400.));
#1003=CARTESIAN_POINT('',(-225.,225.,400.));
#1004=CARTESIAN_POINT('',(-245.,225.,400.));
#1005=CARTESIAN_POINT('',(-245.,225.,400.));
#1006=CARTESIAN_POINT('',(-245.,-225.,400.));
#1007=CARTESIAN_POINT('',(-245.,-225.,400.));
#1008=CARTESIAN_POINT('',(0.,0.,400.));
#1009=CARTESIAN_POINT('',(-225.,225.,0.));
#1010=CARTESIAN_POINT('',(-225.,225.,0.));
#1011=CARTESIAN_POINT('',(-245.,225.,0.));
#1012=CARTESIAN_POINT('',(-225.,225.,0.));
#1013=CARTESIAN_POINT('',(-225.,-225.,0.));
#1014=CARTESIAN_POINT('',(-245.,-225.,0.));
#1015=CARTESIAN_POINT('',(-245.,-225.,0.));
#1016=CARTESIAN_POINT('',(-245.,225.,0.));
#1017=CARTESIAN_POINT('',(0.,0.,0.));
#1018=CARTESIAN_POINT('',(-245.,-225.,400.));
#1019=CARTESIAN_POINT('',(-245.,225.,400.));
#1020=CARTESIAN_POINT('',(-245.,225.,400.));
#1021=CARTESIAN_POINT('',(-225.,-225.,400.));
#1022=CARTESIAN_POINT('',(-245.,-225.,400.));
#1023=CARTESIAN_POINT('',(-225.,225.,400.));
#1024=CARTESIAN_POINT('',(-225.,225.,400.));
#1025=CARTESIAN_POINT('',(-225.,225.,400.));
#1026=CARTESIAN_POINT('',(225.,245.,0.));
#1027=CARTESIAN_POINT('',(225.,245.,0.));
#1028=CARTESIAN_POINT('',(-225.,245.,0.));
#1029=CARTESIAN_POINT('',(-225.,245.,400.));
#1030=CARTESIAN_POINT('',(-225.,245.,400.));
#1031=CARTESIAN_POINT('',(225.,245.,400.));
#1032=CARTESIAN_POINT('',(225.,245.,400.));
#1033=CARTESIAN_POINT('',(225.,245.,400.));
#1034=CARTESIAN_POINT('',(225.,245.,400.));
#1035=CARTESIAN_POINT('',(225.,225.,400.));
#1036=CARTESIAN_POINT('',(225.,225.,400.));
#1037=CARTESIAN_POINT('',(-225.,225.,400.));
#1038=CARTESIAN_POINT('',(225.,225.,400.));
#1039=CARTESIAN_POINT('',(-225.,245.,400.));
#1040=CARTESIAN_POINT('',(0.,0.,400.));
#1041=CARTESIAN_POINT('',(225.,225.,0.));
#1042=CARTESIAN_POINT('',(225.,225.,0.));
#1043=CARTESIAN_POINT('',(225.,225.,0.));
#1044=CARTESIAN_POINT('',(-225.,225.,0.));
#1045=CARTESIAN_POINT('',(-225.,245.,0.));
#1046=CARTESIAN_POINT('',(0.,0.,0.));
#1047=CARTESIAN_POINT('',(-225.,225.,400.));
#1048=CARTESIAN_POINT('',(-225.,245.,400.));
#1049=CARTESIAN_POINT('',(225.,225.,400.));
#1050=CARTESIAN_POINT('',(225.,225.,400.));
#1051=CARTESIAN_POINT('',(225.,225.,400.));
#1052=CARTESIAN_POINT('',(245.,-225.,0.));
#1053=CARTESIAN_POINT('',(245.,-225.,0.));
#1054=CARTESIAN_POINT('',(245.,225.,0.));
#1055=CARTESIAN_POINT('',(245.,225.,400.));
#1056=CARTESIAN_POINT('',(245.,225.,400.));
#1057=CARTESIAN_POINT('',(245.,-225.,400.));
#1058=CARTESIAN_POINT('',(245.,-225.,400.));
#1059=CARTESIAN_POINT('',(245.,-225.,400.));
#1060=CARTESIAN_POINT('',(245.,-225.,400.));
#1061=CARTESIAN_POINT('',(225.,-225.,400.));
#1062=CARTESIAN_POINT('',(225.,-225.,400.));
#1063=CARTESIAN_POINT('',(225.,225.,400.));
#1064=CARTESIAN_POINT('',(225.,-225.,400.));
#1065=CARTESIAN_POINT('',(245.,225.,400.));
#1066=CARTESIAN_POINT('',(0.,0.,400.));
#1067=CARTESIAN_POINT('',(225.,-225.,0.));
#1068=CARTESIAN_POINT('',(225.,-225.,0.));
#1069=CARTESIAN_POINT('',(225.,-225.,0.));
#1070=CARTESIAN_POINT('',(225.,225.,0.));
#1071=CARTESIAN_POINT('',(245.,225.,0.));
#1072=CARTESIAN_POINT('',(0.,0.,0.));
#1073=CARTESIAN_POINT('',(225.,225.,400.));
#1074=CARTESIAN_POINT('',(245.,225.,400.));
#1075=CARTESIAN_POINT('',(225.,-225.,400.));
#1076=CARTESIAN_POINT('',(225.,-225.,400.));
#1077=CARTESIAN_POINT('',(225.,-225.,400.));
#1078=MECHANICAL_DESIGN_GEOMETRIC_PRESENTATION_REPRESENTATION('',(#24,#25,
#26,#27,#28),#1079);
#1079=(
GEOMETRIC_REPRESENTATION_CONTEXT(3)
GLOBAL_UNCERTAINTY_ASSIGNED_CONTEXT((#1080))
GLOBAL_UNIT_ASSIGNED_CONTEXT((#1086,#1082,#1081))
REPRESENTATION_CONTEXT('S_SF_M_01_basin','TOP_LEVEL_ASSEMBLY_PART')
);
#1080=UNCERTAINTY_MEASURE_WITH_UNIT(LENGTH_MEASURE(2.E-5),#1086,
'DISTANCE_ACCURACY_VALUE','Maximum Tolerance applied to model');
#1081=(
NAMED_UNIT(*)
SI_UNIT($,.STERADIAN.)
SOLID_ANGLE_UNIT()
);
#1082=(
CONVERSION_BASED_UNIT('DEGREE',#1084)
NAMED_UNIT(#1083)
PLANE_ANGLE_UNIT()
);
#1083=DIMENSIONAL_EXPONENTS(0.,0.,0.,0.,0.,0.,0.);
#1084=PLANE_ANGLE_MEASURE_WITH_UNIT(PLANE_ANGLE_MEASURE(0.0174532925),#1085);
#1085=(
NAMED_UNIT(*)
PLANE_ANGLE_UNIT()
SI_UNIT($,.RADIAN.)
);
#1086=(
LENGTH_UNIT()
NAMED_UNIT(*)
SI_UNIT(.MILLI.,.METRE.)
);
ENDSEC;
END-ISO-10303-21;
