ISO-10303-21;
HEADER;
/* Generated by software containing ST-Developer
 * from STEP Tools, Inc. (www.steptools.com) 
 */
/* OPTION: using custom schema-name function */

FILE_DESCRIPTION(
/* description */ (''),
/* implementation_level */ '2;1');

FILE_NAME(
/* name */ 'W_WS_M_02_frame.stp',
/* time_stamp */ '2025-11-20T09:27:42+01:00',
/* author */ (''),
/* organization */ (''),
/* preprocessor_version */ 'ST-DEVELOPER v18.1',
/* originating_system */ 'SIEMENS PLM Software NX 1988',
/* authorisation */ '');

FILE_SCHEMA (('AUTOMOTIVE_DESIGN { 1 0 10303 214 3 1 1 1 }'));
ENDSEC;

DATA;
#10=SHAPE_REPRESENTATION_RELATIONSHIP('None',
'relationship between W_WS_M_02_frame-None and W_WS_M_02_frame-None',#22,
#11);
#11=ADVANCED_BREP_SHAPE_REPRESENTATION('W_WS_M_02_frame-None',(#46,#47,
#48),#1987);
#12=SHAPE_DEFINITION_REPRESENTATION(#13,#22);
#13=PRODUCT_DEFINITION_SHAPE('','',#14);
#14=PRODUCT_DEFINITION(' ','',#16,#15);
#15=PRODUCT_DEFINITION_CONTEXT('part definition',#21,'design');
#16=PRODUCT_DEFINITION_FORMATION_WITH_SPECIFIED_SOURCE(' ',' ',#18,
 .NOT_KNOWN.);
#17=PRODUCT_RELATED_PRODUCT_CATEGORY('part','',(#18));
#18=PRODUCT('W_WS_M_02_frame','W_WS_M_02_frame',' ',(#19));
#19=PRODUCT_CONTEXT(' ',#21,'mechanical');
#20=APPLICATION_PROTOCOL_DEFINITION('international standard',
'automotive_design',2010,#21);
#21=APPLICATION_CONTEXT(
'core data for automotive mechanical design processes');
#22=SHAPE_REPRESENTATION('W_WS_M_02_frame-None',(#1272),#1987);
#23=PRESENTATION_LAYER_ASSIGNMENT('1','Layer 1',(#46,#47,#48));
#24=STYLED_ITEM('',(#27),#46);
#25=STYLED_ITEM('',(#28),#47);
#26=STYLED_ITEM('',(#29),#48);
#27=PRESENTATION_STYLE_ASSIGNMENT((#30));
#28=PRESENTATION_STYLE_ASSIGNMENT((#31));
#29=PRESENTATION_STYLE_ASSIGNMENT((#32));
#30=SURFACE_STYLE_USAGE(.BOTH.,#33);
#31=SURFACE_STYLE_USAGE(.BOTH.,#34);
#32=SURFACE_STYLE_USAGE(.BOTH.,#35);
#33=SURFACE_SIDE_STYLE('',(#36));
#34=SURFACE_SIDE_STYLE('',(#37));
#35=SURFACE_SIDE_STYLE('',(#38));
#36=SURFACE_STYLE_FILL_AREA(#39);
#37=SURFACE_STYLE_FILL_AREA(#40);
#38=SURFACE_STYLE_FILL_AREA(#41);
#39=FILL_AREA_STYLE('',(#42));
#40=FILL_AREA_STYLE('',(#43));
#41=FILL_AREA_STYLE('',(#44));
#42=FILL_AREA_STYLE_COLOUR('',#45);
#43=FILL_AREA_STYLE_COLOUR('',#45);
#44=FILL_AREA_STYLE_COLOUR('',#45);
#45=COLOUR_RGB('medium steel',0.596078431372549,0.666666666666667,0.686274509803922);
#46=MANIFOLD_SOLID_BREP('',#49);
#47=MANIFOLD_SOLID_BREP('',#50);
#48=MANIFOLD_SOLID_BREP('',#51);
#49=CLOSED_SHELL('',(#97,#98,#99,#100,#101,#102,#103,#104,#105,#106,#107,
#108,#109,#110,#111,#112,#113,#114,#115,#116,#117,#118,#119,#120,#121,#122,
#123,#124,#125,#126,#127,#128,#129,#130,#131,#132,#133));
#50=CLOSED_SHELL('',(#134,#135,#136,#137,#138,#139,#140,#141,#142,#143,
#144));
#51=CLOSED_SHELL('',(#145,#146,#147,#148,#149,#150,#151,#152,#153,#154,
#155));
#52=CYLINDRICAL_SURFACE('',#1309,7.5);
#53=CYLINDRICAL_SURFACE('',#1320,22.5);
#54=CYLINDRICAL_SURFACE('',#1326,12.5);
#55=CYLINDRICAL_SURFACE('',#1335,22.5);
#56=CYLINDRICAL_SURFACE('',#1338,12.5);
#57=CIRCLE('',#1305,7.5);
#58=CIRCLE('',#1308,7.5);
#59=CIRCLE('',#1312,12.5);
#60=CIRCLE('',#1313,22.5);
#61=CIRCLE('',#1319,22.5);
#62=CIRCLE('',#1321,12.5);
#63=CIRCLE('',#1327,12.5);
#64=CIRCLE('',#1328,22.5);
#65=CIRCLE('',#1330,12.5);
#66=CIRCLE('',#1331,22.5);
#67=FACE_BOUND('',#259,.T.);
#68=FACE_BOUND('',#260,.T.);
#69=FACE_BOUND('',#262,.T.);
#70=FACE_BOUND('',#263,.T.);
#71=FACE_BOUND('',#264,.T.);
#72=FACE_BOUND('',#265,.T.);
#73=FACE_BOUND('',#267,.T.);
#74=FACE_BOUND('',#268,.T.);
#75=FACE_BOUND('',#271,.T.);
#76=FACE_BOUND('',#272,.T.);
#77=FACE_BOUND('',#289,.T.);
#78=FACE_BOUND('',#290,.T.);
#79=FACE_BOUND('',#292,.T.);
#80=FACE_BOUND('',#293,.T.);
#81=FACE_BOUND('',#295,.T.);
#82=FACE_BOUND('',#296,.T.);
#83=FACE_BOUND('',#298,.T.);
#84=FACE_BOUND('',#299,.T.);
#85=FACE_BOUND('',#300,.T.);
#86=FACE_BOUND('',#301,.T.);
#87=FACE_BOUND('',#307,.T.);
#88=FACE_BOUND('',#308,.T.);
#89=FACE_BOUND('',#312,.T.);
#90=FACE_BOUND('',#313,.T.);
#91=FACE_BOUND('',#314,.T.);
#92=FACE_BOUND('',#315,.T.);
#93=FACE_BOUND('',#316,.T.);
#94=FACE_BOUND('',#317,.T.);
#95=FACE_BOUND('',#323,.T.);
#96=FACE_BOUND('',#324,.T.);
#97=ADVANCED_FACE('',(#210),#156,.T.);
#98=ADVANCED_FACE('',(#211),#157,.T.);
#99=ADVANCED_FACE('',(#212),#158,.T.);
#100=ADVANCED_FACE('',(#213),#159,.T.);
#101=ADVANCED_FACE('',(#214),#160,.T.);
#102=ADVANCED_FACE('',(#67,#68),#161,.F.);
#103=ADVANCED_FACE('',(#215),#162,.F.);
#104=ADVANCED_FACE('',(#69,#70),#163,.F.);
#105=ADVANCED_FACE('',(#71,#72),#164,.T.);
#106=ADVANCED_FACE('',(#216),#165,.T.);
#107=ADVANCED_FACE('',(#73,#74),#166,.T.);
#108=ADVANCED_FACE('',(#217),#167,.T.);
#109=ADVANCED_FACE('',(#218),#168,.F.);
#110=ADVANCED_FACE('',(#75,#76),#169,.F.);
#111=ADVANCED_FACE('',(#219),#170,.T.);
#112=ADVANCED_FACE('',(#220),#171,.F.);
#113=ADVANCED_FACE('',(#221),#172,.F.);
#114=ADVANCED_FACE('',(#222),#173,.F.);
#115=ADVANCED_FACE('',(#223),#174,.F.);
#116=ADVANCED_FACE('',(#224),#175,.F.);
#117=ADVANCED_FACE('',(#225),#176,.F.);
#118=ADVANCED_FACE('',(#226),#177,.F.);
#119=ADVANCED_FACE('',(#227),#178,.F.);
#120=ADVANCED_FACE('',(#228),#179,.F.);
#121=ADVANCED_FACE('',(#229),#180,.F.);
#122=ADVANCED_FACE('',(#230),#181,.F.);
#123=ADVANCED_FACE('',(#231),#182,.T.);
#124=ADVANCED_FACE('',(#232),#183,.F.);
#125=ADVANCED_FACE('',(#233),#184,.F.);
#126=ADVANCED_FACE('',(#234),#185,.T.);
#127=ADVANCED_FACE('',(#77,#78),#186,.T.);
#128=ADVANCED_FACE('',(#235),#187,.F.);
#129=ADVANCED_FACE('',(#79,#80),#188,.T.);
#130=ADVANCED_FACE('',(#236),#189,.F.);
#131=ADVANCED_FACE('',(#81,#82),#52,.F.);
#132=ADVANCED_FACE('',(#237),#190,.F.);
#133=ADVANCED_FACE('',(#83,#84),#191,.F.);
#134=ADVANCED_FACE('',(#85,#86),#192,.T.);
#135=ADVANCED_FACE('',(#238),#193,.T.);
#136=ADVANCED_FACE('',(#239),#194,.T.);
#137=ADVANCED_FACE('',(#240),#195,.T.);
#138=ADVANCED_FACE('',(#241),#196,.T.);
#139=ADVANCED_FACE('',(#242),#53,.T.);
#140=ADVANCED_FACE('',(#87,#88),#197,.F.);
#141=ADVANCED_FACE('',(#243),#198,.T.);
#142=ADVANCED_FACE('',(#244),#199,.T.);
#143=ADVANCED_FACE('',(#245),#200,.T.);
#144=ADVANCED_FACE('',(#89,#90),#54,.F.);
#145=ADVANCED_FACE('',(#91,#92),#201,.F.);
#146=ADVANCED_FACE('',(#93,#94),#202,.T.);
#147=ADVANCED_FACE('',(#246),#203,.T.);
#148=ADVANCED_FACE('',(#247),#204,.T.);
#149=ADVANCED_FACE('',(#248),#55,.T.);
#150=ADVANCED_FACE('',(#249),#205,.T.);
#151=ADVANCED_FACE('',(#250),#206,.T.);
#152=ADVANCED_FACE('',(#95,#96),#56,.F.);
#153=ADVANCED_FACE('',(#251),#207,.T.);
#154=ADVANCED_FACE('',(#252),#208,.T.);
#155=ADVANCED_FACE('',(#253),#209,.T.);
#156=PLANE('',#1273);
#157=PLANE('',#1274);
#158=PLANE('',#1275);
#159=PLANE('',#1276);
#160=PLANE('',#1277);
#161=PLANE('',#1278);
#162=PLANE('',#1279);
#163=PLANE('',#1280);
#164=PLANE('',#1281);
#165=PLANE('',#1282);
#166=PLANE('',#1283);
#167=PLANE('',#1284);
#168=PLANE('',#1285);
#169=PLANE('',#1286);
#170=PLANE('',#1287);
#171=PLANE('',#1288);
#172=PLANE('',#1289);
#173=PLANE('',#1290);
#174=PLANE('',#1291);
#175=PLANE('',#1292);
#176=PLANE('',#1293);
#177=PLANE('',#1294);
#178=PLANE('',#1295);
#179=PLANE('',#1296);
#180=PLANE('',#1297);
#181=PLANE('',#1298);
#182=PLANE('',#1299);
#183=PLANE('',#1300);
#184=PLANE('',#1301);
#185=PLANE('',#1302);
#186=PLANE('',#1303);
#187=PLANE('',#1304);
#188=PLANE('',#1306);
#189=PLANE('',#1307);
#190=PLANE('',#1310);
#191=PLANE('',#1311);
#192=PLANE('',#1314);
#193=PLANE('',#1315);
#194=PLANE('',#1316);
#195=PLANE('',#1317);
#196=PLANE('',#1318);
#197=PLANE('',#1322);
#198=PLANE('',#1323);
#199=PLANE('',#1324);
#200=PLANE('',#1325);
#201=PLANE('',#1329);
#202=PLANE('',#1332);
#203=PLANE('',#1333);
#204=PLANE('',#1334);
#205=PLANE('',#1336);
#206=PLANE('',#1337);
#207=PLANE('',#1339);
#208=PLANE('',#1340);
#209=PLANE('',#1341);
#210=FACE_OUTER_BOUND('',#254,.T.);
#211=FACE_OUTER_BOUND('',#255,.T.);
#212=FACE_OUTER_BOUND('',#256,.T.);
#213=FACE_OUTER_BOUND('',#257,.T.);
#214=FACE_OUTER_BOUND('',#258,.T.);
#215=FACE_OUTER_BOUND('',#261,.T.);
#216=FACE_OUTER_BOUND('',#266,.T.);
#217=FACE_OUTER_BOUND('',#269,.T.);
#218=FACE_OUTER_BOUND('',#270,.T.);
#219=FACE_OUTER_BOUND('',#273,.T.);
#220=FACE_OUTER_BOUND('',#274,.T.);
#221=FACE_OUTER_BOUND('',#275,.T.);
#222=FACE_OUTER_BOUND('',#276,.T.);
#223=FACE_OUTER_BOUND('',#277,.T.);
#224=FACE_OUTER_BOUND('',#278,.T.);
#225=FACE_OUTER_BOUND('',#279,.T.);
#226=FACE_OUTER_BOUND('',#280,.T.);
#227=FACE_OUTER_BOUND('',#281,.T.);
#228=FACE_OUTER_BOUND('',#282,.T.);
#229=FACE_OUTER_BOUND('',#283,.T.);
#230=FACE_OUTER_BOUND('',#284,.T.);
#231=FACE_OUTER_BOUND('',#285,.T.);
#232=FACE_OUTER_BOUND('',#286,.T.);
#233=FACE_OUTER_BOUND('',#287,.T.);
#234=FACE_OUTER_BOUND('',#288,.T.);
#235=FACE_OUTER_BOUND('',#291,.T.);
#236=FACE_OUTER_BOUND('',#294,.T.);
#237=FACE_OUTER_BOUND('',#297,.T.);
#238=FACE_OUTER_BOUND('',#302,.T.);
#239=FACE_OUTER_BOUND('',#303,.T.);
#240=FACE_OUTER_BOUND('',#304,.T.);
#241=FACE_OUTER_BOUND('',#305,.T.);
#242=FACE_OUTER_BOUND('',#306,.T.);
#243=FACE_OUTER_BOUND('',#309,.T.);
#244=FACE_OUTER_BOUND('',#310,.T.);
#245=FACE_OUTER_BOUND('',#311,.T.);
#246=FACE_OUTER_BOUND('',#318,.T.);
#247=FACE_OUTER_BOUND('',#319,.T.);
#248=FACE_OUTER_BOUND('',#320,.T.);
#249=FACE_OUTER_BOUND('',#321,.T.);
#250=FACE_OUTER_BOUND('',#322,.T.);
#251=FACE_OUTER_BOUND('',#325,.T.);
#252=FACE_OUTER_BOUND('',#326,.T.);
#253=FACE_OUTER_BOUND('',#327,.T.);
#254=EDGE_LOOP('',(#328,#329,#330,#331));
#255=EDGE_LOOP('',(#332,#333,#334,#335));
#256=EDGE_LOOP('',(#336,#337,#338,#339,#340,#341,#342,#343));
#257=EDGE_LOOP('',(#344,#345,#346,#347));
#258=EDGE_LOOP('',(#348,#349,#350,#351));
#259=EDGE_LOOP('',(#352,#353,#354,#355));
#260=EDGE_LOOP('',(#356,#357,#358,#359,#360,#361,#362,#363,#364,#365,#366,
#367,#368,#369));
#261=EDGE_LOOP('',(#370,#371,#372,#373));
#262=EDGE_LOOP('',(#374,#375,#376,#377,#378,#379,#380,#381,#382,#383,#384,
#385,#386,#387));
#263=EDGE_LOOP('',(#388,#389,#390,#391));
#264=EDGE_LOOP('',(#392,#393,#394,#395));
#265=EDGE_LOOP('',(#396,#397,#398,#399,#400,#401,#402,#403,#404,#405,#406,
#407,#408,#409,#410,#411));
#266=EDGE_LOOP('',(#412,#413,#414,#415));
#267=EDGE_LOOP('',(#416,#417,#418,#419));
#268=EDGE_LOOP('',(#420,#421,#422,#423,#424,#425,#426,#427,#428,#429,#430,
#431,#432,#433,#434,#435));
#269=EDGE_LOOP('',(#436,#437,#438,#439));
#270=EDGE_LOOP('',(#440,#441,#442,#443));
#271=EDGE_LOOP('',(#444,#445,#446,#447));
#272=EDGE_LOOP('',(#448,#449,#450,#451));
#273=EDGE_LOOP('',(#452,#453,#454,#455,#456,#457,#458,#459));
#274=EDGE_LOOP('',(#460,#461,#462,#463));
#275=EDGE_LOOP('',(#464,#465,#466,#467));
#276=EDGE_LOOP('',(#468,#469,#470,#471));
#277=EDGE_LOOP('',(#472,#473,#474,#475));
#278=EDGE_LOOP('',(#476,#477,#478,#479));
#279=EDGE_LOOP('',(#480,#481,#482,#483));
#280=EDGE_LOOP('',(#484,#485,#486,#487));
#281=EDGE_LOOP('',(#488,#489,#490,#491));
#282=EDGE_LOOP('',(#492,#493,#494,#495));
#283=EDGE_LOOP('',(#496,#497,#498,#499,#500,#501,#502,#503));
#284=EDGE_LOOP('',(#504,#505,#506,#507,#508,#509,#510,#511));
#285=EDGE_LOOP('',(#512,#513,#514,#515));
#286=EDGE_LOOP('',(#516,#517,#518,#519));
#287=EDGE_LOOP('',(#520,#521,#522,#523));
#288=EDGE_LOOP('',(#524,#525,#526,#527));
#289=EDGE_LOOP('',(#528,#529,#530,#531));
#290=EDGE_LOOP('',(#532,#533,#534,#535));
#291=EDGE_LOOP('',(#536,#537,#538,#539));
#292=EDGE_LOOP('',(#540));
#293=EDGE_LOOP('',(#541,#542,#543,#544));
#294=EDGE_LOOP('',(#545,#546,#547,#548,#549,#550));
#295=EDGE_LOOP('',(#551));
#296=EDGE_LOOP('',(#552));
#297=EDGE_LOOP('',(#553,#554,#555,#556,#557,#558));
#298=EDGE_LOOP('',(#559,#560,#561,#562));
#299=EDGE_LOOP('',(#563));
#300=EDGE_LOOP('',(#564));
#301=EDGE_LOOP('',(#565,#566,#567,#568,#569,#570,#571,#572));
#302=EDGE_LOOP('',(#573,#574,#575,#576));
#303=EDGE_LOOP('',(#577,#578,#579,#580));
#304=EDGE_LOOP('',(#581,#582,#583,#584));
#305=EDGE_LOOP('',(#585,#586,#587,#588));
#306=EDGE_LOOP('',(#589,#590,#591,#592));
#307=EDGE_LOOP('',(#593,#594,#595,#596,#597,#598,#599,#600));
#308=EDGE_LOOP('',(#601));
#309=EDGE_LOOP('',(#602,#603,#604,#605));
#310=EDGE_LOOP('',(#606,#607,#608,#609));
#311=EDGE_LOOP('',(#610,#611,#612,#613));
#312=EDGE_LOOP('',(#614));
#313=EDGE_LOOP('',(#615));
#314=EDGE_LOOP('',(#616));
#315=EDGE_LOOP('',(#617,#618,#619,#620,#621,#622,#623,#624));
#316=EDGE_LOOP('',(#625));
#317=EDGE_LOOP('',(#626,#627,#628,#629,#630,#631,#632,#633));
#318=EDGE_LOOP('',(#634,#635,#636,#637));
#319=EDGE_LOOP('',(#638,#639,#640,#641));
#320=EDGE_LOOP('',(#642,#643,#644,#645));
#321=EDGE_LOOP('',(#646,#647,#648,#649));
#322=EDGE_LOOP('',(#650,#651,#652,#653));
#323=EDGE_LOOP('',(#654));
#324=EDGE_LOOP('',(#655));
#325=EDGE_LOOP('',(#656,#657,#658,#659));
#326=EDGE_LOOP('',(#660,#661,#662,#663));
#327=EDGE_LOOP('',(#664,#665,#666,#667));
#328=ORIENTED_EDGE('',*,*,#782,.F.);
#329=ORIENTED_EDGE('',*,*,#783,.F.);
#330=ORIENTED_EDGE('',*,*,#784,.F.);
#331=ORIENTED_EDGE('',*,*,#785,.T.);
#332=ORIENTED_EDGE('',*,*,#786,.F.);
#333=ORIENTED_EDGE('',*,*,#787,.T.);
#334=ORIENTED_EDGE('',*,*,#788,.F.);
#335=ORIENTED_EDGE('',*,*,#789,.F.);
#336=ORIENTED_EDGE('',*,*,#790,.F.);
#337=ORIENTED_EDGE('',*,*,#791,.F.);
#338=ORIENTED_EDGE('',*,*,#792,.F.);
#339=ORIENTED_EDGE('',*,*,#793,.F.);
#340=ORIENTED_EDGE('',*,*,#794,.F.);
#341=ORIENTED_EDGE('',*,*,#795,.T.);
#342=ORIENTED_EDGE('',*,*,#796,.T.);
#343=ORIENTED_EDGE('',*,*,#797,.T.);
#344=ORIENTED_EDGE('',*,*,#798,.F.);
#345=ORIENTED_EDGE('',*,*,#799,.T.);
#346=ORIENTED_EDGE('',*,*,#800,.F.);
#347=ORIENTED_EDGE('',*,*,#801,.F.);
#348=ORIENTED_EDGE('',*,*,#802,.F.);
#349=ORIENTED_EDGE('',*,*,#803,.T.);
#350=ORIENTED_EDGE('',*,*,#804,.F.);
#351=ORIENTED_EDGE('',*,*,#805,.F.);
#352=ORIENTED_EDGE('',*,*,#801,.T.);
#353=ORIENTED_EDGE('',*,*,#806,.T.);
#354=ORIENTED_EDGE('',*,*,#807,.F.);
#355=ORIENTED_EDGE('',*,*,#808,.F.);
#356=ORIENTED_EDGE('',*,*,#809,.T.);
#357=ORIENTED_EDGE('',*,*,#791,.T.);
#358=ORIENTED_EDGE('',*,*,#810,.T.);
#359=ORIENTED_EDGE('',*,*,#811,.F.);
#360=ORIENTED_EDGE('',*,*,#812,.F.);
#361=ORIENTED_EDGE('',*,*,#813,.T.);
#362=ORIENTED_EDGE('',*,*,#814,.T.);
#363=ORIENTED_EDGE('',*,*,#815,.F.);
#364=ORIENTED_EDGE('',*,*,#816,.F.);
#365=ORIENTED_EDGE('',*,*,#783,.T.);
#366=ORIENTED_EDGE('',*,*,#817,.T.);
#367=ORIENTED_EDGE('',*,*,#818,.T.);
#368=ORIENTED_EDGE('',*,*,#819,.F.);
#369=ORIENTED_EDGE('',*,*,#820,.F.);
#370=ORIENTED_EDGE('',*,*,#792,.T.);
#371=ORIENTED_EDGE('',*,*,#809,.F.);
#372=ORIENTED_EDGE('',*,*,#821,.F.);
#373=ORIENTED_EDGE('',*,*,#822,.T.);
#374=ORIENTED_EDGE('',*,*,#823,.T.);
#375=ORIENTED_EDGE('',*,*,#824,.T.);
#376=ORIENTED_EDGE('',*,*,#789,.T.);
#377=ORIENTED_EDGE('',*,*,#825,.T.);
#378=ORIENTED_EDGE('',*,*,#826,.F.);
#379=ORIENTED_EDGE('',*,*,#827,.F.);
#380=ORIENTED_EDGE('',*,*,#828,.T.);
#381=ORIENTED_EDGE('',*,*,#829,.T.);
#382=ORIENTED_EDGE('',*,*,#830,.F.);
#383=ORIENTED_EDGE('',*,*,#831,.F.);
#384=ORIENTED_EDGE('',*,*,#793,.T.);
#385=ORIENTED_EDGE('',*,*,#822,.F.);
#386=ORIENTED_EDGE('',*,*,#832,.F.);
#387=ORIENTED_EDGE('',*,*,#833,.T.);
#388=ORIENTED_EDGE('',*,*,#834,.F.);
#389=ORIENTED_EDGE('',*,*,#805,.T.);
#390=ORIENTED_EDGE('',*,*,#835,.T.);
#391=ORIENTED_EDGE('',*,*,#836,.F.);
#392=ORIENTED_EDGE('',*,*,#799,.F.);
#393=ORIENTED_EDGE('',*,*,#837,.T.);
#394=ORIENTED_EDGE('',*,*,#838,.T.);
#395=ORIENTED_EDGE('',*,*,#839,.F.);
#396=ORIENTED_EDGE('',*,*,#797,.F.);
#397=ORIENTED_EDGE('',*,*,#840,.F.);
#398=ORIENTED_EDGE('',*,*,#841,.T.);
#399=ORIENTED_EDGE('',*,*,#842,.T.);
#400=ORIENTED_EDGE('',*,*,#843,.F.);
#401=ORIENTED_EDGE('',*,*,#844,.F.);
#402=ORIENTED_EDGE('',*,*,#845,.F.);
#403=ORIENTED_EDGE('',*,*,#846,.T.);
#404=ORIENTED_EDGE('',*,*,#785,.F.);
#405=ORIENTED_EDGE('',*,*,#847,.T.);
#406=ORIENTED_EDGE('',*,*,#848,.T.);
#407=ORIENTED_EDGE('',*,*,#849,.F.);
#408=ORIENTED_EDGE('',*,*,#850,.F.);
#409=ORIENTED_EDGE('',*,*,#851,.T.);
#410=ORIENTED_EDGE('',*,*,#852,.T.);
#411=ORIENTED_EDGE('',*,*,#853,.F.);
#412=ORIENTED_EDGE('',*,*,#854,.F.);
#413=ORIENTED_EDGE('',*,*,#842,.F.);
#414=ORIENTED_EDGE('',*,*,#855,.T.);
#415=ORIENTED_EDGE('',*,*,#856,.T.);
#416=ORIENTED_EDGE('',*,*,#803,.F.);
#417=ORIENTED_EDGE('',*,*,#857,.T.);
#418=ORIENTED_EDGE('',*,*,#858,.T.);
#419=ORIENTED_EDGE('',*,*,#859,.F.);
#420=ORIENTED_EDGE('',*,*,#860,.F.);
#421=ORIENTED_EDGE('',*,*,#856,.F.);
#422=ORIENTED_EDGE('',*,*,#861,.T.);
#423=ORIENTED_EDGE('',*,*,#862,.T.);
#424=ORIENTED_EDGE('',*,*,#795,.F.);
#425=ORIENTED_EDGE('',*,*,#863,.T.);
#426=ORIENTED_EDGE('',*,*,#864,.T.);
#427=ORIENTED_EDGE('',*,*,#865,.F.);
#428=ORIENTED_EDGE('',*,*,#866,.F.);
#429=ORIENTED_EDGE('',*,*,#867,.T.);
#430=ORIENTED_EDGE('',*,*,#868,.T.);
#431=ORIENTED_EDGE('',*,*,#869,.F.);
#432=ORIENTED_EDGE('',*,*,#787,.F.);
#433=ORIENTED_EDGE('',*,*,#870,.F.);
#434=ORIENTED_EDGE('',*,*,#871,.F.);
#435=ORIENTED_EDGE('',*,*,#872,.T.);
#436=ORIENTED_EDGE('',*,*,#796,.F.);
#437=ORIENTED_EDGE('',*,*,#862,.F.);
#438=ORIENTED_EDGE('',*,*,#873,.T.);
#439=ORIENTED_EDGE('',*,*,#840,.T.);
#440=ORIENTED_EDGE('',*,*,#874,.F.);
#441=ORIENTED_EDGE('',*,*,#833,.F.);
#442=ORIENTED_EDGE('',*,*,#875,.T.);
#443=ORIENTED_EDGE('',*,*,#819,.T.);
#444=ORIENTED_EDGE('',*,*,#841,.F.);
#445=ORIENTED_EDGE('',*,*,#873,.F.);
#446=ORIENTED_EDGE('',*,*,#861,.F.);
#447=ORIENTED_EDGE('',*,*,#855,.F.);
#448=ORIENTED_EDGE('',*,*,#820,.T.);
#449=ORIENTED_EDGE('',*,*,#875,.F.);
#450=ORIENTED_EDGE('',*,*,#832,.T.);
#451=ORIENTED_EDGE('',*,*,#821,.T.);
#452=ORIENTED_EDGE('',*,*,#876,.F.);
#453=ORIENTED_EDGE('',*,*,#843,.T.);
#454=ORIENTED_EDGE('',*,*,#854,.T.);
#455=ORIENTED_EDGE('',*,*,#860,.T.);
#456=ORIENTED_EDGE('',*,*,#877,.F.);
#457=ORIENTED_EDGE('',*,*,#823,.F.);
#458=ORIENTED_EDGE('',*,*,#874,.T.);
#459=ORIENTED_EDGE('',*,*,#818,.F.);
#460=ORIENTED_EDGE('',*,*,#810,.F.);
#461=ORIENTED_EDGE('',*,*,#790,.T.);
#462=ORIENTED_EDGE('',*,*,#853,.T.);
#463=ORIENTED_EDGE('',*,*,#878,.F.);
#464=ORIENTED_EDGE('',*,*,#837,.F.);
#465=ORIENTED_EDGE('',*,*,#798,.T.);
#466=ORIENTED_EDGE('',*,*,#808,.T.);
#467=ORIENTED_EDGE('',*,*,#879,.F.);
#468=ORIENTED_EDGE('',*,*,#806,.F.);
#469=ORIENTED_EDGE('',*,*,#800,.T.);
#470=ORIENTED_EDGE('',*,*,#839,.T.);
#471=ORIENTED_EDGE('',*,*,#880,.F.);
#472=ORIENTED_EDGE('',*,*,#847,.F.);
#473=ORIENTED_EDGE('',*,*,#784,.T.);
#474=ORIENTED_EDGE('',*,*,#816,.T.);
#475=ORIENTED_EDGE('',*,*,#881,.F.);
#476=ORIENTED_EDGE('',*,*,#857,.F.);
#477=ORIENTED_EDGE('',*,*,#802,.T.);
#478=ORIENTED_EDGE('',*,*,#834,.T.);
#479=ORIENTED_EDGE('',*,*,#882,.F.);
#480=ORIENTED_EDGE('',*,*,#825,.F.);
#481=ORIENTED_EDGE('',*,*,#788,.T.);
#482=ORIENTED_EDGE('',*,*,#869,.T.);
#483=ORIENTED_EDGE('',*,*,#883,.F.);
#484=ORIENTED_EDGE('',*,*,#863,.F.);
#485=ORIENTED_EDGE('',*,*,#794,.T.);
#486=ORIENTED_EDGE('',*,*,#831,.T.);
#487=ORIENTED_EDGE('',*,*,#884,.F.);
#488=ORIENTED_EDGE('',*,*,#835,.F.);
#489=ORIENTED_EDGE('',*,*,#804,.T.);
#490=ORIENTED_EDGE('',*,*,#859,.T.);
#491=ORIENTED_EDGE('',*,*,#885,.F.);
#492=ORIENTED_EDGE('',*,*,#836,.T.);
#493=ORIENTED_EDGE('',*,*,#885,.T.);
#494=ORIENTED_EDGE('',*,*,#858,.F.);
#495=ORIENTED_EDGE('',*,*,#882,.T.);
#496=ORIENTED_EDGE('',*,*,#884,.T.);
#497=ORIENTED_EDGE('',*,*,#830,.T.);
#498=ORIENTED_EDGE('',*,*,#886,.T.);
#499=ORIENTED_EDGE('',*,*,#811,.T.);
#500=ORIENTED_EDGE('',*,*,#878,.T.);
#501=ORIENTED_EDGE('',*,*,#852,.F.);
#502=ORIENTED_EDGE('',*,*,#887,.F.);
#503=ORIENTED_EDGE('',*,*,#864,.F.);
#504=ORIENTED_EDGE('',*,*,#826,.T.);
#505=ORIENTED_EDGE('',*,*,#883,.T.);
#506=ORIENTED_EDGE('',*,*,#868,.F.);
#507=ORIENTED_EDGE('',*,*,#888,.F.);
#508=ORIENTED_EDGE('',*,*,#848,.F.);
#509=ORIENTED_EDGE('',*,*,#881,.T.);
#510=ORIENTED_EDGE('',*,*,#815,.T.);
#511=ORIENTED_EDGE('',*,*,#889,.F.);
#512=ORIENTED_EDGE('',*,*,#886,.F.);
#513=ORIENTED_EDGE('',*,*,#829,.F.);
#514=ORIENTED_EDGE('',*,*,#890,.T.);
#515=ORIENTED_EDGE('',*,*,#812,.T.);
#516=ORIENTED_EDGE('',*,*,#888,.T.);
#517=ORIENTED_EDGE('',*,*,#867,.F.);
#518=ORIENTED_EDGE('',*,*,#891,.F.);
#519=ORIENTED_EDGE('',*,*,#849,.T.);
#520=ORIENTED_EDGE('',*,*,#887,.T.);
#521=ORIENTED_EDGE('',*,*,#851,.F.);
#522=ORIENTED_EDGE('',*,*,#892,.F.);
#523=ORIENTED_EDGE('',*,*,#865,.T.);
#524=ORIENTED_EDGE('',*,*,#889,.T.);
#525=ORIENTED_EDGE('',*,*,#814,.F.);
#526=ORIENTED_EDGE('',*,*,#893,.F.);
#527=ORIENTED_EDGE('',*,*,#827,.T.);
#528=ORIENTED_EDGE('',*,*,#850,.T.);
#529=ORIENTED_EDGE('',*,*,#891,.T.);
#530=ORIENTED_EDGE('',*,*,#866,.T.);
#531=ORIENTED_EDGE('',*,*,#892,.T.);
#532=ORIENTED_EDGE('',*,*,#813,.F.);
#533=ORIENTED_EDGE('',*,*,#890,.F.);
#534=ORIENTED_EDGE('',*,*,#828,.F.);
#535=ORIENTED_EDGE('',*,*,#893,.T.);
#536=ORIENTED_EDGE('',*,*,#807,.T.);
#537=ORIENTED_EDGE('',*,*,#880,.T.);
#538=ORIENTED_EDGE('',*,*,#838,.F.);
#539=ORIENTED_EDGE('',*,*,#879,.T.);
#540=ORIENTED_EDGE('',*,*,#894,.T.);
#541=ORIENTED_EDGE('',*,*,#845,.T.);
#542=ORIENTED_EDGE('',*,*,#895,.T.);
#543=ORIENTED_EDGE('',*,*,#871,.T.);
#544=ORIENTED_EDGE('',*,*,#896,.T.);
#545=ORIENTED_EDGE('',*,*,#895,.F.);
#546=ORIENTED_EDGE('',*,*,#844,.T.);
#547=ORIENTED_EDGE('',*,*,#876,.T.);
#548=ORIENTED_EDGE('',*,*,#897,.T.);
#549=ORIENTED_EDGE('',*,*,#877,.T.);
#550=ORIENTED_EDGE('',*,*,#872,.F.);
#551=ORIENTED_EDGE('',*,*,#898,.T.);
#552=ORIENTED_EDGE('',*,*,#894,.F.);
#553=ORIENTED_EDGE('',*,*,#896,.F.);
#554=ORIENTED_EDGE('',*,*,#870,.T.);
#555=ORIENTED_EDGE('',*,*,#786,.T.);
#556=ORIENTED_EDGE('',*,*,#899,.T.);
#557=ORIENTED_EDGE('',*,*,#782,.T.);
#558=ORIENTED_EDGE('',*,*,#846,.F.);
#559=ORIENTED_EDGE('',*,*,#824,.F.);
#560=ORIENTED_EDGE('',*,*,#897,.F.);
#561=ORIENTED_EDGE('',*,*,#817,.F.);
#562=ORIENTED_EDGE('',*,*,#899,.F.);
#563=ORIENTED_EDGE('',*,*,#898,.F.);
#564=ORIENTED_EDGE('',*,*,#900,.T.);
#565=ORIENTED_EDGE('',*,*,#901,.F.);
#566=ORIENTED_EDGE('',*,*,#902,.F.);
#567=ORIENTED_EDGE('',*,*,#903,.F.);
#568=ORIENTED_EDGE('',*,*,#904,.F.);
#569=ORIENTED_EDGE('',*,*,#905,.F.);
#570=ORIENTED_EDGE('',*,*,#906,.F.);
#571=ORIENTED_EDGE('',*,*,#907,.F.);
#572=ORIENTED_EDGE('',*,*,#908,.F.);
#573=ORIENTED_EDGE('',*,*,#909,.F.);
#574=ORIENTED_EDGE('',*,*,#908,.T.);
#575=ORIENTED_EDGE('',*,*,#910,.T.);
#576=ORIENTED_EDGE('',*,*,#911,.F.);
#577=ORIENTED_EDGE('',*,*,#910,.F.);
#578=ORIENTED_EDGE('',*,*,#907,.T.);
#579=ORIENTED_EDGE('',*,*,#912,.T.);
#580=ORIENTED_EDGE('',*,*,#913,.F.);
#581=ORIENTED_EDGE('',*,*,#912,.F.);
#582=ORIENTED_EDGE('',*,*,#906,.T.);
#583=ORIENTED_EDGE('',*,*,#914,.T.);
#584=ORIENTED_EDGE('',*,*,#915,.F.);
#585=ORIENTED_EDGE('',*,*,#916,.F.);
#586=ORIENTED_EDGE('',*,*,#901,.T.);
#587=ORIENTED_EDGE('',*,*,#909,.T.);
#588=ORIENTED_EDGE('',*,*,#917,.F.);
#589=ORIENTED_EDGE('',*,*,#914,.F.);
#590=ORIENTED_EDGE('',*,*,#905,.T.);
#591=ORIENTED_EDGE('',*,*,#918,.T.);
#592=ORIENTED_EDGE('',*,*,#919,.F.);
#593=ORIENTED_EDGE('',*,*,#920,.T.);
#594=ORIENTED_EDGE('',*,*,#917,.T.);
#595=ORIENTED_EDGE('',*,*,#911,.T.);
#596=ORIENTED_EDGE('',*,*,#913,.T.);
#597=ORIENTED_EDGE('',*,*,#915,.T.);
#598=ORIENTED_EDGE('',*,*,#919,.T.);
#599=ORIENTED_EDGE('',*,*,#921,.T.);
#600=ORIENTED_EDGE('',*,*,#922,.T.);
#601=ORIENTED_EDGE('',*,*,#923,.F.);
#602=ORIENTED_EDGE('',*,*,#924,.F.);
#603=ORIENTED_EDGE('',*,*,#902,.T.);
#604=ORIENTED_EDGE('',*,*,#916,.T.);
#605=ORIENTED_EDGE('',*,*,#920,.F.);
#606=ORIENTED_EDGE('',*,*,#918,.F.);
#607=ORIENTED_EDGE('',*,*,#904,.T.);
#608=ORIENTED_EDGE('',*,*,#925,.T.);
#609=ORIENTED_EDGE('',*,*,#921,.F.);
#610=ORIENTED_EDGE('',*,*,#925,.F.);
#611=ORIENTED_EDGE('',*,*,#903,.T.);
#612=ORIENTED_EDGE('',*,*,#924,.T.);
#613=ORIENTED_EDGE('',*,*,#922,.F.);
#614=ORIENTED_EDGE('',*,*,#923,.T.);
#615=ORIENTED_EDGE('',*,*,#900,.F.);
#616=ORIENTED_EDGE('',*,*,#926,.F.);
#617=ORIENTED_EDGE('',*,*,#927,.T.);
#618=ORIENTED_EDGE('',*,*,#928,.T.);
#619=ORIENTED_EDGE('',*,*,#929,.T.);
#620=ORIENTED_EDGE('',*,*,#930,.T.);
#621=ORIENTED_EDGE('',*,*,#931,.T.);
#622=ORIENTED_EDGE('',*,*,#932,.T.);
#623=ORIENTED_EDGE('',*,*,#933,.T.);
#624=ORIENTED_EDGE('',*,*,#934,.T.);
#625=ORIENTED_EDGE('',*,*,#935,.T.);
#626=ORIENTED_EDGE('',*,*,#936,.F.);
#627=ORIENTED_EDGE('',*,*,#937,.F.);
#628=ORIENTED_EDGE('',*,*,#938,.F.);
#629=ORIENTED_EDGE('',*,*,#939,.F.);
#630=ORIENTED_EDGE('',*,*,#940,.F.);
#631=ORIENTED_EDGE('',*,*,#941,.F.);
#632=ORIENTED_EDGE('',*,*,#942,.F.);
#633=ORIENTED_EDGE('',*,*,#943,.F.);
#634=ORIENTED_EDGE('',*,*,#927,.F.);
#635=ORIENTED_EDGE('',*,*,#944,.T.);
#636=ORIENTED_EDGE('',*,*,#937,.T.);
#637=ORIENTED_EDGE('',*,*,#945,.F.);
#638=ORIENTED_EDGE('',*,*,#934,.F.);
#639=ORIENTED_EDGE('',*,*,#946,.T.);
#640=ORIENTED_EDGE('',*,*,#938,.T.);
#641=ORIENTED_EDGE('',*,*,#944,.F.);
#642=ORIENTED_EDGE('',*,*,#933,.F.);
#643=ORIENTED_EDGE('',*,*,#947,.T.);
#644=ORIENTED_EDGE('',*,*,#939,.T.);
#645=ORIENTED_EDGE('',*,*,#946,.F.);
#646=ORIENTED_EDGE('',*,*,#932,.F.);
#647=ORIENTED_EDGE('',*,*,#948,.T.);
#648=ORIENTED_EDGE('',*,*,#940,.T.);
#649=ORIENTED_EDGE('',*,*,#947,.F.);
#650=ORIENTED_EDGE('',*,*,#931,.F.);
#651=ORIENTED_EDGE('',*,*,#949,.T.);
#652=ORIENTED_EDGE('',*,*,#941,.T.);
#653=ORIENTED_EDGE('',*,*,#948,.F.);
#654=ORIENTED_EDGE('',*,*,#926,.T.);
#655=ORIENTED_EDGE('',*,*,#935,.F.);
#656=ORIENTED_EDGE('',*,*,#930,.F.);
#657=ORIENTED_EDGE('',*,*,#950,.T.);
#658=ORIENTED_EDGE('',*,*,#942,.T.);
#659=ORIENTED_EDGE('',*,*,#949,.F.);
#660=ORIENTED_EDGE('',*,*,#928,.F.);
#661=ORIENTED_EDGE('',*,*,#945,.T.);
#662=ORIENTED_EDGE('',*,*,#936,.T.);
#663=ORIENTED_EDGE('',*,*,#951,.F.);
#664=ORIENTED_EDGE('',*,*,#929,.F.);
#665=ORIENTED_EDGE('',*,*,#951,.T.);
#666=ORIENTED_EDGE('',*,*,#943,.T.);
#667=ORIENTED_EDGE('',*,*,#950,.F.);
#668=VERTEX_POINT('',#1644);
#669=VERTEX_POINT('',#1645);
#670=VERTEX_POINT('',#1647);
#671=VERTEX_POINT('',#1649);
#672=VERTEX_POINT('',#1653);
#673=VERTEX_POINT('',#1654);
#674=VERTEX_POINT('',#1656);
#675=VERTEX_POINT('',#1658);
#676=VERTEX_POINT('',#1662);
#677=VERTEX_POINT('',#1663);
#678=VERTEX_POINT('',#1665);
#679=VERTEX_POINT('',#1667);
#680=VERTEX_POINT('',#1669);
#681=VERTEX_POINT('',#1671);
#682=VERTEX_POINT('',#1673);
#683=VERTEX_POINT('',#1675);
#684=VERTEX_POINT('',#1679);
#685=VERTEX_POINT('',#1680);
#686=VERTEX_POINT('',#1682);
#687=VERTEX_POINT('',#1684);
#688=VERTEX_POINT('',#1688);
#689=VERTEX_POINT('',#1689);
#690=VERTEX_POINT('',#1691);
#691=VERTEX_POINT('',#1693);
#692=VERTEX_POINT('',#1697);
#693=VERTEX_POINT('',#1699);
#694=VERTEX_POINT('',#1702);
#695=VERTEX_POINT('',#1704);
#696=VERTEX_POINT('',#1706);
#697=VERTEX_POINT('',#1708);
#698=VERTEX_POINT('',#1710);
#699=VERTEX_POINT('',#1712);
#700=VERTEX_POINT('',#1714);
#701=VERTEX_POINT('',#1717);
#702=VERTEX_POINT('',#1719);
#703=VERTEX_POINT('',#1721);
#704=VERTEX_POINT('',#1725);
#705=VERTEX_POINT('',#1729);
#706=VERTEX_POINT('',#1730);
#707=VERTEX_POINT('',#1733);
#708=VERTEX_POINT('',#1735);
#709=VERTEX_POINT('',#1737);
#710=VERTEX_POINT('',#1739);
#711=VERTEX_POINT('',#1741);
#712=VERTEX_POINT('',#1743);
#713=VERTEX_POINT('',#1746);
#714=VERTEX_POINT('',#1749);
#715=VERTEX_POINT('',#1751);
#716=VERTEX_POINT('',#1755);
#717=VERTEX_POINT('',#1757);
#718=VERTEX_POINT('',#1760);
#719=VERTEX_POINT('',#1762);
#720=VERTEX_POINT('',#1764);
#721=VERTEX_POINT('',#1766);
#722=VERTEX_POINT('',#1768);
#723=VERTEX_POINT('',#1770);
#724=VERTEX_POINT('',#1773);
#725=VERTEX_POINT('',#1775);
#726=VERTEX_POINT('',#1777);
#727=VERTEX_POINT('',#1779);
#728=VERTEX_POINT('',#1781);
#729=VERTEX_POINT('',#1783);
#730=VERTEX_POINT('',#1787);
#731=VERTEX_POINT('',#1789);
#732=VERTEX_POINT('',#1793);
#733=VERTEX_POINT('',#1795);
#734=VERTEX_POINT('',#1798);
#735=VERTEX_POINT('',#1800);
#736=VERTEX_POINT('',#1803);
#737=VERTEX_POINT('',#1805);
#738=VERTEX_POINT('',#1807);
#739=VERTEX_POINT('',#1809);
#740=VERTEX_POINT('',#1811);
#741=VERTEX_POINT('',#1813);
#742=VERTEX_POINT('',#1816);
#743=VERTEX_POINT('',#1818);
#744=VERTEX_POINT('',#1864);
#745=VERTEX_POINT('',#1871);
#746=VERTEX_POINT('',#1877);
#747=VERTEX_POINT('',#1879);
#748=VERTEX_POINT('',#1880);
#749=VERTEX_POINT('',#1882);
#750=VERTEX_POINT('',#1884);
#751=VERTEX_POINT('',#1886);
#752=VERTEX_POINT('',#1888);
#753=VERTEX_POINT('',#1890);
#754=VERTEX_POINT('',#1892);
#755=VERTEX_POINT('',#1896);
#756=VERTEX_POINT('',#1898);
#757=VERTEX_POINT('',#1902);
#758=VERTEX_POINT('',#1906);
#759=VERTEX_POINT('',#1910);
#760=VERTEX_POINT('',#1914);
#761=VERTEX_POINT('',#1918);
#762=VERTEX_POINT('',#1920);
#763=VERTEX_POINT('',#1923);
#764=VERTEX_POINT('',#1932);
#765=VERTEX_POINT('',#1934);
#766=VERTEX_POINT('',#1935);
#767=VERTEX_POINT('',#1937);
#768=VERTEX_POINT('',#1939);
#769=VERTEX_POINT('',#1941);
#770=VERTEX_POINT('',#1943);
#771=VERTEX_POINT('',#1945);
#772=VERTEX_POINT('',#1947);
#773=VERTEX_POINT('',#1951);
#774=VERTEX_POINT('',#1953);
#775=VERTEX_POINT('',#1954);
#776=VERTEX_POINT('',#1956);
#777=VERTEX_POINT('',#1958);
#778=VERTEX_POINT('',#1960);
#779=VERTEX_POINT('',#1962);
#780=VERTEX_POINT('',#1964);
#781=VERTEX_POINT('',#1966);
#782=EDGE_CURVE('',#668,#669,#952,.T.);
#783=EDGE_CURVE('',#670,#668,#953,.T.);
#784=EDGE_CURVE('',#671,#670,#954,.T.);
#785=EDGE_CURVE('',#671,#669,#955,.T.);
#786=EDGE_CURVE('',#672,#673,#956,.T.);
#787=EDGE_CURVE('',#672,#674,#957,.T.);
#788=EDGE_CURVE('',#675,#674,#958,.T.);
#789=EDGE_CURVE('',#673,#675,#959,.T.);
#790=EDGE_CURVE('',#676,#677,#960,.T.);
#791=EDGE_CURVE('',#678,#676,#961,.T.);
#792=EDGE_CURVE('',#679,#678,#962,.T.);
#793=EDGE_CURVE('',#680,#679,#963,.T.);
#794=EDGE_CURVE('',#681,#680,#964,.T.);
#795=EDGE_CURVE('',#681,#682,#965,.T.);
#796=EDGE_CURVE('',#682,#683,#966,.T.);
#797=EDGE_CURVE('',#683,#677,#967,.T.);
#798=EDGE_CURVE('',#684,#685,#968,.T.);
#799=EDGE_CURVE('',#684,#686,#969,.T.);
#800=EDGE_CURVE('',#687,#686,#970,.T.);
#801=EDGE_CURVE('',#685,#687,#971,.T.);
#802=EDGE_CURVE('',#688,#689,#972,.T.);
#803=EDGE_CURVE('',#688,#690,#973,.T.);
#804=EDGE_CURVE('',#691,#690,#974,.T.);
#805=EDGE_CURVE('',#689,#691,#975,.T.);
#806=EDGE_CURVE('',#687,#692,#976,.T.);
#807=EDGE_CURVE('',#693,#692,#977,.T.);
#808=EDGE_CURVE('',#685,#693,#978,.T.);
#809=EDGE_CURVE('',#694,#678,#979,.T.);
#810=EDGE_CURVE('',#676,#695,#980,.T.);
#811=EDGE_CURVE('',#696,#695,#981,.T.);
#812=EDGE_CURVE('',#697,#696,#982,.T.);
#813=EDGE_CURVE('',#697,#698,#983,.T.);
#814=EDGE_CURVE('',#698,#699,#984,.T.);
#815=EDGE_CURVE('',#700,#699,#985,.T.);
#816=EDGE_CURVE('',#670,#700,#986,.T.);
#817=EDGE_CURVE('',#668,#701,#987,.T.);
#818=EDGE_CURVE('',#701,#702,#988,.T.);
#819=EDGE_CURVE('',#703,#702,#989,.T.);
#820=EDGE_CURVE('',#694,#703,#990,.T.);
#821=EDGE_CURVE('',#704,#694,#991,.T.);
#822=EDGE_CURVE('',#704,#679,#992,.T.);
#823=EDGE_CURVE('',#705,#706,#993,.T.);
#824=EDGE_CURVE('',#706,#673,#994,.T.);
#825=EDGE_CURVE('',#675,#707,#995,.T.);
#826=EDGE_CURVE('',#708,#707,#996,.T.);
#827=EDGE_CURVE('',#709,#708,#997,.T.);
#828=EDGE_CURVE('',#709,#710,#998,.T.);
#829=EDGE_CURVE('',#710,#711,#999,.T.);
#830=EDGE_CURVE('',#712,#711,#1000,.T.);
#831=EDGE_CURVE('',#680,#712,#1001,.T.);
#832=EDGE_CURVE('',#713,#704,#1002,.T.);
#833=EDGE_CURVE('',#713,#705,#1003,.T.);
#834=EDGE_CURVE('',#689,#714,#1004,.T.);
#835=EDGE_CURVE('',#691,#715,#1005,.T.);
#836=EDGE_CURVE('',#714,#715,#1006,.T.);
#837=EDGE_CURVE('',#684,#716,#1007,.T.);
#838=EDGE_CURVE('',#716,#717,#1008,.T.);
#839=EDGE_CURVE('',#686,#717,#1009,.T.);
#840=EDGE_CURVE('',#718,#683,#1010,.T.);
#841=EDGE_CURVE('',#718,#719,#1011,.T.);
#842=EDGE_CURVE('',#719,#720,#1012,.T.);
#843=EDGE_CURVE('',#721,#720,#1013,.T.);
#844=EDGE_CURVE('',#722,#721,#1014,.T.);
#845=EDGE_CURVE('',#723,#722,#1015,.T.);
#846=EDGE_CURVE('',#723,#669,#1016,.T.);
#847=EDGE_CURVE('',#671,#724,#1017,.T.);
#848=EDGE_CURVE('',#724,#725,#1018,.T.);
#849=EDGE_CURVE('',#726,#725,#1019,.T.);
#850=EDGE_CURVE('',#727,#726,#1020,.T.);
#851=EDGE_CURVE('',#727,#728,#1021,.T.);
#852=EDGE_CURVE('',#728,#729,#1022,.T.);
#853=EDGE_CURVE('',#677,#729,#1023,.T.);
#854=EDGE_CURVE('',#720,#730,#1024,.T.);
#855=EDGE_CURVE('',#719,#731,#1025,.T.);
#856=EDGE_CURVE('',#731,#730,#1026,.T.);
#857=EDGE_CURVE('',#688,#732,#1027,.T.);
#858=EDGE_CURVE('',#732,#733,#1028,.T.);
#859=EDGE_CURVE('',#690,#733,#1029,.T.);
#860=EDGE_CURVE('',#730,#734,#1030,.T.);
#861=EDGE_CURVE('',#731,#735,#1031,.T.);
#862=EDGE_CURVE('',#735,#682,#1032,.T.);
#863=EDGE_CURVE('',#681,#736,#1033,.T.);
#864=EDGE_CURVE('',#736,#737,#1034,.T.);
#865=EDGE_CURVE('',#738,#737,#1035,.T.);
#866=EDGE_CURVE('',#739,#738,#1036,.T.);
#867=EDGE_CURVE('',#739,#740,#1037,.T.);
#868=EDGE_CURVE('',#740,#741,#1038,.T.);
#869=EDGE_CURVE('',#674,#741,#1039,.T.);
#870=EDGE_CURVE('',#742,#672,#1040,.T.);
#871=EDGE_CURVE('',#743,#742,#1041,.T.);
#872=EDGE_CURVE('',#743,#734,#1042,.T.);
#873=EDGE_CURVE('',#735,#718,#1043,.T.);
#874=EDGE_CURVE('',#705,#702,#1044,.T.);
#875=EDGE_CURVE('',#713,#703,#1045,.T.);
#876=EDGE_CURVE('',#721,#701,#1046,.T.);
#877=EDGE_CURVE('',#706,#734,#1047,.T.);
#878=EDGE_CURVE('',#695,#729,#1048,.T.);
#879=EDGE_CURVE('',#716,#693,#1049,.T.);
#880=EDGE_CURVE('',#692,#717,#1050,.T.);
#881=EDGE_CURVE('',#724,#700,#1051,.T.);
#882=EDGE_CURVE('',#732,#714,#1052,.T.);
#883=EDGE_CURVE('',#707,#741,#1053,.T.);
#884=EDGE_CURVE('',#736,#712,#1054,.T.);
#885=EDGE_CURVE('',#715,#733,#1055,.T.);
#886=EDGE_CURVE('',#711,#696,#1056,.T.);
#887=EDGE_CURVE('',#737,#728,#1057,.T.);
#888=EDGE_CURVE('',#725,#740,#1058,.T.);
#889=EDGE_CURVE('',#708,#699,#1059,.T.);
#890=EDGE_CURVE('',#710,#697,#1060,.T.);
#891=EDGE_CURVE('',#726,#739,#1061,.T.);
#892=EDGE_CURVE('',#738,#727,#1062,.T.);
#893=EDGE_CURVE('',#709,#698,#1063,.T.);
#894=EDGE_CURVE('',#744,#744,#57,.T.);
#895=EDGE_CURVE('',#722,#743,#1064,.T.);
#896=EDGE_CURVE('',#742,#723,#1065,.T.);
#897=EDGE_CURVE('',#701,#706,#1066,.T.);
#898=EDGE_CURVE('',#745,#745,#58,.T.);
#899=EDGE_CURVE('',#673,#668,#1067,.T.);
#900=EDGE_CURVE('',#746,#746,#59,.T.);
#901=EDGE_CURVE('',#747,#748,#1068,.T.);
#902=EDGE_CURVE('',#749,#747,#1069,.T.);
#903=EDGE_CURVE('',#750,#749,#1070,.T.);
#904=EDGE_CURVE('',#751,#750,#1071,.T.);
#905=EDGE_CURVE('',#752,#751,#60,.T.);
#906=EDGE_CURVE('',#753,#752,#1072,.T.);
#907=EDGE_CURVE('',#754,#753,#1073,.T.);
#908=EDGE_CURVE('',#748,#754,#1074,.T.);
#909=EDGE_CURVE('',#748,#755,#1075,.T.);
#910=EDGE_CURVE('',#754,#756,#1076,.T.);
#911=EDGE_CURVE('',#755,#756,#1077,.T.);
#912=EDGE_CURVE('',#753,#757,#1078,.T.);
#913=EDGE_CURVE('',#756,#757,#1079,.T.);
#914=EDGE_CURVE('',#752,#758,#1080,.T.);
#915=EDGE_CURVE('',#757,#758,#1081,.T.);
#916=EDGE_CURVE('',#747,#759,#1082,.T.);
#917=EDGE_CURVE('',#759,#755,#1083,.T.);
#918=EDGE_CURVE('',#751,#760,#1084,.T.);
#919=EDGE_CURVE('',#758,#760,#61,.T.);
#920=EDGE_CURVE('',#761,#759,#1085,.T.);
#921=EDGE_CURVE('',#760,#762,#1086,.T.);
#922=EDGE_CURVE('',#762,#761,#1087,.T.);
#923=EDGE_CURVE('',#763,#763,#62,.T.);
#924=EDGE_CURVE('',#749,#761,#1088,.T.);
#925=EDGE_CURVE('',#750,#762,#1089,.T.);
#926=EDGE_CURVE('',#764,#764,#63,.T.);
#927=EDGE_CURVE('',#765,#766,#1090,.T.);
#928=EDGE_CURVE('',#766,#767,#1091,.T.);
#929=EDGE_CURVE('',#767,#768,#1092,.T.);
#930=EDGE_CURVE('',#768,#769,#1093,.T.);
#931=EDGE_CURVE('',#769,#770,#1094,.T.);
#932=EDGE_CURVE('',#770,#771,#1095,.T.);
#933=EDGE_CURVE('',#771,#772,#64,.T.);
#934=EDGE_CURVE('',#772,#765,#1096,.T.);
#935=EDGE_CURVE('',#773,#773,#65,.T.);
#936=EDGE_CURVE('',#774,#775,#1097,.T.);
#937=EDGE_CURVE('',#776,#774,#1098,.T.);
#938=EDGE_CURVE('',#777,#776,#1099,.T.);
#939=EDGE_CURVE('',#778,#777,#66,.T.);
#940=EDGE_CURVE('',#779,#778,#1100,.T.);
#941=EDGE_CURVE('',#780,#779,#1101,.T.);
#942=EDGE_CURVE('',#781,#780,#1102,.T.);
#943=EDGE_CURVE('',#775,#781,#1103,.T.);
#944=EDGE_CURVE('',#765,#776,#1104,.T.);
#945=EDGE_CURVE('',#766,#774,#1105,.T.);
#946=EDGE_CURVE('',#772,#777,#1106,.T.);
#947=EDGE_CURVE('',#771,#778,#1107,.T.);
#948=EDGE_CURVE('',#770,#779,#1108,.T.);
#949=EDGE_CURVE('',#769,#780,#1109,.T.);
#950=EDGE_CURVE('',#768,#781,#1110,.T.);
#951=EDGE_CURVE('',#767,#775,#1111,.T.);
#952=LINE('',#1643,#1112);
#953=LINE('',#1646,#1113);
#954=LINE('',#1648,#1114);
#955=LINE('',#1650,#1115);
#956=LINE('',#1652,#1116);
#957=LINE('',#1655,#1117);
#958=LINE('',#1657,#1118);
#959=LINE('',#1659,#1119);
#960=LINE('',#1661,#1120);
#961=LINE('',#1664,#1121);
#962=LINE('',#1666,#1122);
#963=LINE('',#1668,#1123);
#964=LINE('',#1670,#1124);
#965=LINE('',#1672,#1125);
#966=LINE('',#1674,#1126);
#967=LINE('',#1676,#1127);
#968=LINE('',#1678,#1128);
#969=LINE('',#1681,#1129);
#970=LINE('',#1683,#1130);
#971=LINE('',#1685,#1131);
#972=LINE('',#1687,#1132);
#973=LINE('',#1690,#1133);
#974=LINE('',#1692,#1134);
#975=LINE('',#1694,#1135);
#976=LINE('',#1696,#1136);
#977=LINE('',#1698,#1137);
#978=LINE('',#1700,#1138);
#979=LINE('',#1701,#1139);
#980=LINE('',#1703,#1140);
#981=LINE('',#1705,#1141);
#982=LINE('',#1707,#1142);
#983=LINE('',#1709,#1143);
#984=LINE('',#1711,#1144);
#985=LINE('',#1713,#1145);
#986=LINE('',#1715,#1146);
#987=LINE('',#1716,#1147);
#988=LINE('',#1718,#1148);
#989=LINE('',#1720,#1149);
#990=LINE('',#1722,#1150);
#991=LINE('',#1724,#1151);
#992=LINE('',#1726,#1152);
#993=LINE('',#1728,#1153);
#994=LINE('',#1731,#1154);
#995=LINE('',#1732,#1155);
#996=LINE('',#1734,#1156);
#997=LINE('',#1736,#1157);
#998=LINE('',#1738,#1158);
#999=LINE('',#1740,#1159);
#1000=LINE('',#1742,#1160);
#1001=LINE('',#1744,#1161);
#1002=LINE('',#1745,#1162);
#1003=LINE('',#1747,#1163);
#1004=LINE('',#1748,#1164);
#1005=LINE('',#1750,#1165);
#1006=LINE('',#1752,#1166);
#1007=LINE('',#1754,#1167);
#1008=LINE('',#1756,#1168);
#1009=LINE('',#1758,#1169);
#1010=LINE('',#1759,#1170);
#1011=LINE('',#1761,#1171);
#1012=LINE('',#1763,#1172);
#1013=LINE('',#1765,#1173);
#1014=LINE('',#1767,#1174);
#1015=LINE('',#1769,#1175);
#1016=LINE('',#1771,#1176);
#1017=LINE('',#1772,#1177);
#1018=LINE('',#1774,#1178);
#1019=LINE('',#1776,#1179);
#1020=LINE('',#1778,#1180);
#1021=LINE('',#1780,#1181);
#1022=LINE('',#1782,#1182);
#1023=LINE('',#1784,#1183);
#1024=LINE('',#1786,#1184);
#1025=LINE('',#1788,#1185);
#1026=LINE('',#1790,#1186);
#1027=LINE('',#1792,#1187);
#1028=LINE('',#1794,#1188);
#1029=LINE('',#1796,#1189);
#1030=LINE('',#1797,#1190);
#1031=LINE('',#1799,#1191);
#1032=LINE('',#1801,#1192);
#1033=LINE('',#1802,#1193);
#1034=LINE('',#1804,#1194);
#1035=LINE('',#1806,#1195);
#1036=LINE('',#1808,#1196);
#1037=LINE('',#1810,#1197);
#1038=LINE('',#1812,#1198);
#1039=LINE('',#1814,#1199);
#1040=LINE('',#1815,#1200);
#1041=LINE('',#1817,#1201);
#1042=LINE('',#1819,#1202);
#1043=LINE('',#1821,#1203);
#1044=LINE('',#1823,#1204);
#1045=LINE('',#1824,#1205);
#1046=LINE('',#1827,#1206);
#1047=LINE('',#1828,#1207);
#1048=LINE('',#1830,#1208);
#1049=LINE('',#1832,#1209);
#1050=LINE('',#1834,#1210);
#1051=LINE('',#1836,#1211);
#1052=LINE('',#1838,#1212);
#1053=LINE('',#1840,#1213);
#1054=LINE('',#1842,#1214);
#1055=LINE('',#1844,#1215);
#1056=LINE('',#1847,#1216);
#1057=LINE('',#1848,#1217);
#1058=LINE('',#1850,#1218);
#1059=LINE('',#1851,#1219);
#1060=LINE('',#1853,#1220);
#1061=LINE('',#1855,#1221);
#1062=LINE('',#1857,#1222);
#1063=LINE('',#1859,#1223);
#1064=LINE('',#1865,#1224);
#1065=LINE('',#1866,#1225);
#1066=LINE('',#1868,#1226);
#1067=LINE('',#1873,#1227);
#1068=LINE('',#1878,#1228);
#1069=LINE('',#1881,#1229);
#1070=LINE('',#1883,#1230);
#1071=LINE('',#1885,#1231);
#1072=LINE('',#1889,#1232);
#1073=LINE('',#1891,#1233);
#1074=LINE('',#1893,#1234);
#1075=LINE('',#1895,#1235);
#1076=LINE('',#1897,#1236);
#1077=LINE('',#1899,#1237);
#1078=LINE('',#1901,#1238);
#1079=LINE('',#1903,#1239);
#1080=LINE('',#1905,#1240);
#1081=LINE('',#1907,#1241);
#1082=LINE('',#1909,#1242);
#1083=LINE('',#1911,#1243);
#1084=LINE('',#1913,#1244);
#1085=LINE('',#1917,#1245);
#1086=LINE('',#1919,#1246);
#1087=LINE('',#1921,#1247);
#1088=LINE('',#1925,#1248);
#1089=LINE('',#1927,#1249);
#1090=LINE('',#1933,#1250);
#1091=LINE('',#1936,#1251);
#1092=LINE('',#1938,#1252);
#1093=LINE('',#1940,#1253);
#1094=LINE('',#1942,#1254);
#1095=LINE('',#1944,#1255);
#1096=LINE('',#1948,#1256);
#1097=LINE('',#1952,#1257);
#1098=LINE('',#1955,#1258);
#1099=LINE('',#1957,#1259);
#1100=LINE('',#1961,#1260);
#1101=LINE('',#1963,#1261);
#1102=LINE('',#1965,#1262);
#1103=LINE('',#1967,#1263);
#1104=LINE('',#1969,#1264);
#1105=LINE('',#1970,#1265);
#1106=LINE('',#1972,#1266);
#1107=LINE('',#1974,#1267);
#1108=LINE('',#1976,#1268);
#1109=LINE('',#1978,#1269);
#1110=LINE('',#1981,#1270);
#1111=LINE('',#1983,#1271);
#1112=VECTOR('',#1344,1.);
#1113=VECTOR('',#1345,1.);
#1114=VECTOR('',#1346,1.);
#1115=VECTOR('',#1347,1.);
#1116=VECTOR('',#1350,1.);
#1117=VECTOR('',#1351,1.);
#1118=VECTOR('',#1352,1.);
#1119=VECTOR('',#1353,1.);
#1120=VECTOR('',#1356,1.);
#1121=VECTOR('',#1357,1.);
#1122=VECTOR('',#1358,1.);
#1123=VECTOR('',#1359,1.);
#1124=VECTOR('',#1360,1.);
#1125=VECTOR('',#1361,1.);
#1126=VECTOR('',#1362,1.);
#1127=VECTOR('',#1363,1.);
#1128=VECTOR('',#1366,1.);
#1129=VECTOR('',#1367,1.);
#1130=VECTOR('',#1368,1.);
#1131=VECTOR('',#1369,1.);
#1132=VECTOR('',#1372,1.);
#1133=VECTOR('',#1373,1.);
#1134=VECTOR('',#1374,1.);
#1135=VECTOR('',#1375,1.);
#1136=VECTOR('',#1378,1.);
#1137=VECTOR('',#1379,1.);
#1138=VECTOR('',#1380,1.);
#1139=VECTOR('',#1381,1.);
#1140=VECTOR('',#1382,1.);
#1141=VECTOR('',#1383,1.);
#1142=VECTOR('',#1384,1.);
#1143=VECTOR('',#1385,1.);
#1144=VECTOR('',#1386,1.);
#1145=VECTOR('',#1387,1.);
#1146=VECTOR('',#1388,1.);
#1147=VECTOR('',#1389,1.);
#1148=VECTOR('',#1390,1.);
#1149=VECTOR('',#1391,1.);
#1150=VECTOR('',#1392,1.);
#1151=VECTOR('',#1395,1.);
#1152=VECTOR('',#1396,1.);
#1153=VECTOR('',#1399,1.);
#1154=VECTOR('',#1400,1.);
#1155=VECTOR('',#1401,1.);
#1156=VECTOR('',#1402,1.);
#1157=VECTOR('',#1403,1.);
#1158=VECTOR('',#1404,1.);
#1159=VECTOR('',#1405,1.);
#1160=VECTOR('',#1406,1.);
#1161=VECTOR('',#1407,1.);
#1162=VECTOR('',#1408,1.);
#1163=VECTOR('',#1409,1.);
#1164=VECTOR('',#1410,1.);
#1165=VECTOR('',#1411,1.);
#1166=VECTOR('',#1412,1.);
#1167=VECTOR('',#1415,1.);
#1168=VECTOR('',#1416,1.);
#1169=VECTOR('',#1417,1.);
#1170=VECTOR('',#1418,1.);
#1171=VECTOR('',#1419,1.);
#1172=VECTOR('',#1420,1.);
#1173=VECTOR('',#1421,1.);
#1174=VECTOR('',#1422,1.);
#1175=VECTOR('',#1423,1.);
#1176=VECTOR('',#1424,1.);
#1177=VECTOR('',#1425,1.);
#1178=VECTOR('',#1426,1.);
#1179=VECTOR('',#1427,1.);
#1180=VECTOR('',#1428,1.);
#1181=VECTOR('',#1429,1.);
#1182=VECTOR('',#1430,1.);
#1183=VECTOR('',#1431,1.);
#1184=VECTOR('',#1434,1.);
#1185=VECTOR('',#1435,1.);
#1186=VECTOR('',#1436,1.);
#1187=VECTOR('',#1439,1.);
#1188=VECTOR('',#1440,1.);
#1189=VECTOR('',#1441,1.);
#1190=VECTOR('',#1442,1.);
#1191=VECTOR('',#1443,1.);
#1192=VECTOR('',#1444,1.);
#1193=VECTOR('',#1445,1.);
#1194=VECTOR('',#1446,1.);
#1195=VECTOR('',#1447,1.);
#1196=VECTOR('',#1448,1.);
#1197=VECTOR('',#1449,1.);
#1198=VECTOR('',#1450,1.);
#1199=VECTOR('',#1451,1.);
#1200=VECTOR('',#1452,1.);
#1201=VECTOR('',#1453,1.);
#1202=VECTOR('',#1454,1.);
#1203=VECTOR('',#1457,1.);
#1204=VECTOR('',#1460,1.);
#1205=VECTOR('',#1461,1.);
#1206=VECTOR('',#1466,1.);
#1207=VECTOR('',#1467,1.);
#1208=VECTOR('',#1470,1.);
#1209=VECTOR('',#1473,1.);
#1210=VECTOR('',#1476,1.);
#1211=VECTOR('',#1479,1.);
#1212=VECTOR('',#1482,1.);
#1213=VECTOR('',#1485,1.);
#1214=VECTOR('',#1488,1.);
#1215=VECTOR('',#1491,1.);
#1216=VECTOR('',#1496,1.);
#1217=VECTOR('',#1497,1.);
#1218=VECTOR('',#1500,1.);
#1219=VECTOR('',#1501,1.);
#1220=VECTOR('',#1504,1.);
#1221=VECTOR('',#1507,1.);
#1222=VECTOR('',#1510,1.);
#1223=VECTOR('',#1513,1.);
#1224=VECTOR('',#1522,1.);
#1225=VECTOR('',#1523,1.);
#1226=VECTOR('',#1526,1.);
#1227=VECTOR('',#1533,1.);
#1228=VECTOR('',#1540,1.);
#1229=VECTOR('',#1541,1.);
#1230=VECTOR('',#1542,1.);
#1231=VECTOR('',#1543,1.);
#1232=VECTOR('',#1546,1.);
#1233=VECTOR('',#1547,1.);
#1234=VECTOR('',#1548,1.);
#1235=VECTOR('',#1551,1.);
#1236=VECTOR('',#1552,1.);
#1237=VECTOR('',#1553,1.);
#1238=VECTOR('',#1556,1.);
#1239=VECTOR('',#1557,1.);
#1240=VECTOR('',#1560,1.);
#1241=VECTOR('',#1561,1.);
#1242=VECTOR('',#1564,1.);
#1243=VECTOR('',#1565,1.);
#1244=VECTOR('',#1568,1.);
#1245=VECTOR('',#1573,1.);
#1246=VECTOR('',#1574,1.);
#1247=VECTOR('',#1575,1.);
#1248=VECTOR('',#1580,1.);
#1249=VECTOR('',#1583,1.);
#1250=VECTOR('',#1592,1.);
#1251=VECTOR('',#1593,1.);
#1252=VECTOR('',#1594,1.);
#1253=VECTOR('',#1595,1.);
#1254=VECTOR('',#1596,1.);
#1255=VECTOR('',#1597,1.);
#1256=VECTOR('',#1600,1.);
#1257=VECTOR('',#1605,1.);
#1258=VECTOR('',#1606,1.);
#1259=VECTOR('',#1607,1.);
#1260=VECTOR('',#1610,1.);
#1261=VECTOR('',#1611,1.);
#1262=VECTOR('',#1612,1.);
#1263=VECTOR('',#1613,1.);
#1264=VECTOR('',#1616,1.);
#1265=VECTOR('',#1617,1.);
#1266=VECTOR('',#1620,1.);
#1267=VECTOR('',#1623,1.);
#1268=VECTOR('',#1626,1.);
#1269=VECTOR('',#1629,1.);
#1270=VECTOR('',#1634,1.);
#1271=VECTOR('',#1637,1.);
#1272=AXIS2_PLACEMENT_3D('',#1642,#1342,#1343);
#1273=AXIS2_PLACEMENT_3D('',#1651,#1348,#1349);
#1274=AXIS2_PLACEMENT_3D('',#1660,#1354,#1355);
#1275=AXIS2_PLACEMENT_3D('',#1677,#1364,#1365);
#1276=AXIS2_PLACEMENT_3D('',#1686,#1370,#1371);
#1277=AXIS2_PLACEMENT_3D('',#1695,#1376,#1377);
#1278=AXIS2_PLACEMENT_3D('',#1723,#1393,#1394);
#1279=AXIS2_PLACEMENT_3D('',#1727,#1397,#1398);
#1280=AXIS2_PLACEMENT_3D('',#1753,#1413,#1414);
#1281=AXIS2_PLACEMENT_3D('',#1785,#1432,#1433);
#1282=AXIS2_PLACEMENT_3D('',#1791,#1437,#1438);
#1283=AXIS2_PLACEMENT_3D('',#1820,#1455,#1456);
#1284=AXIS2_PLACEMENT_3D('',#1822,#1458,#1459);
#1285=AXIS2_PLACEMENT_3D('',#1825,#1462,#1463);
#1286=AXIS2_PLACEMENT_3D('',#1826,#1464,#1465);
#1287=AXIS2_PLACEMENT_3D('',#1829,#1468,#1469);
#1288=AXIS2_PLACEMENT_3D('',#1831,#1471,#1472);
#1289=AXIS2_PLACEMENT_3D('',#1833,#1474,#1475);
#1290=AXIS2_PLACEMENT_3D('',#1835,#1477,#1478);
#1291=AXIS2_PLACEMENT_3D('',#1837,#1480,#1481);
#1292=AXIS2_PLACEMENT_3D('',#1839,#1483,#1484);
#1293=AXIS2_PLACEMENT_3D('',#1841,#1486,#1487);
#1294=AXIS2_PLACEMENT_3D('',#1843,#1489,#1490);
#1295=AXIS2_PLACEMENT_3D('',#1845,#1492,#1493);
#1296=AXIS2_PLACEMENT_3D('',#1846,#1494,#1495);
#1297=AXIS2_PLACEMENT_3D('',#1849,#1498,#1499);
#1298=AXIS2_PLACEMENT_3D('',#1852,#1502,#1503);
#1299=AXIS2_PLACEMENT_3D('',#1854,#1505,#1506);
#1300=AXIS2_PLACEMENT_3D('',#1856,#1508,#1509);
#1301=AXIS2_PLACEMENT_3D('',#1858,#1511,#1512);
#1302=AXIS2_PLACEMENT_3D('',#1860,#1514,#1515);
#1303=AXIS2_PLACEMENT_3D('',#1861,#1516,#1517);
#1304=AXIS2_PLACEMENT_3D('',#1862,#1518,#1519);
#1305=AXIS2_PLACEMENT_3D('',#1863,#1520,#1521);
#1306=AXIS2_PLACEMENT_3D('',#1867,#1524,#1525);
#1307=AXIS2_PLACEMENT_3D('',#1869,#1527,#1528);
#1308=AXIS2_PLACEMENT_3D('',#1870,#1529,#1530);
#1309=AXIS2_PLACEMENT_3D('',#1872,#1531,#1532);
#1310=AXIS2_PLACEMENT_3D('',#1874,#1534,#1535);
#1311=AXIS2_PLACEMENT_3D('',#1875,#1536,#1537);
#1312=AXIS2_PLACEMENT_3D('',#1876,#1538,#1539);
#1313=AXIS2_PLACEMENT_3D('',#1887,#1544,#1545);
#1314=AXIS2_PLACEMENT_3D('',#1894,#1549,#1550);
#1315=AXIS2_PLACEMENT_3D('',#1900,#1554,#1555);
#1316=AXIS2_PLACEMENT_3D('',#1904,#1558,#1559);
#1317=AXIS2_PLACEMENT_3D('',#1908,#1562,#1563);
#1318=AXIS2_PLACEMENT_3D('',#1912,#1566,#1567);
#1319=AXIS2_PLACEMENT_3D('',#1915,#1569,#1570);
#1320=AXIS2_PLACEMENT_3D('',#1916,#1571,#1572);
#1321=AXIS2_PLACEMENT_3D('',#1922,#1576,#1577);
#1322=AXIS2_PLACEMENT_3D('',#1924,#1578,#1579);
#1323=AXIS2_PLACEMENT_3D('',#1926,#1581,#1582);
#1324=AXIS2_PLACEMENT_3D('',#1928,#1584,#1585);
#1325=AXIS2_PLACEMENT_3D('',#1929,#1586,#1587);
#1326=AXIS2_PLACEMENT_3D('',#1930,#1588,#1589);
#1327=AXIS2_PLACEMENT_3D('',#1931,#1590,#1591);
#1328=AXIS2_PLACEMENT_3D('',#1946,#1598,#1599);
#1329=AXIS2_PLACEMENT_3D('',#1949,#1601,#1602);
#1330=AXIS2_PLACEMENT_3D('',#1950,#1603,#1604);
#1331=AXIS2_PLACEMENT_3D('',#1959,#1608,#1609);
#1332=AXIS2_PLACEMENT_3D('',#1968,#1614,#1615);
#1333=AXIS2_PLACEMENT_3D('',#1971,#1618,#1619);
#1334=AXIS2_PLACEMENT_3D('',#1973,#1621,#1622);
#1335=AXIS2_PLACEMENT_3D('',#1975,#1624,#1625);
#1336=AXIS2_PLACEMENT_3D('',#1977,#1627,#1628);
#1337=AXIS2_PLACEMENT_3D('',#1979,#1630,#1631);
#1338=AXIS2_PLACEMENT_3D('',#1980,#1632,#1633);
#1339=AXIS2_PLACEMENT_3D('',#1982,#1635,#1636);
#1340=AXIS2_PLACEMENT_3D('',#1984,#1638,#1639);
#1341=AXIS2_PLACEMENT_3D('',#1985,#1640,#1641);
#1342=DIRECTION('',(0.,0.,1.));
#1343=DIRECTION('',(1.,0.,0.));
#1344=DIRECTION('',(-1.,0.,-2.66619824376779E-16));
#1345=DIRECTION('',(0.274362331205348,0.,0.96162638858112));
#1346=DIRECTION('',(0.96162638858114,0.,-0.274362331205278));
#1347=DIRECTION('',(0.274362331205348,0.,0.96162638858112));
#1348=DIRECTION('',(0.,1.,0.));
#1349=DIRECTION('',(0.,0.,1.));
#1350=DIRECTION('',(-1.,0.,-2.66619824376779E-16));
#1351=DIRECTION('',(0.274362331205348,0.,-0.96162638858112));
#1352=DIRECTION('',(0.96162638858114,0.,0.274362331205278));
#1353=DIRECTION('',(0.274362331205348,0.,-0.96162638858112));
#1354=DIRECTION('',(0.,1.,0.));
#1355=DIRECTION('',(0.,0.,1.));
#1356=DIRECTION('',(-0.961626388581151,0.,0.274362331205238));
#1357=DIRECTION('',(-0.274362331205241,0.,-0.96162638858115));
#1358=DIRECTION('',(-1.,0.,-9.16274527396219E-16));
#1359=DIRECTION('',(-0.274362331205241,0.,0.96162638858115));
#1360=DIRECTION('',(-0.961626388581151,0.,-0.274362331205239));
#1361=DIRECTION('',(0.274362331205348,0.,-0.96162638858112));
#1362=DIRECTION('',(-1.,0.,-1.22464679914735E-16));
#1363=DIRECTION('',(0.274362331205348,0.,0.96162638858112));
#1364=DIRECTION('',(0.,1.,0.));
#1365=DIRECTION('',(0.,0.,1.));
#1366=DIRECTION('',(0.961626388581151,0.,-0.274362331205238));
#1367=DIRECTION('',(0.274362331205348,0.,0.96162638858112));
#1368=DIRECTION('',(-0.96162638858114,0.,0.274362331205278));
#1369=DIRECTION('',(0.274362331205348,0.,0.96162638858112));
#1370=DIRECTION('',(0.,1.,0.));
#1371=DIRECTION('',(0.,0.,1.));
#1372=DIRECTION('',(-0.96162638858114,0.,-0.274362331205278));
#1373=DIRECTION('',(0.274362331205348,0.,-0.96162638858112));
#1374=DIRECTION('',(0.961626388581151,0.,0.274362331205238));
#1375=DIRECTION('',(0.274362331205348,0.,-0.96162638858112));
#1376=DIRECTION('',(0.,1.,0.));
#1377=DIRECTION('',(0.,0.,1.));
#1378=DIRECTION('',(0.,1.,0.));
#1379=DIRECTION('',(0.274362331205348,0.,0.96162638858112));
#1380=DIRECTION('',(0.,1.,0.));
#1381=DIRECTION('',(0.,1.,0.));
#1382=DIRECTION('',(0.,1.,0.));
#1383=DIRECTION('',(-0.274362331205241,0.,-0.96162638858115));
#1384=DIRECTION('',(0.,-1.,0.));
#1385=DIRECTION('',(0.274362331205348,0.,0.96162638858112));
#1386=DIRECTION('',(0.,-1.,0.));
#1387=DIRECTION('',(0.274362331205348,0.,0.96162638858112));
#1388=DIRECTION('',(0.,1.,0.));
#1389=DIRECTION('',(0.274362331205348,0.,0.96162638858112));
#1390=DIRECTION('',(0.274362331205348,0.,0.96162638858112));
#1391=DIRECTION('',(0.,1.,0.));
#1392=DIRECTION('',(0.274362331205348,0.,0.96162638858112));
#1393=DIRECTION('',(-0.96162638858112,0.,0.274362331205348));
#1394=DIRECTION('',(0.274362331205348,0.,0.96162638858112));
#1395=DIRECTION('',(-1.,0.,-9.16274527396219E-16));
#1396=DIRECTION('',(0.,1.,0.));
#1397=DIRECTION('',(9.16274527396219E-16,0.,-1.));
#1398=DIRECTION('',(-1.,0.,-9.15933995315754E-16));
#1399=DIRECTION('',(0.274362331205348,0.,-0.96162638858112));
#1400=DIRECTION('',(0.274362331205348,0.,-0.96162638858112));
#1401=DIRECTION('',(0.,1.,0.));
#1402=DIRECTION('',(0.274362331205348,0.,-0.96162638858112));
#1403=DIRECTION('',(0.,-1.,0.));
#1404=DIRECTION('',(0.274362331205348,0.,-0.96162638858112));
#1405=DIRECTION('',(0.,-1.,0.));
#1406=DIRECTION('',(-0.274362331205241,0.,0.96162638858115));
#1407=DIRECTION('',(0.,1.,0.));
#1408=DIRECTION('',(0.274362331205348,0.,-0.96162638858112));
#1409=DIRECTION('',(0.,1.,0.));
#1410=DIRECTION('',(0.,1.,0.));
#1411=DIRECTION('',(0.,1.,0.));
#1412=DIRECTION('',(0.274362331205348,0.,-0.96162638858112));
#1413=DIRECTION('',(0.96162638858112,0.,0.274362331205348));
#1414=DIRECTION('',(0.274362331205348,0.,-0.96162638858112));
#1415=DIRECTION('',(0.,1.,0.));
#1416=DIRECTION('',(0.274362331205348,0.,0.96162638858112));
#1417=DIRECTION('',(0.,1.,0.));
#1418=DIRECTION('',(0.,1.,0.));
#1419=DIRECTION('',(0.274362331205348,0.,0.96162638858112));
#1420=DIRECTION('',(0.,1.,0.));
#1421=DIRECTION('',(0.274362331205348,0.,0.96162638858112));
#1422=DIRECTION('',(0.,-1.,0.));
#1423=DIRECTION('',(0.274362331205363,0.,0.961626388581116));
#1424=DIRECTION('',(0.,-1.,0.));
#1425=DIRECTION('',(0.,1.,0.));
#1426=DIRECTION('',(0.274362331205348,0.,0.96162638858112));
#1427=DIRECTION('',(0.,-1.,0.));
#1428=DIRECTION('',(0.274362331205348,0.,0.96162638858112));
#1429=DIRECTION('',(0.,-1.,0.));
#1430=DIRECTION('',(0.274362331205348,0.,0.96162638858112));
#1431=DIRECTION('',(0.,1.,0.));
#1432=DIRECTION('',(-0.96162638858112,0.,0.274362331205348));
#1433=DIRECTION('',(0.274362331205348,0.,0.96162638858112));
#1434=DIRECTION('',(1.,0.,0.));
#1435=DIRECTION('',(1.,0.,0.));
#1436=DIRECTION('',(0.,1.,0.));
#1437=DIRECTION('',(0.,0.,1.));
#1438=DIRECTION('',(1.,0.,0.));
#1439=DIRECTION('',(0.,1.,0.));
#1440=DIRECTION('',(0.274362331205348,0.,-0.96162638858112));
#1441=DIRECTION('',(0.,1.,0.));
#1442=DIRECTION('',(0.274362331205348,0.,-0.96162638858112));
#1443=DIRECTION('',(0.274362331205348,0.,-0.96162638858112));
#1444=DIRECTION('',(0.,1.,0.));
#1445=DIRECTION('',(0.,1.,0.));
#1446=DIRECTION('',(0.274362331205348,0.,-0.96162638858112));
#1447=DIRECTION('',(0.,-1.,0.));
#1448=DIRECTION('',(0.274362331205348,0.,-0.96162638858112));
#1449=DIRECTION('',(0.,-1.,0.));
#1450=DIRECTION('',(0.274362331205348,0.,-0.96162638858112));
#1451=DIRECTION('',(0.,1.,0.));
#1452=DIRECTION('',(0.,-1.,0.));
#1453=DIRECTION('',(0.274362331205363,0.,-0.961626388581116));
#1454=DIRECTION('',(0.,-1.,0.));
#1455=DIRECTION('',(0.96162638858112,0.,0.274362331205348));
#1456=DIRECTION('',(0.274362331205348,0.,-0.96162638858112));
#1457=DIRECTION('',(-1.,0.,-1.22464679914735E-16));
#1458=DIRECTION('',(1.22464679914735E-16,0.,-1.));
#1459=DIRECTION('',(-1.,0.,-1.22464679914735E-16));
#1460=DIRECTION('',(-1.,0.,0.));
#1461=DIRECTION('',(-1.,0.,0.));
#1462=DIRECTION('',(0.,0.,1.));
#1463=DIRECTION('',(1.,0.,0.));
#1464=DIRECTION('',(0.,1.,0.));
#1465=DIRECTION('',(0.,0.,1.));
#1466=DIRECTION('',(1.,0.,2.81266245897378E-16));
#1467=DIRECTION('',(1.,0.,2.81266245897378E-16));
#1468=DIRECTION('',(0.,1.,0.));
#1469=DIRECTION('',(0.,0.,1.));
#1470=DIRECTION('',(-0.961626388581151,0.,0.274362331205238));
#1471=DIRECTION('',(0.274362331205238,0.,0.961626388581151));
#1472=DIRECTION('',(0.961626388581151,0.,-0.274362331205238));
#1473=DIRECTION('',(0.961626388581151,0.,-0.274362331205238));
#1474=DIRECTION('',(-0.274362331205238,0.,-0.961626388581151));
#1475=DIRECTION('',(-0.961626388581151,0.,0.274362331205238));
#1476=DIRECTION('',(-0.96162638858114,0.,0.274362331205278));
#1477=DIRECTION('',(0.274362331205278,0.,0.96162638858114));
#1478=DIRECTION('',(0.96162638858114,0.,-0.274362331205278));
#1479=DIRECTION('',(0.96162638858114,0.,-0.274362331205278));
#1480=DIRECTION('',(-0.274362331205278,0.,-0.96162638858114));
#1481=DIRECTION('',(-0.96162638858114,0.,0.274362331205278));
#1482=DIRECTION('',(-0.96162638858114,0.,-0.274362331205278));
#1483=DIRECTION('',(-0.274362331205278,0.,0.96162638858114));
#1484=DIRECTION('',(0.96162638858114,0.,0.274362331205278));
#1485=DIRECTION('',(0.96162638858114,0.,0.274362331205278));
#1486=DIRECTION('',(0.274362331205278,0.,-0.96162638858114));
#1487=DIRECTION('',(-0.96162638858114,0.,-0.274362331205278));
#1488=DIRECTION('',(-0.961626388581151,0.,-0.274362331205239));
#1489=DIRECTION('',(-0.274362331205239,0.,0.961626388581151));
#1490=DIRECTION('',(0.961626388581151,0.,0.274362331205239));
#1491=DIRECTION('',(0.961626388581151,0.,0.274362331205238));
#1492=DIRECTION('',(0.274362331205238,0.,-0.961626388581151));
#1493=DIRECTION('',(-0.961626388581152,0.,-0.274362331205238));
#1494=DIRECTION('',(0.,1.,0.));
#1495=DIRECTION('',(0.,0.,1.));
#1496=DIRECTION('',(-1.,0.,-9.16274527396219E-16));
#1497=DIRECTION('',(-1.,0.,-1.22464679914735E-16));
#1498=DIRECTION('',(0.,1.,0.));
#1499=DIRECTION('',(0.,0.,1.));
#1500=DIRECTION('',(1.,0.,0.));
#1501=DIRECTION('',(-1.,0.,0.));
#1502=DIRECTION('',(0.,1.,0.));
#1503=DIRECTION('',(0.,0.,1.));
#1504=DIRECTION('',(-1.,0.,-9.16274527396219E-16));
#1505=DIRECTION('',(-9.16274527396219E-16,0.,1.));
#1506=DIRECTION('',(1.,0.,9.15933995315754E-16));
#1507=DIRECTION('',(1.,0.,0.));
#1508=DIRECTION('',(0.,0.,-1.));
#1509=DIRECTION('',(-1.,0.,0.));
#1510=DIRECTION('',(-1.,0.,-1.22464679914735E-16));
#1511=DIRECTION('',(-1.22464679914735E-16,0.,1.));
#1512=DIRECTION('',(1.,0.,1.22464679914735E-16));
#1513=DIRECTION('',(-1.,0.,0.));
#1514=DIRECTION('',(0.,0.,-1.));
#1515=DIRECTION('',(-1.,0.,0.));
#1516=DIRECTION('',(0.,1.,0.));
#1517=DIRECTION('',(0.,0.,1.));
#1518=DIRECTION('',(0.,1.,0.));
#1519=DIRECTION('',(0.,0.,1.));
#1520=DIRECTION('',(0.,-1.,0.));
#1521=DIRECTION('',(0.,0.,0.999999999999994));
#1522=DIRECTION('',(1.,0.,2.81266245897378E-16));
#1523=DIRECTION('',(-1.,0.,-2.66619824376779E-16));
#1524=DIRECTION('',(0.,1.,0.));
#1525=DIRECTION('',(0.,0.,1.));
#1526=DIRECTION('',(1.,0.,2.81266245897378E-16));
#1527=DIRECTION('',(2.81266245897378E-16,0.,-1.));
#1528=DIRECTION('',(-1.,0.,-3.33066907387547E-16));
#1529=DIRECTION('',(0.,-1.,0.));
#1530=DIRECTION('',(0.,0.,0.999999999999994));
#1531=DIRECTION('',(0.,-1.,0.));
#1532=DIRECTION('',(0.,0.,-0.999999999999994));
#1533=DIRECTION('',(-1.,0.,-2.66619824376779E-16));
#1534=DIRECTION('',(-2.66619824376779E-16,0.,1.));
#1535=DIRECTION('',(1.,0.,2.22044604925031E-16));
#1536=DIRECTION('',(0.,1.,0.));
#1537=DIRECTION('',(0.,0.,1.));
#1538=DIRECTION('',(0.,-1.,0.));
#1539=DIRECTION('',(0.,0.,0.999999999999996));
#1540=DIRECTION('',(1.,0.,0.));
#1541=DIRECTION('',(0.,0.,-1.));
#1542=DIRECTION('',(-1.,0.,0.));
#1543=DIRECTION('',(-2.69845874040836E-15,0.,-1.));
#1544=DIRECTION('',(0.,-1.,0.));
#1545=DIRECTION('',(0.,0.,1.));
#1546=DIRECTION('',(-2.69845874040836E-15,0.,1.));
#1547=DIRECTION('',(-1.,0.,0.));
#1548=DIRECTION('',(0.,0.,1.));
#1549=DIRECTION('',(0.,1.,0.));
#1550=DIRECTION('',(0.,0.,1.));
#1551=DIRECTION('',(0.,-1.,0.));
#1552=DIRECTION('',(0.,-1.,0.));
#1553=DIRECTION('',(0.,0.,1.));
#1554=DIRECTION('',(1.,0.,0.));
#1555=DIRECTION('',(0.,0.,-1.));
#1556=DIRECTION('',(0.,-1.,0.));
#1557=DIRECTION('',(-1.,0.,0.));
#1558=DIRECTION('',(0.,0.,1.));
#1559=DIRECTION('',(1.,0.,0.));
#1560=DIRECTION('',(0.,-1.,0.));
#1561=DIRECTION('',(-2.69845874040836E-15,0.,1.));
#1562=DIRECTION('',(1.,0.,2.69845874040836E-15));
#1563=DIRECTION('',(2.69922972861991E-15,0.,-1.));
#1564=DIRECTION('',(0.,-1.,0.));
#1565=DIRECTION('',(1.,0.,0.));
#1566=DIRECTION('',(0.,0.,-1.));
#1567=DIRECTION('',(-1.,0.,0.));
#1568=DIRECTION('',(0.,-1.,0.));
#1569=DIRECTION('',(0.,-1.,0.));
#1570=DIRECTION('',(0.,0.,1.));
#1571=DIRECTION('',(0.,-1.,0.));
#1572=DIRECTION('',(0.,0.,-1.));
#1573=DIRECTION('',(0.,0.,-1.));
#1574=DIRECTION('',(-2.69845874040836E-15,0.,-1.));
#1575=DIRECTION('',(-1.,0.,0.));
#1576=DIRECTION('',(0.,-1.,0.));
#1577=DIRECTION('',(0.,0.,0.999999999999996));
#1578=DIRECTION('',(0.,1.,0.));
#1579=DIRECTION('',(0.,0.,1.));
#1580=DIRECTION('',(0.,-1.,0.));
#1581=DIRECTION('',(-1.,0.,0.));
#1582=DIRECTION('',(0.,0.,1.));
#1583=DIRECTION('',(0.,-1.,0.));
#1584=DIRECTION('',(-1.,0.,2.69845874040836E-15));
#1585=DIRECTION('',(2.69922972861991E-15,0.,1.));
#1586=DIRECTION('',(0.,0.,1.));
#1587=DIRECTION('',(1.,0.,0.));
#1588=DIRECTION('',(0.,-1.,0.));
#1589=DIRECTION('',(0.,0.,-0.999999999999996));
#1590=DIRECTION('',(0.,-1.,0.));
#1591=DIRECTION('',(0.,0.,0.999999999999996));
#1592=DIRECTION('',(-1.,0.,0.));
#1593=DIRECTION('',(0.,0.,-1.));
#1594=DIRECTION('',(1.,0.,0.));
#1595=DIRECTION('',(0.,0.,1.));
#1596=DIRECTION('',(-1.,0.,0.));
#1597=DIRECTION('',(-2.69845874040836E-15,0.,1.));
#1598=DIRECTION('',(0.,-1.,0.));
#1599=DIRECTION('',(0.,0.,1.));
#1600=DIRECTION('',(-2.69845874040836E-15,0.,-1.));
#1601=DIRECTION('',(0.,1.,0.));
#1602=DIRECTION('',(0.,0.,1.));
#1603=DIRECTION('',(0.,-1.,0.));
#1604=DIRECTION('',(0.,0.,0.999999999999996));
#1605=DIRECTION('',(0.,0.,-1.));
#1606=DIRECTION('',(-1.,0.,0.));
#1607=DIRECTION('',(-2.69845874040836E-15,0.,-1.));
#1608=DIRECTION('',(0.,-1.,0.));
#1609=DIRECTION('',(0.,0.,1.));
#1610=DIRECTION('',(-2.69845874040836E-15,0.,1.));
#1611=DIRECTION('',(-1.,0.,0.));
#1612=DIRECTION('',(0.,0.,1.));
#1613=DIRECTION('',(1.,0.,0.));
#1614=DIRECTION('',(0.,1.,0.));
#1615=DIRECTION('',(0.,0.,1.));
#1616=DIRECTION('',(0.,1.,0.));
#1617=DIRECTION('',(0.,1.,0.));
#1618=DIRECTION('',(0.,0.,1.));
#1619=DIRECTION('',(1.,0.,0.));
#1620=DIRECTION('',(0.,1.,0.));
#1621=DIRECTION('',(-1.,0.,2.69845874040836E-15));
#1622=DIRECTION('',(2.69922972861991E-15,0.,1.));
#1623=DIRECTION('',(0.,1.,0.));
#1624=DIRECTION('',(0.,1.,0.));
#1625=DIRECTION('',(0.,0.,1.));
#1626=DIRECTION('',(0.,1.,0.));
#1627=DIRECTION('',(1.,0.,2.69845874040836E-15));
#1628=DIRECTION('',(2.69922972861991E-15,0.,-1.));
#1629=DIRECTION('',(0.,1.,0.));
#1630=DIRECTION('',(0.,0.,1.));
#1631=DIRECTION('',(1.,0.,0.));
#1632=DIRECTION('',(0.,1.,0.));
#1633=DIRECTION('',(0.,0.,0.999999999999996));
#1634=DIRECTION('',(0.,1.,0.));
#1635=DIRECTION('',(1.,0.,0.));
#1636=DIRECTION('',(0.,0.,-1.));
#1637=DIRECTION('',(0.,1.,0.));
#1638=DIRECTION('',(-1.,0.,0.));
#1639=DIRECTION('',(0.,0.,1.));
#1640=DIRECTION('',(0.,0.,-1.));
#1641=DIRECTION('',(-1.,0.,0.));
#1642=CARTESIAN_POINT('',(0.,0.,0.));
#1643=CARTESIAN_POINT('',(208.203389830488,-554.5,681.));
#1644=CARTESIAN_POINT('',(-168.687003371866,-554.5,681.));
#1645=CARTESIAN_POINT('',(-208.203389830508,-554.5,681.));
#1646=CARTESIAN_POINT('',(-352.141805631753,-554.5,37.9999999999997));
#1647=CARTESIAN_POINT('',(-228.690376340134,-554.5,470.691148210121));
#1648=CARTESIAN_POINT('',(-228.690376340134,-554.5,470.691148210121));
#1649=CARTESIAN_POINT('',(-265.232179106246,-554.5,481.11691679593));
#1650=CARTESIAN_POINT('',(-402.5,-554.5,0.));
#1651=CARTESIAN_POINT('',(0.,-554.5,0.));
#1652=CARTESIAN_POINT('',(208.203389830488,-554.5,681.));
#1653=CARTESIAN_POINT('',(208.203389830508,-554.5,681.));
#1654=CARTESIAN_POINT('',(168.687003371866,-554.5,681.));
#1655=CARTESIAN_POINT('',(150.,-554.5,885.));
#1656=CARTESIAN_POINT('',(265.232179106199,-554.5,481.116916795916));
#1657=CARTESIAN_POINT('',(265.232179106199,-554.5,481.116916795916));
#1658=CARTESIAN_POINT('',(228.690376340163,-554.5,470.691148210129));
#1659=CARTESIAN_POINT('',(121.325421450962,-554.5,847.));
#1660=CARTESIAN_POINT('',(0.,-554.5,0.));
#1661=CARTESIAN_POINT('',(-388.781883439733,-554.5,48.081319429056));
#1662=CARTESIAN_POINT('',(-352.240080673588,-554.5,37.6555508432395));
#1663=CARTESIAN_POINT('',(-388.781883439733,-554.5,48.0813194290559));
#1664=CARTESIAN_POINT('',(-352.240080673588,-554.5,37.6555508432395));
#1665=CARTESIAN_POINT('',(-352.141805631753,-554.5,37.9999999999997));
#1666=CARTESIAN_POINT('',(352.141805631753,-554.5,38.0000000000003));
#1667=CARTESIAN_POINT('',(352.141805631753,-554.5,38.0000000000004));
#1668=CARTESIAN_POINT('',(341.814312087799,-554.5,74.1973536092887));
#1669=CARTESIAN_POINT('',(352.240080673588,-554.5,37.6555508432395));
#1670=CARTESIAN_POINT('',(352.240080673588,-554.5,37.6555508432395));
#1671=CARTESIAN_POINT('',(388.781883439637,-554.5,48.0813194290287));
#1672=CARTESIAN_POINT('',(150.,-554.5,885.));
#1673=CARTESIAN_POINT('',(402.5,-554.5,0.));
#1674=CARTESIAN_POINT('',(402.5,-554.5,4.1740648470554E-14));
#1675=CARTESIAN_POINT('',(-402.5,-554.5,0.));
#1676=CARTESIAN_POINT('',(-402.5,-554.5,0.));
#1677=CARTESIAN_POINT('',(0.,-554.5,0.));
#1678=CARTESIAN_POINT('',(-341.814312087799,-554.5,74.1973536092887));
#1679=CARTESIAN_POINT('',(-378.356114853939,-554.5,84.6231221951039));
#1680=CARTESIAN_POINT('',(-341.814312087799,-554.5,74.1973536092887));
#1681=CARTESIAN_POINT('',(-402.5,-554.5,0.));
#1682=CARTESIAN_POINT('',(-275.657947692039,-554.5,444.575114029882));
#1683=CARTESIAN_POINT('',(-275.65794769199,-554.5,444.575114029868));
#1684=CARTESIAN_POINT('',(-239.116144925956,-554.5,434.149345444081));
#1685=CARTESIAN_POINT('',(-352.141805631753,-554.5,37.9999999999997));
#1686=CARTESIAN_POINT('',(0.,-554.5,0.));
#1687=CARTESIAN_POINT('',(239.116144925925,-554.5,434.149345444072));
#1688=CARTESIAN_POINT('',(275.657947692039,-554.5,444.575114029882));
#1689=CARTESIAN_POINT('',(239.116144925956,-554.5,434.149345444081));
#1690=CARTESIAN_POINT('',(150.,-554.5,885.));
#1691=CARTESIAN_POINT('',(378.356114853848,-554.5,84.6231221950779));
#1692=CARTESIAN_POINT('',(378.356114853848,-554.5,84.6231221950779));
#1693=CARTESIAN_POINT('',(341.814312087799,-554.5,74.1973536092887));
#1694=CARTESIAN_POINT('',(121.325421450962,-554.5,847.));
#1695=CARTESIAN_POINT('',(0.,-554.5,0.));
#1696=CARTESIAN_POINT('',(-239.116144925925,-5489.55,434.149345444072));
#1697=CARTESIAN_POINT('',(-239.116144925925,554.5,434.149345444072));
#1698=CARTESIAN_POINT('',(-352.141805631753,554.5,37.9999999999997));
#1699=CARTESIAN_POINT('',(-341.814312087799,554.5,74.1973536092887));
#1700=CARTESIAN_POINT('',(-341.814312087799,-5489.55,74.1973536092887));
#1701=CARTESIAN_POINT('',(-352.141805631753,-592.5,37.9999999999997));
#1702=CARTESIAN_POINT('',(-352.141805631753,-592.5,37.9999999999997));
#1703=CARTESIAN_POINT('',(-352.240080673588,-5489.55,37.6555508432395));
#1704=CARTESIAN_POINT('',(-352.240080673588,554.5,37.6555508432395));
#1705=CARTESIAN_POINT('',(-352.240080673588,554.5,37.6555508432395));
#1706=CARTESIAN_POINT('',(-352.141805631688,554.5,37.9999999999997));
#1707=CARTESIAN_POINT('',(-352.141805631753,592.5,37.9999999999997));
#1708=CARTESIAN_POINT('',(-352.141805631753,592.5,37.9999999999997));
#1709=CARTESIAN_POINT('',(-352.141805631753,592.5,37.9999999999997));
#1710=CARTESIAN_POINT('',(-121.325421450962,592.5,847.));
#1711=CARTESIAN_POINT('',(-121.325421450962,592.5,847.));
#1712=CARTESIAN_POINT('',(-121.325421450962,554.5,847.));
#1713=CARTESIAN_POINT('',(-352.141805631753,554.5,37.9999999999997));
#1714=CARTESIAN_POINT('',(-228.690376340134,554.5,470.691148210121));
#1715=CARTESIAN_POINT('',(-228.690376340134,-5489.55,470.691148210121));
#1716=CARTESIAN_POINT('',(-352.141805631753,-554.5,37.9999999999997));
#1717=CARTESIAN_POINT('',(-157.845195462262,-554.5,719.));
#1718=CARTESIAN_POINT('',(-352.141805631753,-554.5,37.9999999999997));
#1719=CARTESIAN_POINT('',(-121.325421450962,-554.5,847.));
#1720=CARTESIAN_POINT('',(-121.325421450962,-592.5,847.));
#1721=CARTESIAN_POINT('',(-121.325421450962,-592.5,847.));
#1722=CARTESIAN_POINT('',(-352.141805631753,-592.5,37.9999999999997));
#1723=CARTESIAN_POINT('',(-352.141805631753,-592.5,37.9999999999997));
#1724=CARTESIAN_POINT('',(352.141805631753,-592.5,38.0000000000003));
#1725=CARTESIAN_POINT('',(352.141805631753,-592.5,38.0000000000004));
#1726=CARTESIAN_POINT('',(352.141805631753,-592.5,38.0000000000004));
#1727=CARTESIAN_POINT('',(352.141805631753,-592.5,38.0000000000003));
#1728=CARTESIAN_POINT('',(121.325421450962,-554.5,847.));
#1729=CARTESIAN_POINT('',(121.325421450962,-554.5,847.));
#1730=CARTESIAN_POINT('',(157.845195462262,-554.5,719.));
#1731=CARTESIAN_POINT('',(121.325421450962,-554.5,847.));
#1732=CARTESIAN_POINT('',(228.690376340134,-5489.55,470.691148210121));
#1733=CARTESIAN_POINT('',(228.690376340134,554.5,470.691148210121));
#1734=CARTESIAN_POINT('',(121.325421450962,554.5,847.));
#1735=CARTESIAN_POINT('',(121.325421450962,554.5,847.));
#1736=CARTESIAN_POINT('',(121.325421450962,592.5,847.));
#1737=CARTESIAN_POINT('',(121.325421450962,592.5,847.));
#1738=CARTESIAN_POINT('',(121.325421450962,592.5,847.));
#1739=CARTESIAN_POINT('',(352.141805631753,592.5,38.0000000000004));
#1740=CARTESIAN_POINT('',(352.141805631753,592.5,38.0000000000004));
#1741=CARTESIAN_POINT('',(352.141805631688,554.5,38.0000000000003));
#1742=CARTESIAN_POINT('',(341.814312087799,554.5,74.1973536092887));
#1743=CARTESIAN_POINT('',(352.240080673588,554.5,37.6555508432395));
#1744=CARTESIAN_POINT('',(352.240080673588,-5489.55,37.6555508432395));
#1745=CARTESIAN_POINT('',(121.325421450962,-592.5,847.));
#1746=CARTESIAN_POINT('',(121.325421450962,-592.5,847.));
#1747=CARTESIAN_POINT('',(121.325421450962,-592.5,847.));
#1748=CARTESIAN_POINT('',(239.116144925925,-5489.55,434.149345444072));
#1749=CARTESIAN_POINT('',(239.116144925925,554.5,434.149345444072));
#1750=CARTESIAN_POINT('',(341.814312087799,-5489.55,74.1973536092887));
#1751=CARTESIAN_POINT('',(341.814312087799,554.5,74.1973536092887));
#1752=CARTESIAN_POINT('',(121.325421450962,554.5,847.));
#1753=CARTESIAN_POINT('',(121.325421450962,-592.5,847.));
#1754=CARTESIAN_POINT('',(-378.356114853848,-5489.55,84.6231221950779));
#1755=CARTESIAN_POINT('',(-378.356114853848,554.5,84.6231221950779));
#1756=CARTESIAN_POINT('',(-402.5,554.5,0.));
#1757=CARTESIAN_POINT('',(-275.657947692039,554.5,444.575114029882));
#1758=CARTESIAN_POINT('',(-275.65794769199,-5489.55,444.575114029868));
#1759=CARTESIAN_POINT('',(-402.5,-592.5,0.));
#1760=CARTESIAN_POINT('',(-402.5,-592.5,0.));
#1761=CARTESIAN_POINT('',(-402.5,-592.5,0.));
#1762=CARTESIAN_POINT('',(-150.,-592.5,885.));
#1763=CARTESIAN_POINT('',(-150.,-592.5,885.));
#1764=CARTESIAN_POINT('',(-150.,-554.5,885.));
#1765=CARTESIAN_POINT('',(-402.5,-554.5,0.));
#1766=CARTESIAN_POINT('',(-197.361581920904,-554.5,719.));
#1767=CARTESIAN_POINT('',(-197.361581920906,3881.5,719.));
#1768=CARTESIAN_POINT('',(-197.361581920906,-516.5,719.));
#1769=CARTESIAN_POINT('',(-208.203389830511,-516.5,681.));
#1770=CARTESIAN_POINT('',(-208.203389830511,-516.5,681.));
#1771=CARTESIAN_POINT('',(-208.203389830511,3881.5,681.));
#1772=CARTESIAN_POINT('',(-265.232179106199,-5489.55,481.116916795916));
#1773=CARTESIAN_POINT('',(-265.232179106199,554.5,481.116916795916));
#1774=CARTESIAN_POINT('',(-402.5,554.5,0.));
#1775=CARTESIAN_POINT('',(-150.,554.5,885.));
#1776=CARTESIAN_POINT('',(-150.,592.5,885.));
#1777=CARTESIAN_POINT('',(-150.,592.5,885.));
#1778=CARTESIAN_POINT('',(-402.5,592.5,0.));
#1779=CARTESIAN_POINT('',(-402.5,592.5,0.));
#1780=CARTESIAN_POINT('',(-402.5,592.5,0.));
#1781=CARTESIAN_POINT('',(-402.5,554.5,0.));
#1782=CARTESIAN_POINT('',(-402.5,554.5,0.));
#1783=CARTESIAN_POINT('',(-388.781883439733,554.5,48.081319429056));
#1784=CARTESIAN_POINT('',(-388.781883439637,-5489.55,48.0813194290287));
#1785=CARTESIAN_POINT('',(-402.5,-592.5,0.));
#1786=CARTESIAN_POINT('',(-150.,-554.5,885.));
#1787=CARTESIAN_POINT('',(150.,-554.5,885.));
#1788=CARTESIAN_POINT('',(-150.,-592.5,885.));
#1789=CARTESIAN_POINT('',(150.,-592.5,885.));
#1790=CARTESIAN_POINT('',(150.,-592.5,885.));
#1791=CARTESIAN_POINT('',(-150.,-592.5,885.));
#1792=CARTESIAN_POINT('',(275.65794769199,-5489.55,444.575114029868));
#1793=CARTESIAN_POINT('',(275.65794769199,554.5,444.575114029868));
#1794=CARTESIAN_POINT('',(150.,554.5,885.));
#1795=CARTESIAN_POINT('',(378.356114853848,554.5,84.6231221950779));
#1796=CARTESIAN_POINT('',(378.356114853848,-5489.55,84.6231221950779));
#1797=CARTESIAN_POINT('',(150.,-554.5,885.));
#1798=CARTESIAN_POINT('',(197.361581920883,-554.5,719.));
#1799=CARTESIAN_POINT('',(150.,-592.5,885.));
#1800=CARTESIAN_POINT('',(402.5,-592.5,0.));
#1801=CARTESIAN_POINT('',(402.5,-592.5,0.));
#1802=CARTESIAN_POINT('',(388.781883439637,-5489.55,48.0813194290287));
#1803=CARTESIAN_POINT('',(388.781883439637,554.5,48.0813194290287));
#1804=CARTESIAN_POINT('',(150.,554.5,885.));
#1805=CARTESIAN_POINT('',(402.5,554.5,0.));
#1806=CARTESIAN_POINT('',(402.5,592.5,0.));
#1807=CARTESIAN_POINT('',(402.5,592.5,0.));
#1808=CARTESIAN_POINT('',(150.,592.5,885.));
#1809=CARTESIAN_POINT('',(150.,592.5,885.));
#1810=CARTESIAN_POINT('',(150.,592.5,885.));
#1811=CARTESIAN_POINT('',(150.,554.5,885.));
#1812=CARTESIAN_POINT('',(150.,554.5,885.));
#1813=CARTESIAN_POINT('',(265.232179106246,554.5,481.11691679593));
#1814=CARTESIAN_POINT('',(265.232179106199,-5489.55,481.116916795916));
#1815=CARTESIAN_POINT('',(208.203389830488,3881.5,681.));
#1816=CARTESIAN_POINT('',(208.203389830488,-516.5,681.));
#1817=CARTESIAN_POINT('',(197.361581920883,-516.5,719.));
#1818=CARTESIAN_POINT('',(197.361581920883,-516.5,719.));
#1819=CARTESIAN_POINT('',(197.361581920883,3881.5,719.));
#1820=CARTESIAN_POINT('',(150.,-592.5,885.));
#1821=CARTESIAN_POINT('',(402.5,-592.5,4.1740648470554E-14));
#1822=CARTESIAN_POINT('',(402.5,-592.5,4.1740648470554E-14));
#1823=CARTESIAN_POINT('',(-121.325421450962,-554.5,847.));
#1824=CARTESIAN_POINT('',(-121.325421450962,-592.5,847.));
#1825=CARTESIAN_POINT('',(-121.325421450962,-592.5,847.));
#1826=CARTESIAN_POINT('',(0.,-592.5,0.));
#1827=CARTESIAN_POINT('',(-197.361581920906,-554.5,719.));
#1828=CARTESIAN_POINT('',(-197.361581920906,-554.5,719.));
#1829=CARTESIAN_POINT('',(0.,-554.5,0.));
#1830=CARTESIAN_POINT('',(-388.781883439733,554.5,48.081319429056));
#1831=CARTESIAN_POINT('',(-388.781883439733,-5489.55,48.081319429056));
#1832=CARTESIAN_POINT('',(-341.814312087799,554.5,74.1973536092887));
#1833=CARTESIAN_POINT('',(-341.814312087799,-5489.55,74.1973536092887));
#1834=CARTESIAN_POINT('',(-275.65794769199,554.5,444.575114029868));
#1835=CARTESIAN_POINT('',(-275.65794769199,-5489.55,444.575114029868));
#1836=CARTESIAN_POINT('',(-228.690376340134,554.5,470.691148210121));
#1837=CARTESIAN_POINT('',(-228.690376340134,-5489.55,470.691148210121));
#1838=CARTESIAN_POINT('',(275.65794769199,554.5,444.575114029868));
#1839=CARTESIAN_POINT('',(239.116144925925,-5489.55,434.149345444072));
#1840=CARTESIAN_POINT('',(228.690376340134,554.5,470.691148210121));
#1841=CARTESIAN_POINT('',(265.232179106199,-5489.55,481.116916795916));
#1842=CARTESIAN_POINT('',(352.240080673588,554.5,37.6555508432395));
#1843=CARTESIAN_POINT('',(352.240080673588,-5489.55,37.6555508432395));
#1844=CARTESIAN_POINT('',(378.356114853848,554.5,84.6231221950779));
#1845=CARTESIAN_POINT('',(378.356114853848,-5489.55,84.6231221950779));
#1846=CARTESIAN_POINT('',(0.,554.5,0.));
#1847=CARTESIAN_POINT('',(352.141805631753,554.5,38.0000000000003));
#1848=CARTESIAN_POINT('',(402.5,554.5,4.1740648470554E-14));
#1849=CARTESIAN_POINT('',(0.,554.5,0.));
#1850=CARTESIAN_POINT('',(-150.,554.5,885.));
#1851=CARTESIAN_POINT('',(-121.325421450962,554.5,847.));
#1852=CARTESIAN_POINT('',(0.,554.5,0.));
#1853=CARTESIAN_POINT('',(352.141805631753,592.5,38.0000000000003));
#1854=CARTESIAN_POINT('',(352.141805631753,592.5,38.0000000000003));
#1855=CARTESIAN_POINT('',(-150.,592.5,885.));
#1856=CARTESIAN_POINT('',(-150.,592.5,885.));
#1857=CARTESIAN_POINT('',(402.5,592.5,4.1740648470554E-14));
#1858=CARTESIAN_POINT('',(402.5,592.5,4.1740648470554E-14));
#1859=CARTESIAN_POINT('',(-121.325421450962,592.5,847.));
#1860=CARTESIAN_POINT('',(-121.325421450962,592.5,847.));
#1861=CARTESIAN_POINT('',(0.,592.5,0.));
#1862=CARTESIAN_POINT('',(0.,554.5,0.));
#1863=CARTESIAN_POINT('',(1.11022302462516E-13,-516.5,700.));
#1864=CARTESIAN_POINT('',(1.11022302462516E-13,-516.5,707.5));
#1865=CARTESIAN_POINT('',(-197.361581920906,-516.5,719.));
#1866=CARTESIAN_POINT('',(208.203389830488,-516.5,681.));
#1867=CARTESIAN_POINT('',(0.,-516.5,0.));
#1868=CARTESIAN_POINT('',(-197.361581920906,-554.5,719.));
#1869=CARTESIAN_POINT('',(-197.361581920906,3881.5,719.));
#1870=CARTESIAN_POINT('',(1.11022302462516E-13,-554.5,700.));
#1871=CARTESIAN_POINT('',(1.11022302462516E-13,-554.5,707.5));
#1872=CARTESIAN_POINT('',(1.11022302462516E-13,3881.5,700.));
#1873=CARTESIAN_POINT('',(208.203389830488,-554.5,681.));
#1874=CARTESIAN_POINT('',(208.203389830488,3881.5,681.));
#1875=CARTESIAN_POINT('',(0.,-554.5,0.));
#1876=CARTESIAN_POINT('',(0.,-554.5,922.));
#1877=CARTESIAN_POINT('',(0.,-554.5,934.5));
#1878=CARTESIAN_POINT('',(-50.,-554.5,885.));
#1879=CARTESIAN_POINT('',(-50.,-554.5,885.));
#1880=CARTESIAN_POINT('',(50.,-554.5,885.));
#1881=CARTESIAN_POINT('',(-50.,-554.5,895.));
#1882=CARTESIAN_POINT('',(-50.,-554.5,895.));
#1883=CARTESIAN_POINT('',(-22.5,-554.5,895.));
#1884=CARTESIAN_POINT('',(-22.5,-554.5,895.));
#1885=CARTESIAN_POINT('',(-22.5,-554.5,922.));
#1886=CARTESIAN_POINT('',(-22.5,-554.5,922.));
#1887=CARTESIAN_POINT('',(0.,-554.5,922.));
#1888=CARTESIAN_POINT('',(22.5,-554.5,922.));
#1889=CARTESIAN_POINT('',(22.5,-554.5,895.));
#1890=CARTESIAN_POINT('',(22.5,-554.5,895.));
#1891=CARTESIAN_POINT('',(50.,-554.5,895.));
#1892=CARTESIAN_POINT('',(50.,-554.5,895.));
#1893=CARTESIAN_POINT('',(50.,-554.5,885.));
#1894=CARTESIAN_POINT('',(0.,-554.5,0.));
#1895=CARTESIAN_POINT('',(50.,4269.65,885.));
#1896=CARTESIAN_POINT('',(50.,-592.5,885.));
#1897=CARTESIAN_POINT('',(50.,4269.65,895.));
#1898=CARTESIAN_POINT('',(50.,-592.5,895.));
#1899=CARTESIAN_POINT('',(50.,-592.5,885.));
#1900=CARTESIAN_POINT('',(50.,4269.65,885.));
#1901=CARTESIAN_POINT('',(22.5,4269.65,895.));
#1902=CARTESIAN_POINT('',(22.5,-592.5,895.));
#1903=CARTESIAN_POINT('',(50.,-592.5,895.));
#1904=CARTESIAN_POINT('',(50.,4269.65,895.));
#1905=CARTESIAN_POINT('',(22.5,4269.65,922.));
#1906=CARTESIAN_POINT('',(22.5,-592.5,922.));
#1907=CARTESIAN_POINT('',(22.5,-592.5,895.));
#1908=CARTESIAN_POINT('',(22.5,4269.65,895.));
#1909=CARTESIAN_POINT('',(-50.,4269.65,885.));
#1910=CARTESIAN_POINT('',(-50.,-592.5,885.));
#1911=CARTESIAN_POINT('',(-50.,-592.5,885.));
#1912=CARTESIAN_POINT('',(-50.,4269.65,885.));
#1913=CARTESIAN_POINT('',(-22.5,4269.65,922.));
#1914=CARTESIAN_POINT('',(-22.5,-592.5,922.));
#1915=CARTESIAN_POINT('',(0.,-592.5,922.));
#1916=CARTESIAN_POINT('',(0.,4269.65,922.));
#1917=CARTESIAN_POINT('',(-50.,-592.5,895.));
#1918=CARTESIAN_POINT('',(-50.,-592.5,895.));
#1919=CARTESIAN_POINT('',(-22.5,-592.5,922.));
#1920=CARTESIAN_POINT('',(-22.5,-592.5,895.));
#1921=CARTESIAN_POINT('',(-22.5,-592.5,895.));
#1922=CARTESIAN_POINT('',(0.,-592.5,922.));
#1923=CARTESIAN_POINT('',(0.,-592.5,934.5));
#1924=CARTESIAN_POINT('',(0.,-592.5,0.));
#1925=CARTESIAN_POINT('',(-50.,4269.65,895.));
#1926=CARTESIAN_POINT('',(-50.,4269.65,895.));
#1927=CARTESIAN_POINT('',(-22.5,4269.65,895.));
#1928=CARTESIAN_POINT('',(-22.5,4269.65,922.));
#1929=CARTESIAN_POINT('',(-22.5,4269.65,895.));
#1930=CARTESIAN_POINT('',(0.,4269.65,922.));
#1931=CARTESIAN_POINT('',(0.,554.5,922.));
#1932=CARTESIAN_POINT('',(0.,554.5,934.5));
#1933=CARTESIAN_POINT('',(-50.,554.5,895.));
#1934=CARTESIAN_POINT('',(-22.5,554.5,895.));
#1935=CARTESIAN_POINT('',(-50.,554.5,895.));
#1936=CARTESIAN_POINT('',(-50.,554.5,885.));
#1937=CARTESIAN_POINT('',(-50.,554.5,885.));
#1938=CARTESIAN_POINT('',(50.,554.5,885.));
#1939=CARTESIAN_POINT('',(50.,554.5,885.));
#1940=CARTESIAN_POINT('',(50.,554.5,895.));
#1941=CARTESIAN_POINT('',(50.,554.5,895.));
#1942=CARTESIAN_POINT('',(22.5,554.5,895.));
#1943=CARTESIAN_POINT('',(22.5,554.5,895.));
#1944=CARTESIAN_POINT('',(22.5,554.5,922.));
#1945=CARTESIAN_POINT('',(22.5,554.5,922.));
#1946=CARTESIAN_POINT('',(0.,554.5,922.));
#1947=CARTESIAN_POINT('',(-22.5,554.5,922.));
#1948=CARTESIAN_POINT('',(-22.5,554.5,895.));
#1949=CARTESIAN_POINT('',(0.,554.5,0.));
#1950=CARTESIAN_POINT('',(0.,592.5,922.));
#1951=CARTESIAN_POINT('',(0.,592.5,934.5));
#1952=CARTESIAN_POINT('',(-50.,592.5,885.));
#1953=CARTESIAN_POINT('',(-50.,592.5,895.));
#1954=CARTESIAN_POINT('',(-50.,592.5,885.));
#1955=CARTESIAN_POINT('',(-50.,592.5,895.));
#1956=CARTESIAN_POINT('',(-22.5,592.5,895.));
#1957=CARTESIAN_POINT('',(-22.5,592.5,895.));
#1958=CARTESIAN_POINT('',(-22.5,592.5,922.));
#1959=CARTESIAN_POINT('',(0.,592.5,922.));
#1960=CARTESIAN_POINT('',(22.5,592.5,922.));
#1961=CARTESIAN_POINT('',(22.5,592.5,922.));
#1962=CARTESIAN_POINT('',(22.5,592.5,895.));
#1963=CARTESIAN_POINT('',(22.5,592.5,895.));
#1964=CARTESIAN_POINT('',(50.,592.5,895.));
#1965=CARTESIAN_POINT('',(50.,592.5,895.));
#1966=CARTESIAN_POINT('',(50.,592.5,885.));
#1967=CARTESIAN_POINT('',(50.,592.5,885.));
#1968=CARTESIAN_POINT('',(0.,592.5,0.));
#1969=CARTESIAN_POINT('',(-22.5,-4269.65,895.));
#1970=CARTESIAN_POINT('',(-50.,-4269.65,895.));
#1971=CARTESIAN_POINT('',(-50.,-4269.65,895.));
#1972=CARTESIAN_POINT('',(-22.5,-4269.65,922.));
#1973=CARTESIAN_POINT('',(-22.5,-4269.65,895.));
#1974=CARTESIAN_POINT('',(22.5,-4269.65,922.));
#1975=CARTESIAN_POINT('',(0.,-4269.65,922.));
#1976=CARTESIAN_POINT('',(22.5,-4269.65,895.));
#1977=CARTESIAN_POINT('',(22.5,-4269.65,922.));
#1978=CARTESIAN_POINT('',(50.,-4269.65,895.));
#1979=CARTESIAN_POINT('',(22.5,-4269.65,895.));
#1980=CARTESIAN_POINT('',(0.,-4269.65,922.));
#1981=CARTESIAN_POINT('',(50.,-4269.65,885.));
#1982=CARTESIAN_POINT('',(50.,-4269.65,895.));
#1983=CARTESIAN_POINT('',(-50.,-4269.65,885.));
#1984=CARTESIAN_POINT('',(-50.,-4269.65,885.));
#1985=CARTESIAN_POINT('',(50.,-4269.65,885.));
#1986=MECHANICAL_DESIGN_GEOMETRIC_PRESENTATION_REPRESENTATION('',(#24,#25,
#26),#1987);
#1987=(
GEOMETRIC_REPRESENTATION_CONTEXT(3)
GLOBAL_UNCERTAINTY_ASSIGNED_CONTEXT((#1988))
GLOBAL_UNIT_ASSIGNED_CONTEXT((#1994,#1990,#1989))
REPRESENTATION_CONTEXT('W_WS_M_02_frame','TOP_LEVEL_ASSEMBLY_PART')
);
#1988=UNCERTAINTY_MEASURE_WITH_UNIT(LENGTH_MEASURE(2.E-5),#1994,
'DISTANCE_ACCURACY_VALUE','Maximum Tolerance applied to model');
#1989=(
NAMED_UNIT(*)
SI_UNIT($,.STERADIAN.)
SOLID_ANGLE_UNIT()
);
#1990=(
CONVERSION_BASED_UNIT('DEGREE',#1992)
NAMED_UNIT(#1991)
PLANE_ANGLE_UNIT()
);
#1991=DIMENSIONAL_EXPONENTS(0.,0.,0.,0.,0.,0.,0.);
#1992=PLANE_ANGLE_MEASURE_WITH_UNIT(PLANE_ANGLE_MEASURE(0.0174532925),#1993);
#1993=(
NAMED_UNIT(*)
PLANE_ANGLE_UNIT()
SI_UNIT($,.RADIAN.)
);
#1994=(
LENGTH_UNIT()
NAMED_UNIT(*)
SI_UNIT(.MILLI.,.METRE.)
);
ENDSEC;
END-ISO-10303-21;
