ISO-10303-21;
HEADER;
/* Generated by software containing ST-Developer
 * from STEP Tools, Inc. (www.steptools.com) 
 */
/* OPTION: using custom schema-name function */

FILE_DESCRIPTION(
/* description */ (''),
/* implementation_level */ '2;1');

FILE_NAME(
/* name */ 'W_WS_M_03_crank.stp',
/* time_stamp */ '2025-11-20T09:28:26+01:00',
/* author */ (''),
/* organization */ (''),
/* preprocessor_version */ 'ST-DEVELOPER v18.1',
/* originating_system */ 'SIEMENS PLM Software NX 1988',
/* authorisation */ '');

FILE_SCHEMA (('AUTOMOTIVE_DESIGN { 1 0 10303 214 3 1 1 1 }'));
ENDSEC;

DATA;
#10=SHAPE_REPRESENTATION_RELATIONSHIP('None',
'relationship between W_WS_M_03_crank-None and W_WS_M_03_crank-None',#22,
#11);
#11=ADVANCED_BREP_SHAPE_REPRESENTATION('W_WS_M_03_crank-None',(#32),#515);
#12=SHAPE_DEFINITION_REPRESENTATION(#13,#22);
#13=PRODUCT_DEFINITION_SHAPE('','',#14);
#14=PRODUCT_DEFINITION(' ','',#16,#15);
#15=PRODUCT_DEFINITION_CONTEXT('part definition',#21,'design');
#16=PRODUCT_DEFINITION_FORMATION_WITH_SPECIFIED_SOURCE(' ',' ',#18,
 .NOT_KNOWN.);
#17=PRODUCT_RELATED_PRODUCT_CATEGORY('part','',(#18));
#18=PRODUCT('W_WS_M_03_crank','W_WS_M_03_crank',' ',(#19));
#19=PRODUCT_CONTEXT(' ',#21,'mechanical');
#20=APPLICATION_PROTOCOL_DEFINITION('international standard',
'automotive_design',2010,#21);
#21=APPLICATION_CONTEXT(
'core data for automotive mechanical design processes');
#22=SHAPE_REPRESENTATION('W_WS_M_03_crank-None',(#161),#515);
#23=PRESENTATION_LAYER_ASSIGNMENT('1','Layer 1',(#32));
#24=STYLED_ITEM('',(#25),#32);
#25=PRESENTATION_STYLE_ASSIGNMENT((#26));
#26=SURFACE_STYLE_USAGE(.BOTH.,#27);
#27=SURFACE_SIDE_STYLE('',(#28));
#28=SURFACE_STYLE_FILL_AREA(#29);
#29=FILL_AREA_STYLE('',(#30));
#30=FILL_AREA_STYLE_COLOUR('',#31);
#31=COLOUR_RGB('medium steel',0.596078431372549,0.666666666666667,0.686274509803922);
#32=MANIFOLD_SOLID_BREP('',#33);
#33=CLOSED_SHELL('',(#43,#44,#45,#46,#47,#48,#49,#50,#51,#52));
#34=FACE_OUTER_BOUND('',#100,.T.);
#35=FACE_OUTER_BOUND('',#101,.T.);
#36=ELLIPSE('',#170,17.6776695296637,12.5);
#37=ELLIPSE('',#171,17.6776695296637,12.5);
#38=ELLIPSE('',#174,17.6776695296637,12.5);
#39=PLANE('',#168);
#40=PLANE('',#169);
#41=PLANE('',#176);
#42=PLANE('',#177);
#43=ADVANCED_FACE('',(#64,#65,#66,#67),#53,.T.);
#44=ADVANCED_FACE('',(#68,#69,#70,#71),#54,.F.);
#45=ADVANCED_FACE('',(#72,#73),#39,.T.);
#46=ADVANCED_FACE('',(#74,#75),#40,.F.);
#47=ADVANCED_FACE('',(#76,#77),#55,.T.);
#48=ADVANCED_FACE('',(#78,#79),#56,.T.);
#49=ADVANCED_FACE('',(#34),#41,.F.);
#50=ADVANCED_FACE('',(#35),#42,.T.);
#51=ADVANCED_FACE('',(#80,#81),#57,.F.);
#52=ADVANCED_FACE('',(#82,#83),#58,.F.);
#53=CYLINDRICAL_SURFACE('',#164,15.5);
#54=CYLINDRICAL_SURFACE('',#167,12.5);
#55=CYLINDRICAL_SURFACE('',#172,12.5);
#56=CYLINDRICAL_SURFACE('',#175,12.5);
#57=CYLINDRICAL_SURFACE('',#178,3.);
#58=CYLINDRICAL_SURFACE('',#179,3.);
#59=B_SPLINE_CURVE_WITH_KNOTS('',3,(#223,#224,#225,#226,#227,#228,#229,
#230,#231,#232,#233,#234,#235,#236,#237,#238,#239,#240,#241,#242,#243,#244,
#245,#246,#247,#248,#249,#250,#251,#252,#253,#254,#255,#256),
 .UNSPECIFIED.,.T.,.F.,(2,2,2,2,2,2,2,2,2,2,2,2,2,2,2,2,2,2,2),(-0.0624999999999999,
0.,0.0625000000000001,0.125,0.1875,0.25,0.3125,0.375,0.4375,0.5,0.5625,
0.625,0.6875,0.75,0.8125,0.875,0.9375,1.,1.0625),.UNSPECIFIED.);
#60=B_SPLINE_CURVE_WITH_KNOTS('',3,(#257,#258,#259,#260,#261,#262,#263,
#264,#265,#266,#267,#268,#269,#270,#271,#272,#273,#274,#275,#276,#277,#278,
#279,#280,#281,#282,#283,#284,#285,#286,#287,#288,#289,#290,#291,#292,#293,
#294,#295,#296,#297,#298,#299,#300,#301,#302,#303,#304,#305,#306,#307,#308,
#309,#310,#311,#312,#313,#314),.UNSPECIFIED.,.T.,.F.,(1,3,3,3,3,3,3,3,3,
3,3,3,3,3,3,3,3,3,3,3,3,1),(-0.039652067011304,0.,0.0530274127658219,0.106014203283791,
0.159612573253101,0.213683514815616,0.267079049670577,0.319700438639031,
0.372656838462669,0.426525760815435,0.480479682384273,0.53356865698344,
0.586196339587756,0.639440770690826,0.693463345399847,0.747213584091094,
0.800029836588549,0.852722741411941,0.906275654950786,0.960347932988696,
1.,1.05302741276582),.UNSPECIFIED.);
#61=B_SPLINE_CURVE_WITH_KNOTS('',3,(#316,#317,#318,#319,#320,#321,#322,
#323,#324,#325,#326,#327,#328,#329,#330,#331,#332,#333,#334,#335,#336,#337,
#338,#339,#340,#341,#342,#343,#344,#345,#346,#347,#348,#349,#350,#351,#352,
#353,#354,#355,#356,#357,#358,#359,#360,#361,#362,#363,#364,#365,#366,#367,
#368,#369,#370,#371,#372,#373),.UNSPECIFIED.,.T.,.F.,(1,3,3,3,3,3,3,3,3,
3,3,3,3,3,3,3,3,3,3,3,3,1),(-0.039652067011304,0.,0.0530274127658219,0.106014203283791,
0.159612573253101,0.213683514815616,0.267079049670577,0.319700438639031,
0.372656838462669,0.426525760815435,0.480479682384273,0.53356865698344,
0.586196339587756,0.639440770690826,0.693463345399847,0.747213584091094,
0.800029836588549,0.852722741411941,0.906275654950786,0.960347932988696,
1.,1.05302741276582),.UNSPECIFIED.);
#62=B_SPLINE_CURVE_WITH_KNOTS('',3,(#380,#381,#382,#383,#384,#385,#386,
#387,#388,#389,#390,#391,#392,#393,#394,#395,#396,#397,#398,#399,#400,#401,
#402,#403,#404,#405,#406,#407,#408,#409,#410,#411,#412,#413,#414,#415,#416,
#417,#418,#419,#420,#421,#422,#423,#424,#425,#426,#427,#428,#429,#430,#431,
#432,#433,#434,#435,#436,#437),.UNSPECIFIED.,.T.,.F.,(1,3,3,3,3,3,3,3,3,
3,3,3,3,3,3,3,3,3,3,3,3,1),(-0.0430768248287617,0.,0.0526690602310739,0.105277425037125,
0.158800832252268,0.213078517380453,0.266334022123757,0.318372024768374,
0.37089878291013,0.424834714907475,0.478947191550961,0.53175075510423,0.583814629466443,
0.636755236500794,0.69091957170057,0.744764219372041,0.797152067809309,
0.849256715223316,0.902645977588542,0.956923175171238,1.,1.05266906023107),
 .UNSPECIFIED.);
#63=B_SPLINE_CURVE_WITH_KNOTS('',3,(#439,#440,#441,#442,#443,#444,#445,
#446,#447,#448,#449,#450,#451,#452,#453,#454,#455,#456,#457,#458,#459,#460,
#461,#462,#463,#464,#465,#466,#467,#468,#469,#470,#471,#472,#473,#474,#475,
#476,#477,#478,#479,#480,#481,#482,#483,#484,#485,#486,#487,#488,#489,#490,
#491,#492,#493,#494,#495,#496),.UNSPECIFIED.,.T.,.F.,(1,3,3,3,3,3,3,3,3,
3,3,3,3,3,3,3,3,3,3,3,3,1),(-0.0430768248287617,0.,0.0526690602310739,0.105277425037125,
0.158800832252268,0.213078517380453,0.266334022123757,0.318372024768374,
0.37089878291013,0.424834714907475,0.478947191550961,0.53175075510423,0.583814629466443,
0.636755236500794,0.69091957170057,0.744764219372041,0.797152067809309,
0.849256715223316,0.902645977588542,0.956923175171238,1.,1.05266906023107),
 .UNSPECIFIED.);
#64=FACE_BOUND('',#84,.T.);
#65=FACE_BOUND('',#85,.T.);
#66=FACE_BOUND('',#86,.T.);
#67=FACE_BOUND('',#87,.T.);
#68=FACE_BOUND('',#88,.T.);
#69=FACE_BOUND('',#89,.T.);
#70=FACE_BOUND('',#90,.T.);
#71=FACE_BOUND('',#91,.T.);
#72=FACE_BOUND('',#92,.T.);
#73=FACE_BOUND('',#93,.T.);
#74=FACE_BOUND('',#94,.T.);
#75=FACE_BOUND('',#95,.T.);
#76=FACE_BOUND('',#96,.T.);
#77=FACE_BOUND('',#97,.T.);
#78=FACE_BOUND('',#98,.T.);
#79=FACE_BOUND('',#99,.T.);
#80=FACE_BOUND('',#102,.T.);
#81=FACE_BOUND('',#103,.T.);
#82=FACE_BOUND('',#104,.T.);
#83=FACE_BOUND('',#105,.T.);
#84=EDGE_LOOP('',(#106));
#85=EDGE_LOOP('',(#107,#108));
#86=EDGE_LOOP('',(#109));
#87=EDGE_LOOP('',(#110));
#88=EDGE_LOOP('',(#111));
#89=EDGE_LOOP('',(#112));
#90=EDGE_LOOP('',(#113));
#91=EDGE_LOOP('',(#114));
#92=EDGE_LOOP('',(#115));
#93=EDGE_LOOP('',(#116));
#94=EDGE_LOOP('',(#117));
#95=EDGE_LOOP('',(#118));
#96=EDGE_LOOP('',(#119,#120));
#97=EDGE_LOOP('',(#121));
#98=EDGE_LOOP('',(#122));
#99=EDGE_LOOP('',(#123,#124));
#100=EDGE_LOOP('',(#125));
#101=EDGE_LOOP('',(#126,#127));
#102=EDGE_LOOP('',(#128));
#103=EDGE_LOOP('',(#129));
#104=EDGE_LOOP('',(#130));
#105=EDGE_LOOP('',(#131));
#106=ORIENTED_EDGE('',*,*,#143,.T.);
#107=ORIENTED_EDGE('',*,*,#144,.F.);
#108=ORIENTED_EDGE('',*,*,#145,.F.);
#109=ORIENTED_EDGE('',*,*,#146,.F.);
#110=ORIENTED_EDGE('',*,*,#147,.F.);
#111=ORIENTED_EDGE('',*,*,#148,.F.);
#112=ORIENTED_EDGE('',*,*,#149,.T.);
#113=ORIENTED_EDGE('',*,*,#150,.F.);
#114=ORIENTED_EDGE('',*,*,#151,.F.);
#115=ORIENTED_EDGE('',*,*,#148,.T.);
#116=ORIENTED_EDGE('',*,*,#144,.T.);
#117=ORIENTED_EDGE('',*,*,#149,.F.);
#118=ORIENTED_EDGE('',*,*,#143,.F.);
#119=ORIENTED_EDGE('',*,*,#152,.F.);
#120=ORIENTED_EDGE('',*,*,#153,.T.);
#121=ORIENTED_EDGE('',*,*,#145,.T.);
#122=ORIENTED_EDGE('',*,*,#154,.T.);
#123=ORIENTED_EDGE('',*,*,#152,.T.);
#124=ORIENTED_EDGE('',*,*,#155,.T.);
#125=ORIENTED_EDGE('',*,*,#154,.F.);
#126=ORIENTED_EDGE('',*,*,#155,.F.);
#127=ORIENTED_EDGE('',*,*,#153,.F.);
#128=ORIENTED_EDGE('',*,*,#150,.T.);
#129=ORIENTED_EDGE('',*,*,#146,.T.);
#130=ORIENTED_EDGE('',*,*,#151,.T.);
#131=ORIENTED_EDGE('',*,*,#147,.T.);
#132=VERTEX_POINT('',#220);
#133=VERTEX_POINT('',#222);
#134=VERTEX_POINT('',#315);
#135=VERTEX_POINT('',#374);
#136=VERTEX_POINT('',#377);
#137=VERTEX_POINT('',#379);
#138=VERTEX_POINT('',#438);
#139=VERTEX_POINT('',#497);
#140=VERTEX_POINT('',#502);
#141=VERTEX_POINT('',#503);
#142=VERTEX_POINT('',#507);
#143=EDGE_CURVE('',#132,#132,#156,.T.);
#144=EDGE_CURVE('',#133,#133,#157,.T.);
#145=EDGE_CURVE('',#133,#133,#59,.T.);
#146=EDGE_CURVE('',#134,#134,#60,.T.);
#147=EDGE_CURVE('',#135,#135,#61,.T.);
#148=EDGE_CURVE('',#136,#136,#158,.T.);
#149=EDGE_CURVE('',#137,#137,#159,.T.);
#150=EDGE_CURVE('',#138,#138,#62,.T.);
#151=EDGE_CURVE('',#139,#139,#63,.T.);
#152=EDGE_CURVE('',#140,#141,#36,.T.);
#153=EDGE_CURVE('',#140,#141,#37,.T.);
#154=EDGE_CURVE('',#142,#142,#160,.T.);
#155=EDGE_CURVE('',#141,#140,#38,.T.);
#156=CIRCLE('',#162,15.5);
#157=CIRCLE('',#163,15.5);
#158=CIRCLE('',#165,12.5);
#159=CIRCLE('',#166,12.5);
#160=CIRCLE('',#173,12.5);
#161=AXIS2_PLACEMENT_3D('',#218,#180,#181);
#162=AXIS2_PLACEMENT_3D('',#219,#182,#183);
#163=AXIS2_PLACEMENT_3D('',#221,#184,#185);
#164=AXIS2_PLACEMENT_3D('',#375,#186,#187);
#165=AXIS2_PLACEMENT_3D('',#376,#188,#189);
#166=AXIS2_PLACEMENT_3D('',#378,#190,#191);
#167=AXIS2_PLACEMENT_3D('',#498,#192,#193);
#168=AXIS2_PLACEMENT_3D('',#499,#194,#195);
#169=AXIS2_PLACEMENT_3D('',#500,#196,#197);
#170=AXIS2_PLACEMENT_3D('',#501,#198,#199);
#171=AXIS2_PLACEMENT_3D('',#504,#200,#201);
#172=AXIS2_PLACEMENT_3D('',#505,#202,#203);
#173=AXIS2_PLACEMENT_3D('',#506,#204,#205);
#174=AXIS2_PLACEMENT_3D('',#508,#206,#207);
#175=AXIS2_PLACEMENT_3D('',#509,#208,#209);
#176=AXIS2_PLACEMENT_3D('',#510,#210,#211);
#177=AXIS2_PLACEMENT_3D('',#511,#212,#213);
#178=AXIS2_PLACEMENT_3D('',#512,#214,#215);
#179=AXIS2_PLACEMENT_3D('',#513,#216,#217);
#180=DIRECTION('',(0.,0.,1.));
#181=DIRECTION('',(1.,0.,0.));
#182=DIRECTION('',(0.,0.,1.));
#183=DIRECTION('',(1.,0.,0.));
#184=DIRECTION('',(0.,0.,1.));
#185=DIRECTION('',(1.,0.,0.));
#186=DIRECTION('',(0.,0.,-1.));
#187=DIRECTION('',(-1.,0.,0.));
#188=DIRECTION('',(0.,0.,-1.));
#189=DIRECTION('',(1.,1.22464679914735E-16,0.));
#190=DIRECTION('',(0.,0.,-1.));
#191=DIRECTION('',(1.,1.22464679914735E-16,0.));
#192=DIRECTION('',(0.,0.,-1.));
#193=DIRECTION('',(-1.,0.,0.));
#194=DIRECTION('',(0.,0.,1.));
#195=DIRECTION('',(1.,0.,0.));
#196=DIRECTION('',(0.,0.,1.));
#197=DIRECTION('',(1.,0.,0.));
#198=DIRECTION('',(0.707106781186547,0.,0.707106781186547));
#199=DIRECTION('',(-0.707106781186547,0.,0.707106781186547));
#200=DIRECTION('',(-0.707106781186547,0.,0.707106781186548));
#201=DIRECTION('',(-0.707106781186548,0.,-0.707106781186547));
#202=DIRECTION('',(-1.,0.,0.));
#203=DIRECTION('',(0.,0.,1.));
#204=DIRECTION('',(0.,0.,-1.));
#205=DIRECTION('',(-1.,0.,0.));
#206=DIRECTION('',(-0.707106781186547,0.,0.707106781186548));
#207=DIRECTION('',(0.707106781186548,0.,0.707106781186547));
#208=DIRECTION('',(0.,0.,1.));
#209=DIRECTION('',(1.,0.,0.));
#210=DIRECTION('',(0.,0.,-1.));
#211=DIRECTION('',(-1.,0.,0.));
#212=DIRECTION('',(0.707106781186547,0.,-0.707106781186548));
#213=DIRECTION('',(0.,-1.,0.));
#214=DIRECTION('',(0.,1.,0.));
#215=DIRECTION('',(0.,0.,1.));
#216=DIRECTION('',(0.,1.,0.));
#217=DIRECTION('',(0.,0.,1.));
#218=CARTESIAN_POINT('',(0.,0.,0.));
#219=CARTESIAN_POINT('',(0.,0.,-42.5));
#220=CARTESIAN_POINT('',(15.5,0.,-42.5));
#221=CARTESIAN_POINT('',(0.,0.,12.5));
#222=CARTESIAN_POINT('',(15.5,0.,12.5));
#223=CARTESIAN_POINT('',(15.5,1.75372355023108,12.5));
#224=CARTESIAN_POINT('',(15.5,-1.75372355023109,12.5));
#225=CARTESIAN_POINT('',(15.1927867427303,-3.46269121659571,12.123925205703));
#226=CARTESIAN_POINT('',(14.1648248861864,-6.4937458693149,10.8079164245347));
#227=CARTESIAN_POINT('',(13.4484353835853,-7.81998975093051,9.87400428490443));
#228=CARTESIAN_POINT('',(11.9226543516898,-9.9931460102042,7.66715287063647));
#229=CARTESIAN_POINT('',(11.0922512589646,-10.866254856662,6.37832569215207));
#230=CARTESIAN_POINT('',(9.71454580394788,-12.1136754300638,3.46661229735415));
#231=CARTESIAN_POINT('',(9.17023885682283,-12.4962697832839,1.75554052616341));
#232=CARTESIAN_POINT('',(9.16014208044094,-12.5036729105464,-1.702011980476));
#233=CARTESIAN_POINT('',(9.68670347482575,-12.1361654503406,-3.39544945226214));
#234=CARTESIAN_POINT('',(11.0712094450216,-10.8879317352612,-6.34574907707522));
#235=CARTESIAN_POINT('',(11.8926654202466,-10.0295021372118,-7.62142274582642));
#236=CARTESIAN_POINT('',(13.4302670239077,-7.85202722771654,-9.85000843685597));
#237=CARTESIAN_POINT('',(14.1398859859907,-6.54911605488789,-10.775459777706));
#238=CARTESIAN_POINT('',(15.1819695336141,-3.51213579999696,-12.1105886167324));
#239=CARTESIAN_POINT('',(15.4929469206369,-1.78898588391615,-12.4912541440797));
#240=CARTESIAN_POINT('',(15.5068035624246,1.6646074777249,-12.5084364542472));
#241=CARTESIAN_POINT('',(15.2071134113036,3.40577057779784,-12.141852675043));
#242=CARTESIAN_POINT('',(14.1790554995471,6.46606191383957,-10.8265369780662));
#243=CARTESIAN_POINT('',(13.4637055904949,7.7948995747791,-9.8948749511409));
#244=CARTESIAN_POINT('',(11.9327666215979,9.9820292707893,-7.68297477001665));
#245=CARTESIAN_POINT('',(11.1003113148465,10.8581310494171,-6.39170844176808));
#246=CARTESIAN_POINT('',(9.72151952175554,12.108178201569,-3.4849630313584));
#247=CARTESIAN_POINT('',(9.17181822555813,12.4951117414894,-1.77389285232122));
#248=CARTESIAN_POINT('',(9.1586165888685,12.5047914486043,1.70431925141191));
#249=CARTESIAN_POINT('',(9.68520106267339,12.137661038836,3.39289844709492));
#250=CARTESIAN_POINT('',(11.075291343522,10.8841102885901,6.35379560513114));
#251=CARTESIAN_POINT('',(11.8945031465009,10.0287665236937,7.62478366030118));
#252=CARTESIAN_POINT('',(13.442819153883,7.83236722101783,9.86749753322898));
#253=CARTESIAN_POINT('',(14.1448937342476,6.54210454860748,10.782099223864));
#254=CARTESIAN_POINT('',(15.1923166261091,3.47428643178938,12.1236186589666));
#255=CARTESIAN_POINT('',(15.5,1.75372355023108,12.5));
#256=CARTESIAN_POINT('',(15.5,-1.75372355023109,12.5));
#257=CARTESIAN_POINT('',(-3.9836157136129E-16,15.5,-24.5));
#258=CARTESIAN_POINT('',(0.3323184199402,15.5,-24.5));
#259=CARTESIAN_POINT('',(0.669206818621273,15.4887311382866,-24.5568382012153));
#260=CARTESIAN_POINT('',(0.98262929372608,15.4688215346584,-24.6654912822305));
#261=CARTESIAN_POINT('',(1.29591529997493,15.4489205999709,-24.7740970540613));
#262=CARTESIAN_POINT('',(1.59436205406953,15.4200054529522,-24.9373123868862));
#263=CARTESIAN_POINT('',(1.85431841157464,15.3886810100312,-25.1417160415897));
#264=CARTESIAN_POINT('',(2.1172318015906,15.3570002480843,-25.3484448106243));
#265=CARTESIAN_POINT('',(2.34803082982795,15.3222090655313,-25.6029685937474));
#266=CARTESIAN_POINT('',(2.52817647792422,15.2924270047782,-25.8849694441062));
#267=CARTESIAN_POINT('',(2.70981910140396,15.2623974608787,-26.169313666817));
#268=CARTESIAN_POINT('',(2.84495068170906,15.2368753382208,-26.4896605459489));
#269=CARTESIAN_POINT('',(2.92174387442169,15.2221356166695,-26.8192557511963));
#270=CARTESIAN_POINT('',(2.99758432847279,15.2075787642254,-27.1447618167217));
#271=CARTESIAN_POINT('',(3.01856491750561,15.2032758140327,-27.488403687987));
#272=CARTESIAN_POINT('',(2.98278225020658,15.2102928981612,-27.8209517843112));
#273=CARTESIAN_POINT('',(2.94749874139168,15.2172120958731,-28.1488609250688));
#274=CARTESIAN_POINT('',(2.85616676163301,15.235235643159,-28.4749417424791));
#275=CARTESIAN_POINT('',(2.71660875061102,15.2600798456661,-28.7728067002116));
#276=CARTESIAN_POINT('',(2.57614204037439,15.2850858153633,-29.0726111356651));
#277=CARTESIAN_POINT('',(2.38311380920647,15.317466057858,-29.3520166398629));
#278=CARTESIAN_POINT('',(2.15299204035501,15.3497434921294,-29.5891685604967));
#279=CARTESIAN_POINT('',(1.91901232632366,15.3825620510957,-29.8302962853914));
#280=CARTESIAN_POINT('',(1.64016975710321,15.415941177218,-30.0343889298717));
#281=CARTESIAN_POINT('',(1.33897688296832,15.4420575347612,-30.1846118726692));
#282=CARTESIAN_POINT('',(1.03741915162695,15.4682055289801,-30.3350167916287));
#283=CARTESIAN_POINT('',(0.704905209552014,15.4875956256874,-30.4355216068674));
#284=CARTESIAN_POINT('',(0.369576034674767,15.4955933592294,-30.4771485610554));
#285=CARTESIAN_POINT('',(0.0395199025832363,15.5034653286139,-30.5181209324426));
#286=CARTESIAN_POINT('',(-0.302419760715588,15.5004640439039,-30.5031727517441));
#287=CARTESIAN_POINT('',(-0.627488711966487,15.4872934341787,-30.433642431578));
#288=CARTESIAN_POINT('',(-0.94988819740834,15.4742309814836,-30.3646830943114));
#289=CARTESIAN_POINT('',(-1.26447898725345,15.4509304980191,-30.2402851432383));
#290=CARTESIAN_POINT('',(-1.54619283710962,15.4226874347654,-30.0708534984458));
#291=CARTESIAN_POINT('',(-1.83119214148205,15.3941149901207,-29.8994458770981));
#292=CARTESIAN_POINT('',(-2.09034904190097,15.3599085142061,-29.6773467849003));
#293=CARTESIAN_POINT('',(-2.30324634040085,15.3279175459496,-29.422252921816));
#294=CARTESIAN_POINT('',(-2.51914350183047,15.2954758039142,-29.16356461846));
#295=CARTESIAN_POINT('',(-2.69342304572701,15.264660062756,-28.863665319337));
#296=CARTESIAN_POINT('',(-2.81132831251199,15.2429141937908,-28.5471070237891));
#297=CARTESIAN_POINT('',(-2.92861594017999,15.2212822391541,-28.2322069984056));
#298=CARTESIAN_POINT('',(-2.99328995907978,15.2082298500711,-27.8919184606536));
#299=CARTESIAN_POINT('',(-2.99949121697869,15.2070066889992,-27.5552488847645));
#300=CARTESIAN_POINT('',(-3.0055876316149,15.2058042076345,-27.2242713051383));
#301=CARTESIAN_POINT('',(-2.95538315747933,15.2159947461228,-26.8876849931283));
#302=CARTESIAN_POINT('',(-2.85330364800814,15.2351126773734,-26.5733618331498));
#303=CARTESIAN_POINT('',(-2.75142396563341,15.2541931840643,-26.2596539806384));
#304=CARTESIAN_POINT('',(-2.59524538160871,15.2824982832019,-25.9595782117051));
#305=CARTESIAN_POINT('',(-2.39752312362607,15.3134543089297,-25.696702223237));
#306=CARTESIAN_POINT('',(-2.19662951173799,15.3449068519141,-25.4296098516405));
#307=CARTESIAN_POINT('',(-1.94735553249351,15.3797227391462,-25.193577115597));
#308=CARTESIAN_POINT('',(-1.66957980667558,15.4098184048074,-25.0075106280786));
#309=CARTESIAN_POINT('',(-1.38925280737747,15.4401904886957,-24.8197351845535));
#310=CARTESIAN_POINT('',(-1.07195508838394,15.4663710009395,-24.6776907814684));
#311=CARTESIAN_POINT('',(-0.744126810881211,15.4821276086114,-24.593752369579));
#312=CARTESIAN_POINT('',(-0.502129874085866,15.4937588529321,-24.5317905439811));
#313=CARTESIAN_POINT('',(-0.250074131197545,15.5,-24.5));
#314=CARTESIAN_POINT('',(-3.9836157136129E-16,15.5,-24.5));
#315=CARTESIAN_POINT('',(-3.9836157136129E-16,15.5,-24.5));
#316=CARTESIAN_POINT('',(3.9836157136129E-16,-15.5,-24.5));
#317=CARTESIAN_POINT('',(-0.3323184199402,-15.5,-24.5));
#318=CARTESIAN_POINT('',(-0.669206818621273,-15.4887311382866,-24.5568382012153));
#319=CARTESIAN_POINT('',(-0.98262929372608,-15.4688215346584,-24.6654912822305));
#320=CARTESIAN_POINT('',(-1.29591529997493,-15.4489205999709,-24.7740970540613));
#321=CARTESIAN_POINT('',(-1.59436205406953,-15.4200054529522,-24.9373123868862));
#322=CARTESIAN_POINT('',(-1.85431841157464,-15.3886810100312,-25.1417160415897));
#323=CARTESIAN_POINT('',(-2.1172318015906,-15.3570002480843,-25.3484448106243));
#324=CARTESIAN_POINT('',(-2.34803082982795,-15.3222090655313,-25.6029685937474));
#325=CARTESIAN_POINT('',(-2.52817647792422,-15.2924270047782,-25.8849694441062));
#326=CARTESIAN_POINT('',(-2.70981910140396,-15.2623974608787,-26.169313666817));
#327=CARTESIAN_POINT('',(-2.84495068170906,-15.2368753382208,-26.4896605459489));
#328=CARTESIAN_POINT('',(-2.92174387442169,-15.2221356166695,-26.8192557511963));
#329=CARTESIAN_POINT('',(-2.99758432847279,-15.2075787642254,-27.1447618167217));
#330=CARTESIAN_POINT('',(-3.01856491750561,-15.2032758140327,-27.488403687987));
#331=CARTESIAN_POINT('',(-2.98278225020658,-15.2102928981612,-27.8209517843112));
#332=CARTESIAN_POINT('',(-2.94749874139168,-15.2172120958731,-28.1488609250688));
#333=CARTESIAN_POINT('',(-2.85616676163301,-15.235235643159,-28.4749417424791));
#334=CARTESIAN_POINT('',(-2.71660875061102,-15.2600798456661,-28.7728067002116));
#335=CARTESIAN_POINT('',(-2.57614204037439,-15.2850858153633,-29.0726111356651));
#336=CARTESIAN_POINT('',(-2.38311380920647,-15.317466057858,-29.3520166398629));
#337=CARTESIAN_POINT('',(-2.15299204035501,-15.3497434921294,-29.5891685604967));
#338=CARTESIAN_POINT('',(-1.91901232632366,-15.3825620510957,-29.8302962853914));
#339=CARTESIAN_POINT('',(-1.64016975710321,-15.415941177218,-30.0343889298717));
#340=CARTESIAN_POINT('',(-1.33897688296832,-15.4420575347612,-30.1846118726692));
#341=CARTESIAN_POINT('',(-1.03741915162695,-15.4682055289801,-30.3350167916287));
#342=CARTESIAN_POINT('',(-0.704905209552014,-15.4875956256874,-30.4355216068674));
#343=CARTESIAN_POINT('',(-0.369576034674767,-15.4955933592294,-30.4771485610554));
#344=CARTESIAN_POINT('',(-0.0395199025832363,-15.5034653286139,-30.5181209324426));
#345=CARTESIAN_POINT('',(0.302419760715588,-15.5004640439039,-30.5031727517441));
#346=CARTESIAN_POINT('',(0.627488711966487,-15.4872934341787,-30.433642431578));
#347=CARTESIAN_POINT('',(0.94988819740834,-15.4742309814836,-30.3646830943114));
#348=CARTESIAN_POINT('',(1.26447898725345,-15.4509304980191,-30.2402851432383));
#349=CARTESIAN_POINT('',(1.54619283710962,-15.4226874347654,-30.0708534984458));
#350=CARTESIAN_POINT('',(1.83119214148205,-15.3941149901207,-29.8994458770981));
#351=CARTESIAN_POINT('',(2.09034904190097,-15.3599085142061,-29.6773467849003));
#352=CARTESIAN_POINT('',(2.30324634040085,-15.3279175459496,-29.422252921816));
#353=CARTESIAN_POINT('',(2.51914350183047,-15.2954758039142,-29.16356461846));
#354=CARTESIAN_POINT('',(2.69342304572701,-15.264660062756,-28.863665319337));
#355=CARTESIAN_POINT('',(2.81132831251199,-15.2429141937908,-28.5471070237891));
#356=CARTESIAN_POINT('',(2.92861594017999,-15.2212822391541,-28.2322069984056));
#357=CARTESIAN_POINT('',(2.99328995907978,-15.2082298500711,-27.8919184606536));
#358=CARTESIAN_POINT('',(2.99949121697869,-15.2070066889992,-27.5552488847645));
#359=CARTESIAN_POINT('',(3.0055876316149,-15.2058042076345,-27.2242713051383));
#360=CARTESIAN_POINT('',(2.95538315747933,-15.2159947461228,-26.8876849931283));
#361=CARTESIAN_POINT('',(2.85330364800814,-15.2351126773734,-26.5733618331498));
#362=CARTESIAN_POINT('',(2.75142396563341,-15.2541931840643,-26.2596539806384));
#363=CARTESIAN_POINT('',(2.59524538160871,-15.2824982832019,-25.9595782117051));
#364=CARTESIAN_POINT('',(2.39752312362607,-15.3134543089297,-25.696702223237));
#365=CARTESIAN_POINT('',(2.19662951173799,-15.3449068519141,-25.4296098516405));
#366=CARTESIAN_POINT('',(1.94735553249351,-15.3797227391462,-25.193577115597));
#367=CARTESIAN_POINT('',(1.66957980667558,-15.4098184048074,-25.0075106280786));
#368=CARTESIAN_POINT('',(1.38925280737747,-15.4401904886957,-24.8197351845535));
#369=CARTESIAN_POINT('',(1.07195508838394,-15.4663710009395,-24.6776907814684));
#370=CARTESIAN_POINT('',(0.744126810881211,-15.4821276086114,-24.593752369579));
#371=CARTESIAN_POINT('',(0.502129874085866,-15.4937588529321,-24.5317905439811));
#372=CARTESIAN_POINT('',(0.250074131197545,-15.5,-24.5));
#373=CARTESIAN_POINT('',(3.9836157136129E-16,-15.5,-24.5));
#374=CARTESIAN_POINT('',(3.9836157136129E-16,-15.5,-24.5));
#375=CARTESIAN_POINT('',(0.,0.,12.5));
#376=CARTESIAN_POINT('',(0.,0.,12.5));
#377=CARTESIAN_POINT('',(12.5,1.53080849893419E-15,12.5));
#378=CARTESIAN_POINT('',(0.,0.,-42.5));
#379=CARTESIAN_POINT('',(12.5,1.53080849893419E-15,-42.5));
#380=CARTESIAN_POINT('',(3.47541526121378E-16,12.5,-24.5));
#381=CARTESIAN_POINT('',(-0.33050083898764,12.5,-24.5));
#382=CARTESIAN_POINT('',(-0.6655413146531,12.4861827693402,-24.5562458522164));
#383=CARTESIAN_POINT('',(-0.977163378071405,12.4617475392722,-24.663602331732));
#384=CARTESIAN_POINT('',(-1.28858132805395,12.437328314357,-24.7708884924144));
#385=CARTESIAN_POINT('',(-1.58514973476444,12.4018442267757,-24.9319464877139));
#386=CARTESIAN_POINT('',(-1.84389801404611,12.3632536216724,-25.1335596111888));
#387=CARTESIAN_POINT('',(-2.10708633127964,12.324000814093,-25.3386323515636));
#388=CARTESIAN_POINT('',(-2.3384088778194,12.2807196666742,-25.5912525647879));
#389=CARTESIAN_POINT('',(-2.51962907680824,12.2434255547744,-25.8716667063213));
#390=CARTESIAN_POINT('',(-2.70325950681233,12.2056354306988,-26.1558103596024));
#391=CARTESIAN_POINT('',(-2.84048336075485,12.1732562296575,-26.4766794390867));
#392=CARTESIAN_POINT('',(-2.91895504183982,12.1544107822518,-26.8073951604862));
#393=CARTESIAN_POINT('',(-2.99595742660434,12.1359181952174,-27.1319185920578));
#394=CARTESIAN_POINT('',(-3.01842606178459,12.1301419926738,-27.4750962186198));
#395=CARTESIAN_POINT('',(-2.98422166144915,12.1385510286581,-27.8072801251914));
#396=CARTESIAN_POINT('',(-2.95077001971432,12.1467750014899,-28.1321534433533));
#397=CARTESIAN_POINT('',(-2.86236343436834,12.168656211768,-28.4553458222896));
#398=CARTESIAN_POINT('',(-2.72671984894709,12.1989753203028,-28.7509991468254));
#399=CARTESIAN_POINT('',(-2.58977022421461,12.2295863552676,-29.0494991586052));
#400=CARTESIAN_POINT('',(-2.40114776487997,12.2693478304819,-29.328030686216));
#401=CARTESIAN_POINT('',(-2.17571693188322,12.3091939554268,-29.565491668421));
#402=CARTESIAN_POINT('',(-1.94439724116066,12.3500809679807,-29.8091557681014));
#403=CARTESIAN_POINT('',(-1.66785889384747,12.3919007260251,-30.0162889186816));
#404=CARTESIAN_POINT('',(-1.36808003380233,12.4249087329087,-30.169898316624));
#405=CARTESIAN_POINT('',(-1.06749559965727,12.4580054398275,-30.3239204980176));
#406=CARTESIAN_POINT('',(-0.734889765448388,12.4829112831029,-30.4283085829795));
#407=CARTESIAN_POINT('',(-0.398702366413592,12.4936398388547,-30.4733880377469));
#408=CARTESIAN_POINT('',(-0.0704957033997334,12.5041137099526,-30.5173973535695));
#409=CARTESIAN_POINT('',(0.27026845561004,12.5012966432935,-30.506074254593));
#410=CARTESIAN_POINT('',(0.594651143868825,12.4858475890544,-30.4404744544198));
#411=CARTESIAN_POINT('',(0.914725535402318,12.4706037218126,-30.3757459196208));
#412=CARTESIAN_POINT('',(1.22752595178824,12.4428020176935,-30.2566070763146));
#413=CARTESIAN_POINT('',(1.50855046052774,12.4086371333858,-30.0931208047527));
#414=CARTESIAN_POINT('',(1.79429571166428,12.3738983360818,-29.9268882368733));
#415=CARTESIAN_POINT('',(2.05497643286517,12.3318763622531,-29.710424165207));
#416=CARTESIAN_POINT('',(2.27065091925906,12.2920358119747,-29.4606489749234));
#417=CARTESIAN_POINT('',(2.49114151198737,12.2513056046498,-29.2052961945583));
#418=CARTESIAN_POINT('',(2.67068168814122,12.2120214346408,-28.9078848047009));
#419=CARTESIAN_POINT('',(2.79400406433285,12.1837408577371,-28.5924931526062));
#420=CARTESIAN_POINT('',(2.91655273849199,12.1556377080003,-28.2790802100515));
#421=CARTESIAN_POINT('',(2.98686909211373,12.1379055568941,-27.9389085414851));
#422=CARTESIAN_POINT('',(2.99828511569454,12.135084934396,-27.6014217186038));
#423=CARTESIAN_POINT('',(3.00940030753199,12.1323386401241,-27.2728282506262));
#424=CARTESIAN_POINT('',(2.96503850273118,12.1436498032369,-26.9377356481865));
#425=CARTESIAN_POINT('',(2.86925941570157,12.1662381369677,-26.6240146089073));
#426=CARTESIAN_POINT('',(2.7739388559713,12.1887183326072,-26.3117954597102));
#427=CARTESIAN_POINT('',(2.6253357896779,12.2227267500345,-26.0122961063412));
#428=CARTESIAN_POINT('',(2.43555714779201,12.260426639389,-25.7484117550522));
#429=CARTESIAN_POINT('',(2.24117219441608,12.2990415813109,-25.4781223968178));
#430=CARTESIAN_POINT('',(1.99832302815377,12.3422985824056,-25.2377895395648));
#431=CARTESIAN_POINT('',(1.72594947356363,12.380270530756,-25.0462073407263));
#432=CARTESIAN_POINT('',(1.44926661698835,12.4188432444511,-24.851594063665));
#433=CARTESIAN_POINT('',(1.13417350802306,12.4527592514793,-24.7019439175224));
#434=CARTESIAN_POINT('',(0.806890261241545,12.4739299383279,-24.6105488226458));
#435=CARTESIAN_POINT('',(0.545790377638662,12.4908194795016,-24.537635684351));
#436=CARTESIAN_POINT('',(0.271615042945876,12.5,-24.5));
#437=CARTESIAN_POINT('',(3.47541526121378E-16,12.5,-24.5));
#438=CARTESIAN_POINT('',(3.47541526121378E-16,12.5,-24.5));
#439=CARTESIAN_POINT('',(-3.47541526121378E-16,-12.5,-24.5));
#440=CARTESIAN_POINT('',(0.33050083898764,-12.5,-24.5));
#441=CARTESIAN_POINT('',(0.6655413146531,-12.4861827693402,-24.5562458522164));
#442=CARTESIAN_POINT('',(0.977163378071405,-12.4617475392722,-24.663602331732));
#443=CARTESIAN_POINT('',(1.28858132805395,-12.437328314357,-24.7708884924144));
#444=CARTESIAN_POINT('',(1.58514973476444,-12.4018442267757,-24.9319464877139));
#445=CARTESIAN_POINT('',(1.84389801404611,-12.3632536216724,-25.1335596111888));
#446=CARTESIAN_POINT('',(2.10708633127964,-12.324000814093,-25.3386323515636));
#447=CARTESIAN_POINT('',(2.3384088778194,-12.2807196666742,-25.5912525647879));
#448=CARTESIAN_POINT('',(2.51962907680824,-12.2434255547744,-25.8716667063213));
#449=CARTESIAN_POINT('',(2.70325950681233,-12.2056354306988,-26.1558103596024));
#450=CARTESIAN_POINT('',(2.84048336075485,-12.1732562296575,-26.4766794390867));
#451=CARTESIAN_POINT('',(2.91895504183982,-12.1544107822518,-26.8073951604862));
#452=CARTESIAN_POINT('',(2.99595742660434,-12.1359181952174,-27.1319185920578));
#453=CARTESIAN_POINT('',(3.01842606178459,-12.1301419926738,-27.4750962186198));
#454=CARTESIAN_POINT('',(2.98422166144915,-12.1385510286581,-27.8072801251914));
#455=CARTESIAN_POINT('',(2.95077001971432,-12.1467750014899,-28.1321534433533));
#456=CARTESIAN_POINT('',(2.86236343436834,-12.168656211768,-28.4553458222896));
#457=CARTESIAN_POINT('',(2.72671984894709,-12.1989753203028,-28.7509991468254));
#458=CARTESIAN_POINT('',(2.58977022421461,-12.2295863552676,-29.0494991586052));
#459=CARTESIAN_POINT('',(2.40114776487997,-12.2693478304819,-29.328030686216));
#460=CARTESIAN_POINT('',(2.17571693188322,-12.3091939554268,-29.565491668421));
#461=CARTESIAN_POINT('',(1.94439724116066,-12.3500809679807,-29.8091557681014));
#462=CARTESIAN_POINT('',(1.66785889384747,-12.3919007260251,-30.0162889186816));
#463=CARTESIAN_POINT('',(1.36808003380233,-12.4249087329087,-30.169898316624));
#464=CARTESIAN_POINT('',(1.06749559965727,-12.4580054398275,-30.3239204980176));
#465=CARTESIAN_POINT('',(0.734889765448388,-12.4829112831029,-30.4283085829795));
#466=CARTESIAN_POINT('',(0.398702366413592,-12.4936398388547,-30.4733880377469));
#467=CARTESIAN_POINT('',(0.0704957033997334,-12.5041137099526,-30.5173973535695));
#468=CARTESIAN_POINT('',(-0.27026845561004,-12.5012966432935,-30.506074254593));
#469=CARTESIAN_POINT('',(-0.594651143868825,-12.4858475890544,-30.4404744544198));
#470=CARTESIAN_POINT('',(-0.914725535402318,-12.4706037218126,-30.3757459196208));
#471=CARTESIAN_POINT('',(-1.22752595178824,-12.4428020176935,-30.2566070763146));
#472=CARTESIAN_POINT('',(-1.50855046052774,-12.4086371333858,-30.0931208047527));
#473=CARTESIAN_POINT('',(-1.79429571166428,-12.3738983360818,-29.9268882368733));
#474=CARTESIAN_POINT('',(-2.05497643286517,-12.3318763622531,-29.710424165207));
#475=CARTESIAN_POINT('',(-2.27065091925906,-12.2920358119747,-29.4606489749234));
#476=CARTESIAN_POINT('',(-2.49114151198737,-12.2513056046498,-29.2052961945583));
#477=CARTESIAN_POINT('',(-2.67068168814122,-12.2120214346408,-28.9078848047009));
#478=CARTESIAN_POINT('',(-2.79400406433285,-12.1837408577371,-28.5924931526062));
#479=CARTESIAN_POINT('',(-2.91655273849199,-12.1556377080003,-28.2790802100515));
#480=CARTESIAN_POINT('',(-2.98686909211373,-12.1379055568941,-27.9389085414851));
#481=CARTESIAN_POINT('',(-2.99828511569454,-12.135084934396,-27.6014217186038));
#482=CARTESIAN_POINT('',(-3.00940030753199,-12.1323386401241,-27.2728282506262));
#483=CARTESIAN_POINT('',(-2.96503850273118,-12.1436498032369,-26.9377356481865));
#484=CARTESIAN_POINT('',(-2.86925941570157,-12.1662381369677,-26.6240146089073));
#485=CARTESIAN_POINT('',(-2.7739388559713,-12.1887183326072,-26.3117954597102));
#486=CARTESIAN_POINT('',(-2.6253357896779,-12.2227267500345,-26.0122961063412));
#487=CARTESIAN_POINT('',(-2.43555714779201,-12.260426639389,-25.7484117550522));
#488=CARTESIAN_POINT('',(-2.24117219441608,-12.2990415813109,-25.4781223968178));
#489=CARTESIAN_POINT('',(-1.99832302815377,-12.3422985824056,-25.2377895395648));
#490=CARTESIAN_POINT('',(-1.72594947356363,-12.380270530756,-25.0462073407263));
#491=CARTESIAN_POINT('',(-1.44926661698835,-12.4188432444511,-24.851594063665));
#492=CARTESIAN_POINT('',(-1.13417350802306,-12.4527592514793,-24.7019439175224));
#493=CARTESIAN_POINT('',(-0.806890261241545,-12.4739299383279,-24.6105488226458));
#494=CARTESIAN_POINT('',(-0.545790377638662,-12.4908194795016,-24.537635684351));
#495=CARTESIAN_POINT('',(-0.271615042945876,-12.5,-24.5));
#496=CARTESIAN_POINT('',(-3.47541526121378E-16,-12.5,-24.5));
#497=CARTESIAN_POINT('',(-3.47541526121378E-16,-12.5,-24.5));
#498=CARTESIAN_POINT('',(0.,0.,12.5));
#499=CARTESIAN_POINT('',(0.,0.,12.5));
#500=CARTESIAN_POINT('',(0.,0.,-42.5));
#501=CARTESIAN_POINT('',(275.,0.,0.));
#502=CARTESIAN_POINT('',(281.25,10.8253175473055,-6.24999999999999));
#503=CARTESIAN_POINT('',(281.25,-10.8253175473055,-6.24999999999999));
#504=CARTESIAN_POINT('',(287.5,0.,0.));
#505=CARTESIAN_POINT('',(275.,0.,0.));
#506=CARTESIAN_POINT('',(275.,0.,300.));
#507=CARTESIAN_POINT('',(262.5,0.,300.));
#508=CARTESIAN_POINT('',(275.,0.,-12.5));
#509=CARTESIAN_POINT('',(275.,0.,0.));
#510=CARTESIAN_POINT('',(275.,0.,300.));
#511=CARTESIAN_POINT('',(287.5,0.,0.));
#512=CARTESIAN_POINT('',(0.,-55000.,-27.5));
#513=CARTESIAN_POINT('',(0.,-55000.,-27.5));
#514=MECHANICAL_DESIGN_GEOMETRIC_PRESENTATION_REPRESENTATION('',(#24),#515);
#515=(
GEOMETRIC_REPRESENTATION_CONTEXT(3)
GLOBAL_UNCERTAINTY_ASSIGNED_CONTEXT((#516))
GLOBAL_UNIT_ASSIGNED_CONTEXT((#522,#518,#517))
REPRESENTATION_CONTEXT('W_WS_M_03_crank','TOP_LEVEL_ASSEMBLY_PART')
);
#516=UNCERTAINTY_MEASURE_WITH_UNIT(LENGTH_MEASURE(0.0508),#522,
'DISTANCE_ACCURACY_VALUE','Maximum Tolerance applied to model');
#517=(
NAMED_UNIT(*)
SI_UNIT($,.STERADIAN.)
SOLID_ANGLE_UNIT()
);
#518=(
CONVERSION_BASED_UNIT('DEGREE',#520)
NAMED_UNIT(#519)
PLANE_ANGLE_UNIT()
);
#519=DIMENSIONAL_EXPONENTS(0.,0.,0.,0.,0.,0.,0.);
#520=PLANE_ANGLE_MEASURE_WITH_UNIT(PLANE_ANGLE_MEASURE(0.0174532925),#521);
#521=(
NAMED_UNIT(*)
PLANE_ANGLE_UNIT()
SI_UNIT($,.RADIAN.)
);
#522=(
LENGTH_UNIT()
NAMED_UNIT(*)
SI_UNIT(.MILLI.,.METRE.)
);
ENDSEC;
END-ISO-10303-21;
